<svg xmlns="http://www.w3.org/2000/svg" viewBox="0 0 422.05 829.81"><defs><style>.cls-1{fill:#96aa8c;}.cls-2{fill:#81867f;}.cls-3{fill:#f0f1e3;}</style></defs><g id="Layer_2" data-name="Layer 2"><g id="plants2"><g id="alocasia1"><path class="cls-1" d="M18.75,713.6c-.75-12.32.13-25-4-36.67-3.51-10-10.53-18.65-12.71-29-3.56-16.88,6.35-33.39,9.25-50.39,4.94-29-10.7-58.17-7.39-87.36,1.19-10.5,19.3-51.56,22.88-61.49,7.37-20.45,7.65-38.7,10.66-49.2S46.31,386,53.76,365.37c4.52-12.53,17.78-32.19,22.3-44.72,6.87-19,2.85-46.41,10.24-65.27,6.79-17.33,21.71-32.22,29.59-48.82C125.64,186,128.6,163.89,139.47,144c9.2-16.82,24-35.57,33.62-52.23,17.38-30.11,29.84-58.09,46.9-89,3.26,6.31,2.44,14.65,5.87,20.86,22,39.82,51.58,75.66,80.08,111.11,6.56,8.15,10.66,15.81,15,25.31,6.47,14,10.2,30.39,14.53,45.23,10.91,37.36,33.66,54.92,40.69,86.8,4.27,19.36,4.17,44.09,12.07,62.29,5.05,11.63,17.14,19.05,22.11,30.72,7.42,17.41-13.79,59-5.15,87.57,3.18,10.52,12.66,21,14.81,31.74,5.7,28.64-25.91,44.1-33.1,72.4-7.61,30,9.41,68.25-7.3,94.32-4.72,7.36-12.72,14.71-17.24,22.19-5.19,8.6-8.3,19.18-10.54,29-2.48,10.85-.72,25.79-5.14,36-4.56,10.54-16.8,16.54-23.23,26-5.45,8-7.34,17.17-14,24.24-5.78,6.14-8.81,10.92-16,15.24-23.85,14.28-50.1-6.8-55.75-32.74-4.8-22.05-1.67-44.77-4.24-67.19-4.41-38.53-12.58-80.06-28.69-114.48-28.78,36.39-33.77,97-57.07,136.29-8.12,13.69-18.44,5-21.1,16.21-2.48,10.49-5.39,25.61-20.67,32.28-16,7-38,5.13-56.23-5.26-6-3.43-8-15.12-12.06-20.55C25.36,752.11,20,734.09,18.75,713.6Z"/><path d="M220,0l1.13,2.2c1.69,3.27,2.34,7,3,10.62S225.38,20.05,227,23c20.45,37,47.77,71,74.2,103.76l5.75,7.15c6.67,8.3,10.77,15.94,15.2,25.59,5,10.87,8.38,23.08,11.64,34.89,1,3.56,1.95,7.08,3,10.52,5.34,18.3,13.5,31.72,21.39,44.69,8.08,13.3,15.72,25.86,19.32,42.19,1.56,7.11,2.52,14.74,3.54,22.81,1.72,13.69,3.5,27.84,8.45,39.24,2.43,5.59,6.68,10.33,10.79,14.92,4.3,4.79,8.74,9.75,11.33,15.81,3.61,8.48.88,21.71-2.27,37-3.45,16.74-7.36,35.7-2.83,50.67,1.41,4.67,4.19,9.49,6.89,14.15,3.31,5.73,6.74,11.66,7.95,17.73,3.42,17.21-6,29.59-16,42.7-7,9.17-14.2,18.66-17.14,30.27-3.17,12.47-2,26.72-.83,40.5,1.59,19.07,3.24,38.79-6.64,54.21a102.37,102.37,0,0,1-8.39,10.71A92.3,92.3,0,0,0,363.52,694c-5.56,9.2-8.59,20.72-10.38,28.58a91.06,91.06,0,0,0-1.6,14.57c-.45,7.58-.92,15.42-3.62,21.67s-8,10.94-13,15.48c-3.74,3.34-7.61,6.8-10.31,10.78a72.78,72.78,0,0,0-5.43,10.16c-2.29,4.89-4.66,10-8.71,14.25-1.45,1.54-2.72,3-3.94,4.39-3.65,4.15-6.8,7.74-12.38,11.08a31.81,31.81,0,0,1-30.06,2c-13.36-5.78-24.21-19.73-27.66-35.55-2.82-13-2.93-26.33-3-39.26a269.71,269.71,0,0,0-1.22-28.06c-5.29-46.2-14.35-82.9-27.67-112.09-15,19.92-23.48,47-31.66,73.29-6.68,21.43-13.58,43.58-24,61.13-4.45,7.51-9.59,8.73-13.73,9.72-3.68.87-6.11,1.45-7.21,6.12l-.33,1.38c-2.48,10.62-5.88,25.16-21.1,31.81-16.53,7.22-39.06,5.13-57.41-5.32-4.09-2.33-6.32-7.71-8.49-12.92a38.81,38.81,0,0,0-4-8C24.86,753.64,18.78,736,17.43,713.68h0c-.19-3.06-.27-6.18-.36-9.2-.25-9.11-.51-18.53-3.53-27.11a89.39,89.39,0,0,0-5.63-12c-2.86-5.41-5.83-11-7.12-17.15C-1.62,636.81,2,625.53,5.4,614.61A131.39,131.39,0,0,0,10,597.32c2.53-14.82-.49-30.1-3.42-44.87C3.85,538.58,1,524.24,2.63,510c.87-7.68,10.24-30.5,17.08-47.16,2.6-6.34,4.85-11.82,5.87-14.63,4.62-12.84,6.44-24.88,7.9-34.56a124.72,124.72,0,0,1,2.73-14.55c1.42-4.94,3.46-8.34,5.82-12.27a110.46,110.46,0,0,0,10.49-21.94c2.29-6.36,6.84-14.59,11.23-22.55s8.85-16,11.07-22.17c3.29-9.13,4.06-20.53,4.8-31.56.78-11.75,1.6-23.91,5.45-33.74,3.76-9.58,10-18.47,16-27.07,5-7.06,10.07-14.37,13.61-21.84,4.43-9.33,7.5-19.16,10.47-28.68,3.54-11.33,7.19-23,13.15-33.92,4.94-9,11.53-18.69,17.91-28,5.54-8.11,11.26-16.49,15.72-24.23,9.59-16.6,17.5-32.2,25.87-48.72,6.57-13,13.37-26.39,21-40.24Zm62.68,826.64a31.06,31.06,0,0,0,10-3.92c5.22-3.12,8.1-6.41,11.75-10.56,1.24-1.42,2.53-2.88,4-4.45,3.76-4,5.93-8.64,8.24-13.56a75.12,75.12,0,0,1,5.63-10.52c2.88-4.25,6.87-7.82,10.73-11.27,5.1-4.55,9.91-8.85,12.38-14.56s3-13.42,3.41-20.77a95.07,95.07,0,0,1,1.66-15c1.84-8,4.94-19.83,10.7-29.36a93.38,93.38,0,0,1,9.09-11.8,102.08,102.08,0,0,0,8.17-10.42c9.4-14.67,7.86-33.08,6.23-52.57-1.16-14-2.37-28.47.9-41.37,3.08-12.13,10.47-21.84,17.61-31.22,9.6-12.62,18.67-24.55,15.47-40.59-1.12-5.63-4.43-11.37-7.64-16.91-2.77-4.8-5.63-9.75-7.13-14.71-4.72-15.62-.74-34.93,2.77-52,2.94-14.27,5.71-27.74,2.43-35.46-2.42-5.66-6.52-10.24-10.87-15.09s-8.65-9.64-11.24-15.63c-5.11-11.74-6.91-26.09-8.65-40-1-8-2-15.58-3.51-22.57-3.5-15.9-11-28.28-19-41.38s-16.23-26.69-21.67-45.33c-1-3.45-2-7-3-10.56-3.23-11.7-6.57-23.81-11.49-34.49-4.35-9.46-8.36-16.95-14.86-25l-5.75-7.15c-26.5-32.89-53.89-66.9-74.46-104.15-1.85-3.36-2.53-7.26-3.18-11a48.27,48.27,0,0,0-1.68-7.44c-7.1,13-13.49,25.56-19.67,37.77-8,15.83-16.32,32.19-25.94,48.85-4.51,7.83-10.26,16.25-15.82,24.4-6.35,9.29-12.91,18.9-17.78,27.81-5.83,10.65-9.45,22.24-12.94,33.44-3,9.6-6.1,19.53-10.61,29-3.64,7.67-8.82,15.06-13.83,22.22-5.94,8.47-12.08,17.23-15.72,26.51-3.7,9.46-4.5,21.41-5.28,33-.75,11.21-1.52,22.79-4.94,32.28-2.3,6.37-6.84,14.59-11.24,22.55s-8.84,16-11.07,22.17a113.5,113.5,0,0,1-10.7,22.41c-2.36,3.92-4.22,7-5.55,11.63a120.19,120.19,0,0,0-2.65,14.21c-1.48,9.8-3.32,22-8,35.07-1,2.86-3.18,8.1-5.91,14.74C15.76,479.46,6.09,503,5.26,510.32c-1.57,13.81,1.23,27.95,3.93,41.62,3,15,6.05,30.52,3.44,45.82a136.23,136.23,0,0,1-4.71,17.65C4.42,626.48,1.11,637,3.37,647.65c1.22,5.79,4,11,6.88,16.46A92,92,0,0,1,16,676.49c3.15,9,3.42,18.6,3.68,27.92.08,3,.16,6.1.35,9.11,1.32,21.78,7.23,39,18.61,54.09A40.73,40.73,0,0,1,43,776.18c2,4.79,4,9.75,7.35,11.63,17.65,10.05,39.26,12.09,55,5.2,14-6.12,17.24-19.92,19.59-30l.33-1.39c1.48-6.26,5.39-7.19,9.17-8.09s8.19-1.94,12.07-8.48c10.25-17.29,17.1-39.29,23.73-60.58,8.49-27.24,17.27-55.41,33.44-75.86L205,607l.9,1.93c13.95,29.78,23.37,67.36,28.82,114.89A267.72,267.72,0,0,1,236,752.11c.11,12.79.22,26,3,38.72,3.27,15,13.52,28.23,26.12,33.69A29.94,29.94,0,0,0,282.71,826.64Z"/><path class="cls-2" d="M263.74,742.34c3.11,25.18,1.12,52.81,15.89,73.44,5.06,1.46,10.38-2.59,12.24-7.52s1.16-10.4.44-15.62l-6.71-48.53c1.67-3,6.2-.59,8.59,1.88,7.44,7.68,16.82,14.6,27.51,14.8s21.85-9.23,19.87-19.73c-2.88-15.27-24.6-15.13-38.18-22.67-17.82-9.9-20.9-33.79-21.89-54.16,5.29-5.67,14.29.35,20.19,5.38s17.79,7.21,19-.45C334.5,686.71,367,682.55,376,662.08c1.26-2.88,2.09-6.23.88-9.13s-4.2-4.7-7-6.25L296.55,606c-3.72-2.06-7.87-4.75-8.35-9-.83-7.21,8.75-10.29,15.95-11.27a154.33,154.33,0,0,0,101.32-59.35c6.19-8.23,9.91-22.84.27-26.47-3.27-1.23-6.91-.43-10.32.39l-75.24,18.06c-8.51,2-20.67,2-22.41-6.62a304.23,304.23,0,0,0,95.54-86.64c7.81-11,15.14-25,9.63-37.24-4.65-10.34-17.36-15.17-28.61-13.81s-21.29,7.62-30.41,14.36a243.38,243.38,0,0,0-28.75,24.91c-2.74,2.77-5.56,5.71-9.23,7-8.66,3.08-18.34-5.17-19.09-14.33s5.21-17.75,12.7-23.08,16.42-8.12,24.95-11.55c18.93-7.6,37.36-19.61,46.06-38.05s4.09-44.09-13.94-53.63c-16.84-8.91-37.77-1.25-53.42,9.61-8.12,5.64-19.29,12.15-26.78,5.71-6.58-5.67-3.74-16.54,1.19-23.69s11.71-14,11.76-22.72c0-9-7.18-16.13-13.86-22.14,15.47-9.36,32-20,38.09-37s-6.12-40.75-24-38.25c-7.38,1-13.54,6.07-20.6,8.43s-17,.3-18.4-7c-2.26-11.81,18.5-15.18,21.44-26.84,2.35-9.31-12.6-16.7-18.57-9.18a36.76,36.76,0,0,0,4.05-28.43C250,90.06,237.76,87,240.92,79.9c1.11-2.48,4.06-4,4.6-6.62.89-4.42-5-6.64-8.49-9.45-10.86-8.61-5.43-33.22-19.28-34a39.55,39.55,0,0,0-8.65,29.87l-8,21.26c-2,5.33-5.07,11.51-10.74,12.09a27.36,27.36,0,0,1,7.58,19.47l-18.76,4.1a118.6,118.6,0,0,0,25.93,36.62C191,159.83,176.42,138,161.51,142.37c-12.83,3.79-12.53,22.8-5.5,34.18s18.26,21.3,19.19,34.66c-11.35,3.75-18.68,16.88-15.93,28.51,1,4.44,3.37,8.75,2.81,13.27-1.42,11.66-18.26,12.69-29.22,8.45s-24.53-10.05-33.21-2.13c-6.29,5.74-5.89,15.87-3,23.89s7.72,15.44,8.89,23.88c2.83,20.32-16.13,38.43-15,58.91.2,3.67,1,7.74-1.18,10.72-4.45,6.17-14.3.64-21.72,2.29-11.76,2.62-10.89,19.61-7.16,31.07C45.75,417.6,42.06,438.4,48.8,453.51s21,25.44,35.33,33.65c-11.07,5.25-24,2.86-36.23,2.07s-26.44,1.22-33,11.59c-5.54,8.8-3.32,20.41.86,29.93,13.84,31.51,48.51,52.57,82.85,50.34-16.11,11-38.64-5.88-57.16.26-12.93,4.29-19.66,18.29-23.88,31.24-3.75,11.51-6.51,24.59-.91,35.32,4.78,9.15,14.55,14.43,24,18.52,21.47,9.3,49.1,14.31,66.12-1.74-3.82,20.92-20.08,39.06-40.46,45.14-7.86,2.34-16.27,3-23.61,6.71s-13.5,11.73-11.36,19.64c3.19,11.79,20.33,12.31,31.13,6.61s20.63-15.17,32.84-15.1c15.06.09,32.57,14.12,42.83,3.1,2.6-2.8,3.75-6.6,4.87-10.25a468.07,468.07,0,0,1,51.33-112c17-27,30.28,28.87,35.26,38.67C245,677.37,259.54,708.31,263.74,742.34Z"/><path class="cls-3" d="M194.93,590.64c5.47-48,9.45-96.19,12.34-144.49s4.62-96.7,5.81-145.14,1.76-96.91,2.25-145.4l.38-36.38c.17-12.13.43-24.26.71-36.38.56-24.24,1.23-48.48,1.46-72.7h2.64c.34,24.26.23,48.52.24,72.76,0,12.12,0,24.24.13,36.34s.39,24.24.57,36.35c.82,48.49,1.51,97,1.66,145.53s-.39,97.1-1.92,145.67-4.3,97.15-8.51,145.66Z"/><path class="cls-3" d="M214.42,211.15l-16.63-11.72c-5.54-3.91-11.09-7.78-16.63-11.83a160,160,0,0,1-15.72-13.17c-5-4.64-9.8-9.41-14.72-14.05l.87-1c5.24,4.32,10.37,8.76,15.61,13a158.4,158.4,0,0,0,16.27,11.88c5.66,3.59,11.49,7.09,17.28,10.62l17.38,10.58Z"/><path class="cls-3" d="M218.47,220.41q23.24-16.71,46.83-32.86,11.81-8.07,23.69-16l11.88-7.91c3.84-2.64,7.55-5.72,9.27-10l1.24.46a18.47,18.47,0,0,1-3.91,6.27,40.78,40.78,0,0,1-5.48,4.81l-11.57,8.41q-11.55,8.4-23,16.94-22.89,17.07-45.35,34.68Z"/><path class="cls-3" d="M215.17,345.87a71.61,71.61,0,0,0-6.42-5.19q-3.45-2.42-7.13-4.64c-4.9-3-10-5.7-15.17-8.49s-10.4-5.63-15.38-8.85-9.81-6.55-14.62-9.87L98.69,269l.72-1.1L159,305c5,3.09,9.9,6.19,14.91,9.07s10.11,5.44,15.39,8,10.56,5.11,15.8,8a90,90,0,0,1,15.23,10.13Z"/><path class="cls-3" d="M368.58,284.59l-35.87,25.08c-6,4.16-12.07,8.27-18.42,12-3.17,1.87-6.4,3.66-9.71,5.31s-6.65,3.13-9.8,4.77a64.35,64.35,0,0,0-8.94,5.67c-2.89,2.14-5.91,4.39-9.11,6.37a144.17,144.17,0,0,1-19.9,10c-6.77,2.88-13.53,5.54-20,8.54a99,99,0,0,0-18.22,10.58L214.21,367a106.23,106.23,0,0,1,19.92-10.69c6.84-2.88,13.75-5.32,20.49-7.92a138.4,138.4,0,0,0,19.48-9c3.07-1.75,6-3.76,9-5.85a68.55,68.55,0,0,1,9.72-5.7c3.37-1.61,6.77-3,10-4.47s6.48-3.12,9.65-4.85c6.34-3.46,12.49-7.32,18.62-11.26l36.7-23.81Z"/><path class="cls-3" d="M209.32,488.6c-6.73-3.86-13.41-7.68-20.24-11-3.43-1.68-6.87-3.22-10.41-4.64s-7.24-2.8-10.91-4.49a89.71,89.71,0,0,1-10.51-5.85c-3.33-2.13-6.53-4.3-9.77-6.46-6.46-4.35-12.88-8.73-19.25-13.2Q90,416.17,54,386.5l.82-1q36.91,28.35,75.94,53.73,9.74,6.33,19.6,12.47c6.62,4.06,13.07,8.35,19.87,11.19,3.44,1.45,7.06,2.67,10.76,4s7.42,2.85,11,4.48c7.22,3.24,14.16,6.91,21,10.54Z"/><path class="cls-3" d="M208.8,497.38l97.67-51c16.27-8.54,32.62-16.84,48.42-26.07a473.27,473.27,0,0,0,45.75-30.41l.82,1a479.25,479.25,0,0,1-44.83,32.22C341.06,433,325,441.94,309,451.06l-95.74,54.55Z"/><path class="cls-3" d="M198.19,582.5a70.56,70.56,0,0,0-18.37-14.19,116.87,116.87,0,0,0-22.24-9.18c-7.8-2.4-15.84-4.3-24-6.14s-16.34-3.76-24.46-5.85A678.84,678.84,0,0,1,14,515l.49-1.23a675.61,675.61,0,0,0,96.05,27.34c8.16,1.67,16.3,3.18,24.54,4.61s16.55,3,24.84,5.1a126.35,126.35,0,0,1,24.44,8.75,80.9,80.9,0,0,1,21.86,15.3Z"/><path class="cls-3" d="M202.74,577.69c8.31-3.71,16.7-7.43,25.35-10.68a164.15,164.15,0,0,1,26.72-7.74c4.53-.89,9-1.63,13.43-2.48S277.09,555,281.5,554c8.82-2,17.61-4.21,26.41-6.48l105.6-27.39.36,1.28L309.19,552.21c-8.73,2.56-17.5,5.08-26.35,7.37-4.43,1.15-8.87,2.23-13.35,3.23s-8.94,1.9-13.3,2.91c-17.38,3.87-33.6,11.6-49.93,19.53Z"/><path class="cls-3" d="M205.19,588.12c-7.07,6.52-13.06,14.5-18.8,22.88l-17.18,25.61c-5.74,8.57-11.32,17-16.09,25.92s-9.21,18.32-14.35,27.37c-10.26,18.06-20.9,35.61-31.42,53.35-5.25,8.82-10.61,17.9-17.91,25.51a67.1,67.1,0,0,1-26.13,16.81l-.46-1.24A65,65,0,0,0,87.54,767c6.71-7.59,11.57-16.61,16.47-25.65,9.76-18.12,19.74-36.23,29.11-54.39,4.67-9.07,8.6-18.55,13.21-27.93a312.43,312.43,0,0,1,15.38-27.22l16.17-26.39c5.54-8.82,11.59-17.73,19.38-25.54Z"/><path class="cls-3" d="M201.27,590a46.23,46.23,0,0,1-11,7.9c-3.83,2.06-7.56,3.74-11.28,5.52a233.28,233.28,0,0,1-23.06,9.7c-7.85,2.8-15.77,5.18-23.63,7.58l-23.61,7.2c-7.88,2.39-15.69,4.84-23.65,7.17s-16.2,4.21-24.67,4.37a81.94,81.94,0,0,1-12.5-.88c-4.07-.52-8.1-.84-12.19-1-8.16-.29-16.37.1-24.59.49l-.08-1.32c8.19-.68,16.42-1.37,24.71-1.39,4.13,0,8.32.18,12.42.56a81.07,81.07,0,0,0,12.12.42c8-.44,15.87-2.58,23.61-5.1s15.54-5.33,23.31-8l23.33-8.05c7.78-2.69,15.53-5.33,23.07-8.33a226.6,226.6,0,0,0,22.06-10.24c7.31-3.83,14.69-7.24,19.47-12.48Z"/><path class="cls-3" d="M211.12,580.63c3.35,8.23,9.75,15.68,15.92,23.9A87.36,87.36,0,0,1,235.57,618a103.79,103.79,0,0,1,5.6,14.71q9,28.9,16.76,58.08,3.9,14.6,7.47,29.27c1.2,4.88,2.39,9.82,3.3,14.85a87.56,87.56,0,0,1,1.46,15.33c0,5.1-.22,10.08.07,15a85.56,85.56,0,0,0,2.07,14.66,87.25,87.25,0,0,0,11.46,27.37l-1.1.74a89.49,89.49,0,0,1-12.82-27.49,88,88,0,0,1-2.75-15c-.51-5.11-.44-10.18-.68-15.13-.35-9.84-3-19.36-5.81-29S255,702.06,252,692.48q-8.9-28.72-19-57.05a94.78,94.78,0,0,0-5.63-13.23,78.81,78.81,0,0,0-8.09-11.64c-3.09-3.81-6.42-7.59-9.63-11.74A71.22,71.22,0,0,1,201,585Z"/><path class="cls-3" d="M229.17,612.34c12.29,2.41,24.83,4.86,37,9q4.56,1.55,9,3.41c3,1.25,5.8,2.59,8.6,3.76,5.52,2.34,11.46,3.82,17.56,5.4,3.05.79,6.13,1.6,9.18,2.6s6.06,2.1,9,3.32c5.88,2.42,11.55,5.16,17.2,7.89,11.24,5.45,22.56,10.86,34.81,13.22l-.21,1.3c-12.59-1.74-24.43-6.67-35.95-11.54-5.78-2.43-11.53-4.85-17.36-6.9a120.31,120.31,0,0,0-17.84-4.8,130.54,130.54,0,0,1-18.61-4.72c-3-1.08-5.95-2.28-8.81-3.31s-5.78-1.95-8.72-2.78c-11.78-3.29-24-5-36.43-6.82Z"/><path class="cls-3" d="M264.88,713.48c4.11,4.48,9.37,8.1,14.93,11.41s11.39,6.49,17.13,9.67q17.28,9.51,34.92,18.39l-.56,1.2q-18.23-7.65-36.2-16c-6-2.79-11.93-5.55-17.91-8.53s-12-6.49-17.15-11.4Z"/><path class="cls-3" d="M132.11,701.48q-47.3,19.37-95.37,36.57l-.49-1.23q46.91-20.09,92.8-42.22Z"/><path class="cls-3" d="M127,711.59c-.28,1.41.42,3.17,1.78,4.95s3.05,3.51,4.53,5.66a24.72,24.72,0,0,1,4.36,14.19l-1.32.06a22.47,22.47,0,0,0-5.52-12.32c-1.46-1.65-3.35-3.09-5.14-5a15.06,15.06,0,0,1-2.51-3.32,9.35,9.35,0,0,1-1.14-4.63Z"/><path class="cls-3" d="M102,754.11a11.38,11.38,0,0,0,1.32,4.72c.78,1.66,1.79,3.39,2.57,5.28A28.85,28.85,0,0,1,108,775.86l-1.32,0a26.72,26.72,0,0,0-3.42-10.54c-.91-1.58-2.06-3.07-3.16-4.78a15.3,15.3,0,0,1-2.53-6.1Z"/><polygon class="cls-3" points="270.24 769.35 257.95 786.64 256.82 785.96 267.68 767.58 270.24 769.35"/><path class="cls-3" d="M268.43,734.38q-8.22,9.35-17.26,17.78l-1-.9q7.56-9.68,14.1-20Z"/></g></g></g></svg>