<svg xmlns="http://www.w3.org/2000/svg" viewBox="0 0 484.63 882.12"><defs><style>.cls-1{fill:#96aa8c;}.cls-2{fill:#81867f;}.cls-3{fill:#f0f1e3;}</style></defs><g id="Layer_2" data-name="Layer 2"><g id="plants"><g id="alocasia1"><path class="cls-1" d="M479.09,175c-1.72,13.07-5.23,26.21-3.3,39.25,1.65,11.18,7.24,21.68,7.43,33,.3,18.41-13.44,33.71-19.93,50.94-11.06,29.36-.61,63.16-10,93.08C449.89,402,422.58,441.33,416.8,451c-11.88,19.94-15.88,39-21.17,49.41s-12,12.32-24,32.46c-7.28,12.22-25.18,30.13-32.46,42.34-11.07,18.58-12.42,48.08-24,66.35-10.64,16.79-29.3,29.36-40.93,45.16-14.4,19.57-22,42.15-37.42,60.77-13.07,15.77-32.4,32.42-45.86,47.92-24.34,28-43.09,54.84-67.25,83.76-2.13-7.28.42-15.85-1.91-23.07-15-46.2-38.7-89.78-61.38-132.73-5.21-9.88-8-18.74-10.61-29.59-3.92-16-4.51-33.93-6-50.37-3.84-41.38-24.12-64.4-25-99.25-.55-21.17,4.58-47.07,0-67.75C15.82,463.21,4.66,453,1.82,439.73-2.42,420,28.26,380.72,25,349c-1.2-11.67-9-24.55-9.08-36.29-.15-31.17,36.12-40.95,49.41-69.16,14.08-29.91,4-73.46,26.81-97.39,6.45-6.76,16.33-12.83,22.59-19.76,7.19-8,12.6-18.42,16.94-28.23,4.8-10.87,6-26.9,12.7-36.7,6.92-10.12,21-13.93,29.64-22.59,7.35-7.33,11.19-16.51,19.61-22.57,7.31-5.26,11.45-9.65,19.91-12.72,27.91-10.11,51.14,17.31,51.79,45.65.56,24.1-7.34,47.28-9.21,71.3-3.2,41.28-3.07,86.48,6.83,125.83,37.55-32.29,55.1-94.81,87.51-131.27,11.29-12.7,20.34-1.47,25.41-12.7,4.73-10.5,10.86-25.75,28.23-29.64C422.3,68.66,445,75.08,462,89.68c5.62,4.82,5.29,17.47,8.47,24C480,133.25,482,153.23,479.09,175Z"/><path d="M123.11,882.12l-.75-2.54c-1.11-3.77-1-7.82-1-11.73s.16-7.84-1-11.29c-13.91-43-35.66-84.1-56.69-123.85l-4.58-8.66c-5.31-10.06-8-18.9-10.74-29.91-3-12.42-4.09-25.91-5.11-38.95-.31-3.92-.61-7.81-1-11.63-1.89-20.27-7.71-36-13.34-51.19-5.78-15.58-11.23-30.3-11.68-48.15-.2-7.77.34-16,.92-24.63,1-14.7,2-29.9-.89-42.86-1.41-6.35-4.9-12.18-8.28-17.82C5.56,453,1.91,446.91.44,440c-2.06-9.63,3.48-22.94,9.9-38.36,7-16.84,15-35.93,13.26-52.54-.53-5.18-2.47-10.8-4.35-16.23-2.31-6.69-4.7-13.6-4.73-20.2-.09-18.74,12.3-29.8,25.41-41.52,9.19-8.2,18.68-16.68,24.13-28.25,5.85-12.43,7.5-27.61,9.09-42.28,2.21-20.32,4.49-41.33,18-55.49a111.09,111.09,0,0,1,11-9.52,98.39,98.39,0,0,0,11.59-10.21c7.7-8.52,13.21-20,16.7-27.85a98.14,98.14,0,0,0,4.63-15c2-7.86,4.09-16,8.2-22S153.78,50.8,160,47.07c4.6-2.75,9.35-5.58,13-9.21a77.59,77.59,0,0,0,7.75-9.54c3.4-4.67,6.91-9.49,12-13.17,1.83-1.32,3.45-2.58,5-3.8,4.67-3.61,8.7-6.74,15.22-9.1A34,34,0,0,1,245,6.3c12.83,8.78,21.37,25.61,21.77,42.89C267.07,63.36,264.47,77.4,262,91c-1.79,9.68-3.65,19.69-4.42,29.66-3.84,49.5-1.8,89.81,6.23,123.13,19.81-17.83,34.18-44.55,48.08-70.4,11.35-21.11,23.09-42.93,37.57-59.21,6.19-7,11.83-7.2,16.37-7.39,4-.17,6.69-.28,8.8-5l.62-1.38c4.76-10.63,11.28-25.18,28.59-29.06,18.79-4.21,42,2.56,59.1,17.25,3.81,3.27,5.06,9.36,6.27,15.26.72,3.51,1.39,6.82,2.55,9.18,9.11,18.69,11.89,38.42,8.78,62.09h0c-.43,3.25-1,6.54-1.5,9.72-1.59,9.6-3.23,19.53-1.81,29.14a97.63,97.63,0,0,0,3.46,13.74c1.91,6.25,3.88,12.71,4,19.43.21,12.42-5.83,23.53-11.66,34.27a141.09,141.09,0,0,0-8.36,17.19c-5.66,15-5.59,31.65-5.53,47.73.06,15.09.12,30.7-4.46,45.28-2.47,7.87-16.93,29.88-27.48,46-4,6.12-7.49,11.41-9.13,14.14-7.45,12.52-11.81,24.78-15.3,34.63a131.67,131.67,0,0,1-5.82,14.7c-2.5,4.89-5.32,8-8.59,11.67a117.62,117.62,0,0,0-15.45,20.87c-3.7,6.21-10.14,13.91-16.37,21.36s-12.52,15-16.1,21c-5.31,8.9-8.43,20.7-11.44,32.1-3.21,12.17-6.54,24.75-12.58,34.27-5.88,9.28-14.21,17.34-22.28,25.12-6.62,6.4-13.47,13-18.7,20.13-6.54,8.88-11.76,18.57-16.8,27.94-6,11.16-12.22,22.69-20.68,32.89-7,8.45-15.89,17.24-24.47,25.75-7.45,7.37-15.15,15-21.4,22.19-13.42,15.46-24.88,30.21-37,45.83-9.53,12.26-19.38,24.94-30.21,37.91ZM225.35,2.83A33,33,0,0,0,214,4.9c-6.11,2.22-9.8,5.07-14.46,8.68-1.6,1.24-3.24,2.51-5.11,3.86-4.75,3.41-8,7.85-11.39,12.54a81,81,0,0,1-8,9.88c-3.88,3.87-8.79,6.8-13.54,9.63-6.27,3.74-12.18,7.27-15.93,12.75s-5.84,13.47-7.79,21.09A103.56,103.56,0,0,1,133,98.72c-3.56,8-9.22,19.78-17.18,28.6a100.82,100.82,0,0,1-11.93,10.53,107.69,107.69,0,0,0-10.68,9.26C80.34,160.58,78.21,180.19,76,201c-1.62,14.91-3.29,30.33-9.35,43.18-5.69,12.09-15.4,20.77-24.8,29.16-12.63,11.28-24.55,21.93-24.47,39.4,0,6.13,2.35,12.82,4.58,19.28,1.93,5.59,3.93,11.37,4.49,16.87,1.78,17.33-6.32,36.77-13.46,53.92C7,417.11,1.32,430.67,3.2,439.43c1.38,6.43,4.75,12.06,8.32,18s7.11,11.87,8.61,18.66c3,13.36,1.94,28.76.95,43.65-.57,8.61-1.11,16.74-.91,24.38.44,17.38,5.81,31.88,11.5,47.23s11.59,31.28,13.51,51.92c.35,3.83.66,7.73,1,11.67,1,12.93,2.06,26.3,5,38.5,2.64,10.8,5.32,19.46,10.49,29.26l4.58,8.66c21.09,39.86,42.9,81.08,56.89,124.3,1.26,3.91,1.18,8.13,1.1,12.21a50.64,50.64,0,0,0,.25,8.15c10.07-12.16,19.33-24.06,28.29-35.6,11.63-15,23.65-30.43,37.11-45.94,6.33-7.29,14.07-15,21.55-22.36,8.54-8.45,17.37-17.2,24.29-25.54,8.27-10,14.42-21.39,20.36-32.43,5.09-9.45,10.36-19.23,17-28.27,5.37-7.3,12.31-14,19-20.49,7.95-7.67,16.16-15.6,21.86-24.6,5.8-9.16,9.07-21.52,12.23-33.48,3.07-11.59,6.23-23.58,11.75-32.83,3.69-6.2,10.13-13.91,16.36-21.35s12.52-15,16.1-21a120.59,120.59,0,0,1,15.78-21.32c3.27-3.63,5.85-6.5,8.17-11.07A127.34,127.34,0,0,0,400,485.42c3.54-10,7.95-22.37,15.55-35.12,1.66-2.79,5-7.85,9.19-14.25,9.87-15,24.79-37.76,27.15-45.26,4.45-14.15,4.39-29.54,4.33-44.42-.07-16.34-.14-33.23,5.71-48.74a143.28,143.28,0,0,1,8.52-17.54c5.92-10.9,11.51-21.19,11.32-32.88-.11-6.31-1.93-12.3-3.87-18.64a98.41,98.41,0,0,1-3.55-14.16c-1.48-10,.19-20.19,1.81-30,.53-3.16,1.07-6.43,1.49-9.63,3-23.1.33-42.31-8.52-60.48-1.31-2.68-2-6.17-2.78-9.85-1.11-5.43-2.26-11-5.34-13.69-16.46-14.13-38.7-20.66-56.64-16.63-15.93,3.56-22.12,17.37-26.63,27.45l-.63,1.39c-2.82,6.26-7.11,6.44-11.26,6.62s-9,.37-14.38,6.44c-14.25,16-25.91,37.71-37.18,58.67-14.43,26.84-29.36,54.58-50.46,72.73l-1.74,1.49-.55-2.21c-8.57-34-10.81-75.36-6.86-126.29.78-10.11,2.65-20.2,4.46-29.95,2.49-13.44,5.06-27.33,4.74-41.2-.38-16.4-8.44-32.35-20.55-40.63A31.83,31.83,0,0,0,225.35,2.83Z"/><path class="cls-2" d="M228.11,95.06c1.85-27,9.55-55.59-1.74-80.22-5-2.56-11.41.61-14.36,5.4s-3.33,10.67-3.63,16.29l-2.83,52.23c-2.36,2.81-6.62-.65-8.62-3.72-6.24-9.56-14.67-18.72-25.83-21.1s-24.78,5.24-24.84,16.65c-.09,16.58,22.71,20.85,35.41,31.52,16.68,14,15,39.67,12,61.22-6.7,4.86-14.91-3.27-20.08-9.75s-17.18-11.17-20-3.38c-10.91-21.21-45.86-23.45-59.39-3.81-1.91,2.76-3.45,6.1-2.78,9.39s3.45,5.79,6.06,8L166,231.33c3.48,2.92,7.29,6.58,6.94,11.11-.6,7.74-11.27,9-19,8.58A164.77,164.77,0,0,0,35.66,292.65c-8.17,7.36-15,21.93-5.67,27.69,3.18,2,7.17,1.86,10.9,1.69l82.55-3.65c9.33-.41,22.06,2.15,22.14,11.49A324.85,324.85,0,0,0,27.83,401.29c-10.42,9.89-20.95,23.1-17.66,37.08,2.77,11.78,15.11,19.42,27.18,20.29s23.87-3.67,34.8-8.87a261.68,261.68,0,0,0,35.2-20.27c3.43-2.36,7-4.86,11.1-5.49,9.7-1.48,18.17,9.14,17.1,18.9s-9.08,17.55-18,21.61-18.86,5.18-28.5,7c-21.38,4.12-43.14,13-56,30.53s-13.25,45.39,3.71,59c15.85,12.76,39.34,9,58,.78,9.66-4.26,22.69-8.82,29.23-.54,5.75,7.28.56,18.1-6.06,24.59s-15.13,12.33-16.94,21.43c-1.88,9.41,4.24,18.37,10,26-18.12,6.67-37.63,14.46-47.45,31.08s-1.88,44,17.41,45c7.94.42,15.42-3.6,23.3-4.64s17.89,3.14,17.86,11.09c0,12.85-22.48,12.16-27.93,23.79-4.35,9.27,9.82,20,17.6,13.39a39.28,39.28,0,0,0-10,29c8.28-.48,20.46,5.22,15.71,12-1.67,2.38-5.06,3.32-6.17,6-1.83,4.46,3.84,8,7,11.63,9.64,11.23-1,35.93,13.31,39.55a42.25,42.25,0,0,0,15.13-29.56l12.75-20.65c3.19-5.18,7.66-11,13.71-10.49a29.27,29.27,0,0,1-4-22l20.5-.47a126.51,126.51,0,0,0-19.74-43.66c16.09-4,26.93,21.85,43.45,20.26,14.23-1.38,17.78-21.36,12.71-34.72S211.27,684,213,669.82c12.66-1.63,23-13.9,22.49-26.65-.2-4.86-1.75-9.86-.25-14.49,3.86-11.93,21.73-9.58,32.35-2.91s23.67,15.51,34.38,9c7.76-4.75,9.4-15.45,8-24.44s-4.95-17.75-4.47-26.84c1.16-21.87,24.72-37,27.68-58.71.53-3.88.55-8.3,3.41-11,5.92-5.56,15.12,2.23,23.24,2,12.86-.36,15.4-18.34,13.81-31.11,17-4.9,25.07-26,21.08-43.17s-16.81-30.93-30.21-42.45c12.67-3.26,25.75,1.88,38.4,5.19s28,4.09,36.91-5.45c7.6-8.1,7.63-20.72,5.19-31.55-8.11-35.84-40.17-65-76.62-69.61,19.12-8.26,39.31,14,60,11.34,14.42-1.86,24.33-15.17,31.38-27.89,6.27-11.31,11.82-24.45,8.13-36.84-3.15-10.56-12.33-18.08-21.42-24.3-20.62-14.1-48.56-25-69.67-11.61,8.26-21.15,29-36.86,51.59-39.09,8.71-.86,17.68.11,26.11-2.24s16.54-9.55,15.9-18.29c-1-13-18.81-17-31.29-13.25s-24.7,11.71-37.49,9.16c-15.77-3.15-31.27-21.42-44.27-11.94-3.29,2.39-5.27,6.15-7.18,9.74a499.41,499.41,0,0,1-76.58,107c-23.33,24.89-25.88-36.41-29.11-47.69C234.52,167,225.6,131.58,228.11,95.06Z"/><path class="cls-3" d="M269.42,268.06C253.94,317.25,240,367,227.12,417s-24.49,100.44-35.58,151-21.53,101.24-31.9,152L151.86,758c-2.64,12.69-5.39,25.34-8.14,38-5.51,25.3-11.14,50.57-16.3,75.91l-2.78-.52c4.58-25.51,9.63-50.91,14.54-76.32,2.46-12.71,4.9-25.41,7.24-38.13s4.53-25.48,6.79-38.22c9-51,18.13-102,27.83-152.89s20.14-101.71,31.61-152.31,24.25-101,38.52-151Z"/><path class="cls-3" d="M171.88,661.92l15.06,15.66c5,5.22,10,10.4,15,15.77a171,171,0,0,1,13.81,17c4.28,5.87,8.36,11.85,12.58,17.72l-1.12.86c-4.62-5.59-9.09-11.29-13.72-16.82a168.26,168.26,0,0,0-14.64-15.76c-5.21-4.91-10.61-9.77-16-14.65l-16.06-14.62Z"/><path class="cls-3" d="M169.51,651.39q-27.73,12.78-55.76,24.92-14,6.08-28.09,12L71.6,694.16c-4.56,2-9.07,4.46-11.75,8.59l-1.2-.74A19.64,19.64,0,0,1,64,696.24a42.87,42.87,0,0,1,6.72-3.93l13.83-6.46q13.82-6.47,27.54-13.09,27.47-13.25,54.59-27.14Z"/><path class="cls-3" d="M198.47,520.53a72.78,72.78,0,0,0,5.68,6.75q3.12,3.24,6.52,6.32c4.54,4.1,9.35,8,14.18,12s9.76,8,14.33,12.41,8.95,8.86,13.32,13.31L305,624.83l-1,1-54.89-51c-4.58-4.26-9.12-8.51-13.79-12.54s-9.5-7.75-14.51-11.5-10-7.51-15-11.58a96.16,96.16,0,0,1-13.9-13.71Z"/><path class="cls-3" d="M25.21,553.6l42.69-19c7.14-3.15,14.34-6.22,21.75-8.86,3.7-1.32,7.45-2.54,11.26-3.6s7.6-1.93,11.24-3A68.61,68.61,0,0,0,122.68,515c3.46-1.65,7.08-3.4,10.84-4.82a153.16,153.16,0,0,1,22.89-6.45c7.68-1.65,15.31-3.06,22.74-4.88a106.76,106.76,0,0,0,21.25-7.39l3.37,7.1a113.86,113.86,0,0,1-23.05,7.16c-7.76,1.62-15.5,2.78-23.1,4.14a147.81,147.81,0,0,0-22.23,5.43c-3.57,1.21-7,2.73-10.65,4.31a72.62,72.62,0,0,1-11.35,4c-3.86,1-7.69,1.75-11.42,2.65s-7.42,2-11.1,3.13c-7.35,2.33-14.58,5.13-21.8,8L25.76,554.9Z"/><path class="cls-3" d="M233.6,372.1c6.27,5.42,12.49,10.78,19,15.68,3.24,2.47,6.54,4.78,10,7s7,4.4,10.53,6.92A95.26,95.26,0,0,1,282.9,410c3.06,2.91,6,5.84,8.93,8.76q8.82,8.79,17.5,17.74,34.64,35.82,66.36,74.23l-1.07.92q-32.94-37.23-68.69-71.75-8.93-8.62-18-17.07c-6.11-5.6-12-11.4-18.55-15.76-3.31-2.22-6.87-4.23-10.47-6.38s-7.2-4.5-10.64-6.93c-6.91-4.87-13.44-10.12-19.9-15.32Z"/><path class="cls-3" d="M235.93,363,123.18,396.64c-18.79,5.65-37.62,11-56.06,17.5A506.4,506.4,0,0,0,13,436.72l-.64-1.26A512.26,512.26,0,0,1,65.88,410.8c18.33-7.19,37-13.27,55.57-19.6l111.44-37.74Z"/><path class="cls-3" d="M264.35,275.93a75,75,0,0,0,16.37,18.61,125.34,125.34,0,0,0,21.45,14.14c7.69,4.1,15.73,7.72,23.88,11.31s16.37,7.27,24.46,11.1a725.89,725.89,0,0,1,93.2,53l-.76,1.19a721.83,721.83,0,0,0-95.14-48.17c-8.2-3.41-16.43-6.64-24.78-9.82s-16.74-6.49-25-10.39a135.36,135.36,0,0,1-23.85-14.14,86.15,86.15,0,0,1-19.8-20.49Z"/><path class="cls-3" d="M258.6,280.05c-9.47,2.2-19,4.39-28.75,6a174.1,174.1,0,0,1-29.58,2.68c-4.92,0-9.78-.11-14.58-.12s-9.64.06-14.46.2c-9.65.28-19.32.83-29,1.43L26,297.53l-.11-1.41,116-11c9.68-.91,19.38-1.77,29.12-2.38,4.87-.29,9.76-.53,14.65-.67s9.76-.17,14.54-.34c19-.52,37.58-5.34,56.3-10.33Z"/><path class="cls-3" d="M258.15,268.62c8.73-5.4,16.64-12.55,24.35-20.16l23.22-23.37a324.47,324.47,0,0,0,22.13-23.9c6.9-8.36,13.38-17.33,20.6-25.78,14.43-16.84,29.15-33.07,43.78-49.53,7.3-8.18,14.77-16.61,24-23.1A71.62,71.62,0,0,1,447,90.46l.24,1.39A69.7,69.7,0,0,0,417.82,105c-8.57,6.6-15.51,15.07-22.47,23.55-13.92,17-28.06,34-41.57,51.1-6.73,8.56-12.78,17.7-19.52,26.59S320,223.55,312.61,231.65L290.29,256c-7.6,8.12-15.75,16.23-25.5,22.83Z"/><path class="cls-3" d="M262.64,267.47a49.42,49.42,0,0,1,13.08-6.05c4.43-1.39,8.69-2.38,12.95-3.49a249.92,249.92,0,0,1,26.14-5.49c8.8-1.34,17.59-2.22,26.31-3.14l26.21-2.76c8.75-.89,17.43-1.88,26.25-2.7s17.84-1.13,26.75.42a89.55,89.55,0,0,1,12.92,3.46c4.16,1.38,8.32,2.54,12.58,3.51,8.5,2,17.19,3.22,25.88,4.48l-.18,1.4c-8.73-.94-17.49-1.89-26.19-3.56-4.33-.83-8.68-1.88-12.91-3.11a86.88,86.88,0,0,0-12.61-2.9c-8.49-1.17-17.16-.53-25.79.55s-17.37,2.43-26.06,3.64l-26.09,3.7c-8.7,1.23-17.36,2.43-25.88,4a243.92,243.92,0,0,0-25.2,6.25c-8.44,2.53-16.87,4.61-22.95,9.13Z"/><path class="cls-3" d="M250.41,275.26c-1.84-9.3-7-18.41-11.83-28.28a93.32,93.32,0,0,1-6.21-15.84,109.23,109.23,0,0,1-2.88-16.55q-3.57-32.13-5.77-64.3-1.12-16.08-1.89-32.19c-.26-5.37-.51-10.78-.43-16.25A92.71,92.71,0,0,1,223,85.49c1-5.35,2.28-10.52,3-15.73a90.63,90.63,0,0,0,.81-15.8,93.37,93.37,0,0,0-6.45-31l1.3-.54a95.42,95.42,0,0,1,7.68,47.75c-.51,5.46-1.61,10.77-2.36,16-1.63,10.38-.76,20.91.2,31.58s2,21.33,3.16,32q3.5,31.92,8.32,63.66a100.35,100.35,0,0,0,3.21,15,84.47,84.47,0,0,0,6.12,13.85c2.46,4.62,5.19,9.26,7.71,14.26a75.91,75.91,0,0,1,6.27,16.21Z"/><path class="cls-3" d="M237.94,238.36c-12.41-5-25.05-10.14-37-16.92-3-1.7-5.92-3.49-8.79-5.41s-5.55-3.89-8.25-5.69c-5.31-3.57-11.24-6.34-17.31-9.23-3-1.45-6.1-2.93-9.1-4.59s-5.92-3.43-8.74-5.3c-5.68-3.73-11.07-7.77-16.43-11.77-10.68-8-21.44-16-33.81-20.93L99,157.2c12.84,4.38,24.26,12,35.34,19.4,5.56,3.72,11.1,7.43,16.8,10.76A128.55,128.55,0,0,0,168.86,196c6.14,2.55,12.54,5.12,18.55,8.72,3,1.76,5.78,3.61,8.57,5.27s5.65,3.21,8.57,4.68c11.68,5.85,24.16,10.18,36.8,14.55Z"/><path class="cls-3" d="M221.05,125.08c-3.4-5.54-8.18-10.4-13.33-15s-10.62-9.13-16-13.62Q175.55,83,158.86,70.1l.82-1.15Q177.24,80.68,194.38,93c5.72,4.15,11.38,8.25,17.05,12.59s11.23,9.23,15.66,15.43Z"/><path class="cls-3" d="M357.79,164.63Q411.31,154,465.2,145.68l.25,1.39q-53.24,11.52-105.85,25.39Z"/><path class="cls-3" d="M365.16,155.06c.58-1.41.21-3.4-.86-5.54s-2.49-4.3-3.6-6.85A26.5,26.5,0,0,1,359,126.9l1.4.2a24,24,0,0,0,3.29,14c1.19,2,2.87,3.92,4.38,6.25a16.39,16.39,0,0,1,1.95,4,9.89,9.89,0,0,1,.25,5.09Z"/><path class="cls-3" d="M400.1,115.59a12.15,12.15,0,0,0-.42-5.22c-.48-1.89-1.19-3.91-1.62-6.06a30.6,30.6,0,0,1,.08-12.75l1.39.21A28.68,28.68,0,0,0,401,103.52c.63,1.84,1.54,3.63,2.35,5.65a16.35,16.35,0,0,1,1.4,6.9Z"/><polygon class="cls-3" points="226.78 65.42 243.18 49.79 244.23 50.74 229.11 67.8 226.78 65.42"/><path class="cls-3" d="M221.58,102.44q10.51-8.1,21.7-15.12l.84,1.13q-9.88,8.63-18.84,18.09Z"/></g></g></g></svg>