<svg xmlns="http://www.w3.org/2000/svg" viewBox="0 0 281.16 636.6"><defs><style>.cls-1{fill:#a6d08c;}.cls-1,.cls-3{stroke:#000;stroke-width:2px;}.cls-1,.cls-2,.cls-3{stroke-miterlimit:10;}.cls-2{fill:none;stroke:#89a489;stroke-linecap:round;}.cls-3{fill:#cbe1a0;}</style></defs><g id="Layer_2" data-name="Layer 2"><g id="plants2"><g id="banana2"><path class="cls-1" d="M80.42,555.59A260.48,260.48,0,0,1,13.35,406.92c-1-9.81-1.46-19.69-3.21-29.39-1.8-10-5-19.69-6.85-29.66C-.23,329.2.84,310,2.94,291.08A528.59,528.59,0,0,1,54.49,115.4c16.95-34.2,38.09-67.09,67.4-91.55,9.74-8.12,20.49-15.34,32.58-19.17a188.43,188.43,0,0,1,63.42,60.4c15.21,23.53,25,50.11,34.56,76.43,8.75,24,17.54,48.11,22.29,73.19,5.55,29.3,5.48,59.32,5.4,89.14-.1,33-.26,66.5-9.25,98.26-16.38,57.83-60.82,104.32-111.61,136.45-11.68,7.39-24.3,14-38.5,13.2C125.8,584.09,94.71,571.08,80.42,555.59Z"/><path class="cls-2" d="M114.26,531a127.15,127.15,0,0,1-46.39.5"/><path class="cls-2" d="M112.82,518.55c-4.87,1.16-9.74,2.32-14.69,3a77.91,77.91,0,0,1-41.82-5.87"/><path class="cls-2" d="M112.11,507.82a225.89,225.89,0,0,1-62.75-5.34"/><path class="cls-2" d="M111.27,498.24a177.57,177.57,0,0,1-44-4.88c-3.95-.95-8.06-2-12-1.18"/><path class="cls-2" d="M115.41,485.33c-19.59.68-38.38-8.69-58-8.74-5.82,0-12,.73-17.18-1.9"/><path class="cls-2" d="M114,474.09c-12-1.24-24-3-36-4.72l-11.72-1.69c-3.73-.54-7.46-1.08-11.17-1.74a179.87,179.87,0,0,1-18.47-4.31"/><path class="cls-2" d="M115.41,462.36A52.15,52.15,0,0,1,95,458.56c-3.81-1.63-7.36-3.87-11.29-5.21a53.22,53.22,0,0,0-12.45-2.14l-36.37-3.35"/><path class="cls-2" d="M115.06,449.9c-27.4-12-59.92-7.42-87.19-19.74"/><path class="cls-2" d="M115.31,443.13c-26.95-15-60.16-12.33-89.47-21.94"/><path class="cls-2" d="M116.64,434.54c-8.35-.56-15-7.15-23-9.71-4.38-1.4-9-1.54-13.64-1.9A140.94,140.94,0,0,1,27,408"/><path class="cls-2" d="M118,424.84c-4.92-.79-9-4.2-13.46-6.36-5.51-2.65-11.72-3.41-17.76-4.36a242.44,242.44,0,0,1-48.95-13.07"/><path class="cls-2" d="M118.2,417.7c-30.48-9.88-60.06-23.27-91.68-28.41"/><path class="cls-2" d="M117.87,405.52a242,242,0,0,0-53.35-23.08c-16.85-5-34.62-8.28-49.37-17.82"/><path class="cls-2" d="M119,397.67C86.4,378.06,49.14,368,13.17,355.71"/><path class="cls-2" d="M117.58,387.85A529.61,529.61,0,0,0,17.42,346.07"/><path class="cls-2" d="M116.54,412.55C97.87,403.12,79,393.61,58.69,388.6c-12.57-3.09-25.77-4.5-37.29-10.41"/><path class="cls-2" d="M117.49,376.53c-16-4.06-30.75-11.88-45.52-19.24q-29.17-14.54-59.29-27"/><path class="cls-2" d="M120.07,368.45,95.28,353c-4.75-3-9.55-5.95-14.85-7.73-4.62-1.56-9.51-2.17-14.21-3.44-18.52-5-33.37-20-52.19-23.66"/><path class="cls-2" d="M121.08,359c-33.74-25.22-76.14-35.67-112.8-56.43"/><path class="cls-2" d="M119.65,344.31l-81-41.46c-9.14-4.67-18.41-9.43-25.93-16.43"/><path class="cls-2" d="M120.61,336c-31.68-25.38-74.53-33.58-106.06-59.16"/><path class="cls-2" d="M122.93,326.24,105.5,317l-48-25.45C43.32,284,29,276.36,16.69,266"/><path class="cls-2" d="M122.37,318.25c-31-28.4-73.83-40.48-106.52-66.9"/><path class="cls-2" d="M125.22,304.7c-15.66-5.83-28.45-17.62-43.84-24.13-4.48-1.89-9.17-3.33-13.38-5.75-3.6-2.07-6.76-4.81-10.11-7.26-12.75-9.33-28.84-15.05-37.71-28.12"/><path class="cls-2" d="M124.25,294.42,87.53,273c-10.77-6.29-21.56-12.6-31.91-19.57A292.73,292.73,0,0,1,26,230.55"/><path class="cls-2" d="M125.55,284c-32-25.65-73.15-39.4-101.28-69.26"/><path class="cls-2" d="M126.22,273.33l-68.88-45.1c-9.81-6.43-19.69-12.9-28.14-21"/><path class="cls-2" d="M128,261.39Q99.1,239.7,68.5,220.45c-13-8.16-26.44-16.25-35.89-28.31"/><path class="cls-2" d="M129.47,248.76a505.82,505.82,0,0,0-61.41-43.5C55.94,198,43,190.64,35.77,178.46"/><path class="cls-2" d="M130,235.22C117,227.38,105.12,218,93.26,208.58l-25.4-20.1c-8.63-6.83-17.27-13.67-25.22-21.28"/><path class="cls-2" d="M129.76,220.74A599.28,599.28,0,0,0,66.59,170.8c-6.71-4.62-13.64-9.2-18.7-15.59"/><path class="cls-2" d="M131.4,205.57C120.11,202,110.82,194,101.87,186.26L85.78,172.31c-11.12-9.65-22.42-19.49-30.21-32"/><path class="cls-2" d="M132.43,191.08,81.52,147.25c-6.9-5.94-14-12.06-18.38-20"/><path class="cls-2" d="M134.2,176.86c-25.61-18.31-51.67-38-66.63-65.74"/><path class="cls-2" d="M134,160.8c-11.45-10.23-22.59-20.83-33.72-31.42C92.41,122,84.44,114.31,79.7,104.62"/><path class="cls-2" d="M135.08,149.47c-4.82-2.52-8.62-6.58-12.32-10.57L105.4,120.18"/><path class="cls-2" d="M136.46,139.65a172,172,0,0,1-49.2-64"/><path class="cls-2" d="M137.39,123.33a193.88,193.88,0,0,1-38-60.39"/><path class="cls-2" d="M138.27,100.23A186.33,186.33,0,0,0,124.48,81c-7-8.5-14.86-16.77-18-27.29"/><path class="cls-2" d="M139.08,77.24c-4.32-9-12.52-15.5-18.63-23.44-1.38-1.79-2.66-3.67-3.93-5.54"/><path class="cls-2" d="M140.93,46.34a57.42,57.42,0,0,1-9.64-17.57"/><path class="cls-2" d="M149.11,40.64a58.51,58.51,0,0,0,20.06-14.23"/><path class="cls-2" d="M149,69a105,105,0,0,0,14.09-8.54c7.85-6,13.84-14,19.71-21.92"/><path class="cls-2" d="M148.26,93.52c4.46-3.78,9.63-6.6,14.55-9.75a121.44,121.44,0,0,0,31.73-29.54"/><path class="cls-2" d="M146.92,110.61a219.94,219.94,0,0,0,49.84-40.39c2.05-2.23,4.11-4.6,5-7.49"/><path class="cls-2" d="M146.6,121.77c21.32-11.69,43.61-24.28,56.28-45"/><path class="cls-2" d="M146.85,138q23-13.38,45.29-28.09c9.58-6.34,19.52-13.44,24-24"/><path class="cls-2" d="M146.79,154.07q25-14.31,49.21-29.92"/><path class="cls-2" d="M147.83,168.81,206.33,136"/><path class="cls-2" d="M145.61,184.21a199.05,199.05,0,0,0,54.72-28.79"/><path class="cls-2" d="M146.05,201a394.92,394.92,0,0,0,96.78-43.86"/><path class="cls-2" d="M145.48,213.94a116.82,116.82,0,0,0,26.45-7.45A235,235,0,0,0,193.14,196l47.27-25.53"/><path class="cls-2" d="M145.57,231.89c8.51.82,16.61-3.35,24.24-7.22A534.29,534.29,0,0,1,237.42,196"/><path class="cls-2" d="M144.05,243c34.88-8.59,70.85-17.69,99.39-39.51"/><path class="cls-2" d="M143.3,258a442.3,442.3,0,0,0,102-35.05"/><path class="cls-2" d="M141.86,272.14a637.53,637.53,0,0,0,107-38.28"/><path class="cls-2" d="M142.67,286q46.86-12.43,92.9-27.67"/><path class="cls-2" d="M139.14,295.27l60.62-11.83c7.2-1.41,14.46-2.83,21.26-5.6a113.49,113.49,0,0,0,15.11-8l17.48-10.38"/><path class="cls-2" d="M143.59,309l74.3-22.37c8.75-2.64,17.73-5.38,25-11"/><path class="cls-2" d="M139.47,322.17q45.48-16.32,91.65-30.61"/><path class="cls-2" d="M139.05,335a191,191,0,0,1,47.83-19.4c15.48-3.94,31.62-6,46.09-12.75"/><path class="cls-2" d="M141.25,343.34c25.27,0,47.93-14.48,71.86-22.59,14.5-4.91,30.11-7.71,42.67-16.47"/><path class="cls-2" d="M139.22,360.26c23.66-1.06,45.23-13.17,68.06-19.47,19.68-5.43,41.49-7,57.35-19.87"/><path class="cls-2" d="M138.61,370.63l33.76-8c30.61-7.28,61.75-14.77,88.79-30.86"/><path class="cls-2" d="M137.59,380.79a921.51,921.51,0,0,0,129.69-37.5"/><path class="cls-2" d="M139.62,388.41c7.2-.35,14.25-2.15,21.23-3.94l50.32-12.92c16.17-4.16,32.53-8.38,47.2-16.36"/><path class="cls-2" d="M137.82,399.64A788.46,788.46,0,0,0,258.74,374"/><path class="cls-2" d="M136.46,408.35l94.86-17.64c8.08-1.5,16.25-3,23.76-6.39"/><path class="cls-2" d="M135.75,418l117-20.79c2.6-.46,5.82-1.57,6-4.2"/><path class="cls-2" d="M137.65,426.54l27.48-5c9.14-1.67,18.29-3.34,27.51-4.47,22.15-2.7,45.27-2.44,65.58-11.68"/><path class="cls-2" d="M135.75,436a700,700,0,0,1,81.9-12c12.79-1.11,26.15-2,37.21-8.57"/><path class="cls-2" d="M134.9,443.21a600.36,600.36,0,0,0,101.75-12.15c2.9-.61,6.37-1.79,6.88-4.71"/><path class="cls-2" d="M133.69,453.6q53.87-8.1,108-14"/><path class="cls-2" d="M134,462.8,170,461c22.85-1.17,46-2.4,67.73-9.62"/><path class="cls-2" d="M133.67,474.44q49.54-3.53,98.79-10.12"/><path class="cls-2" d="M134,483.92l53,.74"/><path class="cls-2" d="M132.73,492.27a351.65,351.65,0,0,1,39.47,2.12c7.16.79,14.88,1.7,21.13-1.86"/><path class="cls-2" d="M133,500.54c18.87-.37,37.7,1.8,56.45,4"/><path class="cls-2" d="M131.74,511.51c11.24-1,22.16,4.69,33.44,4.36,6.71-.2,13.38-2.52,20-1.54"/><path class="cls-3" d="M117.41,608c-2-120.63,5.85-241.19,13.66-361.59L144.6,37.89c.79-12.19,2-25.45,10.43-34.32C146.92,33.57,145.92,65,145,96l-6.3,206.65c-1.67,54.61-5.54,102-9.58,163.57-1,15.3.94,101.88,3.46,129.92.6,6.68,7.35,40.14,2.41,39.4-7.39-1.1-15.5-4.05-17.36-10.62C116.07,619.55,117.45,610.54,117.41,608Z"/></g></g></g></svg>