<svg xmlns="http://www.w3.org/2000/svg" viewBox="0 0 554.12 563.65"><defs><style>.cls-1{fill:#89a489;}.cls-1,.cls-2,.cls-4{stroke:#000;stroke-miterlimit:10;}.cls-3{fill:#a2cb8e;}.cls-4{fill:#cbe1a0;}</style></defs><g id="Layer_2" data-name="Layer 2"><g id="plants"><g id="banana3"><path class="cls-1" d="M528.54,118a316.44,316.44,0,0,1-61.17,188.51c-7.11,9.65-14.78,18.9-21.13,29.06-6.54,10.46-11.61,21.77-18.07,32.27-12.1,19.67-28.77,36.1-46.09,51.37A642.14,642.14,0,0,1,192.15,535.11C149,552,103.07,564.33,56.73,562.37c-15.4-.65-31-2.94-45-9.37A228.9,228.9,0,0,1,4.08,446.85c5.54-33.6,18.5-65.46,31.37-97C47.18,321.14,59,292.26,75.2,265.82c19-30.88,43.55-57.83,68-84.58,27.06-29.61,54.58-59.6,88.62-80.82,62-38.63,139.94-44.13,211.87-31.52,16.55,2.9,33.25,7.31,45.42,19.59C511,55.3,528.35,92.4,528.54,118Z"/><path class="cls-2" d="M515.68,79a37,37,0,0,1,8,12.58A73.45,73.45,0,0,1,529.1,118h0a316.46,316.46,0,0,1-61.28,188.86c-2.13,2.9-4.35,5.8-6.5,8.62-5,6.54-10.17,13.31-14.6,20.4-3.35,5.36-6.37,11.05-9.29,16.54-2.77,5.22-5.63,10.61-8.78,15.73-12.74,20.72-30.51,37.65-46.2,51.49a639.3,639.3,0,0,1-190.09,116c-51.94,20.35-95.05,29-135.66,27.31-18.52-.79-32.88-3.78-45.18-9.43l-.23-.1-.08-.24A229.6,229.6,0,0,1,3.52,446.76c5.58-33.82,18.71-66,31.41-97.11,11.55-28.31,23.5-57.58,39.79-84.13,19-31,44-58.29,68.05-84.66,26.74-29.25,54.39-59.51,88.74-80.92C260.93,81.6,295.4,69.81,333.94,64.88c34.59-4.41,71.55-3.25,109.84,3.47,16,2.8,32.4,7,44.66,18.71l.57.55c6.88-10.19,13.77-14.35,20.51-12.35A15.37,15.37,0,0,1,515.68,79ZM528,118c-.12-17.12-7.86-38.46-18.77-41.68-6.24-1.85-13,2.46-19.63,12.46l-.38.58-.49-.49c-12.14-12.27-28.86-16.58-45.11-19.43-81-14.22-156.16-3-211.48,31.44-34.22,21.33-61.82,51.52-88.51,80.72C119.54,208,94.67,235.17,75.68,266.11c-16.24,26.47-28.17,55.7-39.71,84C23.3,381.13,10.19,413.25,4.63,446.94a228.5,228.5,0,0,0,7.58,105.65c12.12,5.52,26.28,8.45,44.54,9.22,40.45,1.71,83.41-6.94,135.2-27.23A637.93,637.93,0,0,0,381.7,418.8c15.64-13.78,33.33-30.64,46-51.23,3.13-5.09,6-10.47,8.74-15.67,2.93-5.51,6-11.21,9.33-16.61,4.46-7.13,9.65-13.92,14.66-20.49,2.15-2.8,4.37-5.71,6.5-8.6A315.26,315.26,0,0,0,528,118Z"/><path class="cls-3" d="M505.48,132.1A156.49,156.49,0,0,1,521,149.28a1.13,1.13,0,1,1-1.78,1.38,152.67,152.67,0,0,0-41.83-37.19,1.13,1.13,0,0,1,1.16-1.93A154.69,154.69,0,0,1,505.48,132.1Z"/><path class="cls-3" d="M497.35,142.87a95.1,95.1,0,0,1,21.29,30.27,1.13,1.13,0,0,1-2.06.92,92.76,92.76,0,0,0-32.42-39c-5-3.41-10.36-6.37-15.57-9.24a1.13,1.13,0,0,1,1.09-2c5.25,2.9,10.69,5.89,15.75,9.36A94.14,94.14,0,0,1,497.35,142.87Z"/><path class="cls-3" d="M478.1,148.64A274.43,274.43,0,0,1,514,190.52a1.12,1.12,0,0,1-1.85,1.28A272.74,272.74,0,0,0,460.29,136a1.15,1.15,0,0,1-.16-1.59,1.13,1.13,0,0,1,1.58-.16Q470.2,141.1,478.1,148.64Z"/><path class="cls-3" d="M460.88,149.23a217.43,217.43,0,0,1,29.61,34.9l.44.65c2.56,3.78,5.22,7.69,9.05,9.91a1.12,1.12,0,0,1-1.12,1.95c-4.28-2.47-7.09-6.6-9.8-10.6l-.44-.64a215.19,215.19,0,0,0-35.44-40.18,1.12,1.12,0,0,1-.1-1.59,1.13,1.13,0,0,1,1.59-.1Q457.83,146.32,460.88,149.23Z"/><path class="cls-3" d="M443.63,154.67c8,7.6,14.29,16.82,20.43,25.77,6.38,9.3,13,18.93,21.36,26.58.95.87,1.93,1.72,2.92,2.58,4.48,3.9,9.11,7.93,11.27,13.6a1.12,1.12,0,0,1-2.1.8c-2-5.13-6.38-9-10.65-12.7-1-.87-2-1.74-3-2.62-8.57-7.82-15.24-17.55-21.7-27-6.87-10-14-20.36-23.28-28.24a1.14,1.14,0,0,1-.13-1.59,1.12,1.12,0,0,1,1.59-.13C441.49,152.69,442.57,153.67,443.63,154.67Z"/><path class="cls-3" d="M432.51,163.05l.06.06c9.81,11,19.32,22.5,28.51,33.66l9.18,11.12c2.87,3.49,5.84,7.09,8.64,10.72a218.24,218.24,0,0,1,13.17,19.07,1.13,1.13,0,0,1-1.92,1.18,215.83,215.83,0,0,0-13-18.87c-2.79-3.61-5.74-7.19-8.6-10.65l-9.16-11.12c-9.2-11.16-18.69-22.68-28.47-33.61a1.13,1.13,0,0,1,1.62-1.56Z"/><path class="cls-3" d="M423,173.69a63.29,63.29,0,0,1,14.21,19.24c.86,1.88,1.6,3.83,2.32,5.71a65.15,65.15,0,0,0,3.55,8.13c2.42,4.4,5.91,8.21,9.28,11.89l30,32.73a1.12,1.12,0,0,1-.07,1.59,1.14,1.14,0,0,1-1.59-.07l-30-32.73c-3.46-3.78-7-7.69-9.6-12.32a66.25,66.25,0,0,1-3.67-8.42c-.71-1.85-1.44-3.76-2.27-5.57-3.12-6.86-8.18-13.52-15-19.77h0a1.13,1.13,0,0,1,1.53-1.65C422.1,172.86,422.55,173.27,423,173.69Z"/><path class="cls-3" d="M411.79,183.94a1,1,0,0,1,.25.36c7.29,16.28,19.23,30.24,30.77,43.75,11.88,13.9,24.16,28.27,31.53,45.26a1.13,1.13,0,0,1-2.07.9c-7.23-16.69-19.4-30.92-31.17-44.69s-23.69-27.73-31.11-44.3a1.13,1.13,0,0,1,1.8-1.28Z"/><path class="cls-3" d="M406,189.84a1.06,1.06,0,0,1,.29.45c7,20.8,21.32,38.27,35.15,55.17,9.69,11.83,19.7,24.07,27.31,37.48a1.13,1.13,0,1,1-2,1.11c-7.52-13.24-17.47-25.4-27.09-37.16-14-17.06-28.4-34.69-35.54-55.88a1.12,1.12,0,0,1,1.84-1.17Z"/><path class="cls-3" d="M397.82,196.47l0,0c4.37,4.53,6.36,10.55,8.29,16.37a61.62,61.62,0,0,0,4.61,11.35c2.32,4,5.65,7.5,8.87,10.86.56.6,1.13,1.19,1.7,1.79a173.53,173.53,0,0,1,35.74,57.18,1.14,1.14,0,0,1-.66,1.46,1.12,1.12,0,0,1-1.45-.66,171.17,171.17,0,0,0-35.27-56.43c-.56-.6-1.13-1.19-1.69-1.78-3.31-3.46-6.73-7-9.19-11.29a63.22,63.22,0,0,1-4.8-11.77c-1.93-5.84-3.76-11.35-7.77-15.52a1.13,1.13,0,0,1,1.59-1.6Z"/><path class="cls-3" d="M388.72,204.12l.1.11c2.68,3.36,3.95,7.47,5.18,11.45.57,1.85,1.16,3.77,1.89,5.56,2.46,6,6.73,11.33,10.86,16.43l1.39,1.72a295.57,295.57,0,0,1,33.47,51.95,1.13,1.13,0,0,1-2,1,293,293,0,0,0-33.21-51.56L405,239.09c-4.24-5.23-8.62-10.64-11.2-17-.76-1.87-1.37-3.84-2-5.74-1.21-4-2.37-7.67-4.78-10.7a1.13,1.13,0,0,1,1.66-1.52Z"/><path class="cls-3" d="M382.66,210.35a1.69,1.69,0,0,1,.2.25c5.78,10.11,11.32,20.59,16.68,30.74,12.55,23.74,25.53,48.3,42.47,69.58a1.15,1.15,0,0,1-.18,1.59,1.13,1.13,0,0,1-1.59-.18c-17.07-21.45-30.09-46.1-42.69-69.94-5.35-10.13-10.88-20.6-16.65-30.67a1.13,1.13,0,0,1,1.76-1.37Z"/><path class="cls-3" d="M373,221.57a1.09,1.09,0,0,1,.3.48,292.09,292.09,0,0,0,29,64.1c2.37,3.91,4.89,7.85,7.33,11.67,9,14.07,18.29,28.62,22.63,45a1.13,1.13,0,0,1-2.18.57c-4.25-16-13.45-30.43-22.35-44.36-2.45-3.82-5-7.78-7.36-11.71a294.57,294.57,0,0,1-29.24-64.6,1.13,1.13,0,0,1,1.85-1.15Z"/><path class="cls-3" d="M365.58,227.72a1.12,1.12,0,0,1,.3.49c10.64,35.45,29.34,68.37,47.42,100.2,4.42,7.78,9,15.83,13.37,23.79a1.11,1.11,0,0,1-.44,1.53,1.13,1.13,0,0,1-1.53-.44c-4.37-8-8.94-16-13.36-23.77-18.15-31.94-36.91-65-47.62-100.66a1.13,1.13,0,0,1,1.86-1.14Z"/><path class="cls-3" d="M358.82,237.7a1.06,1.06,0,0,1,.29.45A642.85,642.85,0,0,0,415,357.36a1.12,1.12,0,0,1-.39,1.54,1.11,1.11,0,0,1-1.54-.38,645.79,645.79,0,0,1-56-119.63,1.13,1.13,0,0,1,.69-1.43A1.11,1.11,0,0,1,358.82,237.7Z"/><path class="cls-3" d="M379.94,216.33a1.07,1.07,0,0,1,.28.41c8.93,23.35,18.16,47.5,32.34,68.59,2.38,3.54,5,7.08,7.45,10.51,6.7,9.2,13.63,18.71,17.7,29.56a1.13,1.13,0,1,1-2.11.79c-4-10.56-10.8-19.95-17.41-29-2.51-3.44-5.09-7-7.5-10.57-14.32-21.31-23.6-45.58-32.58-69a1.14,1.14,0,0,1,.65-1.46A1.13,1.13,0,0,1,379.94,216.33Z"/><path class="cls-3" d="M349.66,248a1.46,1.46,0,0,1,.16.19c10.07,15.23,16.77,32.57,23.24,49.34.7,1.79,1.39,3.59,2.09,5.39,9.51,24.46,20,48.91,31.2,72.68a1.13,1.13,0,0,1-.54,1.5,1.12,1.12,0,0,1-1.5-.54c-11.21-23.81-21.73-48.32-31.26-72.83Q372,301,371,298.29c-6.43-16.66-13.08-33.88-23-48.9a1.13,1.13,0,0,1,1.72-1.44Z"/><path class="cls-3" d="M340.73,253.12a1,1,0,0,1,.31.51l9.67,34.15c1.8,6.38,3.67,13,6.93,18.84a89.06,89.06,0,0,0,5.73,8.59c1.42,2,2.89,4,4.22,6.05,6,9.38,9.46,20.19,12.81,30.65,3.69,11.55,7.51,23.48,14.75,33.22a1.13,1.13,0,0,1-1.81,1.35c-7.47-10-11.34-22.16-15.09-33.88-3.3-10.32-6.71-21-12.56-30.12-1.29-2-2.74-4-4.14-6a87,87,0,0,1-5.87-8.81c-3.39-6.09-5.3-12.82-7.14-19.33l-9.67-34.15a1.13,1.13,0,0,1,.78-1.39A1.11,1.11,0,0,1,340.73,253.12Z"/><path class="cls-3" d="M332.07,260.83a1.14,1.14,0,0,1,.33.6C338.13,291,351,319,363.51,346.05c8.67,18.8,17.63,38.23,24.19,58.16a1.12,1.12,0,0,1-.72,1.42,1.13,1.13,0,0,1-1.42-.72c-6.52-19.8-15.45-39.18-24.1-57.92-12.53-27.18-25.49-55.28-31.27-85.14a1.12,1.12,0,0,1,1.88-1Z"/><path class="cls-3" d="M321.38,275.17a1,1,0,0,1,.28.42l39,103.51c4.38,11.59,8.9,23.58,10,36.26a1.13,1.13,0,1,1-2.25.19c-1-12.37-5.5-24.21-9.81-35.66l-39-103.51a1.12,1.12,0,0,1,1.83-1.21Z"/><path class="cls-3" d="M313.74,281.84a1.1,1.1,0,0,1,.33.64c3.84,24.07,13.77,47,23.39,69.23,9.78,22.6,19.9,46,23.67,70.64a1.13,1.13,0,1,1-2.23.34c-3.72-24.38-13.78-47.62-23.51-70.09s-19.66-45.42-23.54-69.77a1.13,1.13,0,0,1,.93-1.29A1.12,1.12,0,0,1,313.74,281.84Z"/><path class="cls-3" d="M303.66,288.74a1,1,0,0,1,.28.43l30.46,84.67c6.55,18.18,13.31,37,15.93,56.57a1.13,1.13,0,1,1-2.23.3c-2.59-19.35-9.31-38-15.82-56.11l-30.46-84.67a1.13,1.13,0,0,1,.68-1.44A1.12,1.12,0,0,1,303.66,288.74Z"/><path class="cls-3" d="M297.63,296.39a1.12,1.12,0,0,1,.35.71c2.48,27,11.95,53.12,21.11,78.38,8.05,22.18,16.37,45.12,20,68.75a1.14,1.14,0,0,1-.95,1.29,1.11,1.11,0,0,1-1.28-.94C333.27,421.17,325,398.33,317,376.25c-9.21-25.39-18.73-51.65-21.23-78.95a1.12,1.12,0,0,1,1.89-.91Z"/><path class="cls-3" d="M284,306.24a1.29,1.29,0,0,1,.22.3c5,9.64,7.89,20.26,10.71,30.53,2.48,9.07,5.05,18.44,9,27,.77,1.66,1.61,3.34,2.43,5a60.25,60.25,0,0,1,7.31,21.73c.26,1.49.53,3,.83,4.45,1.24,6.05,3.13,12.16,5,18.08,3.86,12.45,7.85,25.32,6,38.41a1.13,1.13,0,1,1-2.23-.31c1.8-12.59-2.12-25.22-5.9-37.44-1.85-6-3.76-12.13-5-18.29-.3-1.49-.57-3-.84-4.5a58.08,58.08,0,0,0-7.11-21.11c-.82-1.64-1.67-3.34-2.46-5-4.06-8.77-6.65-18.24-9.16-27.4C290,327.51,287.1,317,282.23,307.57a1.11,1.11,0,0,1,.48-1.51A1.13,1.13,0,0,1,284,306.24Z"/><path class="cls-3" d="M276.48,316.28a1.13,1.13,0,0,1,.29.47l15.49,49.31c4.48,14.25,9.11,29,12.74,43.75a360.32,360.32,0,0,1,8,44.92,1.13,1.13,0,1,1-2.24.26,359.18,359.18,0,0,0-8-44.64c-3.61-14.7-8.23-29.4-12.7-43.62l-15.49-49.3a1.13,1.13,0,0,1,.74-1.41A1.12,1.12,0,0,1,276.48,316.28Z"/><path class="cls-3" d="M266.76,324.63a1.17,1.17,0,0,1,.34.64c3.28,20.63,9.84,41.06,16.19,60.8,8.74,27.23,17.79,55.38,18.31,84.4a1.12,1.12,0,0,1-1.1,1.15,1.14,1.14,0,0,1-1.15-1.11c-.52-28.69-9.51-56.68-18.21-83.75-6.37-19.83-13-40.33-16.27-61.14a1.13,1.13,0,0,1,1.89-1Z"/><path class="cls-3" d="M257.47,333.63a1.09,1.09,0,0,1,.31.54L282.88,431c3.54,13.64,7.19,27.75,8.16,42.12a1.13,1.13,0,0,1-2.25.15c-1-14.16-4.58-28.16-8.09-41.7l-25.1-96.86a1.13,1.13,0,0,1,.81-1.37A1.15,1.15,0,0,1,257.47,333.63Z"/><path class="cls-3" d="M246.12,342.93a1.21,1.21,0,0,1,.33.61c5.48,28.58,12.22,57.29,20,85.34l.86,3.1c4.73,16.9,9.62,34.37,8.33,52.06a1.14,1.14,0,0,1-1.21,1,1.13,1.13,0,0,1-1-1.21c1.26-17.3-3.57-34.58-8.25-51.29l-.86-3.11c-7.83-28.1-14.58-56.88-20.08-85.52a1.13,1.13,0,0,1,1.89-1Z"/><path class="cls-3" d="M234.48,353.08a1.2,1.2,0,0,1,.34.66,613.25,613.25,0,0,0,19.64,89.14l.83,2.76c4.77,15.79,9.69,32.11,6.34,48.28a1.12,1.12,0,1,1-2.2-.45c3.23-15.62-1.61-31.66-6.3-47.18l-.83-2.76a616.47,616.47,0,0,1-19.71-89.47,1.13,1.13,0,0,1,1.89-1Z"/><path class="cls-3" d="M223,364.85a1.23,1.23,0,0,1,.3.49c5.27,17.72,8.32,36.22,11.28,54.1L241,458.28c2.15,13,4.37,26.43,5.3,39.84a1.12,1.12,0,1,1-2.24.16c-.93-13.3-3.15-26.69-5.29-39.64l-6.41-38.83c-2.95-17.82-6-36.24-11.22-53.83a1.13,1.13,0,0,1,.76-1.4A1.16,1.16,0,0,1,223,364.85Z"/><path class="cls-3" d="M211.31,378.05a1.15,1.15,0,0,1,.35.71,730.79,730.79,0,0,0,16,96.38l.37,1.55c2.16,9.12,4.4,18.56,3.75,28.08a1.13,1.13,0,0,1-1.2,1.05,1.11,1.11,0,0,1-1-1.2c.62-9.18-1.58-18.45-3.7-27.41l-.37-1.55a732,732,0,0,1-16-96.68,1.12,1.12,0,0,1,1-1.23A1.06,1.06,0,0,1,211.31,378.05Z"/><path class="cls-3" d="M197.44,390.35a1.18,1.18,0,0,1,.19.25c7.46,12.86,9.3,28.3,10.93,41.92l3.07,25.7c2.11,17.64,4.29,35.87,1,53.8a1.13,1.13,0,0,1-2.22-.41c3.21-17.59,1-35.65-1-53.12l-3.08-25.7c-1.6-13.41-3.41-28.6-10.63-41.06a1.12,1.12,0,0,1,.41-1.54A1.15,1.15,0,0,1,197.44,390.35Z"/><path class="cls-3" d="M184.68,402.54a1.11,1.11,0,0,1,.34.67l10,81c1.29,10.46,2.75,22.32.14,33.43a1.13,1.13,0,0,1-2.2-.52c2.52-10.71,1.15-21.86-.17-32.64l-10-81a1.13,1.13,0,0,1,1.9-.95Z"/><path class="cls-3" d="M171.46,413.88a1.13,1.13,0,0,1,.33.57c8.45,39.18,15.28,77.38,6.2,114.09a1.13,1.13,0,0,1-2.19-.54c9-36.24,2.18-74.16-6.22-113.07a1.13,1.13,0,0,1,.87-1.34A1.12,1.12,0,0,1,171.46,413.88Z"/><path class="cls-3" d="M158.56,428.53a1.1,1.1,0,0,1,.35.69c1.94,18.62,3.32,37.55,4.66,55.86.91,12.43,1.94,26.51-1.81,39.44a1.13,1.13,0,0,1-2.17-.63c3.64-12.54,2.67-25.81,1.73-38.65C160,467,158.61,448,156.67,429.46a1.12,1.12,0,0,1,1-1.24A1.1,1.1,0,0,1,158.56,428.53Z"/><path class="cls-3" d="M148.29,437.8a1.15,1.15,0,0,1,.28.43c2.37,6.45,2.45,13.62,2.51,19.95l.32,31a1.13,1.13,0,0,1-2.26,0l-.31-31c-.07-6.45-.14-13.11-2.38-19.19a1.14,1.14,0,0,1,.67-1.45A1.15,1.15,0,0,1,148.29,437.8Z"/><path class="cls-3" d="M139,445.5a1.12,1.12,0,0,1,.34.64,210,210,0,0,1-8.07,98.28,1.12,1.12,0,1,1-2.13-.71,207.77,207.77,0,0,0,8-97.22,1.13,1.13,0,0,1,1.89-1Z"/><path class="cls-3" d="M124.86,459.42a1.12,1.12,0,0,1,.34.81A235,235,0,0,1,109.94,546a1.13,1.13,0,0,1-2.11-.8A232.7,232.7,0,0,0,123,460.25a1.14,1.14,0,0,1,1.12-1.14A1.18,1.18,0,0,1,124.86,459.42Z"/><path class="cls-3" d="M105.18,479.49a1.1,1.1,0,0,1,.33,1,228,228,0,0,0-3.29,28.41c-.1,2-.18,3.94-.26,5.93-.45,11.45-.93,23.29-6,33.74a1.13,1.13,0,0,1-1.51.52,1.12,1.12,0,0,1-.52-1.5c4.83-10,5.29-21.63,5.74-32.85.08-2,.16-4,.26-6a228.51,228.51,0,0,1,3.33-28.69,1.13,1.13,0,0,1,1.31-.91A1.09,1.09,0,0,1,105.18,479.49Z"/><path class="cls-3" d="M85.67,499.5a1.13,1.13,0,0,1,.3,1.14c-2.2,7.35-2.14,15.27-2.07,22.94,0,4.31.07,8.76-.28,13.12-.23,2.78-.62,5.57-1,8.27a1.13,1.13,0,0,1-2.23-.31c.38-2.67.76-5.42,1-8.14.35-4.26.31-8.66.28-12.92-.07-7.83-.14-15.94,2.16-23.61a1.13,1.13,0,0,1,1.86-.49Z"/><path class="cls-3" d="M58.75,525.78a1.08,1.08,0,0,1,.34.88,70.19,70.19,0,0,1-5.77,24.06,1.12,1.12,0,1,1-2.06-.9,68.2,68.2,0,0,0,5.59-23.3,1.11,1.11,0,0,1,1.19-1A1.1,1.1,0,0,1,58.75,525.78Z"/><path class="cls-3" d="M46.74,524.21a1.13,1.13,0,0,1-1.15,1.88,70.23,70.23,0,0,0-29.19-3.53,1.14,1.14,0,0,1-1.23-1,1.12,1.12,0,0,1,1-1.22A72.39,72.39,0,0,1,46.33,524,1.29,1.29,0,0,1,46.74,524.21Z"/><path class="cls-3" d="M70.05,498.84a1.13,1.13,0,0,1-1,1.91c-6.34-1.59-12.89-3.24-19.48-3.81-11.87-1.05-23.79,1.31-35.32,3.59a1.13,1.13,0,1,1-.44-2.21c11.68-2.31,23.77-4.7,36-3.63,6.76.6,13.4,2.26,19.83,3.87A1.18,1.18,0,0,1,70.05,498.84Z"/><path class="cls-3" d="M90.72,477.36a1.09,1.09,0,0,1,.34.85,1.13,1.13,0,0,1-1.16,1.09,106.9,106.9,0,0,1-15.76-2.15c-1.81-.35-3.63-.69-5.45-1a145.75,145.75,0,0,0-52.27.64,1.13,1.13,0,0,1-.43-2.21,148.18,148.18,0,0,1,53.08-.65c1.83.31,3.66.66,5.49,1A103.79,103.79,0,0,0,90,477.05,1.11,1.11,0,0,1,90.72,477.36Z"/><path class="cls-3" d="M105.88,463.07a1.14,1.14,0,0,1,.33,1.05,1.12,1.12,0,0,1-1.33.87,265.62,265.62,0,0,0-77.5-4.37c-3.68.33-7.24.77-10.17,2.48a1.13,1.13,0,0,1-1.14-2c3.34-1.94,7.16-2.42,11.11-2.78a267.62,267.62,0,0,1,78.15,4.42A1,1,0,0,1,105.88,463.07Z"/><path class="cls-3" d="M115.3,453.3a1.13,1.13,0,0,1-1,1.91c-27.2-6.54-58-13.95-86.85-5.49a1.13,1.13,0,0,1-.64-2.17c29.41-8.62,61.9-.81,88,5.47A1.19,1.19,0,0,1,115.3,453.3Z"/><path class="cls-3" d="M128.34,438.49a1.16,1.16,0,0,1,.33,1.06,1.13,1.13,0,0,1-1.34.86c-21-4.51-42.4-8.46-63.63-11.73-14.41-2.23-28.36-3.75-40.54,1.95a1.13,1.13,0,0,1-.95-2.05C35,422.63,49.86,424.26,64,426.45c21.27,3.28,42.73,7.24,63.76,11.76A1.12,1.12,0,0,1,128.34,438.49Z"/><path class="cls-3" d="M141.51,424.09a1.14,1.14,0,0,1,.32,1.06,1.12,1.12,0,0,1-1.34.86c-22.67-5-45.76-9.49-68.65-13.29a1.13,1.13,0,0,1,.37-2.22c22.92,3.8,46.06,8.28,68.76,13.31A1.17,1.17,0,0,1,141.51,424.09Z"/><path class="cls-3" d="M152.62,410a1.13,1.13,0,0,1-1,1.92L72.13,393.65a1.13,1.13,0,0,1,.5-2.2l79.46,18.25A1.18,1.18,0,0,1,152.62,410Z"/><path class="cls-3" d="M167.21,398a1.14,1.14,0,0,1,.25,1.27,1.12,1.12,0,0,1-1.48.58,239.87,239.87,0,0,0-72.4-18.73,1.13,1.13,0,1,1,.22-2.24,241.93,241.93,0,0,1,73.08,18.91A1.15,1.15,0,0,1,167.21,398Z"/><path class="cls-3" d="M180.51,382.51a1.12,1.12,0,0,1-1.26,1.83,478.62,478.62,0,0,0-122.6-39.53,1.13,1.13,0,0,1,.39-2.22,480.94,480.94,0,0,1,123.18,39.72A1,1,0,0,1,180.51,382.51Z"/><path class="cls-3" d="M191.61,371.32a1.11,1.11,0,0,1,.16,1.43,1.13,1.13,0,0,1-1.56.32,140.46,140.46,0,0,0-29.63-14.79A281.93,281.93,0,0,0,133,350.47L69.62,334.8a1.13,1.13,0,0,1,.54-2.19l63.39,15.67a284.06,284.06,0,0,1,27.79,7.88,142.61,142.61,0,0,1,30.11,15Z"/><path class="cls-3" d="M204.79,353.65c.5.48,1,1,1.47,1.51a1.12,1.12,0,0,1-.08,1.59,1.14,1.14,0,0,1-1.59-.08c-6.68-7.35-16.91-10.17-26.8-12.88l-.36-.1A651.38,651.38,0,0,1,93,314.19a1.13,1.13,0,0,1,.89-2.07,649.78,649.78,0,0,0,84.1,29.4l.36.1C187.91,344.23,197.73,346.92,204.79,353.65Z"/><path class="cls-3" d="M216.63,346.37a1.13,1.13,0,0,1-1.32,1.8c-36.21-19.6-77.26-41.81-121.23-45.55a1.12,1.12,0,0,1,.19-2.24c44.44,3.78,85.71,26.11,122.12,45.81A1.08,1.08,0,0,1,216.63,346.37Z"/><path class="cls-3" d="M229.57,333.48a1.13,1.13,0,0,1-1.35,1.79,536.8,536.8,0,0,0-120.17-51.75,1.13,1.13,0,0,1,.64-2.16,538.78,538.78,0,0,1,120.67,52Z"/><path class="cls-3" d="M242.43,321.93a1.12,1.12,0,0,1-1.3,1.81A775.75,775.75,0,0,0,113.8,270.82a1.13,1.13,0,1,1,.67-2.15,778.27,778.27,0,0,1,127.71,53.08A1.14,1.14,0,0,1,242.43,321.93Z"/><path class="cls-3" d="M253,308.78a1.12,1.12,0,0,1-1.29,1.81c-34.69-18-70.39-35.12-106.11-51a1.13,1.13,0,0,1,.92-2.06c35.76,15.89,71.49,33.07,106.22,51A1,1,0,0,1,253,308.78Z"/><path class="cls-3" d="M263.78,303.34a1.13,1.13,0,0,1-1.36,1.78l-64.19-38.89c-7.47-4.52-15.2-9.2-23.5-12.25-6.43-2.36-13.3-3.76-19.94-5.12l-24.21-5a1.13,1.13,0,1,1,.45-2.21l24.21,5c6.72,1.38,13.67,2.8,20.26,5.22,8.51,3.12,16.33,7.86,23.9,12.44l64.19,38.89A.94.94,0,0,1,263.78,303.34Z"/><path class="cls-3" d="M271,287.34a1.13,1.13,0,0,1-1.27,1.83l-85.09-40.59c-9.39-4.48-20-9.55-31-10.42a1.12,1.12,0,0,1-1-1.21,1.14,1.14,0,0,1,1.21-1c11.44.9,22.27,6.07,31.83,10.63l85.09,40.6A1.21,1.21,0,0,1,271,287.34Z"/><path class="cls-3" d="M285.46,278.88a1.15,1.15,0,0,1,.26,1.25,1.12,1.12,0,0,1-1.47.61c-36-14.93-72.18-30.87-107.49-47.38a1.13,1.13,0,1,1,1-2c35.29,16.49,71.42,32.42,107.4,47.34A1.15,1.15,0,0,1,285.46,278.88Z"/><path class="cls-3" d="M296.33,267.68a1.13,1.13,0,0,1-1,1.92,232.91,232.91,0,0,1-59.15-21.75c-4.93-2.62-9.85-5.46-14.61-8.21-11.78-6.8-24-13.83-37.07-17.9a1.13,1.13,0,0,1,.67-2.15c13.34,4.14,25.64,11.24,37.52,18.1,4.75,2.74,9.65,5.57,14.55,8.17a230.55,230.55,0,0,0,58.57,21.54A1.08,1.08,0,0,1,296.33,267.68Z"/><path class="cls-3" d="M301.16,258.39a1.12,1.12,0,0,1-1.54,1.64c-15.58-14.15-36.13-21.27-56-28.15-8.89-3.08-18.08-6.27-26.77-10-4.5-2-9-4.14-13.38-6.26-12.15-5.88-24.72-12-38.14-13.71a1.12,1.12,0,1,1,.29-2.23c13.78,1.78,26.52,8,38.83,13.91,4.35,2.11,8.84,4.28,13.3,6.23,8.61,3.74,17.76,6.92,26.61,10,20.09,7,40.86,14.16,56.79,28.62Z"/><path class="cls-3" d="M316.81,244.83a1.13,1.13,0,0,1-1.5,1.68c-14.32-11.89-32.07-19-49.24-25.92-9.2-3.69-18.71-7.52-27.66-12-5.67-2.88-11.35-6.13-16.84-9.29-15.91-9.12-32.36-18.56-50.54-19.58a1.13,1.13,0,0,1,.12-2.25c18.72,1,35.4,10.62,51.54,19.88,5.46,3.14,11.12,6.38,16.74,9.23,8.86,4.48,18.33,8.28,27.48,12,17.33,7,35.25,14.16,49.84,26.28Z"/><path class="cls-3" d="M325.84,236a1.13,1.13,0,0,1-1.32,1.8L287.6,217.44c-33-18.21-67.14-37-104.77-44.68a1.13,1.13,0,1,1,.45-2.21c38,7.72,72.25,26.63,105.4,44.92l36.93,20.36Z"/><path class="cls-3" d="M335.05,227.69a1.13,1.13,0,0,1-1.34,1.79,1123,1123,0,0,0-147.14-72.17,1.13,1.13,0,1,1,.84-2.09,1125.52,1125.52,0,0,1,147.43,72.31A1.16,1.16,0,0,1,335.05,227.69Z"/><path class="cls-3" d="M339.46,219.18a1.13,1.13,0,0,1-1.5,1.68c-6.69-5.51-14.54-9.66-22.12-13.67L260,177.69c-17.64-9.32-35.87-18.95-55.55-23.76a1.12,1.12,0,1,1,.53-2.18c19.95,4.86,38.31,14.57,56.07,23.95l55.82,29.5c7.69,4.06,15.63,8.27,22.51,13.92Z"/><path class="cls-3" d="M350.25,210.56a1.13,1.13,0,0,1-1.42,1.74,959.24,959.24,0,0,0-129.58-75.63,1.13,1.13,0,1,1,1-2,961.09,961.09,0,0,1,129.89,75.81Z"/><path class="cls-3" d="M358.6,203.83a1.15,1.15,0,0,1,.18,1.41,1.12,1.12,0,0,1-1.55.36L257.49,144c-8.33-5.15-16.94-10.47-26.35-13.56a1.11,1.11,0,0,1-.72-1.42,1.13,1.13,0,0,1,1.42-.72c9.67,3.17,18.4,8.57,26.84,13.78l99.73,61.65A1.33,1.33,0,0,1,358.6,203.83Z"/><path class="cls-3" d="M367.15,195.7a1.13,1.13,0,0,1-1.38,1.77l-122.2-76.89c-2-1.25-5.57-3.07-7.45-1.27a1.12,1.12,0,0,1-1.59,0,1.13,1.13,0,0,1,0-1.6c1.56-1.49,4.6-2.54,10.21,1L367,195.56A.86.86,0,0,1,367.15,195.7Z"/><path class="cls-3" d="M372.38,186.5a1.12,1.12,0,0,1-1.37,1.77L342.2,170.33c-9.43-5.88-19.19-12-28.44-18.51-5.3-3.75-10.6-7.76-15.72-11.64-16.24-12.31-33-25-52.5-31.29a1.12,1.12,0,1,1,.69-2.14c19.83,6.36,36.78,19.21,53.18,31.63,5.1,3.87,10.38,7.87,15.65,11.6,9.19,6.51,18.92,12.57,28.33,18.43l28.81,18A1.24,1.24,0,0,1,372.38,186.5Z"/><path class="cls-3" d="M381.82,179.55a1.13,1.13,0,0,1-1.35,1.79,856.27,856.27,0,0,1-83.58-56.2L295.41,124c-11.85-9-24.1-18.39-38.53-21.36a1.13,1.13,0,0,1,.45-2.21c14.93,3.08,27.4,12.58,39.45,21.78l1.48,1.13a852.82,852.82,0,0,0,83.35,56.05A.8.8,0,0,1,381.82,179.55Z"/><path class="cls-3" d="M388.48,173.75a1.13,1.13,0,0,1-1.51,1.68,727.16,727.16,0,0,0-101.28-72.1c-4.08-2.41-6.95-2.89-8.77-1.47a1.14,1.14,0,0,1-1.58-.2,1.13,1.13,0,0,1,.2-1.58c3.92-3,9.47.23,11.29,1.31a730.27,730.27,0,0,1,101.6,72.32Z"/><path class="cls-3" d="M398.06,165.4a1.12,1.12,0,0,1-1.4,1.75C360.1,142.76,323.53,117.3,288,91.47a1.12,1.12,0,1,1,1.32-1.82c35.53,25.81,72.07,51.25,108.61,75.62A.64.64,0,0,1,398.06,165.4Z"/><path class="cls-3" d="M405.29,156.87a1.12,1.12,0,0,1-1.49,1.68L370,130.84c-21.17-17.34-43.06-35.26-68.51-46.53a1.11,1.11,0,0,1-.58-1.48,1.13,1.13,0,0,1,1.49-.58c25.73,11.39,47.74,29.42,69,46.85l33.83,27.71Z"/><path class="cls-3" d="M415.1,146.67a1.12,1.12,0,0,1-1.47,1.7c-31.47-24.75-64.12-48.84-97.06-71.58a1.12,1.12,0,1,1,1.28-1.85c33,22.77,65.67,46.88,97.17,71.66Z"/><path class="cls-3" d="M422.54,137.85a1.13,1.13,0,1,1-1.55,1.64l-47.06-44h0a1.12,1.12,0,0,1-.05-1.58,1.14,1.14,0,0,1,1.6-.06l47.06,44Z"/><path class="cls-3" d="M389.68,89.66c2.48,2.37,4.77,5,6.94,7.41l.2.24a426.4,426.4,0,0,0,33.69,34.07,1.16,1.16,0,0,1,.08,1.59,1.12,1.12,0,0,1-1.59.08A427.6,427.6,0,0,1,395.13,98.8l-.2-.24c-5.73-6.48-11.65-13.19-19.72-15a1.14,1.14,0,0,1-.86-1.35,1.12,1.12,0,0,1,1.35-.85C381.13,82.58,385.67,85.83,389.68,89.66Z"/><path class="cls-3" d="M389.53,74.06a.46.46,0,0,0,.07.07c14.83,17,30.17,34.52,47.42,49.59a1.13,1.13,0,1,1-1.48,1.7c-17.38-15.17-32.76-32.78-47.64-49.8a1.13,1.13,0,0,1,1.63-1.56Z"/><path class="cls-3" d="M422.24,85.12c4.27,4.07,7.69,9,11,13.72,4,5.77,8.2,11.74,13.78,16a1.12,1.12,0,0,1,.22,1.58,1.13,1.13,0,0,1-1.58.22c-5.86-4.48-10.14-10.58-14.27-16.49-3.66-5.24-7.45-10.66-12.3-14.8a78.43,78.43,0,0,0-7.7-5.56C407.25,77,403,74.18,399.7,70.21a1.13,1.13,0,0,1,1.75-1.43c3,3.71,7,6.33,11.2,9.12a77.57,77.57,0,0,1,7.93,5.72C421.15,84.11,421.7,84.61,422.24,85.12Z"/><path class="cls-4" d="M538.08,40.67C441.27,150.78,335.72,252.82,230.31,354.73L47.77,531.19c-10.67,10.32-22.62,21.23-37.42,22.35,31.81-20.36,58.36-47.79,84.6-75L269.48,297.86c46.12-47.75,88.31-87.17,142.28-139.29,13.4-12.94,82.4-92.39,103-119.67,4.92-6.49,26.19-42.11,30-37.41,5.74,7,10.63,16.32,6.94,23.74C548.73,31.35,540.13,38.33,538.08,40.67Z"/><path class="cls-2" d="M545.12,1l.16.17c4.43,5.44,11.24,15.82,7,24.35-2.3,4.63-7.6,9.63-11.12,13-1.2,1.13-2.15,2-2.66,2.61h0C441.62,151.23,334.4,254.89,230.7,355.13L48.17,531.59C36.54,542.83,24.91,553,10.39,554.1l-2.23.17,1.88-1.2C42,532.63,68.7,505,94.55,478.19L269.08,297.47c35.42-36.67,68.31-68.24,106.4-104.79,11.49-11,23.36-22.41,35.89-34.51,13.81-13.34,82.89-93,103-119.61,1.14-1.51,3.15-4.58,5.7-8.46C530.24,14.63,539.71.72,543.84.5A1.72,1.72,0,0,1,545.12,1ZM12.66,552.72c13.07-1.94,23.9-11.47,34.72-21.94L229.92,354.32C333.6,254.09,440.81,150.46,537.65,40.3h0c.55-.62,1.52-1.54,2.74-2.69,3.45-3.26,8.67-8.18,10.88-12.63,4-8-2.6-17.91-6.87-23.14a.56.56,0,0,0-.51-.21c-3.9.2-16.24,19-22.88,29.09-2.56,3.9-4.58,7-5.75,8.52C495.14,65.82,426,145.62,412.15,159c-12.53,12.1-24.4,23.49-35.89,34.51-38.08,36.54-71,68.1-106.37,104.76L95.36,479C70,505.22,43.81,532.35,12.66,552.72Z"/></g></g></g></svg>