<svg xmlns="http://www.w3.org/2000/svg" viewBox="0 0 301.12 616.32"><defs><style>.cls-1{fill:#a6d08c;}.cls-1,.cls-3{stroke:#000;stroke-width:2px;}.cls-1,.cls-2,.cls-3{stroke-miterlimit:10;}.cls-2{fill:none;stroke:#89a489;stroke-linecap:round;}.cls-3{fill:#cbe1a0;}</style></defs><g id="Layer_2" data-name="Layer 2"><g id="plants"><g id="banana2"><path class="cls-1" d="M265.55,91.09a260.43,260.43,0,0,1,32.8,159.76c-1.17,9.79-2.9,19.53-3.32,29.38-.43,10.14.53,20.3.17,30.44-.66,19-5.92,37.52-12.12,55.48a528.39,528.39,0,0,1-88.85,160.08c-24,29.65-51.88,57.1-85.85,74.52-11.28,5.79-23.36,10.48-36,11.56a188.32,188.32,0,0,1-48.61-72.85c-9.69-26.29-13.35-54.36-17-82.15C3.56,432,.27,406.53,1.14,381c1-29.79,7.68-59.07,14.3-88.14C22.78,260.68,30.29,228,46,199,74.7,146.2,128.26,110.6,184.87,90.4c13-4.64,26.76-8.27,40.46-4.42C227.52,53.32,255,72.84,265.55,91.09Z"/><path class="cls-2" d="M227.12,107.68a127.47,127.47,0,0,1,45.37,9.7"/><path class="cls-2" d="M225.81,120.11c5-.07,10-.13,15,.29a77.72,77.72,0,0,1,39.51,14.91"/><path class="cls-2" d="M224.15,130.73a226.16,226.16,0,0,1,60,19"/><path class="cls-2" d="M222.86,140.26a178.07,178.07,0,0,1,41.9,14.43c3.65,1.8,7.42,3.76,11.49,3.8"/><path class="cls-2" d="M216,152c19.26,3.63,35.54,16.9,54.66,21.25,5.67,1.29,11.85,1.92,16.34,5.63"/><path class="cls-2" d="M214.89,163.22c11.46,3.86,22.76,8.18,34.06,12.5L260,180c3.52,1.35,7,2.69,10.52,4.15a177.52,177.52,0,0,1,17.07,8.25"/><path class="cls-2" d="M210.94,174.36a52.15,52.15,0,0,1,19.13,8.2c3.36,2.43,6.34,5.39,9.87,7.56a53.82,53.82,0,0,0,11.68,4.82l34.75,11.25"/><path class="cls-2" d="M208.55,186.59c24.1,17.71,56.84,20.4,80.73,38.4"/><path class="cls-2" d="M206.82,193.15c23,20.55,56,25.23,82.48,41"/><path class="cls-2" d="M203.64,201.24c8,2.37,13.07,10.27,20.29,14.51,4,2.33,8.49,3.49,12.89,4.84a141.23,141.23,0,0,1,48.49,26.24"/><path class="cls-2" d="M200.23,210.41c4.63,1.85,7.82,6.06,11.73,9.16,4.81,3.8,10.69,5.9,16.38,8.15a241.24,241.24,0,0,1,44.88,23.5"/><path class="cls-2" d="M198.42,217.32c27.57,16.33,53.49,35.88,83.21,47.84"/><path class="cls-2" d="M196.07,229.28a241.83,241.83,0,0,0,47,34.22c15.34,8.56,31.95,15.68,44.25,28.22"/><path class="cls-2" d="M193.26,236.69c27.48,26.29,61.63,44.25,94,64.16"/><path class="cls-2" d="M192.48,246.58A529.72,529.72,0,0,0,281,309.32"/><path class="cls-2" d="M198.91,222.71c16.15,13.3,32.47,26.72,51.18,36.06,11.59,5.78,24.16,10.05,34.1,18.34"/><path class="cls-2" d="M190.08,257.64c14.72,7.48,27.39,18.34,40.19,28.77q25.26,20.58,51.91,39.38"/><path class="cls-2" d="M185.79,265l20.79,20.52c4,3.93,8,7.89,12.79,10.8,4.17,2.53,8.8,4.19,13.12,6.47,17,8.93,28.17,26.8,45.72,34.54"/><path class="cls-2" d="M182.72,274c27.39,32,66.45,51.51,97.66,79.8"/><path class="cls-2" d="M180.9,288.6l70,58.24c7.89,6.56,15.89,13.24,21.68,21.72"/><path class="cls-2" d="M178.14,296.48c25.34,31.72,65.35,49.12,90.49,81"/><path class="cls-2" d="M173.73,305.51l15,12.86,41.21,35.36c12.21,10.48,24.52,21.07,34.25,33.88"/><path class="cls-2" d="M172.52,313.43c24,34.51,63.15,55.69,89.25,88.64"/><path class="cls-2" d="M166.78,326c14,9.13,23.88,23.44,37.47,33.17,3.95,2.82,8.21,5.26,11.79,8.55,3.06,2.81,5.54,6.17,8.27,9.29,10.39,11.9,24.83,21,30.61,35.72"/><path class="cls-2" d="M165.46,336.27l31.11,29c9.14,8.51,18.28,17,26.85,26.1a295.5,295.5,0,0,1,23.93,28.79"/><path class="cls-2" d="M161.9,346.19c25.6,32.05,62.72,54.49,83.61,89.79"/><path class="cls-2" d="M158.91,356.41l57.3,59.12c8.17,8.42,16.38,16.91,22.84,26.7"/><path class="cls-2" d="M154.56,367.68q23.43,27.48,49.06,53c10.85,10.81,22.23,21.65,28.8,35.49"/><path class="cls-2" d="M150.35,379.67a507.52,507.52,0,0,0,50.36,55.92c10.23,9.77,21.29,19.77,25.63,33.23"/><path class="cls-2" d="M146.89,392.77c10.91,10.48,20.45,22.28,30,34.05L197.23,452c6.91,8.56,13.84,17.13,19.93,26.3"/><path class="cls-2" d="M143.92,407a600.16,600.16,0,0,0,50.66,62.58c5.54,6,11.3,12,14.83,19.31"/><path class="cls-2" d="M139,421.39c10.22,6,17.54,15.77,24.57,25.31l12.63,17.14c8.74,11.86,17.6,23.94,22.45,37.85"/><path class="cls-2" d="M134.8,435.29l40,53.93c5.43,7.32,11,14.84,13.53,23.58"/><path class="cls-2" d="M130,448.77c21,23.49,42.07,48.45,50.58,78.76"/><path class="cls-2" d="M126.67,464.5c8.93,12.5,17.47,25.28,26,38.05,6,9,12.09,18.18,14.59,28.67"/><path class="cls-2" d="M123.08,475.31c4.16,3.51,7,8.31,9.7,13q6.42,11,12.83,22.07"/><path class="cls-2" d="M119.58,484.58a171.94,171.94,0,0,1,34,73.22"/><path class="cls-2" d="M115.1,500.3a193.85,193.85,0,0,1,23.79,67.26"/><path class="cls-2" d="M109.17,522.65a185.15,185.15,0,0,0,9.23,21.78C123.31,554.24,129.22,564,130,575"/><path class="cls-2" d="M103.33,544.9c2.23,9.76,8.81,17.87,13,27,1,2.06,1.79,4.16,2.62,6.27"/><path class="cls-2" d="M94.74,574.64a57.4,57.4,0,0,1,5.55,19.25"/><path class="cls-2" d="M85.51,578.4a58.54,58.54,0,0,0-22.69,9.48"/><path class="cls-2" d="M91.88,550.77A104.21,104.21,0,0,0,76.26,556c-9,4.09-16.57,10.62-24,17.06"/><path class="cls-2" d="M98,527c-5.18,2.71-10.85,4.32-16.34,6.32a121.38,121.38,0,0,0-37.44,21.86"/><path class="cls-2" d="M103,510.62a219.92,219.92,0,0,0-57.48,28.47c-2.49,1.73-5,3.58-6.55,6.2"/><path class="cls-2" d="M105.77,499.8C82.4,506.53,57.89,513.92,41,531.39"/><path class="cls-2" d="M109.09,483.91q-25.43,8-50.35,17.46c-10.74,4.08-22,8.83-28.65,18.19"/><path class="cls-2" d="M112.66,468.25q-27.52,8.46-54.57,18.39"/><path class="cls-2" d="M114.89,453.64,50.6,472.86"/><path class="cls-2" d="M120.44,439.11a199,199,0,0,0-59.71,16.07"/><path class="cls-2" d="M123.69,422.65a395,395,0,0,0-104,21.56"/><path class="cls-2" d="M127.08,410.13a116.14,116.14,0,0,0-27.43,1.46,231.72,231.72,0,0,0-23,5.63L24.92,431.75"/><path class="cls-2" d="M130.94,392.6c-8.13-2.68-16.94-.38-25.23,1.72a533.61,533.61,0,0,1-72.26,13.15"/><path class="cls-2" d="M134.85,382.11c-35.91.73-73,1.71-105.63,16.73"/><path class="cls-2" d="M138.88,367.63a443.5,443.5,0,0,0-107.25,11.8"/><path class="cls-2" d="M143.39,354.14A637.13,637.13,0,0,0,30.6,368"/><path class="cls-2" d="M145.64,340.42q-48.43,1.86-96.7,6.61"/><path class="cls-2" d="M151.12,332.17l-61.73-1.76c-7.34-.21-14.74-.41-22,.79a112.9,112.9,0,0,0-16.49,4.47L31.59,342"/><path class="cls-2" d="M149.8,317.77l-77.39,5.52c-9.13.65-18.49,1.36-26.77,5.23"/><path class="cls-2" d="M156.7,305.86q-48,5.92-96.13,9.75"/><path class="cls-2" d="M159.93,293.42A190.52,190.52,0,0,1,109,301.84c-16,.46-32.16-1.08-47.76,2.33"/><path class="cls-2" d="M159.61,284.81c-24.66-5.54-49.94,3.6-75.06,6.27-15.23,1.61-31.07.91-45.24,6.7"/><path class="cls-2" d="M165.31,268.75c-23.31-4.16-47,2.92-70.67,4.05-20.4,1-42-2.26-60.32,6.81"/><path class="cls-2" d="M168.18,258.76l-34.7.43c-31.46.38-63.49.85-93.4,10.62"/><path class="cls-2" d="M171.4,249.07A921.46,921.46,0,0,0,36.64,257.2"/><path class="cls-2" d="M171.09,241.19c-7.1-1.24-14.37-1-21.57-.81l-51.94,1.56c-16.68.51-33.57,1-49.63,5.6"/><path class="cls-2" d="M175.32,230.64a788.46,788.46,0,0,0-123.61-1.49"/><path class="cls-2" d="M178.56,222.43l-96.42-3.6c-8.22-.31-16.53-.61-24.59,1"/><path class="cls-2" d="M181.37,213.14,62.69,207.75c-2.64-.12-6,.25-6.78,2.78"/><path class="cls-2" d="M181.38,204.43l-27.9-1.14c-9.29-.38-18.58-.76-27.82-1.69-22.2-2.22-44.7-7.55-66.54-3"/><path class="cls-2" d="M185.31,195.63a703.47,703.47,0,0,1-82.53-6.27c-12.73-1.72-26-3.76-38.18.2"/><path class="cls-2" d="M187.72,188.77A600.19,600.19,0,0,0,85.79,178.29c-3,0-6.6.35-7.74,3.08"/><path class="cls-2" d="M191.19,178.9q-54.33-3.93-108.49-10"/><path class="cls-2" d="M192.89,169.86l-35.47-6.09C134.88,159.9,112,156,89.24,158.29"/><path class="cls-2" d="M195.78,158.57q-49.11-7.42-98.6-11.81"/><path class="cls-2" d="M197.52,149.24,146,136.89"/><path class="cls-2" d="M200.62,141.38a351.13,351.13,0,0,1-38.05-10.73c-6.81-2.34-14.14-4.92-21-2.83"/><path class="cls-2" d="M202.19,133.25c-18.5-3.78-36.39-10-54.21-16.25"/><path class="cls-2" d="M205.8,122.82c-11.18-1.51-20.59-9.44-31.67-11.59-6.59-1.27-13.61-.47-19.87-2.89"/><path class="cls-3" d="M241,31.86c-24.55,118.13-58.64,234-92.68,349.77l-59,200.44c-3.45,11.72-7.57,24.39-17.71,31.2,14.5-27.49,22.36-57.91,30.1-88Q127.46,425.15,153.2,325c13.61-52.91,27.79-98.26,45.25-157.48C202.78,152.84,219.89,68,223.59,40c.88-6.65,1.64-40.78,6.29-39,7,2.7,14.23,7.36,14.61,14.17C244.79,20.86,241.48,29.35,241,31.86Z"/></g></g></g></svg>