<svg xmlns="http://www.w3.org/2000/svg" viewBox="0 0 341.3 773.32"><defs><style>.cls-1{fill:#89a489;}.cls-1,.cls-2,.cls-4{stroke:#000;stroke-miterlimit:10;}.cls-3{fill:#a2cb8e;}.cls-4{fill:#cbe1a0;}</style></defs><g id="Layer_2" data-name="Layer 2"><g id="plants2"><g id="banana3"><path class="cls-1" d="M105.41,676.88A316.47,316.47,0,0,1,19,498.52c-1.55-11.88-2.42-23.87-4.87-35.6-2.53-12.07-6.7-23.74-9.31-35.79-4.89-22.57-4.24-46-2.31-69A642.16,642.16,0,0,1,59.29,143c19.45-42.11,44-82.77,78.83-113.45,11.56-10.19,24.39-19.31,38.95-24.37a228.92,228.92,0,0,1,79,71.26c19.27,28.08,32,60,44.52,91.7C312.05,197,323.53,226,330.14,256.35c7.71,35.4,8.63,71.87,9.51,108.09,1,40.1,1.9,80.8-8,119.68-18,70.78-70.41,128.74-131,169.45-13.95,9.36-29,17.75-46.33,17.31C161.48,710,123.28,695.23,105.41,676.88Z"/><path class="cls-2" d="M141.67,696.11a37.18,37.18,0,0,1-14.51-3.52A73.64,73.64,0,0,1,105,677.28h0A316.38,316.38,0,0,1,18.45,498.59c-.47-3.57-.88-7.2-1.28-10.72-.93-8.19-1.88-16.65-3.6-24.83-1.29-6.19-3.05-12.38-4.75-18.37C7.21,439,5.54,433.12,4.27,427.25-.89,403.48.2,379,2,358.11A639.34,639.34,0,0,1,58.78,142.8c23.39-50.64,48.48-86.75,79-113.63,13.91-12.26,26.34-20,39.13-24.49l.24-.08.21.12a229.56,229.56,0,0,1,79.24,71.45c19.39,28.26,32.19,60.56,44.58,91.8,11.26,28.43,22.91,57.82,29.54,88.26,7.75,35.57,8.65,72.49,9.52,108.2,1,39.62,2,80.59-8,119.83-8.53,33.6-25.22,66-49.63,96.22C260.7,607.61,233.23,632.36,201,654c-13.47,9-28.24,17.37-45.18,17.42H155c2.1,12.11,0,19.88-6.24,23.11A15.45,15.45,0,0,1,141.67,696.11Zm-35.86-19.62c12,12.27,32.31,22.3,42.41,17.08,5.78-3,7.69-10.8,5.53-22.59l-.12-.68.69,0c17.25.44,32.3-8,46-17.22C268.64,607.23,315.09,547.17,331.13,484c9.92-39.08,8.92-80,8-119.52-.87-35.66-1.77-72.53-9.5-108-6.61-30.35-18.24-59.7-29.49-88.08C287.74,137.21,275,105,255.64,76.8A228.52,228.52,0,0,0,177,5.83C164.45,10.24,152.2,17.93,138.5,30,108.13,56.79,83.13,92.78,59.81,143.27A638.11,638.11,0,0,0,3.07,358.2C1.33,379,.25,403.38,5.37,427c1.27,5.84,2.93,11.69,4.54,17.35,1.7,6,3.47,12.22,4.77,18.45,1.72,8.23,2.68,16.72,3.61,24.93.4,3.51.81,7.15,1.27,10.71A315.29,315.29,0,0,0,105.81,676.49Z"/><path class="cls-3" d="M112.29,650.76a154.41,154.41,0,0,1-23.09-1.65,1.13,1.13,0,0,1,.32-2.23,152.8,152.8,0,0,0,55.94-2.13A1.13,1.13,0,1,1,146,647,155,155,0,0,1,112.29,650.76Z"/><path class="cls-3" d="M110.7,637.35a95,95,0,0,1-36.32-7.09,1.12,1.12,0,1,1,.85-2.08,92.82,92.82,0,0,0,50.38,5.67c6-1,11.89-2.58,17.63-4.12a1.14,1.14,0,0,1,1.38.8,1.12,1.12,0,0,1-.79,1.38c-5.8,1.55-11.8,3.15-17.85,4.16A94.62,94.62,0,0,1,110.7,637.35Z"/><path class="cls-3" d="M120.59,619.87a274.45,274.45,0,0,1-54.89-5.36,1.13,1.13,0,1,1,.44-2.21,272.42,272.42,0,0,0,76.08,4.39,1.14,1.14,0,0,1,1.22,1,1.12,1.12,0,0,1-1,1.21Q131.51,619.83,120.59,619.87Z"/><path class="cls-3" d="M132.6,607.52a217,217,0,0,1-45.52-4.68l-.76-.16c-4.48-1-9.1-1.94-13.4-.88a1.13,1.13,0,0,1-.54-2.19c4.8-1.18,9.68-.14,14.4.86l.77.16a214.63,214.63,0,0,0,53.39,4.45,1.11,1.11,0,0,1,1.17,1.07,1.13,1.13,0,0,1-1.08,1.18C138.23,607.45,135.41,607.51,132.6,607.52Z"/><path class="cls-3" d="M141.29,591.65c-11,0-22-2.24-32.58-4.45-11.06-2.29-22.48-4.67-33.82-4.38-1.29,0-2.59.09-3.9.16-5.93.28-12.07.58-17.54-2a1.13,1.13,0,1,1,1-2c5,2.35,10.81,2.07,16.47,1.8,1.33-.07,2.65-.13,4-.16,11.6-.29,23.16,2.11,34.33,4.43,11.89,2.46,24.18,5,36.36,4.26a1.13,1.13,0,0,1,.14,2.25C144.2,591.6,142.74,591.64,141.29,591.65Z"/><path class="cls-3" d="M143.51,577.9h-.09c-14.67-1.12-29.51-2.86-43.87-4.54l-14.33-1.68c-4.49-.52-9.12-1.06-13.66-1.74a219,219,0,0,1-22.7-4.64,1.13,1.13,0,0,1,.57-2.18,217.48,217.48,0,0,0,22.46,4.59c4.51.67,9.12,1.21,13.58,1.74l14.31,1.67c14.36,1.68,29.19,3.42,43.81,4.53a1.13,1.13,0,0,1-.08,2.25Z"/><path class="cls-3" d="M143,563.63a63.11,63.11,0,0,1-23.58-4c-1.92-.76-3.8-1.65-5.62-2.51a64.3,64.3,0,0,0-8.19-3.41c-4.8-1.49-10-1.83-14.93-2.15l-44.3-2.86a1.12,1.12,0,0,1-1-1.19,1.14,1.14,0,0,1,1.2-1.05l44.29,2.85c5.12.33,10.41.67,15.45,2.24a66.45,66.45,0,0,1,8.49,3.53c1.79.85,3.64,1.72,5.49,2.46,7,2.78,15.26,4.08,24.53,3.85h0a1.13,1.13,0,0,1,0,2.25Z"/><path class="cls-3" d="M144,548.48a.92.92,0,0,1-.43-.08c-16.53-6.7-34.81-8.51-52.5-10.26-18.19-1.8-37-3.67-54.08-10.83a1.12,1.12,0,1,1,.87-2.07c16.77,7,35.41,8.87,53.44,10.66,17.84,1.76,36.29,3.59,53.12,10.41a1.14,1.14,0,0,1,.62,1.47A1.12,1.12,0,0,1,144,548.48Z"/><path class="cls-3" d="M144.06,540.24a1.11,1.11,0,0,1-.52-.13C124.07,530,101.66,527.26,80,524.65c-15.18-1.83-30.88-3.73-45.66-8.13a1.13,1.13,0,1,1,.64-2.16c14.6,4.35,30.2,6.23,45.28,8,21.89,2.64,44.51,5.37,64.34,15.71a1.12,1.12,0,0,1-.52,2.12Z"/><path class="cls-3" d="M145.39,529.77h0c-6.29-.25-11.89-3.21-17.31-6.08a61.61,61.61,0,0,0-11.19-5c-4.46-1.3-9.26-1.5-13.91-1.7l-2.47-.11a173.67,173.67,0,0,1-65.38-16.51,1.15,1.15,0,0,1-.54-1.51,1.13,1.13,0,0,1,1.51-.53,171.22,171.22,0,0,0,64.52,16.3l2.45.11c4.79.2,9.73.42,14.45,1.78a62.91,62.91,0,0,1,11.61,5.17c5.44,2.87,10.57,5.59,16.35,5.81a1.13,1.13,0,0,1,0,2.26Z"/><path class="cls-3" d="M146.66,518h-.15c-4.26-.57-8-2.66-11.66-4.67-1.7-.95-3.45-1.92-5.21-2.71-6-2.66-12.7-3.51-19.22-4.33l-2.19-.28a295.68,295.68,0,0,1-60.12-14.31,1.12,1.12,0,1,1,.75-2.12,293.29,293.29,0,0,0,59.66,14.19l2.18.28c6.68.84,13.59,1.71,19.86,4.52,1.85.83,3.65,1.82,5.39,2.79,3.61,2,7,3.89,10.86,4.4a1.13,1.13,0,0,1,1,1.27A1.15,1.15,0,0,1,146.66,518Z"/><path class="cls-3" d="M146.72,509.26a.93.93,0,0,1-.32-.05c-11.17-3.28-22.43-7-33.31-10.62-25.5-8.44-51.87-17.17-78.83-20.8a1.12,1.12,0,0,1-1-1.27,1.11,1.11,0,0,1,1.26-1c27.17,3.65,53.64,12.42,79.23,20.89,10.87,3.6,22.12,7.33,33.25,10.6a1.13,1.13,0,0,1-.32,2.21Z"/><path class="cls-3" d="M145.92,494.48a1.21,1.21,0,0,1-.55-.14,292.07,292.07,0,0,0-65.32-26.16c-4.42-1.18-9-2.28-13.36-3.34-16.24-3.93-33-8-47.49-16.8a1.12,1.12,0,1,1,1.17-1.92c14.17,8.62,30.78,12.64,46.85,16.53,4.41,1.07,9,2.17,13.41,3.35a295.18,295.18,0,0,1,65.83,26.36,1.13,1.13,0,0,1,.44,1.53A1.1,1.1,0,0,1,145.92,494.48Z"/><path class="cls-3" d="M147,484.9a1.08,1.08,0,0,1-.55-.15c-32.22-18.21-68.5-29-103.59-39.45-8.58-2.56-17.46-5.2-26.13-7.91a1.13,1.13,0,0,1,.67-2.15c8.66,2.71,17.53,5.35,26.1,7.9,35.21,10.48,71.62,21.31,104.06,39.65a1.13,1.13,0,0,1-.56,2.11Z"/><path class="cls-3" d="M145,473a1.2,1.2,0,0,1-.52-.12A642.59,642.59,0,0,0,21.63,425.56a1.13,1.13,0,1,1,.59-2.18,645.86,645.86,0,0,1,123.27,47.51A1.13,1.13,0,0,1,145,473Z"/><path class="cls-3" d="M144.54,503.06a1.23,1.23,0,0,1-.49-.1c-22.61-10.67-46-21.69-70.82-27.09-4.17-.91-8.48-1.68-12.65-2.43-11.2-2-22.79-4.06-33.24-9.07a1.12,1.12,0,1,1,1-2c10.18,4.87,21.61,6.91,32.67,8.89,4.18.74,8.51,1.52,12.73,2.43,25.08,5.46,48.58,16.54,71.31,27.26a1.12,1.12,0,0,1-.48,2.14Z"/><path class="cls-3" d="M144.5,459.28a1.15,1.15,0,0,1-.26,0c-17.81-4-34.64-11.88-50.92-19.5l-5.24-2.44c-23.81-11.06-48.31-21.44-72.84-30.84a1.13,1.13,0,1,1,.81-2.11c24.57,9.43,49.13,19.82,73,30.91l5.24,2.44c16.17,7.56,32.9,15.38,50.47,19.34a1.13,1.13,0,0,1-.24,2.23Z"/><path class="cls-3" d="M147.36,449.37a1.19,1.19,0,0,1-.58-.15l-30.62-18c-5.72-3.36-11.65-6.83-18-8.79A86,86,0,0,0,88,420.25c-2.38-.43-4.84-.87-7.24-1.45-10.82-2.6-20.8-8-30.46-13.24-10.66-5.78-21.68-11.75-33.64-13.76a1.13,1.13,0,1,1,.37-2.22c12.34,2.08,23.53,8.14,34.35,14,9.52,5.16,19.38,10.49,29.91,13,2.34.56,4.76,1,7.11,1.42a90.77,90.77,0,0,1,10.34,2.29c6.66,2.05,12.69,5.58,18.53,9l30.62,17.94a1.12,1.12,0,0,1-.56,2.1Z"/><path class="cls-3" d="M148.27,437.81a1.11,1.11,0,0,1-.65-.2C123,420.23,94.31,409,66.57,398.09c-19.26-7.56-39.19-15.37-57.72-25.21a1.12,1.12,0,0,1-.47-1.52,1.14,1.14,0,0,1,1.53-.47C28.32,380.67,48.19,388.46,67.4,396c27.86,10.93,56.67,22.23,81.52,39.76a1.13,1.13,0,0,1-.65,2.05Z"/><path class="cls-3" d="M146.05,420.06a1.09,1.09,0,0,1-.49-.11L45.74,372.29C34.55,367,23,361.43,13.45,353a1.12,1.12,0,1,1,1.48-1.69c9.31,8.2,20.73,13.65,31.78,18.93l99.82,47.66a1.12,1.12,0,0,1-.48,2.14Z"/><path class="cls-3" d="M147,410a1.19,1.19,0,0,1-.69-.23C126.83,395,103.76,385.33,81.45,376c-22.7-9.53-46.19-19.38-66-34.58a1.12,1.12,0,1,1,1.37-1.78c19.57,15,42.92,24.81,65.5,34.28s45.63,19.16,65.29,34a1.13,1.13,0,0,1-.67,2Z"/><path class="cls-3" d="M149.44,398a1.1,1.1,0,0,1-.5-.11l-80.61-40C51,349.3,33.12,340.42,17.67,328.1a1.12,1.12,0,1,1,1.4-1.76c15.26,12.17,33.06,21,50.26,29.53l80.61,40a1.12,1.12,0,0,1-.5,2.13Z"/><path class="cls-3" d="M148.49,388.31a1.15,1.15,0,0,1-.74-.27C127.26,370.26,102.34,358,78.24,346.1c-21.16-10.43-43-21.22-62-35.74a1.13,1.13,0,0,1,1.37-1.79C36.38,323,58.17,333.7,79.24,344.08c24.22,11.94,49.27,24.29,70,42.25a1.13,1.13,0,0,1,.11,1.59A1.1,1.1,0,0,1,148.49,388.31Z"/><path class="cls-3" d="M151.5,371.77a.94.94,0,0,1-.37-.07c-10.27-3.5-19.72-9.15-28.86-14.61-8.07-4.82-16.42-9.81-25.24-13.26-1.71-.66-3.48-1.29-5.19-1.9a79.33,79.33,0,0,1-11.38-4.7,79.93,79.93,0,0,1-8.94-5.91c-1.22-.89-2.44-1.78-3.68-2.63-5.08-3.51-10.68-6.61-16.1-9.61-11.4-6.31-23.2-12.84-30.92-23.58a1.13,1.13,0,0,1,.26-1.57,1.12,1.12,0,0,1,1.57.26c7.43,10.33,19,16.73,30.18,22.92,5.47,3,11.12,6.15,16.29,9.72,1.25.87,2.49,1.77,3.72,2.67a78.7,78.7,0,0,0,8.69,5.75,78.91,78.91,0,0,0,11.06,4.56c1.73.61,3.52,1.24,5.26,1.93,9,3.51,17.42,8.55,25.57,13.42,9,5.4,18.39,11,28.44,14.41a1.12,1.12,0,0,1,.7,1.43A1.15,1.15,0,0,1,151.5,371.77Z"/><path class="cls-3" d="M150,359.31a1.17,1.17,0,0,1-.54-.14l-45.32-24.85c-13.09-7.18-26.63-14.6-39.48-22.75a359.27,359.27,0,0,1-36.91-26.84A1.13,1.13,0,1,1,29.17,283a356.68,356.68,0,0,0,36.68,26.67c12.78,8.11,26.29,15.52,39.35,22.68l45.32,24.84a1.13,1.13,0,0,1,.45,1.53A1.11,1.11,0,0,1,150,359.31Z"/><path class="cls-3" d="M151.21,346.56a1.14,1.14,0,0,1-.68-.23c-16.66-12.62-35.54-22.81-53.79-32.66C71.58,300.08,45.56,286,25.08,265.46a1.13,1.13,0,0,1,1.6-1.59c20.24,20.34,46.11,34.31,71.13,47.81,18.33,9.9,37.28,20.13,54.08,32.85a1.13,1.13,0,0,1,.21,1.58A1.15,1.15,0,0,1,151.21,346.56Z"/><path class="cls-3" d="M151.68,333.63a1.19,1.19,0,0,1-.6-.17L65.91,281c-12-7.4-24.4-15-35-24.74a1.14,1.14,0,0,1-.07-1.6,1.12,1.12,0,0,1,1.59-.07c10.49,9.56,22.8,17.15,34.71,24.49l85.17,52.5a1.12,1.12,0,0,1,.37,1.55A1.11,1.11,0,0,1,151.68,333.63Z"/><path class="cls-3" d="M153.43,319.05a1.07,1.07,0,0,1-.66-.2C129,302,104.28,286,79.23,271.14l-2.77-1.63c-15.11-8.92-30.74-18.15-42.06-31.8a1.13,1.13,0,0,1,1.74-1.44c11.06,13.35,26.52,22.48,41.46,31.3l2.78,1.64c25.1,14.86,49.9,30.94,73.7,47.8a1.13,1.13,0,0,1,.26,1.57A1.09,1.09,0,0,1,153.43,319.05Z"/><path class="cls-3" d="M154.8,303.68a1.16,1.16,0,0,1-.7-.24,613.41,613.41,0,0,0-75.9-50.72l-2.51-1.42c-14.37-8.09-29.22-16.45-38-30.44a1.12,1.12,0,1,1,1.9-1.2c8.48,13.51,23.08,21.73,37.21,29.68l2.51,1.42a616,616,0,0,1,76.18,50.9,1.12,1.12,0,0,1,.19,1.58A1.13,1.13,0,0,1,154.8,303.68Z"/><path class="cls-3" d="M155,287.21a1.15,1.15,0,0,1-.56-.15c-16.07-9.14-31.08-20.37-45.59-31.22L77.29,232.26c-10.55-7.89-21.46-16-31.42-25.07a1.13,1.13,0,0,1,1.51-1.67c9.88,9,20.75,17.08,31.26,24.94L110.16,254c14.46,10.82,29.41,22,45.36,31.07a1.13,1.13,0,0,1,.42,1.54A1.16,1.16,0,0,1,155,287.21Z"/><path class="cls-3" d="M154.22,269.62a1.12,1.12,0,0,1-.73-.27,730.64,730.64,0,0,0-78.27-58.48L73.89,210c-7.88-5.09-16-10.35-22.16-17.67a1.13,1.13,0,0,1,1.73-1.44c5.91,7,13.91,12.22,21.65,17.22l1.33.86A731.78,731.78,0,0,1,155,267.64a1.12,1.12,0,0,1,.12,1.59A1.1,1.1,0,0,1,154.22,269.62Z"/><path class="cls-3" d="M155.71,251.14a1.12,1.12,0,0,1-.31,0c-14.28-4.11-26.3-14-36.91-22.68L98.48,212c-13.73-11.26-27.93-22.91-38-38.11a1.12,1.12,0,0,1,.32-1.56,1.13,1.13,0,0,1,1.56.32c9.86,14.91,23.93,26.45,37.53,37.61l20,16.41c10.44,8.57,22.27,18.27,36.1,22.26a1.11,1.11,0,0,1,.77,1.39A1.14,1.14,0,0,1,155.71,251.14Z"/><path class="cls-3" d="M156.48,233.51a1.12,1.12,0,0,1-.71-.25l-63.3-51.55c-8.17-6.66-17.44-14.21-23.24-24a1.12,1.12,0,0,1,.39-1.54,1.13,1.13,0,0,1,1.55.39C76.77,166,85.47,173.1,93.9,180l63.29,51.55a1.12,1.12,0,0,1-.71,2Z"/><path class="cls-3" d="M158.17,216.18a1.1,1.1,0,0,1-.64-.2c-33.22-22.41-64.6-45.24-83.46-78a1.13,1.13,0,1,1,2-1.13c18.62,32.36,49.78,55,82.77,77.28a1.12,1.12,0,0,1,.31,1.56A1.13,1.13,0,0,1,158.17,216.18Z"/><path class="cls-3" d="M157.33,196.68a1.12,1.12,0,0,1-.73-.27c-14.29-12.09-28.4-24.79-42-37.07-9.26-8.33-19.76-17.78-26-29.71a1.13,1.13,0,1,1,2-1c6.06,11.57,16,20.48,25.52,29.09,13.63,12.27,27.72,25,42,37a1.13,1.13,0,0,1,.14,1.59A1.15,1.15,0,0,1,157.33,196.68Z"/><path class="cls-3" d="M158.32,182.87a1.25,1.25,0,0,1-.5-.11c-6.18-3-11.19-8.14-15.62-12.66l-21.71-22.16a1.13,1.13,0,0,1,1.61-1.58l21.71,22.17c4.51,4.6,9.17,9.36,15,12.2a1.13,1.13,0,0,1,.52,1.51A1.11,1.11,0,0,1,158.32,182.87Z"/><path class="cls-3" d="M159.67,170.9a1.14,1.14,0,0,1-.68-.23A209.9,209.9,0,0,1,96.76,94.18a1.12,1.12,0,0,1,2-1,207.66,207.66,0,0,0,61.56,75.66,1.13,1.13,0,0,1-.68,2Z"/><path class="cls-3" d="M160.26,151.05a1.14,1.14,0,0,1-.81-.34,235.12,235.12,0,0,1-48.37-72.45,1.12,1.12,0,1,1,2.07-.88,232.82,232.82,0,0,0,47.91,71.75,1.13,1.13,0,0,1-.8,1.92Z"/><path class="cls-3" d="M160.56,123a1.14,1.14,0,0,1-.95-.51,224.67,224.67,0,0,0-17.29-22.77c-1.29-1.49-2.6-3-3.92-4.46-7.6-8.58-15.45-17.45-19.06-28.47a1.13,1.13,0,0,1,2.14-.7c3.46,10.58,11.16,19.27,18.61,27.68,1.32,1.49,2.64,3,3.93,4.47a229.41,229.41,0,0,1,17.47,23,1.13,1.13,0,0,1-.93,1.75Z"/><path class="cls-3" d="M160.78,95a1.14,1.14,0,0,1-1-.62c-3.49-6.83-9-12.5-14.39-18-3-3.09-6.12-6.27-8.88-9.67-1.77-2.16-3.41-4.44-5-6.65a1.13,1.13,0,0,1,1.83-1.32c1.57,2.18,3.2,4.44,4.92,6.55,2.7,3.32,5.78,6.47,8.75,9.51,5.48,5.61,11.14,11.4,14.79,18.53a1.13,1.13,0,0,1-.49,1.52A1.37,1.37,0,0,1,160.78,95Z"/><path class="cls-3" d="M162,57.4a1.13,1.13,0,0,1-.86-.4,70.41,70.41,0,0,1-12.5-21.36,1.12,1.12,0,0,1,2.11-.78,68.4,68.4,0,0,0,12.1,20.68,1.13,1.13,0,0,1-.13,1.59A1.11,1.11,0,0,1,162,57.4Z"/><path class="cls-3" d="M171.75,50.21a1.13,1.13,0,0,1-.47-2.15,70.15,70.15,0,0,0,23.51-17.67,1.13,1.13,0,1,1,1.7,1.48,72.52,72.52,0,0,1-24.27,18.24A1.1,1.1,0,0,1,171.75,50.21Z"/><path class="cls-3" d="M172.51,84.66a1.12,1.12,0,0,1-1-.57,1.14,1.14,0,0,1,.42-1.54c5.68-3.24,11.54-6.59,16.69-10.73,9.29-7.47,16.26-17.43,23-27.06a1.12,1.12,0,1,1,1.84,1.29C206.65,55.81,199.59,65.9,190,73.57c-5.29,4.26-11.23,7.65-17,10.94A1.08,1.08,0,0,1,172.51,84.66Z"/><path class="cls-3" d="M172.47,114.47a1.13,1.13,0,0,1-.75-2,105,105,0,0,1,12.85-9.36c1.55-1,3.1-2,4.62-3a145.61,145.61,0,0,0,37.27-36.66,1.13,1.13,0,0,1,1.85,1.29A147.86,147.86,0,0,1,190.46,102c-1.54,1-3.1,2.06-4.65,3.08a102.31,102.31,0,0,0-12.59,9.15A1.14,1.14,0,0,1,172.47,114.47Z"/><path class="cls-3" d="M171.42,135.27a1.12,1.12,0,0,1-1-.52,1.14,1.14,0,0,1,.35-1.56,265.56,265.56,0,0,0,58.94-50.5c2.43-2.79,4.69-5.57,5.63-8.84a1.12,1.12,0,0,1,2.16.62c-1.06,3.71-3.48,6.71-6.08,9.7A267.89,267.89,0,0,1,172,135.1,1.06,1.06,0,0,1,171.42,135.27Z"/><path class="cls-3" d="M171.39,148.84a1.1,1.1,0,0,1-1-.55,1.11,1.11,0,0,1,.4-1.54c24.15-14.12,51.52-30.12,66.46-56.18a1.13,1.13,0,0,1,2,1.12c-15.24,26.59-44.1,43.45-67.28,57A1.16,1.16,0,0,1,171.39,148.84Z"/><path class="cls-3" d="M172.23,168.56a1.13,1.13,0,0,1-.59-2.09c18.27-11.28,36.45-23.25,54-35.59,11.93-8.37,23.05-16.93,27.89-29.47a1.13,1.13,0,0,1,2.11.81c-5.07,13.12-17,22.26-28.71,30.51-17.62,12.36-35.83,24.36-54.14,35.66A1.15,1.15,0,0,1,172.23,168.56Z"/><path class="cls-3" d="M172.71,188.07a1.14,1.14,0,0,1-1-.54,1.12,1.12,0,0,1,.38-1.55C192,173.9,211.7,161.14,230.84,148a1.13,1.13,0,0,1,1.27,1.86c-19.17,13.13-39,25.92-58.82,38A1.14,1.14,0,0,1,172.71,188.07Z"/><path class="cls-3" d="M174.46,205.94a1.13,1.13,0,0,1-.59-2.1l70-41.85a1.13,1.13,0,0,1,1.55.39,1.12,1.12,0,0,1-.39,1.54l-70,41.86A1.1,1.1,0,0,1,174.46,205.94Z"/><path class="cls-3" d="M172.27,224.72a1.13,1.13,0,0,1-.4-2.18,240.36,240.36,0,0,0,65.21-36.62,1.13,1.13,0,1,1,1.39,1.77,242.37,242.37,0,0,1-65.82,37A1,1,0,0,1,172.27,224.72Z"/><path class="cls-3" d="M173.36,245.07a1.12,1.12,0,0,1-.36-2.19,478.6,478.6,0,0,0,115.83-56.37,1.12,1.12,0,0,1,1.25,1.87A480.87,480.87,0,0,1,173.71,245,1.48,1.48,0,0,1,173.36,245.07Z"/><path class="cls-3" d="M173.1,260.84a1.13,1.13,0,0,1-.21-2.24,140.1,140.1,0,0,0,31.62-9.85,280.15,280.15,0,0,0,25.31-13.45l56.58-32.59a1.13,1.13,0,0,1,1.13,2L231,237.25a281.78,281.78,0,0,1-25.52,13.56,142.26,142.26,0,0,1-32.13,10Z"/><path class="cls-3" d="M175.83,282.71c-.7,0-1.4,0-2.11-.07a1.13,1.13,0,0,1,.16-2.25c9.91.68,19.24-4.37,28.25-9.27l.33-.18a653.64,653.64,0,0,1,81.32-37.15,1.13,1.13,0,1,1,.79,2.11,650.46,650.46,0,0,0-81,37l-.33.18C194.53,277.81,185.58,282.68,175.83,282.71Z"/><path class="cls-3" d="M172.33,296.16a1.13,1.13,0,0,1-1.09-.83A1.11,1.11,0,0,1,172,294c39.7-10.94,84.7-23.33,119-51.08a1.13,1.13,0,1,1,1.42,1.75c-34.68,28-79.92,40.5-119.83,51.5A1,1,0,0,1,172.33,296.16Z"/><path class="cls-3" d="M171.91,314.41a1.11,1.11,0,0,1-1.09-.86,1.12,1.12,0,0,1,.83-1.36,536.44,536.44,0,0,0,122.53-45.87,1.13,1.13,0,0,1,1,2,538.57,538.57,0,0,1-123.05,46.06A1.09,1.09,0,0,1,171.91,314.41Z"/><path class="cls-3" d="M170.63,331.66a1.13,1.13,0,0,1-.32-2.21,775.38,775.38,0,0,0,128.52-50,1.14,1.14,0,0,1,1.51.51,1.12,1.12,0,0,1-.51,1.51,777.19,777.19,0,0,1-128.89,50.13A1.12,1.12,0,0,1,170.63,331.66Z"/><path class="cls-3" d="M172.08,348.5a1.13,1.13,0,0,1-.32-2.21c37.47-11.06,75.11-23.4,111.86-36.68a1.13,1.13,0,0,1,.77,2.12c-36.8,13.29-74.48,25.65-112,36.72A1.77,1.77,0,0,1,172.08,348.5Z"/><path class="cls-3" d="M168.1,359.85a1.12,1.12,0,0,1-.25-2.22l73.24-16.4c8.52-1.91,17.34-3.88,25.44-7.43a138.24,138.24,0,0,0,17.93-10.11l20.89-13.19a1.13,1.13,0,1,1,1.21,1.9l-20.89,13.19a140,140,0,0,1-18.24,10.27c-8.3,3.64-17.22,5.64-25.85,7.57l-73.24,16.39Z"/><path class="cls-3" d="M174,376.41a1.13,1.13,0,0,1-.36-2.2l89.51-29.63c9.87-3.27,21.05-7,29.6-14a1.13,1.13,0,0,1,1.43,1.75c-8.88,7.26-20.27,11-30.32,14.36l-89.51,29.64A1,1,0,0,1,174,376.41Z"/><path class="cls-3" d="M169.4,392.51a1.15,1.15,0,0,1-1.06-.72,1.13,1.13,0,0,1,.64-1.46c36.33-14.16,73.46-27.7,110.36-40.25a1.13,1.13,0,0,1,.73,2.14c-36.88,12.53-74,26.06-110.27,40.21A1.14,1.14,0,0,1,169.4,392.51Z"/><path class="cls-3" d="M169.31,408.12a1.13,1.13,0,0,1-.59-2.09,232.93,232.93,0,0,1,57.73-25.27c5.37-1.52,10.89-2.88,16.23-4.19,13.21-3.25,26.87-6.61,39.14-12.75a1.12,1.12,0,1,1,1,2c-12.5,6.25-26.28,9.64-39.61,12.92-5.32,1.31-10.82,2.67-16.15,4.18a230.66,230.66,0,0,0-57.18,25A1.12,1.12,0,0,1,169.31,408.12Z"/><path class="cls-3" d="M172.26,418.17a1.13,1.13,0,0,1,0-2.26c21-.58,40.8-9.67,59.9-18.47,8.55-3.93,17.39-8,26.28-11.28,4.6-1.71,9.37-3.26,14-4.75,12.84-4.17,26.12-8.48,37-16.52a1.12,1.12,0,0,1,1.57.23,1.13,1.13,0,0,1-.24,1.58c-11.18,8.26-24.63,12.63-37.65,16.85-4.59,1.49-9.34,3-13.9,4.72-8.81,3.25-17.61,7.3-26.11,11.22-19.32,8.89-39.29,18.08-60.79,18.68Z"/><path class="cls-3" d="M170.35,438.78a1.13,1.13,0,0,1-1.13-1,1.14,1.14,0,0,1,1.05-1.21c18.57-1.34,36.31-8.48,53.47-15.39,9.2-3.7,18.71-7.53,28.3-10.46,6.09-1.86,12.44-3.44,18.58-5,17.8-4.43,36.2-9,50-20.86a1.13,1.13,0,0,1,1.47,1.71c-14.24,12.2-32.9,16.85-50.95,21.34-6.12,1.52-12.44,3.09-18.47,4.93-9.5,2.9-19,6.71-28.11,10.4-17.33,7-35.24,14.19-54.16,15.55Z"/><path class="cls-3" d="M170,451.41a1.13,1.13,0,0,1-.29-2.22l40.74-10.87c36.42-9.72,74.07-19.77,106.53-40.31a1.12,1.12,0,1,1,1.2,1.9C285.39,420.64,247.56,430.73,211,440.5l-40.74,10.87A1,1,0,0,1,170,451.41Z"/><path class="cls-3" d="M169.06,463.78a1.13,1.13,0,0,1-.27-2.22,1122.3,1122.3,0,0,0,156.14-49.81,1.12,1.12,0,0,1,1.46.62,1.14,1.14,0,0,1-.62,1.47,1125.42,1125.42,0,0,1-156.45,49.91A1.15,1.15,0,0,1,169.06,463.78Z"/><path class="cls-3" d="M171.78,473a1.12,1.12,0,0,1-1.13-1,1.13,1.13,0,0,1,1-1.21c8.65-.65,17.18-3.09,25.43-5.45l60.7-17.37c19.18-5.49,39-11.16,56.53-21.32a1.12,1.12,0,1,1,1.13,1.94c-17.77,10.31-37.73,16-57,21.54l-60.7,17.37c-8.36,2.39-17,4.86-25.88,5.54Z"/><path class="cls-3" d="M170,486.67a1.13,1.13,0,0,1-1.11-.95,1.12,1.12,0,0,1,.93-1.29,959.15,959.15,0,0,0,145.87-35.17,1.13,1.13,0,1,1,.7,2.14,960.33,960.33,0,0,1-146.21,35.25Z"/><path class="cls-3" d="M168.6,497.3a1.13,1.13,0,0,1-.24-2.23L283,470.49c9.57-2.05,19.47-4.18,28.4-8.47a1.12,1.12,0,1,1,1,2c-9.17,4.41-19.2,6.56-28.9,8.64L168.83,497.27Z"/><path class="cls-3" d="M168.05,509.09a1.13,1.13,0,0,1-.23-2.23l141.41-29.14c2.29-.47,6.15-1.65,6.26-4.25a1.12,1.12,0,0,1,1.17-1.08,1.14,1.14,0,0,1,1.08,1.18c-.09,2.16-1.56,5-8.05,6.36L168.28,509.07Z"/><path class="cls-3" d="M170.65,519.35a1.13,1.13,0,0,1-.23-2.23l33.2-7c10.88-2.29,22.13-4.66,33.34-6.34,6.42-1,13-1.74,19.4-2.49,20.24-2.36,41.17-4.81,59.54-13.78a1.13,1.13,0,1,1,1,2c-18.71,9.14-39.84,11.6-60.27,14-6.36.75-12.94,1.51-19.32,2.47-11.15,1.68-22.36,4-33.21,6.33l-33.21,7A.91.91,0,0,1,170.65,519.35Z"/><path class="cls-3" d="M168.65,530.89a1.12,1.12,0,0,1-1.1-.86,1.14,1.14,0,0,1,.84-1.36,857.25,857.25,0,0,1,99.21-17.32l1.85-.21c14.81-1.68,30.13-3.42,42.6-11.27a1.12,1.12,0,0,1,1.55.35,1.14,1.14,0,0,1-.35,1.56c-12.91,8.12-28.48,9.89-43.54,11.6l-1.85.21a854.51,854.51,0,0,0-99,17.27A.77.77,0,0,1,168.65,530.89Z"/><path class="cls-3" d="M167.86,539.69a1.13,1.13,0,0,1-.07-2.25,728.67,728.67,0,0,0,123-18.11c4.61-1.09,7-2.73,7.35-5a1.13,1.13,0,0,1,2.23.32c-.73,4.91-7,6.39-9.06,6.88a731,731,0,0,1-123.38,18.17Z"/><path class="cls-3" d="M166.73,552.36a1.13,1.13,0,0,1-.2-2.24c43.27-7.72,87.28-14.67,130.82-20.65a1.13,1.13,0,0,1,.31,2.23c-43.51,6-87.49,12.92-130.73,20.64Z"/><path class="cls-3" d="M167.43,563.51a1.12,1.12,0,0,1-.09-2.24l43.6-3.44c27.27-2.15,55.48-4.37,81.65-13.87a1.12,1.12,0,1,1,.77,2.11c-26.46,9.61-54.82,11.85-82.25,14l-43.6,3.43Z"/><path class="cls-3" d="M167.41,577.67a1.13,1.13,0,0,1-.11-2.25c39.84-3.93,80.07-9.17,119.58-15.56a1.12,1.12,0,1,1,.36,2.22c-39.55,6.4-79.84,11.65-119.72,15.58Z"/><path class="cls-3" d="M168.15,589.18a1.13,1.13,0,0,1,0-2.26l64.4-.87h0a1.13,1.13,0,0,1,0,2.26l-64.4.87Z"/><path class="cls-3" d="M225.22,601.2c-3.43,0-6.86-.28-10.13-.55l-.31,0a425.35,425.35,0,0,0-47.9-1.25,1.17,1.17,0,0,1-1.16-1.1,1.13,1.13,0,0,1,1.09-1.16A429.81,429.81,0,0,1,215,598.38l.31,0c8.63.72,17.54,1.46,24.62-2.82a1.12,1.12,0,1,1,1.17,1.92C236.3,600.39,230.77,601.18,225.22,601.2Z"/><path class="cls-3" d="M236.14,612.34H236c-22.46-2-45.67-4-68.56-2.94a1.13,1.13,0,1,1-.11-2.25c23-1.08,46.34,1,68.86,3a1.12,1.12,0,0,1-.09,2.24Z"/><path class="cls-3" d="M204.88,627c-5.9,0-11.76-1.14-17.45-2.26-6.91-1.37-14.05-2.79-21-2a1.11,1.11,0,0,1-1.25-1,1.13,1.13,0,0,1,1-1.25c7.32-.83,14.63.61,21.71,2,6.27,1.25,12.75,2.54,19.12,2.17a76.76,76.76,0,0,0,9.4-1.33c4.91-.89,10-1.82,15.07-1.2a1.12,1.12,0,0,1-.27,2.23c-4.75-.56-9.43.29-14.39,1.19a79.68,79.68,0,0,1-9.68,1.36C206.37,627,205.62,627,204.88,627Z"/><path class="cls-4" d="M152.08,739.29c-6.4-146.47-.91-293.17,4.59-439.69l9.51-253.7c.55-14.84,1.62-31,11.52-42-8.85,36.72-9,74.9-9.13,112.67q-.4,125.61-.79,251.23c-.21,66.39-3.35,124-6.2,199-.71,18.62,4.52,123.73,8.51,157.71.95,8.09,10.26,48.51,4.24,47.78-9-1.1-19-4.42-21.44-12.33C150.85,753.4,152.22,742.4,152.08,739.29Z"/><path class="cls-2" d="M174.49,772.82h-.23c-7-.85-19.06-3.63-21.91-12.72-1.54-4.93-1.18-12.22-.94-17,.08-1.65.14-2.95.11-3.73h0c-6.4-146.58-.82-295.61,4.58-439.74l9.51-253.71c.61-16.15,2-31.55,11.67-42.4l1.49-1.66L178.25,4c-8.88,36.85-9,75.33-9.12,112.54l-.79,251.23c-.16,51-2,96.54-4.2,149.29-.66,15.9-1.34,32.34-2,49.74-.73,19.19,4.63,124.53,8.51,157.62.22,1.88.89,5.49,1.74,10.05,3.38,18.21,6.18,34.8,3.35,37.81A1.66,1.66,0,0,1,174.49,772.82ZM176.61,6.05c-8.1,10.45-9.31,24.82-9.87,39.87l-9.51,253.71c-5.4,144.1-11,293.1-4.59,439.64h0c0,.83,0,2.16-.11,3.84-.23,4.74-.59,11.9.9,16.65,2.65,8.48,14.28,11.11,21,11.93a.54.54,0,0,0,.52-.2c2.67-2.85-1.43-25-3.64-36.83-.85-4.59-1.52-8.21-1.75-10.13C165.65,691.41,160.28,586,161,566.74c.67-17.41,1.34-33.85,2-49.75,2.17-52.73,4.05-98.27,4.21-149.24L168,116.51C168.12,80,168.24,42.31,176.61,6.05Z"/></g></g></g></svg>