<svg xmlns="http://www.w3.org/2000/svg" viewBox="0 0 161.46 382.94"><defs><style>.cls-1{fill:#a6c18d;stroke:#000;stroke-miterlimit:10;stroke-width:2px;}.cls-2{fill:#e1ebd5;}.cls-3{fill:#c6d1b4;}.cls-4{fill:#d2d9bf;}.cls-5{fill:#c0dbab;}.cls-6{fill:#cce0b0;}.cls-7{fill:#d7eeba;}.cls-8{fill:#d9ebc0;}.cls-9{fill:#cedeb7;}.cls-10{fill:#c8deac;}.cls-11{fill:#c3d5ac;}.cls-12{fill:#c1d5b0;}.cls-13{fill:#b7c7a0;}.cls-14{fill:#d6e1c4;}</style></defs><g id="Layer_2" data-name="Layer 2"><g id="plants"><g id="chinese-evergreen2"><path class="cls-1" d="M14,310.82c-4-10-6.47-20.54-8.66-31.1C2.92,267.79.75,255.69,1,243.5s3-24.28,5.7-36.23c6.7-29.51,13.47-59.27,26-86.82,6.79-14.92,15.21-29,23.61-43.12,8-13.49,16.16-27.07,26.66-38.76,10.71-11.93,24.15-22.29,29.81-37.29,8.53,3.07,12.05,13,14.5,21.72l17.52,62.3c4.06,14.43,8.12,28.89,10.76,43.64,3.24,18.13,4.3,36.59,4.7,55,.68,31.2-.59,62.84-9.42,92.78S125,335,99.25,352.63c-4.46,3.05-9.27,5.87-12.48,10.23-5.14,7-4.89,22.47-14.65,18.42-8-3.31-16.91-15.08-23-21.15C34.76,345.83,21.69,329.78,14,310.82Z"/><path class="cls-2" d="M98.73,329.52c6.23-4.27,9-12.12,9.86-19.63.46-4.05.35-8.51-2.16-11.73s-8.2-4-10.47-.65c-3.26-6.28,3.94-12.54,9.37-17.09,9.78-8.2,16.11-19.7,22.21-30.91,1.33-2.44,2.7-5.06,2.51-7.83s-2.65-5.58-5.38-5a11,11,0,0,1-2.54.62c-2.22-.07-3-3.1-2.42-5.24s1.82-4.32,1.19-6.45a17.42,17.42,0,0,0-17.5-1.17c-1.6-8.91,7.88-15.25,14.41-21.52,12.29-11.78,16.3-29.53,19.74-46.19-4.2-1.55-8.81,1.78-13.22,1-6.31-1.15-8.06-9.9-5.5-15.78s7.71-10.3,10.57-16c2.11-4.25,2.88-9,3.62-13.71,1.7-10.73,3.35-22-.41-32.22-4.05-11-14-19.42-16-30.92-1.06-6,.16-12.07.26-18.12s-1.29-12.73-6.1-16.41l-5.39,25.39c-1.44,6.8-5.18,15.38-12.09,14.54L97.7,72c-5.74-5.63-16.73-4-20.65,3-2.36,4.21-2.29,9.51-4.93,13.55-1.42,2.18-3.54,3.84-5,6-7.09,10.93,6.68,26.66.08,37.89a26.78,26.78,0,0,1-9.6-9.08c-5.17,4.21-2.42,12.49.86,18.29S65,155.34,60.25,160l-17.87-3.91a167.2,167.2,0,0,1,7.75,57.1l-15.26-25c-5.58,7.09-1.67,17.31,1.75,25.65a167.93,167.93,0,0,1,11.85,48.22c-7.28-.31-4.81-15.16-12-16.51a96.64,96.64,0,0,0,15.62,41.35L29.85,260.36c-5.09,10.25,1,22.26,6.65,32.19S47.65,315,41.64,324.74L28,308.63c-2.86,8.43,2.47,17.39,8.47,24s13.24,12.81,15.35,21.46c.52,2.17.74,4.53,2.09,6.31s3.42,2.58,5,4c2.63,2.36,3.61,6,5.33,9.08s5.11,6,8.47,4.87c3-1,4.18-4.37,5.42-7.23,3.12-7.17,17.33-15,17.75-22.11.27-4.64-5.32-6.15-5.46-10.43C90.26,333.86,95.44,331.77,98.73,329.52Z"/><path class="cls-3" d="M92.33,186.64c-6.49,7.46-7.87,17.94-8.91,27.77q-7.58,70.85-11.47,142c-.16,3,1.91,7.36,4.35,5.64a4,4,0,0,0,1.23-2c4.4-12.3,3.75-24.41,4.46-37.18.82-14.84,2.44-29.67,3.61-44.48q1.82-23.17,3.51-46.34.87-11.81,1.7-23.62C91.1,204.35,89.76,189.59,92.33,186.64Z"/><path class="cls-4" d="M111.26,99.81a22.52,22.52,0,0,1-2,7.21,7.55,7.55,0,0,1-5.86,4.19c-.65-12.41,1.64-24.76,3.92-37C108.45,68,112.56,57,115.51,68,117.92,76.92,112.71,90.86,111.26,99.81Z"/><path class="cls-5" d="M30.49,259.15c2.08,5,4.36,10.2,4.37,15.66-5.33.26-9-5.1-11.35-9.91C14,245.12,7,218.28,14.14,196.77c5.9,2.1,4.4,22,5.55,27.86A185,185,0,0,0,30.49,259.15Z"/><path class="cls-6" d="M11.63,265.32c-1.42-7.41-1.57-15.28-5.1-21.95-2.95,5.43-2.21,12-1.12,18.12,3.16,17.58,8.67,34.83,17.28,50.48,3.65,6.65,8.77,13.61,16.28,14.69,7.21,1,7.77-6.21,4.51-10.61-3.07-4.15-9.11-7.16-12.61-11.83C22.15,292.58,14.41,279.79,11.63,265.32Z"/><path class="cls-7" d="M41.13,121.46c-18.3,31-19.5,71.36-3.08,103.36,7.21,14.06,14.38,1.57,13.62-8.46-.62-8.09-5.43-14.21-8.42-21.51C34,172.26,34.42,144.63,41.13,121.46Z"/><path class="cls-8" d="M50.76,116.14c.9-2.5,3-5.37,5.51-4.6,1.5.45,2.33,2,3,3.45,3,6.81,17.94,38.45,1.13,37.82C46.48,152.29,47.68,124.76,50.76,116.14Z"/><path class="cls-9" d="M59.42,102.53c-2.4-5.27-2.91-12.09,1-16.35A6,6,0,0,1,65.11,84c2.86.25,4.6,3.2,5.61,5.89,1.67,4.43,6.25,18.78,2,22.71C66.74,118,61.32,106.7,59.42,102.53Z"/><path class="cls-10" d="M135.74,145.88A71.12,71.12,0,0,0,140.23,132c2-9.75,1.09-19.83.21-29.75,6.66,9.22,6.75,21.57,5.43,32.86-1.49,12.83-5,26.47-15,34.68-2.36,1.93-4.85,3.22-7.85,2.66C122.42,163.94,132.42,153.64,135.74,145.88Z"/><path class="cls-11" d="M151,196.32q1.53-10.32,3-20.66c.65-4.64,1.08-10-2.15-13.4-3,.76-4.18,4.32-4.77,7.36a163.12,163.12,0,0,0-2.75,21.92A60.48,60.48,0,0,1,143,202.88c-2.63,10.34-10.75,19.62-16.52,28.38-3.87,5.89-7.54,10.32,1.56,9.9C145.69,240.35,149,208.76,151,196.32Z"/><path class="cls-12" d="M125,293.54c15.47-19.2,26.9-42.67,27.16-67.33-11,23.43-23,47.14-42.11,64.63-4.16,3.81-24.67,21.69-11.76,26.07C106.79,319.81,120.64,298.9,125,293.54Z"/><path class="cls-13" d="M117.75,324.75a69.2,69.2,0,0,0,7.84-8.49,35,35,0,0,0,6.73-19.21l-21.93,22.22a93,93,0,0,1-7.87,7.38c-3.21,2.57-6.74,4.7-9.85,7.38-3.9,3.35-15.29,17.71-2.21,15.85C98.74,348.7,111.75,330.57,117.75,324.75Z"/><path class="cls-14" d="M128.18,205.53a4.89,4.89,0,0,0-5.43.36,14.3,14.3,0,0,0-3.66,4.42L106.24,231c-.43.7-.86,1.64-.33,2.28a2,2,0,0,0,1.3.54c8.67,1.35,9.56,1,14.19-6.75C123.1,224.23,132.26,208.41,128.18,205.53Z"/></g></g></g></svg>