<svg xmlns="http://www.w3.org/2000/svg" viewBox="0 0 266.38 557.63"><defs><style>.cls-1{fill:#859c8e;stroke:#000;stroke-miterlimit:10;stroke-width:2px;}.cls-2{fill:#e7b3ad;}</style></defs><g id="Layer_2" data-name="Layer 2"><g id="plants"><g id="chinese-evergreen6"><path class="cls-1" d="M79.63,529.53a149.73,149.73,0,0,1-30.19-23.88c-12.59-13.26-21.88-29.39-28.94-46.26C-5.81,396.51-1.47,325.16,10.08,258c2.83-16.48,6.08-33,11.57-48.74,4.87-14,11.46-27.37,17.27-41C57.44,124.71,68,78.3,82.86,33.42,86.64,22,91,10.24,99.62,1.88c7.87,28,28.74,50.12,46.47,73.21,35.73,46.53,60.37,100.43,84.7,153.81,8.79,19.3,17.64,38.77,22.36,59.44,2.16,9.48,3.43,19.13,4.7,28.76,7.61,57.75,14.86,118.59-7.16,172.52a75.39,75.39,0,0,1-7.76,14.94,91.57,91.57,0,0,1-10.46,11.82c-20.5,20.49-43.21,36.27-72.66,39.83C132.86,559.47,101.84,543.25,79.63,529.53Z"/><path class="cls-2" d="M148.62,551.93C138.33,463.57,129.81,375,121.07,286.56L94.92,21.09l2-.21,27.83,265.3C134,374.62,143.13,463.07,154,551.29Z"/><path class="cls-2" d="M128.49,364.87c-15.17-16.74-30.38-33.65-43.2-52.44a190.19,190.19,0,0,1-16.81-29.64,134.75,134.75,0,0,1-9.94-32.6c-.94-5.61-1.58-11.26-2.09-16.9l-.7-8.47c-.17-2.82-.39-5.65-.52-8.47-.58-11.32-.71-22.65-.31-34a313.81,313.81,0,0,1,9.45-67.16l1,.25a312.39,312.39,0,0,0-8.92,67c-.32,11.27-.11,22.56.55,33.82.15,2.81.39,5.62.59,8.44l.75,8.42c.55,5.61,1.22,11.21,2.2,16.74a132.21,132.21,0,0,0,10,32A187,187,0,0,0,87.34,311c12.83,18.51,28.07,35.22,43.35,51.84Z"/><path class="cls-2" d="M143.31,502.47A492.39,492.39,0,0,0,190,434.25c6.83-12,13.1-24.31,18.9-36.83a120.4,120.4,0,0,0,7-19.3c1.76-6.63,3-13.41,4.22-20.22.29-1.7.63-3.43.85-5.07s.38-3.39.52-5.11c.28-3.43.49-6.87.68-10.32.37-6.91.64-13.82.93-20.73.68-13.83,1-27.64.33-41.44-.39-6.88-.91-13.77-1.82-20.61s-2-13.65-3.59-20.38c-.34-1.69-.75-3.37-1.18-5s-.81-3.35-1.27-5c-.94-3.32-1.82-6.66-2.9-9.94-2-6.61-4.39-13.1-6.82-19.57l.93-.37c2.49,6.47,4.94,13,7,19.58,1.11,3.29,2,6.64,3,10,.47,1.67.87,3.36,1.32,5s.86,3.36,1.22,5.06c1.62,6.75,2.78,13.61,3.78,20.48s1.56,13.8,2,20.73c.76,13.86.58,27.76,0,41.59-.23,6.92-.45,13.84-.76,20.77-.16,3.46-.34,6.92-.6,10.39-.12,1.74-.28,3.48-.48,5.23s-.55,3.46-.83,5.18c-1.16,6.82-2.35,13.68-4.1,20.45a121.42,121.42,0,0,1-6.93,19.78c-5.73,12.66-11.93,25.09-18.7,37.21a496.09,496.09,0,0,1-46.46,69.08Z"/><path class="cls-2" d="M155.64,539.35c4.25-3.63,8.55-7.2,12.85-10.78l12.94-10.66,26-21.07A67,67,0,0,0,218.94,485a98,98,0,0,0,8.35-14.29q7.38-15,14-30.42l.93.37q-5.94,15.71-13.09,30.93a89.58,89.58,0,0,1-8.34,14.75A69.49,69.49,0,0,1,209,498.66c-4.3,3.65-8.7,7.06-13.07,10.55l-13.14,10.42-13.22,10.31c-4.43,3.41-8.86,6.83-13.33,10.19Z"/><path class="cls-2" d="M134.56,535.55q-10-5.24-19.8-10.8c-6.52-3.76-13-7.66-19.25-11.86q-4.7-3.15-9.23-6.58c-1.51-1.13-3-2.33-4.46-3.5l-2.22-1.76-2.16-1.84A181,181,0,0,1,61,483.59a201.69,201.69,0,0,1-27-36.31,190.74,190.74,0,0,1-18.09-41.39l1-.31c2.58,7,5.37,14,8.59,20.73S32.16,439.66,36.07,446c.94,1.62,2,3.15,3,4.73l1.52,2.36c.51.77,1.06,1.53,1.59,2.3,1.06,1.53,2.1,3.08,3.18,4.6l3.33,4.49c1.09,1.52,2.3,2.94,3.45,4.41s2.31,2.93,3.56,4.32l3.65,4.23,3.81,4.09A213.53,213.53,0,0,0,97,510.69c6.09,4.32,12.4,8.37,18.78,12.29s12.83,7.78,19.25,11.7Z"/><path class="cls-2" d="M143.15,504.53a274.33,274.33,0,0,0-25-28.54c-8.9-9.07-18.13-17.84-27.21-26.8s-18-18.09-26.31-27.88S48.82,401.05,43,389.57s-9.65-23.83-12.65-36.24A293,293,0,0,1,25.91,239.2l1,.16a291.66,291.66,0,0,0,5.4,113.49c3.08,12.3,6.94,24.46,12.79,35.65S58.44,410,66.68,419.57,83.91,438.19,93.05,447s18.44,17.56,27.47,26.6a278.11,278.11,0,0,1,25.56,28.71Z"/><path class="cls-2" d="M130.07,364.87c5.94-11.2,11.29-22.77,16.34-34.46s9.76-23.52,14.08-35.49c2.13-6,4.16-12,5.85-18.11l.63-2.29.53-2.29c.4-1.53.59-3.07.86-4.61s.38-3.12.53-4.69.26-3.16.36-4.74c.4-6.33.52-12.7.55-19.06s-.05-12.74-.24-19.1-.47-12.73-.92-19.08c-.21-3.17-.5-6.34-.88-9.47s-.86-6.31-1.34-9.46c-1.89-12.6-4.13-25.15-7.1-37.53A277.11,277.11,0,0,0,148,108.07a201.73,201.73,0,0,0-17.31-34l.84-.55a202.57,202.57,0,0,1,17.66,34,278.56,278.56,0,0,1,11.66,36.53c3.08,12.42,5.43,25,7.41,37.62.51,3.16.95,6.32,1.42,9.48s.72,6.39,1,9.58c.49,6.39.82,12.77,1.06,19.16s.37,12.78.39,19.17-.05,12.79-.41,19.2c-.09,1.61-.22,3.21-.33,4.81s-.33,3.21-.51,4.82-.46,3.24-.86,4.81l-.53,2.37-.62,2.33c-1.68,6.22-3.68,12.3-5.78,18.35q-6.37,18.1-13.89,35.77c-5,11.77-10.26,23.43-16.2,34.82Z"/><path class="cls-2" d="M134.16,192.63c0-1.94.14-3.83.24-5.71l.26-5.61.19-5.62c.05-1.88.08-3.77.22-5.71a25.5,25.5,0,0,1,1.34,5.63,34.47,34.47,0,0,1-.47,11.52A25.6,25.6,0,0,1,134.16,192.63Z"/><path class="cls-2" d="M135.09,151.61c-.4-1.92-.65-3.82-.88-5.72s-.41-3.8-.56-5.69-.28-3.8-.37-5.71-.15-3.83-.06-5.79a32.66,32.66,0,0,1,1.61,5.59,49.27,49.27,0,0,1,.94,11.54A32.44,32.44,0,0,1,135.09,151.61Z"/></g></g></g></svg>