<svg xmlns="http://www.w3.org/2000/svg" viewBox="0 0 235.03 524.94"><defs><style>.cls-1{fill:#9ead87;stroke:#000;stroke-miterlimit:10;stroke-width:2px;}.cls-2{fill:#f3ddd9;}.cls-3{fill:#f0e2dd;}.cls-4{fill:#8f9883;}.cls-5{fill:#aab68f;}.cls-6{fill:#e4b2af;}.cls-7{fill:#f5e0d4;}.cls-8{fill:#f5e1e2;}</style></defs><g id="Layer_2" data-name="Layer 2"><g id="plants"><g id="chinese-evergreen3"><path class="cls-1" d="M49.69,421c-28.62-34-44.41-77.89-47.9-122.23S6.66,209.62,22.28,168c4.67-12.45,10-24.73,17.56-35.68,8.8-12.77,20.34-23.38,31.86-33.77,35-31.56,68-55.37,107.31-95.91-1.23,22.11,20.89,99.52,34.4,133.92,6.28,16,7.92,23.93,12.29,40.54C238.5,225.75,236,284.67,221.88,333S182.74,426,152.32,466c-6.08,8-22,20.57-24.91,29.25-1.23,3.68,6,20.61,2.46,28.26-1.39-.45-7.23,1.09-8.6,0-4.14-3.28-1-23.06-4.92-29.49-6-9.92-17.21-17.81-22.11-23.34C80.11,454.78,63.42,437.29,49.69,421Z"/><path class="cls-2" d="M117.31,493.83c1,5.68,2,11,2.11,16.81,0,3.56.54,6.84,2.46,9.83s3.91,4,6.14,1.23c3.49-10-2.53-17.67-2.45-28.26,0-1.1,1.33-3.93,1.69-5a12.55,12.55,0,0,1,2.75-4l15.7-17.65c4-4.5,8.18-9.32,9.31-15.25a73.16,73.16,0,0,0-19.13,19.22c-2.48,3.67-5.3,8-9.72,8.36L161,425.59c6.21-9.53,12.52-19.3,15.16-30.36a283.36,283.36,0,0,0-33.47,43.56,3,3,0,0,0-.77-3.82l-12.28,9.78a70.53,70.53,0,0,1,14.17-23.21c2-2.19,4.22-4.35,5.17-7.16,1.33-3.93.08-8.77,2.73-11.95,1.12-1.36,2.79-2.15,4.06-3.36s2.12-3.28,1.09-4.72A155.39,155.39,0,0,0,127,429.67c-1.82-5.32,4.62-9.55,6.91-14.68,1.58-3.54,1.12-7.65,2.13-11.4,1.21-4.43,4.37-8,7.25-11.58,5.25-6.48,9.86-13.44,14.47-20.39,6.31-9.52,12.63-19,18.74-28.7q15.28-24.12,28.84-49.29L193,306.76a36.43,36.43,0,0,0-4.84,5.91,55.82,55.82,0,0,0-3.34,7.59c-2.62,6.29-6.54,11.94-10.42,17.54l-10.63,15.31c-4.29,6.18-8.61,12.4-13.82,17.84-3.63,3.79-7.68,7.18-11.16,11.12a52.75,52.75,0,0,0-11.29,20.83,36.14,36.14,0,0,1,3.68-22.21c-3.92-1-5.95-5.56-5.94-9.62,0-6.24,3.46-11.91,6.91-17.11a387,387,0,0,1,35.64-45.84c4.09-4.52,8.61-9.9,7.64-15.93a338.28,338.28,0,0,0-39.23,46c-3.08,4.34-6.73,9.17-12,9.69,3.6-7.29,11-12.62,12.75-20.56.69-3.08.39-6.29.81-9.41,1.95-14.66,18.52-24,20.55-38.68.32-2.36.25-4.79.84-7.1a24.56,24.56,0,0,1,4.08-7.69c5.72-8.23,11.66-16.33,16.9-24.88a321.43,321.43,0,0,0,15.8-30.1c4.81-10.13,9.58-20.68,9.92-31.89a272.83,272.83,0,0,1-50.3,88.08c-5.8,6.8-12.17,13.48-20.35,17.08a54.36,54.36,0,0,0,5.6-15.26,14.68,14.68,0,0,0-9.52,5c-2.47-5.57,5.09-12.1,2.33-17.54-.78-1.51-2.27-2.62-2.81-4.23-.82-2.44.8-5,2.35-7q14.11-18.75,30-36.06c4.45-4.84,9.14-9.82,11.15-16.09,1.39-4.36,1.39-9.09,3-13.38,2.64-7.22,9.64-13.45,8.32-21-4.42,4.18-6.74,10-9.26,15.59a161.5,161.5,0,0,1-38.49,52.83c1.64-3.82,3.06-8.85,0-11.66a9.76,9.76,0,0,1-1.94-1.79c-1.36-2.23,1.29-4.68,2.26-7.11,1.46-3.66-1.08-7.8-.38-11.67.47-2.57,2.28-4.64,4-6.61a178.64,178.64,0,0,0,42-98.49c1-10.44.94-21.57-4.31-30.66C185.56,100,170.94,145,141,175.68c1.69-37.58,19.51-73.32,19.2-110.93-.14-16.2,9.26-30.73,14.65-46,3.34,15.37,5.43,32.36,13.4,45.91-4.91-19.59-9.31-37.53-11.05-57.74-1.69,1.21-3.46,3.44-4.92,4.91-4.4,4.45-5.44,6.74-7.11,12.77Q152.27,71,139.41,117.41a69,69,0,0,1,.44-58.95c-7.78,12.38-8.94,27.75-8.37,42.36s2.63,29.31.44,43.76c-.54,3.51-1.32,7-2.1,10.44l-2.33,10.4-3.83,17c-2.21,1-4.3-1.53-5.39-3.67a130.75,130.75,0,0,1-9.71-92.59,117.17,117.17,0,0,0,5.22,95.42c3,5.71,6.51,11.36,7.45,17.74a6.6,6.6,0,0,1-5.53-2.51,37.41,37.41,0,0,0,4.17,22.86,21.51,21.51,0,0,1-9.16-2.06,33.85,33.85,0,0,1,3.62,24.79c-.68,2.78-1.72,5.57-1.47,8.42.38,4.28,3.45,9.17.55,12.34-7.37-7.7-6-21.62-14.69-27.86-2.59-1.87-6.17-3.23-6.81-6.36-.8-3.93,3.38-9.16,0-11.28a14.9,14.9,0,0,1-2.11-1.07,4,4,0,0,1-1-2q-3.15-10.67-6.32-21.33C80,185.13,77.6,176.9,77,168.43c-.55-7.73.44-15.48,1.42-23.16l2.8-21.77H77.78c-9,14.17-6.44,32.56-2.88,49a616.64,616.64,0,0,0,17.28,63.05,31.79,31.79,0,0,0,3.39,7.76c1.12,1.66,2.53,3.11,3.72,4.73,3.95,5.38,5.15,12.23,6.23,18.82l-4.11,1.68c-.44,4.62,3.29,8.81,5.62,12.83s3.62,9.76.14,12.85l-3.88-2.64c-3.06.59-1.41,5.29.77,7.51,2.48,2.54,4.93,5.29,6,8.66s.49,7.55-2.31,9.73q-9.13-12.6-18.26-25.19L80.2,279.42l-4.14-5.72-8-11C66.4,260.37,64.7,258,64,255.25c-.91-3.6,0-7.41-.35-11.11-.55-6-4.28-11.16-7.14-16.48a76,76,0,0,1-7.39-21.29,116.65,116.65,0,0,1-.61-39.67A142.32,142.32,0,0,1,79,97.64C67.27,105.14,58.9,117.11,53.67,130s-7.57,26.76-9.25,40.57c-1.05,8.55-1.86,17.19-1,25.76,1,10.16,4.18,19.95,7.38,29.65l11.93,36.17c2.14,6.49,4.31,13.05,7.86,18.9,2,3.36,4.53,6.44,6.83,9.65a105.52,105.52,0,0,1,15.1,30.51c1.13,3.7,2,7.45,3,11.21L98,342.74c.75,3,1.5,6.17.87,9.23s-3,6-6.16,6.09A179.74,179.74,0,0,1,64.8,315c-2.36-5.13-5.73-11.24-11.38-11.17a148.48,148.48,0,0,0,13.79,25.82c7,10.52,15.71,20.87,17,33.45.2,1.91.29,4,1.61,5.41s3.1,1.57,4.78,2.11c8.6,2.81,12.2,12.77,14.66,21.48-5.45,2.7-11.21-2.85-14.77-7.77l-12.07-16.7c-1.72.12-2.74,2.17-2.48,3.88s1.36,3.14,2.29,4.59a27.18,27.18,0,0,1,4.27,15.78L71.9,377C63.45,365.05,55,353.12,47.65,340.48a224.06,224.06,0,0,1-22.77-54.67,211.82,211.82,0,0,1-7-50.15c-2.1-.13-3.71,2.09-3.82,4.19s.82,4.1,1.52,6.08c4.68,13.21.06,28.19,3.93,41.65,1.64,5.71,4.73,10.88,7.05,16.35,4.42,10.4,6,21.94,11.52,31.82,5.32,9.63,14.16,17.45,17,28.07,1.7,6.28,1.1,12.94,1.85,19.4s3.38,13.38,9.18,16.32a27.19,27.19,0,0,0-1.91-13.69c4,1.2,6,5.67,6.59,9.8S71,404.08,72.36,408c1.74,4.89,5.84,11,1.8,14.28-21.08-17.88-34.92-42.41-47.63-67-7.1-13.71-14.3-27.71-16.72-43-1.14-7.16-1.29-14.77-5-21,.75,9.16,1.5,18.36,3.62,27.31,3.16,13.28,9.26,25.65,15.31,37.89l17.46,35.28c2.17,4.39,4.38,8.85,7.69,12.46,2.15,2.34,4.71,4.27,6.84,6.62a56.06,56.06,0,0,1,5.4,7.62,216.35,216.35,0,0,0,29,36.13A155.84,155.84,0,0,1,65.9,432.84c-10.82-12-19.68-25.63-28.5-39.19l-6.22-9.55c-.57,2.42.45,4.95,1.71,7.1,13,22.14,30.66,44.83,51.88,66.38,3.8,3.87,8.31,7.06,11.6,11.37,1.59,2.1,2.95,4.37,4.64,6.39C106.14,481.5,115.88,486,117.31,493.83Z"/><path class="cls-3" d="M217,249.1c-.93,3.28-2.09,6.54-2.3,9.94-.13,2.13.11,4.3-.38,6.38-1,4.12-4.72,8.12-2.94,12a14.86,14.86,0,0,0,5.44-8.44c.82-3.56.3-7.29.79-10.9a49.58,49.58,0,0,1,1.36-5.88c1-3.77,7.23-27.81,3.53-29.72-2.19-1.13-2.31,9.75-2.54,11.55A102.16,102.16,0,0,1,217,249.1Z"/><path class="cls-4" d="M98,401.32a9.65,9.65,0,0,0,6.73,11.32c1.6-1.73,1.65-4.46.74-6.63a18.62,18.62,0,0,0-4.23-5.58c-.79-.8-1.8-1.67-2.88-1.4a8.38,8.38,0,0,0-.48,4.06"/><path class="cls-5" d="M91.89,443.71a34.13,34.13,0,0,0,3.13,6,3.92,3.92,0,0,0,1.28,1.37c1.39.76,3.22-.4,3.67-1.92a6.42,6.42,0,0,0-.8-4.56,6.77,6.77,0,0,0-2.64-3.13,2.92,2.92,0,0,0-3.73.67,4.42,4.42,0,0,0-.22,3.31"/><path class="cls-6" d="M117.64,469.39a798.58,798.58,0,0,1-1.11-163.15c1-10.09,2.13-20.2,2-30.33-.11-6.5-.75-13.05.39-19.45a98.35,98.35,0,0,1,3.17-11.37,120.08,120.08,0,0,0,4.64-46,111.28,111.28,0,0,1-.92-12.48,38.06,38.06,0,0,1,4.46-17.16c9.66-18.1,8.8-39.74,13.35-59.74,1.62-7.12,3.32-14.34,6.84-20.74a196.81,196.81,0,0,1-5.85,27.49,12.84,12.84,0,0,1,6.93-6.92c.51,7.22-4.69,13.43-7.24,20.21-2.3,6.15-2.41,12.86-2.82,19.41a202.13,202.13,0,0,1-5.07,34.17c-1.19,5-2.56,10-3.34,15-2.13,14,.41,28.54-2.31,42.48-.71,3.63-1.77,7.17-2.53,10.79a134.22,134.22,0,0,0-1.93,14l-5.92,57.61c-1.6,15.62-1.7,32.4-2.09,48.09-.52,21.24-1,42.52.59,63.69C119.8,447.28,120.11,457.27,117.64,469.39Z"/><path class="cls-7" d="M80.56,256.92a14.13,14.13,0,0,0,3,7,7.31,7.31,0,0,0,4.32,2.86,3.8,3.8,0,0,0,4.25-2.33,5.18,5.18,0,0,0-1-4.08,19.91,19.91,0,0,0-8-7.2l-2.49,6"/><path class="cls-8" d="M194.18,259.88a23,23,0,0,0-3.92,6.59,4.51,4.51,0,0,0-.34,3.07,1.77,1.77,0,0,0,2.52,1,2.52,2.52,0,0,0,.58-.72,24.54,24.54,0,0,0,3.33-10.15l-2.77,1.86"/></g></g></g></svg>