<svg xmlns="http://www.w3.org/2000/svg" viewBox="0 0 333.83 865.46"><defs><style>.cls-1{fill:#9bb1a6;stroke:#000;stroke-width:2px;}.cls-1,.cls-4{stroke-miterlimit:10;}.cls-2{fill:#e2f3f0;}.cls-3{fill:#9ab2a3;}.cls-4{fill:none;stroke:#aed8b9;stroke-width:3px;}</style></defs><g id="Layer_2" data-name="Layer 2"><g id="plants"><g id="chinese-evergreen5"><path class="cls-1" d="M116.57,93.81C98.94,125.91,94.51,148.88,73,184.25,53.55,216.17,51.61,245.8,40.55,281.5,33,306,21,339.11,13.44,363.62,5.22,390.19,1.35,412.18,1.08,440c-.25,26.47,2.36,57.54,3.69,84,1.63,32.28-6.39,55-2.86,96.85C5.28,660.91,37,732.92,44,792.26c1.95,16.33,13.75,42.69,24.69,55,6.23,7,17.32,14.13,26.22,17,5.54,1.81,8.83-10.38,13.87-10.45,8.12-.11,10.57,9.33,18.72,9.31,7,0,20.29-8.31,26.65-13.32,13.91-11,24.65-25.63,34.72-40,5-7.06,6.12-13.31,10.07-20.6,4.53-8.36,11.8-17.8,17-26.21,15.62-25.09,34-50.28,49.75-75.28,18.2-28.92,39.72-53.81,51.16-86C337.4,544,333.46,480.69,330.15,419.54c-.76-14-3.69-28.06-4.36-43.54-.85-19.5.57-40.54-.39-58.23-1-19.24-3.47-42.95-6.54-62-6.84-42.39-24.93-75.65-45.92-113.1-10-17.86-25.51-38.24-38.31-54.22-10.5-13.12-20.23-22.34-31.33-34.93-10.39-11.79-19.05-31-30.54-40.54-4.22-3.53-3.15-11.91-4-12s-4,8-5.32,10.7c-3.51,7.06-9.79,21.74-13.56,28.61C140.86,56.69,125.56,77.43,116.57,93.81Z"/><path class="cls-2" d="M118.29,831.76a3.19,3.19,0,0,1,.89-2.85c2.23-2.43,12.31-8.27,10.72-.89C129.06,831.93,119.8,837.68,118.29,831.76Z"/><path class="cls-2" d="M149.19,817.59a13.24,13.24,0,0,1,9.66-1.08c1.12.36,2.26.93,3.41.68a5,5,0,0,0,1.92-1.08l5.63-4.36c-.48-.94-1.13-2-2.19-2.11-2-.21-3.34,3.29-5.24,2.55-1.2-.48-1.2-2.22-2.1-3.14-1.1-1.15-3-.63-4.42.15s-2.9,1.8-4.44,1.38a3,3,0,0,0-1.24-.27,1.93,1.93,0,0,0-.94.53l-4.3,3.6c-.67.57-1.34,1.67-.62,2.17,1.37.95-9.11,4.33-5.4,6.27C141.59,824.28,147.09,818.61,149.19,817.59Z"/><path class="cls-2" d="M178.35,804.76a2.47,2.47,0,0,1-.44,1.6,2.75,2.75,0,0,1-.82,1c-1.2.71-2.64-.8-4-.6-.94.14-1.78,1.08-2.69.78-1.6-.53-.45-3.64-2-4.32,1.17-1.46,4.06-6.69,5.88-5.72.73.4,1,2.53,1.32,3.23C176.19,802,178.11,803.49,178.35,804.76Z"/><path class="cls-2" d="M186.57,796.5a4.32,4.32,0,0,1-7.7,3.37,2.47,2.47,0,0,1,3.15-1.55c.25.09.53.24.78.12a.89.89,0,0,0,.39-.53,3.94,3.94,0,0,1,2.24-2.09,2,2,0,0,1,1.12,1.24"/><path class="cls-2" d="M173,791.39c-.57-.61-1.57-.3-2.36,0s-1.91.36-2.23-.41c-.46-1.11,1.39-1.86,1.58-3.05a5.15,5.15,0,0,1-1.43-1.92,1.79,1.79,0,0,1,.67-2.12c1.16-.59,2.35.72,3.6,1.08.82.24,1.92.22,2.2,1s-.75,1.56-.93,2.45a4.81,4.81,0,0,0,.31,1.78c.12.6-.08,1.39-.68,1.49l-1.3-.83"/><path class="cls-2" d="M155.76,796.87a1.69,1.69,0,0,1-1.61-1.38,1.71,1.71,0,0,1,1.07-1.83c0-.68-.88-.92-1.35-1.42-2-2.2,4.32-9.23,7-5.39C163.24,790.14,159.73,796.91,155.76,796.87Z"/><path class="cls-2" d="M100.67,833.27l-1.59-7.8A11.65,11.65,0,0,0,98,822c-.91-1.62-2.64-2.9-2.79-4.76a8.07,8.07,0,0,1,.59-2.85,9.68,9.68,0,0,0,0-6,6.07,6.07,0,0,0-4.3-4,4.44,4.44,0,0,0-5,2.59,17.36,17.36,0,0,1,4.39,3.08,5.93,5.93,0,0,1,1.78,4.88,1.56,1.56,0,0,1-.82,1.27,1.54,1.54,0,0,1-1.58-.72,4.23,4.23,0,0,0-1.26-1.33c-.55-.27-1.42.07-1.35.68-.28,1.85,1.84,3,3.47,3.93A15.62,15.62,0,0,1,97,824.62c.37.67.6,1.7-.08,2.06a1.35,1.35,0,0,1-1.18-.12,5.74,5.74,0,0,1-2.38-2.12,5.64,5.64,0,0,0-1.07-1.55,1.18,1.18,0,0,0-1.68.07,1.46,1.46,0,0,0,0,1.26c1,3.08,4,5.11,5.44,8.06.76,1.6,1.11,7,3.58,6.87S101,834.79,100.67,833.27Z"/><path class="cls-2" d="M75.67,807.52a2.93,2.93,0,0,1,.23,1.81,5.73,5.73,0,0,1-.69,1.16c-1,1.67-.07,3.76.67,5.55s1.15,4.21-.41,5.37c-1.34,1-3.41.26-4.38-1.11a9.58,9.58,0,0,1-1.31-4.81,13.21,13.21,0,0,1,.35-5.81,9.75,9.75,0,0,0,.65-1.78,5.72,5.72,0,0,0-.17-2.21,18.5,18.5,0,0,0-1.82-5.57,6.16,6.16,0,0,0-4.65-3.2c-1.67-.1-3.29.73-5,.59-3.37-.27-5.15-4.12-5.8-7.44a23.28,23.28,0,0,0-1.12-4.55c-.7-1.72-1.92-3.2-2.56-4.95s-.48-4,1.08-5.05,3.8-.16,4.77,1.42a6.74,6.74,0,0,1,.34,5.38A5.28,5.28,0,0,0,59,779.26c2.29,1.21,3.39,3.86,4,6.36s1,5.18,2.57,7.27c2,2.71,5.2,4.15,7.06,7C74.1,802.17,74.76,805,75.67,807.52Z"/><path class="cls-2" d="M47.9,764.63a3.53,3.53,0,0,1-2.86-4,20.27,20.27,0,0,0,.52-2,5.85,5.85,0,0,0-.84-2.89,8.38,8.38,0,0,1-1-4,3.67,3.67,0,0,1,2.19-3.26c3.88-1.4,5.61,4.08,5.11,6.88C50.7,757.36,49.92,764.27,47.9,764.63Z"/><path class="cls-2" d="M118.53,736a293.82,293.82,0,0,1-6.88,33.47c.63-3.81-.59-8-3.62-10.42s-7.91-2.38-10.53.45c-1.06,1.14-1.85,2.72-3.36,3.11-2.44.63-4.15-2.24-5.43-4.41s-4.65-4.06-6-1.9c1.61,2.11-.44,5.45-3.06,5.88s-5.17-1.11-7.12-2.91a2.4,2.4,0,0,1-.71-.94c-.33-1,.59-1.9,1.32-2.65a6.92,6.92,0,0,0,2.15-5.37,4.28,4.28,0,0,0-3.83-3.9c-1.11,0-2.2.47-3.29.28-4.28-.76-1.82-9.21-5.9-10.7a7.49,7.49,0,0,1-1.71-.58c-1.38-.94-.15-3.46,1.51-3.4s2.83,1.84,2.88,3.51A4.42,4.42,0,0,1,71.17,737c2.58-.78,3.45-4.26,2.41-6.74s-3.33-4.17-5.53-5.73c-1.14-.81-2.58-1.66-3.86-1.09-.81.36-1.34,1.24-2.2,1.48s-1.86-.26-2.77-.09c-2.87.53-2.08,6.38-5,6.5-1.44,0-2.39-1.72-2-3.12a6.66,6.66,0,0,1,2.62-3.33c-1-1.89-4.2-.84-4.91,1.17s.07,4.2.49,6.3.21,4.7-1.65,5.75c-4.93-5.42-1.24-15.55-6.72-20.41-1.42.43-1.2,2.54-.42,3.79s1.86,2.71,1.21,4c-.78,1.58-3.31,1.14-4.43-.21s-1.43-3.2-2.33-4.71c-.78-1.3-2-2.84-1.21-4.12.45-.71,1.37-1,1.94-1.57,1.6-1.72-.51-4.31-.9-6.62-.47-2.8,1.74-5.35,2.06-8.17.64-5.75-6.49-9.91-6.54-15.7,0-1.54.43-3.3-.57-4.46s-2.42-1-3.73-1.34A6.76,6.76,0,0,1,22,673.37a5.8,5.8,0,0,1,3.53-6.25c-2-2.69-4.14-6-2.94-9.17.34-.89.93-1.68,1.18-2.6a3.83,3.83,0,0,0-1.16-3.83l2.47-2.08,2.13,2c4.43-1.57,9.23.48,13.48,2.49a5.07,5.07,0,0,1,1.18.71,5,5,0,0,1,1.27,2.77l1.9,8.4c.46,2,1,4.19,2.51,5.6S51.9,673,53,671.16a6.2,6.2,0,0,0,.35-3.51A18.82,18.82,0,0,1,60,652.12c2.59-2.13,6.2-4.77,5-7.89-.42-1.1-1.44-2-1.51-3.17a4.75,4.75,0,0,1,.81-2.39,18.86,18.86,0,0,0,2.13-9.17c0-1.7-.45-3.6-1.87-4.53-2-1.33-4.76.11-6.37,1.92s-2.88,4.11-5.11,5.05a10.6,10.6,0,0,0-8.72-7.73,4.26,4.26,0,0,1-2-.53c-1-.72-.93-2.26-.35-3.33s1.54-1.89,2.2-2.92c2.17-3.44-.47-8.77-4.52-9.12a6.26,6.26,0,0,1,3.46-4.51,8,8,0,0,0-9-6,12.86,12.86,0,0,1-3.44.63c-3.66-.31-4.32-5.51-3.2-9a28.22,28.22,0,0,1,7.16-11.57c-1-7.46-13.7-9.73-13-17.23-.2-1.71,2-2.63,3.74-2.53s3.65.6,5-.47c1.71-1.35,1.05-4.2-.45-5.78s-3.6-2.48-5.08-4.08A7.83,7.83,0,0,1,23.82,539a3.61,3.61,0,0,0-3.68,3.39c-1.45-1.09-3-2.28-3.55-4s.35-4.05,2.16-4.19a12.46,12.46,0,0,1,2.09.27,3.42,3.42,0,1,0,.34-6.83,10.06,10.06,0,0,0-.78-10.85c-3.49,1.8,2.13,9.47-1.68,10.41-1.3.33-2.48-.79-3.35-1.8-2.19-2.54-4.28-6.73-1.63-8.77.69-.53,1.6-.78,2.16-1.45.81-1,.53-2.44.21-3.68L12.58,498c-1.52-5.8-3.05-11.71-2.77-17.69a29.64,29.64,0,0,1,1.69-8.59,41.63,41.63,0,0,0,3.93,15.84A21.41,21.41,0,0,1,17.55,493c.76,4.62-2.35,9.5-.69,13.88.45,1.2,1.92,2.37,2.87,1.52a24.26,24.26,0,0,1,8.57,13.4,11.79,11.79,0,0,0,1.52,4.42c.92,1.27,2.85,2,4.09,1a30.74,30.74,0,0,1,1.58,14.51c5.37-1.58,6.36-11.65,11.85-10.57,2.94.58,4,4.4,3.34,7.33s-2.49,5.51-3,8.47c-.77,4.35,1.33,8.65,3.37,12.57,1,2,2.94,4.27,4.94,3.33s1.47-3.91.23-5.68-3-3.6-2.65-5.73c.46-2.72,4.27-3.61,6.71-2.31s3.86,3.86,5.43,6.14,3.72,4.54,6.48,4.64c0-1.87-1.77-3.22-2.5-4.95s1.43-4.38,2.56-2.87c-1.15-1.23.53-3,2-3.83,3-1.63,6.2-3.31,9.63-3.21,5.39.14,9.65,4.58,12.58,9.11s5.34,9.65,9.76,12.75c-4.2,1.05-7,5-9.34,8.58a6.41,6.41,0,0,1,6.22,4.38l-2.7,1.19-.05,3.33c-4.36-1.23-7.6-4.74-10.94-7.79s-7.52-5.91-12-5.32-8,6.58-4.85,9.84a2.09,2.09,0,0,0,.76-3.3A7.83,7.83,0,0,1,81.65,580c-4.07.45-4.22,7-.94,9.49s7.76,2.11,11.84,2.29,8.86,1.57,10.15,5.45c.63,1.88.36,4.17,1.7,5.63s4,1.31,6.15,1.9c3.76,1.05,6,5,6.8,8.81s.72,7.81,1.92,11.52c1.76,5.47,6.15,9.73,8.33,15.06,2.58,6.29,1.82,13.39,1,20.14l-3.07,25.91c-.43,3.68-1,7.67-3.71,10.21-4.24-3.9-6.45-9.46-9.23-14.5s-6.8-10-12.44-11.19c-2.66.19-3.4,4.13-1.86,6.3s4.23,3.14,6.49,4.55,4.37,3.95,3.58,6.49a18,18,0,0,1-12.66-4.63,27.85,27.85,0,0,0-3.3-2.94c-2.2-1.43-4.94-1.65-7.55-1.84l-12.15-.86c-1.66-.11-4,.4-3.84,2.05.07.78.74,1.37.93,2.12.51,1.94-2,3.13-3.12,4.82a3.59,3.59,0,1,0,6.41,3.15,6.57,6.57,0,0,1,3.25,6.16,14.51,14.51,0,0,1,11.71-2c4,1.08,7.68,4.51,7.54,8.63a8.2,8.2,0,0,1,7.83,4.49c2,3.85.82,8.66,2.51,12.63a12.83,12.83,0,0,1,1.2,3.11,2.3,2.3,0,0,1-1.49,2.65,4.1,4.1,0,0,1-1.47-.13,5,5,0,0,0-3.82.67,2.89,2.89,0,0,0-1,3.53,4.41,4.41,0,0,0,1.49,1.42,18.32,18.32,0,0,1,4.62,3.64c1.33,1.72,2.23,4.28,4.39,4.51,1.82.2,3.27-1.5,4-3.16s1.31-3.57,2.78-4.66a1.06,1.06,0,0,1,.73-.26c.41.06.64.49.76.88A12.74,12.74,0,0,1,118.53,736Z"/><path class="cls-2" d="M130.47,773.32c-2.85.82-7,.89-7.59-2a5.44,5.44,0,0,1,.64-3.06c1.23-2.86,2.45-5.73,3.8-8.53a105.76,105.76,0,0,1,28-35.68c1.27-1,2.91-2.12,4.44-1.53,1.9.72,2,3.6.73,5.16s-3.42,2.11-5.4,2.58a6.06,6.06,0,1,0,11.11-4.83,8.71,8.71,0,0,1,6.23-2.66l4.63-14a7.74,7.74,0,0,0,.58-3.14,7.84,7.84,0,0,0-1.58-3.49c-2.92-4.34-6.12-8.93-11-10.84-1.5-.59-3.1-.9-4.53-1.63-4.45-2.3-5.9-7.89-9.08-11.76-1.44-1.76-4.35-3.12-5.78-1.35a4.77,4.77,0,0,0-.74,2.62c-.25,2.55-1,5.3-3,6.82s-5.72.83-6.24-1.68c-.36-1.77.9-3.42,2.07-4.8l11.49-13.41a21.72,21.72,0,0,0-13.35,9.69c-.29-11,4.13-21.46,8.48-31.54,2.57-6,5.51-12.36,11.19-15.51,6.78-3.77,16.15-2.1,21.74-7.47,4.22-4.05,5.25-11.31,10.63-13.6,4.26-1.82,10.63-.24,12.59-4.44,1.59-3.4-1.87-7.16-5.44-8.36s-7.61-1.19-10.71-3.33c-1.65-1.14-2.92-2.84-4.76-3.66-2.18-1-4.7-.5-7.08-.65s-5.14-1.48-5.3-3.87c-.13-2,1.77-3.68,3.73-4.18s4-.22,6.06-.32c6.31-.33,11.72-4.4,16.56-8.45,1.44-1.19,3.05-2.47,4.91-2.4,1.42.06,2.67.91,4,1.34,3,1,6.3-.18,9.45-.71s7.05-.06,8.5,2.79a41.13,41.13,0,0,1-9.57,2.31c2.78,5,11.06,5.1,13.22,10.41.69,1.69.6,3.64,1.42,5.27,1.95,3.86,8.09,4.3,9.59,8.36.53,1.45.36,3.17,1.25,4.43,1.54,2.2,5.09,1.44,7.15-.28s3.57-4.2,6-5.29,6.27.61,5.64,3.22c2.5.42,4.06-3.14,2.95-5.42s-3.6-3.48-5.83-4.7-4.56-3-4.83-5.5a24.18,24.18,0,0,1,13.19-4.84l1.5-15.2c.26-2.66.89-5.83,3.38-6.79,3.81-1.46,6.78,3.84,6.55,7.92s-1.53,8.77,1.18,11.82c1.27,1.43,3.21,2.16,4.33,3.7,1.68,2.31.94,5.65-.73,8s-4.09,4-6.11,6c-2.83,2.83-4.93,6.87-4,10.77s5.85,6.75,9.17,4.5A10.08,10.08,0,0,0,279,605.7l7.52-16c4.23-9,8.8-18.42,16.94-24.14,3.46,6.83-9.89,12.42-8.58,20l5.66,1.22a40.39,40.39,0,0,1-15.65,20c2.62,1.82,3.39,5.49,2.7,8.6s-2.58,5.81-4.42,8.42c-3.11,4.42-6.33,8.94-10.82,12-2.78,1.86-6,3.15-8.21,5.7-1.65,1.94-2.5,4.41-3.53,6.74-3.13,7.07-8.18,13.07-13.16,19a18.62,18.62,0,0,1-5.7-11.07c-6.47,4-9.88,11.4-12.94,18.37l-7.53,17.17c-1.23-1.87-2.54-3.83-4.54-4.83s-4.89-.62-5.88,1.39a8.91,8.91,0,0,0-.54,3c-.52,4.9-4,8.91-6.24,13.27s-3.18,10.45.58,13.64c3.95,3.34,10.19,1.22,14.93,3.31a8.83,8.83,0,0,1-1.1,16.55l-2.32-9c-.47-1.83-1.61-4.12-3.46-3.76s-2,3.31-1,5,2.62,3.46,2.22,5.43c-.61,3.06-5.15,3.36-6.86,6-.8,1.22-.86,2.79-1.46,4.12-1.65,3.67-7.83,3.84-9.69.29A10,10,0,0,0,190,756.25c.32,2.42,1.54,4.64,1.92,7a10.83,10.83,0,0,1-8,11.82,33.28,33.28,0,0,0-.54-11.6,16.89,16.89,0,0,0-5.07,10.17L172,770l-5.69,7.69c-.66.88-1.54,1.86-2.63,1.7-4.83-.72-7-9.73-12.68-10.9S135.79,771.4,130.47,773.32Z"/><path class="cls-2" d="M267,676.2q-3.56,4.37-7.36,8.51a7,7,0,0,1-3.24,2.37c-1.32.34-3-.4-3.14-1.75s1.16-2.34,2-3.37,1-3.12-.3-3.33l-3.28,2.46c-.48.36-1.18.71-1.61.29s-.13-1.06.16-1.54A62.74,62.74,0,0,1,258.61,669a24.23,24.23,0,0,0,6.9,6.52l.27,1.46"/><path class="cls-2" d="M163,556.71l5.19-5.42c2.85-3,17.94-13.2,16.11-1.57C183.16,557.09,168.48,557.49,163,556.71Z"/><path class="cls-2" d="M258,557.07c.48,2.6-.77,5.16-2,7.5-1,1.85-2.28,3.95-4.36,4-3.38.16-4.31-4.51-6.32-7.24-3.78-5.14-12.86-3.73-16.44-9-2.28-3.35-1.87-8.82-5.6-10.41-3.41-1.46-7.1,1.89-10.8,1.59s-6.28-3.86-9.84-3.81c-1.9,0-3.6,1.09-5.42,1.64-4.82,1.46-9.88-.8-14.87-1.42-11.55-1.44-22.3,5.93-30.74,13.94.4-19.3,1.32-40.12,13.29-55.26,2.41-3,5.52-5.92,9.37-6.35,1.95-.22,3.91.21,5.87.15,9-.29,14.72-10.33,23.44-12.48,1.64-.4,3.51-.6,4.59-1.89,2.11-2.5-.56-6.13-.78-9.39-.23-3.6,2.63-6.57,5.28-9,3.44-3.19,8.06-6.62,12.38-4.78,3.16,1.34,4.57,4.93,6.45,7.81s5.72,5.42,8.55,3.47c2.66-1.83,2.51-6.51,5.51-7.69l2.89,3.58,6.79-3.63a35.73,35.73,0,0,1,6.86,10.2,5.37,5.37,0,0,0,4.94-1.62,6.5,6.5,0,0,0,7.48,3.52c1.62-3.22-.25-8.68,3.21-9.69,2.76-.81,4.59,2.78,5.21,5.59,1.53,1.28,2.83-1.81,2.62-3.79-.43-4.17.08-8.65,2.57-12s7.35-5.18,11.08-3.28c5.36-3.45,6.41-12,2.05-16.63-1.61-1.72-3.78-2.91-5.1-4.87-3.15-4.71,1.74-12.2,7.31-11.2A36.21,36.21,0,0,1,307,391.93a25.22,25.22,0,0,1,2.28,24.94c-.71,1.49-1.58,3-1.53,4.64s1.11,3.27,1.47,5c.5,2.38-.42,4.81-.63,7.24s.76,5.4,3.15,5.87a15,15,0,0,0,1.08-8.42c2.08.16,2.48,3,2.27,5.09q-1,10-2,20c2,2.46.52,6.08-1,8.86l-8.7,16.06c.65,3.93,7.22,2.19,10.19,4.83s.72,7.35-1.59,10.51-4.49,7.93-1.54,10.5c1.69,1.46,4.8,1.82,5,4.05.08.92-.43,1.91,0,2.72s1.71.9,2.7,1.08A5.59,5.59,0,0,1,317,525.93c-1.46-.06-2.89-.69-4.35-.55-1.9.17-3.45,1.59-4.6,3.12-5,6.62-5.35,16.43-11.92,21.45a52.77,52.77,0,0,1-4-12.48,17.94,17.94,0,0,0-1.7-5.89c-2.14-3.67-7.11-4.89-11.24-3.88-5.47,1.33-8,6.24-12.82,8.18-4.08,1.65-8.24-.81-12.43.58C240.89,540.78,256.92,551.07,258,557.07Z"/><path class="cls-2" d="M280.22,544.91a5.06,5.06,0,0,1-5.51,1.38,4.19,4.19,0,0,1-2.4-4.95,4,4,0,0,1,5.87-1.88,4.39,4.39,0,0,1,.66,6.28"/><path class="cls-2" d="M286.17,552.81a11.14,11.14,0,0,0-4.38,5.45,3.77,3.77,0,1,0,4.68-5.34L285,553"/><path class="cls-2" d="M314,554.37l-5.08,5.84a3.33,3.33,0,0,1-1.57,1.19c-1.4.35-2.61-1.36-2.36-2.78a6.59,6.59,0,0,1,2.43-3.48l4.22-3.86a4.85,4.85,0,0,1,1.87,3.87"/><path class="cls-2" d="M268.94,441.43l-6.1,16.13c-3.93-.2-5.39-5.34-4.95-9.26.45-4.12.8-9.87-3.24-10.8-3.25-.75-5.73,2.76-7.2,5.74-.89-1.89-3.34-2.6-5.39-2.21a18,18,0,0,0-5.64,2.67A48.12,48.12,0,0,1,222,449.42a7.69,7.69,0,0,1-5-.15c-1.53-.77-2.42-3-1.3-4.26a107.74,107.74,0,0,1-27.72,4.64c-3.85.14-8.24-.18-10.64-3.18a15.35,15.35,0,0,1,12.5-6.73,11.18,11.18,0,0,0,3.75-.29c2.95-1.09,3.51-4.89,4.66-7.82s5.43-5.39,7.07-2.71c1.54,2.51-1.88,5.41-1.71,8.35,2.63-1.36,5.37-2.74,8.33-2.81s6.17,1.58,6.88,4.45a43.26,43.26,0,0,0,26.08-10.52,98,98,0,0,0-18.68-22,9.37,9.37,0,0,0-3.84-2.35,9.78,9.78,0,0,0-4.06.18l-30.91,5.74c.13-3.57,5.7-5.42,5.18-9-.48-3.23-5.14-3.32-8.24-2.27s-7.38,1.94-8.89-1l-9.95,9.53a111.66,111.66,0,0,1,12.75-29.35c-1.34,2.71-6,1.63-7.07-1.19s.29-6,2-8.46a29.29,29.29,0,0,1,25.48-12.12,23.29,23.29,0,0,0,5.53.11,8.22,8.22,0,0,0-2-16.29c2.06-1.53,4.18-3.13,5.41-5.37s1.31-5.35-.51-7.15-4.77-1.69-7.32-2.09A15.74,15.74,0,0,1,189,318.27c3.8-4.82,10-7.44,16.12-7.75s12.24,1.47,17.76,4.18c2.25,1.11,4.58,2.41,7.09,2.27,5.28-.29,8.25-6.52,13.23-8.3.75,2.74,1.69,5.64,3.92,7.39s6.15,1.58,7.31-1-.78-5.53.36-8c1.24-2.69,5-2.72,7.94-2.59s6.84-.75,7.13-3.7c-4.59-3.77-4-12.12,1.07-15.2,4.35.92,2.76,8.42,6.37,11,1.93,1.39,4.85.7,6.4-1.11a8.23,8.23,0,0,0,1.5-6.74c-.35-2.06.51-3.62,2-5.06A15.15,15.15,0,0,0,290.52,267c-1.39-3.13-3.93-6-3.67-9.46a3.61,3.61,0,0,1,3.49.58c2-7.08-4.83-14.3-3.2-21.46.42-1.81,1.35-3.47,1.73-5.29.89-4.2-1.27-8.36-2.79-12.37A44,44,0,0,1,284,195.39c7.89,7.83,9.22,19.92,10.1,31a5.58,5.58,0,0,1,4.24,1.26l-.66,27.09c-.07,2.81-.1,5.78,1.28,8.23a16,16,0,0,1,5.87-8.66,110.77,110.77,0,0,1,2,29,5.93,5.93,0,0,0-3.38-2.17c-4.44,2.84-5.22,10-1.49,13.72a11.9,11.9,0,0,0-6.76,10.76c.1,5.68,4.32,11,3.23,16.58-.55,2.79-2,6.58.6,7.8l3.19-2.36a123.82,123.82,0,0,1-.87,24.34c-.38,2.82-1.23,6.11-3.89,7.13-1.15.44-2.47.36-3.58.9-2.91,1.41-2.44,5.63-1.64,8.76s.88,7.49-2.2,8.49c-1,.32-2.13.16-3.08.61-1.56.72-2.05,2.73-3.37,3.83-1.59,1.32-4.09,1-5.78-.21a14.54,14.54,0,0,1-3.79-4.87l-8.21.87c-4.45.47-10.52-.23-11.13-4.66a5.87,5.87,0,0,0-7,3.82,11.5,11.5,0,0,0-.24,3.8l.38,7.91c.92-1.55,3.29-1.64,4.79-.64a9.3,9.3,0,0,1,3,4.41,73.72,73.72,0,0,1,4.69,17.05c.4,2.64.68,5.41,2.12,7.65a13.13,13.13,0,0,1,1.7,2.78c.53,1.6-.09,3.31-.33,5C263.1,429.71,266.24,437,268.94,441.43Z"/><path class="cls-2" d="M285.84,435.49l-4.33,7.77c-.72,1.29-1.7,2.75-3.18,2.8s-2.62-1.5-3-3-.46-3.08-1.27-4.37a4.21,4.21,0,0,1-.74-1.36c-.24-1.2,1.24-2.17,2.44-1.93a5.67,5.67,0,0,1,2.91,2.15,4.12,4.12,0,0,1,2.24-4.28c1.62-.62,3.79.87,3.36,2.55"/><path class="cls-2" d="M290.17,395.46a9.22,9.22,0,0,1-.25,12.56,23.3,23.3,0,0,1-4.62-6.72c-.74-1.88-.94-4.2.31-5.78s4.32-1.55,4.95.38"/><path class="cls-2" d="M299,378.94a7.68,7.68,0,0,1-4.06,6.29,5.22,5.22,0,0,1,.55-9.25l2.81,3.58"/><path class="cls-2" d="M279.2,407a9.64,9.64,0,0,1,2.32,3.39,3.41,3.41,0,0,1-.92,3.77,4.7,4.7,0,0,1-3.76.37,4.54,4.54,0,0,1-2.12-.87,3.33,3.33,0,0,1-.17-4.25,9.68,9.68,0,0,1,3.67-2.78"/><path class="cls-2" d="M265.49,259.14a27.21,27.21,0,0,1-7.28,9.21c-2.78,2.26-6.42,4.79-5.94,8.34.44,3.31,5.39,4.86,7.64,2.39,3.16.45,2.56,5.22,1.08,8.05l-5,9.58a7.71,7.71,0,0,1-4.94-1.27c-.22,4.5-7,6.82-10,3.54s-.69-9.68,3.77-10.31l-5.37-7.6a10.94,10.94,0,0,0-1.87-2.19c-3-2.47-7.71-1-10.58,1.67s-4.81,6.2-7.85,8.64a9.8,9.8,0,0,1-6.83,2.39,36.49,36.49,0,0,1-4.23-1c-6.8-1.42-13.3,3-18.84,7.18.41-7.6,11.52-9.8,14.52-16.81,1.14-2.67,1-5.83,2.49-8.3a6.91,6.91,0,0,1,12.8,3.72c4.68-2.82,9.65-8.09,7.22-13-1.85-3.71-7.13-4.75-8.87-8.52-1.64-3.55,1.21-8.14,5.07-8.82s7.81,2.06,9.2,5.72c.66,1.74.84,3.67,1.79,5.27a6.19,6.19,0,0,0,11.48-2.44,5.69,5.69,0,0,1,1.63,6.13c1.28,1.45,3.57-.18,4.74-1.72,2.56-3.36,6.57-11.54,11.88-10.64S267.3,255.38,265.49,259.14Z"/><path class="cls-2" d="M253,239.53a22.92,22.92,0,0,1-2.74,11.09,2.45,2.45,0,0,1-1,1.15,2.67,2.67,0,0,1-2.3-.45c-3.6-2-7.29-4-9.84-7.27a7.41,7.41,0,0,1-1.71-3.62c-.28-2.32,1.13-4.52,2.82-6.13s3.69-2.87,5.21-4.65a4.38,4.38,0,0,1,1.87-1.61c1.67-.48,3,1.39,3.7,3l4,8.9"/><path class="cls-2" d="M256.21,198.62c1.14,1.29,2.8,1.95,4.25,2.87,7,4.48,8,14.75,5,22.54a12.38,12.38,0,0,1-4,5.86c-2,1.4-4.82,1.74-6.7.24-1.64-1.31-2.19-3.66-3.87-4.92-2.52-1.87-6.5-.57-8.9-2.58-2.23-1.86-1.79-5.4-.7-8.08s2.7-5.44,2.15-8.28c-3.9,2.35-8.14,5.14-9.25,9.55s.72,10.89-3.51,12.89c-2.82,1.34-6.12-.76-9.22-.4-3.73.42-6,4.08-8.28,7.09a40.77,40.77,0,0,1-12.94,11.36c-2.77,1.55-5.92,2.79-9,2.31s-6.09-3.26-5.78-6.42a45.1,45.1,0,0,1-7.57,13.88c-1.8.48-3.68-.87-4.45-2.57a12.08,12.08,0,0,1-.62-5.49l.54-12.74c.21-4.87.44-9.85,2.2-14.4,1.11-2.85,2.82-5.58,2.88-8.64,0-2.48-1-4.84-1.41-7.29a14,14,0,0,1,9.41-15.07,4.46,4.46,0,0,1,3.53.07c.78.46,1.37,1.33,2.27,1.44a2.84,2.84,0,0,0,1.89-.7,32,32,0,0,0,10.21-11.8c.72-1.44,1.35-3.08.9-4.63a3.61,3.61,0,0,0-7.05,1.41c-2.68-.28-4.45-3.24-4.3-5.93s1.72-5.09,3.44-7.17c1.48-1.81,3.36-3.62,5.7-3.72s4.7,2.58,3.44,4.55a7.2,7.2,0,0,1,9.24,4.82c2.65-1.48,5.36-3.1,7-5.64s1.92-6.26-.22-8.41c-2.45-2.45-7.08-2.17-8.79-5.19-1.3-2.29-.13-5.31-1.17-7.74-.91-2.14-3.5-4-2.68-6.17.36-1,1.32-1.56,2-2.35,1.84-2.21,1.18-5.5.41-8.27-1.49-5.45-3-11-6-15.79-2.66-4.28-6.36-7.81-9.27-11.93s-5-9.24-3.85-14.14c.34-1.44,1.71-3.09,3-2.34a3.12,3.12,0,0,1,1,1.34,9,9,0,0,0,10.3,4.2,47.72,47.72,0,0,1-7.11-20.19c1.16-.94,3,0,3.65,1.37s.49,2.93.64,4.42c.43,4,3,7.44,5.25,10.84a68.13,68.13,0,0,1,10.33,27.13c2.54,0,2.77-3.75,2.13-6.2q-2.52-9.72-5-19.42a56.16,56.16,0,0,1,8.09,13.27,13.78,13.78,0,0,1,1.23,4,24.67,24.67,0,0,1-.28,4.61,22.23,22.23,0,0,0,2.12,11.52,6.74,6.74,0,0,1,7.17,5.29c2.36-2.12,6.28.45,7.12,3.51s0,6.34.51,9.47a11.18,11.18,0,0,0,4.69,7.36c1.87,1.27,4.13,2,5.84,3.46,4.56,4,3.25,11.27,5.19,17,2.11,6.24,9,12.6,4.63,19.34C260.74,187.4,250.22,191.86,256.21,198.62Z"/><path class="cls-2" d="M180.72,112.79c-3.15.18-5.52,3.15-6.3,6.21s-.4,6.29-.47,9.44a32.8,32.8,0,0,1-8.19,20.89c-3.27-1.86-3.23-6.56-2.47-10.25s1.62-8.06-1-10.81c-1.91-2-5.23-2.5-6.77-4.84-1-1.55-1-3.54-.9-5.4l.55-13.7c.25-6.3.5-12.6.85-18.89.68-12.41,2.18-25.87,10.8-34.81a64.56,64.56,0,0,1,6.62,20.85L173,46.8c-.06-3.39,0-7.07,2.06-9.73,4.87,10.35,9.86,21.18,9.56,32.61-.12,4.69-1.14,9.35-.91,14,.21,4.42,1.5,9,0,13.14-1.15,3.15-3.87,6.42-2.33,9.4a46.36,46.36,0,0,1,4.35-4.4c2.93,2.11,7.12,7.94,4.84,11.85a4.74,4.74,0,0,1-4.68,2.36C184,116,181.24,112.76,180.72,112.79Z"/><path class="cls-2" d="M189.92,125.86a19.16,19.16,0,0,1,5.12-3.48l.15,10.54a5.63,5.63,0,0,1-2.31,5.44l-5.15,4.86c-1,1-2.65,1.95-3.67,1-.86-.81-.35-2.31.5-3.13s2-1.36,2.64-2.36c1.11-1.76.18-4,0-6.09a8.77,8.77,0,0,1,4.13-8.28"/><path class="cls-2" d="M127.76,124.89a7.44,7.44,0,0,0,.58,3.57,14.53,14.53,0,0,0,1.66,2.11c3.24,4,2,9.89,1.05,15a104.57,104.57,0,0,0-1.9,20.74,4.24,4.24,0,0,1,6.19,3.16c2.73-1.13,5.78,1.07,7.21,3.66,3.8,6.85.74,15.38,1.63,23.17,1.08,9.37,7.75,16.95,13.36,24.53s10.61,17.1,7.75,26.09c-4.42-1.91-6.17-7.11-8-11.57s-5.25-9.34-10.05-9c-6.82.49-10.21,11.12-17,10.19-1.17-.16-2.33-.68-3.48-.43a20.7,20.7,0,0,1-2.37.81c-2.37.22-3.21-3.33-2.13-5.46s3.13-3.84,3.43-6.21c-.07-2.62-3.81-3-6.36-2.45a108.36,108.36,0,0,0-20,6.5l.41,8.21c3.2-.91,5.49,3.16,5.86,6.46s.59,7.38,3.6,8.8c-.92,2.8-5.24,1.27-7.19-.94a34.55,34.55,0,0,1-5.38-36.33,15.58,15.58,0,0,0,1.59-4.33c.38-3.08-1.41-6.73.65-9.06l7.93,4.08c3-.21,4.59-3.92,3.88-6.81s-2.93-5.12-4.87-7.38-3.77-5-3.46-8c.24-2.32,1.75-4.28,3-6.23a39.86,39.86,0,0,0,5.65-13.16,3.4,3.4,0,0,0,0-2c-.53-1.32-2.48-1.48-3.64-.66a7.16,7.16,0,0,0-2.18,3.57c-2.78,0-4.21-3.73-3.21-6.32s3.42-4.3,5.5-6.14A34.24,34.24,0,0,0,118.74,124c-.54-4.71-2-9.62-.38-14.06a20.79,20.79,0,0,1,3-5c3.83-5.13,7.51-10.45,11.56-15.38,1.46,4.73-2.29,11.67-3.24,16.49A102.41,102.41,0,0,0,127.76,124.89Z"/><path class="cls-2" d="M151.21,296.67c-4.07-2.68-8.51-4.88-12.06-8.21-1.07-1-2.19-2.19-3.66-2.34a3.49,3.49,0,0,0-3.56,2.83,4.77,4.77,0,0,0,1.73,4.43c2.57,2.13,6.36,1.67,9.52,2.75a16.13,16.13,0,0,1,6.14,4.36c3.83,4,1.67,5.79,2.58,9.9.56,2.56,3.61,8,7.51,6.42C168.12,313.3,154.88,299.08,151.21,296.67Z"/><path class="cls-2" d="M159.13,355.16c-.24-4.85-.91-10.23-4.6-13.38-2.44-2.08-5.73-2.76-8.77-3.78a36.27,36.27,0,0,1-17.06-12.24l5.83-4.63c-4-8.2-14.76-12.35-23.26-9-2.12.83-4.43,2.07-6.54,1.21-4.13-1.69-2-8.2-4.22-12.09-2.34-4.15-8.62-3.69-12.78-1.37-1.48.82-3.07,1.84-4.73,1.48-3.25-.72-3.1-5.4-2.15-8.6L85.21,278a4.11,4.11,0,0,0,2.42,2.6,6.84,6.84,0,0,0-3.71-8.9,37.92,37.92,0,0,1-3.85-1.13c-4.31-2.13-3.16-8.74-.27-12.58s7.08-7.39,7.11-12.19c0-2.64-1.29-5.1-1.77-7.69-.55-2.94,0-6.08-1.13-8.86-1.81-4.6-7.14-6.54-11.88-7.95l-4.66,19.14c-5.58-9.43,6.1-22.82-.11-31.86a179.6,179.6,0,0,0-11.73,67.17c0,2.76.13,5.65-1.09,8.12-.79,1.57-2.1,3-2.31,4.71-.42,3.5,3.67,6.14,3.8,9.67A12.6,12.6,0,0,1,55,302.58c-2.1,6.34-.18,13.22.25,19.89s-1.62,14.65-7.92,16.88c-1.52.54-3.2.7-4.53,1.6-3.93,2.64-2,8.73.39,12.84a17.44,17.44,0,0,0,10.93-10.56c3.32.94,4,5.67,2.34,8.69s-4.75,4.93-7.25,7.32-4.52,6-3.21,9.19c.77,1.87,2.51,3.13,3.86,4.64,5.84,6.56,5.39,18.94,13.79,21.5l-3.14,3.21c-.33,3,4.24,4.54,6.55,2.61s2.5-5.47,1.72-8.38-2.31-5.61-2.79-8.58c-.43-2.65,0-5.46-1-7.95-1.12-2.84-3.84-4.75-5.23-7.47s-.16-7.2,2.87-6.89A13.61,13.61,0,0,1,66.14,368L71.22,365c4.25,1,5.61,6.34,5.76,10.71s.2,9.48,3.74,12c1.93,1.4,4.46,1.63,6.64,2.62s4.13,3.48,3.07,5.62c4.13-.23,8.64.67,11.33,3.81s2.31,8.88-1.45,10.58a10.56,10.56,0,0,1-4.61.61c-4.46-.06-9-.14-13.17-1.75-3.33-1.28-8.42-2.72-9.34.72a44.71,44.71,0,0,0,10.3,12.86c-3.13.62-4.94,3.78-6.82,6.36s-5.16,5-8,3.58c-1.42-.72-2.23-2.22-3-3.64l-7.47-14.44-5.35,2.69a15.89,15.89,0,0,1,2.83,17.18c-1.62,3.51-7.21,6.07-8.87,2.58-.62-1.31-.26-2.85.05-4.26A45.9,45.9,0,0,0,40.5,398.4a11.45,11.45,0,0,1-12.8-6.23A15.75,15.75,0,0,0,19.18,403c-.72,3.34-.31,6.81.09,10.2l4.83,40.21a11.92,11.92,0,0,0,5.22-8.89,5.63,5.63,0,0,1,2.19,8,9.67,9.67,0,0,0,4,3.57c-5.41,6.13-6.19,15.29-4,23.17S38.3,494,42.88,500.81l20.61,30.47c1.5,2.21,3.29,4.62,5.93,5,2.48.38,4.8-1.13,7.21-1.82,4.24-1.23,9.61-.2,12.41-3.61,2.4-2.94,1.25-7.3,2.09-11,1.05-4.62,5.48-8,10.18-8.57a16.28,16.28,0,0,1,12.85,4.86c2.63,2.59,4.62,6,7.89,7.66,2.42,1.25,5.22,1.42,7.85,2.1a21,21,0,0,1,13.17,10.43L146,510.45c.29-2.52.56-5.12-.24-7.52s-2.55-4.26-3.81-6.41c-1.75-3-2.52-6.44-4-9.54a22.32,22.32,0,0,0-16.39-12.05l8.06-7.58L124,459.41c1.08.12,1.57-1.31,1.66-2.4.4-4.61.18-10.37-4-12.36-6.76-3.23-12.44,7.53-19.91,8.17A12.49,12.49,0,0,1,95,451c-4-2.13-7.66-5.54-8.44-10s2.58-9.65,7.09-9.43c4,.19,7.06,4.23,11.07,4.42s7.2-3.54,11.07-4.84c2.91-1,6.09-.5,9.15-.77s6.46-1.75,7.24-4.72c1.86-7.09-12.11-10.33-11-17.58.4-2.65,2.9-4.78,2.75-7.45-.33-5.92-12.22-6.37-11.35-12.24a7.18,7.18,0,0,1,1.72-3.22c2.17-2.81,4.48-5.73,7.75-7.09s7.76-.52,9.21,2.72c.9,2,.44,4.44,1.31,6.48,1.57,3.7,6.41,4.36,9.91,6.34,6,3.41,8,10.92,9.61,17.65.53,2.28,1.6,4.32,4.09,3.86.36-3.52-.62-6.87-.07-10.69.79-5.51,1.73-11,2.28-16.54A218.9,218.9,0,0,0,159.13,355.16Z"/><path class="cls-2" d="M130.59,543.44a1.89,1.89,0,0,1-.39-1.61c.16-.42.58-.67.94-1,2.5-1.91,2.32-6.24-.17-8.15a6.11,6.11,0,0,0-8.33,1.42,1.81,1.81,0,0,0-.42,1c0,.62.49,1.11.84,1.62,1.14,1.64.9,3.81,1,5.8.21,3.53,4.87,16.77,9.59,15.36C140.84,555.82,132.19,545.93,130.59,543.44Z"/><path class="cls-2" d="M139.32,464.8l-8.4-9.1a3.84,3.84,0,0,1,4.29-1.62,8.16,8.16,0,0,1,4,2.76,7.67,7.67,0,0,1,2.18,4.44,3.54,3.54,0,0,1-2.64,3.75"/><path class="cls-3" d="M37.49,658.67l-3,2.24a.89.89,0,0,1-.58.25.94.94,0,0,1-.49-.32,6,6,0,0,1-1.43-2,3,3,0,1,1,5.77-.8l-.76.92"/><path class="cls-3" d="M77.8,659.22c-.53,1.65-.72,3.39-1.3,5-1.34,3.86-4.58,6.7-7.69,9.35-1.4,1.2-3.24,2.48-4.94,1.77a5.1,5.1,0,0,1-2.27-2.69l-1.92-3.86c-.44-.89-.62-2.36.37-2.51.38.68,1,1.46,1.74,1.26,1-.25.81-1.65,1.05-2.63.4-1.6,2.24-2.29,3.52-3.34,3.71-3,3-9.42,6.71-12.4a5.54,5.54,0,0,1,6.31-.46C84.61,652.12,78.88,655.84,77.8,659.22Z"/><path class="cls-3" d="M110.51,468.6c-1,2.37-4.28,3-6.59,1.85s-3.81-3.35-5.2-5.49c-.66-1-1.35-2.27-.84-3.37.66-1.43,2.7-1.39,4.22-.95a12.18,12.18,0,0,1,5.42,2.94,6.37,6.37,0,0,1,1.85,5.69"/><path class="cls-3" d="M224,498a11.48,11.48,0,0,1-13.44,2.33,3.59,3.59,0,0,1-1.82-1.74c-.68-1.84,1.3-3.51,3-4.45,2.41-1.32,5.13-2.62,7.81-2s4.65,4.2,2.8,6.23"/><path class="cls-3" d="M90.3,427.26a5.05,5.05,0,1,1,3.77-9.37c.88.37,1.63,1,2.48,1.39,1.66.83,15.74,1.15,10.6,6.58C106.59,426.44,91.83,427.85,90.3,427.26Z"/><path class="cls-4" d="M106.15,851.43l44.52-333c-1.57,2.93,19-264.14,24.91-401.14"/></g></g></g></svg>