<svg xmlns="http://www.w3.org/2000/svg" viewBox="0 0 252.24 416.99"><defs><style>.cls-1{fill:#f8ced1;stroke-width:2px;}.cls-1,.cls-2{stroke:#000;stroke-miterlimit:10;}.cls-2{fill:#a19c8c;}.cls-3{fill:#9fa78f;}.cls-4{fill:#a5a695;}.cls-5{fill:#99a08a;}.cls-6{fill:#b1b89f;}.cls-7{fill:#a1a894;}.cls-8{fill:#afa78e;}.cls-9{fill:#a7a694;}.cls-10{fill:#a5a996;}.cls-11{fill:#aaa59b;}.cls-12{fill:#9ea58e;}.cls-13{fill:#a0ab94;}.cls-14{fill:#a6ab9c;}.cls-15{fill:#a2a08d;}.cls-16{fill:#a5aa8b;}.cls-17{fill:#b4b093;}.cls-18{fill:#a6a997;}.cls-19{fill:#a4b08d;}.cls-20{fill:#a5af96;}.cls-21{fill:#b5ae89;}.cls-22{fill:#8d907f;}.cls-23{fill:#afbb9c;}.cls-24{fill:#a0a587;}.cls-25{fill:#a9b091;}.cls-26{fill:#939484;}.cls-27{fill:#a8af9c;}.cls-28{fill:#999f84;}.cls-29{fill:#8c9882;}.cls-30{fill:#959d90;}.cls-31{fill:#a8a18b;}.cls-32{fill:#8e9982;}.cls-33{fill:#97a188;}.cls-34{fill:#adad88;}.cls-35{fill:#b3ab89;}.cls-36{fill:#b9b28a;}.cls-37{fill:#acb08b;}.cls-38{fill:#999f89;}.cls-39{fill:#99a48a;}.cls-40{fill:#9ca08d;}.cls-41{fill:#989e89;}.cls-42{fill:#a9a787;}.cls-43{fill:#b5b28d;}.cls-44{fill:#a7a385;}.cls-45{fill:#cdbc93;}.cls-46{fill:#ada18f;}.cls-47{fill:#9ea38b;}.cls-48{fill:#c1bc96;}.cls-49{fill:#afb295;}.cls-50{fill:#9aa189;}.cls-51{fill:#9ea591;}</style></defs><g id="Layer_2" data-name="Layer 2"><g id="plants"><g id="chinese-evergreen4"><path class="cls-1" d="M46.6,365c-13.84-15.72-23.37-34.71-32-53.81-4.59-10.21-9-20.6-11.3-31.55-3-14-2.48-28.45-1.9-42.74C3.76,179.36,8.08,119.06,38.76,70.32c6.61-10.49,14.33-20.24,22-30l25-31.58a26.32,26.32,0,0,1,5-5.19c7.14-5.08,17-1.72,25,1.78,19.63,8.55,39.61,17.33,55.64,31.52C181.65,46,190,57,198.19,67.89c6.51,8.63,13,17.29,18.45,26.64,15.23,26.27,21.13,56.77,26.36,86.68,7,40,13.18,81.68,2.46,120.9A144.69,144.69,0,0,1,231,336.64c-13.91,24-36,43.92-62,53.88-12.52,4.79-26,7.33-39.43,6.28-13.63-1.07-27.89.16-41.11-3.73C72.12,388.26,57.79,377.69,46.6,365Z"/><path class="cls-2" d="M127.56,410.46c-1.32,3.79-5.38,6.94-9.22,5.79-2.32-5.41-1.28-11.59-.27-17.39a695.59,695.59,0,0,0,10.41-135.07c-.57-25.41-2.6-50.77-4.8-76.1Q119,134.07,113.37,80.53c1.74,2.81,2.22,6.19,2.66,9.46,5.66,42.13,10.9,84.33,14.22,126.71s4.7,85.06,2.56,127.58q-.9,17.84-2.66,35.61c-.57,5.64-1.53,11.27-2,16.9C127.78,401.3,129.08,406.09,127.56,410.46Z"/><path class="cls-3" d="M171.92,337.53c3.2-.19,6.56.28,9.51-1,2.71-1.14,4.69-3.58,7.37-4.78a5,5,0,0,0,2-1.18c1-1.18.3-2.91.35-4.44A9.1,9.1,0,0,1,192,323c1.66-4,3.35-8,6-11.44a9.65,9.65,0,0,0,2-3.26,2.68,2.68,0,0,0-1.32-3.24c-1.21-.44-2.47.4-3.48,1.2-4.48,3.52-9.08,7.2-11.75,12.24-1.15,2.17-1.9,4.53-3.18,6.62-5.5,9-20.36,8.69-25,16.94C159.84,344.15,166.79,337.84,171.92,337.53Z"/><path class="cls-4" d="M239.38,272.86c1.08-1.58,2.7-3.38,4.54-2.84a36.18,36.18,0,0,0-.73,10.43c.23,3.21.9,6.4.85,9.62a37.27,37.27,0,0,1-2.43,11.48,124.16,124.16,0,0,1-24.22,41.67c-3,3.41-6.43,7.7-4.89,12,2.39.08,4.27-1.95,5.74-3.84a142.74,142.74,0,0,0,28.25-106.3c-.25-1.7-1.49-3.94-3-3.15a53.49,53.49,0,0,1-5.89,16.38,26.33,26.33,0,0,0-3.08,6.53c-.59,2.48-.27,5.15-1.16,7.55-.76,2.08-2.36,3.73-3.77,5.43-4,4.87-9.12,13.17-8.49,19.64C227.35,296.21,235.82,278.12,239.38,272.86Z"/><path class="cls-5" d="M239.64,182.29c-.12-.58-.37-1.27-.95-1.35s-1.05.55-1.32,1.1c-1.53,3.06-3.09,6.62-1.77,9.79a21.61,21.61,0,0,0,1.58,2.7c2,3.27,2.55,7.17,3.08,11a2.83,2.83,0,0,1-.45,2.49,1.38,1.38,0,1,1-1.62-2.22c-1.54-.94-3.52,1.05-3.29,2.84s1.73,3.11,3.13,4.25a6.46,6.46,0,0,1,2.37,2.82c.45,1.4-.1,2.9-.31,4.36-.51,3.47,2.34,7.78,5.49,4.58,2.31-2.35.07-10.33-.31-13.14C244,201.65,241.8,192,239.64,182.29Z"/><path class="cls-6" d="M206.75,226.66c-8.09,7.81-13.55,18-21.31,26.12-3.41,3.58-7.77,6.93-12.7,6.71-.12-2.5,2.12-4.4,4.09-6a112.2,112.2,0,0,0,18.11-17.88,10,10,0,0,0,2.06-3.48c.52-1.89.1-4.27,1.63-5.49,1.35-1.08,3.4-.49,5-1.19a6.56,6.56,0,0,0,2.61-2.73L213.75,211a2.63,2.63,0,0,1,1.11-1.13,1.83,1.83,0,0,1,2.22,1.32C219,217.19,210.28,223.25,206.75,226.66Z"/><path class="cls-7" d="M228.89,192.39c-1-2.91-.89-6.09-.74-9.18a53.1,53.1,0,0,1-7.32,15.52c-1.67-3.66.61-7.77,2.25-11.43a38,38,0,0,0,0-30.67,4.43,4.43,0,0,1-2.62-1.34,15.22,15.22,0,0,0-1.81,8.12c-.73.78-1.58-.85-1.43-1.9q1.29-8.94,2.59-17.86a1.86,1.86,0,0,1,2.27.92,5.46,5.46,0,0,1,.49,2.61c2.2-.07,4,2,4.51,4.12s.24,4.38.28,6.58.54,4.6,2.25,6a18.2,18.2,0,0,0,1.82-11l2.09.07a28.56,28.56,0,0,1,4.86,14.88c-.09-2.37-6.81,0-7.56,1.17-1.6,2.43,0,6.5,1,8.8C234.31,183.65,234.67,187.56,228.89,192.39Z"/><path class="cls-8" d="M162.74,222.68c2.38-3.22,4.48-6.74,7.55-9.3,2.35-1.95,5.15-3.25,7.61-5.06s4.65-4.35,4.86-7.39l-2.29-.35a40.8,40.8,0,0,1-4.5,4.8l-15.58,15c-5,4.82-10,9.64-15.23,14.23-2.12,1.87-4.58,3.81-7.41,3.72a3.58,3.58,0,0,0-2,.19,2.48,2.48,0,0,0-1,1.4c-4.48,12.32,8.25,1.59,12-1.4A84.69,84.69,0,0,0,162.74,222.68Z"/><path class="cls-9" d="M148.77,191.62c6.62-6.7,14.6-12.31,19.44-20.39.55-.92,1-2.33,0-2.9s-1.91.28-2.58,1c-6.17,7-12.24,14.07-19,20.54s-21.56,12-13,23.2C138.33,205.48,142.38,198.08,148.77,191.62Z"/><path class="cls-10" d="M174.25,160.19c1.38-.57,2.94.44,3.81,1.67s1.37,2.71,2.42,3.78a6.22,6.22,0,0,0,5.64,1.46,11.68,11.68,0,0,0,5.26-2.89,21.94,21.94,0,0,0,7.31-15.12c-1.93.7-2.87,2.83-4.11,4.47a10.91,10.91,0,0,1-6.11,4,1.82,1.82,0,0,1-1.75-.24,1.92,1.92,0,0,1-.41-1.12c-.65-5,.58-9.37,1.24-14.15-2.73.77-5,3.82-6.77,6.1C179.32,150,175.73,159.58,174.25,160.19Z"/><path class="cls-11" d="M212.72,136.57c-.4,1.42-.9,3-2.15,3.75a14.49,14.49,0,0,1-2.54.92c-2,.75-3.28,2.55-4.5,4.26-.85-1.64-.09-3.62.59-5.34,1.41-3.51,2.94-18.08,6.5-18.72C216.87,120.32,213.49,133.89,212.72,136.57Z"/><path class="cls-12" d="M228.7,132c-2.36.38-2.85,3.53-2.69,5.92s-.06,5.49-2.35,6.16l-.12-10.05a4,4,0,0,1-2.69,4c-1.85-2.16,1.08-5.18,1.39-8s-2-5.06-2.59-7.74c-.55-2.41.27-5-.35-7.38-1.05-4.06-5.74-6.15-7.42-10-1.08-2.47-.75-5.3-1-8a19.11,19.11,0,0,0-9.82-14.89,4.5,4.5,0,0,0-2.52-.7,9.89,9.89,0,0,0-2.61,1c-2.79,1.11-6.08-.47-7.87-2.89s-2.44-5.46-3-8.4c-1.07-5.24-3.63-9.2-6.75-13.54l-9.51-13.25a16.26,16.26,0,0,0-3.39-3.81,22.18,22.18,0,0,0-3.7-2,31.15,31.15,0,0,1-14.13-13.87A64.58,64.58,0,0,1,164.65,35c6.08,5.09,11.16,11.24,16.21,17.36C201,76.75,220.56,101.48,228.7,132Z"/><path class="cls-13" d="M195,130.79c.52,1.67,1.48,3.59.45,5a4.39,4.39,0,0,1-1.6,1.18,6.13,6.13,0,0,1-3.41,1c-2.08-.25-3.32-2.64-3.16-4.73s1.28-4,2.23-5.83A36.74,36.74,0,0,0,190,95.87c-1.95-4.2-4.8-8.58-3.73-13.09,1.82-.76,3.49,1.35,4.25,3.17,3.09,7.41,4.14,15.44,4.43,23.41C195.18,115.8,193.1,124.66,195,130.79Z"/><path class="cls-14" d="M206.1,98.43a6.71,6.71,0,0,0,.87,4.16,7.44,7.44,0,0,1,1,4.14c-.22,1.43-1.73,2.74-3.06,2.17a3.59,3.59,0,0,1-1.6-2c-1.35-3.09-2.73-6.51-1.75-9.74a2.18,2.18,0,0,1,1.15-1.52c1.19-.43,2.21,1,2.49,2.26s.54,2.77,1.74,3.19"/><path class="cls-15" d="M126.93,110.32c3-3.45,6.77-6.65,7.94-11.1.67-2.55.42-5.23.38-7.87-.11-7,1.34-13.86,2.78-20.67A8,8,0,0,1,139.48,67a2.76,2.76,0,0,1,3.56-.7c1.47-.87,1.36-3.09.59-4.62s-2-2.88-2.27-4.57.49-3.35.48-5a11.31,11.31,0,0,0-.89-3.72L134.1,29.44a5.72,5.72,0,0,0-1.06-2,6.76,6.76,0,0,0-2.23-1.32C122.74,22.42,117.91,14,110.58,9a7.55,7.55,0,0,0-4.78-1.67c-1.15.1-2.24.67-3.41.71a4,4,0,0,1-3.74-4.74c12.67.72,24.11,7.48,35,14.05,1.94,1.17,4,2.42,5.11,4.38,1.24,2.12,1.27,4.74,2.27,7,1.94,4.34,7.42,7.16,7.32,11.92l-4.06.13c-.68,2.73,1.06,5.44,1.42,8.24.45,3.42-1.16,6.91-.48,10.29.79,3.87,4.45,7.73,2.46,11.13-1.09,1.87-3.44,2.52-5.1,3.89s-2.11,4.73,0,5.2a9,9,0,0,0,2.24-.15,3.13,3.13,0,1,1-2.14,5.32c0-1.8-3-2-4-.51s-.28,3.54.63,5.09,2.12,3,2.28,4.84c.36,3.85-4,6.53-4.86,10.31-.42,2,.17,4,.38,6s-.12,4.33-1.8,5.45-4.63-.39-4-2.29c-.32.92-4,4.4-4.86,5.53-1.3,1.72-1.09,3.37-3.67,3.53C121.4,118.11,124,113.63,126.93,110.32Z"/><path class="cls-16" d="M159.72,55.51c1.22.48,2.59.36,3.87.65a6.61,6.61,0,0,1,4.15,9.21,2.32,2.32,0,0,0-.43,1.17,1.89,1.89,0,0,0,.64,1.14c2.34,2.51,5.19,4.69,6.57,7.83a10.2,10.2,0,0,0,1.39,2.78,2.09,2.09,0,0,0,2.78.48c.44-.39.6-1,1-1.46,1-1.12,3.05-.89,3.77-2.18.58-1.07-.26-2.43-1.34-3a23.85,23.85,0,0,0-3.5-1,12.73,12.73,0,0,1-4.25-2.87,7.06,7.06,0,0,1-2.21-2.77,14.7,14.7,0,0,1-.38-2.66,14,14,0,0,0-1.14-3.42l-3.79-8.8a32.72,32.72,0,0,0-2.35-4.7,2.46,2.46,0,0,0-1.08-1.06,1.86,1.86,0,0,0-2.21,1.32,8.59,8.59,0,0,0,0,2.68C155.85,47.76,155.18,53.75,159.72,55.51Z"/><path class="cls-17" d="M161.06,114.4a6.15,6.15,0,0,0,5.34-4.1c.35-1.07.39-2.22.82-3.25.8-1.92,2.78-3.18,3.47-5.13.6-1.72.21-3.93,1.61-5.09a13.46,13.46,0,0,0,1.5-1.06,2.88,2.88,0,0,0,.49-2.17c-.22-2.48-1.48-4.72-2.71-6.88a4.33,4.33,0,0,0-1.66-1.9c-3.12-1.51-2.16,11.69-2.55,13.93S163.94,114.23,161.06,114.4Z"/><path class="cls-18" d="M192.86,185.75l-2.69,3.81c-1.17,1.66-2.85,3.54-4.83,3.09a4.1,4.1,0,0,1-2.67-3.05,7.42,7.42,0,0,1,1-6.47,5.59,5.59,0,0,1,6-2,4.52,4.52,0,0,1,2.88,5.41"/><path class="cls-19" d="M199.54,360.41c-5.63.91-9.6,7.59-15.28,7-.18-1.36,1-2.57,2.18-3.15s2.63-.75,3.88-1.31c1.68-.76,3-2.16,4.47-3.27s3.41-1.94,5.16-1.32l0,2.08-1.77.62"/><path class="cls-20" d="M173.09,350.43l-9.87,4.38a4,4,0,0,1,1.48-3.91,11.8,11.8,0,0,1,4-1.9,5.84,5.84,0,0,1,3.38-.41c1.11.31,2,1.61,1.47,2.63l-1.17,0"/><path class="cls-21" d="M160.35,260.41c-5.38,1-8.26,8.44-13.72,8.27a3.57,3.57,0,0,1,.46-3.66,10.64,10.64,0,0,1,3-2.49c3.28-2.12,6.77-4.32,10.67-4.51v3.19a1.33,1.33,0,0,1-1.78-.84"/><path class="cls-22" d="M115.91,376.51a24.76,24.76,0,0,0-2.46-2.74c-1.55-1.1-3.64-.86-5.54-.78s-4.14-.27-5-1.94c-.38-.69-.45-1.51-.77-2.23-.93-2.11-3.88-3.45-3.46-5.71.33-1.76,2.59-2.42,4.35-2.08,5,1,10.32,1.7,14,5.66C119.54,369.41,120.76,381.23,115.91,376.51Z"/><path class="cls-23" d="M46.85,339a9.52,9.52,0,0,1,1.33,5.63c-7.71.11-14.83-6.76-15-14.46,1.08,1.68,2.28,3.46,4.15,4.19s4.49-.27,4.63-2.26a4,4,0,0,0-1.1-2.66c-2.62-3.1-7.28-4.69-8.35-8.6s1.85-8.14-.13-11.51c-2.19.3-2,5.06-4.12,4.49a2.1,2.1,0,0,1-1.08-.9,9.1,9.1,0,0,1-.52-9.42A19.75,19.75,0,0,1,19.54,300c-.72,2.43,1.3,4.7,2.92,6.65s2.88,5.07,1,6.78a14.57,14.57,0,0,0-7-7.18c-.79,4.62,3.73,8.17,7.37,11.1s7.09,8.25,4.13,11.88a4.86,4.86,0,0,0-4.45-4.84,145.44,145.44,0,0,0,15.7,28.94c2.39,3.42,5,6.8,8.48,9.09,1.84,1.21,3.89,2.1,5.53,3.56a29.27,29.27,0,0,1,4.14,5.41A36.25,36.25,0,0,0,75.5,385c.38-5.82-11.82-6.26-11-12a2.51,2.51,0,0,0,3.48.78L45.67,356.06c-2.33-1.85-4.93-4.67-3.67-7.37,1.06-1.62,3.6-.42,4.94,1s3.37,3.06,4.93,1.9a9.14,9.14,0,0,0,1-5.58,11.19,11.19,0,0,1,9,2.37A42,42,0,0,1,66,353c4.46,5,12.42,8.83,19.16,7.4-2.89-5.23-12.09-9.67-17.33-12.57A105.17,105.17,0,0,0,46.85,339Z"/><path class="cls-24" d="M91.56,361.38a5,5,0,0,1,3.58,2.22c.68,1.28.07,3.25-1.37,3.46-.63.09-1.27-.15-1.9-.05-1.86.29-2,2.92-1.6,4.77-4,1.32-9,1.72-11.94-1.31a6.77,6.77,0,0,1-1.92-4.74,5.07,5.07,0,0,1,5-.72,11.51,11.51,0,0,0,2.15.9,3.52,3.52,0,0,0,3.23-1.48,10.2,10.2,0,0,0,1.51-3.4l2.78-.07"/><path class="cls-25" d="M74,328.74l6.59,3.19a6.11,6.11,0,0,1,3.13,2.52c.57,1.24-.18,3.11-1.54,3a3.2,3.2,0,0,1-1.48-.61,19.78,19.78,0,0,0-7.13-2.61c-1.21-.19-2.79-.06-3.2,1.1a8.28,8.28,0,0,1,5.15,7,1.37,1.37,0,0,1-1.8-.29c-.47-.48-.73-1.13-1.16-1.66-1.41-1.75-4.16-1.63-6-2.94-1.08-.78-1.81-2-3-2.57s-2.9-.12-4.35-.31-3-1.79-2.09-3a11.63,11.63,0,0,1,7.47.64,3.16,3.16,0,0,0,2.34.44,2.44,2.44,0,0,0,1.1-1.08c.8-1.3,1.4-2.83,2.7-3.6s3.53,0,3.32,1.5"/><path class="cls-26" d="M114.32,329.32c1.14-1.61.62-4-.67-5.46a12.64,12.64,0,0,0-5-3.08c-1.38-.57-2.77-1.11-4.17-1.63s-3.59-.66-3.9.82l7.18,6.63c1.83,1.68,4,3.49,6.45,3.22"/><path class="cls-27" d="M75,310.85a7.29,7.29,0,0,1,5.91,8.5c-.5.53-1.1-.5-1.48-1.13-.62-1-2-1.11-3.19-1.11H68.43l-.49-4.43c-.15-1.32-.18-2.91.9-3.68s2.75-.13,3.86.73,2.25,1.95,3.66,1.94"/><path class="cls-28" d="M60.3,299.42a1.31,1.31,0,0,1-.2.76c-.44.57-1.34.17-1.91-.27l-12-9.06c-7.36-5.55-14.77-11.16-20.89-18.05-2-2.21-3.89-4.95-3.37-7.85A8,8,0,0,1,29,269.67a28.77,28.77,0,0,0,1.4,3.55c1.07,1.76,3.09,2.68,4.51,4.17,1.24,1.31,2,3,3.24,4.32s3.39,2.1,4.85,1a6.24,6.24,0,0,0,.69-3.72c1.62-.79,3.36,1,3.88,2.72s.64,3.74,2,4.93c2.15,1.87,5.53,1.28,7.66,3.46S60.42,296.72,60.3,299.42Z"/><path class="cls-29" d="M12.15,289.4,7.71,266.13c-1.12-5.88-2.26-11.83-4.77-17.26,1.65-1.42,4.26-.33,5.84,1.17s3,3.48,5.08,4,4.7-2.1,3.22-3.7a9.79,9.79,0,0,1-7.83-10.78,34.84,34.84,0,0,0,12.86,5.88c.92-2.28-1.09-4.66-3.11-6.06s-4.45-2.81-4.92-5.22c-.29-1.51.3-3,.22-4.58s-1.44-3.26-2.88-2.71l-.2,3-2.49-.14c-1.89-1.75-.36-5,1.63-6.61s4.58-3.11,5-5.66c.63-4.14-5.1-8.32-2.65-11.71.71-1,2-1.53,2.46-2.64.89-2.06-1-5.55,1.22-6.13-2,.2-3.86-1.4-4.63-3.27a14.38,14.38,0,0,1-.61-6,8.09,8.09,0,0,1,.81-3.91,2.8,2.8,0,0,1,3.42-1.31c-.46,2.36,2.56,4.56,4.66,3.4,2.27-7.59-4-15-4.73-22.92-.32-3.43.43-6.85,1.17-10.21l7.53-34L27,105c-1.62-.94-3.27,1.18-3.94,2.93-14.4,37.68-16.85,78.69-19.15,119-.73,12.75-1.46,25.56-.19,38.27A138.3,138.3,0,0,0,9.27,292c.55,1.77,2.25,10.51,4.48,10.84,2.48.37,3.34-5.2,3.5-6.8C14,295.54,12.72,292.34,12.15,289.4Z"/><path class="cls-30" d="M123.29,273.53a26,26,0,0,0-6.47-5.37l-15.09-10c-2.2-1.46-4.51-3-7.13-3.25-1.89-.21-3.88.22-5.66-.44-2.26-.83-3.61-3.18-5.7-4.37-2.36-1.33-5.55-1.15-7.41-3.12-1.53-1.62-1.73-4.29-3.54-5.58s-4.25-.6-6.45-.6a10.17,10.17,0,0,1-9.79-10,7.51,7.51,0,0,0-.18-3c-1.16-2.94-5.56-1.76-8.24-.09l-.21-4.83L40,216.09c-1.25-1.13-2.6-2.53-2.41-4.21a5.46,5.46,0,0,1,2.05-3.07c1.06-1,2.56-2,3.8-1.28a3.51,3.51,0,0,1,1.27,1.88,43.52,43.52,0,0,0,10.28,15.16,3.75,3.75,0,0,0,2.67,1.36c2.29-.18,3.88-4.12,5.76-2.81l1.06,3.52-1.86,1.75c3.22,4.62,7.44,9.76,13.06,9.45,1.65-.09,3.3-.67,4.92-.34s3.08,2.21,2.17,3.59c-1.16,1.74-3.84.31-5.31-1.17a2.92,2.92,0,0,0-1.36,3.73l32.49,15c4.82,2.22,8.82,5.66,13.41,8.25,4,2.24,5.49,3.34,5.09,8.55C125.33,275.88,124.42,275,123.29,273.53Z"/><path class="cls-31" d="M106.25,271.55a17.82,17.82,0,0,1-3.59-1.2c-1.06-.59-1.91-1.49-2.93-2.14-1.8-1.15-4.07-1.46-5.8-2.72-1-.71-1.73-1.68-2.64-2.47a8.86,8.86,0,0,0-9.37-1.23c2.85-.89,5.49,1.74,7.32,4.1l.76,1c1.47,1.89,3.3,4,5.69,3.9,1.19,0,2.33-.61,3.52-.6,2,0,3.57,1.61,5.07,2.93s3.65,2.49,5.41,1.54c1.18-.63,4.29,7.95,8,4.16C115.61,275.65,109.93,272.66,106.25,271.55Z"/><path class="cls-32" d="M42.79,244.19c1.35,1.28,3,2.23,4.29,3.59s2.13,3.4,1.37,5.11a2.83,2.83,0,0,1-2.89-.82,14.27,14.27,0,0,1-1.82-2.58c-1.86-2.83-4.72-4.8-7.13-7.16s-4.5-5.54-4-8.89a1.42,1.42,0,0,1,.38-.92,1.65,1.65,0,0,1,1-.3C41.92,231.56,38.28,239.9,42.79,244.19Z"/><path class="cls-33" d="M27,150.22a2.89,2.89,0,0,1,5.14,2.53c-.52,1.53-2.16,2.33-3.18,3.59-2.51,3.09-.57,7.71,1.74,10.95a11.66,11.66,0,0,1,2.3,4.23c.33,1.58-.28,3.5-1.78,4.08.87,3.08,5.09,3.55,7.32,5.84,1,1,1.57,2.33,2.69,3.13,1.49,1.06,3.49.91,5.25,1.41s3.46,2.51,2.42,4a5.83,5.83,0,0,1-6-1.2A3.36,3.36,0,0,1,38.8,191a11.59,11.59,0,0,0,.08-5.52c-.56-1.77-2.31-3.31-4.14-3-2.6.48-3.23,4.06-2.35,6.55s2.66,4.74,2.76,7.38c.06,1.83-1.48,4-3.2,3.37-1.42-.53-1.63-2.46-1.27-3.93s1-3,.51-4.42-1.81-2-2.7-3.11c-3.72-4.44,1.36-11.83-1.56-16.84a23.34,23.34,0,0,0-1.35,11,3.94,3.94,0,0,1-3-3.19,13.91,13.91,0,0,1,.07-4.64,42.92,42.92,0,0,0-1.29-15.91,3.28,3.28,0,0,0-.67-1.45,7.82,7.82,0,0,0-1.37-1,3,3,0,0,1-1-3.42l2.41,1c1.29-2.64.09-5.74-.38-8.64S20,135,23.6,134.3C23.68,139.92,24.2,145.2,27,150.22Z"/><path class="cls-34" d="M96,210a14.18,14.18,0,0,0-1.65-1.81,13.06,13.06,0,0,0-2.21-1.47l-6.11-3.5a2.67,2.67,0,0,0-2-.5c-.67.21-1,1.34-.3,1.6Q97.6,215,110.51,226.85c1.13,1,2.88,2.1,4,1.09,3.39-3-5.84-6.71-7.33-7.74A55.71,55.71,0,0,1,96,210Z"/><path class="cls-35" d="M106.61,182.41c-.21-1.37-1.55-2.27-2.85-2.73a16,16,0,0,1-3.88-1.41c-1.14-.76-2.47-2.09-3.58-1.3-.55,1.09.53,2.26,1.52,3a43.12,43.12,0,0,0,4.83,2.93,4.36,4.36,0,0,0,2.82.69c1-.19,1.77-1.32,1.28-2.18"/><path class="cls-36" d="M104.49,141.37a27.46,27.46,0,0,1,6.39,3.76,9.24,9.24,0,0,1,3.43,6.36l-8.87-4.92c-2.38-1.31-5.12-3.3-4.74-6a.83.83,0,0,1,.33-.64.94.94,0,0,1,.89.13l3.49,1.75"/><path class="cls-37" d="M88.9,128.94l4.48.21a14.17,14.17,0,0,0-6.53-4.89,4.52,4.52,0,0,1-5.68,3c1-3.26-.42-6.8-2.47-9.51s-4.74-4.87-7-7.44a27.89,27.89,0,0,1-5.33-9.23c-1.49-4.34-2.32-9.59-6.32-11.83a1.66,1.66,0,0,0-1.54-.21c-.72.41-.54,1.49-.24,2.27a64.45,64.45,0,0,0,10.42,18.5c1.85,2.25,4,4.53,4.39,7.42.28,2-.3,4,0,5.94.41,3.24,2.94,5.75,5.33,8l5.77,5.42c2.07,1.93,5.58,4.67,6.53,1.17.24-.91-1.5-1.85-1.65-2.72A22.88,22.88,0,0,1,88.9,128.94Z"/><path class="cls-38" d="M48,93.57c-4,2.71-5.54,8-5,12.76s2.7,9.19,5,13.43a3.87,3.87,0,0,1,.66,2.34,10.72,10.72,0,0,1-1.1,2.26c-.66,1.6.19,3.38,1,4.9a12.24,12.24,0,0,0,3,4c1.73,1.34,4,1.65,5.95,2.74s3.34,3.74,1.92,5.42c-.94.8-2.46.23-3.27-.72s-1.23-2.16-2.06-3.08c-1.69-1.87-4.83-2.24-5.94-4.5-.48-1-.48-2.14-1-3.1-1-2-3.67-2.37-5.8-3.14s-4.21-3.33-2.75-5.06,4.06-.32,5.72,1.06c1.11-.61,1-2.29.36-3.38s-1.7-1.93-2.15-3.11a10.08,10.08,0,0,1-.2-3.84c.1-3.85-1.67-7.47-2.57-11.21S39.1,93,42.22,90.77c-.6,1.11,1.61,1.77,2.43.81,1.43-1.64.83-3.82,3.34-3.74C48.12,88.63,48.7,93.13,48,93.57Z"/><path class="cls-39" d="M37.7,114.87c-1.9,1.3-4.31-2-6.49-1.26a2.71,2.71,0,0,0-1.57,2.56,13.12,13.12,0,0,0,.56,3.14c1,4.42-.22,9-1.44,13.37-.46,1.69-1.13,3.6-2.77,4.21-1.23-1.81-.94-4.26-.19-6.31s1.92-4,2.37-6.12c1-4.95-3.5-13.88,1.86-17.44C34.73,103.91,41,112.59,37.7,114.87Z"/><path class="cls-40" d="M43,81a6.73,6.73,0,0,1-1.21,2.79,2.34,2.34,0,0,1-2.75.73,12.17,12.17,0,0,0-1.19-.84c-1.21-.51-2.35.82-3,2a85.72,85.72,0,0,0-5.7,12.94c-.36,1.06-.88,2.3-2,2.54-.83-2.13,0-4.51.93-6.61C31,87.77,34.43,78.41,39.56,73,46.5,65.7,44.09,76.72,43,81Z"/><path class="cls-41" d="M80,41.79a3.27,3.27,0,0,1,4.13.55,3.33,3.33,0,0,1,.07,4.18c-1,1.26-3,1.84-3.31,3.44s1.5,2.89,2.19,4.43a3.72,3.72,0,0,1-1.77,4.7A18.93,18.93,0,0,0,85,64.64a2.89,2.89,0,0,1,3.74,3,7.64,7.64,0,0,1-2.92.46c-1.47,2.77-3,5.89-2.15,8.91.28,1,.82,2,1,3.05a2.61,2.61,0,0,1-1,2.82,2.32,2.32,0,0,1-3-1.2,5.25,5.25,0,0,1-.15-3.48,3.06,3.06,0,0,1-1.85.36c-.92-1.87-.16-4.07.37-6.07a26,26,0,0,0-2.28-18.85c-1.18-2.17-2.73-4.49-2.16-6.89.35-1.51,1.5-2.71,2-4.19.75-2.41-.41-5.23.75-7.47.8-1.56,4.11-3.22,5.56-1.53C84,34.8,80.35,39.89,80,41.79Z"/><path class="cls-42" d="M73.78,33.12c-1.5.78-3.79.82-4.19,2.47-.33,1.34,1,2.44,2.08,3.29s2.11,2.43,1.23,3.49c-.28.62-1.09-.15-1.56-.64-1-1-2.83-.41-3.72.71S66.41,45,65.68,46.25,63.49,48.53,62.17,48c-.85-2.45.84-5,2.39-7.06C67.3,37.22,70,30.2,73.5,27.41,78.59,23.36,76.58,31.65,73.78,33.12Z"/><path class="cls-43" d="M92.47,9.94a4,4,0,0,1,3.3,4.2A3.43,3.43,0,0,1,91.5,17a10.73,10.73,0,0,1-2.71-2c-.9-.68-2.2-1.13-3.11-.46-1,2.83,3.14,5.9,1.58,8.45-1.88.41-4.36.54-5.17-1.2A3.84,3.84,0,0,1,82,19.38a17,17,0,0,1,3.14-6.75c1.55-2,4.31-3.75,6.5-2.47"/><path class="cls-44" d="M116.08,123.55a3,3,0,0,1-3-1,16.38,16.38,0,0,1-1.78-2.82c-2.61-4.35-9.14-7.41-10-12.56C106.85,105.42,114,119.61,116.08,123.55Z"/><path class="cls-45" d="M106.45,133.43a2.92,2.92,0,0,1,3.53-3.57,49.28,49.28,0,0,0,.54,8,9,9,0,0,1-4-5"/><path class="cls-46" d="M60.18,147.37a7.49,7.49,0,0,1,3.77,5.9,4.95,4.95,0,0,1-5.38-7.4,4.62,4.62,0,0,0,2.52,2"/><path class="cls-46" d="M74,155.71a3.84,3.84,0,0,1,2.73,4.52c-3.17.59-6.29-3-5.26-6.07a11.7,11.7,0,0,1,3.4,2"/><path class="cls-47" d="M69.57,162.81a4.41,4.41,0,0,1,6.33,4.82,11.83,11.83,0,0,1-5.32-1,4.47,4.47,0,0,1-2.52-4.45,4.55,4.55,0,0,1,2.78.83"/><path class="cls-48" d="M116.12,329.81a54.39,54.39,0,0,1,6.35,7.3,5.31,5.31,0,0,1,1.12,2.33,1.91,1.91,0,0,1-1.15,2.1,2.11,2.11,0,0,1-1.58-.26c-2.55-1.37-3-4.93-5.15-6.88-.87-.8-2.12-1.93-1.39-2.85a3.46,3.46,0,0,1,2.18-.61"/><path class="cls-49" d="M188.45,373.31l-11.17,2.22c-1,.19-2.2,1.08-1.58,1.83a9.6,9.6,0,0,0,12.24-4.22"/><path class="cls-50" d="M162.1,300.15c-.12-2.5,2.52-4.17,4.88-5,1.57-.55,3.35-1.09,4.16-2.54.26-.46.4-1,.64-1.45,1.1-2.16,4.14-3,6.32-2.84C177,292.51,162.07,299.59,162.1,300.15Z"/><path class="cls-51" d="M229.12,203.16c-.56,2.13.78,4.76-.67,6.43s-4.41.53-6.72.88a7.66,7.66,0,0,1,6.88-7.61"/></g></g></g></svg>