<svg xmlns="http://www.w3.org/2000/svg" viewBox="0 0 257.52 630.88"><defs><style>.cls-1{fill:#8eb795;stroke:#000;stroke-width:2px;}.cls-1,.cls-2{stroke-miterlimit:10;}.cls-2{fill:#f1eca1;stroke:#9fdca2;}</style></defs><g id="Layer_2" data-name="Layer 2"><g id="plants"><g id="croton1"><path class="cls-1" d="M99.52,584.16a570.31,570.31,0,0,1-73.81-148.9C13.88,398.78,5.74,361,2.53,322.81-5.82,223.43,20.32,121.48,75.46,38.38,83.57,26.16,92.31,14.3,99.1,1.3c64.91,29.23,116.81,86.13,140,153.45,14.07,40.91,17.79,84.72,17.42,128a629.91,629.91,0,0,1-5.82,81.65C244,412,231,459.44,205.8,500.38c-26.12,42.41-64.06,76-101.43,108.94L87,624.63c-9.39,8.28-22.64,6.8-9.93-4.75C88.06,609.89,96.58,599.18,99.52,584.16Z"/><path class="cls-2" d="M78.1,627.38c1.26.78,11.07-7.52,11.69-8,4.87-3.42,7.61-6.25,9.27-8.84a161.52,161.52,0,0,0,11.43-21.27c4.78.22,13.55-4.6,16.43-6.16,5.21-2.82,9.54-7,13.81-11.11l17.54-16.93c3.91-3.77,7.95-7.75,9.73-12.89l-35.76,30.29c-4.18,3.54-8.54,7.18-13.8,8.73-.84.25-3,.73-5.13,1.41a206.5,206.5,0,0,0,7.39-22.17l47.61-37.7c8.19-6.48,16.39-13,23.71-20.42a126.65,126.65,0,0,0,24-34.23c-1.91-1.1-4.46-.1-5.89,1.57s-2.1,3.86-2.94,5.9c-5.9,14.15-21.11,21.49-33.22,30.91-11.41,8.88-20.54,20.23-31.35,29.79-4.05,3.58-11.65,11.4-17.25,12.06a7.36,7.36,0,0,1-1.69,0c2.19-10,3.83-20.1,5.09-30.34a15.49,15.49,0,0,0,3.7-2.33q20-16.07,38.93-33.5a116.92,116.92,0,0,0,13.41-13.94c2.86-3.69,5.31-7.7,8.32-11.27,4.16-5,9.28-9,14.1-13.31a149.59,149.59,0,0,0,27.69-33.27c4.41-7.22,8.28-15.05,9-23.48.24-2.78.07-5.77-1.53-8.06-1,6.76-4.93,12.69-8.75,18.36l-14.82,22c-3.66,5.45-7.4,11-12.47,15.15-6.12,5-14,8-19.11,14-2.3,2.74-3.91,6-5.8,9-4.58,7.37-10.82,13.54-17,19.64l-14.23,14c-6.27,6.19-11.5,11.23-19.91,12.64,1.16-12.6,1.88-25.27,2.48-37.82,24.7-18.42,45.82-41.13,66.8-63.7l12.49-13.46a118.51,118.51,0,0,0,9.74-11.39,99.14,99.14,0,0,0,7.13-12,294.05,294.05,0,0,0,23.79-61.32c1-3.92,1.61-8.95-1.74-11.23.49,3.1-.57,6.21-1.61,9.17-5.41,15.34-10.87,30.77-18.9,44.91a227.79,227.79,0,0,1-14.08,21.29c-16.07,22.12-33.57,43.32-53.53,62-6.82,6.4-18.64,21.09-28.82,19.66l-.55-.1q.92-21.79,1.3-43.61l.08-.06c26.25-19,46.23-45.22,65.81-71l13.49-17.79a253.57,253.57,0,0,0,14.65-20.75,125.85,125.85,0,0,0,15.61-89.64c-1.75,2.17-1.45,5.27-1.19,8.05,2,21.27-3.39,42.77-12.53,62.09s-21.9,36.69-35.19,53.42Q172.94,359,148,385.41c-2.09,2.22-4.29,4.5-7.12,5.66-2.63,1.07-4.42.87-5.87.09q.19-22.4-.14-44.79c3.31-1.53,7.48-6.79,9.39-8.47,8.49-7.49,17.21-14.85,24.25-23.79,3-3.84,5.72-7.94,8.4-12l20.82-31.71c3.34-5.08,6.68-10.17,9.84-15.38,17.21-28.34,29.09-61.72,23.72-94.44a64.12,64.12,0,0,0-5.35-17.8c-1.44-.58-3,1-3,2.58s.9,2.92,1.65,4.27c5.42,9.68,3.42,21.65,1.26,32.53-2.25,11.34-4.52,22.75-8.62,33.56-3.79,10-9.08,19.3-14.35,28.58-16.75,29.48-33.91,59.49-59,82.29-1.82,1.65-3.86,3.35-6.32,3.57a25.29,25.29,0,0,1-3-.09q-.51-22.35-1.51-44.69c3-.49,6.8-1.58,8.25-1.8A45.78,45.78,0,0,0,155.54,279c4-2.05,7.34-6.59,11.14-8.28-9.41,4.19-19.34,8.47-29.61,7.57a37.4,37.4,0,0,0-4.35-.3c0-.68-.07-1.37-.1-2.05a13.34,13.34,0,0,0,2-1.38A174.21,174.21,0,0,0,180.44,218c2.85-5.6,5.39-11.35,7.92-17.1,6.47-14.65,13-29.51,15.49-45.33a109.54,109.54,0,0,0,1-22.53,133.24,133.24,0,0,0-7.42-37.43c-1.37-3.87-3.11-7.92-6.56-10.13a140.9,140.9,0,0,1,2.14,81.84c-6.09,21.95-17.43,42-29.28,61.52-5.92,9.71-14.79,27.29-26.49,31-1.45.45-3.5.19-5.5.05q-.93-16.59-2.1-33.19c5.75-2,14.47-8.76,16.06-10,2.83-2.14,5.79-4.79,6.11-8.32a44.66,44.66,0,0,1-12.16,9.3,14.12,14.12,0,0,1-6.55,1.95c-1.33,0-2.67-.33-4-.26q-.67-9.06-1.4-18.12a4.37,4.37,0,0,0,1.56-.7c25.57-15.89,38.45-46.3,43.88-75.91a135.66,135.66,0,0,0,2.31-19.36,97.17,97.17,0,0,0-20.51-63c-2.59,4.68,1.58,10,4.46,14.54,5.3,8.27,6.6,18.42,7.25,28.23,1.18,17.91.6,36.11-4,53.48s-13.26,33.94-26.56,46c-3.72,3.38-6.66,3.91-9.62,2.66q-1.64-18.86-3.54-37.69l.48,0c5.19.34,11.42-5.87,15.23-8.78,2.93-2.23,6.09-5.37,5.37-9l-2.2,2.31c-4.23,4.44-8.86,9.11-14.88,10.27a21.4,21.4,0,0,0-4.37,1.44q-1-9.8-2.08-19.58c5.59-4.8,10.54-10.79,15.67-16.08a48.51,48.51,0,0,0,6.49-7.69c3.44-5.49,4.54-12.12,4.82-18.59,1.25-29.44-14.39-59-39.42-74.58,2,3.28,5,5.79,7.8,8.44C126.77,28,135.07,41.08,138.89,55.48s3,30.14-3.09,43.73c-3.47,7.76-8.38,10.65-15.12,15a10.41,10.41,0,0,0-1.32,1Q116,85.71,112.11,56.3l-.24-1.79a24.18,24.18,0,0,0,8.25-4.7c3-2.84,3.32-7.44,3.42-11.57a16.49,16.49,0,0,1-7.91,9.33,29.62,29.62,0,0,0-4.38,2.36c-2.15-15.5-4.87-31-11.07-45.35q4.13,34,7.77,67.7a19.15,19.15,0,0,0-4.58-.56A13.79,13.79,0,0,1,94.26,67c.12,3.1,2.22,5.84,4.81,7.55a29.5,29.5,0,0,0,8.63,3.35l.81-.44q2.16,20.37,4.07,40.73c-1.71-.73-4.5-.43-6-.77a20,20,0,0,1-11-6.83c-7.74-8.86-11.53-20.67-12.29-32.4s1.3-23.48,4.12-34.9c.13-.53.26-1.09.37-1.65.07.09.14.17.2.26,3.46,4.15,11.45,12,17.32,8.24-5.47-4.81-12.19-6.49-17.16-12.25a5.92,5.92,0,0,0-1.58-4C82,44.25,77.33,54.76,75.84,66c-2.53,19,5.4,38.65,19.36,51.52,2.25,2.08,14.13,10.57,17.84,5.65q.81,8.76,1.56,17.53l-.16-.1a3.09,3.09,0,0,0-1.6-.51,6.3,6.3,0,0,0-2,.83c-1.49.66-3.21.27-4.79-.12l-9.61-2.37a10.68,10.68,0,0,1-3.3-1.23A8.44,8.44,0,0,0,91,135.82c-.83-.24-2,.25-1.91,1.11a19.79,19.79,0,0,0,9.63,6.81c2.22.72,11.67,4,16.48,3.57q2.14,25.78,3.78,51.68c-1.82-.69-3.68-1.14-4.71-1.47-14-4.45-22.75-18.15-29.64-31.17-8.07-15.24-15.34-31-19.42-47.81s-4.83-34.6,0-51.15c.88-3,2-6,1.72-9.15-9.68,12.45-13.37,28.82-12.68,44.58s5.47,31.06,11.3,45.72c5.13,12.9,11.18,25.6,19.88,36.41,6.87,8.54,17.1,18.41,28.06,21.27a22,22,0,0,0,5.92.72q.42,7.09.79,14.19c-6.42-2.15-23.62-1.89-26.39-1.65a2.49,2.49,0,0,0-2,.83c3.71,2.49,22.23,7.08,28.61,4.89q.48,9.54.88,19.1c.41,9.83.68,19.75.87,29.72-2.53-1.87-5.53-3-8.38-4.42C90,258.2,76.26,233.3,64.05,209.92l-10.18-19.5c-3.1-5.94-6.22-11.91-8.37-18.25-6.34-18.65-4-38.93-3.24-58.61.1-2.64.09-5.53-1.56-7.6-3.34,15.87-6.19,32-5.76,48.19s4.34,32.66,13.52,46l-2.93,2.19c13.21,9.33,16.66,27.27,26.27,40.28,4.35,5.89,10.19,11.13,11.86,18.26A20.62,20.62,0,0,1,94.74,271.1L90.82,275c9.41-.7,17.72,2.33,25.59,7.17,1.52.93,3.76,2.84,5.92,3.54.23,18.25.21,36.62.17,54.92-5.52-4-12.6-6.8-18.58-10.29-18.69-10.92-28.79-31.73-42.54-48.45-5.52-6.72-11.75-12.89-16.56-20.13a109.16,109.16,0,0,1-8.37-16C29,229,22.69,211.32,22.25,193c-.12-4.93.26-10.1,2.89-14.27a6.91,6.91,0,0,0,.92-1.71,5.91,5.91,0,0,0-.17-3q-1.18-5-2.38-10-2.28,9.27-4.58,18.53a52,52,0,0,0-1.83,10.33,51,51,0,0,0,.75,9.31c3.21,22.51,7.29,45.94,21,64.09,3.15,4.18,6.74,8,10.1,12,9.42,11.22,16.93,23.9,25.54,35.75s18.66,23.12,31.57,30a135.6,135.6,0,0,1,16.43,10q0,14.48,0,28.8,0,8.4,0,16.77a18,18,0,0,1-3-.13,10.23,10.23,0,0,1-4-2.13,473.48,473.48,0,0,1-54.88-48.22c-15.42-15.82-30-33.06-38.63-53.39a110.87,110.87,0,0,1-7.73-27.57c-.73-5-1.42-10.71-5.43-13.85,1.31,6.43.1,13.13,1,19.63a59.74,59.74,0,0,0,2.94,10.86c4.76,14.07,9.64,28.37,18.23,40.5,4.83,6.81,10.72,12.79,16.59,18.73l51.54,52.18a55.19,55.19,0,0,0,6.28,5.76c5.39,4,11.27,9.06,16.89,12.75q-.37,21-1.42,41.63c-2.43-2.19-5.46-3.63-8.27-5.34-6.59-4-12-9.62-17.38-15.17L63.42,403c-22-22.76-44.68-46.73-53.92-77-.5-1.66-1.2-3.58-2.87-4.07a156.61,156.61,0,0,0,36,72.51c3.7,4.19,7.63,8.18,11.65,12.08a21.23,21.23,0,0,0-3,1.88c-1.81,1.3-3.64,2.7-5.81,3.19-1.26.29-2.65.28-3.74,1s-1.55,2.55-.43,3.21A2.61,2.61,0,0,0,43,416a60.61,60.61,0,0,0,15.89-4.9l3.94,3.72,42.25,39.77c2.76,2.59,9.57,11.34,14.95,14.51q-1.35,20.9-3.65,41.31a32.05,32.05,0,0,0-2.51-3L71.8,462.37c-7.56-8.08-15.14-16.17-22-24.87-5-6.35-9.61-13-14.2-19.67-6.85-9.92-13.79-20-17.66-31.41.07,7.08,3.14,13.74,6.14,20.16,8.1,17.27,16.41,34.87,29.53,48.73,4.72,5,10,9.41,14.95,14.17,11,10.58,20.29,22.72,30.54,34,3.16,3.48,10.53,14.13,15.61,14.15a7.31,7.31,0,0,0,.83,0q-2.05,16.54-4.9,32.65a9.24,9.24,0,0,0-.6-.84c-10.35-12.82-20.75-25.67-32.8-36.9-8.79-8.19-18.69-15.8-24-26.57-2.5-5.06-4.09-10.93-8.51-14.45,1.71,13,10.33,23.83,18.62,34l30.12,36.82c3.42,4.17,10.13,16.39,15.24,18a148.17,148.17,0,0,1-6.16,20.14c-1.62-4-5-7.76-7.23-11.09-7.74-11.26-11.5-25.71-22.38-34-.65-.49-1.85-.81-2.07,0,6.92,8.09,11.1,18,15.82,27.38a139.82,139.82,0,0,0,14.23,21.84c-1.4,8.43-5.18,15-9.12,22.24-1.53,2.81-18,16.56-18.67,21.08C73,628.59,76.51,626.4,78.1,627.38Z"/></g></g></g></svg>