<svg xmlns="http://www.w3.org/2000/svg" viewBox="0 0 323.42 410.73"><defs><style>.cls-1{fill:#afd19d;}.cls-2{fill:#d8ebb2;}</style></defs><g id="Layer_2" data-name="Layer 2"><g id="plants"><g id="fiddle-leaf1"><path class="cls-1" d="M167.61,403.84c-2.85,7.37-17.73,6.66-24.53,5.54s-13.52-1.91-19.62-5a82.28,82.28,0,0,1-43.32-58.17c-2-11.24-2.52-24.53-11.91-31-2-1.35-4.2-2.31-5.85-4-4-4.13-3.09-10.89-5.33-16.19-4.19-9.88-17.47-11.82-25-19.47-6.93-7-8-18-7-27.81s3.73-19.6,2.87-29.44C26.37,200.53,13.73,186.1,4.23,171,1.61,166.84.45,165.24,1,160.34c.83-7.29,8.53-17.81,7.05-25-1-4.77-7.14-7-7.4-11.86-.29-5.44,5.22-6.85,6.12-8.65C10.84,106.7,10.26,101.08,17,95s16-6.41,21.73-21.93c4-11-2.08-24.87,4.92-34.28,8.38-11.27,20.77-4,39.36-11.7,13.6-5.62,11.53-21.8,35.8-24.74,12.7-1.54,23.3,8.73,32.46,17.66,4.89,4.77,5.66,10.08,12.47,9.63,9.62-.64,8.36-14,11.54-18C183.16,2,193.44.07,206.06.78c7.19.41,14.53,6.4,23.07,9.61,12,4.5,16.66-2.56,23.06,3.85A119.85,119.85,0,0,1,265.65,30.9c3.64,5.34,10.37,9.23,13.46,14.74,3.23,5.77,2.67,13.3,4.4,17.72,9.71,6,10.77,22.8,1.88,29.92-1.57,1.25-3.42,2.31-4.4,4.06-1.81,3.21.09,7.4,2.95,9.72s8,.82,11.19,2.66c5.08,2.92,7.4,10.22,10.68,15.08a101.92,101.92,0,0,1,11.78,88.46C315,220.9,311,228.71,303.9,232.52c-3.62,1.94-4.5-1-8.13.87-12.18,6.41-12,16.18-15.38,26.27-1.42,4.26-4,6.87-5.13,10.89-1.09,3.82.94,10.71-.64,15.38-1.26,3.75-6.07,5.35-7.42,8.23l-8.39,17.93c-2.06,4.39-4.19,8.89-7.61,12.33-1.84,1.86-4.06,3.43-5.31,5.72a17.27,17.27,0,0,0-1.55,6c-2,15.28-7.1,29.75-12.56,44.16-4.33,11.42-15.13,19.82-27.65,23.52-4.48,1.32-5.76,4.52-10.26,5.79-3.86,1.09-7.78-.51-11.52-1.95C175,404.87,175.34,402.42,167.61,403.84Z"/><path d="M151.79,410.73A55.84,55.84,0,0,1,143,410l-2.52-.41c-5.83-.93-11.86-1.89-17.29-4.62A83.14,83.14,0,0,1,79.5,346.34c-.3-1.72-.58-3.53-.85-5.28-1.5-9.83-3.06-20-10.78-25.32-.65-.45-1.35-.86-2-1.26a18.5,18.5,0,0,1-3.92-2.83c-2.59-2.67-3.23-6.36-3.85-9.93a29.81,29.81,0,0,0-1.61-6.46c-2.4-5.66-7.87-8.61-13.66-11.73-4-2.14-8.07-4.36-11.2-7.54-7.57-7.69-8.08-19.65-7.18-28.33.33-3.18.84-6.4,1.34-9.52,1-6.49,2.11-13.2,1.53-19.8-1.21-13.82-9.37-25.81-17.25-37.41-2.13-3.13-4.33-6.36-6.35-9.57l-.3-.47C.93,167-.19,165.2.37,160.27c.35-3.12,1.87-6.68,3.47-10.45,2.17-5.08,4.41-10.34,3.58-14.34-.42-2.08-1.94-3.65-3.54-5.31-1.83-1.9-3.72-3.85-3.87-6.64-.22-4.11,2.64-6.16,4.53-7.51a6.33,6.33,0,0,0,1.66-1.46,57.18,57.18,0,0,0,3-7.59c1.52-4.49,2.83-8.37,7.38-12.47A38.19,38.19,0,0,1,23.18,90c5.42-3.17,11-6.45,15-17.17,1.73-4.69,1.55-10,1.38-15.22-.22-6.76-.45-13.75,3.62-19.22,4.92-6.61,11.1-7.08,18.93-7.66,6-.45,12.72-1,20.71-4.26,5.2-2.14,8.06-5.91,11.08-9.9,4.65-6.12,9.91-13.07,24.89-14.88,13.06-1.58,23.64,8.74,33,17.84A34.25,34.25,0,0,1,155.42,24c2.27,3.09,3.92,5.33,8.3,5,6-.4,7.46-6.24,8.73-11.39.66-2.65,1.23-4.94,2.35-6.32C183.67.4,195.59-.45,206.09.14c4.58.26,9.16,2.68,14,5.25a80.15,80.15,0,0,0,9.25,4.4A24.25,24.25,0,0,0,242.16,11c3.71-.44,6.91-.81,10.49,2.76a120.46,120.46,0,0,1,13.53,16.76,42.41,42.41,0,0,0,6.29,6.69c2.7,2.48,5.49,5.05,7.2,8.09,2,3.55,2.58,7.73,3.1,11.41a32.5,32.5,0,0,0,1.26,6.2c4.63,2.93,7.63,8.48,8,14.9s-1.93,12.47-6.27,16l-1.15.87a10.26,10.26,0,0,0-3.1,3c-1.66,3,.2,6.79,2.8,8.9,1.37,1.11,3.39,1.25,5.53,1.4a12.91,12.91,0,0,1,5.58,1.2c3.68,2.12,5.91,6.31,8.07,10.37a55.42,55.42,0,0,0,2.82,4.91c17.3,25.64,21.84,59.75,11.86,89-3.41,10-8,16.4-14,19.63a5.62,5.62,0,0,1-4.52.5,4.31,4.31,0,0,0-3.61.37c-9.42,4.95-11.22,11.78-13.29,19.7-.54,2-1.08,4.11-1.78,6.2a29.48,29.48,0,0,1-2.63,5.49,24,24,0,0,0-2.49,5.38,21.2,21.2,0,0,0-.16,6.44c.2,3.11.4,6.31-.49,9-.76,2.25-2.67,3.77-4.36,5.12a10.46,10.46,0,0,0-3.09,3.17l-8.39,17.93c-2,4.19-4.2,8.95-7.73,12.52-.54.53-1.1,1.05-1.65,1.55a16.19,16.19,0,0,0-3.56,4,16.47,16.47,0,0,0-1.47,5.79c-2,15.63-7.35,30.46-12.6,44.31-4.18,11-14.67,19.95-28.06,23.9a14,14,0,0,0-4.89,2.79,15.07,15.07,0,0,1-5.38,3c-3.94,1.11-7.8-.38-11.54-1.82l-.39-.15a37.77,37.77,0,0,1-5.24-2.49c-2.67-1.46-4-2.21-8.81-1.38C165.88,409.3,158.66,410.73,151.79,410.73ZM121.4,2.81a21.05,21.05,0,0,0-2.49.15c-14.43,1.75-19.31,8.17-24,14.38-3.13,4.13-6.09,8-11.61,10.32-8.17,3.37-15,3.89-21.1,4.34-7.5.57-13.43,1-18,7.15-3.8,5.12-3.59,11.58-3.36,18.42.17,5.29.35,10.77-1.46,15.7C35.25,84.42,29.18,88,23.83,91.11a37.34,37.34,0,0,0-6.38,4.34c-4.3,3.88-5.56,7.61-7,11.93a58.34,58.34,0,0,1-3.09,7.75,6.35,6.35,0,0,1-2.06,1.93c-1.86,1.33-4.17,3-4,6.4.12,2.31,1.77,4,3.51,5.82s3.38,3.49,3.88,5.94c.91,4.4-1.41,9.84-3.66,15.1-1.57,3.69-3,7.16-3.38,10.09-.51,4.49.47,6,2.84,9.8l.3.47c2,3.19,4.2,6.41,6.32,9.53,8,11.73,16.22,23.86,17.47,38,.59,6.75-.49,13.55-1.54,20.12-.5,3.09-1,6.3-1.34,9.45-.87,8.4-.39,20,6.82,27.29,3,3.05,7,5.21,10.89,7.31,5.74,3.09,11.67,6.29,14.24,12.36a31,31,0,0,1,1.7,6.74c.61,3.53,1.19,6.87,3.5,9.26a17.15,17.15,0,0,0,3.66,2.62c.69.41,1.41.83,2.09,1.3,8.18,5.66,9.78,16.09,11.33,26.18.27,1.74.54,3.55.85,5.26a81.8,81.8,0,0,0,43,57.71c5.25,2.64,11.18,3.59,16.92,4.51l2.52.4c7.1,1.18,21.21,1.62,23.82-5.13l.13-.34.35-.06c5.51-1,7.2-.08,10,1.46a37.62,37.62,0,0,0,5.08,2.42l.39.15c3.54,1.36,7.21,2.77,10.73,1.77a13.57,13.57,0,0,0,5-2.79,15.13,15.13,0,0,1,5.3-3c13-3.85,23.2-12.49,27.23-23.13,5.22-13.78,10.49-28.53,12.53-44a17.62,17.62,0,0,1,1.62-6.24,17.16,17.16,0,0,1,3.82-4.36c.53-.49,1.09-1,1.6-1.51,3.38-3.4,5.46-7.85,7.48-12.16l8.39-17.92a11.28,11.28,0,0,1,3.45-3.64c1.63-1.29,3.31-2.63,3.95-4.52.81-2.42.61-5.5.42-8.47a21.87,21.87,0,0,1,.21-6.88,25.17,25.17,0,0,1,2.61-5.66,28.52,28.52,0,0,0,2.52-5.26c.69-2.06,1.23-4.13,1.76-6.13,2.06-7.86,4-15.29,13.93-20.51a5.66,5.66,0,0,1,4.51-.48,4.28,4.28,0,0,0,3.61-.38c5.72-3.07,10.1-9.26,13.39-18.91,9.86-28.9,5.38-62.58-11.7-87.9a55.82,55.82,0,0,1-2.89-5c-2.08-3.89-4.22-7.92-7.58-9.86a11.93,11.93,0,0,0-5-1c-2.24-.16-4.56-.32-6.24-1.68-3-2.45-5.12-7-3.11-10.53a11.33,11.33,0,0,1,3.45-3.41l1.11-.84c4-3.22,6.18-8.77,5.8-14.87s-3.24-11.32-7.62-14L283,63.8l-.08-.2a31.65,31.65,0,0,1-1.41-6.69c-.51-3.57-1.08-7.62-2.95-11-1.61-2.87-4.32-5.36-6.95-7.78a42.59,42.59,0,0,1-6.48-6.91,119,119,0,0,0-13.38-16.57c-3.14-3.14-5.78-2.83-9.43-2.4A25.62,25.62,0,0,1,228.9,11a81.25,81.25,0,0,1-9.4-4.47C214.78,4,210.32,1.66,206,1.42,191.6.6,182.56,3.79,175.8,12.08c-1,1.16-1.51,3.42-2.1,5.82-1.32,5.3-2.95,11.89-9.89,12.36-5.08.34-7.1-2.39-9.43-5.55a32.18,32.18,0,0,0-3.54-4.26C142.32,12.15,132.75,2.81,121.4,2.81Z"/><path class="cls-2" d="M162.7,379.22c-.47-28.82-.59-57.65-.59-86.46q0-21.61.14-43.23l.25-43.21.3-43.22c0-7.26.89-14.45,1.63-21.6.38-3.57.74-7.15.92-10.73s.35-7.19.47-10.78a137.75,137.75,0,0,0-.65-21.5c-.84-7.12-2.28-14.24-2.3-21.53a86.82,86.82,0,0,1,.8-10.83c.43-3.59,1-7.15,1.34-10.71a64.89,64.89,0,0,0,.4-10.69,32.1,32.1,0,0,0-2.19-10.32.64.64,0,1,1,1.18-.49h0a33.29,33.29,0,0,1,2.21,10.73,66.89,66.89,0,0,1-.49,10.88c-.83,7.18-2.23,14.26-2.22,21.42s1.42,14.24,2.27,21.41a147.75,147.75,0,0,1,.72,21.65c-.1,3.61-.26,7.2-.42,10.81s-.51,7.21-.87,10.79c-.71,7.17-1.58,14.32-1.51,21.48l.12,43.22c.08,28.81.19,57.62.58,86.42s1,57.6,2,86.38a2,2,0,1,1-4.06.14Z"/><path class="cls-2" d="M164.73,381.86a2.67,2.67,0,0,1-2.67-2.58v0c-.41-24.88-.59-51.55-.59-86.47,0-13.25.06-26.72.12-39.74l0-3.49.25-43.22.3-43.21a167.76,167.76,0,0,1,1.29-18.46c.12-1.07.23-2.14.34-3.2.38-3.61.74-7.15.92-10.7v-.07c.17-3.51.34-7.14.46-10.7a139.09,139.09,0,0,0-.65-21.4c-.24-2.08-.54-4.19-.83-6.23A111.13,111.13,0,0,1,162.23,77a90.53,90.53,0,0,1,.8-10.91c.17-1.43.36-2.86.55-4.28.28-2.11.56-4.28.79-6.42a63.84,63.84,0,0,0,.4-10.59,31.3,31.3,0,0,0-2.15-10.11,1.29,1.29,0,0,1,2.38-1,33.83,33.83,0,0,1,2.25,11,65.33,65.33,0,0,1-.5,11c-.24,2.11-.54,4.25-.82,6.31a108,108,0,0,0-1.39,15A108.42,108.42,0,0,0,166,92c.29,2,.59,4.17.83,6.27a145.79,145.79,0,0,1,.73,21.75c-.1,3.52-.26,7.09-.4,10.55l0,.26c-.17,3.63-.51,7.2-.87,10.84l-.33,3.28a163.27,163.27,0,0,0-1.18,18.13l.12,43.22c.08,27.68.19,57.16.59,86.41.32,28.15,1,57.21,2,86.37a2.65,2.65,0,0,1-.72,1.91,2.7,2.7,0,0,1-1.86.85Zm-1.39-2.66v0a1.39,1.39,0,0,0,1.39,1.36h0a1.42,1.42,0,0,0,1-.44,1.39,1.39,0,0,0,.38-1c-1-29.17-1.64-58.24-2-86.39-.39-29.26-.5-58.74-.58-86.43l-.12-43.21c0-.6,0-1.19,0-1.79,0,.59,0,1.19,0,1.78l-.3,43.22L162.87,253c-.06,13-.12,26.48-.12,39.73C162.75,327.67,162.93,354.33,163.34,379.2Z"/><path class="cls-2" d="M200.37,396.91a69.44,69.44,0,0,1-11.15-9.1c-1.4-1.31-2.85-2.67-4.32-4-6.39-5.6-12.17-8.5-17.68-8.88l0-.64c5.66.39,11.56,3.35,18.06,9,1.48,1.29,2.93,2.65,4.34,4a69.36,69.36,0,0,0,11,9Z"/><path class="cls-2" d="M200.58,397.79l-.55-.33a70.88,70.88,0,0,1-11.25-9.18c-1.41-1.33-2.85-2.68-4.3-3.95-6.28-5.5-11.94-8.35-17.3-8.72l-.64-.05.13-1.92.64.05c5.79.4,11.83,3.41,18.44,9.2,1.47,1.29,2.92,2.65,4.32,4a68.92,68.92,0,0,0,11,8.95l.55.34Z"/><path class="cls-2" d="M241.38,329.87c-5.94,4.13-11.57,8.69-17.26,13.19a196.59,196.59,0,0,1-17.65,12.78,191.42,191.42,0,0,1-19.15,10.4c-6.55,3.14-13.2,6-19.86,8.92l-.44-1c6.67-2.85,13.33-5.7,19.87-8.79A189.4,189.4,0,0,0,206,355.09a194.78,194.78,0,0,0,17.65-12.63c5.71-4.46,11.38-9,17.37-13.12Z"/><path class="cls-2" d="M167.13,376l-.95-2.22.59-.25c6.17-2.64,13.17-5.63,19.85-8.78a189.77,189.77,0,0,0,19-10.22A189.78,189.78,0,0,0,223.25,342l2.44-1.91c4.83-3.78,9.81-7.69,15-11.23l.52-.36,1.09,1.58-.52.36c-5.08,3.53-10,7.45-14.8,11.24l-2.44,1.93a192.43,192.43,0,0,1-17.7,12.82,189.93,189.93,0,0,1-19.21,10.44c-6.69,3.21-13.7,6.25-19.88,8.93Z"/><path class="cls-2" d="M161.91,374.44a188.55,188.55,0,0,1-23-10.43c-3.72-1.93-7.48-3.81-11.13-5.92a67,67,0,0,1-10.39-7.22c-1.61-1.36-3.17-2.74-4.83-4a39.07,39.07,0,0,0-5.25-3.32c-3.66-2-7.57-3.73-10.84-6.51a47.28,47.28,0,0,1-4.42-4.54c-1.39-1.57-2.83-3.07-4.36-4.49a57.57,57.57,0,0,0-10-7.43L78,320a57.77,57.77,0,0,1,10.2,7.46c1.55,1.43,3,2.95,4.43,4.51A47.22,47.22,0,0,0,97,336.45c3.16,2.67,7,4.37,10.73,6.35a40.4,40.4,0,0,1,5.39,3.37c1.69,1.27,3.28,2.66,4.88,4,6.34,5.45,14,9.09,21.41,12.9a188.59,188.59,0,0,0,22.89,10.24Z"/><path class="cls-2" d="M162.3,375.26l-.6-.22a190,190,0,0,1-23-10.46l-1.83-.94c-3.08-1.59-6.26-3.23-9.33-5A67.43,67.43,0,0,1,117,351.36l-1.14-1c-1.18-1-2.41-2.06-3.65-3a38.29,38.29,0,0,0-5.18-3.27l-2.37-1.25a44.73,44.73,0,0,1-8.57-5.33,47.26,47.26,0,0,1-4.27-4.35l-.22-.25a61.19,61.19,0,0,0-4.32-4.44,56,56,0,0,0-9.92-7.35l-.55-.33,1-1.66.55.32A59.07,59.07,0,0,1,88.63,327c1.48,1.36,3,2.89,4.48,4.56l.19.2A45.17,45.17,0,0,0,97.42,336a42.51,42.51,0,0,0,8.24,5l2.38,1.24a39.14,39.14,0,0,1,5.47,3.42c1.3,1,2.55,2,3.76,3l1.15,1c5.73,4.92,12.63,8.42,19.31,11.81l2,1a189.52,189.52,0,0,0,22.81,10.21l.61.21Z"/><path class="cls-2" d="M213.75,393.75l-.6-.2a10.24,10.24,0,0,0-.91-7.78,31,31,0,0,0-4.89-6.56l-5.88-6.6c-2.61-2.92-5.86-6.57-10.14-7.7l.17-.62c4.46,1.18,7.78,4.91,10.45,7.9l5.88,6.59a31.88,31.88,0,0,1,5,6.7A10.78,10.78,0,0,1,213.75,393.75Z"/><path class="cls-2" d="M214.16,394.56l-1.83-.61.21-.61a9.58,9.58,0,0,0-.87-7.28,30.73,30.73,0,0,0-4.8-6.42L201,373c-2.55-2.86-5.73-6.43-9.82-7.51l-.62-.16.49-1.86.62.16c4.65,1.23,8,5,10.76,8.09l5.89,6.6a32.25,32.25,0,0,1,5.08,6.84,11.46,11.46,0,0,1,1,8.76Z"/><path class="cls-2" d="M226.45,368.47,217.79,364a52.3,52.3,0,0,1-4.82-2.71c-.49-.32-1-.66-1.46-1a27.45,27.45,0,0,0-2.81-1.81,7.54,7.54,0,0,0-4.74-1l-.1-.63a8.14,8.14,0,0,1,5.14,1.11,26.67,26.67,0,0,1,2.88,1.85l1.44,1a53.32,53.32,0,0,0,4.76,2.67l8.67,4.48Z"/><path class="cls-2" d="M226.73,369.33l-9.24-4.77a55.1,55.1,0,0,1-4.87-2.74c-.5-.33-1-.67-1.48-1A25,25,0,0,0,208.4,359a7,7,0,0,0-4.34-1l-.63.1-.3-1.9.63-.1a8.92,8.92,0,0,1,5.55,1.18,28.23,28.23,0,0,1,2.93,1.89c.48.34.95.67,1.43,1,1.5,1,3.13,1.82,4.71,2.64l9.23,4.78Z"/><path class="cls-2" d="M237.71,352.88a12.47,12.47,0,0,0-11.29-11.26l.06-.64a13.11,13.11,0,0,1,11.86,11.84Z"/><path class="cls-2" d="M237.13,353.57l-.06-.63a11.81,11.81,0,0,0-10.71-10.68l-.64-.06.18-1.91.64,0A13.75,13.75,0,0,1,239,352.76l.06.64Z"/><path class="cls-2" d="M141.82,395.93l-.51-.39c5.6-7.37,11.4-15,19.34-20.22l.35.53C153.16,381,147.39,388.6,141.82,395.93Z"/><path class="cls-2" d="M141.94,396.83l-1.53-1.16.39-.51c5.64-7.42,11.47-15.1,19.5-20.38l.53-.35,1.06,1.61-.54.35c-7.75,5.1-13.48,12.64-19,19.93Z"/><path class="cls-2" d="M117.08,387.27a28.37,28.37,0,0,1-3.78-.33c-2.48-.33-4.82-.63-7,.25l-.25-.59c2.32-1,4.86-.62,7.31-.29,2.28.29,4.64.6,6.74-.15a14.22,14.22,0,0,0,4.57-3.16l16.11-14.63a4.65,4.65,0,0,1,2.36-1.39l.09.63a4.13,4.13,0,0,0-2,1.24l-16.11,14.62a15,15,0,0,1-4.78,3.3A9.78,9.78,0,0,1,117.08,387.27Z"/><path class="cls-2" d="M106,388l-.73-1.78.59-.24c2.48-1,5.1-.67,7.64-.34,2.2.29,4.48.59,6.44-.11a14,14,0,0,0,4.35-3l16.11-14.62a5.28,5.28,0,0,1,2.7-1.56l.63-.09.28,1.9-.64.1a3.69,3.69,0,0,0-1.68,1.07l-16.11,14.62a15.18,15.18,0,0,1-5,3.43,10.07,10.07,0,0,1-3.47.54,30.92,30.92,0,0,1-3.86-.33c-2.4-.32-4.66-.62-6.66.21Z"/><path class="cls-2" d="M99.46,365.79a10.84,10.84,0,0,1-4-.71,19.3,19.3,0,0,1-1.91-.87,8.49,8.49,0,0,0-4.11-1.27l0-.65a9.33,9.33,0,0,1,4.43,1.35c.6.3,1.23.61,1.85.85,4.94,1.88,10.35-.68,13.14-2.37,1.59-1,3.14-2.09,4.63-3.17a46.74,46.74,0,0,1,7.21-4.57l.28.58a45.68,45.68,0,0,0-7.11,4.51c-1.51,1.09-3.06,2.21-4.68,3.19A19.68,19.68,0,0,1,99.46,365.79Z"/><path class="cls-2" d="M99.46,366.43a11.62,11.62,0,0,1-4.19-.75,20.52,20.52,0,0,1-2-.89,7.78,7.78,0,0,0-3.8-1.21l-.64,0-.08-1.93.64,0a10,10,0,0,1,4.73,1.41,19.34,19.34,0,0,0,1.8.83c4.68,1.79,9.89-.69,12.58-2.32,1.58-1,3.11-2.07,4.58-3.14a47.16,47.16,0,0,1,7.32-4.63l.58-.28.82,1.74-.58.27a46.39,46.39,0,0,0-7,4.46c-1.51,1.09-3.07,2.22-4.71,3.22A20.25,20.25,0,0,1,99.46,366.43Z"/><path class="cls-2" d="M86.57,344.37l-.18-.62a22,22,0,0,0,9.74-5.83l.46.45A22.75,22.75,0,0,1,86.57,344.37Z"/><path class="cls-2" d="M86.13,345.16l-.53-1.85.62-.17a21.47,21.47,0,0,0,9.45-5.66l.45-.46,1.38,1.34-.45.46A23.36,23.36,0,0,1,86.75,345Z"/><path class="cls-2" d="M117.86,395.81l-.64,0a48.65,48.65,0,0,1,1.26-8.41l.63.15A47.54,47.54,0,0,0,117.86,395.81Z"/><path class="cls-2" d="M118.46,396.49l-1.92-.12,0-.64a50.08,50.08,0,0,1,1.28-8.52l.15-.63,1.87.45-.15.63a47.22,47.22,0,0,0-1.23,8.19Z"/><path class="cls-2" d="M97.9,377.88c-.72-2.87.31-5.73,1.3-8.49.31-.87.64-1.78.9-2.66l.61.18c-.26.9-.59,1.82-.91,2.7-1,2.67-2,5.43-1.28,8.11Z"/><path class="cls-2" d="M97.43,378.65l-.15-.62c-.77-3,.29-6,1.32-8.85.31-.87.63-1.77.88-2.63l.19-.61,1.84.54-.18.61c-.27.92-.6,1.84-.92,2.73-.93,2.59-1.89,5.26-1.27,7.75l.16.62Z"/><path class="cls-2" d="M215.39,387.16c-.55,0-1.11,0-1.66,0l0-.64a28.57,28.57,0,0,0,10.06-1.23l.19.61A29.08,29.08,0,0,1,215.39,387.16Z"/><path class="cls-2" d="M215.39,387.8c-.56,0-1.13,0-1.7,0l-.64,0,.11-1.92.64,0a28,28,0,0,0,9.84-1.2l.61-.19.57,1.83-.61.19A29.7,29.7,0,0,1,215.39,387.8Z"/><path class="cls-2" d="M191.86,403.68l-.63-.13a35.8,35.8,0,0,0,.52-11.31l.64-.07A36.77,36.77,0,0,1,191.86,403.68Z"/><path class="cls-2" d="M192.36,404.44l-1.89-.39.13-.63a35.43,35.43,0,0,0,.52-11.11l-.07-.64,1.91-.21.07.63a37.49,37.49,0,0,1-.54,11.72Z"/><path class="cls-2" d="M165.45,334.51a9.31,9.31,0,0,0,4,1,16,16,0,0,0,4.28-.42,25.37,25.37,0,0,0,8.05-3.39q7.66-4.83,15.07-10,14.83-10.37,28.6-22.17,6.85-5.91,13.43-12.14c4.34-4.2,8.69-8.39,13-12.63l25.93-25.36.45.46L252.52,275.4c-4.28,4.27-8.6,8.5-12.92,12.74s-8.82,8.3-13.38,12.28q-13.71,11.93-28.53,22.47-7.41,5.26-15.06,10.17a27.14,27.14,0,0,1-8.54,3.67,18.12,18.12,0,0,1-4.72.49,11,11,0,0,1-4.73-1.18Z"/><path class="cls-2" d="M169.94,337.87h-.59a11.45,11.45,0,0,1-5-1.26l-.57-.3,1.42-2.66.57.31a8.53,8.53,0,0,0,3.71.93,15.53,15.53,0,0,0,4.11-.4,24.86,24.86,0,0,0,7.85-3.31c5.09-3.21,10.15-6.57,15-10,9.84-6.89,19.44-14.34,28.54-22.14,4.65-4,9.16-8.07,13.41-12.11l1.3-1.25c3.84-3.72,7.81-7.56,11.69-11.38l26.39-25.8,1.35,1.37-26.19,26c-3.82,3.81-7.74,7.66-11.54,11.38l-1.38,1.36c-4.25,4.1-8.76,8.24-13.41,12.3-9.1,7.92-18.71,15.5-28.58,22.52-4.9,3.48-10,6.91-15.08,10.18a27.56,27.56,0,0,1-8.75,3.75A19,19,0,0,1,169.94,337.87Zm-4.42-2.12a10.51,10.51,0,0,0,3.87.83,17.18,17.18,0,0,0,4.55-.47,26.72,26.72,0,0,0,8.35-3.58c5.09-3.27,10.14-6.69,15-10.16,6.6-4.69,13.08-9.64,19.38-14.77-6.34,5.08-12.86,10-19.49,14.62-4.91,3.44-10,6.81-15.09,10a26.22,26.22,0,0,1-8.26,3.48,17.25,17.25,0,0,1-4.45.44,10.57,10.57,0,0,1-3.68-.81Z"/><path class="cls-2" d="M163.32,332.94c-13.39-6.9-26.68-14.07-39.39-22.23-6.34-4.08-12.54-8.42-18.46-13.11-3-2.34-5.83-4.81-8.64-7.34s-5.48-5.19-8.15-7.85l-16-16c-5.29-5.33-10.78-10.56-15.32-16.66-2.27-3-4.32-6.18-6.52-9.22s-4.58-5.94-7-8.81L29.25,214.54l.49-.42,14.74,17.11c2.45,2.85,4.88,5.75,7.11,8.8s4.32,6.19,6.58,9.17c4.51,6,10,11.13,15.35,16.43L89.6,281.48c2.68,2.63,5.39,5.23,8.17,7.75s5.65,4.91,8.62,7.21c5.9,4.61,12.09,8.87,18.43,12.89,12.69,8,26,15.07,39.39,21.87Z"/><path class="cls-2" d="M163.6,333.81l-.58-.3c-12-6.19-26.07-13.68-39.43-22.26-6.91-4.44-13-8.75-18.52-13.15-2.62-2.06-5.37-4.4-8.67-7.37-3-2.7-5.79-5.49-8.18-7.86l-16-16-2.2-2.21a133.26,133.26,0,0,1-13.18-14.52c-1.31-1.74-2.55-3.55-3.76-5.3-.9-1.3-1.83-2.64-2.77-3.94-2.05-2.86-4.27-5.57-7-8.77l-15-17.69,1.45-1.25L45,230.81c2.76,3.21,5,5.95,7.14,8.84,1,1.32,1.91,2.66,2.83,4,1.21,1.72,2.46,3.5,3.74,5.19A133.49,133.49,0,0,0,71.77,263l2.2,2.17L90.05,281c2.39,2.34,5.22,5.09,8.15,7.73,3.26,2.89,6,5.17,8.58,7.18,5.51,4.31,11.52,8.51,18.38,12.86,13.31,8.41,27.36,15.76,39.34,21.84l.57.29ZM86.13,279l3,3c2.38,2.36,5.21,5.14,8.13,7.83,3.27,2.94,6,5.26,8.61,7.3,5.52,4.38,11.54,8.66,18.41,13.08,13.1,8.42,26.91,15.79,38.76,21.91l.31-.6c-11.88-6-25.73-13.3-38.88-21.61-6.89-4.37-12.94-8.6-18.48-12.93-2.61-2-5.36-4.32-8.64-7.24-2.95-2.66-5.8-5.42-8.2-7.76Z"/><path class="cls-2" d="M251.67,310.44c-4.89-.62-10-1.54-14.52-4-1.08-.59-2.13-1.28-3.15-1.94a21.18,21.18,0,0,0-7-3.41l.13-.63a21.7,21.7,0,0,1,7.18,3.5c1,.66,2.05,1.34,3.11,1.91,4.4,2.41,9.47,3.31,14.29,3.93Z"/><path class="cls-2" d="M252.22,311.16l-.63-.08c-5-.63-10.16-1.56-14.75-4.07-1.09-.6-2.16-1.29-3.18-2a20.72,20.72,0,0,0-6.75-3.32l-.63-.14.4-1.88.62.14a22.13,22.13,0,0,1,7.4,3.59c1,.65,2,1.32,3.07,1.88,4.3,2.36,9.3,3.24,14.06,3.85l.64.08Z"/><path class="cls-2" d="M64.7,296.23v-.64l15.68,0a20.44,20.44,0,0,0,4.69-.36,20.29,20.29,0,0,0,4.14-1.64l7-3.37.27.58-7,3.37a21.43,21.43,0,0,1-4.27,1.68,20.85,20.85,0,0,1-4.84.38Z"/><path class="cls-2" d="M64.06,296.87V295l16.32,0a19.7,19.7,0,0,0,4.55-.35,19.5,19.5,0,0,0,4-1.59l7.6-3.65.83,1.74-7.59,3.65a22,22,0,0,1-4.4,1.72,21.19,21.19,0,0,1-5,.4Z"/><path class="cls-2" d="M37.25,254.22c-.39,0-.79,0-1.18,0a3.84,3.84,0,0,1-1.39-.26l.26-.59a3.22,3.22,0,0,0,1.16.21,41.73,41.73,0,0,0,10-1.11c3.87-.75,7.87-1.53,11.84-.94l-.1.64c-3.85-.58-7.8.19-11.62.93A47.37,47.37,0,0,1,37.25,254.22Z"/><path class="cls-2" d="M37.25,254.86c-.41,0-.81,0-1.22,0a4.62,4.62,0,0,1-1.6-.31l-.59-.26.77-1.76.59.25a2.68,2.68,0,0,0,.94.16,40.55,40.55,0,0,0,9.83-1.1c3.93-.76,8-1.54,12.06-.94l.64.09-.29,1.9-.63-.09c-3.75-.56-7.64.2-11.4.93A48.42,48.42,0,0,1,37.25,254.86Z"/><path class="cls-2" d="M163.47,286.52a231.6,231.6,0,0,0,23.09-16.06c3.7-2.87,7.27-5.93,10.8-9,1.73-1.59,3.51-3.13,5.2-4.76l2.56-2.42,2.5-2.47c1.69-1.63,3.29-3.36,4.93-5s3.22-3.42,4.76-5.19c3.15-3.48,6.12-7.12,9.06-10.78s5.69-7.46,8.23-11.4a124.21,124.21,0,0,0,6.86-12.25c2.08-4.21,4-8.51,5.93-12.81l5.78-12.9L259,168.53a103.42,103.42,0,0,0,5.16-13.07c2.62-9,2.83-18.51,4.32-27.85.37-2.33.82-4.66,1.42-7s1.29-4.56,2.07-6.79c1.56-4.47,3.4-8.82,5.25-13.15l.59.25c-1.81,4.34-3.62,8.69-5.14,13.14-.75,2.22-1.43,4.47-2,6.75s-1,4.57-1.35,6.89c-1.41,9.27-1.53,18.82-4.14,28A105.39,105.39,0,0,1,260,169l-5.68,13-5.69,12.95c-1.89,4.32-3.79,8.64-5.85,12.9A122.76,122.76,0,0,1,236,220.27c-2.54,4-5.33,7.86-8.22,11.6s-5.9,7.4-9.06,10.93c-1.53,1.8-3.17,3.51-4.75,5.27s-3.24,3.44-4.93,5.1l-2.51,2.52-2.56,2.45c-1.69,1.66-3.47,3.23-5.2,4.84-3.54,3.13-7.11,6.24-10.83,9.18a233.7,233.7,0,0,1-23.2,16.39Z"/><path class="cls-2" d="M164.5,289.43l-1.92-3.12.55-.33a233,233,0,0,0,23-16c3.74-2.9,7.39-6,10.78-9l1.77-1.59c1.13-1,2.3-2.07,3.4-3.14l2.56-2.42,2.5-2.47c1.11-1.07,2.19-2.19,3.24-3.28l1.68-1.74,1.64-1.77c1-1.1,2.09-2.24,3.09-3.39,3.19-3.51,6.23-7.25,9.05-10.76,3.26-4.14,5.94-7.85,8.19-11.35a121.25,121.25,0,0,0,6.82-12.19c2.1-4.24,4.05-8.58,5.92-12.78l11.57-25.81a102.23,102.23,0,0,0,5.12-13c1.71-5.84,2.4-12,3.07-18,.35-3.2.72-6.49,1.24-9.73.41-2.62.88-4.92,1.42-7s1.27-4.5,2.09-6.84c1.58-4.54,3.46-8.94,5.27-13.19l.25-.59,1.77.74-.25.59c-1.76,4.23-3.59,8.61-5.12,13.11-.78,2.29-1.45,4.54-2,6.69s-.95,4.28-1.34,6.84c-.48,3.17-.82,6.44-1.15,9.61-.63,6.09-1.28,12.39-3,18.48a104.71,104.71,0,0,1-5.14,13.34l-11.36,25.9c-1.86,4.23-3.78,8.61-5.87,12.92a124.44,124.44,0,0,1-6.89,12.53c-2.3,3.64-4.93,7.34-8.26,11.64-2.82,3.57-5.87,7.37-9.08,11-1,1.19-2.08,2.36-3.12,3.49-.55.59-1.1,1.18-1.64,1.78l-1.67,1.76c-1.06,1.12-2.16,2.28-3.28,3.38l-2.5,2.51-2.57,2.47c-1.12,1.09-2.3,2.17-3.44,3.21l-1.77,1.63c-4,3.51-7.32,6.41-10.87,9.21A237,237,0,0,1,165,289.09Zm-.15-2.7.56.93a234.23,234.23,0,0,0,22.59-16c3.53-2.79,6.87-5.68,10.81-9.16.58-.54,1.17-1.09,1.77-1.63,1.13-1,2.3-2.1,3.4-3.18l2.57-2.47,2.5-2.5c1.11-1.09,2.19-2.24,3.25-3.35l1.67-1.75,1.62-1.78c1-1.12,2.1-2.28,3.11-3.46,3.19-3.57,6.23-7.36,9-10.91,3.31-4.26,5.91-7.93,8.19-11.54a123.84,123.84,0,0,0,6.82-12.4c2.08-4.28,4-8.65,5.85-12.87l6.39-14.57L248,194.6c-1.88,4.21-3.83,8.56-5.94,12.83a121.86,121.86,0,0,1-6.9,12.32c-2.27,3.53-5,7.28-8.25,11.45-2.84,3.53-5.9,7.28-9.1,10.81-1,1.16-2.07,2.31-3.11,3.41L213,247.2c-.58.59-1.13,1.17-1.69,1.75-1.05,1.09-2.15,2.23-3.26,3.31l-2.5,2.47L203,257.16c-1.12,1.08-2.3,2.14-3.44,3.16-.59.53-1.18,1.06-1.76,1.6-3.42,3-7.09,6.13-10.85,9.05A232.63,232.63,0,0,1,164.35,286.73Z"/><path class="cls-2" d="M161.4,271.45a132.23,132.23,0,0,1-24.66-16.14,225.62,225.62,0,0,1-21.38-20.2c-6.71-7.14-13.09-14.57-19.41-22a146.13,146.13,0,0,1-9.08-11.59c-1.39-2-2.67-4.14-3.89-6.28s-2.33-4.34-3.39-6.55c-4.22-8.89-7.35-18.19-10.54-27.42s-6.19-18.56-8.93-28S55,114.4,53,104.8a243.09,243.09,0,0,1-4-29.07l.64,0a241.76,241.76,0,0,0,4.19,29c2,9.56,4.44,19,7.23,28.37s5.86,18.63,9.08,27.85,6.41,18.47,10.64,27.23c1.06,2.18,2.18,4.34,3.38,6.45s2.49,4.16,3.86,6.15a141.17,141.17,0,0,0,9.07,11.43c6.35,7.42,12.75,14.79,19.47,21.85a221.75,221.75,0,0,0,21.33,19.92,129.84,129.84,0,0,0,24.39,15.77Z"/><path class="cls-2" d="M161.7,272.31l-.58-.29a133.06,133.06,0,0,1-24.78-16.22,221.57,221.57,0,0,1-21.44-20.26c-6.36-6.74-12.37-13.69-19.44-22a143.27,143.27,0,0,1-9.12-11.64c-1.29-1.9-2.58-4-3.92-6.33-1.13-2-2.25-4.17-3.41-6.59A248.45,248.45,0,0,1,69,163l-.53-1.55c-3.52-10.26-6.45-19.41-9-28-2.86-9.83-5.24-19.43-7.09-28.54a245,245,0,0,1-4-29.15l0-.64L50.23,75l.05.63a241.05,241.05,0,0,0,4.18,28.88c1.89,9,4.31,18.57,7.21,28.32,2.54,8.52,5.51,17.62,9.07,27.82l.52,1.46a248.86,248.86,0,0,0,10.09,25.7c1.16,2.36,2.26,4.46,3.37,6.41,1.31,2.28,2.57,4.28,3.83,6.11a142.56,142.56,0,0,0,9,11.37c7.09,8.28,13.12,15.17,19.46,21.83a220.78,220.78,0,0,0,21.26,19.86,129.92,129.92,0,0,0,24.27,15.7l.58.28Zm-84-89.44q1.18,2.79,2.47,5.51c1.15,2.39,2.25,4.52,3.37,6.51,1.32,2.32,2.58,4.36,3.86,6.24a139.73,139.73,0,0,0,9,11.53c7.06,8.34,13.06,15.28,19.39,22a222.61,222.61,0,0,0,21.32,20.14,132.7,132.7,0,0,0,24,15.77l.31-.62a132.28,132.28,0,0,1-23.93-15.57,221,221,0,0,1-21.39-20c-6.36-6.68-12.4-13.58-19.5-21.88a139.81,139.81,0,0,1-9.1-11.47c-1.29-1.86-2.56-3.89-3.89-6.2-1.13-2-2.24-4.11-3.41-6.49C79.33,186.56,78.5,184.72,77.7,182.87Z"/><path class="cls-2" d="M240.31,219.12c-1.39,0-2.78,0-4.17-.1l0-.64c15.75.79,31.33-2.93,43.87-10.46,13.42-8.07,23.63-20.77,28-34.85,2.46-7.92,3.18-16.32,3.87-24.44l.64.05c-.7,8.16-1.42,16.6-3.9,24.58-4.42,14.23-14.73,27.06-28.29,35.21A78.3,78.3,0,0,1,240.31,219.12Z"/><path class="cls-2" d="M240.31,219.77c-1.4,0-2.81,0-4.21-.11l-.64,0,.1-1.92.64,0c15.63.78,31.08-2.9,43.51-10.37,13.29-8,23.4-20.56,27.73-34.49,2.43-7.85,3.15-16.21,3.84-24.3l.06-.64,1.91.16-.05.64c-.7,8.19-1.43,16.66-3.93,24.71-4.46,14.37-14.88,27.34-28.57,35.57C269.16,216,254.82,219.77,240.31,219.77Z"/><path class="cls-2" d="M267,149.83l-.22-.6a90,90,0,0,0,29.08-17A4.31,4.31,0,0,0,297,131a4.12,4.12,0,0,0,.31-2,30.39,30.39,0,0,0-1.69-9.73l.6-.22a30.94,30.94,0,0,1,1.73,9.95,4.9,4.9,0,0,1-.37,2.24,5,5,0,0,1-1.29,1.47A90.57,90.57,0,0,1,267,149.83Z"/><path class="cls-2" d="M266.61,150.65l-.64-1.81.6-.21a89.34,89.34,0,0,0,28.87-16.87,3.88,3.88,0,0,0,1-1.09,3.78,3.78,0,0,0,.24-1.65,29.7,29.7,0,0,0-1.66-9.53l-.21-.61,1.81-.63.22.6A31.62,31.62,0,0,1,298.58,129a5.35,5.35,0,0,1-.44,2.53,5.64,5.64,0,0,1-1.43,1.68,91.43,91.43,0,0,1-29.5,17.23Z"/><path class="cls-2" d="M84.56,198.18a98.76,98.76,0,0,1-37.18-7.34,44.26,44.26,0,0,1-11.31-6.32c-4.85-4-8.19-9.29-11.43-14.45L15.79,156l.54-.34,8.85,14.11c3.21,5.12,6.53,10.41,11.29,14.29a44.06,44.06,0,0,0,11.15,6.23,98.11,98.11,0,0,0,36.94,7.29h.06v.64Z"/><path class="cls-2" d="M85.26,198.82h-.7a99.48,99.48,0,0,1-37.43-7.38A45.4,45.4,0,0,1,35.66,185c-4.92-4-8.3-9.4-11.56-14.6l-9.2-14.65,1.63-1,9.19,14.66c3.19,5.07,6.48,10.32,11.16,14.13a43.48,43.48,0,0,0,11,6.14,97.66,97.66,0,0,0,36.7,7.24h.64l.06.64Z"/><path class="cls-2" d="M62.35,143.3a125.77,125.77,0,0,1-39.24-13.67c-2.5-1.36-5.08-2.89-6.86-5.26-2.74-3.63-3-8.27-3.09-13.5h.64c.07,5.12.34,9.64,3,13.12a19.9,19.9,0,0,0,6.66,5.09,125,125,0,0,0,39,13.6Z"/><path class="cls-2" d="M62.87,144l-.63-.11A126.19,126.19,0,0,1,22.8,130.19a21,21,0,0,1-7.06-5.43c-2.86-3.79-3.15-8.53-3.22-13.88v-.64l1.92,0v.64c.07,5,.33,9.42,2.83,12.75,1.63,2.16,4.08,3.61,6.45,4.91A124.45,124.45,0,0,0,62.57,142l.63.11Z"/><path class="cls-2" d="M51.08,106.16c-4.76,0-9.3-2-12.81-3.74-1.07-.54-2.13-1.11-3.19-1.67a51.44,51.44,0,0,0-10.26-4.56l.17-.62a52.27,52.27,0,0,1,10.39,4.61c1.06.56,2.11,1.13,3.18,1.67,3.83,1.94,8.9,4.1,14.07,3.6l.06.64C52.15,106.14,51.62,106.16,51.08,106.16Z"/><path class="cls-2" d="M51.08,106.8c-4.94,0-9.6-2-13.1-3.81-1.08-.54-2.14-1.11-3.2-1.68a51.14,51.14,0,0,0-10.13-4.5L24,96.64l.51-1.86.62.18a51.93,51.93,0,0,1,10.52,4.65c1,.57,2.1,1.13,3.16,1.66,3.76,1.91,8.71,4,13.73,3.54l.64-.06.18,1.91-.63.06A15.62,15.62,0,0,1,51.08,106.8Z"/><path class="cls-2" d="M10.52,127.71l-.49-.4a11.27,11.27,0,0,1,6-3.8l.15.63A10.66,10.66,0,0,0,10.52,127.71Z"/><path class="cls-2" d="M10.61,128.62l-1.49-1.23.41-.49a12,12,0,0,1,6.39-4l.62-.15.46,1.87-.63.15A10,10,0,0,0,11,128.12Z"/><path class="cls-2" d="M19.58,181.22a13.88,13.88,0,0,1-5.16-1l.24-.59a13.73,13.73,0,0,0,14.13-2.57l.43.47A14.31,14.31,0,0,1,19.58,181.22Z"/><path class="cls-2" d="M19.58,181.86a14.49,14.49,0,0,1-5.4-1l-.6-.24.72-1.79.6.24a13,13,0,0,0,13.45-2.45l.47-.43,1.3,1.42-.47.43A15,15,0,0,1,19.58,181.86Z"/><path class="cls-2" d="M161.11,184.42c-7,0-14.8-1.87-21.18-3.4a11.46,11.46,0,0,1-3.87-1.48l-.51-.28A19.91,19.91,0,0,0,128.8,177l.09-.63a20.25,20.25,0,0,1,7,2.31l.52.29a14.37,14.37,0,0,0,1.41.72,14.77,14.77,0,0,0,2.29.69c7,1.67,15.64,3.74,23,3.33l0,.64C162.47,184.41,161.79,184.42,161.11,184.42Z"/><path class="cls-2" d="M161.11,185.06c-7.07,0-15-1.89-21.33-3.41a15.77,15.77,0,0,1-2.49-.76,13.9,13.9,0,0,1-1.54-.79l-.5-.28a19.17,19.17,0,0,0-6.54-2.16l-.63-.09.26-1.9.64.09a21,21,0,0,1,7.19,2.37l.52.3a13.23,13.23,0,0,0,1.35.69,13.79,13.79,0,0,0,2.18.66c6.93,1.66,15.54,3.72,22.85,3.31l.64,0,.11,1.92-.64,0C162.51,185,161.82,185.06,161.11,185.06Z"/><path class="cls-2" d="M163.26,190.14a119.28,119.28,0,0,0,16.56-10.51,112.61,112.61,0,0,0,14.58-13.12c2.25-2.39,4.43-4.86,6.61-7.33l6.54-7.44c4.34-5,8.64-10,12.81-15.06A231.74,231.74,0,0,0,243,104.36c.4-.72.82-1.43,1.2-2.15l1.16-2.18c.77-1.45,1.51-2.92,2.24-4.4,1.45-3,2.89-5.95,4.54-8.83a13.5,13.5,0,0,1,3.13-4,24.27,24.27,0,0,1,4.42-2.37A45.64,45.64,0,0,0,268,75.2l.4.5A46.65,46.65,0,0,1,260,81.09a23.77,23.77,0,0,0-4.26,2.33,12.39,12.39,0,0,0-2.89,3.79c-1.61,2.86-3,5.84-4.44,8.82-.71,1.49-1.44,3-2.21,4.44l-1.14,2.21c-.38.74-.79,1.45-1.19,2.18a232.62,232.62,0,0,1-22.44,32.7c-4.13,5.16-8.39,10.22-12.69,15.23l-6.47,7.5c-2.16,2.5-4.33,5-6.58,7.44A113.75,113.75,0,0,1,181,181.2a121.3,121.3,0,0,1-16.74,10.85Z"/><path class="cls-2" d="M164,192.92l-1.6-3,.57-.3a117.76,117.76,0,0,0,16.46-10.45,110.88,110.88,0,0,0,14.5-13.05c2.21-2.35,4.38-4.8,6.6-7.32l6.54-7.43c5.23-6,9.17-10.62,12.79-15,9.69-11.86,16.87-22.1,22.58-32.22l.43-.77c.26-.46.52-.91.77-1.37l1.15-2.18c.69-1.29,1.4-2.68,2.23-4.39l.47-1c1.29-2.62,2.61-5.32,4.1-7.91a14.14,14.14,0,0,1,3.28-4.18,16.58,16.58,0,0,1,3.36-1.89c.39-.18.79-.36,1.17-.55a45.32,45.32,0,0,0,8.19-5.16l.5-.4,1.2,1.5-.5.4a46.85,46.85,0,0,1-8.49,5.46c-.39.21-.8.4-1.21.59a14.26,14.26,0,0,0-2.93,1.67,11.82,11.82,0,0,0-2.73,3.6c-1.43,2.55-2.72,5.25-4,7.85l-.45.94c-.83,1.74-1.54,3.16-2.22,4.46l-1.14,2.2c-.25.49-.51,1-.77,1.43-.15.25-.29.51-.43.77-5.68,10.3-12.83,20.72-22.5,32.79-3.61,4.5-7.52,9.21-12.71,15.25l-6.47,7.5c-2.21,2.55-4.37,5-6.59,7.45a114.24,114.24,0,0,1-14.78,13.55,122,122,0,0,1-16.83,10.91Zm.13-2.51.4.77a121.13,121.13,0,0,0,16.09-10.49,112.31,112.31,0,0,0,14.61-13.39c2.21-2.4,4.37-4.88,6.57-7.43l6.47-7.5c5.17-6,9.08-10.72,12.68-15.21,2.8-3.5,5.39-6.85,7.79-10.11-2.43,3.23-5.05,6.56-7.88,10-3.64,4.45-7.59,9.1-12.83,15.09l-6.54,7.43c-2.22,2.53-4.4,5-6.62,7.35a113.47,113.47,0,0,1-14.67,13.19A120.52,120.52,0,0,1,164.13,190.41Z"/><path class="cls-2" d="M163.08,160a159,159,0,0,1-16.38-11c-2.63-2-5.16-4.1-7.66-6.24s-4.91-4.39-7.23-6.72a135.24,135.24,0,0,1-13-14.85,190.77,190.77,0,0,1-10.91-16.42c-3.38-5.64-6.54-11.39-9.67-17.16A197.13,197.13,0,0,1,89.32,70a58.31,58.31,0,0,1-3.06-9.4A51.64,51.64,0,0,1,85,50.77,133.14,133.14,0,0,1,86.24,31.1l.64.07a132.44,132.44,0,0,0-1.12,19.57A52.38,52.38,0,0,0,87,60.41a58.76,58.76,0,0,0,3.07,9.26A194,194,0,0,0,99,87.13c3.15,5.75,6.34,11.48,9.73,17.07a188.66,188.66,0,0,0,10.94,16.27,133.66,133.66,0,0,0,13,14.65c2.32,2.3,4.75,4.48,7.21,6.63s5,4.19,7.62,6.15a156.67,156.67,0,0,0,16.29,10.84Z"/><path class="cls-2" d="M163.31,160.89l-.56-.33a160.39,160.39,0,0,1-16.45-11.07c-2.76-2.09-5.43-4.34-7.68-6.27s-4.78-4.26-7.27-6.75a137.51,137.51,0,0,1-13.08-14.91,189.86,189.86,0,0,1-11-16.48c-3.55-5.92-6.86-12-9.68-17.18l-1.46-2.7a161.54,161.54,0,0,1-7.45-15,58.62,58.62,0,0,1-3.1-9.51,53.42,53.42,0,0,1-1.25-9.93A131.23,131.23,0,0,1,85.61,31l.07-.63,1.91.21-.07.63A132.07,132.07,0,0,0,86.4,50.72a49.94,49.94,0,0,0,1.26,9.54,56.63,56.63,0,0,0,3,9.16,162.88,162.88,0,0,0,7.45,14.75c.49.88,1,1.77,1.46,2.66,3.52,6.41,6.52,11.77,9.72,17a189.09,189.09,0,0,0,10.9,16.22,134.52,134.52,0,0,0,12.92,14.57c2.45,2.43,5,4.7,7.18,6.6s4.86,4.09,7.59,6.12a156.49,156.49,0,0,0,16.22,10.81l.56.32ZM135.1,138.3c1.52,1.43,3,2.76,4.37,4,2.22,1.9,4.87,4.13,7.61,6.21a156.67,156.67,0,0,0,15.77,10.66l.09-.16a158,158,0,0,1-15.81-10.56c-2.74-2.06-5.4-4.28-7.64-6.18C138.13,141.05,136.63,139.72,135.1,138.3Z"/><path class="cls-2" d="M163.06,81.25a92.25,92.25,0,0,1-20.25-15.6,94.31,94.31,0,0,1-15.36-20.39,83.59,83.59,0,0,1-5.36-11.61c-.75-2-1.39-4-2-6.09s-1-4.14-1.59-6.15a14.51,14.51,0,0,0-2.74-5.48,10,10,0,0,0-5.16-3.12,12.19,12.19,0,0,0-11.41,3.13l-.45-.46a12.89,12.89,0,0,1,12-3.4,10.86,10.86,0,0,1,5.59,3.31,15.4,15.4,0,0,1,3,5.77c.63,2.06,1.07,4.13,1.65,6.15s1.25,4,2,6a80.93,80.93,0,0,0,5.4,11.41,93.5,93.5,0,0,0,15.33,20,90.93,90.93,0,0,0,20.08,15.16Z"/><path class="cls-2" d="M163.31,82.12l-.56-.32a92.46,92.46,0,0,1-20.4-15.7,95,95,0,0,1-15.46-20.53,83.9,83.9,0,0,1-5.4-11.7c-.69-1.82-1.32-3.77-2-6.13-.27-1-.51-1.93-.74-2.87s-.54-2.21-.85-3.27a13.81,13.81,0,0,0-2.61-5.25,9.49,9.49,0,0,0-4.84-2.92,11.53,11.53,0,0,0-10.8,3l-.46.45-1.35-1.36L98.3,15A13.58,13.58,0,0,1,111,11.45,11.54,11.54,0,0,1,116.88,15a16.27,16.27,0,0,1,3.1,6c.34,1.14.63,2.29.92,3.4.23.91.47,1.85.73,2.76.68,2.29,1.31,4.18,2,5.94A81.6,81.6,0,0,0,129,44.4a92.24,92.24,0,0,0,15.23,19.86,89.71,89.71,0,0,0,19.93,15l.56.31ZM138.92,60.5q2.09,2.41,4.34,4.7a91.38,91.38,0,0,0,19.56,15.17l.13-.25a91.78,91.78,0,0,1-19.65-15Q141,62.9,138.92,60.5Z"/><path class="cls-2" d="M166.42,121.47c7.76-3.18,14.59-8.3,20.67-14.1,3-2.91,5.94-6,8.74-9.15a107.79,107.79,0,0,0,7.9-9.85A87.53,87.53,0,0,0,214.6,65.68c2.64-8,4.52-16.27,6.42-24.52.48-2.06.9-4.13,1.49-6.2a16.54,16.54,0,0,1,2.81-5.84,20.19,20.19,0,0,1,4.84-4.29c1.79-1.18,3.65-2.19,5.53-3.2a15,15,0,0,1,6.16-2,7,7,0,0,1,3.28.66,9.77,9.77,0,0,1,2.66,1.95,31.92,31.92,0,0,1,2.12,2.42c.67.82,1.34,1.65,2,2.49a38.66,38.66,0,0,1,3.58,5.32,19.7,19.7,0,0,1,2.17,6.06,28.81,28.81,0,0,1,.31,6.42c-.1,2.13-.32,4.24-.49,6.34l-.55,6.33-2.18,25.31-.64,0,2.11-25.32.53-6.33c.16-2.11.37-4.22.47-6.31a28.35,28.35,0,0,0-.32-6.25,19.16,19.16,0,0,0-2.11-5.83,37.4,37.4,0,0,0-3.52-5.2c-.64-.83-1.31-1.64-2-2.46a31.3,31.3,0,0,0-2.07-2.35A9.09,9.09,0,0,0,244.77,21a6.09,6.09,0,0,0-2.89-.57,14.15,14.15,0,0,0-5.79,1.94c-1.85,1-3.71,2-5.44,3.17A19.14,19.14,0,0,0,226,29.68a15.4,15.4,0,0,0-2.63,5.54c-.57,2-1,4.09-1.47,6.15-1.86,8.26-3.73,16.54-6.37,24.63a88.62,88.62,0,0,1-10.93,23,109.23,109.23,0,0,1-7.95,10c-2.81,3.18-5.71,6.29-8.78,9.24-6.13,5.88-13.06,11.13-21,14.41Z"/><path class="cls-2" d="M166.54,123.46l-1-2.34.59-.24c6.88-2.82,13.58-7.39,20.48-14,2.76-2.64,5.6-5.62,8.7-9.11A105.92,105.92,0,0,0,203.21,88,86.27,86.27,0,0,0,214,65.48c2.62-8,4.53-16.28,6.37-24.34l0-.12c.15-.62.29-1.23.42-1.84.33-1.44.67-2.92,1.08-4.39a16.93,16.93,0,0,1,2.93-6.07,20.72,20.72,0,0,1,5-4.42c1.88-1.24,3.85-2.3,5.58-3.23a15.55,15.55,0,0,1,6.44-2.1,7.68,7.68,0,0,1,3.59.72,10.39,10.39,0,0,1,2.83,2.08,29.75,29.75,0,0,1,2.13,2.42c.71.87,1.38,1.7,2,2.54A40.84,40.84,0,0,1,256,32.14a20.45,20.45,0,0,1,2.24,6.27A29,29,0,0,1,258.6,45c-.08,1.58-.22,3.16-.35,4.69-.05.56-.1,1.12-.14,1.68L255.33,83.6l-1.92-.16,2.69-32.28c0-.56.09-1.12.14-1.69.13-1.51.26-3.08.33-4.6a28,28,0,0,0-.31-6.11,18.41,18.41,0,0,0-2-5.63A38.3,38.3,0,0,0,250.76,28c-.65-.83-1.31-1.64-2-2.45a28.84,28.84,0,0,0-2-2.3,8.22,8.22,0,0,0-2.26-1.66,5.32,5.32,0,0,0-2.59-.51A13.76,13.76,0,0,0,236.39,23c-1.6.87-3.61,2-5.39,3.14a18.64,18.64,0,0,0-4.46,4A14.9,14.9,0,0,0,224,35.39c-.39,1.4-.72,2.86-1,4.28l-.42,1.85-.05.19c-1.82,8.08-3.71,16.44-6.34,24.49a88.49,88.49,0,0,1-11,23.16,111.81,111.81,0,0,1-8,10c-3.13,3.56-6,6.59-8.82,9.28-7.11,6.83-14.05,11.59-21.21,14.54Z"/><path class="cls-2" d="M280.11,88.43l-.29-.57a5.69,5.69,0,0,0,2.89-4.75,10.44,10.44,0,0,0-1.51-5.7A6.63,6.63,0,0,0,279.13,75a8.21,8.21,0,0,0-4.54-.82c-2.57,0-5,.18-6.66,1.71l-.43-.47c1.81-1.69,4.49-1.86,7.08-1.88a8.75,8.75,0,0,1,4.9.92,7.15,7.15,0,0,1,2.28,2.69,11.14,11.14,0,0,1,1.59,6.05A6.36,6.36,0,0,1,280.11,88.43Z"/><path class="cls-2" d="M279.82,89.29,279,87.57l.58-.28a5.09,5.09,0,0,0,2.53-4.23,9.82,9.82,0,0,0-1.43-5.34,6.1,6.1,0,0,0-1.85-2.23,7.83,7.83,0,0,0-4.2-.72c-2.43,0-4.74.16-6.22,1.54l-.47.43-1.31-1.4.47-.44c2-1.84,4.8-2,7.51-2.05a9.26,9.26,0,0,1,5.25,1,7.68,7.68,0,0,1,2.5,2.92,11.74,11.74,0,0,1,1.67,6.4,7,7,0,0,1-3.6,5.82Z"/><path class="cls-2" d="M49.08,75.22c-.1-2.51-.39-5-.68-7.51-.33-2.76-.66-5.61-.72-8.44-.12-6.49,1.37-11.62,4.43-15.26a6.37,6.37,0,0,1,4.12-2.55,6.68,6.68,0,0,1,2.57.37c4.26,1.31,8,4,11.6,6.67,4.65,3.39,9,6.6,14.47,7.07l-.05.64C79.2,55.72,74.53,52.31,70,49c-3.57-2.61-7.25-5.3-11.41-6.57a5.89,5.89,0,0,0-2.32-.35,5.71,5.71,0,0,0-3.69,2.33c-3,3.51-4.4,8.5-4.27,14.83.05,2.8.38,5.63.7,8.37.29,2.48.59,5,.69,7.57Z"/><path class="cls-2" d="M48.47,75.88l0-.64c-.09-2.48-.39-5-.68-7.46-.32-2.77-.66-5.64-.72-8.5-.13-6.65,1.41-11.92,4.58-15.68a7,7,0,0,1,4.55-2.78,7.25,7.25,0,0,1,2.82.4c4.36,1.34,8.13,4.1,11.78,6.76,4.58,3.34,8.9,6.49,14.16,7l.64.06L85.4,56.9l-.64,0c-5.79-.51-10.53-4-15.12-7.32-3.52-2.57-7.16-5.22-11.22-6.47a5.58,5.58,0,0,0-2.07-.33,5.18,5.18,0,0,0-3.26,2.11c-2.86,3.39-4.24,8.24-4.12,14.41.05,2.76.38,5.58.7,8.31.29,2.49.59,5,.69,7.61l0,.64Z"/><path class="cls-2" d="M165,57.56A49.66,49.66,0,0,0,170.1,54a57.48,57.48,0,0,0,4.61-4.22A55.56,55.56,0,0,0,178.79,45c.66-.81,1.23-1.69,1.84-2.53s1.16-1.74,1.66-2.65a43.41,43.41,0,0,0,4.79-11.49c1.08-4,1.91-8.25,3.74-12.16a20,20,0,0,1,3.63-5.33,14.07,14.07,0,0,1,5.41-3.59,10.78,10.78,0,0,1,6.48-.18A14.94,14.94,0,0,1,212,10.25a25.44,25.44,0,0,1,4.22,4.82,43.48,43.48,0,0,1,3.15,5.55,48.1,48.1,0,0,1,3.95,12.07l-.63.12a47.46,47.46,0,0,0-4-11.88,44.09,44.09,0,0,0-3.13-5.42,25,25,0,0,0-4.12-4.64,14.11,14.11,0,0,0-5.33-3,9.94,9.94,0,0,0-6,.21,13.17,13.17,0,0,0-5,3.38,18.93,18.93,0,0,0-3.42,5.1c-1.74,3.77-2.54,7.92-3.6,12a44.35,44.35,0,0,1-4.82,11.81c-.52.94-1.12,1.82-1.69,2.72s-1.2,1.76-1.86,2.6a53.23,53.23,0,0,1-4.15,4.86A55.13,55.13,0,0,1,170.92,55a52,52,0,0,1-5.21,3.74Z"/><path class="cls-2" d="M165.51,59.59l-1.37-2.23.54-.34a50.56,50.56,0,0,0,5-3.56,52.72,52.72,0,0,0,4.54-4.17,50.84,50.84,0,0,0,4-4.67c.45-.56.87-1.15,1.27-1.73l.56-.79.48-.73c.39-.6.79-1.22,1.15-1.85a42.6,42.6,0,0,0,4.71-11.34c.24-.87.45-1.73.67-2.6a52.6,52.6,0,0,1,3.12-9.67A20.71,20.71,0,0,1,194,10.4a14.8,14.8,0,0,1,5.65-3.74,11.38,11.38,0,0,1,6.88-.19,15.45,15.45,0,0,1,5.87,3.3,25.94,25.94,0,0,1,4.33,4.94,43.92,43.92,0,0,1,3.2,5.63,48.56,48.56,0,0,1,4,12.23l.12.63-1.88.36-.12-.63a47.23,47.23,0,0,0-3.93-11.71A41.84,41.84,0,0,0,215,15.88a24,24,0,0,0-4-4.52,13.16,13.16,0,0,0-5.08-2.83,9.28,9.28,0,0,0-5.57.19,12.54,12.54,0,0,0-4.77,3.22,18.42,18.42,0,0,0-3.3,4.93,50.16,50.16,0,0,0-2.91,9.3c-.21.87-.43,1.74-.65,2.6a44.47,44.47,0,0,1-4.89,12c-.37.67-.8,1.33-1.21,2-.16.26-.33.51-.49.76l-.56.81c-.42.61-.86,1.25-1.34,1.85a54.18,54.18,0,0,1-4.18,4.9,55.69,55.69,0,0,1-4.74,4.41,54.47,54.47,0,0,1-5.27,3.79Zm.39-1.82,0,0a52.32,52.32,0,0,0,4.59-3.35l.87-.74c-.28.24-.57.49-.87.73A51.74,51.74,0,0,1,165.9,57.77Z"/></g></g></g></svg>