<svg xmlns="http://www.w3.org/2000/svg" viewBox="0 0 189.9 204.5"><defs><style>.cls-1{fill:#ffb992;}.cls-1,.cls-11,.cls-15,.cls-18,.cls-22,.cls-4,.cls-8{stroke:#000;stroke-miterlimit:10;}.cls-2{fill:#feeac7;}.cls-3{fill:#feed87;}.cls-4{fill:#ffb58b;}.cls-5{fill:#ffa27d;}.cls-6{fill:#fded87;}.cls-7{fill:#fff9d9;}.cls-8{fill:#febf96;}.cls-9{fill:#f9efd5;}.cls-10{fill:#ffeb88;}.cls-11{fill:#fec098;}.cls-12{fill:#ff937b;}.cls-13{fill:#ffe5d3;}.cls-14{fill:#feee89;}.cls-15{fill:#ffbb93;}.cls-16{fill:#ff907b;}.cls-17{fill:#ffe9d3;}.cls-18{fill:#febf92;}.cls-19{fill:#ff9a7c;}.cls-20{fill:#fce8d4;}.cls-21{fill:#fdea87;}.cls-22{fill:#fdf188;stroke-width:0.5px;}</style></defs><g id="Layer_2" data-name="Layer 2"><g id="plants"><g id="flower2"><path class="cls-1" d="M85,97.87C67.56,94.49,49.86,91.1,32.1,92.31c-3.81.26-7.71.76-11.12,2.51s-6,4.53-8.53,7.29c-4.31,4.63-8.72,9.43-10.84,15.39S.26,130.91,5.13,134.94a21.84,21.84,0,0,0,6.61,3.36c6.93,2.5,14.11,4.51,21.47,4.92,20.19,1.14,38.95-9.62,58.69-14,7.54-1.66,15.28-2.48,22.72-4.6,4.79-1.37,17.61-5.39,18.24-11.61.7-6.92-12.87-8.4-17.32-9.27Z"/><path class="cls-2" d="M122.56,120.46c-10.24,3.4-20.91,5.33-31.54,7.25-1.36.25-3,.44-4-.5A4.57,4.57,0,0,1,86,124l-.52-9.8a14,14,0,0,0-1.06-5.57c-2.12-4.3-7.86-5.37-11-9-.48-.54-.92-1.31-.61-2,.39-.8,1.53-.75,2.4-.58l43,8.31c3.94.76,11.2,1.91,13.11,6.13C133.36,116.2,125.84,119.37,122.56,120.46Z"/><path class="cls-3" d="M117.54,122.46c-4.78,1.63-10,2.28-14.91.94-2-.56-4-1.46-6.06-1.92a45.85,45.85,0,0,0-5.5-.65,46.21,46.21,0,0,1-19.47-6.46,1.23,1.23,0,0,1-.63-.66,1.16,1.16,0,0,1,.23-.87c1.58-2.54,4.55-3.82,7.38-4.77a76,76,0,0,1,32.07-3.59,118.9,118.9,0,0,1,13,2.21,13.79,13.79,0,0,1,6.12,2.45C137.3,115.58,121.79,121,117.54,122.46Z"/><path class="cls-4" d="M125.61,135c-1,3-.46,5.82-1,9-1.14,6.76-1.89,14.19,2.73,19.25a23.05,23.05,0,0,0,18.46,7.31c6.74-.52,13.24-4,19.93-3.09-2.75-5,.82-11,2.7-16.45,2.35-6.83.37-14.53-2.82-21s-7.54-11.67-14.39-14c-5-1.7-10.42-1.91-15.73-2.1C121.82,113.47,128.16,127.4,125.61,135Z"/><path class="cls-5" d="M127.15,127.51c.12,1.88.49,3.75.45,5.63a27.36,27.36,0,0,1-.55,4.23,147.34,147.34,0,0,0-2,18.26,9,9,0,0,0,.33,3.55c1,2.74,4.16,3.86,6.55,5.54a28.6,28.6,0,0,0,3.35,2.37,13.55,13.55,0,0,0,5.33,1l9.13.54a1,1,0,0,0,.74-.15,1,1,0,0,0,.2-.77c-.28-4.32-3.06-8-4.95-11.9a60.66,60.66,0,0,1-3.53-10.29c-.36-1.3-.72-2.73-.13-3.95a16.09,16.09,0,0,1,1.93-2.31c2.06-2.71.44-6.66,1.26-10,.45-1.79,1.59-3.31,2.45-4.94s1.47-3.6.76-5.3a5.84,5.84,0,0,0-3.45-2.9c-3.1-1.17-6.53-.94-9.83-.7-2.31.17-5.23.59-6.62,2.71C127,120.61,127,124.78,127.15,127.51Z"/><path class="cls-6" d="M137.47,116.22a5.63,5.63,0,0,1,2,1.35,5.5,5.5,0,0,1,.94,2.85,18.78,18.78,0,0,1-.14,7.13,7.8,7.8,0,0,1-4.34,5.39,11.8,11.8,0,0,1-4.55.55c-1,0-2.26-.11-2.86-1a3.41,3.41,0,0,1-.43-1.33c-.28-1.63-.51-3.26-.69-4.9a15.5,15.5,0,0,1,.26-6.44C129.07,115.31,133.54,114.33,137.47,116.22Z"/><path class="cls-7" d="M160.55,164.22a2.72,2.72,0,0,1,2.11-.11,1.7,1.7,0,0,1,1.07,1.71,9.41,9.41,0,0,1-2.74.35,1.29,1.29,0,0,1-.67-.15,1,1,0,0,1-.37-1A1.82,1.82,0,0,1,160.55,164.22Z"/><path class="cls-8" d="M120.49,157.76c-2.35,8.11-6.7,15.5-11.54,22.42C101.58,190.72,92,201,79.38,203.41c-5.73,1.12-11.68.52-17.39-.71-2.8-.6-5.68-1.4-7.82-3.3s-3.42-5-4.11-8c-3-13,1.3-26.47,6.56-38.7,2.19-5.08,4.66-10.24,8.85-13.84,3.69-3.16,8.38-4.84,13-6.46,7.09-2.51,14.19-5,21.43-7.07,5.64-1.6,16.25-5.87,22.07-4.1,6.38,1.95,3.92,8.52,2.86,13.33C123.09,142.26,122.69,150.19,120.49,157.76Z"/><path class="cls-9" d="M120.32,156.45c-.2,2.45-1.88,5.45-4.32,5.07-1.89-.29-2.73-2.54-3-4.43-.48-3.82-.07-7.71-.6-11.52s-2.26-7.77-5.69-9.5a13.47,13.47,0,0,0-5-1.19,44.89,44.89,0,0,0-22.39,3.86c-5,2.26-9.85,5.51-15.28,5.19-.57,0,.39-3.65,2-4.39,8.13-3.67,15-7,23.46-9.94,7.21-2.47,16.49-6.87,24.21-6.73C130.17,123.17,121.11,146.54,120.32,156.45Z"/><path class="cls-10" d="M104.79,144.78a18.11,18.11,0,0,1-5.38,4.05c-2.08.87-4.7.85-6.39-.66a8.12,8.12,0,0,1-2.14-4.28,12.58,12.58,0,0,1-.48-4c.22-2.67,1.84-5,3.59-7,5.3-6.12,12.1-10.26,20.12-11.28,2.11-.26,4.81-.76,6.78.06,7.18,3,.11,7.48-3,10.51Z"/><path class="cls-11" d="M117,76.39c-2.64-5.68-5.33-11.45-9.55-16.08C101.54,53.78,92.88,49.87,88,42.49,85,37.91,83.73,32.32,80.33,28c-3.14-4-7.75-6.44-12.27-8.73a16.3,16.3,0,0,0-6.42-2.16c-2.28-.09-4.77,1-5.57,3.14-2.68-4.3-8.9-5.17-13.61-3.3s-8.27,5.78-11.65,9.56a23.4,23.4,0,0,0-4.08,5.63,20.48,20.48,0,0,0-1.34,8.49c0,9.53,1.68,19.4,7.08,27.25,3.72,5.4,9,9.53,14.13,13.57C53.66,87,60.82,92.6,69,96.23c16.51,7.32,36,6.17,52.07,14.32,3.16,1.6,8.44,4.66,11.41,1,2.7-3.33-.34-4.49-2.18-7.07C124.59,96.43,121.2,85.38,117,76.39Z"/><path class="cls-12" d="M109.81,104.75c-2-.51-4.16-.81-6.24-1.21a115,115,0,0,1-11.51-3.11L80.51,96.89a114.72,114.72,0,0,1-12.64-4.44c-2.61-1.16-5.13-2.51-7.65-3.87L55.33,86c-2-1.07-4-2.15-5.88-3.39a38.72,38.72,0,0,1-9.7-9.15c3.94,1,7.43,3.25,11,5.26A96.78,96.78,0,0,0,77.39,88.91a3.48,3.48,0,0,0,2.34,0,2.62,2.62,0,0,0,1.13-1.26c1.63-3.37-.7-7.24-3-10.16C72,70.19,65.37,63.06,63.2,54c10.4,5.38,19.7,12.9,30.66,17-.32-11.08-6.53-21-11.92-30.67q-3.48-6.29-6.61-12.76c3-.1,5,3.12,6.3,5.87,2.94,6.19,6.15,12.39,11,17.2,5.56,5.49,13.1,9,17.57,15.39a42.85,42.85,0,0,1,4.42,9.11l6.62,16.94c1.46,3.73,3,7.52,5.43,10.67,1.48,1.88,3.39,3.77,3.34,6.15C129.94,114,111,105.05,109.81,104.75Z"/><path class="cls-13" d="M99.84,102.49c-2.29-.62-4.58-1.25-6.91-1.65-2.07-.36-4.17-.54-6.25-.85C79.54,98.9,72.75,96.23,66,93.58c-2-.79-4.37-2.13-4.2-4.28,6.67,0,13.11,2.3,19.7,3.32s14.12.37,18.7-4.49A8.12,8.12,0,0,0,102.47,84a11.14,11.14,0,0,0-.07-3.31,146,146,0,0,0-5.06-24,3.1,3.1,0,0,1,3.43-.34,9.1,9.1,0,0,1,2.74,2.4c2.81,3.23,5.69,6.57,7,10.65.43,1.37.67,2.79,1.17,4.13a23.74,23.74,0,0,0,2.08,3.92c4.54,7.49,8.58,15.27,12.61,23l3.28,6.31c1.24,2.41,1.29,6-2.29,5.46-2.78-.42-6.12-2.91-8.8-3.95A190.5,190.5,0,0,0,99.84,102.49Z"/><path class="cls-14" d="M109,102.19A60.7,60.7,0,0,1,98.81,94c-1.82-1.85-3.48-3.86-5.14-5.86l-7-8.41a2.28,2.28,0,0,1-.76-1.9c2.83-.45,5.29,1.78,7.59,3.5,5.88,4.37,13.34,6.07,19.46,10.08a59.36,59.36,0,0,1,5.77,4.48l9.79,8.26c1.31,1.11,2.69,2.32,3.12,4,1.58,6.23-6.88,2.24-9.1,1.29A89.2,89.2,0,0,1,109,102.19Z"/><path class="cls-15" d="M104.25,50.22c-2.56-8-5.07-16.61-3-24.8a42.34,42.34,0,0,1,4.23-9.81C109.18,8.8,114.3,1.49,122,.59c8.17-.95,15.24,6,18.87,13.35,5.8,11.83,6.14,25.5,5.95,38.67-.18,11.75-.68,23.5-1.84,35.19-.51,5.25-1.09,16.55-7.51,18.19-5.71,1.45-11.1-5.16-13.79-9.21C114.46,82.86,109.28,66,104.25,50.22Z"/><path class="cls-16" d="M111.54,67c-2.62-7.15-4.6-14.51-6.59-21.86-1.61-6-3.23-12.18-2.11-18.26,1.07-5.83,4.54-10.88,7.93-15.75,1.83-2.63,3.77-5.35,6.59-6.88.62,7-.34,14.06-.75,21.09s-.21,14.3,2.56,20.78l1.27-2.47c.27-.53.63-1.12,1.22-1.18s1.09.49,1.46,1l10.36,14a4.77,4.77,0,0,0,1.22,1.27c1.45.9,3.34,0,4.69-1s2.75-2.34,4.46-2.27c2.42,11.18.21,22.77-2,34l-1,5.13c-.38,1.92-.81,4-2.16,5.39-2,2.15-7,2.72-9.54,1.24s-4.37-6.43-5.81-9A173.62,173.62,0,0,1,111.54,67Z"/><path class="cls-17" d="M113.86,73.79c1.77-.38,3.2,1.31,4.37,2.68A23.53,23.53,0,0,0,123,80.74a7.13,7.13,0,0,0,3.16,1.36,3.07,3.07,0,0,0,3-1.33,5.59,5.59,0,0,0,.47-2.27c.44-4.52,3.09-8.49,5.66-12.24,1.28-1.87,3.16-4,5.36-3.43s2.81,3,3.12,5.13A82.42,82.42,0,0,1,143.17,95c-.62,3.3-1.8,7-4.9,8.3-6.88,2.91-11.94-4.13-15-8.89A78.88,78.88,0,0,1,113.86,73.79Z"/><path class="cls-3" d="M123.5,64.54c.24-.87.51-1.73.78-2.59.08-.28.23-.61.52-.62s.5.34.59.65A59.94,59.94,0,0,1,127.24,70a41.74,41.74,0,0,0,1.52,7.55c1.45,4,4.5,7.23,6.22,11.12,1.92,4.38,2,9.32,2.12,14.1a1.87,1.87,0,0,1-.51,1.62,1.71,1.71,0,0,1-1,.24c-4.61.2-5.79-1.8-7.87-5.51a46.59,46.59,0,0,1-4.22-34.62Z"/><path class="cls-18" d="M142.9,127c5.5,1.51,11.41-.47,16.3-3.42,6.57-4,12-9.58,17.24-15.13,4.6-4.82,9.32-9.83,11.57-16.1A24,24,0,0,0,170.4,60.8l-.65-4.06a40,40,0,0,0-34.55,5.75,11.93,11.93,0,0,0-3.78,3.9,13.66,13.66,0,0,0-1.19,5.71,211.92,211.92,0,0,0,1.33,34.25C132.42,114.41,133.65,124.45,142.9,127Z"/><path class="cls-19" d="M131.08,69.58c-.09-2.3,2.75-3.64,4.63-5,4.82-3.4,10.17-6.77,16.07-6.66,1,1.68.45,3.88-.47,5.62s-2.17,3.38-2.47,5.32c-.66,4.15,3.06,7.56,4.67,11.44a22.78,22.78,0,0,1,1.22,8.54,26.57,26.57,0,0,1-.77,8,28.48,28.48,0,0,1-3.82,7.28l-5.34,8.14a15.4,15.4,0,0,1-3.4,4.07,5.25,5.25,0,0,1-5,.94c-2.58-1.06-3.21-4.36-3.45-7.13q-1.66-19.38-1.55-38.86A3.46,3.46,0,0,1,131.08,69.58Z"/><path class="cls-20" d="M131.05,71.76c.52-3.42,2.65-7,6.07-7.55a3.24,3.24,0,0,1-.09,3.38c-.57,1-1.44,1.89-2.09,2.89-1.47,2.31-1.59,5.2-1.66,7.94l-.24,8.9a28.06,28.06,0,0,0,.29,6.08c.41,2.09,1.3,4,1.85,6.1,1.09,4.08.84,8.46,2.22,12.46,1.3,3.78,3.95,6.92,6.46,10a2.5,2.5,0,0,1,.65,1.27,1.58,1.58,0,0,1-1.28,1.53,3.45,3.45,0,0,1-2.11-.3,12.08,12.08,0,0,1-6.2-6.72,33.77,33.77,0,0,1-2-9.14q-1.14-9.84-1.74-19.75C130.86,83.29,130.19,77.32,131.05,71.76Z"/><path class="cls-21" d="M137.27,114.05c-.7-5.92-1.34-12.22,1.28-17.58a11.06,11.06,0,0,1-6-8.06c-.22-1.39-.24-3-1.28-3.94a114.82,114.82,0,0,0,2.91,31.68c.32,1.32,1.37,6.75,3.48,5.41C139.24,120.55,137.46,115.61,137.27,114.05Z"/><path class="cls-22" d="M76,132.93c-4.54.19-9.91-.5-12.14-4.47-1,1.87-4.23,1.14-5.07-.81s0-4.24,1.23-6c1.06-1.55,3-3,4.66-2.07,2,1.17.94,4.18,1.37,6.44s2.79,4.05,5.18,4.46a18.17,18.17,0,0,0,7.2-.69c10.5-2.48,21.22-5.05,30.35-10.8,3.25-2,7.25-5.38,11.28-4.75,1.14,5.16-15.69,11.89-19.68,13.47A74.44,74.44,0,0,1,76,132.93Z"/><path class="cls-22" d="M87.66,140.78a29.38,29.38,0,0,1-10.58,2.78c-3.67.08-7.53-1.2-9.8-4.07-1-1.28-2.58-3-3.86-2-.88.7-.57,2.11,0,3.09,2.76,5,9,7.14,14.71,6.62S89,144,94,141.19q15.36-8.52,29.88-18.48c2.17-1.49,6.27-7.68,1.1-8.27-2.85-.32-6.84,6.38-8.61,8.09C108.24,130.32,97.94,136.42,87.66,140.78Z"/><path class="cls-22" d="M103.71,140.29c-3,1.54-6.21,3-9.59,2.86-5.83-.15-10.53-4.62-14.53-8.86a4.09,4.09,0,0,0-2.25-1.5c-.47-.06-.94,0-1.4,0-1.89-.29-2.1-3.26-.68-4.52S78.8,127,80.71,127c-.44,4.27,2.8,8,6.28,10.55a12.53,12.53,0,0,0,6.17,2.68c3,.24,5.86-1.32,8.49-2.83,7.94-4.56,16-9.18,22.53-15.56a7,7,0,0,1,2.87-2,2,2,0,0,1,2.34.83C124.56,129.07,112.11,136,103.71,140.29Z"/><path class="cls-22" d="M122.88,135.39a22.51,22.51,0,0,1-5.68,4.19,7.86,7.86,0,0,1-6.84.13c-2.26-1.2-3.91-4-6.48-3.87-1.11,0-2.25.63-3.28.2-1.45-.59-1.44-2.85-.33-4s2.78-1.37,4.33-1.58c.85-.11,1.87-.16,2.4.51a3.24,3.24,0,0,1,.44,1.64,6.38,6.38,0,0,0,5.81,5.1,9.32,9.32,0,0,0,7.4-3.2c.77-.85,1.43-1.8,2.25-2.59a26.73,26.73,0,0,1,3.16-2.32,22.86,22.86,0,0,0,5.69-5.79,10.2,10.2,0,0,1,2.31-2.82,2.63,2.63,0,0,1,3-.22C136.36,125.39,126.43,132.14,122.88,135.39Z"/><path class="cls-22" d="M70.46,109.12c-8.86.16-18.63,0-25.3-5.84a23,23,0,0,0-4-3.34c-2.59-1.36-6.64-1.86-6.71-4.78s4.72-3.53,7-1.52,3.25,5.18,5.6,7.08a12.93,12.93,0,0,0,3.93,2c21.35,7.42,44.9.17,67.4,2.4,1.43.14,4,1,2.78,2.92-.68,1-3.73.26-4.79.27l-15.29.29Z"/><path class="cls-22" d="M112.62,81.7a5.41,5.41,0,0,0-1.76-2,8.15,8.15,0,0,0-3-.61,8.15,8.15,0,0,1-6.77-7.42c2.6-.26,5,1.15,7.27,2.51a21.59,21.59,0,0,1,3.51,2.48,21.85,21.85,0,0,1,3.38,4.42l14.62,23c2.12,3.34,4.63,7.12,4.65,11.19-4.47-.62-8-10.86-10.11-14.36Q118.56,91.28,112.62,81.7Z"/></g></g></g></svg>