<svg xmlns="http://www.w3.org/2000/svg" viewBox="0 0 270.07 234.53"><defs><style>.cls-1{fill:#fadffe;}.cls-1,.cls-11,.cls-14,.cls-18,.cls-19,.cls-4,.cls-8{stroke:#000;stroke-miterlimit:10;}.cls-2{fill:#f7a3dc;}.cls-3{fill:#d197b1;}.cls-4{fill:#fbe7ff;}.cls-5{fill:#f6c9f0;}.cls-6{fill:#e89acc;}.cls-7{fill:#d197b9;}.cls-8{fill:#f6effa;}.cls-9{fill:#eacaec;}.cls-10{fill:#f7e6f9;}.cls-11{fill:#f8edfa;}.cls-12{fill:#eecdea;}.cls-13{fill:#f1e2f5;}.cls-14{fill:#f7e6f6;}.cls-15{fill:#ffc4f8;}.cls-16{fill:#f7a2de;}.cls-17{fill:#cc9cb4;}.cls-18{fill:#e9d1d8;}.cls-18,.cls-19{stroke-width:0.5px;}.cls-19{fill:#ffd8fd;}</style></defs><g id="Layer_2" data-name="Layer 2"><g id="plants"><g id="flower1"><path class="cls-1" d="M99.05,149.3a141.39,141.39,0,0,0-8.52,32.42c-1.6,11.49-1.47,24.17,5.49,33.46,5.91,7.9,15.64,11.84,25,14.8,11.52,3.61,24.32,6.24,35.4,1.46,14.41-6.21,21.36-23.54,20.3-39.19s-8.42-30.09-15.63-44c-4.74-9.16-24.36-59.28-35-55.94-7.07,2.22-10.45,20.56-13,26.39C108.58,129,103.19,138.84,99.05,149.3Z"/><path class="cls-2" d="M103,151.92c-2.8,6-5.15,12.58-4.23,19.15.53,3.75,2.1,7.26,3.65,10.71,3.08,6.85,6.3,13.91,11.83,19,5.12,4.72,11.91,7.38,18.81,8.31A63.38,63.38,0,0,0,153.79,208c3.7-.74,7.83-2,9.44-5.45,1-2.17.75-4.68,1-7.07.35-3.53,1.82-6.92,1.84-10.48,0-3-1-5.86-2-8.67L156.3,154.7l-5.1-14.21a47.16,47.16,0,0,0-3.72-8.56c-2.34-3.89-5.74-7-8.4-10.69a73.19,73.19,0,0,1-5.12-8.83c-1-2-2.7-6.94-4.72-8-4.76-2.63-7,9.54-8.16,12.42C116,129,108.52,140,103,151.92Z"/><path class="cls-3" d="M120.58,119.06c.2,2.61.73,5.42,2.67,7.19,1.67,1.53,4.06,1.95,6.31,2.29a17.91,17.91,0,0,0,6.19.2,6.16,6.16,0,0,0,4.72-3.62,9,9,0,0,0-.21-5.12,190.89,190.89,0,0,0-5.79-19.29c-1.7-4.73-7.65-12.52-11.47-5.13C119.73,101.91,120,112.24,120.58,119.06Z"/><path class="cls-4" d="M140.1,129.65a48.82,48.82,0,0,0,6.43,11.76c3.42,4.28,8,7.41,12,11.2,4.2,4,7.64,8.76,11.63,13a134.52,134.52,0,0,0,14.47,12.6c4.44,3.51,9,7.06,14.25,9.06,8.87,3.34,18.73,1.92,28.09.42l15.89-2.56a26.78,26.78,0,0,0,7.65-2,26.88,26.88,0,0,0,6.56-5.25c3.71-3.67,7.5-7.46,9.66-12.21,2.09-4.57,2.51-9.71,2.77-14.73a17.45,17.45,0,0,0-.4-5.95,19.76,19.76,0,0,0-2.75-5c-2.54-3.81-4.81-7.81-7.59-11.45-8.89-11.61-22.57-18.83-36.76-22.37s-29-3.69-43.6-3.36c-7.69.18-15.84.38-22.54-3.42a41.6,41.6,0,0,1-6.57-5l-10.87-9.43c-2.37-2-5.38-4.24-8.35-3.24s-4.12,5-3.57,8.25c1.1,6.41,4.08,12.82,6,19Q135.83,119.48,140.1,129.65Z"/><path class="cls-5" d="M173.05,114.16c15.81,4,32.77-2.61,48.73.8,8.27,1.76,15.8,6.16,22.28,11.6,5.21,4.38,10,9.79,11.48,16.43,2.38,10.71-4.84,21.74-14.39,27.16s-20.89,6.44-31.85,7c-3.72.19-7.51.34-11.13-.57-5.81-1.46-10.6-5.47-15.94-8.2-3.08-1.58-6.35-2.74-9.43-4.3-3.26-1.66-6.16-5.05-8.74-7.63-8.47-8.47-16.94-15-22.09-25.4a140.94,140.94,0,0,1-5.68-13.75q-4-11-7.68-22.1c-1.17-3.57-3.78-9.34,1.76-9.89,9.79-1,18.17,13.81,24.52,19.09A46.68,46.68,0,0,0,173.05,114.16Z"/><path class="cls-6" d="M154.77,108.37c6.38,5.77,15.17,7.89,23.55,9.82L203.78,124c8,1.84,16.33,3.83,22.72,9s10.21,14.53,6.48,21.85c-2.32,4.54-7.08,7.46-12,8.59s-10.16.67-15.18-.12A116.23,116.23,0,0,1,172.87,153a51.53,51.53,0,0,1-10-6.13c-9.12-7.42-13.62-19-21-28.15A125.56,125.56,0,0,1,133,107.06c-2.71-4.34-9.88-25.4.86-21.32C143.77,89.49,147.52,101.82,154.77,108.37Z"/><path class="cls-7" d="M160.25,116c3.23,3.4,6.92,7,7.22,11.72a33.34,33.34,0,0,1-24.76-8.13,40.9,40.9,0,0,1-6.74-7.87,52.81,52.81,0,0,1-8.3-21.33,4.11,4.11,0,0,1,.28-2.86,3.65,3.65,0,0,1,2.43-1.35c8.27-1.73,11.57,3.75,15,9.79A102.87,102.87,0,0,0,160.25,116Z"/><path class="cls-8" d="M93.23,96.82C82.89,95.88,73.28,91,64.79,85a68.26,68.26,0,0,1-8.93-7.33A49.43,49.43,0,0,1,41.51,44.75,49.47,49.47,0,0,1,53.56,10.89a31.31,31.31,0,0,1,8.76-7.25c8.12-4.3,17.92-3.38,27-1.95,5.69.9,11.44,2,16.64,4.45,10.18,4.87,17.15,14.55,22.7,24.37a66.71,66.71,0,0,1,5.6,12c2.61,8,4.79,34.75,2.28,42.65C131,102.56,112.39,98.56,93.23,96.82Z"/><path class="cls-9" d="M102,55.88,98.24,56a13.88,13.88,0,0,0,1,9.36c1,1.93,2.35,3.61,3.23,5.57,2.54,5.67.32,12.32,1.3,18.45a4.84,4.84,0,0,0,1.69,3.38c2.88,2,9.21-2.48,11.2-4.47,4.15-4.16,3-5.15-.26-9.33C114.75,76.79,102.74,55.86,102,55.88Z"/><path class="cls-10" d="M80.2,15a9.77,9.77,0,0,0-3.4-2.22c-4.59-1.81-10.15-.15-13.47,3.5-1.34,1.48-2.4,3.47-2,5.42.64,3,4.13,4.24,7,5.4a31.36,31.36,0,0,1,9.83,6.34,7.8,7.8,0,0,0,2.72,2C85.33,36.94,83.06,17.92,80.2,15Z"/><path class="cls-11" d="M137.1,41.78c1.72-7.59,4.4-15.07,8.92-21.4A45.09,45.09,0,0,1,177.6,2.2a50.25,50.25,0,0,1,35.26,10.06,29.73,29.73,0,0,1,8.58,9.46c2.18,4.12,2.89,8.84,3.49,13.46,1.32,10.31,2.16,21.1-1.53,30.82-5.46,14.4-19.69,23.5-33.89,29.42-8.78,3.66-18.12,6.53-27.62,6.09-10.54-.49-22.37-5.57-25-16.45C133.62,71.16,134,55.64,137.1,41.78Z"/><path class="cls-12" d="M156.82,96.22A9.89,9.89,0,0,0,162,94.31c2.74-2.17,3.49-6,3.41-9.52s-.78-7-.16-10.46c1-5.4,5.13-10.08,5-15.56l-3,.21q-8,9.34-16.59,18.18c-1.76,1.81-3.63,3.66-6,4.47C131,86.17,149.6,97,156.82,96.22Z"/><path class="cls-13" d="M189.19,16.09a5.86,5.86,0,0,1,.66-3.13,4.72,4.72,0,0,1,3.48-1.76c5-.6,9.72,2.13,13.9,4.92a22.46,22.46,0,0,1,5.45,4.58,8.31,8.31,0,0,1,1.89,6.66c-.67,3.15-3.76,5.33-6.93,6s-6.43,0-9.6-.55c-3.67-.66-7.69.39-9.3-2.39C187.29,27.85,189.12,19.08,189.19,16.09Z"/><path class="cls-14" d="M117.53,135c-4.63,8.44-11,15.77-17.31,23l-15,17.3c-3.32,3.82-6.75,7.73-11.24,10.06-6.58,3.42-14.41,3-21.8,2.45-10.36-.73-21.07-1.56-30.27-6.39C9.14,174.78,1,160.66.52,146.3a28.8,28.8,0,0,1,.57-7.24c1-4.6,3.5-8.72,6-12.74,2.9-4.78,5.85-9.62,9.93-13.44A58.06,58.06,0,0,1,27,105.78a50.5,50.5,0,0,1,8-4.14c4.19-1.58,8.7-2.07,13.16-2.45,12.46-1.08,25-1.43,37.48-1.41,8.92,0,22.62.11,31.09-5.54,2.82-1.87,3.06,6,6.33,6.42a75.29,75.29,0,0,1,.62,17.37C123,123.05,120.08,128.61,117.53,135Z"/><path class="cls-15" d="M116.79,92.24c-6.8,11-22.07,17.77-34.88,19.39s-25.81.13-38.71.76a9.34,9.34,0,0,0-3.45.63,9.94,9.94,0,0,0-2.59,2l-11,10.82c-3.75,3.7-7.6,7.57-9.46,12.5-1.41,3.75-1.55,7.85-1.67,11.85C14.9,155.7,15,161.88,19,165.68c2,2,4.8,2.94,7.47,3.87,7.06,2.46,14.26,4.94,21.73,5.08,7.17.13,14.19-1.9,21.07-3.92l11.87-3.48A19.38,19.38,0,0,0,86.58,165a25.27,25.27,0,0,0,3.93-3.74c7.25-7.65,17.29-12.73,22.8-21.71,3.65-6,4.93-13,6-20s3.79-16.23,4.56-23.12Z"/><path class="cls-16" d="M90.67,112.82c-10.31,4.46-21.4,6.82-32.53,8.34-5.64.77-11.92,1.64-15.5,6.07A15.64,15.64,0,0,0,40,132.76a28.13,28.13,0,0,0,26.61,36c12.81.19,24-8.15,34-16.09a55,55,0,0,0,8.63-7.86c5.67-6.86,7.66-16,9.48-24.68q1.89-9,3.76-18c.43-2,.85-4.22.15-6.19-3-8.45-10.92,3.19-13.71,5.61A70.7,70.7,0,0,1,90.67,112.82Z"/><path class="cls-17" d="M106.72,108a23,23,0,0,0-.94,9.16,10.73,10.73,0,0,0,4.63,7.69,4.62,4.62,0,0,0,2.47.78,4.45,4.45,0,0,0,3-1.56c1.81-1.93,2.45-4.64,3-7.23l4-18a8.53,8.53,0,0,0,.31-2.55c-.46-5.6-6.13-3.88-8.52-1.19C111.1,99.22,108.21,102.6,106.72,108Z"/><circle class="cls-18" cx="125.26" cy="92.24" r="2.82"/><circle class="cls-18" cx="123.85" cy="88.01" r="2.82"/><circle class="cls-18" cx="123.85" cy="96.48" r="2.82"/><circle class="cls-18" cx="128.08" cy="89.42" r="2.82"/><circle class="cls-18" cx="122.43" cy="92.24" r="2.82"/><circle class="cls-18" cx="129.49" cy="95.07" r="2.82"/><circle class="cls-18" cx="130.9" cy="92.24" r="2.82"/><circle class="cls-18" cx="129.49" cy="85.19" r="2.82"/><path class="cls-19" d="M117.41,107.37l-.3,0a2.12,2.12,0,0,1-1.8-2.39l2.5-17.86a2.12,2.12,0,1,1,4.2.58l-2.51,17.86A2.13,2.13,0,0,1,117.41,107.37Z"/><path class="cls-19" d="M134.65,110.67a2.12,2.12,0,0,1-2.08-1.77A112.15,112.15,0,0,1,131,90.06,2.11,2.11,0,0,1,133.15,88h0a2.11,2.11,0,0,1,2.11,2.12,109,109,0,0,0,1.47,18.13,2.12,2.12,0,0,1-1.74,2.44A2.07,2.07,0,0,1,134.65,110.67Z"/><path class="cls-19" d="M152.36,120.41a2.13,2.13,0,0,1-2.06-1.61c-.89-3.69-3.59-6.66-6.44-9.79-2.4-2.65-4.89-5.38-6.47-8.74a2.12,2.12,0,1,1,3.83-1.8c1.31,2.79,3.48,5.17,5.77,7.69,3.09,3.39,6.28,6.9,7.43,11.64a2.11,2.11,0,0,1-1.56,2.55A2.14,2.14,0,0,1,152.36,120.41Z"/><path class="cls-19" d="M148.64,131.7a2.12,2.12,0,0,1-1.92-1.21c-1.39-3-3.71-5.4-6.16-8l-1.71-1.83a75.66,75.66,0,0,1-11-15.59c-1.33-2.5-2.52-5.23-2.19-8.21a2.11,2.11,0,1,1,4.2.46c-.2,1.84.71,3.86,1.73,5.77A71.43,71.43,0,0,0,142,117.82l1.67,1.77c2.57,2.72,5.23,5.52,6.91,9.09a2.12,2.12,0,0,1-1,2.82A2.22,2.22,0,0,1,148.64,131.7Z"/><path class="cls-19" d="M117.11,132.72a2,2,0,0,1-.8-.16,2.12,2.12,0,0,1-1.16-2.76c1.85-4.54,3.77-9.23,4.06-14.06a43.91,43.91,0,0,0-.33-7.18,41.09,41.09,0,0,1-.17-9.55,2.11,2.11,0,1,1,4.19.58,36.8,36.8,0,0,0,.2,8.55,51,51,0,0,1,.34,7.86c-.34,5.52-2.48,10.77-4.37,15.4A2.13,2.13,0,0,1,117.11,132.72Z"/></g></g></g></svg>