<svg xmlns="http://www.w3.org/2000/svg" viewBox="0 0 445.44 451.37"><defs><style>.cls-1{fill:#8b9b79;}.cls-1,.cls-2,.cls-3{stroke:#000;stroke-miterlimit:10;}.cls-3{fill:#d4eeb2;}</style></defs><g id="Layer_2" data-name="Layer 2"><g id="plants"><g id="monstera"><path class="cls-1" d="M41.93,149.55c-2.32,12,16,43.49,28.69,57.29,18.37,19.95,34.81,35,53.18,55,2.32,2.51,4.79,6.56,2.51,9.11-1.73,1.93-4.73,1.55-7.13.58-16-6.4-48.15-41.34-60.78-71.7-6.23-15-13.18-33.76-19.4-48.73a159,159,0,0,0-29.06,36.4c-7.9,13.72-12,33.19-6.65,48.08,5.66,15.66,21.09,21.93,35.5,30.29,16.4,9.53,33.24,19.34,48.24,31,2.27,1.75,7.28,6.77,5.13,8.66-1.06.92-6.7,2.52-8.09,2.34-12.33-1.58-19.59-2.49-30.85-7.77s-25.54-17.6-26.38-32.8c-.37-6.85-1.34-6.63-6.53-11.12-1,7.52-2.33,8.72-2.49,16.31-.23,11.58.6,23.46,5.18,34.1,9.84,22.91,34.33,35.23,57,45.7,9.9,4.58,20.45,9.28,31.29,8,13.14-1.55,22.82-11.23,32.24-19.59,3.08-2.73,16.44-16.1,24.38-18.48,2.64-.79,4.68-.37,5.53,2.08,1.4,4-7,17.74-8.54,21.63a142,142,0,0,0-6,18.57c-2.89,12.23-3.6,25.13.82,37.1,7.77,21,29,33.85,49.93,41.89,13.29,5.1,27.73,9,41.67,6.11,18.06-3.75,30.35-10.42,32.69-28.72-10.87-5.14-12-4.43-16.23,1-12.3,15.71-19.8,9.18-29.69,2.76s-16.12-17.11-21-27.83c-1.77-3.85-2.75-9.61,1.14-11.27,2.33-1,4.94.32,7.12,1.59l41.44,24.28c14.18,8.3,29.82,16.91,46.06,14.44,17.53-2.66,30.49-17.47,40.27-32.26a264.29,264.29,0,0,0,24-45.37C331.23,373.43,270.29,368,229.6,335.05c1.4-11,20.79-1.91,31.12,1.39,18.87,6,39,6.55,58.82,7,11.39.26,22.91.51,34.07-1.84,37-7.8,64.05-47.61,57.71-84.87C362.23,291.48,300.56,296,265,292.62c-3.93-.38-13.67-1.2-16.82-3.58s-2.87-7.24-.61-10.48c2.15-3.09,10.2-3.09,14-3.07,53.67.37,110.06,2,157.64-22.83,4.91-2.57,7.56-6.15,10.21-11,2.44-4.47,4.9-9.28,4.68-14.36-.59-13.93,2.69-32.29-7.48-41-11.63,21.2-82.34,42-112.14,46.72-7.84,1.25-24.26,4.41-21.35-6.63,11-11.3,32.76-14.23,47.86-18.73,26.75-8,59.17-28.62,87.54-57.84,4-4.11,13.34-13.55,15.5-18.86,2-5.05-1.73-13.29-1.93-18.73-.63-17,1.21-34.83-5.23-50.63-2.92,26.07-19.84,48.92-40.68,64.85s-73.33,47.09-72.31,36.88c20.84-37.16,51.28-53.12,86.74-79.39,4.51-3.34,20.49-19.41,20.87-25,.3-4.41-7.33-2.82-10-6.34-7.62-10-12.76-21.26-23.66-27.59-16.47-9.55-37-8.52-54.76-15.5C337.82,7.43,322,2,316.46,1.1c-13-2-17,9.77-24.78,20.34-19.49,26.41-19.42,58.66-22.44,91.34-.93,10,3.51,25.35-9,29.93-11.6-.2-7.93-30.54-5.1-45.65,5.71-30.55,14.39-68.91,32.4-78.66-14.18-9.37-16.25-9-37.2-7.81-5.33.31-17.49.47-22,3.29-7.52,4.69-11.21,13.55-13.92,22a217.43,217.43,0,0,0-7,104.17c2.52,14,6.43,28.11,5.06,42.29-.27,2.74-.15,8.3-2.52,9.7-4.4,2.59-10.54-3.08-12-9.91-10.2-46.4-7.13-107.06,2.7-138.24C186.5,38.2,149.77,45.45,132.18,59c-10.35,8-10.37,37-7.35,56.69,5.22,34,16.74,65.72,31.75,96.64,3.06,6.32,6,14.79.85,19.57-9.94-5.58-15.53-16.4-20.56-26.62-9.21-18.69-18.48-37.54-23.81-57.68s-9.14-37,2-60c-16.61-3.66-35.7,4.4-47.59,16.57C54.79,117.23,44.56,135.93,41.93,149.55ZM189.35,270.4a12.39,12.39,0,0,1-5.26,2.43,2.62,2.62,0,0,1-3.09-.68,27.51,27.51,0,0,1-8.69-17,6,6,0,0,1,.71-4.27,4.32,4.32,0,0,1,3.93-1.49,9.87,9.87,0,0,1,4,1.62C186.05,254.15,196.4,264,189.35,270.4Zm6-61.48a2.4,2.4,0,0,1,1.2-.41c2.76-.44,5.79-.83,8.18.62a12,12,0,0,1,3.77,4.61c3.7,6.56,8.43,17.44,1.49,23.77-6.33,5.79-13.34-7.63-14.38-12.62a32.34,32.34,0,0,1-.5-5.29q-.17-4.29-.34-8.57A2.5,2.5,0,0,1,195.36,208.92Z"/><path class="cls-2" d="M323,423.1a39.42,39.42,0,0,1-10.19,3c-9.7,1.47-19.14-.93-28.53-5.08-2.64,19.86-17.4,25.59-32.95,28.82-14.93,3.1-30.22-1.65-41.88-6.13-26.75-10.28-43.62-24.44-50.15-42.1-4-10.73-4.23-22.93-.83-37.31a139.61,139.61,0,0,1,6-18.62c.42-1.1,1.38-3,2.5-5.1,2.78-5.39,7-13.52,6-16.28-.71-2-2.38-2.66-5.08-1.84-6.68,2-17.61,12.22-22.27,16.58-.84.79-1.51,1.42-2,1.82l-2.49,2.23c-8.77,7.87-17.85,16-29.94,17.45-11.27,1.33-22.49-3.86-31.5-8-24.61-11.39-47.51-23.47-57.14-45.88-5-11.61-5.41-24.41-5.21-34.26a40.65,40.65,0,0,1,1.23-9.57c.41-1.78.86-3.79,1.27-6.78l.08-.6c-7.54-5-13.85-10.83-17.09-19.78-5.64-15.62-.71-35.55,6.68-48.38a159.56,159.56,0,0,1,29.12-36.48l.39-.37.21.49c.95,2.28,1.92,4.67,2.9,7.11a21,21,0,0,1-.68-8.56h0c2.73-14.11,13.28-32.82,25.66-45.5C78.11,92.82,97.16,83.34,115.15,87.3l.46.1-.21.42c-10.71,22-7.74,37.93-2,59.7,5.33,20.19,14.71,39.21,23.78,57.61,4.52,9.17,10.13,20.57,20.17,26.34,3.67-3.63,3.3-9.83-1.13-19-16.66-34.33-27.05-66-31.78-96.74A145.33,145.33,0,0,1,123.12,83c.73-8.51,2.86-19.62,8.84-24.24,8.26-6.37,21.26-11.79,35.66-14.86,13.91-3,26.29-3.08,33.14-.33l.32.13L201,44c-9.57,30.33-13.19,90.26-2.69,138,1,4.34,3.88,8.36,7.11,9.76a4.66,4.66,0,0,0,4.38-.09c1.8-1.06,2.06-5.12,2.22-7.8,0-.6.07-1.15.12-1.61,1.08-11.18-1.17-22.49-3.36-33.43-.57-2.87-1.17-5.84-1.69-8.76a217.42,217.42,0,0,1,7-104.35c2.66-8.29,6.41-17.41,14.07-22.19,4-2.49,13.46-2.94,19.71-3.23l2.48-.12,1.23-.08c10-.58,15.47-.9,20.3.08s9,3.32,15.89,7.87l.52.34-.54.3c-17.21,9.31-25.94,44.85-32.22,78.4-1.52,8.1-6,35.13.55,43.1a5.31,5.31,0,0,0,4.13,2.11c9.24-3.42,9-12.74,8.68-21.75a65.5,65.5,0,0,1,.05-7.84c.4-4.34.75-8.73,1.09-13,2.29-28.58,4.45-55.56,21.43-78.55,1.58-2.15,3-4.34,4.39-6.46C301.24,6.36,306-.9,316.52.73c5.41.83,21.15,6.25,26.63,8.41,7.58,3,15.82,4.52,23.79,6,10.6,2,21.57,4,31,9.52C406,29.35,410.9,36.58,416,44.23c1.8,2.69,3.67,5.46,5.68,8.12,1.11,1.45,3.16,2,5.14,2.5,2.52.65,5.12,1.32,4.94,4.08-.4,5.87-16.77,22.13-21,25.28-6.93,5.13-13.66,9.87-20.17,14.45-26.67,18.76-49.7,35-66.43,64.75a1.16,1.16,0,0,0,.56,1.26c6.31,3.52,52.18-24,71.16-38.55C419,108.44,433.82,84.9,436.44,61.53l.17-1.44.54,1.34c5,12.23,5,25.81,5.08,38.94,0,3.89,0,7.91.18,11.82a38.14,38.14,0,0,0,1.18,6.72c1,4.35,2.06,8.85.72,12.16-2.07,5.09-10.41,13.66-14.89,18.27l-.69.71c-27.21,28-60,49.69-87.7,57.93-3.41,1-7.13,2-11.06,2.93-13.19,3.29-28.13,7-36.57,15.64-.58,2.28-.32,4,.77,5.25,3.25,3.58,13.16,2,19.08,1l1.11-.18c32.11-5.11,100.69-26.16,111.87-46.54l.22-.4.35.3c8,6.91,7.82,19.42,7.6,31.52-.06,3.43-.12,6.68,0,9.76.22,5.06-2.11,9.77-4.72,14.56-2.71,5-5.39,8.56-10.37,11.16-2.52,1.31-5.07,2.55-7.63,3.72,5.56,32.79-14.38,67.31-44.33,80.78A66.8,66.8,0,0,1,353.68,342c-11.25,2.37-22.89,2.11-34.15,1.84-19.59-.45-39.85-.92-58.92-7-1.63-.52-3.49-1.19-5.45-1.89-8.16-2.93-18.31-6.58-22.87-3.77A5,5,0,0,0,230,334.9c19.59,15.82,45,25.82,71.44,28.17s53.35-3.06,75.47-15.25l.92-.51-.4,1a265.82,265.82,0,0,1-24.07,45.44C346.64,403.87,336.68,417,323,423.1Zm-105.1-38,.09,0c2.38-1,5,.17,7.45,1.61L266.91,411c15.26,8.94,30.24,16.76,45.82,14.4,18.71-2.85,31.79-19.68,40-32.1A264.77,264.77,0,0,0,376.35,349q-4,2.15-8.06,4c-44.83,20.16-100.59,13.45-138.92-17.61l-.16-.13,0-.2a5.86,5.86,0,0,1,2.67-4.51c4.87-3,15.2.72,23.5,3.7,2,.71,3.81,1.37,5.43,1.89,19,6.07,39.18,6.53,58.72,7,11.21.26,22.81.52,34-1.83,36.73-7.75,63.48-46.84,57.52-83.87a179.72,179.72,0,0,1-29.68,16.79C341.55,292.08,297.25,296.07,265,293l-.6-.05c-4.32-.41-13.33-1.26-16.41-3.6-3.38-2.55-3-7.69-.69-11s10.69-3.25,14.26-3.23l7.29.06c51.53.4,104.83.83,150.18-22.85,4.81-2.51,7.42-6,10.06-10.86,2.56-4.69,4.84-9.3,4.63-14.17-.13-3.1-.07-6.36,0-9.8.21-11.76.43-23.91-7-30.65-6.83,11.7-30.48,22.37-49.23,29.3-23.65,8.73-48.66,14.94-62.95,17.21l-1.11.18c-6.46,1.05-16.23,2.63-19.74-1.24-1.29-1.42-1.6-3.45-.92-6l0-.09.06-.07c8.58-8.83,23.67-12.59,37-15.91,3.92-1,7.63-1.91,11-2.92,27.59-8.22,60.25-29.8,87.38-57.75l.69-.71c4.13-4.24,12.72-13.07,14.73-18,1.26-3.09.24-7.48-.75-11.71a38.31,38.31,0,0,1-1.2-6.86c-.15-3.93-.16-8-.18-11.85,0-12.57-.09-25.56-4.49-37.3-3.08,23.08-17.83,46.2-40.65,63.64-17.27,13.2-64.94,42.52-72,38.6a1.91,1.91,0,0,1-.93-2l0-.15c16.82-30,39.93-46.24,66.69-65.07,6.51-4.57,13.24-9.31,20.16-14.44,4.77-3.53,20.36-19.41,20.72-24.73.14-2.05-1.58-2.6-4.38-3.32-2-.52-4.29-1.11-5.55-2.77-2-2.67-3.89-5.45-5.7-8.14-5.1-7.58-9.91-14.75-17.84-19.35-9.35-5.42-20.25-7.45-30.79-9.42-8-1.5-16.28-3-23.92-6.06-5.46-2.15-21.12-7.53-26.47-8.36-10.1-1.55-14.69,5.51-20,13.7-1.39,2.13-2.82,4.33-4.42,6.5-16.85,22.81-19,49.7-21.28,78.17-.34,4.25-.69,8.65-1.1,13a68.3,68.3,0,0,0-.05,7.75c.28,8.86.6,18.91-9.22,22.48l-.13,0a6.1,6.1,0,0,1-4.76-2.38c-6.71-8.22-2.24-35.53-.71-43.71,6.25-33.37,14.94-68.72,32.06-78.61-13.34-8.78-15.61-8.65-35.23-7.5l-1.24.07c-.72.05-1.56.09-2.48.13-5.81.27-15.52.72-19.36,3.12C221,18.85,217.34,27.82,214.72,36a216.73,216.73,0,0,0-6.93,104c.52,2.91,1.11,5.88,1.69,8.75,2.19,11,4.46,22.35,3.36,33.64,0,.46-.07,1-.11,1.59-.19,3-.45,7.12-2.58,8.38a5.4,5.4,0,0,1-5.06.14c-3.43-1.5-6.53-5.72-7.53-10.28-10.49-47.73-6.92-107.57,2.6-138.1-16-6.11-52.73,3.62-67.75,15.22-10.41,8-10,38.09-7.21,56.34,4.71,30.68,15.08,62.26,31.71,96.53,4.66,9.61,4.91,16.16.77,20l-.2.19-.23-.14c-10.39-5.83-16.12-17.45-20.71-26.78C127.45,187,118.06,168,112.7,147.71,107,125.92,104,110,114.53,87.92,97,84.28,78.4,93.58,67.75,104.49,55.46,117.08,45,135.64,42.29,149.62l-.36-.07.36.07c-1,5.28,2.14,15.39,8.68,27.73,5.84,11,13.47,22.23,19.92,29.24,9.18,10,18,18.86,26.58,27.47s17.41,17.52,26.6,27.5c1.32,1.43,5.41,6.37,2.51,9.61-2.2,2.46-6,1.29-7.54.68-16.43-6.58-48.44-41.76-61-71.91-3.11-7.49-6.46-16.07-9.7-24.37-3.16-8.11-6.44-16.5-9.49-23.86a158.8,158.8,0,0,0-28.6,35.95C3,200.34-1.93,220,3.64,235.42,8.38,248.56,20,255,32.32,261.79c2.19,1.2,4.45,2.45,6.65,3.73,16.3,9.47,33.15,19.26,48.29,31,1.48,1.15,5.71,5,5.79,7.67a1.91,1.91,0,0,1-.65,1.57c-1.11,1-6.83,2.63-8.38,2.43l-.18,0c-12.17-1.56-19.52-2.51-30.77-7.78a56.14,56.14,0,0,1-17.22-12.77c-5.75-6.39-9-13.42-9.37-20.35-.32-5.76-1-6.3-4.51-9.26l-1.38-1.16c-.39,2.66-.81,4.52-1.19,6.17a39.75,39.75,0,0,0-1.21,9.42c-.2,9.78.21,22.48,5.14,34,9.54,22.17,32.3,34.17,56.78,45.5,8.93,4.14,20,9.28,31.1,8,11.87-1.4,20.85-9.46,29.53-17.26l2.5-2.24c.45-.39,1.12-1,2-1.8,5.1-4.77,15.71-14.69,22.56-16.75,3.88-1.17,5.4.61,6,2.31,1.07,3.06-3.06,11-6.08,16.85-1.1,2.14-2,4-2.46,5a140.17,140.17,0,0,0-6,18.53c-3.37,14.23-3.11,26.29.81,36.88,6.45,17.45,23.17,31.47,49.71,41.67,11.57,4.44,26.73,9.15,41.47,6.1,25.77-5.35,30.84-16.67,32.36-28.14-10.47-4.94-11.47-4.18-15.54,1-11.74,15-19.44,9.92-28.35,4l-1.83-1.2c-10.52-6.81-16.84-18.54-21.17-28-1.23-2.68-2.17-6.5-1.14-9.17A4.47,4.47,0,0,1,217.93,385.15Zm.31.68a3.72,3.72,0,0,0-2,2.14c-.95,2.46,0,6.06,1.12,8.6,4.29,9.36,10.54,21,20.9,27.68l1.84,1.21c9,5.9,16,10.57,27.36-3.89,3.21-4.09,4.82-5.52,9.41-4.13-3.43-1.81-6.87-3.77-10.32-5.79l-41.45-24.28c-2.29-1.34-4.7-2.46-6.78-1.57ZM249.81,277.3a4.74,4.74,0,0,0-2,1.47c-2.1,3-2.5,7.68.53,10s11.78,3.05,16,3.45l.6.06c40,3.83,98.55-3.25,144-34.33-43.15,18.76-92.42,18.37-140.19,18l-7.28-.06C259,275.84,253.14,275.8,249.81,277.3ZM20.42,255.7l.14.12c.7.61,1.33,1.13,1.88,1.6,3.59,3,4.44,3.7,4.77,9.78C28,281.46,41.33,294,53.38,299.69c11.15,5.23,18.46,6.16,30.56,7.72l.18,0c1.32.17,6.85-1.44,7.79-2.26a1.14,1.14,0,0,0,.4-1c-.06-2-3.32-5.42-5.5-7.11-15.1-11.69-31.93-21.47-48.21-30.92-2.2-1.28-4.45-2.52-6.63-3.73C28,260.23,24.06,258.07,20.42,255.7ZM48.92,175l.12.3c3.24,8.3,6.59,16.88,9.7,24.36,12.48,30,44.27,65,60.57,71.5,1.4.56,4.84,1.63,6.72-.48s0-5.9-2.5-8.62c-9.18-10-18-18.87-26.58-27.48s-17.41-17.51-26.6-27.49C63.35,199.49,54.89,186.89,48.92,175Zm138.36,97.15a20.53,20.53,0,0,1-3.1,1,3,3,0,0,1-3.43-.77,28,28,0,0,1-8.8-17.26,6.3,6.3,0,0,1,.78-4.53A4.63,4.63,0,0,1,177,249a10.28,10.28,0,0,1,4.2,1.68c3.95,2.48,10.39,8.46,10.88,14a7,7,0,0,1-2.48,6h0A8.79,8.79,0,0,1,187.28,272.15ZM174.6,250.07a3.2,3.2,0,0,0-1.28,1,5.72,5.72,0,0,0-.64,4,27.2,27.2,0,0,0,8.57,16.79,3,3,0,0,0,1.13.75,3.18,3.18,0,0,0,1.61-.15,12.15,12.15,0,0,0,5.11-2.34l.25.27-.25-.27a6.27,6.27,0,0,0,2.23-5.41c-.46-5.26-6.71-11-10.53-13.42a9.44,9.44,0,0,0-3.89-1.57A4.55,4.55,0,0,0,174.6,250.07Zm34-11.18a4.62,4.62,0,0,1-3.45.16c-4.85-1.57-9.08-10.13-9.9-14.08a33.75,33.75,0,0,1-.51-5.36l-.34-8.57a2.84,2.84,0,0,1,.72-2.4h0a2.74,2.74,0,0,1,1.38-.5c3.05-.48,6-.79,8.42.68,1.73,1.05,2.79,2.77,3.9,4.74,6.31,11.18,6.79,19.33,1.42,24.23A6.29,6.29,0,0,1,208.61,238.89Zm-12.78-29.82a.72.72,0,0,0-.24.14h0a2.22,2.22,0,0,0-.44,1.8l.34,8.57a31.94,31.94,0,0,0,.5,5.24c.81,4,5,12.1,9.4,13.53a4.21,4.21,0,0,0,4.36-1.11c5.08-4.63,4.55-12.48-1.56-23.32-1.06-1.88-2.07-3.52-3.64-4.47-2.21-1.34-5-1-7.93-.58A3.06,3.06,0,0,0,195.83,209.07Z"/><path class="cls-3" d="M210.58,417.43l-30-88-2.17-9.66c.52-.65.8-.5,1.05-.31,18.44,13.4,33.86,30.48,51.13,45.37,17.52,15.11,38,28.34,61,30.92-38.68-7.52-84.19-54.2-108.06-77.89-.91-.9,3.28-5.56,4.12-6.68l7.46-10a7.46,7.46,0,0,1,2.82-2.65c1.73-.74,3.72-.1,5.49.55,48.41,17.53,101,29.19,151.29,18.2A277.63,277.63,0,0,1,200,292.75a420.74,420.74,0,0,1,28.4-39.53A272.11,272.11,0,0,0,339,252.61c-36.69,3.64-74.4,7.2-109.91-2.73l34.15-48.43c28-.12,56.49-7.4,78.29-21.62a187.46,187.46,0,0,1-77.1,19A1269.29,1269.29,0,0,1,365.71,64.48c-14.16,12-25.65,26.84-37,41.53-27.56,35.56-54.31,72.61-81.87,108.17-15.89-23.38-21.46-84.88-10.3-136.54a220.69,220.69,0,0,0,2.63,128.06c1.1,3.34,2.29,6.8,1.86,10.28s-2.31,6.4-4.17,9.27L215,256.79c-.83,1.28-3.53,4.95-4.94,5.54-4.13,1.74-3.89-.42-5.81-3.3-27.19-40.9-43.06-92.12-44.41-141.21a281.07,281.07,0,0,0,39.75,138.71c2,3.32,4.12,6.84,4.09,10.71,0,3.14-4.94,9.45-6.78,12-6.5,9-7.8,10.77-12.74,17.65-41.89-39-67.19-64.65-103.51-136.58,20.43,48.55,54.07,96.32,91.78,131.29,4.41,4.09,7.94,6.67,7.29,8.8a18.79,18.79,0,0,1-6,9.5c-3.25,3-3.66,2.88-6.7,1.93A353.59,353.59,0,0,1,69.78,264c27.46,26.91,66.78,38.09,100.82,54.77-37,2.35-68.53,5.74-111.06-4.24,15.76,7.9,52.22,10.29,78.42,8.73,9.8-.58,20.94-.41,30.82-1.46,2.48-.26,3.83.16,4.62,2.44,2.33,6.71,8.87,16.06,10.08,20.07,2.34,7.8,5.47,15.19,8.1,22.9C197.39,384.19,205.53,400.5,210.58,417.43Z"/><path class="cls-2" d="M291.51,396.11c-19.49-2.19-39.5-12.33-61.16-31-6.5-5.61-12.84-11.62-19-17.43-10.16-9.62-20.65-19.57-32.13-27.92-.15-.1-.21-.15-.44.11l2.13,9.48,25.56,75c1.62,4.32,3.13,8.66,4.43,13l-.7.22-4.42-13c-1.93-5.12-4-10.19-6-15.18-3-7.19-6-14.62-8.54-22.08-1-3-2.17-6.09-3.27-9-1.68-4.5-3.42-9.15-4.84-13.88a52,52,0,0,0-4.09-8.07,82,82,0,0,1-6-12c-.66-1.92-1.69-2.46-4.23-2.19-6.06.64-12.64.83-19,1-4.14.11-8.05.22-11.85.45-26.48,1.58-63-1-78.61-8.77l-2.8-1.4,3,.71c38.62,9.06,67.52,7.13,101,4.89l8.56-.57c-8.86-4.29-18.22-8.3-27.29-12.18-25.72-11-52.32-22.4-72.37-42l.47-.57a352.3,352.3,0,0,0,97.18,47.79c2.91.9,3.21,1,6.34-1.85a18.37,18.37,0,0,0,5.85-9.34c.47-1.52-1.79-3.55-4.92-6.36-.71-.64-1.47-1.32-2.26-2.05-38.11-35.34-71.6-83.24-91.87-131.43l.67-.31c36.48,72.26,61.74,97.7,103.13,136.2,4.7-6.57,6.09-8.49,12.37-17.14l.12-.17.67-.92c2.11-2.86,6-8.17,6-10.86,0-3.74-2-7.14-4-10.42l-.06-.1a280.25,280.25,0,0,1-39.8-138.89l.74,0c1.35,49.26,17.52,100.66,44.35,141,.42.64.74,1.24,1,1.76,1,1.87,1.41,2.64,4.34,1.41,1.23-.49,3.88-4,4.77-5.4L236.52,225c1.73-2.68,3.69-5.72,4.11-9.1s-.69-6.59-1.74-9.77l-.11-.35a221.68,221.68,0,0,1-2.63-128.28l.71.18c-10.7,49.55-6.13,111.51,10,135.83,13.68-17.65,27.37-36,40.62-53.68s27.16-36.3,40.94-54.08c11.23-14.49,22.85-29.48,37.09-41.59l.52.52A1275.45,1275.45,0,0,0,265.12,198.41a187.52,187.52,0,0,0,76.24-18.91l.37.64c-21.19,13.83-49,21.52-78.29,21.68L229.7,249.67c35.78,9.87,74.81,6,109.26,2.57l.12.73a273.77,273.77,0,0,1-110.53.66,425.87,425.87,0,0,0-28,39,278.67,278.67,0,0,0,154.09,24.33l.12.73c-43.07,9.41-91.21,3.62-151.5-18.22-1.86-.67-3.66-1.22-5.21-.55a6.83,6.83,0,0,0-2.67,2.53l-7.46,10c-.16.21-.43.54-.76.94-3.4,4.14-3.59,5.07-3.4,5.26l3.19,3.17c25.35,25.23,67.77,67.44,104.68,74.62ZM178.74,319a.89.89,0,0,1,.94.15c11.52,8.38,22,18.34,32.2,28,6.13,5.81,12.46,11.82,19,17.41,18.38,15.85,35.54,25.51,52.19,29.36-35-11.29-73.11-49.23-96.6-72.61l-3.19-3.17c-.83-.83.54-2.84,3.35-6.26.32-.39.58-.71.73-.91l7.46-10a7.9,7.9,0,0,1,3-2.77c1.8-.77,3.75-.19,5.75.54,55.77,20.2,101.1,26.64,141.63,20a279.65,279.65,0,0,1-145.28-25.67l-.38-.18.22-.35A427,427,0,0,1,228.12,253l.14-.17.22,0a273.29,273.29,0,0,0,103.09.85c-32.79,3.19-69.09,5.89-102.58-3.47l-.5-.14,34.56-49h.19c26.7-.11,52.13-6.5,72.43-18.1a188.66,188.66,0,0,1-71.23,16.19l-.71,0,.39-.6A1275.46,1275.46,0,0,1,361.91,68.34c-12.38,11.37-22.82,24.84-33,37.9C315.19,124,301.38,142.47,288,160.32s-27.16,36.3-40.94,54.08l-.31.4-.28-.42c-15.14-22.27-20.35-77.29-12.6-124.93a221.31,221.31,0,0,0,5.58,116.14l.12.34c1.07,3.27,2.18,6.65,1.76,10.1s-2.45,6.67-4.23,9.42L215.3,257c-.61.94-3.43,4.92-5.05,5.65l0,0c-3.4,1.43-4.15.39-5.28-1.74a18.21,18.21,0,0,0-1-1.7c-18.37-27.63-31.75-60.42-38.83-94.16a279.65,279.65,0,0,0,34.79,91.27l.06.1c2,3.37,4.12,6.86,4.09,10.8,0,2.93-3.88,8.17-6.18,11.3-.25.34-.48.64-.67.91l-.13.17c-6.38,8.8-7.71,10.63-12.61,17.48l-.24.34-.31-.29c-39.39-36.63-64.2-61.37-97.79-125.41,20.51,44.11,51.58,87.15,86.56,119.58.79.73,1.55,1.41,2.26,2.05,3.45,3.1,5.73,5.15,5.13,7.13a19.21,19.21,0,0,1-6.06,9.66c-3.32,3-3.85,3-7.06,2a352.71,352.71,0,0,1-93.32-45.08c19.48,17.52,44.41,28.18,68.55,38.52,9.5,4.07,19.33,8.27,28.58,12.81L172,319l-1.39.09-10,.65c-32.42,2.17-60.57,4.06-97.41-4,17,6.53,50.15,8.6,74.69,7.14,3.8-.22,7.72-.33,11.87-.45,6.34-.18,12.9-.36,18.93-1,2.43-.26,4.12.1,5,2.68A81.5,81.5,0,0,0,179.68,336a52.61,52.61,0,0,1,4.15,8.22c1.41,4.7,3.15,9.34,4.82,13.83,1.1,3,2.24,6,3.28,9.05,2.54,7.44,5.58,14.86,8.52,22,.17.43.34.85.52,1.27l-20.74-60.84L178,319.67l.11-.14A1.75,1.75,0,0,1,178.74,319Z"/></g></g></g></svg>