<svg xmlns="http://www.w3.org/2000/svg" viewBox="0 0 572.44 648.77"><defs><style>.cls-1{fill:#8b9b79;}.cls-1,.cls-2,.cls-3{stroke:#000;stroke-miterlimit:10;}.cls-3{fill:#d4eeb2;}</style></defs><g id="Layer_2" data-name="Layer 2"><g id="plants2"><g id="monstera2"><path class="cls-1" d="M10,436.45c7.08,15.87,54.08,37.62,80.13,43.33,37.66,8.25,69.1,12.41,106.76,20.66,4.76,1,10.94,3.74,10.36,8.57-.43,3.66-4.25,5.66-7.83,6.49-23.87,5.59-89.8-8.89-129.27-33.95C50.72,469.19,27.3,453,7.85,440.62a226.09,226.09,0,0,0-4.16,66.09c2,22.41,13.05,48.46,31.45,61.41,19.37,13.63,42.45,8.34,66.05,6.34,26.87-2.28,54.49-4.59,81.43-3.3,4.07.2,14,2,13,5.91-.48,1.94-5.74,8.4-7.51,9.33-15.65,8.21-24.85,13.07-42.26,16.1s-44.11.32-57.48-16.7c-6-7.67-7-6.62-16.67-7.62,5,9.58,4.38,12.06,10.39,21C91.3,612.89,102,626,116,634.71c30.14,18.64,68.72,13,103.61,6.78,15.27-2.74,31.39-5.88,43-16.21,14-12.52,17.42-31.69,21.58-49.1,1.35-5.69,6-32.15,13.32-41.4,2.43-3.08,5.15-4.24,8.14-2.09,4.92,3.54,6.28,26.39,7.69,32.16a203.06,203.06,0,0,0,8.16,26.52c6.6,16.6,16.29,32.21,31.2,42.54,26.19,18.15,61.39,15.77,92.31,8.07,19.65-4.89,39.64-12.12,53.52-26.86,18-19.09,26.85-36.88,14.66-60.1-16.85,2.87-17.56,4.61-18.09,14.4-1.52,28.33-15.58,26.83-32.33,27.43s-32.74-6.79-47.2-15.28c-5.19-3-11-8.94-7.85-14.06,1.9-3,6-3.65,9.59-3.94l68.07-5.52c23.28-1.89,48.52-4.62,65.42-20.73,18.24-17.4,21.26-45.21,20.6-70.41a376,376,0,0,0-9-72.45c-32.79,66.84-108.19,110.24-182.46,105-7.36-14,22.66-19.19,37.38-23.76,26.91-8.36,50.77-24.18,74.22-39.8,13.49-9,27.11-18.08,38.18-29.92,36.72-39.24,35.79-107.68-2-145.91-28.86,80.49-97,136.06-141.19,161.11-4.89,2.77-16.9,9.76-22.51,9.55s-9.25-6.08-9.26-11.7c0-5.36,9.35-11.92,13.76-15,62.81-43.34,129.82-87.41,165-155.14,3.63-7,3.79-13.32,2.92-21.15-.8-7.19-1.87-14.8-6.26-20.55-12-15.74-23.2-39.79-42.16-41.67,3.73,34.18-61.67,116-92.51,145.86-8.13,7.86-24.67,24.92-30.28,9.69,3.57-22.11,26.55-43.29,40.47-60.84,24.66-31.1,45.58-81.58,54.79-138.75,1.3-8.05,4.5-26.66,2.67-34.61-1.73-7.54-12.84-14.06-17.51-20.24C431,47.36,418.59,25.13,398.22,12,416.06,44.73,415,85.15,403.7,120.68s-47,114.65-54.14,101.93c-6-60.28,16.41-103.68,36.3-163.21,2.52-7.56,8-39.3,3.91-46.13C386.52,7.89,378.94,16,373,14c-17-5.48-32.2-14.36-50-12.84-27,2.3-50.09,20.28-76.42,26.59-7.72,1.86-30.64,8.38-37.76,11.89C192,47.93,196.92,64.91,196.45,83.57c-1.17,46.67,25.21,84.16,48.34,124.71,7,12.34,24.76,26.66,13.88,42.21-13.68,9.24-34.14-29.09-43.16-49-18.26-40.25-39.44-92-26.4-118-24.17.65-26.3,2.72-49.71,21.23-6,4.71-20,14.81-23,21.79-4.93,11.6-2,24.92,1.72,37a309.07,309.07,0,0,0,76.86,127c14.36,14.29,30.4,27.49,40.37,45.14,1.92,3.4,6.59,9.78,5,13.34-3,6.61-14.78,5-22.1-1.72C168.56,301.46,122.66,228.31,108.69,184c-21.08,4.9-57.95,43.29-67.36,73.44C35.78,275.17,59.45,309,79,329.44c33.78,35.32,73.08,62.89,115.77,86.67,8.73,4.86,19.05,12.33,17,22.1-16.13,1.6-31.46-6.44-45.66-14.24-26-14.26-52.14-28.65-74.77-47.78s-40.84-35.67-46.55-71.47C22.41,314,6.75,339,2.83,362.83-1.35,388.32,2,418.44,10,436.45ZM280.27,457c-.61,2.7-2.36,5-4.15,7.11a4.85,4.85,0,0,1-2,1.64,4.76,4.76,0,0,1-2.16.08,39,39,0,0,1-24-12.75c-1.39-1.58-2.72-3.45-2.66-5.56a6.14,6.14,0,0,1,3.36-4.93,13.77,13.77,0,0,1,6-1.4C263.17,440.77,283.26,443.79,280.27,457Zm-43.13-76.52A3.47,3.47,0,0,1,238.2,379c2.86-2.76,6.07-5.68,10-5.94,2.85-.18,5.57,1.06,8.15,2.29,9.65,4.62,24,13.43,21.12,26.48-2.66,11.9-21.77,2-27-3a46.45,46.45,0,0,1-4.9-5.76l-7.38-9.7C237.54,382.56,236.85,381.53,237.14,380.49Z"/><path class="cls-2" d="M560.49,525.84a55.76,55.76,0,0,1-9.4,11.86c-10.09,9.62-23,14.52-37.36,17.35,13.12,25.28.6,44-14.89,60.43-14.86,15.78-36.54,22.72-53.77,27-39.53,9.84-70.74,7.1-92.74-8.15-13.36-9.26-23.63-23.25-31.39-42.78A199.41,199.41,0,0,1,312.76,565c-.4-1.62-.79-4.57-1.25-8-1.14-8.54-2.86-21.44-6.23-23.87-2.51-1.81-4.94-1.16-7.43,2-6.15,7.79-10.54,28.59-12.42,37.47-.33,1.61-.6,2.89-.8,3.73-.37,1.53-.73,3.08-1.09,4.63-3.8,16.33-7.73,33.21-20.65,44.74-12,10.73-29.33,13.83-43.23,16.32-38,6.81-74.48,11.4-104-6.84-15.28-9.45-26.19-24-34-35.67a56.7,56.7,0,0,1-6.38-12.15c-1-2.39-2.08-5.1-4-8.92l-.4-.77c-12.82.38-25-1.31-36-9.1C15.53,555,5,527.72,3.16,506.75a226.88,226.88,0,0,1,4.17-66.24l.16-.74.64.4c3,1.89,6,3.87,9.18,5.92-3.72-3.26-6.44-6.44-7.77-9.42h0C1.2,418-1.77,387.61,2.32,362.75c3.59-21.88,18-48.45,42.22-58.51l.62-.26.1.66c5.48,34.38,21.92,50.49,46.37,71.15,22.68,19.16,49.11,33.68,74.68,47.72,12.74,7,28.57,15.68,45,14.22,1.31-7.22-4.18-14.14-16.77-21.16-47.41-26.41-85.32-54.79-115.9-86.77A205.35,205.35,0,0,1,50.3,292.69c-6.09-10.51-12.67-25.18-9.47-35.43C45.25,243.1,56,226.19,70.25,210.87c13.78-14.78,28.11-25,38.32-27.4l.48-.11.14.46c13.59,43.13,58.24,115.89,109.44,163,4.65,4.28,11.32,6.57,16.23,5.57a6.63,6.63,0,0,0,5-3.68c1.23-2.7-1.78-7.63-3.77-10.89-.44-.73-.85-1.4-1.18-2-7.85-13.9-19.71-25.23-31.17-36.19-3-2.88-6.12-5.85-9.11-8.83a309,309,0,0,1-77-127.22c-3.66-11.82-6.73-25.5-1.7-37.31,2.63-6.17,13.28-14.39,20.32-19.83l2.79-2.17,1.38-1.09c11.13-8.81,17.27-13.67,23.69-16.46s13.21-3.48,24.94-3.79l.88,0-.4.79c-12.44,24.87,6.37,73.4,26.41,117.59,4.84,10.66,21.72,45.77,35.79,49.75a7.54,7.54,0,0,0,6.53-.92c8-11.51.05-22.13-7.63-32.4a94,94,0,0,1-6.33-9.17c-3.07-5.38-6.24-10.79-9.31-16-20.64-35.14-40.12-68.34-39.1-109,.09-3.78,0-7.51-.16-11.1-.49-14.24-.91-26.53,12.73-33.25,7-3.44,29.72-10,37.87-11.93,11.26-2.7,22.11-7.62,32.61-12.39C292.94,8.55,307.38,2,322.87.68c13.23-1.13,24.78,3.33,37,8.05,4.29,1.65,8.73,3.36,13.24,4.81,2.47.8,5.3-.26,8-1.28,3.47-1.3,7-2.63,9.08.74,4.33,7.16-1.48,39.44-3.86,46.57-3.89,11.63-7.87,22.64-11.72,33.28-15.76,43.6-29.38,81.26-24.57,129.59a1.63,1.63,0,0,0,1.68,1c10.22-1,41.17-70.54,51.45-102.91,12.54-39.47,10.55-78.94-5.45-108.29l-1-1.81,1.73,1.11c15.78,10.18,26.91,26,37.67,41.21,3.18,4.52,6.48,9.19,9.84,13.63a54.52,54.52,0,0,0,6.85,6.86c4.73,4.24,9.62,8.62,10.76,13.57,1.75,7.62-1,24.41-2.44,33.42l-.23,1.39c-8.84,54.84-29.36,106.81-54.9,139-3.15,4-6.72,8.09-10.51,12.44-12.67,14.58-27,31.11-29.83,48,1.18,3.13,2.92,5,5.18,5.49,6.69,1.51,16.93-8.44,23-14.39l1.15-1.11c33.23-32.13,95.94-112.58,92.35-145.43l-.07-.64.65.06c15,1.48,24.94,16.24,34.55,30.51,2.73,4.05,5.31,7.88,8,11.36,4.37,5.72,5.5,13.11,6.36,20.81.89,8,.71,14.37-3,21.46q-2.79,5.37-5.84,10.56c33.21,33.65,38.13,90.12,14.23,130.24A95.62,95.62,0,0,1,530,406.36c-11.18,11.94-25,21.12-38.28,30-23.19,15.44-47.16,31.41-74.36,39.86-2.32.72-5,1.46-7.89,2.24-11.88,3.24-26.69,7.27-29.71,14.25a7.08,7.08,0,0,0,.41,6.27c35.73,2.44,73.42-6.58,106.18-25.44s59.65-47.08,75.46-79.31l.66-1.34.33,1.45a377.09,377.09,0,0,1,9,72.55C572.3,484.2,571.38,507.57,560.49,525.84ZM407.13,567.35l.07-.11c1.94-3.13,5.95-3.86,10-4.19l68.07-5.52c25.06-2,48.89-5.14,65.1-20.59,19.47-18.57,21-48.85,20.43-70a376.07,376.07,0,0,0-8.66-70.9q-2.88,5.73-6.14,11.21c-35.77,60-106.18,97.69-176.16,92.78l-.3,0-.13-.25a8.32,8.32,0,0,1-.57-7.44c3.23-7.44,18.29-11.54,30.39-14.84,2.86-.78,5.56-1.51,7.86-2.23,27.05-8.4,51-24.33,74.09-39.74,13.27-8.84,27-18,38.09-29.84,36.46-39,35.74-106.31-1.39-144.58A256.4,256.4,0,0,1,507,304.82c-31.77,53.33-80.12,94.1-120.26,116.84l-.74.42c-5.37,3.05-16.55,9.4-22.05,9.2-6-.23-9.76-6.52-9.76-12.23s9.8-12.51,14-15.4l8.53-5.87C437.06,356.23,499.48,313.26,533,248.71c3.56-6.85,3.74-13.06,2.87-20.85-.85-7.56-2-14.79-6.16-20.29-2.68-3.51-5.27-7.35-8-11.41-9.34-13.86-19-28.19-33.15-30,1.6,19.19-17.25,50.91-33.44,74.27-20.43,29.46-44.5,57.07-59.29,71.37l-1.15,1.11c-6.67,6.5-16.76,16.31-24,14.66-2.66-.6-4.67-2.71-6-6.28l-.05-.13,0-.13c2.79-17.27,17.3-34,30.1-48.69,3.78-4.34,7.34-8.44,10.48-12.4,25.42-32.06,45.87-83.83,54.69-138.5l.22-1.4c1.35-8.3,4.16-25.59,2.45-33-1.06-4.63-5.82-8.9-10.43-13a56.15,56.15,0,0,1-7-7c-3.37-4.45-6.67-9.13-9.86-13.66C425,38.75,414.36,23.66,399.65,13.57c15.24,29.4,16.92,68.35,4.55,107.27-9.35,29.46-40.95,102.48-52.34,103.65a2.73,2.73,0,0,1-2.76-1.62l-.06-.21c-4.87-48.63,8.8-86.41,24.61-130.16,3.85-10.64,7.83-21.64,11.71-33.26,2.67-8,7.88-39.21,4-45.7-1.51-2.5-3.95-1.74-7.81-.3-2.76,1-5.89,2.21-8.71,1.3-4.54-1.46-9-3.17-13.29-4.83C347.39,5,336,.62,323,1.72,307.65,3,293.3,9.54,279.41,15.85c-10.54,4.78-21.44,9.73-32.8,12.45-8.11,1.95-30.74,8.44-37.65,11.85-13,6.42-12.62,18.4-12.14,32.27.13,3.61.25,7.35.16,11.17-1,40.31,18.4,73.39,39,108.4,3.07,5.23,6.25,10.64,9.32,16a93.78,93.78,0,0,0,6.26,9.06c7.55,10.1,16.11,21.54,7.59,33.72l-.13.13a8.65,8.65,0,0,1-7.49,1.11c-14.5-4.1-31.57-39.56-36.45-50.33-19.94-44-38.65-92.23-26.77-117.71-22.7.66-25.24,2.66-47.15,20l-1.38,1.09c-.8.64-1.75,1.37-2.8,2.18-6.53,5-17.48,13.49-20,19.41-4.9,11.5-1.87,24.95,1.73,36.59a308.25,308.25,0,0,0,76.72,126.78c3,3,6.1,5.95,9.11,8.82,11.52,11,23.42,22.4,31.35,36.44.33.57.73,1.23,1.16,1.94,2.24,3.65,5.3,8.66,3.84,11.87a7.68,7.68,0,0,1-5.78,4.28c-5.22,1.06-12.27-1.34-17.15-5.83-51.14-47-95.77-119.64-109.58-163-23.62,5.93-58.47,47.21-66.51,73-5.57,17.85,19.4,52.54,37.54,71.51C109.88,361,147.71,389.3,195,415.65c13.27,7.4,18.9,14.81,17.21,22.67l-.08.38-.38,0c-16.86,1.68-33-7.18-46-14.3C140.19,410.36,113.71,395.82,91,376.6c-24.48-20.68-41-36.85-46.63-71.13-23.44,10.09-37.47,36-41,57.45-4,24.68-1.11,54.83,7.15,73.32l-.48.21.48-.21c3.11,7,15,16.17,32.71,25.22C59,469.54,77,476.37,90.26,479.27c18.83,4.12,36.38,7.27,53.36,10.32s34.57,6.21,53.41,10.34c2.71.59,11.49,3,10.76,9.15-.56,4.65-5.94,6.4-8.23,6.94-24.51,5.73-90.47-9.14-129.67-34-9.73-6.18-20.63-13.44-31.17-20.47-10.3-6.87-20.95-14-30.51-20a225.38,225.38,0,0,0-4,65.19c1.83,20.72,12.2,47.63,31.23,61,16.25,11.44,35,9.44,54.91,7.32,3.53-.38,7.18-.76,10.79-1.07,26.7-2.26,54.31-4.61,81.5-3.3,2.65.12,10.74,1.17,13,4.21a2.7,2.7,0,0,1,.52,2.35c-.51,2-5.81,8.63-7.77,9.66l-.23.13c-15.46,8.1-24.78,13-42.19,16a79.73,79.73,0,0,1-30.47-.84c-11.9-2.74-21.42-8.29-27.51-16-5.07-6.45-6.25-6.55-12.8-7.11-.78-.06-1.62-.14-2.56-.23,1.73,3.42,2.75,5.93,3.66,8.16a56.15,56.15,0,0,0,6.27,12c7.74,11.55,18.56,26,33.68,35.35,29.18,18,65.48,13.47,103.23,6.71,13.77-2.47,30.91-5.54,42.72-16.08,12.68-11.31,16.57-28,20.33-44.19l1.08-4.64c.2-.83.47-2.1.81-3.69,2-9.71,6.32-29.92,12.62-37.91,3.57-4.52,6.79-3.69,8.86-2.2,3.74,2.7,5.43,15.35,6.66,24.59.46,3.38.85,6.31,1.23,7.87a197.72,197.72,0,0,0,8.14,26.45c7.68,19.33,17.82,33.17,31,42.31,21.74,15.06,52.66,17.75,91.89,8,17.09-4.25,38.59-11.13,53.26-26.71,25.65-27.24,22.33-44.55,14.75-59.16-16.22,2.79-16.77,4.48-17.28,13.85-1.44,27-14.54,27.4-29.72,27.83l-3.11.09C444.91,598,428,589.51,415.24,582c-3.62-2.12-7.83-5.8-8.81-9.75A6.41,6.41,0,0,1,407.13,567.35Zm.91.54a5.3,5.3,0,0,0-.59,4.13c.9,3.64,4.89,7.09,8.32,9.1,12.63,7.41,29.37,15.83,46.91,15.2l3.12-.09c15.26-.43,27.31-.77,28.71-26.84.39-7.39,1.11-10.35,7.59-12.49-5.48.7-11.08,1.22-16.75,1.67l-68.07,5.52c-3.77.31-7.49,1-9.18,3.7ZM356.32,415.73a6.63,6.63,0,0,0-1.08,3.32c0,5.22,3.35,11,8.75,11.18,5.2.19,16.2-6.06,21.49-9.07l.74-.41C436,392.56,498.36,336.59,525.91,263.37c-35,57-92.67,96.76-148.62,135.28-2.84,2-5.69,3.91-8.52,5.87S359,411.27,356.32,415.73ZM71.52,577.63l.26,0c1.32.14,2.47.24,3.5.33,6.61.56,8.19.69,13.53,7.5,12.55,16,38.33,19.75,57,16.5,17.25-3,26.52-7.86,41.88-15.92l.23-.12c1.67-.88,6.81-7.27,7.24-9a1.7,1.7,0,0,0-.34-1.47c-1.69-2.27-8.29-3.61-12.21-3.79-27.12-1.3-54.69,1-81.36,3.3-3.6.3-7.24.69-10.76,1.06C84,576.74,77.7,577.41,71.52,577.63ZM38.92,460.39l.38.26c10.54,7,21.43,14.28,31.15,20.45,39,24.77,104.55,39.59,128.87,33.89,2.07-.48,7-2,7.43-6,.5-4.18-4.81-6.87-9.95-8-18.82-4.13-36.38-7.28-53.36-10.33s-34.56-6.21-53.4-10.34C75.69,477.14,55.57,469.37,38.92,460.39Zm240.36.34a29.72,29.72,0,0,1-2.75,3.73,5.38,5.38,0,0,1-2.23,1.8,5.23,5.23,0,0,1-2.39.1,39.65,39.65,0,0,1-24.33-12.92c-1.34-1.51-2.86-3.55-2.79-5.92a6.59,6.59,0,0,1,3.63-5.38,14.63,14.63,0,0,1,6.26-1.47c6.62-.33,19,1.38,24.07,7.41a10,10,0,0,1,2,9h0A12.32,12.32,0,0,1,279.28,460.73Zm-32.76-15.38a4.53,4.53,0,0,0-.68,2.2c-.06,2,1.31,3.83,2.52,5.19A38.69,38.69,0,0,0,272,465.32a4.25,4.25,0,0,0,1.92-.05,4.5,4.5,0,0,0,1.76-1.49c1.64-1.95,3.44-4.25,4-6.89l.51.12-.51-.12a8.94,8.94,0,0,0-1.81-8.13c-4.83-5.74-16.8-7.36-23.22-7a13.55,13.55,0,0,0-5.8,1.34A6.34,6.34,0,0,0,246.52,445.35ZM277,404.59a6.56,6.56,0,0,1-3.89,3c-6.92,2.12-18.83-4.39-23-8.33a47.72,47.72,0,0,1-5-5.82l-7.38-9.71c-.53-.7-1.53-2-1.14-3.38h0a4.1,4.1,0,0,1,1.21-1.7c3.17-3.06,6.34-5.82,10.36-6.08,2.87-.19,5.51.95,8.42,2.34,16.46,7.88,23.66,17,21.4,27.06A8.78,8.78,0,0,1,277,404.59ZM237.8,380.28a1.19,1.19,0,0,0-.15.35h0c-.22.76.33,1.63.95,2.46l7.39,9.7a45.2,45.2,0,0,0,4.84,5.69c4.18,3.95,15.71,10,22,8.1a6,6,0,0,0,4.19-4.85c2.13-9.53-4.88-18.24-20.84-25.88-2.77-1.33-5.28-2.42-7.89-2.24-3.66.23-6.68,2.87-9.7,5.78A4.55,4.55,0,0,0,237.8,380.28Z"/><path class="cls-3" d="M424.89,610.94l-106.71-78-10.41-9.48c.09-1.19.53-1.24,1-1.23,32.4.58,64.3,7.89,96.54,11.15,32.74,3.31,67.34,2.06,96.23-13.69-51.19,22.78-142.26,5.53-189.38-2.6-1.8-.31-.71-9.15-.65-11.14l.56-17.7a10.73,10.73,0,0,1,1.12-5.39c1.42-2.28,4.25-3.14,6.84-3.84,70.68-19.05,141.44-48.35,191.06-102.17a394.72,394.72,0,0,1-200.16,97.53,600.63,600.63,0,0,1,.85-69.2,387.11,387.11,0,0,0,128.31-90.89c-39.77,34.16-80.78,69.06-130.24,86.44l.29-84.25c32.55-23,59.76-54.68,73.55-89a266.3,266.3,0,0,1-74.34,85,1805.09,1805.09,0,0,1,8.45-239c-6.68,25.57-8,52.19-9.28,78.59-3.11,63.88-4.05,128.85-7.16,192.74C263.78,330.39,207.13,263.31,178,194a313.68,313.68,0,0,0,107.49,147c4,3,8.2,6.05,10.55,10.45s2.52,9.34,2.7,14.2l.29,54.53c.08,2.16-.07,8.65-1.22,10.48-3.4,5.39-4.88,2.69-9.47.89-65-25.46-125.27-72.18-166.87-128.25A399.7,399.7,0,0,0,280.88,432.5c5,2.24,10.38,4.6,13.51,9.13,2.54,3.67,1.95,15,1.88,19.5-.26,15.75-.32,18.9-.45,30.94-80.56-11.21-131-20.51-231.94-74.68,63.39,39.9,141.52,68.11,214,78.09,8.46,1.17,14.68,1.29,15.65,4.3a26.67,26.67,0,0,1,.81,15.92c-1.36,6.1-1.91,6.34-6.22,7.71A502.76,502.76,0,0,1,135.77,547c53.93,9,108.84-10.09,162.09-18.42-41.22,32.94-75.15,62.57-132.81,85.63,24.79-3.65,69.21-30.6,98.45-53.78,10.94-8.67,24.06-17.56,34.72-26.83,2.66-2.32,4.59-2.94,7.36-.93,8.18,5.91,23.42,11.47,28.1,15.16,9.09,7.17,18.77,13.24,28.11,20.06C382.42,583,405.2,595.34,424.89,610.94Z"/><path class="cls-2" d="M501.77,520.11c-24.49,13.35-56.06,17.85-96.53,13.76-12.14-1.23-24.43-3.06-36.31-4.83-19.67-2.93-40-6-60.19-6.32-.25,0-.36,0-.42.48l10.21,9.31L409.44,599c5.41,3.7,10.72,7.53,15.78,11.54l-.64.84-15.73-11.51c-6.42-4.4-13-8.62-19.42-12.76-9.29-6-18.89-12.16-27.95-18.77-3.68-2.69-7.49-5.31-11.17-7.84-5.62-3.87-11.44-7.88-16.95-12.22-2.11-1.66-6.59-3.8-11.34-6.07-5.76-2.75-12.29-5.86-16.74-9.08-2.35-1.7-4-1.49-6.72.89-6.54,5.7-14,11.27-21.3,16.67-4.73,3.51-9.2,6.82-13.43,10.18-29.56,23.43-74.2,50.28-98.71,53.89l-4.41.65,4.14-1.66c52.36-20.93,84.45-46.76,121.61-76.66l9.52-7.65c-13.83,2.23-28,5.2-41.72,8.07-38.94,8.15-79.2,16.58-118.58,10l.09-1a500.74,500.74,0,0,0,152.16-23.59c4.12-1.31,4.55-1.45,5.87-7.32,1.14-5.06,1.34-9.05-.8-15.65-.7-2.15-5-2.67-10.91-3.39-1.36-.17-2.8-.34-4.31-.55-73.21-10.08-151.27-38.57-214.18-78.16l.53-.91c101.41,54.41,151.58,63.45,231.17,74.54.13-11.49.18-14.85.44-30.05v-.29c0-.47,0-1,0-1.63.12-5,.35-14.43-1.82-17.57-3-4.37-8.17-6.67-13.14-8.89l-.15-.06A398.6,398.6,0,0,1,121.06,303.65l.84-.62c41.75,56.28,102.49,103,166.64,128.08,1,.4,1.87.84,2.63,1.22,2.68,1.36,3.79,1.93,6.2-1.9,1-1.58,1.24-7.86,1.15-10.18l-.29-54.54c-.18-4.53-.37-9.69-2.65-14s-6.16-7.11-10-10l-.42-.31A315.3,315.3,0,0,1,177.51,194.21l1-.38c27.94,66.45,83.79,134.88,122.36,150.08,1.54-31.7,2.56-64.2,3.55-95.63,1-31.68,2-64.43,3.58-96.38,1.26-26,2.57-53,9.29-78.69l1,.19a1812.74,1812.74,0,0,0-8.48,238,266.85,266.85,0,0,0,73.39-84.19l.94.45c-13.4,33.38-39.5,65-73.51,89.09L310.36,400c49.72-17.68,92-54,129.36-86.1l.73.76A389.48,389.48,0,0,1,312.26,405.5a601.77,601.77,0,0,0-.85,68.22,396.17,396.17,0,0,0,199.31-97.29l.74.74c-42.5,46.08-103.29,78.6-191.32,102.32-2.71.73-5.25,1.56-6.52,3.6-1,1.48-1,3.43-1.05,5.13l-.56,17.7c0,.37-.05,1-.11,1.71-.58,7.59,0,8.84.33,8.9l6.3,1.09c50.09,8.71,133.92,23.29,182.77,1.55Zm-194.22,2.14a1.24,1.24,0,0,1,1.21-.58c20.25.36,40.62,3.39,60.33,6.33,11.87,1.77,24.14,3.6,36.26,4.82,34.33,3.47,62.2.74,84.73-8.36-49.94,15.38-125.3,2.27-171.73-5.8l-6.3-1.1c-1.63-.28-1.68-3.73-1.2-10,.06-.71.1-1.29.12-1.65l.55-17.7c.06-1.74.12-3.93,1.21-5.65,1.47-2.37,4.22-3.28,7.14-4.06,81.43-22,139.48-51.41,181.26-92.19A397.72,397.72,0,0,1,311,474.86l-.58.1,0-.6a606,606,0,0,1,.85-69.25l0-.32.29-.13A388.64,388.64,0,0,0,432.31,321.6c-35.59,30.45-75.66,63.19-122.31,79.59l-.7.24.29-85.26.23-.16c31-21.9,55.41-50.09,69.59-80.15a268,268,0,0,1-69.77,76.94l-.81.6,0-1a1814.23,1814.23,0,0,1,7.69-231.46c-5.15,23.35-6.32,47.54-7.47,71-1.55,31.94-2.58,64.69-3.57,96.36s-2,64.43-3.58,96.38l0,.72-.68-.25c-35.79-13.6-86.72-73.43-116.55-135.25A314.76,314.76,0,0,0,285.81,340.63l.42.31c3.91,2.93,8,6,10.28,10.32s2.59,9.76,2.77,14.42l.29,54.55c.06,1.59,0,8.53-1.27,10.7l0,.06c-2.79,4.43-4.51,3.83-7.56,2.28a26.92,26.92,0,0,0-2.54-1.18c-43.92-17.2-86.25-44.48-122-78A397.44,397.44,0,0,0,281.1,432l.14.06c5.11,2.28,10.4,4.64,13.58,9.25,2.37,3.43,2.14,12.67,2,18.2,0,.6,0,1.15,0,1.61v.3c-.26,15.45-.31,18.67-.44,30.64v.59l-.59-.08C220,482.05,170.93,473.45,79.59,426.26c59.86,34.66,131.14,59.45,198.33,68.7,1.51.21,2.95.38,4.29.55,6.56.79,10.89,1.32,11.79,4.11a27.33,27.33,0,0,1,.83,16.2c-1.4,6.22-2,6.65-6.58,8.09A501.23,501.23,0,0,1,142.79,547.5c37,4.52,74.7-3.38,111.26-11,14.38-3,29.25-6.12,43.73-8.39l2-.3L298.18,529q-5.61,4.49-11.06,8.89c-36,29-67.25,54.11-116.75,74.72,25.08-6.22,65.42-30.87,92.81-52.58,4.25-3.37,8.72-6.69,13.45-10.21,7.24-5.38,14.74-10.94,21.24-16.61,2.62-2.28,4.87-3.23,8-1,4.38,3.16,10.86,6.26,16.58,9,5,2.39,9.34,4.46,11.54,6.19,5.48,4.33,11.28,8.32,16.9,12.19,3.68,2.53,7.49,5.15,11.19,7.86,9,6.59,18.62,12.76,27.9,18.73l1.64,1-73.77-53.95-10.64-9.69,0-.25A2.48,2.48,0,0,1,307.55,522.25Z"/></g></g></g></svg>