<svg xmlns="http://www.w3.org/2000/svg" viewBox="0 0 477.66 521.73"><defs><style>.cls-1{fill:#5d684f;}.cls-1,.cls-2,.cls-3{stroke:#000;stroke-miterlimit:10;}.cls-3{fill:#bdd19d;}</style></defs><g id="Layer_2" data-name="Layer 2"><g id="plants"><g id="monstera"><path class="cls-1" d="M441.53,202.36c-8.66-17.29-26.55-32.62-45.8-34.4,4.14,28.68-5.82,45.65-18.56,65.62s-29.28,37.17-45.72,54.23c-9,9.32-18.78,19.11-31.47,21.72-3.92-7,2.19-15.11,7.7-20.9,26.93-28.3,50.39-58.68,67.78-93.67,10.06-20.23,20.09-51.68,11.64-63.92C372.75,110.26,335.48,89.72,318.23,91c-.13,37.16-17.79,103.91-44.88,150.62-4,6.87-12.59,10.9-16.45,6.57-2.09-2.34,0-8.31.62-11.37,3.42-15.84,12.53-29.73,20.1-44.05a247.16,247.16,0,0,0,28.49-115.2c0-10.07-.95-20.94-7.47-28.62-3.92-4.62-17-9-22.69-11.18-22.27-8.57-24.39-9.64-43-4.4,16.13,16.78,12.27,61.32,7.89,96.38-2.16,17.34-8.67,51.46-21.31,47.66-12-9.29-1.87-24.43.57-35.52,8-36.45,19.26-71.34,7.27-106.68-4.79-14.14-5-28.27-19.8-30.59-6.27-1-25.31-.52-31.64-.1-21.61,1.43-43.52-6.8-64.66-2.15C97.3,5.43,87.84,15.81,76.13,24c-4.11,2.89-11.82-1.47-13,3.41-1.52,6.19,10.22,29.12,14,34.29,29.32,40.71,56.76,68.51,66.48,116-2.43,11.4-48.49-40.5-65.55-64.94s-27.48-55-21.63-84.28c-12.43,14.87-16.59,34.78-23.17,53-2.09,5.82-9,13.44-8.56,19.61.5,6.5,7.36,20,10.26,25.79,20.62,41.45,48.58,75,74.79,92.89,14.8,10.09,37.37,20.8,45.35,36.83-.66,13-17.35,3.86-25.41-.2C99,241,29.62,194,24.35,167.05,10.31,173,7.52,194,2.06,208.87c-2,5.43-1,11.5.1,17.17,1.2,6.19,2.83,11,7.26,15.46,42.93,43.34,104.56,61.06,162.8,79.22,4.08,1.27,12.79,4.06,14.06,8.15,1.33,4.29-.05,9.64-4.29,11.14s-15.06-1-19.45-1.95c-39.7-8.61-104.91-34.85-146.06-89.44-19.75,38.16-4.2,90.62,33.15,111.85,11.27,6.41,23.83,10.12,36.26,13.77C107.5,380.59,129.48,387,152,387c12.33,0,36.47-3.17,34.18,9.26C130.72,417.88,62.86,402.66,22,359.43a300.32,300.32,0,0,0,10.34,57.44c5.49,19.39,14.4,39.91,32.45,48.85,16.73,8.29,36.65,4.38,54.87.29l53.27-12c2.8-.63,6.09-1.15,8.26.73,3.64,3.15.58,9-2.66,12.6-9,9.91-19.46,19.35-32.39,22.87s-23.31,8-31.2-13.25c-2.73-7.36-3.69-8.51-17.23-6.7-3.79,20.62,7.21,32.09,25.47,42.4,14.09,7.95,31.08,8.72,47.23,7.79,25.43-1.48,52.87-8,68.55-28.1,8.93-11.43,12.62-25.64,13.71-39.89a162.56,162.56,0,0,0-.07-22.18c-.29-4.74-4.68-22.5-1.77-26.37,1.77-2.36,4.12-2.11,6.71-.34,7.77,5.32,17.62,24.42,20,28.44,7.3,12.3,14.44,26.13,28.13,32.36,11.29,5.13,24.35,3.69,36.66,2.15,28.11-3.51,58.89-8.39,77.47-29.78,8.64-9.95,13.65-22.52,17.4-35.15,2.45-8.27,1.43-10,2.94-18.52-7.17,3.07-8.14,2.5-10.92,9.78-6.16,16.17-25.89,24.58-39.9,26.41s-22.19.3-36.09-2.25c-1.57-.29-7.12-4-7.95-5.34-1.68-2.79,5.48-6.49,8.54-7.61,20.26-7.38,41.89-12.18,63-16.82,18.49-4.08,37.36-5.53,48.91-20.54,11-14.26,13.23-36.77,9.42-54.35a181,181,0,0,0-18.88-49.46c-11.92,14.05-25.94,32-37.85,46.05-24.18,28.51-71.06,55.23-90.61,56.63-2.93.21-6.32-.41-7.52-3.09-1.59-3.55,2.49-7.08,5.87-9,26.79-15.25,49.8-25.89,76.59-41.14,18.52-10.55,49.23-38.32,50.87-52.11C455.4,244.61,450.77,220.82,441.53,202.36ZM267.88,322a11,11,0,0,1,4.94-.36,4.88,4.88,0,0,1,3.73,3c.55,1.59,0,3.33-.7,4.87a31.22,31.22,0,0,1-15.3,15.43,3.67,3.67,0,0,1-1.67.46,4.09,4.09,0,0,1-1.91-.78,14.11,14.11,0,0,1-4.85-4.45C246.69,330.78,261.31,323.7,267.88,322Zm-1.12-48-3.33,9.16a37.31,37.31,0,0,1-2.37,5.56c-2.85,5.05-15.08,17.15-19.94,8.7-5.32-9.26,3.57-19.41,9.84-25.23,1.67-1.55,3.46-3.15,5.68-3.69,3.08-.74,6.23.73,9.06,2.15a2.74,2.74,0,0,1,1.16.87A2.86,2.86,0,0,1,266.76,274Z"/><path class="cls-2" d="M31.89,417a301.94,301.94,0,0,1-10.36-57.52l-.09-1.19.82.87C42,380,69.14,395.12,98.7,401.75s60.41,4.55,87.11-5.81a5.69,5.69,0,0,0-1.19-4.88c-4-4.61-16.22-4.16-26.06-3.81-2.37.08-4.61.16-6.56.16-22.76,0-44.86-6.48-66.23-12.77-12.28-3.61-25-7.34-36.34-13.8a75.5,75.5,0,0,1-13.26-9.58C8.39,326.32-1.26,282,16.09,248.46q-3.55-3.22-7-6.67c-4.49-4.53-6.15-9.36-7.37-15.67-1.17-6.08-2.06-12-.08-17.39,1.21-3.3,2.26-6.83,3.39-10.57,3.94-13.18,8-26.8,19.12-31.5l.48-.2.1.51C29.82,192.9,96.81,239.41,129.81,256l1.14.57c6.08,3.09,16.26,8.26,21,5.51,1.6-.93,2.49-2.75,2.65-5.42-6.16-12.25-21.05-21.45-34.19-29.58-3.92-2.42-7.62-4.71-11-7-27.14-18.51-55.15-53.29-74.93-93.06l-.51-1c-3.25-6.53-9.32-18.69-9.8-24.92-.31-4,2.38-8.56,5-12.92a43.77,43.77,0,0,0,3.6-6.87c1.51-4.18,2.91-8.53,4.27-12.74,4.59-14.2,9.34-28.88,19-40.4l1.05-1.27-.32,1.62c-5.24,26.21,2.62,56.81,21.57,84,15.54,22.27,55.68,68,63.72,66.34.35-.08.83-.27,1.05-1.17-7.81-38-27.15-63.55-49.54-93.08C88.1,77.39,82.45,69.94,76.72,62c-3.51-4.87-15.62-28.13-14-34.63.76-3.06,3.81-2.89,6.76-2.72,2.32.13,4.73.27,6.43-.93,3.1-2.18,6.07-4.54,9-6.82,8.22-6.51,16-12.65,26.35-14.94,12.13-2.67,24.71-1.09,36.88.43,9.14,1.14,18.6,2.32,27.84,1.71,6.68-.44,25.59-.86,31.74.1,12,1.89,14.6,11.38,17.61,22.36.76,2.78,1.55,5.65,2.52,8.52,10.43,30.76,3.44,60.73-4,92.46-1.1,4.72-2.24,9.6-3.3,14.44a74.11,74.11,0,0,1-2.66,8.5c-3.42,9.66-7,19.66,1.88,26.55a6,6,0,0,0,5.2-.85c9.8-6.38,14.34-37.19,15.5-46.48,4.8-38.5,7.63-80-7.78-96l-.49-.5.68-.19c9-2.55,14.31-3.65,19.94-3s11.4,2.86,22,6.94l1.31.51,2.64,1c6.67,2.48,16.75,6.23,20.22,10.31,6.65,7.82,7.56,19,7.57,28.89A247.25,247.25,0,0,1,278,193c-1.58,3-3.25,6-4.87,8.91-6.14,11.08-12.5,22.55-15.19,35-.11.52-.26,1.13-.43,1.78-.75,3-1.87,7.44-.29,9.22a5.3,5.3,0,0,0,4.72,1.61c4-.4,8.53-3.74,11.06-8.11C300.88,193.28,317.68,127.14,317.81,91v-.39l.39,0c8.36-.61,21.73,3.81,35.76,11.82,14.54,8.3,26.74,18.66,33.48,28.42,4.88,7.06,3.34,19.83,1.19,29.29a165,165,0,0,1-12.79,35.06c-15.75,31.68-37.95,62.35-67.86,93.77-8,8.35-10.49,14.94-7.78,20.13,12.87-2.77,22.89-13.17,30.95-21.53,16.18-16.79,32.91-34.16,45.67-54.17,13.76-21.58,22.48-37.78,18.49-65.33l-.07-.53.53,0c20.85,1.93,38.19,18.79,46.13,34.63,9,18,14,41.92,12.05,58.15h0a23.86,23.86,0,0,1-3.69,9c1.91-2.3,3.78-4.55,5.6-6.69l.39-.47.3.54a181.49,181.49,0,0,1,18.92,49.57c3.56,16.44,2,39.74-9.5,54.7-6.6,8.57-15.46,12.74-25.34,15.5l-.12.68a76.86,76.86,0,0,0-1,7.78,46.46,46.46,0,0,1-2,10.79c-3.19,10.74-8.06,24.45-17.48,35.3C401.9,458,372.93,463.15,342.34,467c-11.2,1.4-25.14,3.14-36.88-2.19-12.61-5.73-19.62-17.69-26.39-29.25l-1.93-3.28c-.35-.59-.86-1.5-1.51-2.65-3.54-6.33-11.83-21.17-18.38-25.65-2.64-1.82-4.65-1.74-6.14.24-2,2.66-.24,12.92.91,19.71.47,2.71.86,5,.95,6.39a160.33,160.33,0,0,1,.07,22.24c-1.28,16.75-5.8,29.87-13.8,40.11C226.07,509.52,202.9,519,170.39,520.9c-14.18.83-32.38.68-47.47-7.84-15.73-8.87-29.73-20.18-25.72-42.59-11.6,1.24-22.65.58-32.64-4.37a44.31,44.31,0,0,1-10-6.82C41.91,447.92,35.66,430.3,31.89,417ZM183.2,458.13c.19,3.25-2.15,7.05-4.41,9.53-7.95,8.74-18.85,19.25-32.59,23l-2.41.66c-11.68,3.28-21.77,6.11-29.29-14.18-2.61-7-3.44-8.19-16.48-6.46-2.32,12.95-.74,26.95,25.31,41.65,14.9,8.41,33,8.55,47,7.74,32.26-1.87,55.22-11.27,68.24-27.94,7.9-10.11,12.35-23.08,13.62-39.66a158.6,158.6,0,0,0-.07-22.12c-.08-1.29-.48-3.61-.93-6.3-1.26-7.35-3-17.41-.76-20.35,1.23-1.64,3.49-3,7.29-.43,6.71,4.6,14.77,19,18.64,25.93.63,1.14,1.14,2.05,1.49,2.63l1.93,3.29c6.71,11.45,13.65,23.28,26,28.9,11.53,5.24,25.34,3.51,36.43,2.13,30.43-3.81,59.23-8.94,77.22-29.65,9.31-10.72,14.14-24.33,17.31-35a45.06,45.06,0,0,0,1.94-10.62c.16-1.92.35-4.08.85-7.09l-1.9.78c-4.86,2-5.74,2.34-8.08,8.46-2.8,7.37-8.75,13.87-17.18,18.8a63.68,63.68,0,0,1-23.06,7.87c-14,1.82-22.29.3-36-2.21l-.2,0c-1.75-.32-7.36-4.1-8.23-5.53a2.15,2.15,0,0,1-.16-1.92c1-2.86,6.93-5.58,8.92-6.3,20.44-7.46,42.08-12.23,63-16.84,2.83-.63,5.7-1.2,8.49-1.75,15.68-3.11,30.49-6,40.17-18.63,11.35-14.75,12.87-37.76,9.35-54a180,180,0,0,0-18.55-48.81c-5.85,6.91-12.29,14.86-18.52,22.55-6.38,7.87-13,16-18.93,23-24,28.32-70.83,55.34-90.9,56.78-1.88.14-6.4.08-7.94-3.34-2-4.51,4.12-8.44,6.05-9.54,13.4-7.63,26.06-14.21,38.31-20.58s24.89-12.94,38.28-20.56c9.41-5.35,21.55-14.85,31.68-24.77,11.35-11.1,18.27-20.95,19-27l.41,0-.41,0c1.91-16.08-3-39.79-12-57.67-7.76-15.51-24.63-32-44.93-34.12,3.84,27.51-4.92,43.77-18.69,65.37-12.8,20.09-29.56,37.48-45.77,54.3-8.21,8.51-18.42,19.11-31.69,21.84l-.3.06-.15-.27c-3.16-5.59-.62-12.59,7.75-21.39,29.85-31.36,52-62,67.72-93.56,9.34-18.79,20.15-51.21,11.66-63.5-12.25-17.76-48.66-41-68.1-39.9-.25,36.35-17.07,102.38-44.93,150.43-2.66,4.59-7.48,8.1-11.71,8.53a6.12,6.12,0,0,1-5.43-1.9c-1.87-2.1-.73-6.65.11-10,.16-.65.31-1.25.42-1.76,2.72-12.6,9.1-24.12,15.28-35.26,1.61-2.91,3.28-5.92,4.85-8.89a246.4,246.4,0,0,0,28.45-115c0-9.74-.9-20.73-7.37-28.35-3.33-3.92-13.68-7.77-19.88-10.06l-2.64-1-1.32-.5c-20.84-8-23.25-9-40.74-4.07,15.12,16.63,12.31,57.92,7.53,96.21-1.17,9.38-5.77,40.51-15.87,47.08a6.9,6.9,0,0,1-6,.93l-.13-.07c-9.4-7.26-5.58-18-2.22-27.54a74.25,74.25,0,0,0,2.63-8.4c1.06-4.85,2.2-9.73,3.3-14.45,7.38-31.61,14.34-61.47,4-92-1-2.9-1.77-5.78-2.53-8.57C221.52,16.06,219,6.82,207.52,5c-6.09-1-24.91-.53-31.56-.09-9.31.62-18.81-.57-28-1.72-12.09-1.51-24.6-3.08-36.59-.44C101.19,5,93.5,11.09,85.37,17.54c-2.89,2.29-5.88,4.66-9,6.85-1.94,1.36-4.61,1.21-7,1.08-3.29-.19-5.33-.19-5.89,2.08C62.07,33.44,73.46,56,77.4,61.49c5.72,7.95,11.37,15.4,16.83,22.61,22.48,29.64,41.88,55.24,49.72,93.51v.17a2.18,2.18,0,0,1-1.72,1.9c-9,1.81-50.44-46.42-64.58-66.68C59,86.22,51,56.09,55.64,30c-8.83,11.2-13.37,25.24-17.77,38.84-1.36,4.21-2.77,8.57-4.28,12.76a44.68,44.68,0,0,1-3.67,7c-2.54,4.25-5.16,8.64-4.87,12.42.46,6.07,6.71,18.6,9.72,24.62l.5,1C55,166.34,82.89,201,109.92,219.43c3.33,2.28,7,4.56,10.94,7,13.27,8.2,28.32,17.5,34.55,30l.05.09v.11c-.16,3-1.19,5.12-3.07,6.22-5.14,3-15.17-2.12-21.81-5.49l-1.14-.58c-14.69-7.4-39.62-22.76-62.21-40.39C49.3,202.4,27.38,182.67,24,167.64c-10.38,4.73-14.35,18-18.18,30.76-1.12,3.75-2.19,7.3-3.4,10.62-1.91,5.19-1,11,.12,16.94,1.18,6.16,2.79,10.86,7.14,15.24,40.91,41.31,98.77,59.28,154.72,76.66l7.9,2.46c3.88,1.21,13,4.05,14.34,8.43s0,10.05-4.55,11.65c-4.15,1.46-14.19-.73-19-1.78l-.66-.15c-36-7.82-82.64-27.46-119.56-60.62a205.17,205.17,0,0,1-26.34-28.44c-19.25,38-3.8,89.61,33.29,110.7,11.28,6.41,23.94,10.13,36.17,13.73,21.31,6.26,43.35,12.74,66,12.73,1.93,0,4.17-.08,6.53-.16,10-.36,22.49-.81,26.73,4.11a6.63,6.63,0,0,1,1.33,5.8l0,.23-.22.09c-52.25,20.38-115,8.36-156.51-29q-3.8-3.41-7.35-7.09A300.12,300.12,0,0,0,32.7,416.75c4.6,16.29,12.95,39.05,32.23,48.6,16,7.94,35,4.65,54.59.25l53.27-12c3.16-.71,6.4-1.1,8.62.82l.08.07A5.08,5.08,0,0,1,183.2,458.13Zm-2.34-3c-1.94-1.68-4.94-1.3-7.89-.64l-53.27,12c-4.43,1-8.84,1.93-13.18,2.7,5.45.09,6.7,2.18,8.76,7.73,7.26,19.56,16.54,17,28.29,13.67.79-.23,1.59-.45,2.41-.67,13.53-3.69,24.31-14.1,32.19-22.75,2.14-2.36,4.37-5.93,4.19-8.92a4.22,4.22,0,0,0-1.43-3Zm-8.77-134-7.9-2.46c-51.86-16.11-105.35-32.72-145.58-68C57,300.06,118,328,162.63,337.65l.66.15c4.75,1,14.64,3.19,18.56,1.81,4.07-1.44,5.26-6.63,4-10.61a5.28,5.28,0,0,0-1.61-2.28C181.17,324,174.83,322,172.09,321.12Zm253.2,64.82c-2.78.55-5.65,1.12-8.47,1.75-20.9,4.61-42.5,9.37-62.89,16.81-2.95,1.07-7.67,3.66-8.42,5.79a1.32,1.32,0,0,0,.09,1.2c.73,1.22,6.18,4.87,7.66,5.14l.21,0c13.64,2.5,21.87,4,35.75,2.21,15-1.95,33.79-11,39.57-26.14,2.46-6.46,3.63-6.94,8.55-8.94l2.59-1.07.19-.08C435.36,384,430.37,384.94,425.29,385.94Zm-22.43-73.2c-13.4,7.63-26.06,14.21-38.3,20.58s-24.9,12.94-38.28,20.56c-3.66,2.08-7.07,5.4-5.7,8.47s5.41,3,7.11,2.84c19.91-1.43,66.43-28.31,90.32-56.48,5.95-7,12.54-15.15,18.92-23l.23-.28C426.58,296.22,413.07,306.93,402.86,312.74Zm-151.1,27.63h0a7.91,7.91,0,0,1-.6-7.38c2.44-5.81,11.48-10.06,16.61-11.38a11.63,11.63,0,0,1,5.13-.36,5.28,5.28,0,0,1,4.05,3.24c.62,1.79-.06,3.71-.72,5.18a31.75,31.75,0,0,1-15.5,15.64,4.13,4.13,0,0,1-1.86.5,4.3,4.3,0,0,1-2.12-.85,22.15,22.15,0,0,1-3-2.19A10.06,10.06,0,0,1,251.76,340.37Zm21-18.3a10.76,10.76,0,0,0-4.75.36c-5,1.27-13.73,5.36-16.05,10.88a7.16,7.16,0,0,0,.55,6.64l-.36.21.36-.21a14,14,0,0,0,4.72,4.3,3.56,3.56,0,0,0,1.7.72,3.42,3.42,0,0,0,1.47-.42,30.87,30.87,0,0,0,15.09-15.22c.6-1.33,1.22-3.06.7-4.57a3.84,3.84,0,0,0-1-1.52A5.17,5.17,0,0,0,272.73,322.07Zm-32-24.45c-4.12-7.16-.78-15.82,9.91-25.75,1.89-1.75,3.64-3.24,5.87-3.78,3.13-.76,6.21.6,9.35,2.18a3.16,3.16,0,0,1,1.33,1h0a3.27,3.27,0,0,1-.07,2.85l-3.33,9.16a37.34,37.34,0,0,1-2.4,5.63c-2.25,4-9.79,11.8-15.58,11.82a5.3,5.3,0,0,1-3.69-1.36A7.36,7.36,0,0,1,240.76,297.62ZM265.51,271c-3-1.51-5.92-2.81-8.78-2.12-2,.49-3.69,1.92-5.49,3.59-10.37,9.62-13.65,17.94-9.75,24.71a4.81,4.81,0,0,0,4.34,2.7c5.25,0,12.6-7.39,14.86-11.4A37,37,0,0,0,263,283l3.33-9.15a2.53,2.53,0,0,0,.14-2.11h0a.91.91,0,0,0-.2-.24A3.21,3.21,0,0,0,265.51,271Z"/><path class="cls-3" d="M178.29,492l62.92-84.93,5.69-9.71c-.34-.89-.69-.82-1-.7-24.59,8.13-47.2,21.3-71,31.45-24.2,10.3-50.92,17.56-76.71,12.4,44.49,5.23,109.91-29.57,143.94-47,1.31-.67-1.62-7.16-2.15-8.66l-4.63-13.38a8.49,8.49,0,0,0-2.13-3.85c-1.62-1.4-4-1.38-6.13-1.3-58.48,2.25-119.46-3.31-170.12-32.6a315.56,315.56,0,0,0,176,26.89,481.22,481.22,0,0,0-17.09-52.62,309.31,309.31,0,0,1-119.54-38.9c38.48,16.63,78.07,33.53,120,35.05L195.94,240c-30.32-9.82-58.61-27.54-77.29-50.48a213,213,0,0,0,76.93,47.2A1444.56,1444.56,0,0,0,132.34,56.2c11.17,17.94,18.5,37.94,25.75,57.79,17.55,48,33.71,97.4,51.26,145.42,25.28-19.82,52.58-84.48,58.36-144.28a250.87,250.87,0,0,1-47.13,137.76c-2.34,3.23-4.83,6.56-5.57,10.49s.3,7.72,1.31,11.48l12.73,41.69c.45,1.67,2.11,6.58,3.43,7.71,3.87,3.31,4.36.89,7.43-1.57,43.58-34.88,78.48-84.86,96.91-137.55a319.45,319.45,0,0,1-91,136.46c-3.31,2.91-6.83,6-8.14,10.18-1.07,3.4,2.08,11.94,3.2,15.33,3.94,12,4.73,14.35,7.69,23.51,58.83-27.69,95.11-46.77,159.31-112.11C369,304,316,344.13,263.11,369c-6.19,2.9-10.9,4.47-10.93,7a21.4,21.4,0,0,0,3.16,12.34c2.5,4.33,3,4.39,6.59,4.41a401.9,401.9,0,0,0,121.88-18.16c-39,19.64-85.48,18.15-128.11,24.44C295,414.34,327.93,428.9,377.43,432.8c-19.8,3.11-60.1-6.91-87.94-17.66-10.41-4-22.53-7.68-32.87-12.23-2.59-1.14-4.2-1.15-5.84,1-4.84,6.45-15.15,14.32-17.85,18.25-5.23,7.63-11.18,14.56-16.69,22C204.07,460.58,189.62,475.44,178.29,492Z"/><path class="cls-2" d="M98.16,440.13c42.46,5,103-26.06,139.15-44.61l4.55-2.33c.27-.14.39-1.21-1.86-6.87-.22-.55-.4-1-.49-1.28l-4.63-13.37a7.86,7.86,0,0,0-2-3.67c-1.46-1.26-3.59-1.29-5.84-1.2-72.83,2.8-127-7.58-170.34-32.66l.38-.74a316.76,316.76,0,0,0,175.26,26.92,480.76,480.76,0,0,0-16.86-51.88A311.13,311.13,0,0,1,96,269.52l.37-.75c36.13,15.61,77.05,33.3,119.21,35l-20-63.48C163.93,230,136.49,212,118.32,189.74l.62-.57A213.13,213.13,0,0,0,195,236,1448.27,1448.27,0,0,0,132,56.37l.75-.39c11.24,18.05,18.63,38.29,25.78,57.86,8.78,24,17.35,48.78,25.63,72.72,8.23,23.76,16.73,48.32,25.43,72.16,25.83-20.76,52.21-86.27,57.75-143.63l.83,0a252,252,0,0,1-47.2,138l-.24.34c-2.24,3.09-4.56,6.29-5.26,10s.36,7.79,1.3,11.28l12.74,41.71c.48,1.79,2.13,6.54,3.29,7.5,2.75,2.35,3.46,1.65,5.19,0a21.43,21.43,0,0,1,1.71-1.56c43-34.42,78.28-84.48,96.78-137.36l.79.28a318.61,318.61,0,0,1-91.11,136.63l-.1.09c-3.27,2.88-6.66,5.85-7.92,9.9-.91,2.92,1.49,10,2.79,13.85l.41,1.23.07.23c3.8,11.54,4.65,14.09,7.47,22.83C307,342.67,343.1,323.85,407.59,258.22l.62.57C369.59,304,316.77,344.25,263.29,369.34l-3.16,1.44c-4.36,2-7.51,3.37-7.53,5.18a20.75,20.75,0,0,0,3.11,12.13c2.4,4.18,2.76,4.18,6.22,4.2a400.43,400.43,0,0,0,121.75-18.14l.32.77c-28.51,14.35-61.24,17.48-92.91,20.51-11.15,1.06-22.67,2.17-33.76,3.75l9.09,3.57c35.46,14,66.1,26.09,111,29.63l3.56.28-3.53.56c-19.56,3.07-60-6.82-88.15-17.69-4-1.55-8.22-3-12.67-4.58-6.82-2.39-13.88-4.87-20.22-7.66-2.65-1.17-3.95-1-5.34.91-2.63,3.52-6.88,7.45-10.62,10.91-3.09,2.86-6,5.56-7.21,7.33-3.18,4.62-6.67,9.06-10,13.36-2.21,2.8-4.49,5.71-6.67,8.64-5.34,7.19-11.2,14.19-16.87,21-3.93,4.7-7.94,9.47-11.79,14.35l-9.28,12.53-.68-.49c2.91-4.26,6.05-8.45,9.3-12.56l53.6-72.34,5.58-9.53c-.16-.36-.25-.34-.44-.27-15.31,5.06-30.12,12.21-44.44,19.12C192.9,420.39,184,424.7,175,428.52,145.06,441.26,119.89,445.33,98,441Zm149.13-42.89.08.19-5.82,9.92-43.5,58.71,1-1.2c5.67-6.76,11.52-13.75,16.85-20.92,2.18-2.94,4.47-5.85,6.68-8.66,3.36-4.29,6.85-8.71,10-13.32,1.27-1.84,4.08-4.45,7.34-7.46,3.72-3.44,7.93-7.34,10.52-10.8,1.86-2.49,3.81-2.29,6.35-1.18,6.31,2.78,13.35,5.25,20.16,7.64,4.45,1.56,8.65,3,12.69,4.59,26.07,10.06,62.72,19.3,83.35,18.09-42.69-4-72.52-15.74-106.88-29.3l-10.56-4.16-1.47-.57,1.56-.23c11.59-1.71,23.68-2.87,35.37-4,29.73-2.84,60.41-5.78,87.56-18a401.08,401.08,0,0,1-116.65,16.55c-3.81,0-4.39-.2-6.94-4.62A21.82,21.82,0,0,1,251.76,376c0-2.34,3.21-3.77,8-5.94,1-.44,2.05-.92,3.15-1.43C312,345.55,360.55,309.69,398,269,339.49,326.74,304.08,345,248.76,371l-.43.21-.15-.46c-2.94-9.1-3.75-11.54-7.62-23.28l-.07-.23c-.12-.35-.26-.76-.41-1.22-1.42-4.18-3.79-11.19-2.79-14.37,1.33-4.27,4.81-7.33,8.16-10.28l.1-.09a317.8,317.8,0,0,0,69.23-86.8c-19.33,34.09-45.16,65-74.6,88.54a21.85,21.85,0,0,0-1.66,1.5c-2,1.91-3.13,2.78-6.32.06l0,0c-1.5-1.35-3.18-6.64-3.51-7.87L215.91,275c-1-3.6-2.07-7.68-1.31-11.67s3.1-7.16,5.4-10.32l.24-.34a251.49,251.49,0,0,0,46.2-123.83c-8.08,54.28-32.74,112.05-56.84,130.93l-.45.36-.2-.54c-8.78-24-17.34-48.78-25.63-72.72s-16.85-48.7-25.62-72.71c-6.45-17.65-13.1-35.84-22.58-52.43A1448.4,1448.4,0,0,1,196,236.55l.22.78-.76-.27A214.31,214.31,0,0,1,123.9,194.9c18,19.58,43.3,35.3,72.17,44.65l.2.07,20.48,65-.59,0c-39.5-1.44-77.87-16.91-112.27-31.7a310.91,310.91,0,0,0,111.92,34.72l.25,0,.09.24a482.92,482.92,0,0,1,17.11,52.67l.12.45-.47.07A317.93,317.93,0,0,1,66.72,338.65c41.59,21.2,92.9,29.9,160.27,27.31,2.42-.09,4.73-.06,6.42,1.4a9,9,0,0,1,2.26,4l4.63,13.38c.09.27.27.7.48,1.24,1.86,4.68,2.65,7.33,1.47,7.93l-4.55,2.33c-33.53,17.19-87.94,45.1-129.71,45.23,19.36,1.59,41.28-2.94,66.66-13.75,9-3.81,17.9-8.13,26.54-12.29,14.34-6.93,29.17-14.09,44.54-19.17a1,1,0,0,1,1.07.15A2,2,0,0,1,247.29,397.24Z"/></g></g></g></svg>