<svg xmlns="http://www.w3.org/2000/svg" viewBox="0 0 594.04 566.13"><defs><style>.cls-1{fill:#56604b;stroke:#232323;stroke-miterlimit:10;stroke-width:2px;}</style></defs><g id="Layer_2" data-name="Layer 2"><g id="plants"><g id="palm"><path class="cls-1" d="M394,7.94C378.71,4.28,359.44,0,343.8,1.2c5.29-.49,14.25,1.65,19.32,3.24C385.66,11.53,419,26,432.43,30.88,442,34.33,480.18,52,498.36,57.61c1.29.4,0,0,1.08-1.26C473.73,30,421,14.42,394,7.94Z"/><path class="cls-1" d="M397,31.3c-28.79-8-62.76-16.35-98.28-17.1,17.9,2.14,56.9,14.52,68.81,18.23,12.12,3.78,20.22,7.16,36.54,13.68,8.18,3.27,23.9,7.34,31.94,10.94,5.39,2.41,37.61,16.69,38.79,16.6a1.16,1.16,0,0,0,1.08-1.27c-4-4.91-30.57-21.67-33.75-23.35A239.31,239.31,0,0,0,397,31.3Z"/><path class="cls-1" d="M367.58,43.51c-32.1-6.15-72.6-9.77-105.26-11.09,31,4.75,68.52,16,98.83,24.15,14.77,4,39.82,9.89,54.35,14.65,7.18,2.35,34.95,13.39,42.41,13.21C460.4,84.37,414,52.42,367.58,43.51Z"/><path class="cls-1" d="M219,52.38c53.24.55,85.08,14.59,109.22,21,19.9,5.26,72.52,20.31,109.41,23.32-35.46-15-72.08-29.06-104.55-36.7-16.66-3.93-33.28-7.86-50.36-9C266.29,49.78,235.23,48.74,219,52.38Z"/><path class="cls-1" d="M180.19,68.61l41.87,5.64c19.84,2.67,41.63,10.41,61.23,14.45,20.57,4.24,35.13,6.55,55.34,12.2,11.13,3.12,56.88,16.81,72.06,14.43-15.92-7-46.92-18.43-62.13-23.48-17.76-5.91-36-12.42-54.44-15.82s-40.32-7.89-59-8.73A494,494,0,0,0,180.19,68.61Z"/><path class="cls-1" d="M352.85,116.33C285.21,98,207.64,88.73,154.68,91.71c16.82,3.41,37.59,6.57,53.72,8.79,18.89,2.6,37.82,4.86,56.72,7.3,18.48,2.38,38.9,9,57.27,12.11,15.27,2.58,54.07,10.67,69.25,8.74C383.52,126.29,361,118.55,352.85,116.33Z"/><path class="cls-1" d="M192.37,108c-20.39-1.44-30.52-.3-60.66,4.93,38.43,1.43,71.44,8.76,109.62,13.35,18.88,2.27,37.14,6.54,56.14,7.41s62.29,10.47,79.64,5.56c-27.86-8.45-80.76-18.35-105-22.17Q232.46,110.86,192.37,108Z"/><path class="cls-1" d="M242,134.5c-12.49-.93-26.84-3.06-39.32-4-29.48-2.21-55.56-2.15-84.14,5.42,56.31,1.5,79.75,6.56,118.42,9.62,19.17,1.52,30.85,2.51,50,4.35,9.92,1,57.32,7.31,70,2.77C317.19,144,271.59,136.73,242,134.5Z"/><path class="cls-1" d="M296,156.67c-55-6.2-86.09-8.49-141.36-5.84A472.57,472.57,0,0,0,90.19,159c40.51-3.86,81.28-2,121.79.83,14.47,1,116.92,12.79,129.29,4.73C328.16,163.19,303.84,157.56,296,156.67Z"/><path class="cls-1" d="M78.53,175.72c41-4.41,83.41,2.11,119.68,3.6,18.92.77,35.7,1.53,54.6,2.8,8.2.55,55.95,5.06,66.16-.47-33.54-5.64-90.85-11.75-126.13-12.56C156.22,168.25,115.76,168.06,78.53,175.72Z"/><path class="cls-1" d="M178.42,183.24c-39.78-.53-78.58,3.9-115.57,18.54,18.93-4.36,35.48-6.44,50.15-8.67,30.67-4.67,49.71.82,88.85,2.47,15.7.66,32,.12,47.71.88,8.33.41,38.79,1.78,53.88-1.77-18-3.31-50.34-7.55-65.73-9.28C219.54,183.38,196.71,183.48,178.42,183.24Z"/><path class="cls-1" d="M161,202.34c-39.06,1.91-64.25,9.77-104.45,27.13,19-6.28,38-12.59,57.78-15.67,16.63-2.58,33.52-2.84,50.35-3.09,19.58-.29,35.32.32,54.9,0,9.37-.14,58,1.35,68.24-4.18-18-3.32-50.77-5.3-66.32-6.29C204.11,199.16,178.42,201,161,202.34Z"/><path class="cls-1" d="M219.16,220.23c-11.16.48-31.18.78-42.34,1.11a646.76,646.76,0,0,0-72.29,6.21c-24,3.26-55.27,11.94-67.45,22.35,10-5,31.85-10.11,42.73-12.81,13.91-3.46,31-5.92,52.74-6.92,21.55-1,45.73.85,67.28-.15,12.1-.56,49.62-.35,69.13-7.8C248.8,221.44,232,219.22,219.16,220.23Z"/><path class="cls-1" d="M171.15,237.15c-47.79,2.08-92,7.08-137.48,33.81,25.71-10.68,53.78-14,81.44-17.24,22.75-2.65,42-4.11,64.77-6.76,8.57-1,68.24-4.18,73.56-11.69C228.58,234.85,194.34,235.33,171.15,237.15Z"/><path class="cls-1" d="M21.78,298.53C34.71,295,56.81,286.6,72.49,282q25.61-7.46,51.65-13.29A768.32,768.32,0,0,1,235.84,252C154.75,243,77.32,265.66,21.78,298.53Z"/><path class="cls-1" d="M95.34,284.34C62,296.41,40.63,303,17.33,323.14c43-18.32,74.16-33.47,119.32-39.69,16.62-2.28,38.4-7.74,58.09-12.84,3.43-.88,23.41-3,28-4.56,3.83-1.29-22.67-3.1-25.95-3.23C163.36,261.5,126.49,273.05,95.34,284.34Z"/><path class="cls-1" d="M126.63,291.33c-13,3.72-30.37,10.1-43,15C57,316.71,29.13,332.87,8.5,352.63c35.32-17,66.11-31.2,85.44-41,13.53-6.85,40.24-13.51,55-17,7.39-1.74,14.81-3.34,22.24-4.88,4.62-.95,40.49-8.78,39.58-10.95-1.46-3.43-41.12,3.2-45.89,4.18C150.52,285.93,140.7,287.31,126.63,291.33Z"/><path class="cls-1" d="M102.53,315.69c-32.84,15.38-61.78,29.89-88.36,54.58a869.63,869.63,0,0,1,87.17-42.95c29.34-12.46,75.55-28.12,96.33-34.48-4-5.59-39.81,1.85-47.94,4.25C135,301.45,116.44,309.17,102.53,315.69Z"/><path class="cls-1" d="M1.62,400.46c11.1-9.15,27.92-19.61,35.94-24.11,14.71-8.25,40.81-22.12,64-33.29,19.09-9.2,41.73-17.26,61.45-25,3.31-1.31,23-7.72,20.4-11.06-2.49-3.18-31.12,5.2-35,6.29-34.7,9.82-69.15,27.57-97.9,47.89-8,5.66-11.56,6.83-19,13.21C27.49,377.83,2.84,395.06,1.62,400.46Z"/><path class="cls-1" d="M100.21,348.57C94,351.39,84,356.51,78.11,360c-6.43,3.81-15.42,8.67-20.77,12.42-18.77,13.2-38.1,26.64-50.05,39.48,15.85-8.42,33.8-21.82,51.66-31.12C77.24,371.28,90.73,362.53,109,353c9.15-4.76,20.39-10.57,29.53-15.33,4.63-2.41,21.77-8.8,32-14.33-13.92,3.46-29.46,7.78-38.69,11.49C121.17,339.13,110.69,343.85,100.21,348.57Z"/><path class="cls-1" d="M109.29,357.58c-12.7,7.6-25.13,15.65-37.56,23.7l-15.5,10c-11.76,7.62-19.28,12.36-30,21.39-5.11,4.3-14.35,12-17.25,18,28.67-22.63,47.05-29.77,87.5-56.59,5.32-3.53,11.43-6.45,17-9.61,4.66-2.66,13.68-6.74,18.15-9.7,4.75-3.15,19.24-11,27.18-15.14,2.34-1.23-9.77.57-14.32,1.71C131.9,344.52,120.35,351,109.29,357.58Z"/><path class="cls-1" d="M119.52,366.37c-41.24,23.43-81.7,45.7-112.36,81.89C48.93,418,92.09,393.35,124.5,369.52c2.44-1.8,27.27-14,25.82-17.4C150.32,352.12,123.5,364.11,119.52,366.37Z"/><path class="cls-1" d="M120.53,379.29c-16.72,11.43-33.14,20.27-49.47,32.26-5,3.63-11.17,9.13-15.9,13C42.59,435,26.55,447,15.91,462c16.7-13.14,46.77-33.77,63.74-46.39,17.94-13.34,28-19.93,41.35-30.44,2.23-1.75,20.32-12.09,19.94-16.93C140.85,367.05,123.14,377.51,120.53,379.29Z"/><path class="cls-1" d="M20.92,480.51C35.36,468.73,55,454,68.76,442.47c14.24-11.93,22-19.69,36.55-31.25,2.6-2.06,26.82-19.72,26.35-25.71-.18-2.35-24.27,15.09-27.63,17.6-14,10.44-29.94,22.2-42.78,34C47,450.24,33.53,465.87,20.92,480.51Z"/><path class="cls-1" d="M32.52,493.24c25.44-22.74,40.61-40,65-61.31,2.45-2.14,30.88-28.28,30.5-33.13-.19-2.35-30,22.63-33.1,25.45a458.21,458.21,0,0,0-41.35,42.49Q42.54,479.6,32.52,493.24Z"/><path class="cls-1" d="M77.17,456.76a166.59,166.59,0,0,0-14.24,16.9c-3.36,4.63-20.47,25.25-22.68,33.09L107.79,433c1.91-2.09,16.69-18.55,16.5-20.9-.26-3.36-17.73,15.73-19.57,17.54Z"/><path class="cls-1" d="M83.9,469.65c-19.49,22.81-29,47-33.35,57,4.21-6.45,10-13.9,14.25-20.35,11.14-17.06,13.43-18.48,27.32-37.3,4.21-5.71,17-23.54,21.21-29.25,2.75-3.72,8.55-13.28,7.19-15.54C120.52,424.21,93.14,458.83,83.9,469.65Z"/><path class="cls-1" d="M83.21,491c-6.13,12.3-15.47,24.52-18.15,46.14C81.86,506,101.8,471.79,117.2,442.2c1.19-2.26,4.15-7.41,2.88-8.5-3,1.58-6,7.65-8.09,10.46-2.69,3.64-5.27,7.37-7.76,11.14C99.44,462.56,87.08,483.2,83.21,491Z"/><path class="cls-1" d="M95.36,502.6c-1.22,5-11,33.21-11.15,46.22,1.63-3.55,4.26-10.09,5.89-13.65,1.74-3.8,12.71-33.38,14.31-38.06l12.64-37.2a130.57,130.57,0,0,0,5.21-18.23c-.63-.17-1.2.41-1.59.93C115.25,449.68,96.6,497.53,95.36,502.6Z"/><path class="cls-1" d="M111.89,510c0,4-1.31,31.94-.94,37.4a62.16,62.16,0,0,0,1.42,11c0-3.79,3-11.78,3.28-15.56a290.61,290.61,0,0,1,2.93-30.36c.6-3.64,2.84-18.71,3-22.65q.28-11.25.53-22.52l.38-17.32C120.57,454.94,112.05,497,111.89,510Z"/><path class="cls-1" d="M135,519.47c.48-7.64-2.47-15-4-22.52a121.35,121.35,0,0,1-1.67-13.86c-.47-5.73-1.6-12.3-2.07-18-.49-6.06-.35-11.39-2.68-17a75.14,75.14,0,0,0-1.82,19.55c.14,3.51.52,7,.9,10.49C125.28,492.89,128,506.12,135,519.47Z"/><path class="cls-1" d="M131.24,455.29a161.49,161.49,0,0,0,7.45,29.94c1.63,4.41,2.22,10.54,5.45,14-1.36-9-1.61-19.52-3-28.5-.66-4.32-1.32-8.65-2-13-1.87-10.93-4.22-21.78-6.58-32.62-.59-2.72-2.67-16.87-4-19.25-2.28,1.21.65,15.4.77,17.43.23,3.82.25,7.65.26,11.47A125.37,125.37,0,0,0,131.24,455.29Z"/><path class="cls-1" d="M136.28,418a100.45,100.45,0,0,0,2.26,12.4c2.7,11.36,6.46,22.44,10.21,33.5a25,25,0,0,0,2.48,5.21c.58-8.61-3.08-19.5-4.56-28a169.43,169.43,0,0,1-1.78-17.44c-.57-7.79-.59-15.93-1.45-23.68a76.43,76.43,0,0,1-.83-10.57c0-2.95.85-12.94,0-15.37-3.23,5.33-4.67,17.28-5.64,23.39A78.31,78.31,0,0,0,136.28,418Z"/><path class="cls-1" d="M149.84,383.07a70.82,70.82,0,0,0-1.48,9.26c-.25,3.42.23,6.85.2,10.27-.12,15.87,2.54,27.54,7.6,38.91,1.31-11.18-.06-25-.39-36.21-.26-8.67-.13-17.34.19-26,.16-4.28.37-8.57.59-12.85.16-2.94,2.19-13.56.72-16C153.86,359.28,151.79,373.76,149.84,383.07Z"/><path class="cls-1" d="M162.93,369a54.53,54.53,0,0,0-1.29,6.93c-.28,2.74-.85,20.79-.12,28.47.53,5.52,3,14.19,6.22,18.74a247.69,247.69,0,0,0,2.61-27.34l2.06-35.4.62-10.62c.19-3.2,2.84-20.17.21-22-2.46,5.76-4,16.12-5.58,22.18Q165.16,359.51,162.93,369Z"/><path class="cls-1" d="M183.92,336.46a86.82,86.82,0,0,0-3.36,12.66c-.79,5-.69,10.16-1.39,15.21-.54,3.81-1.54,7.55-1.94,11.38a68.79,68.79,0,0,0-.09,10.55c.37,8.14,1.75,28.64,5.47,32.19-.45-4,.18-8,.83-12,1.61-9.79,5-32.31,5.05-34.85.06-3.48,3.92-18.57,4.91-21.82,5.06-16.8,4.73-22.24,4.49-33.66,0-2.11-1.21-13.15-3.1-14.77-1.26-1.08-.89,3.62-3.15,11.05C189.19,320.45,186.5,328.44,183.92,336.46Z"/><path class="cls-1" d="M195.46,397.87c-.12,4.34-.09,8.95,2.15,12.67a130.78,130.78,0,0,1,4.7-28.2c1.12-4,2.44-7.89,3.46-11.89,1.13-4.44,1.91-8.95,2.69-13.46l5.74-33.32c.76-4.41,2.41-22,2.32-26.38-.07-3.45.67-13.47-.88-16.5-1.43,11.94-10.4,40-12,47.42a388.68,388.68,0,0,0-6.74,44.64Q195.78,385.33,195.46,397.87Z"/><path class="cls-1" d="M234,273.44c-1.27,3.89-2.73,7.8-4.25,11.59-3.21,8-5.14,16.46-7.07,24.88l-4.75,20.79c-.88,3.83-1.75,7.66-2.45,11.53a128.27,128.27,0,0,0,3.17,58.8c-4-20.63,5.73-39.95,10.49-58.35,1.55-6,2-15.63,2.67-21.78,2.17-19.61,9.47-42.13,7-62-.48-3.84-2.05,3.53-2.44,6.19A51.94,51.94,0,0,1,234,273.44Z"/><path class="cls-1" d="M241.38,278.11c-1.3,4-4.91,27.61-5.35,36.54-1,20.64-6.63,43.84-2,64q6-27.66,11.16-55.49c.31-1.69,5.33-31.67,6.26-38.07.85-5.83,1.93-11.22,2.24-17.1.15-3,1-17.43-1.67-20.77-2.06-2.62-2.79,9.68-4.9,13.21C243.93,265.73,243.29,272.21,241.38,278.11Z"/><path class="cls-1" d="M253.74,309.24c-2.12,13.83-2.46,27.85-4.34,41.72-2.16,16,.91,27,2.36,40.48,2.61-31.06,7-61.54,12.73-87.23.78-3.46,2.76-25,3.74-31.1.57-3.56,3.47-23.39,2.9-30.83-.13-1.68-.37-9.06-2.51-9.39-2.73-.42-2.38,6.38-2.68,7.85C263,255.32,255,301,253.74,309.24Z"/><path class="cls-1" d="M279.31,248.6c-3.16,17.62-5.55,33.72-8.44,51.38-1,6.34-2.05,12.69-2.47,19.09-.93,14.17,4.53,48.56,6.23,50.48,3.46-30.22,5.34-63.15,9.42-94.3.53-4.08,1-8.16,1.38-12.26.48-5.57.63-11.15.79-16.73q.19-6.78.37-13.55c.05-1.74,1.56-15.54-1.46-15.3-1.17.09-2.43,15.05-2.79,17C281.59,238.65,280.07,244.39,279.31,248.6Z"/><path class="cls-1" d="M294.28,249.14c-2.29,11.85-2.95,23.95-3.61,36-1.51,28-5.24,56.37,5,83.55,3.22-15.08,1.67-34.21,3.41-49.53,4.19-37,5.84-68.87,8-105.11.09-1.67-.93-16-3.09-13.49-1.31,1.53-2.71,15.5-3.32,18C298.18,228.38,296.21,239.2,294.28,249.14Z"/><path class="cls-1" d="M312.53,280.27c-.39,7.63-2.18,58-4.75,74.85.5-6,3.68-17.11,4.87-23,4.54-22.65,14-80.62,15.37-91.71,1.74-14.37,2.77-28.61,1.64-43-.26-3.37-2.35-11.34-6.89-12.46-3.62-.9-2.45,29.85-3.26,42.94C318.26,247.9,313.05,270.11,312.53,280.27Z"/><path class="cls-1" d="M339.26,208.52c-.26,5.48-.16,11-.26,16.45s-.4,10.69-.7,16l-1.47,26.65-1.37,24.82c-.72,13-1.44,26-3.77,38.86a472.77,472.77,0,0,0,19.19-89.5c.45-4,.86-8,1-12,.23-5.92-.08-11.86-.38-17.78-.5-9.46-.55-29.34-4.63-36.11-1.31-2.18-5.25-6.68-6.34-5.41-2,2.29-.16,10.29-.16,13C340.39,192.13,339.66,199.92,339.26,208.52Z"/><path class="cls-1" d="M360.49,276.27c-.66,5.47-1.35,10.94-2.43,16.34-.48,2.4-1,4.79-1.59,7.18l-3.87,16.63A304.42,304.42,0,0,0,376.12,252c1-4,2.91-21.68,2.85-26.43-.2-15.65-2.37-62.64-14.76-69.94-1-.6-2.17,2.18-1.7,5.79,1.17,9.14,2.21,18.23,2.67,27.44a423.19,423.19,0,0,1-1.39,55.84C362.9,255.24,361.75,265.77,360.49,276.27Z"/><path class="cls-1" d="M379.17,173.81c2.68,10.55,7,20.69,8.89,31.4,2,10.91,1.39,22.1.82,33.17-.9,17.38-1.85,35-7.4,51.5a26.41,26.41,0,0,0-1.74,6.89c6.12-12.15,12.09-24.56,15-37.86a173.27,173.27,0,0,0,2.55-17.59c1-8.68,1.91-17.39,1.55-26.12a152.41,152.41,0,0,0-1.61-15.35,273,273,0,0,0-7.57-37.13q-1.32-4.54-2.89-9c-.82-2.31-2.76-9.7-4.66-11.31-2.53-2.17-4.71,8.3-5,10.9A60.41,60.41,0,0,0,379.17,173.81Z"/><path class="cls-1" d="M409.69,234c-.37,6.89-.77,13.78-1.68,20.62A140.51,140.51,0,0,1,400.06,286a155.11,155.11,0,0,0,21.13-68.73,227,227,0,0,0-.19-27.48c-1-16.32-6.83-45.17-10-55.56-1.18-3.87-9-8.75-11-5-.81,1.46,3,14.3,3.8,19.12,2.4,14,3.26,26.34,4.43,40.52C408.86,197,410,227.68,409.69,234Z"/><path class="cls-1" d="M432.21,155.51c-.39,17.28-.79,34.57-1.51,51.84q-1.71,41.33-5.86,82.5c9.84-23.59,16.17-47.44,17.47-73,1.12-21.9-1.3-44.93-2.52-66.81-.4-7.09-4.06-32-6.06-42.46-1,2.86-.69,12.17-.76,15.26l-.26,10.88Z"/><path class="cls-1" d="M450.18,153.06c1.53,31.18,4.44,69.94-1.85,93.41a139.09,139.09,0,0,0-3.41,19.13c3.31-5.54,5.3-11.76,7-18a264.39,264.39,0,0,0,9.68-67.46c.29-22.17-2.22-44.26-5.3-66.18-.4-2.84-.84-16.24-3.26-17.09-3.28,8.3-2.16,21.85-2.41,30.67C450.4,137,449.72,143.68,450.18,153.06Z"/><path class="cls-1" d="M469.73,242.71q3.33-9.84,5.69-20c4.06-17.37,5.92-35.16,7.78-52.9.8-7.65-.87-35.48-1.71-41.16s-6.71-34.36-11.74-41.26c-1.71,2.52.28,10.9.46,14.08q.44,7.72.78,15.45.66,15.32.93,30.63.54,30.66-.53,61.3-.3,8.46-.71,16.91C470.54,228.72,470.5,240.42,469.73,242.71Z"/><path class="cls-1" d="M493.27,139.19c.4,4.93,1.32,9.81,2.06,14.71,1.76,11.57,2.49,23.27,3.23,34.95.46,7.32.92,14.73-.52,21.92a283.73,283.73,0,0,0,4.09-92.09c-.38-3.23-.83-6.45-1.48-9.63a145.11,145.11,0,0,0-5.1-17.29c-.71-2.06-5.48-17-7.64-16.78-1.18.1,1.54,14.72,1.65,16.61C490.4,106.71,492.93,134.89,493.27,139.19Z"/><path class="cls-1" d="M511.31,96.81a110.52,110.52,0,0,0,1.87,14,60.32,60.32,0,0,1,1.09,9.57c.05,2.79-.63,5.55-.69,8.34a28.82,28.82,0,0,0,.83,7.57c4.94,20,7,36.1,5.42,52.29q2.42-17.55,3.81-35.23c.33-4.2,1-8.41.76-12.61-1.73-28-3.8-46.14-10.32-64.14-.71-2-4.83-14-7-13.78-1.18.09.75,9,1,10.36A191.42,191.42,0,0,1,511.31,96.81Z"/><path class="cls-1" d="M180.26,311.94c-21.47,27.7-25.1,26.62-37.34,51.41S117.74,424,123.32,451c-1.84-34,7.65-59.16,25.48-88.15a381.76,381.76,0,0,1,28.77-40.09c11.64-14,24.15-32.18,39-45.61,24.28-22,57.51-54.22,96.21-84.4,51-39.81,104.9-75.84,121-85.17,41-23.81,92.14-55.19,159.19-96.45-.89-4.25-2.35-3.91-5.44-7.84C584.86,0,562.84,18.4,558.82,20.86Q537,34.2,515.29,47.68c-29,18-57.79,36.28-86.2,55.17-56.56,37.59-111.67,77.59-162.91,122.24C237.74,249.89,203.38,282.12,180.26,311.94Z"/></g></g></g></svg>