<svg xmlns="http://www.w3.org/2000/svg" viewBox="0 0 867.63 521.05"><defs><style>.cls-1{fill:#748462;}.cls-2{fill:#232323;}</style></defs><g id="Layer_2" data-name="Layer 2"><g id="plants"><g id="palm"><path class="cls-1" d="M767.22,289.7c-3.29-19.06-7.88-43-16.82-60.12,3.13,5.76,5.08,17,5.74,23.48,3,29,2.81,73.87,3.83,91.4.73,12.47-.59,64.38,1.85,87.73.17,1.65,0,0,2,.61C781.1,390.82,773.05,323.5,767.22,289.7Z"/><path class="cls-2" d="M763.57,433.49c-.68-.21-.91-.07-1.08,0a.85.85,0,0,1-.86.08c-.42-.21-.46-.56-.54-1.32-1.58-15.16-1.58-42.75-1.59-62.89,0-11,0-20.5-.26-24.88-.34-6-.56-15.19-.8-25.83-.48-20.71-1.08-46.48-3-65.54-.57-5.61-2.31-16.39-5.28-22.47l-.38-.74,1.28-.68c.13.24.26.49.38.75,8.27,16.24,12.82,38.22,16.51,59.59,4.94,28.63,14.5,99.93-3.48,143.5l-.25.61Zm2.93-143.67c-2.81-16.27-6.12-32.9-11.19-47,.77,3.86,1.29,7.57,1.55,10.17,1.95,19.12,2.55,44.93,3,65.66.25,10.63.46,19.8.81,25.78.25,4.41.25,13.93.26,24.95,0,20.05,0,47.48,1.56,62.6a2.46,2.46,0,0,1,.82,0c17.52-43.27,8.06-113.75,3.16-142.14Z"/><path class="cls-1" d="M742.23,304.52c-5-36.49-12.07-79.06-28.53-119.68,6.3,21.33,11.28,71.56,12.88,86.85,1.63,15.57,1.74,26.4,2.31,48.07.29,10.86,3.33,30.65,3.18,41.51-.11,7.28-.58,50.75.09,52a1.43,1.43,0,0,0,2,.61c3.59-7,9.65-45.19,10-49.62A295.76,295.76,0,0,0,742.23,304.52Z"/><path class="cls-2" d="M731.52,413.65c-.87-1.66-.19-51.88-.18-52.39.08-6-.81-14.69-1.67-23.12-.71-6.94-1.38-13.49-1.5-18.36L728,312.7c-.42-16.95-.68-27.18-2.12-40.93l-.28-2.72c-1.82-17.47-6.63-63.87-12.58-84l1.37-.48c16.09,39.7,23.24,81.06,28.58,119.85a295.55,295.55,0,0,1,1.91,59.93c-.3,3.73-6.39,42.73-10.09,49.9l-.1.2-.21.11A2.12,2.12,0,0,1,731.52,413.65Zm-14.46-218c4.73,22.87,8.42,58.47,10,73.29l.28,2.72c1.45,13.8,1.71,24.06,2.14,41l.18,7.08c.13,4.82.79,11.35,1.5,18.25.86,8.48,1.76,17.24,1.67,23.29-.2,14.45-.48,49.87,0,51.69a.64.64,0,0,0,.79.38c3.51-7.38,9.43-44.37,9.81-49.11a293.92,293.92,0,0,0-1.9-59.62C736.65,269.33,730.3,231.92,717.06,195.61Z"/><path class="cls-1" d="M714.05,277.15c-8.67-39.37-24.32-87-38.74-124.65,9.75,37.46,15.27,85.43,20.81,123.74,2.7,18.66,8.21,49.92,9.9,68.7.83,9.28,1.85,46.13,5.7,54.5C713,402.23,726.59,334.11,714.05,277.15Z"/><path class="cls-2" d="M712.06,400.2l-.73.13-.27-.59c-3-6.53-4.27-29.32-5.12-44.4-.25-4.57-.45-8.17-.65-10.33-1.16-13-4.16-31.92-6.8-48.63-1.16-7.35-2.26-14.3-3.09-20-1.07-7.37-2.13-15.09-3.22-23-4.55-33-9.71-70.42-17.57-100.63l1.38-.45c16.63,43.4,31.12,90,38.77,124.76,11.9,54,.45,121.56-2.65,123.2ZM678.82,163.89c6.35,27.94,10.8,60.27,14.79,89.22,1.1,7.94,2.16,15.66,3.23,23,.83,5.73,1.92,12.67,3.09,20,2.64,16.72,5.64,35.68,6.81,48.72.2,2.19.4,5.8.66,10.38.73,13.16,1.93,34.62,4.44,42.46,2.86-9.62,12.81-69.08,1.5-120.42C706.36,245.6,693.65,203.93,678.82,163.89Z"/><path class="cls-1" d="M631.57,113.11c25.33,60.58,24.93,103.5,29.48,134,3.74,25.1,12.34,92.06,26.9,135.31-.35-47.45-2.21-95.81-9.37-136.33-3.67-20.79-7.32-41.54-14.3-61.47C657.58,165.45,643.62,129.76,631.57,113.11Z"/><path class="cls-2" d="M687.26,382.61c-13-38.51-21.12-95.18-25.51-125.63-.53-3.72-1-7-1.42-9.8-1-6.36-1.69-13.33-2.48-20.71-3.08-29.05-6.93-65.2-27-113.08l-2.42-5.79,3.68,5.08c11,15.24,24.57,48.13,32.81,71.66,6.95,19.86,10.66,40.87,14.26,61.18l.07.4c7.74,43.84,9.08,96,9.38,136.46l0,4.54Zm-28-156.29c.78,7.36,1.52,14.32,2.47,20.64.41,2.79.89,6.09,1.42,9.81,4.21,29.25,11.91,82.72,24,120.92-.37-39.72-1.89-89.45-9.33-131.52l-.07-.39c-3.58-20.26-7.28-41.21-14.19-61-7.21-20.59-18.48-48.36-28.53-65C652.72,164.42,656.35,198.59,659.3,226.32Z"/><path class="cls-1" d="M594.29,77.08l14,50.19c6.64,23.78,8.5,52.23,13.47,76.41,5.23,25.38,9.71,43,13.15,68.64,1.9,14.14,8.68,72.64,18.77,88.68.2-21.46-2-62.14-3.67-81.84-2-23-3.51-46.88-8.61-69.39s-10.72-49.52-18.88-71.1C614.82,118.26,601.17,89.69,594.29,77.08Z"/><path class="cls-2" d="M653.08,361.39c-9.29-14.78-15.81-65.29-18.27-84.3-.24-1.86-.44-3.43-.61-4.67-2.58-19.21-5.72-33.82-9.36-50.74-1.21-5.63-2.47-11.5-3.78-17.85-2-9.85-3.57-20.63-5.06-31.05-2.2-15.36-4.47-31.25-8.4-45.32L591.88,71.15l3,5.58c6.78,12.44,20.39,40.79,28.28,61.68,7.21,19.06,12.44,42.4,17.06,63q.93,4.18,1.85,8.21c4.5,19.84,6.24,40.83,7.92,61.13.24,2.8.47,5.58.7,8.36,1.67,19.51,3.88,60.11,3.68,81.91l0,2.47ZM609,127.07c4,14.16,6.23,30.1,8.44,45.5,1.49,10.41,3,21.16,5,31,1.3,6.35,2.56,12.21,3.77,17.84,3.65,17,6.8,31.58,9.38,50.85.17,1.23.37,2.81.61,4.67,2.33,18,8.31,64.33,16.73,81.32,0-22.28-2.08-60.31-3.68-79q-.36-4.16-.7-8.36c-1.68-20.25-3.42-41.19-7.9-60.93q-.91-4-1.85-8.21c-4.61-20.54-9.83-43.83-17-62.8-6.67-17.67-17.84-41.47-25-55.48Z"/><path class="cls-1" d="M624.37,296c-12.21-85.56-39.51-178-68.7-236.51,4.34,20.72,10.88,45.79,16.23,65.15,6.26,22.66,12.92,45.21,19.38,67.82,6.31,22.09,8.76,48.46,14.19,70.78,4.52,18.55,14.27,66.46,23.85,82.72C628,335.56,625.84,306.28,624.37,296Z"/><path class="cls-2" d="M628.69,346.28c-8-13.51-15.87-48-21.1-70.81-1.08-4.72-2-8.86-2.82-12.11-2.43-10-4.29-20.91-6.1-31.51-2.26-13.28-4.6-27-8.09-39.24q-3.27-11.48-6.6-22.94c-4.25-14.7-8.64-29.89-12.78-44.89-4-14.42-11.4-42.06-16.24-65.19l-1.16-5.52,2.52,5c29.78,59.73,56.78,152.66,68.77,236.73.82,5.75,1.85,17.2,2.84,28.28.8,8.79,1.54,17.1,2.11,21.69l.43,3.47ZM557.63,65.1c4.79,21.75,11.32,46.08,15,59.3,4.14,15,8.53,30.17,12.77,44.86q3.32,11.48,6.61,23c3.51,12.3,5.86,26.08,8.13,39.4,1.8,10.57,3.66,21.5,6.07,31.41.79,3.25,1.74,7.4,2.83,12.13,4.82,21,11.91,52,19.16,67-.5-4.73-1.08-11.18-1.68-17.92-1-11.06-2-22.49-2.84-28.21C612,214.59,586.31,124.81,557.63,65.1Z"/><path class="cls-1" d="M555.59,110.08c-8.3-23.81-14.54-34.73-35.15-66.31C537.55,88,545.33,129,558.74,174.45c6.64,22.5,10.7,45.27,19,67.22s18.5,75.68,32.52,92.94c-4-35.68-18.57-100.44-26.07-129.77Q571.91,156.89,555.59,110.08Z"/><path class="cls-2" d="M609.66,335.07c-9.5-11.7-17.09-39.3-23.78-63.64-3.16-11.48-6.14-22.32-8.85-29.5-5.19-13.78-8.79-28.12-12.27-42-2.08-8.3-4.24-16.88-6.71-25.28-4.62-15.67-8.61-30.94-12.47-45.71C538.07,100.17,531,73,519.76,44l-2.5-6.46,3.79,5.8c20.67,31.68,27,42.81,35.23,66.47,10.82,31,20.43,62.92,28.59,94.82C591.56,230.84,606.74,297,611,334.53l.28,2.46ZM523.5,49.81c9.89,26.7,16.51,52.05,23.49,78.77,3.85,14.76,7.84,30,12.45,45.67,2.49,8.43,4.64,17,6.73,25.33,3.47,13.83,7.06,28.13,12.22,41.83,2.74,7.25,5.72,18.12,8.89,29.63,6.27,22.81,13.33,48.48,21.91,61-4.59-37.82-19.2-101.45-25.73-127-8.14-31.86-17.75-63.72-28.55-94.7C547.21,88.26,541.21,77.15,523.5,49.81Z"/><path class="cls-1" d="M549.74,179.19c-5-14.6-9.61-31.89-14.63-46.5C523.25,98.21,510.46,68.7,488,40c25.75,64.53,31.44,93.54,46.82,138.85,7.62,22.46,12.2,36.17,19.44,58.75,3.76,11.71,19.65,68.51,31,80.62C575.69,269,561.66,213.84,549.74,179.19Z"/><path class="cls-2" d="M584.65,318.73c-9.8-10.5-22.63-52.92-28.79-73.31-1-3.28-1.79-5.9-2.33-7.58-7.43-23.15-12-36.84-19.44-58.75-5.2-15.33-9.39-29.09-13.43-42.4-8-26.42-16.34-53.74-33.37-96.41l-1.88-4.7,3.12,4c22.64,28.86,35.27,58,47.27,92.9,2.51,7.31,5,15.43,7.32,23.27s4.8,15.94,7.31,23.23c11.94,34.7,25.86,89.31,35.46,139.13l.48,2.48Zm-35.59-139.3c-2.52-7.31-5-15.43-7.33-23.28s-4.8-15.93-7.31-23.22C523,99.85,511.1,72,490.56,44.59c15.77,40,23.75,66.24,31.49,91.68,4,13.29,8.22,27,13.42,42.36,7.44,21.91,12,35.6,19.45,58.76.54,1.69,1.33,4.32,2.33,7.61,5.3,17.55,17.29,57.19,26.65,70.47-9.57-49-23.16-102.07-34.84-136Z"/><path class="cls-1" d="M550.94,251.17c-19.77-65.32-32.34-101.69-62.28-163a584.66,584.66,0,0,0-40.62-69c24.12,44,41.91,91.1,58.43,138.39,5.89,16.88,42.49,138.69,57.65,148.77C559.24,290.82,553.78,260.52,550.94,251.17Z"/><path class="cls-2" d="M563.72,306.93c-12.83-8.53-39.7-92.43-52.61-132.75-2.52-7.87-4.34-13.56-5.33-16.39-15.88-45.48-33.95-93.7-58.37-138.28l1.23-.76a581.59,581.59,0,0,1,40.67,69.09C520,150.7,532.42,187.48,551.64,251c1.2,4,2.85,11.56,4.76,20.36,2.63,12.12,5.6,25.85,8.41,34.78l.62,2ZM488,88.48a575.73,575.73,0,0,0-32.56-56.91c21.11,41,37.3,84.51,51.7,125.74,1,2.85,2.82,8.55,5.35,16.43,11.3,35.28,37,115.68,50.17,130.3-2.6-8.92-5.29-21.34-7.69-32.41-1.9-8.77-3.55-16.34-4.73-20.25C531.05,188,518.65,151.24,488,88.48Z"/><path class="cls-1" d="M423.39,14.12c25,44.33,38.26,95.52,54.25,137.34,8.34,21.81,15.67,41.19,23.44,63.22,3.37,9.56,21.54,65.86,32.78,74.72-10-40.75-31-108.64-47.25-149C469.72,98.49,450.2,52.56,423.39,14.12Z"/><path class="cls-2" d="M533.41,290c-10.2-8.05-25.64-53.41-31.45-70.49-.67-2-1.21-3.55-1.57-4.57-7.35-20.86-14.16-39-23.43-63.2-4.74-12.4-9.17-25.42-13.87-39.21-11.2-32.88-22.78-66.89-40.34-98L424,13.7c27,38.64,46.81,85.51,63.3,126.42,17,42.13,37.77,110.2,47.28,149.11l.51,2ZM464.47,112c4.69,13.78,9.12,26.79,13.85,39.16,9.27,24.24,16.08,42.37,23.44,63.24.37,1,.9,2.59,1.58,4.59,4.92,14.45,19.31,56.74,29.2,68.08-9.75-39.21-30-105.25-46.6-146.45C471.2,104.11,453.77,62.79,431,26.9,444.85,54.44,454.8,83.66,464.47,112Z"/><path class="cls-1" d="M463.56,131c-18.8-45.33-42.72-87.13-77.34-121.9,14.17,19.33,24.59,37.05,34.27,52.59,20.23,32.47,23.3,56.72,40.5,101.87,6.9,18.11,15.47,36.32,22.26,54.48,3.6,9.63,16.89,44.82,28.27,60.18-5-22-16-60.71-21.53-79C483.43,177.61,472.2,151.78,463.56,131Z"/><path class="cls-2" d="M510.93,278.61c-7.55-10.21-17.63-31.65-28.36-60.36-3.52-9.43-7.6-19-11.53-28.31-3.64-8.58-7.41-17.46-10.73-26.17-5.78-15.16-10-28.1-13.73-39.51C439.14,101.5,433.27,83.53,419.87,62q-2.62-4.22-5.34-8.64c-8.11-13.17-17.31-28.09-28.89-43.9l1.1-1c31.39,31.54,56,70.35,77.49,122.14h0c1.28,3.1,2.63,6.31,4,9.6,7.91,18.89,16.86,40.3,22.45,58.7,5.93,19.5,16.71,57.81,21.54,79l.78,3.38Zm-95.17-226c1.82,3,3.59,5.83,5.34,8.64C434.59,82.91,440.49,101,448,123.8c3.72,11.4,8,24.32,13.71,39.45,3.31,8.69,7.07,17.55,10.71,26.12,3.94,9.3,8,18.91,11.55,28.37,9.69,25.92,18.82,45.86,26,56.89-5.15-21.71-15.06-56.85-20.65-75.24s-14.51-39.7-22.4-58.56c-1.38-3.29-2.72-6.5-4-9.6h0c-19.8-47.75-42.27-84.42-70.27-114.5C401.57,29.57,409,41.7,415.76,52.61Z"/><path class="cls-1" d="M433.43,120.53c-21.2-43.31-42.39-68-81.65-105.11,16.36,18.43,32.81,37,45.91,57.83,11,17.58,19.56,36.59,28.05,55.53,9.87,22.05,16.85,40.17,26.73,62.22,4.72,10.54,26.75,66.4,38,75.26-5-22-18.74-60.09-25.2-78.19C458,167.81,443.47,139.59,433.43,120.53Z"/><path class="cls-2" d="M490,266.83c-9.55-7.53-26.49-47.79-34.63-67.14-1.57-3.73-2.81-6.68-3.58-8.4-4.94-11-9.22-21.24-13.37-31.12s-8.42-20.08-13.36-31.09c-8.34-18.62-17-37.87-28-55.44C384,52.76,367.33,34,351.23,15.9l1-1c38.12,36,60.08,61,81.8,105.31C445.26,141.44,459,168.32,466,187.83l.91,2.57c6.82,19.1,19.51,54.65,24.31,75.7l.46,2Zm-91.7-194c11.08,17.65,19.73,36.95,28.09,55.61,4.94,11,9.23,21.25,13.37,31.13s8.43,20.07,13.36,31.09c.78,1.73,2,4.68,3.59,8.42,7.62,18.11,23,54.62,32.48,64.95-5.14-21.18-17.15-54.81-23.7-73.19l-.92-2.57c-6.93-19.42-20.63-46.24-31.79-67.44v0c-19.1-39-38.4-62.95-68.84-92.75C376.24,42.22,388.29,56.9,398.31,72.87Z"/><path class="cls-1" d="M441.5,195.13c-6-12.41-16.08-34.94-21.9-47.43a796.22,796.22,0,0,0-42.26-78.86C362,43.27,336.87,12,319.14,3.31c10.59,8.88,27,31.15,35.34,42.16,10.7,14.08,21.82,32.27,33.54,56.39,11.63,23.92,21.34,52.22,33,76.14,6.53,13.45,24.58,56.05,42.53,74.53C454.57,229.31,448.88,209.14,441.5,195.13Z"/><path class="cls-2" d="M463,253c-15.29-15.74-30.66-48.91-38.91-66.72-1.49-3.22-2.75-5.94-3.75-8-5.82-12-11.25-25.27-16.5-38.12s-10.66-26.08-16.46-38c-11.08-22.81-22-41.21-33.47-56.26l-2.79-3.69c-8.6-11.38-23-30.43-32.44-38.36L314.06,0l5.4,2.66c17.66,8.69,42.8,39.68,58.5,65.81a790.88,790.88,0,0,1,42.3,78.93c2.18,4.67,5,10.75,7.89,17.19,4.81,10.52,10.26,22.45,14,30.21,4.74,9,8.75,20.43,13.4,33.66,2.66,7.58,5.42,15.43,8.64,23.81l1.28,3.31ZM352.27,41.35,355.06,45c11.49,15.13,22.49,33.61,33.62,56.51,5.82,12,11.25,25.27,16.5,38.12s10.66,26.08,16.46,38c1,2.05,2.26,4.78,3.76,8,7.75,16.73,21.82,47.08,36.08,63.53-2.66-7.07-5-13.78-7.3-20.29-4.63-13.18-8.63-24.57-13.32-33.47v0c-3.75-7.77-9.2-19.71-14-30.25-2.93-6.43-5.71-12.51-7.89-17.18a791.67,791.67,0,0,0-42.22-78.8c-14-23.24-35.41-50.33-52.24-61.88C333.61,16.65,345,31.72,352.27,41.35Z"/><path class="cls-1" d="M398.93,149C373.29,95.85,346.09,48.25,293.62,9.71c24.64,23.92,42.09,54.11,59.22,83.87,14.09,24.48,25.15,45.6,39.24,70.08,5.3,9.22,38,75.27,49.09,77.63C429.52,212.93,412.3,174.38,398.93,149Z"/><path class="cls-2" d="M441,242c-4.2-.9-11.32-9.82-21.76-27.27-8.49-14.18-17.07-30.47-22.74-41.25-2.32-4.39-4.14-7.86-5.07-9.47C384.4,151.78,378,140.18,371.82,129s-12.57-22.8-19.61-35c-16.89-29.34-34.35-59.68-59.1-83.71l.94-1.11c54.58,40.1,82.06,90.92,105.53,139.54,13.59,25.81,31,65,42.27,92.36l.52,1.27ZM353.47,93.22c7,12.24,13.44,23.84,19.63,35.05s12.57,22.79,19.61,35c.94,1.63,2.68,4.94,5.09,9.52,9.85,18.69,32.22,61.16,42,67.12-11.25-27.25-28.24-65.35-41.54-90.61v0c-22.22-46-48-94.06-97.15-132.95C322.39,39.22,338.17,66.63,353.47,93.22Z"/><path class="cls-1" d="M256.58,9.68c10.3,12.93,30.6,33.87,43.41,49.41q20.92,25.38,40.22,52a948,948,0,0,1,73.41,118.39C384.29,133.27,320.91,56.58,256.58,9.68Z"/><path class="cls-2" d="M413,229.86a945.48,945.48,0,0,0-73.36-118.31c-12.79-17.67-26.31-35.16-40.19-52C293.22,52,285.23,43.2,277.5,34.66,269.18,25.48,261.33,16.8,256,10.13l-3.35-4.21L257,9.09c73.7,53.74,131,134,157.3,220.22ZM278.58,33.69c7.74,8.54,15.74,17.38,22,24.94C314.45,75.49,328,93,340.8,110.7a941.44,941.44,0,0,1,69.73,111.45C384,141,329.92,65.67,260.9,13.78,265.83,19.61,272.06,26.49,278.58,33.69Z"/><path class="cls-1" d="M308.53,86.1c-29.93-31.88-47.84-52.88-82-69.47,41.7,39.76,74.07,67.71,103.12,115.84,10.69,17.71,27.49,39.73,42.86,59.56,2.68,3.45,14.83,25,18.83,29.51,3.32,3.71-7.55-27.19-9-31C367.55,152,336.49,115.89,308.53,86.1Z"/><path class="cls-2" d="M390.8,222c-2.43-2.71-7.62-11.32-12.2-18.91-3-5-5.6-9.28-6.65-10.64C356.82,173,339.78,150.64,329,132.84c-25.69-42.57-53.68-69-89.11-102.52-4.51-4.27-9.13-8.64-13.88-13.17l-3.37-3.21,4.19,2c31.4,15.26,48.71,33.79,74.9,61.83,2.36,2.53,4.78,5.13,7.3,7.8l-.53.5.53-.5c28.24,30.09,59.13,66.06,74,104.71.74,1.92,3.44,9.54,5.76,16.68,4.78,14.64,4.1,15.06,3.44,15.46l-.06,0C391.86,222.64,391.39,222.68,390.8,222ZM240.92,29.26c35.51,33.57,63.56,60.09,89.36,102.83,10.7,17.73,27.71,40,42.81,59.49,1.11,1.43,3.73,5.76,6.75,10.78,3.9,6.45,8.65,14.32,11.26,17.73-1.08-5.54-7.56-24.4-9.43-29.26C366.92,152.42,336.15,116.58,308,86.6h0c-2.52-2.68-4.94-5.28-7.3-7.81C275.85,52.2,259,34.19,230.57,19.46Z"/><path class="cls-1" d="M315.85,125c-10.57-12.95-26.24-29.48-38-41.39-24.71-25.1-56.61-48.83-89-62.57,36.42,31.75,67.57,59.7,88.09,76.82,14.36,12,34.92,39,46.05,54q8.36,11.28,16.37,22.82c3.33,4.76,29.68,41.59,31.7,39.49,3.18-3.31-23.66-45-27.1-49.95C333.61,149.39,327.26,138.94,315.85,125Z"/><path class="cls-2" d="M370.72,215c-4.12-.31-31.7-39.49-32-39.89-6-8.58-11.36-16-16.36-22.8-20-27-35.49-45.18-45.94-53.9-13-10.83-30.28-26.06-50.31-43.69-11.43-10.06-24.39-21.46-37.79-33.14l-3.43-3,4.19,1.78c30,12.69,62.54,35.55,89.29,62.72,9.16,9.3,26.27,27.05,38,41.44,8.28,10.15,13.85,18.36,20.3,27.87,2.43,3.59,5,7.34,7.83,11.43.32.45,31.08,46.63,27,50.87a.92.92,0,0,1-.25.19A1.08,1.08,0,0,1,370.72,215Zm-55.44-89.56c-11.7-14.34-28.78-32-37.91-41.33C252,58.35,221.48,36.5,192.87,23.57c12.13,10.58,23.81,20.86,34.23,30,20,17.62,37.32,32.84,50.28,43.66,10.54,8.8,26.08,27,46.17,54.15,5,6.77,10.38,14.24,16.39,22.84,7.47,10.68,27.1,37.35,30.67,39.19,1-4.15-20.22-38.7-27.26-48.81-2.86-4.09-5.41-7.85-7.84-11.45-6.43-9.47-12-17.66-20.23-27.77l.57-.45Z"/><path class="cls-1" d="M276.51,109.53c-33.44-29.71-64-55.43-104.9-73.51a1074.1,1074.1,0,0,1,91.14,77.83c28.42,27.16,68.68,71.89,86,92.33,4.4-7.24-21.49-44.2-28.17-52.24C308.46,139.34,290.67,122.11,276.51,109.53Z"/><path class="cls-2" d="M348.21,206.65c-18.27-21.54-58.23-65.77-86-92.27A1074.22,1074.22,0,0,0,171.17,36.6l-4.9-3.73,5.64,2.49C212.79,53.42,243.69,79.39,277,109l-.48.54L277,109c17.2,15.28,33.71,31.91,44.16,44.48,5.92,7.14,33.11,45.06,28.23,53.09l-.52.86Zm-85-93.32c27.37,26.15,66.62,69.53,85.26,91.43,1.42-8.52-20.59-40.86-28.48-50.36-10.4-12.52-26.85-29.09-44-44.33C244.42,82,215,57.18,177.14,39.35A1074.12,1074.12,0,0,1,263.25,113.33Z"/><path class="cls-1" d="M131.29,36.52c15.78,8.12,35.82,22.07,44.82,29,16.52,12.66,45,35.46,68.92,56.29,19.73,17.14,39.89,38.86,58.3,57.41,3.1,3.12,20,22.34,22.48,17.73,2.38-4.38-21.07-32.72-24.17-36.55-28-34.52-64.94-64.89-102-87.57C189.35,66.47,186.3,63,175.44,57.7,169.53,54.8,138,35.27,131.29,36.52Z"/><path class="cls-2" d="M324.89,198.33c-3.62.46-11.79-7.67-20.07-16.52-.88-.95-1.57-1.69-2-2.12-4.61-4.64-9.34-9.49-14.13-14.41-14.44-14.81-29.37-30.13-44.14-43-23.4-20.34-51.46-42.91-68.88-56.26-9-6.93-29.18-20.9-44.71-28.89l-1.89-1,2.09-.38c5-.93,21,7.88,36.94,17,3.52,2,6.3,3.6,7.66,4.27A100.82,100.82,0,0,1,190.65,66c2.71,1.87,5.5,3.8,9.4,6.19C239.69,96.44,276,127.6,302.2,159.9l.61.75c26.14,32,24.26,35.47,23.64,36.61a2,2,0,0,1-.84.85A2.25,2.25,0,0,1,324.89,198.33ZM176.55,64.91c17.45,13.36,45.53,36,68.95,56.31,14.82,12.87,29.77,28.21,44.23,43.05,4.79,4.92,9.51,9.76,14.12,14.4.43.44,1.14,1.19,2,2.14,4.23,4.52,15.44,16.51,18.83,16.08a.58.58,0,0,0,.46-.32c.48-.88.19-6-23.49-35l-.61-.75c-26.13-32.18-62.28-63.22-101.78-87.41-3.93-2.41-6.87-4.44-9.47-6.24a100.87,100.87,0,0,0-14.7-8.82c-1.4-.69-4.2-2.28-7.74-4.3-9-5.11-24.3-13.86-32.13-16.25C150.24,46,168.16,58.48,176.55,64.91Z"/><path class="cls-1" d="M238.12,122.93c-6.23-5.71-16.89-14.49-23.72-19.47C206.94,98,197.06,90.21,190.2,86c-24.11-14.83-48.75-30.18-69.12-37.47,17.26,13.86,41.19,27.67,60.43,43.37C201.2,108,217.69,119,237.39,135.06c9.85,8,21.91,17.95,31.75,26,5,4.07,20.59,20.37,31.83,29.23-10.7-14.07-23.17-29.57-31.88-38.22C259,142.07,248.58,132.5,238.12,122.93Z"/><path class="cls-2" d="M300.52,190.85c-7-5.52-15.55-13.78-22.42-20.42-4.05-3.91-7.54-7.29-9.42-8.82-4.92-4-10.4-8.51-15.87-13l-15.88-13c-9.84-8-19-14.91-27.92-21.57s-18.1-13.55-28-21.6C171,84.21,159.54,76.48,148.5,69c-10.11-6.85-19.67-13.33-27.87-19.91l-3.38-2.71,4.08,1.45c19.77,7.08,43.72,21.83,66.88,36.08l2.37,1.46c4.84,3,11.06,7.65,17.07,12.17,2.51,1.88,4.95,3.72,7.18,5.34,6.66,4.85,17.33,13.6,23.78,19.51l-.49.54.49-.54c10.28,9.41,20.92,19.14,31,29.16s24.33,28.28,31.94,38.29l3.45,4.55Zm-151.2-123c11.06,7.49,22.5,15.25,32.65,23.52,9.83,8,19,14.91,27.91,21.57s18.11,13.56,28,21.61l15.88,13c5.47,4.49,11,9,15.87,13,1.92,1.57,5.27,4.81,9.51,8.9,5.28,5.11,11.55,11.17,17.33,16.19-7.93-10.26-19.4-24.6-27.86-33-10.05-10-20.68-19.72-30.95-29.12-6.42-5.88-17-14.58-23.66-19.41-2.23-1.62-4.68-3.46-7.19-5.35-6-4.5-12.18-9.15-17-12.09l-2.37-1.46C166.08,72,144,58.43,125.31,50.91,132.57,56.46,140.75,62,149.32,67.8Z"/><path class="cls-1" d="M232.35,137.61c-14.8-10.69-30-20.85-45.16-31L168.26,93.93c-14.36-9.61-23.4-15.82-38.86-23.56C122,66.68,108.86,60,100.63,59.58,140.25,81,157.3,98.39,207.4,131.14c6.59,4.31,12.88,9.81,19.16,14.55,5.28,4,14.3,12.21,19.84,15.84,5.89,3.84,21.8,16.44,30.4,23.41,2.52,2.05-5.41-10.8-8.92-15.38C258.16,156.85,245.23,146.9,232.35,137.61Z"/><path class="cls-2" d="M276.34,185.51c-9.06-7.35-24.62-19.64-30.34-23.38a153.16,153.16,0,0,1-12.32-9.7c-2.82-2.36-5.48-4.59-7.56-6.16s-4.38-3.4-6.52-5.1c-4.08-3.25-8.31-6.62-12.6-9.42-20.57-13.45-35.59-24.32-48.85-33.91-19.3-14-34.54-25-57.87-37.62l-2.77-1.5,3.15.14c8.12.35,20.78,6.7,28.34,10.49l.73.37c14.63,7.32,23.36,13.17,36.56,22L187.6,106c14.92,10,30.35,20.31,45.18,31h0c12,8.68,25.69,19,35.68,32.09.11.15,10.81,15.08,9.3,16.55a1,1,0,0,1-.2.15C277.29,186,276.89,186,276.34,185.51ZM231.92,138.2c-14.8-10.69-30.22-21-45.13-31L165.48,93C152.32,84.13,143.63,78.3,129.08,71l-.73-.37c-6.33-3.17-16.26-8.15-23.9-9.8C125.93,72.74,140.64,83.38,159,96.67c13.24,9.57,28.24,20.43,48.79,33.86,4.35,2.84,8.6,6.23,12.71,9.5,2.13,1.7,4.33,3.45,6.49,5.08s4.78,3.83,7.62,6.21c4.36,3.65,8.87,7.43,12.18,9.6,5.44,3.56,19.67,14.75,28.89,22.19A129.25,129.25,0,0,0,267.3,170c-9.86-12.9-22.88-22.78-35.38-31.8Z"/><path class="cls-1" d="M227.38,153.47c-46.65-35.3-91.6-70.28-147.55-87.37,54.66,32.56,103.61,69.45,146.4,94.55,3.22,1.89,29.11,24.09,32.29,20.78C258.52,181.43,231.88,156.88,227.38,153.47Z"/><path class="cls-2" d="M231.69,165.69c-2.84-2.21-5.07-4-5.83-4.41-20.69-12.14-42.85-27.05-66.31-42.84-25.49-17.16-51.85-34.9-80.1-51.72l-5.16-3.07L80,65.4c54.09,16.52,97.19,49.17,142.81,83.74l5,3.75c4.48,3.39,30.11,27,31.2,28l.55.5-.51.54a1.83,1.83,0,0,1-.42.31C255.72,183.77,246.78,177.52,231.69,165.69Zm-71.33-48.46C183.8,133,205.94,147.91,226.59,160c.85.5,3,2.19,6,4.53,5.28,4.13,20.35,15.94,24.51,16.55-4.77-4.39-26.21-24.06-30.15-27l-5-3.75c-43.84-33.21-85.34-64.65-136.43-81.62C111.81,84.56,136.47,101.15,160.36,117.23Z"/><path class="cls-1" d="M213.23,160.92c-21.11-13.37-39.12-27.67-60.66-40.33-6.53-3.83-15.79-8.19-22.53-11.65C112.15,99.76,90.75,87.43,68.55,82.7c23,12.52,61.05,36.53,83.61,49.6,23.86,13.82,36.22,22,54.64,32,3.08,1.68,23.6,17.14,28.91,14.35C237,178,216.51,163,213.23,160.92Z"/><path class="cls-2" d="M210.11,167.34c-1.72-1.16-3.07-2.07-3.66-2.39-10.82-5.88-19.58-11.15-29.73-17.25-7.06-4.25-15.07-9.06-24.92-14.77-8.94-5.17-20.22-12-32.17-19.27C101.18,102.47,82.1,90.9,68.2,83.34L63.8,81l4.9,1c19.19,4.09,37.67,13.76,54,22.3q3.94,2.07,7.71,4c2,1,4.21,2.12,6.51,3.27,5.36,2.67,11.43,5.69,16,8.39,12.34,7.25,23.74,15.19,34.76,22.86,8.3,5.78,16.89,11.77,25.93,17.49h0c.23.15,23,16,22.87,18.28l-.07.51-.37.2C231.78,181.54,220.42,174.3,210.11,167.34Zm-89.73-54.92c11.94,7.24,23.22,14.09,32.15,19.25,9.86,5.72,17.87,10.53,24.94,14.78,10.13,6.09,18.89,11.35,29.68,17.22.65.36,2,1.24,3.77,2.46,5.85,4,19.14,12.92,23.77,12.1-2.72-2.94-18.42-14.52-21.85-16.69h0c-9.06-5.74-17.66-11.73-26-17.53-11-7.66-22.38-15.57-34.66-22.79-4.57-2.68-10.62-5.69-15.95-8.35-2.31-1.15-4.54-2.26-6.54-3.28-2.5-1.29-5.08-2.64-7.71-4-14.74-7.72-31.26-16.37-48.41-20.92C87,92.14,103.91,102.43,120.38,112.42Z"/><path class="cls-1" d="M50,97.4c20.38,10.62,46.72,25.71,66.42,35.66,20.45,10.32,33,15.35,53.21,26.18,3.61,1.93,35.42,20.78,42,17.32,2.57-1.35-28.93-20.14-33.41-22.73-18.65-10.76-39.75-23.09-59.41-31.88C97,112.24,72.73,104.55,50,97.4Z"/><path class="cls-2" d="M171.33,161l-2-1.15c-11.78-6.32-20.94-10.65-30.64-15.24-6.91-3.26-14.05-6.64-22.56-10.94-11-5.54-24.16-12.76-36.91-19.74C69.11,108.45,58.7,102.75,49.67,98l.55-1.34c22,6.92,46.86,14.76,68.86,24.59,18.7,8.35,38.84,20,56.61,30.25l2.87,1.66c.34.2,34,19.72,33.92,23.15a1,1,0,0,1-.53.85C206.38,180.13,186.1,169.37,171.33,161ZM79.88,112.69c12.74,7,25.91,14.19,36.87,19.72,8.49,4.28,15.62,7.66,22.52,10.92,9.72,4.59,18.9,8.93,30.71,15.27l2.07,1.16c26.51,15,35.8,17.28,38.81,16.33-2.36-3.14-24.53-16.72-33-21.63L175,152.8c-17.74-10.25-37.85-21.86-56.47-30.18-19.41-8.67-41.1-15.8-61-22.11C64.64,104.35,72.36,108.57,79.88,112.69Z"/><path class="cls-1" d="M41.23,116.74c38.16,17.75,65.12,26.51,101.12,43.73,3.62,1.73,47.1,21.19,52.4,18.4,2.57-1.36-40.25-22.94-45-25.1A567.09,567.09,0,0,0,81.5,127.63Q61.58,121.45,41.23,116.74Z"/><path class="cls-2" d="M142,161.12c-18.68-8.93-34.65-15.47-51.56-22.4-15.34-6.28-31.19-12.78-49.55-21.32l-6.31-2.93L41.4,116c13.48,3.12,27,6.79,40.31,10.9a569.66,569.66,0,0,1,68.38,26.18c2.46,1.13,13.81,6.81,24.27,12.35,21.17,11.21,21.21,12.47,21.23,13.21a.91.91,0,0,1-.5.84C189.11,182.66,142.5,161.34,142,161.12ZM91,137.38c16.93,6.93,32.92,13.49,51.64,22.43,9,4.29,44.53,19.47,51.1,18.6-4.28-3.91-38.61-21.38-44.28-24a569.14,569.14,0,0,0-68.21-26.11c-10.89-3.38-22-6.45-33.06-9.17C63.78,126.21,77.6,131.87,91,137.38Z"/><path class="cls-1" d="M104.33,149.55a205.75,205.75,0,0,0-26.09-7.89c-6.88-1.55-38.59-10.89-48.54-9.57l116.48,40.57c3.3,1.14,29.14,9.87,31.72,8.51,3.68-1.94-26.46-12.43-29.41-13.63Z"/><path class="cls-2" d="M145.94,173.34,26.58,131.77l3-.4c8.07-1.07,30.1,4.72,41.94,7.83,3,.81,5.47,1.44,6.85,1.75a204.57,204.57,0,0,1,26.2,7.93l44.16,18,3.15,1.17c22.35,8.24,26.91,11,27,12.64a1.16,1.16,0,0,1-.69,1.14C175.1,183.47,146.24,173.44,145.94,173.34Zm-41.88-23.11a205.52,205.52,0,0,0-26-7.86c-1.41-.32-3.83-1-6.9-1.76-10.11-2.66-27.71-7.29-37.38-7.86L146.42,172c9.26,3.22,27.91,9.07,30.91,8.61-1.37-1.58-10.08-5.33-25.92-11.17-1.59-.59-2.73-1-3.2-1.2l-44.15-18Z"/><path class="cls-1" d="M93,163.46c-35.34-11-67.41-10-80.83-10,9.36,1.63,20.64,4.6,30,6.23,24.77,4.31,27.49,6.22,55.58,12.78,8.52,2,35,7.77,43.47,9.77,5.56,1.3,19.22,3.21,21.12.57C162.33,182.8,109.76,168.65,93,163.46Z"/><path class="cls-2" d="M141.05,182.94c-4.34-1-13.42-3-22.21-5-8.4-1.87-17.08-3.8-21.26-4.77-10.29-2.41-17-4.15-23-5.69-10.16-2.62-16.88-4.35-32.55-7.08-4.69-.82-9.95-2-15-3.12s-10.3-2.3-15-3.11l.13-1.44h3.47c14.57,0,44.89-.1,77.57,10,16.55,5.14,68.77,19.2,69.3,19.34l1,.27-.61.85a2.54,2.54,0,0,1-.93.76C157.32,186.44,141.22,183,141.05,182.94ZM27.33,155.86c5.06,1.13,10.3,2.3,15,3.11C58,161.7,64.76,163.44,75,166.08c6,1.53,12.69,3.27,23,5.67,4.18,1,12.85,2.91,21.25,4.77,8.79,2,17.88,4,22.22,5,6.15,1.44,15.56,2.46,19.09,1.53-9.1-2.45-52.78-14.28-67.68-18.9-29.73-9.22-57.53-9.94-73.14-10C22.19,154.71,24.78,155.29,27.33,155.86Z"/><path class="cls-1" d="M68.5,173.07c-16.92-.94-35.32-5.57-61.12,1.93,43.47,3.86,91.92,9.78,133,12.81,3.14.24,10.42,1.09,11-.88-3.26-2.66-11.59-3.08-15.79-4.07-5.43-1.28-10.91-2.38-16.41-3.36C108.61,177.61,79.21,173.67,68.5,173.07Z"/><path class="cls-2" d="M141.41,188.63l-1.14-.09C116.6,186.79,90,184,64.22,181.35c-18.93-2-38.51-4-56.91-5.62l-3.85-.35,3.72-1.08c20.37-5.92,36.21-4.33,50.18-2.92,3.88.4,7.55.77,11.18,1,10.66.59,40.26,4.56,50.75,6.43,6,1.08,11.37,2.18,16.45,3.37,1.17.28,2.7.51,4.32.76,4.35.67,9.28,1.43,11.76,3.46l.38.31-.14.47a1.92,1.92,0,0,1-1,1.11C149.3,189.18,145.62,189,141.41,188.63Zm-77-8.72c25.74,2.67,52.36,5.43,76,7.18l1.15.09c4.83.4,7.77.37,8.77-.11-2.4-1.48-6.83-2.16-10.46-2.72-1.65-.25-3.21-.49-4.43-.78-5-1.19-10.41-2.29-16.38-3.36-10.45-1.87-40-5.82-50.57-6.41-3.66-.21-7.35-.58-11.24-1-12.94-1.3-27.48-2.77-45.73,1.81C28.7,176.21,46.81,178.08,64.37,179.91Z"/><path class="cls-1" d="M61.26,192.5c-6.26,1.05-43,3.74-57.81,9.9,4.83.11,13.52-.09,18.34,0,5.16.12,44-1.86,50.1-2.34l48.3-3.82c7.78-.61,15.6-1.23,23.2-3-.12-.8-1-1.16-1.83-1.36C130.9,189.25,67.6,191.44,61.26,192.5Z"/><path class="cls-2" d="M143.55,194c-7.67,1.76-15.61,2.38-23.3,3L72,200.8c-6.26.49-44.94,2.47-50.18,2.35-2.4-.06-5.84,0-9.16,0s-6.76,0-9.17,0L0,203.05l3.17-1.32c11.63-4.84,36.53-7.54,49.9-9,3.75-.4,6.7-.72,8.07-1h0c6.62-1.11,69.81-3.28,80.6-.56.53.13,2.15.54,2.37,2l.1.67Zm-82.17-.78c-1.41.24-4.24.54-8.15,1-12,1.3-33.23,3.6-45.7,7.52l5.07,0c3.33,0,6.78,0,9.21,0,5.14.12,44.35-1.89,50-2.34l48.31-3.81A169.69,169.69,0,0,0,142,192.85a3.83,3.83,0,0,0-.65-.21c-10.26-2.59-73.59-.5-80,.58Z"/><path class="cls-1" d="M60.93,214.84C56.39,216.73,24.1,228.92,18.11,232A76,76,0,0,0,6.37,239c4.31-1.81,14.82-2.29,19.23-3.86,9.68-3.45,21.77-8,35.82-11.48,4.42-1.09,22.58-5.89,27.09-7.7q12.9-5.16,25.77-10.38l19.81-8C127.54,197.84,75.75,208.68,60.93,214.84Z"/><path class="cls-2" d="M114.5,206.23q-12.85,5.19-25.72,10.36c-4.53,1.81-22.39,6.54-27.19,7.73a321.21,321.21,0,0,0-32.35,10.24l-3.4,1.22a56.7,56.7,0,0,1-9.13,1.78c-3.87.56-7.87,1.14-10.06,2.06l-5.2,2.18,4.47-3.43a77.49,77.49,0,0,1,11.85-7c4.28-2.21,21.68-8.94,33.19-13.4,4.68-1.81,8.37-3.24,9.69-3.79h0c15-6.24,66.91-17.06,73.41-17.36l4.26-.2Zm-53.29,9.28c-1.33.56-5,2-9.73,3.81-11.48,4.44-28.83,11.16-33,13.33-2.72,1.39-5.5,2.82-8.13,4.47,1.91-.38,4.07-.69,6.19-1a56.33,56.33,0,0,0,8.85-1.71l3.4-1.22A323.16,323.16,0,0,1,61.24,222.9c4.21-1,22.52-5.87,27-7.66q12.87-5.15,25.77-10.38l14.35-5.8c-15.49,2.66-54.51,11.2-67.15,16.45Z"/><path class="cls-1" d="M61.46,245.63c8.89-3.18,15.8-10.12,23.57-15.48a147.24,147.24,0,0,1,14.89-8.66c6.26-3.33,13.16-7.8,19.43-11.13,6.62-3.51,12.72-6,17.94-11.33a93.33,93.33,0,0,0-23,7.48c-3.91,1.86-7.68,4-11.45,6.12C86.84,221.66,73.17,231.19,61.46,245.63Z"/><path class="cls-2" d="M61.7,246.31l-2.44.88,1.64-2C73.63,229.47,88.4,220,102.45,212c3.72-2.1,7.56-4.27,11.49-6.15a94,94,0,0,1,23.22-7.53l2.25-.42-1.59,1.64c-4.31,4.42-9.19,6.9-14.37,9.53-1.23.62-2.49,1.25-3.76,1.93-3.12,1.66-6.46,3.64-9.69,5.55s-6.59,3.91-9.74,5.58a148.61,148.61,0,0,0-14.82,8.61c-2.29,1.59-4.56,3.35-6.75,5a86,86,0,0,1-12.31,8.45A35.57,35.57,0,0,1,61.7,246.31Zm61.09-38.54c4.34-2.2,8.48-4.3,12.18-7.53a91.77,91.77,0,0,0-20.4,6.93c-3.89,1.85-7.71,4-11.4,6.1C89.92,220.76,76,229.65,63.89,243.85c5-2.31,9.53-5.81,13.91-9.21,2.21-1.72,4.49-3.49,6.82-5.09a148,148,0,0,1,15-8.7c3.12-1.66,6.46-3.64,9.68-5.55s6.6-3.91,9.75-5.58l.34-.18C120.52,208.92,121.66,208.34,122.79,207.77Z"/><path class="cls-1" d="M132.34,210.09a199.52,199.52,0,0,0-30.28,23c-4.21,4-10.86,7.65-13.17,13,9.5-5.92,21.34-11.34,30.84-17.27,4.58-2.85,9.16-5.71,13.69-8.65,11.48-7.44,22.62-15.39,33.76-23.34,2.8-2,17.8-11.25,19.86-13.92-2.49-2-17.13,8.24-19.37,9.37-4.22,2.12-8.54,4-12.87,5.88A154.2,154.2,0,0,0,132.34,210.09Z"/><path class="cls-2" d="M88.23,245.82c1.66-3.85,5.39-6.77,9-9.6,1.57-1.24,3.06-2.41,4.34-3.62A199,199,0,0,1,132,209.47a156.1,156.1,0,0,1,22.55-12c4.4-1.9,8.69-3.78,12.83-5.86.47-.24,1.57-.93,3-1.81,9.4-5.93,15.22-9.05,17.18-7.48l.56.45-.44.56c-1.45,1.89-8.21,6.36-15.61,11.16-2,1.33-3.66,2.38-4.4,2.91-11,7.82-22.29,15.91-33.78,23.36-4.5,2.92-9.13,5.81-13.7,8.66-4.78,3-10.21,5.86-15.47,8.66S94,243.78,89.28,246.73l-2,1.23Zm82.86-54.75c-1.49.94-2.57,1.63-3.1,1.88-4.17,2.1-8.49,4-12.91,5.89a154.43,154.43,0,0,0-22.35,11.87,197,197,0,0,0-30.17,22.94c-1.32,1.26-2.84,2.45-4.45,3.71A38.07,38.07,0,0,0,91,244c4.14-2.45,8.64-4.84,13-7.16,5.23-2.79,10.65-5.66,15.48-8.68,4.46-2.78,9.08-5.66,13.58-8.58,11.46-7.43,22.78-15.51,33.73-23.33.76-.54,2.39-1.6,4.45-2.94,4.49-2.91,11.61-7.54,14.34-9.91C183.44,183.77,178.6,186.33,171.09,191.07Z"/><path class="cls-1" d="M177.08,197.62a124.24,124.24,0,0,0-13,8.6c-11.55,8.6-22.27,18.25-33,27.89a31.86,31.86,0,0,0-4.7,5.36c10-3.55,20.6-13,29.51-18.83,6.4-4.18,12.12-7,18.9-10.51,8.54-4.44,17.75-8.44,26.11-13.19a94.65,94.65,0,0,1,11.58-6.09c3.36-1.39,15.07-5.34,17.39-7.52-7.61-1.06-21.85,3.12-29.24,5A96.38,96.38,0,0,0,177.08,197.62Z"/><path class="cls-2" d="M126.7,240.15l-2.18.78,1.35-1.88a31.93,31.93,0,0,1,4.8-5.48c10.54-9.49,21.44-19.31,33-27.93a122.26,122.26,0,0,1,13-8.65h0a96.72,96.72,0,0,1,23.81-9.36l3.12-.82c7.81-2.05,19.62-5.15,26.4-4.2l1.51.21-1.11,1c-1.73,1.62-7.59,3.88-14,6.26-1.54.58-2.84,1.06-3.65,1.4a71.21,71.21,0,0,0-9.19,4.73l-2.31,1.32c-5.05,2.87-10.47,5.5-15.72,8-3.45,1.67-7,3.4-10.41,5.17l-2.93,1.51a171.87,171.87,0,0,0-15.91,9c-2.7,1.77-5.53,3.85-8.52,6.05a130,130,0,0,1-15.63,10.4A40.35,40.35,0,0,1,126.7,240.15ZM171.61,211l2.93-1.51c3.41-1.78,7-3.51,10.45-5.19,5.22-2.53,10.62-5.15,15.63-8l2.3-1.32a74.47,74.47,0,0,1,9.36-4.82c.82-.34,2.14-.83,3.7-1.41a118.09,118.09,0,0,0,11.8-4.87c-6.69-.15-16.82,2.51-23.76,4.33-1.13.3-2.19.58-3.13.81a95.16,95.16,0,0,0-23.45,9.23h0a120.46,120.46,0,0,0-12.88,8.55c-11.53,8.57-22.4,18.37-32.91,27.84a26.9,26.9,0,0,0-3,3.18c6.1-2.69,12.32-7.26,18.36-11.7,3-2.22,5.85-4.31,8.58-6.09,4-2.63,7.73-4.69,11.65-6.75C168.64,212.53,170.1,211.78,171.61,211Z"/><path class="cls-1" d="M223.23,196A86.49,86.49,0,0,0,212,198.8c-4,1.39-7.64,3.6-11.53,5.24-18,7.59-30,16.3-40.38,27.57,13.3-4,28.25-12.23,40.83-18.09,9.7-4.51,19.59-8.6,29.56-12.46,4.93-1.91,9.89-3.76,14.85-5.59,3.41-1.26,16.43-4.13,18.53-7C252.15,188.93,234.72,193.64,223.23,196Z"/><path class="cls-2" d="M249.85,194.87c-1.82.52-3.39,1-4.26,1.28-5.57,2-10.42,3.88-14.84,5.59-11.19,4.34-20.85,8.4-29.51,12.44-3.3,1.54-6.72,3.22-10.34,5-10.19,5-20.73,10.2-30.59,13.14l-2.54.75,1.8-1.94c11.13-12.05,23.66-20.61,40.62-27.75,1.58-.67,3.15-1.44,4.66-2.19a59.89,59.89,0,0,1,6.93-3.06,86.68,86.68,0,0,1,11.31-2.87h0c3-.6,6.36-1.36,9.94-2.17,10.35-2.34,22.07-5,30.81-5.34l1.5-.06-.88,1.21a6.72,6.72,0,0,1-2.34,1.77C259.39,192.1,254.9,193.44,249.85,194.87Zm-16.49-.38c-3.6.81-7,1.58-10,2.19h0a85.88,85.88,0,0,0-11.13,2.81,59.9,59.9,0,0,0-6.75,3c-1.54.76-3.13,1.55-4.74,2.23-16,6.74-27.6,14.41-38.2,25.36,9-3,18.48-7.67,27.7-12.2,3.63-1.78,7.05-3.46,10.36-5,8.7-4.05,18.38-8.13,29.61-12.47,4.42-1.72,9.28-3.55,14.86-5.6.92-.34,2.52-.79,4.36-1.32,3.62-1,9.12-2.58,12.05-4.12h0C253.22,190,242.72,192.38,233.36,194.49Z"/><path class="cls-1" d="M245.5,204a67.81,67.81,0,0,0-8.47,1.91c-3.25,1-24,9.17-32.32,13.75-6,3.29-14.6,10.35-18.19,16.17,11-2.65,21.62-6.51,32.23-10.36l41.11-14.92L272.2,206c3.72-1.35,24.23-6.62,25-10.47-7.73,0-20.2,3.35-27.84,4.48Q257.39,201.84,245.5,204Z"/><path class="cls-2" d="M276.39,205.49c-1.8.54-3.21,1-3.94,1.23L219,226.11c-10.46,3.8-21.29,7.73-32.31,10.39l-1.72.41.93-1.5c3.68-6,12.28-13,18.46-16.43,8.45-4.64,29.09-12.74,32.45-13.8a68.62,68.62,0,0,1,8.56-1.94h0c7.89-1.41,15.92-2.73,23.86-3.9,2.6-.39,5.76-1,9.12-1.71,6.41-1.3,13.67-2.78,18.82-2.79h.89l-.17.86c-.21,1.11-1.51,2.23-3.73,3.4C290.51,201,284.37,203.09,276.39,205.49Zm2.25-6.44c-3.38.69-6.56,1.33-9.2,1.72-7.92,1.18-15.94,2.49-23.81,3.9h0a68.72,68.72,0,0,0-8.39,1.89c-3.22,1-24,9.21-32.18,13.69-5.36,2.94-12.92,9-16.87,14.38,10.31-2.63,20.47-6.31,30.32-9.88L272,205.35c.77-.27,2.2-.71,4-1.25,4.88-1.47,17-5.12,19.88-7.77C291,196.55,284.44,197.88,278.64,199.05Z"/><path class="cls-1" d="M292.65,211.86a105.82,105.82,0,0,0-16,2.37c-6.09,1.55-11.85,4.17-17.91,5.82-4.58,1.26-9.31,1.95-13.84,3.36a84.48,84.48,0,0,0-12,5c-9.05,4.39-31.6,15.94-33.81,21.88,4.31-2.46,9.19-3.71,14-4.9,11.88-3,39.05-10.08,42-11.27,4-1.63,22.94-4.61,27.11-5.08,21.49-2.44,27.5-5.47,40.32-11.31,2.37-1.08,14.31-7.78,15.22-10.71.61-2-4.54.75-14.05,1.82C313.35,210,303,210.87,292.65,211.86Z"/><path class="cls-2" d="M322.81,218.44l-1.44.65c-11.8,5.38-18.31,8.35-39.1,10.71-4.25.49-23.12,3.47-26.91,5-3.06,1.26-31.09,8.58-42.05,11.3-4.44,1.1-9.48,2.34-13.83,4.83l-1.74,1,.7-1.87c2.34-6.28,24.67-17.68,34.17-22.28a86.49,86.49,0,0,1,12.09-5.09c2.58-.8,5.24-1.37,7.81-1.93,2-.43,4.06-.88,6.06-1.43,2.84-.77,5.68-1.79,8.43-2.77,3.07-1.1,6.25-2.23,9.49-3.06a107.17,107.17,0,0,1,16.09-2.38h0c3.44-.33,6.89-.65,10.33-1,6.79-.62,13.8-1.26,20.69-2a77.35,77.35,0,0,0,10-1.84c2.84-.68,4-1,4.66-.28a1.2,1.2,0,0,1,.2,1.25c-.95,3.08-11.28,8.89-14.64,10.66Zm11.08-10.72a79.52,79.52,0,0,1-10.13,1.88c-6.9.77-13.92,1.41-20.72,2-3.44.31-6.88.62-10.32,1a104.39,104.39,0,0,0-15.87,2.34c-3.17.81-6.32,1.93-9.37,3-2.77,1-5.63,2-8.53,2.81-2,.55-4.11,1-6.13,1.44-2.54.55-5.17,1.12-7.69,1.9a86.64,86.64,0,0,0-11.89,5c-13,6.3-27.15,14.21-31.93,19.3A67.63,67.63,0,0,1,213,244.72c12.07-3,39.06-10.09,41.84-11.23,4.09-1.68,23.34-4.68,27.3-5.13,20.57-2.34,27-5.27,38.67-10.59l1.44-.66c3.14-1.42,13.22-7.36,14.7-10A27.09,27.09,0,0,0,333.89,207.72Z"/><path class="cls-1" d="M228.69,254.86c-5,2-10.17,4.26-13.3,8.62a160.92,160.92,0,0,1,34.24-8.42c5.05-.67,10.13-1.09,15.16-1.88,5.58-.88,11.07-2.2,16.56-3.51l40.54-9.74c5.37-1.29,26.12-8,31-10.23,3.87-1.76,15.59-5.81,18.26-9-14.21,4.2-50.34,7.7-59.55,9.55a476.62,476.62,0,0,0-53.87,14.12Q243.07,249.12,228.69,254.86Z"/><path class="cls-2" d="M357,228.79c-1.55.63-2.89,1.16-3.79,1.57-5,2.29-26,9-31.15,10.27l-40.54,9.74c-5.41,1.3-11,2.65-16.62,3.53-3,.48-6.16.83-9.17,1.17-2,.22-4,.45-6,.71a160.11,160.11,0,0,0-34.09,8.38l-2.21.81,1.37-1.92c3.18-4.42,8.26-6.72,13.62-8.87h0c9.54-3.81,19.33-7.35,29.11-10.54a476.76,476.76,0,0,1,53.94-14.14c3.2-.65,9.65-1.49,17.12-2.47,14-1.82,33.11-4.32,42.38-7.06l2.29-.68-1.53,1.84a15.76,15.76,0,0,1-4.53,3.18C364.12,225.93,360.2,227.51,357,228.79Zm-28.22-.31c-7.45,1-13.88,1.81-17,2.44A478.19,478.19,0,0,0,258,245c-9.75,3.18-19.51,6.72-29,10.51-4.23,1.7-8.27,3.48-11.22,6.34a161,161,0,0,1,31.8-7.53c2-.27,4-.49,6-.72,3-.34,6.09-.69,9.11-1.16,5.55-.87,11.12-2.21,16.5-3.5l40.54-9.74c5.08-1.22,25.9-7.91,30.89-10.18.91-.42,2.27-1,3.84-1.6a95.94,95.94,0,0,0,11.4-5.15C357.86,224.67,341.9,226.76,328.78,228.48Z"/><path class="cls-1" d="M388.44,237.85c-5,.46-10.16.72-15.2.84-10.64.28-21.16,2.2-31.63,4.12l-25.88,4.75c-4.76.87-9.53,1.75-14.24,2.84a158.27,158.27,0,0,0-65.08,32.25c21.4-14.62,48.06-13,71.22-16.55,7.54-1.17,18.68-5.36,26-7.59,23.27-7.1,52.35-9.81,73.65-22.35,4.11-2.42-5-.6-8.21.24A62.84,62.84,0,0,1,388.44,237.85Z"/><path class="cls-2" d="M358.2,253.12c-8.6,1.93-16.73,3.75-24.38,6.09-2,.61-4.27,1.36-6.68,2.16-6.5,2.15-13.87,4.59-19.4,5.45-5.79.89-11.65,1.45-17.86,2-18.26,1.73-37.14,3.52-53.06,14.39l-.88-1.16a159.28,159.28,0,0,1,65.38-32.4c4.74-1.09,9.59-2,14.28-2.84l25.88-4.75c10.33-1.9,21-3.86,31.74-4.13,5.58-.15,10.54-.42,15.15-.84L390,237a50.74,50.74,0,0,0,8.92-1.29c2.82-.74,9.46-2.31,10.09-.8.37.88-.74,1.53-1.33,1.88-1.07.63-2.16,1.24-3.26,1.82C390.61,245.84,374.15,249.54,358.2,253.12Zm41-16a53.5,53.5,0,0,1-9.17,1.33l-1.56.14c-4.65.42-9.64.7-15.26.84-10.6.27-21.23,2.22-31.5,4.11l-25.89,4.75c-4.67.85-9.51,1.74-14.21,2.83A157.72,157.72,0,0,0,245,276.94c14.07-6.62,29.64-8.1,44.78-9.53,6.19-.59,12-1.14,17.78-2,5.41-.84,12.72-3.26,19.16-5.39,2.43-.8,4.72-1.56,6.72-2.17,7.7-2.35,15.85-4.18,24.48-6.12,17-3.82,34.58-7.76,48.7-16A53.88,53.88,0,0,0,399.24,237.11Z"/><path class="cls-1" d="M386.76,248.51c-5.16.48-33.67,7.91-44,11.76-23.87,8.9-52.9,13.85-73.46,28.9q34.26-6.71,68.3-14.4c2.07-.47,38.48-9.4,46.18-11.46,7-1.88,13.65-3.29,20.47-5.81,3.52-1.3,20.22-7.4,22.72-12,2-3.61-12.32,1.56-17.35.89C402,245.37,394.38,247.8,386.76,248.51Z"/><path class="cls-2" d="M404.68,258.12l-.19.06a143,143,0,0,1-15.16,4.44c-1.77.45-3.55.9-5.37,1.39-7.5,2-44,11-46.21,11.46-22.59,5.12-45.58,10-68.32,14.41l-3.2.62,2.63-1.92c14.42-10.55,33-16.17,50.91-21.6,8-2.42,15.51-4.7,22.73-7.39,10.22-3.81,38.87-11.31,44.19-11.8h0c2.52-.24,5.09-.67,7.58-1.09,5.05-.85,10.27-1.73,15.44-1,2,.27,5.75-.48,9.08-1.15,5.21-1,8-1.52,8.84-.35a1.49,1.49,0,0,1,0,1.68c-.89,1.63-3.37,3.52-7.41,5.65A136.25,136.25,0,0,1,404.68,258.12Zm14.39-12.18c-3.6.72-7.33,1.46-9.56,1.16-4.94-.66-10.06.2-15,1-2.52.42-5.12.86-7.68,1.09h0c-5.26.5-33.67,7.93-43.83,11.72-7.26,2.71-15.16,5.1-22.81,7.42-16.66,5.05-33.86,10.25-47.65,19.42,21.61-4.26,43.43-8.88,64.89-13.73,2.16-.49,38.66-9.45,46.16-11.45,1.82-.49,3.61-.95,5.39-1.4a142.84,142.84,0,0,0,15-4.39l.19-.07c17.23-6.36,21.27-10,22.14-11.6a.93.93,0,0,0,.07-.15C425.51,244.65,421.66,245.42,419.07,245.94Z"/><path class="cls-1" d="M357.51,277.69c-16.7,4.34-32.75,10.79-49.37,15.42-19.2,5.35-30.19,14.21-44.72,22.4,36.47-12.17,73.12-22.1,105-28.09,4.3-.8,29.64-9,37.06-10.92,4.32-1.09,28.19-7.47,36.34-11.74,1.84-1,10.09-4.83,9.41-7.42-.85-3.29-8.38.41-10.19.79C423.1,261.87,367.43,275.11,357.51,277.69Z"/><path class="cls-2" d="M442.86,265.06l-.68.35c-9.07,4.75-36.23,11.73-36.5,11.8-3.46.87-10.95,3.18-18.2,5.4-8.52,2.62-16.57,5.09-18.9,5.53-31.15,5.84-67.44,15.54-104.93,28.06l-.59-1.32c3.62-2,7.06-4.15,10.39-6.18,10.28-6.3,20-12.25,34.49-16.29,7.69-2.14,15.4-4.72,22.85-7.21,8.63-2.89,17.56-5.88,26.54-8.21l.18.7-.18-.7c9.35-2.44,65.42-15.79,83.59-19.57.34-.08,1-.31,1.76-.59,2.6-.93,6.17-2.21,8.1-1.2a2.38,2.38,0,0,1,1.19,1.52c.6,2.31-3.11,4.77-7.6,7.13ZM357.7,278.39c-8.94,2.33-17.84,5.31-26.45,8.19-7.47,2.5-15.19,5.08-22.92,7.23-14.3,4-23.93,9.88-34.13,16.13-1.46.9-3,1.81-4.48,2.72,35.23-11.49,69.19-20.44,98.59-26,2.25-.42,10.63-3,18.74-5.49,7.27-2.23,14.78-4.54,18.28-5.42,5.67-1.44,28.43-7.63,36.18-11.68l.69-.36c7.67-3.88,8.53-5.58,8.36-6.24a.86.86,0,0,0-.46-.6c-1.36-.72-5,.58-6.93,1.28a15.7,15.7,0,0,1-2,.64C423.07,262.62,367,276,357.7,278.39Z"/><path class="cls-1" d="M438.68,277.11c-21.51,5-40.91,10.14-62.33,15.48-7.68,1.91-15.37,3.86-22.83,6.51-16.5,5.84-52.81,28.79-54.15,31.65,35.93-10.81,74.14-24.72,111.42-35.28,4.88-1.39,9.76-2.82,14.57-4.42,6.54-2.17,12.94-4.71,19.34-7.25l15.53-6.18c2-.8,18.36-5.82,16.62-9.12-.67-1.29-18.23,4.58-20.66,5.14C451.06,274.84,443.81,275.91,438.68,277.11Z"/><path class="cls-2" d="M462.1,277.72c-.76.27-1.32.46-1.6.57q-7.77,3.1-15.53,6.18c-6.3,2.5-12.81,5.09-19.38,7.27-5.16,1.72-10.28,3.2-14.6,4.42-21,6-42.54,13-63.37,19.91-15.91,5.24-32.37,10.66-48,15.38l-1.56.47.7-1.48c1.64-3.5,39-26.54,54.56-32,7.31-2.59,14.7-4.49,22.89-6.53,7-1.74,13.79-3.46,20.5-5.17,14.07-3.57,27.36-6.94,41.84-10.31h0c2.58-.6,5.73-1.18,8.77-1.73s6.19-1.14,8.75-1.73c.59-.14,2.2-.63,4.23-1.25,15-4.56,16.68-4.59,17.24-3.53a1.84,1.84,0,0,1,.06,1.59c-.44,1.13-2,2.27-4.11,3.41A87.12,87.12,0,0,1,462.1,277.72Zm-1.41-4.64c-2.14.65-3.69,1.12-4.33,1.27-2.59.61-5.76,1.18-8.81,1.74s-6.16,1.13-8.71,1.72c-14.47,3.37-27.75,6.74-41.81,10.31-6.71,1.71-13.5,3.43-20.5,5.17-8.17,2-15.51,3.92-22.77,6.49-14.69,5.2-43.48,23.18-51.59,29.36,14.74-4.49,30.11-9.55,45-14.45,20.83-6.86,42.38-14,63.42-19.92,4.31-1.22,9.41-2.7,14.54-4.41,6.53-2.17,13-4.75,19.3-7.24Q452.2,280,460,276.94c.29-.11.87-.32,1.66-.59,3.37-1.17,13.64-4.71,14.59-7.13a1.08,1.08,0,0,0,.05-.19C474.36,268.91,464.84,271.81,460.69,273.08Z"/><path class="cls-1" d="M445.36,294.33c-14.54,3.18-28.57,8.33-42.54,13.46-32.46,11.93-66.42,21.53-92.24,46.34,18.65-3.7,39.57-14.78,57.78-20.28,43.93-13.28,80.87-27,123-42.22,1.94-.7,17.7-8.85,13.78-10.07-2.36-.73-18.88,4.49-22,5C470.78,288.63,457.57,291.66,445.36,294.33Z"/><path class="cls-2" d="M491.56,292.32,481,296.15c-37.13,13.49-72.2,26.23-112.45,38.39-7.41,2.25-15.13,5.36-23.31,8.65-11.52,4.65-23.44,9.45-34.53,11.65l-2.43.48,1.79-1.72c22.41-21.53,51.26-31.78,79.16-41.7,4.45-1.58,8.91-3.17,13.33-4.79,13.78-5.06,28-10.3,42.64-13.49l5.93-1.3c10.56-2.33,21.47-4.74,31.83-6.46,1-.17,3.51-.86,6.43-1.67,8.27-2.27,14.25-3.84,15.9-3.33a1.41,1.41,0,0,1,1.14,1.3c.05,2-6.06,5.64-10.47,8C493.53,291.4,491.62,292.3,491.56,292.32Zm13.31-10.07c-1.38-.42-10,1.94-15.09,3.35-3.07.84-5.5,1.51-6.57,1.69-10.32,1.72-21.22,4.12-31.75,6.44L445.52,295l-.16-.71.16.71c-14.52,3.17-28.72,8.39-42.45,13.43-4.43,1.63-8.88,3.21-13.34,4.8-27,9.59-54.83,19.49-76.74,39.6,10.22-2.36,21.14-6.76,31.72-11,8.2-3.3,16-6.43,23.44-8.69,40.2-12.15,75.26-24.88,112.37-38.37L491.07,291c2.28-.83,13.3-6.84,13.89-8.66Zm.17.08Z"/><path class="cls-1" d="M419,330.18c-8.84,3.28-66.76,25.79-87.12,31.09,7-2.34,21.18-4.16,28.44-5.69,27.88-5.89,98.19-23.4,111.4-27.28,17.13-5,33.76-10.81,49.56-19.13C525,307.24,533,301,532,295.29c-.74-4.53-35,11.78-50.23,17.24C458.45,320.9,430.75,325.82,419,330.18Z"/><path class="cls-2" d="M521.61,309.82c-17.4,9.16-35.7,15.06-49.7,19.18-13.44,3.95-84.38,21.57-111.45,27.29-2.47.52-5.74,1.08-9.21,1.67-5.11.87-10.73,1.82-15.17,2.89-1.46.43-2.81.81-4,1.13l-.42-1.4c1.18-.39,2.56-.77,4.07-1.13,19.16-5.65,58.17-20.5,75.53-27.11,3.49-1.33,6.1-2.32,7.5-2.84h0c5.07-1.88,13.08-3.86,22.36-6.16,12.09-3,27.14-6.72,40.45-11.49,4.52-1.62,10.71-4.2,17.27-6.93,18.18-7.56,30.31-12.4,33.15-10.82a1.49,1.49,0,0,1,.78,1.08c1,6.1-7.07,12.49-11.14,14.64Zm-102.37,21-7.48,2.84c-14.27,5.43-43.15,16.43-63.67,23.32l2.91-.5c3.46-.58,6.72-1.14,9.16-1.65,27-5.72,97.91-23.32,111.34-27.27,13.93-4.1,32.14-10,49.43-19.07h0c4-2.12,11.19-8.14,10.37-13.13-1.41-1.83-20.52,6.12-31.93,10.87-6.57,2.73-12.78,5.31-17.34,6.94-13.38,4.8-28.47,8.54-40.59,11.54-9.24,2.29-17.21,4.26-22.21,6.11Z"/><path class="cls-1" d="M513.3,325.49c-6.33,2.38-12.5,5.16-18.76,7.72s-12.31,4.76-18.5,7l-30.91,11.32L416.34,362.1c-15.08,5.53-30.21,11.06-45.86,14.67a582.58,582.58,0,0,0,110.75-21.89c4.76-1.43,9.49-2.92,14.12-4.7,6.83-2.62,13.4-5.86,20-9.1,10.48-5.17,33-14.92,38.66-22.84,1.83-2.55,5-9.21,3-9.82-3.56-1.1-11.74,4.84-14.82,6.17C532.42,318.79,523.25,321.76,513.3,325.49Z"/><path class="cls-2" d="M521.29,339c-2.1,1-4,1.92-5.66,2.72-6.46,3.19-13.15,6.49-20,9.13-4.79,1.84-9.64,3.36-14.17,4.72a583.26,583.26,0,0,1-110.89,21.91l-.23-1.43c15.63-3.6,30.95-9.21,45.77-14.64l59.7-21.86c6.08-2.23,12.37-4.53,18.47-7,2.27-.93,4.52-1.88,6.77-2.84,3.92-1.66,8-3.37,12-4.89l.25.68-.25-.68c3.21-1.21,6.34-2.33,9.44-3.45,6.59-2.37,12.82-4.6,19.41-7.44.81-.35,2-1.05,3.43-1.87,4-2.32,9-5.22,11.9-4.32a1.53,1.53,0,0,1,1,1c.77,2.3-2.31,8-3.67,9.92-3,4.23-10.7,8.94-18.79,13.2C530.77,334.49,525.61,337,521.29,339Zm24.77-25.7a39.49,39.49,0,0,1-3.58,1.94c-6.64,2.86-12.88,5.1-19.5,7.48-3.09,1.11-6.21,2.24-9.42,3.44-4,1.51-8.06,3.22-12,4.87-2.26,1-4.52,1.92-6.79,2.84-6.12,2.5-12.43,4.81-18.52,7l-59.7,21.87c-11.77,4.31-23.85,8.73-36.18,12.19A583.66,583.66,0,0,0,481,354.19c4.5-1.36,9.32-2.86,14.06-4.68,6.81-2.62,13.46-5.91,19.9-9.08,1.64-.81,3.57-1.73,5.68-2.73,11.16-5.32,28-13.35,32.71-19.89,2.2-3.06,4.08-8.17,3.42-8.69-1.54-.48-4.38.72-7.1,2.15C548.41,312,547.14,312.68,546.06,313.31Z"/><path class="cls-1" d="M446.89,382.56c-6.51,1.92-13,3.81-19.69,5.22-2.95.63-5.93,1.16-8.91,1.69l-20.73,3.72A374.86,374.86,0,0,0,482,388.44c5-.86,26-7.26,31.35-9.65,17.62-7.85,69.8-33.21,72-50.81.19-1.44-3.52-1.39-7.38.89-9.78,5.78-19.58,11.4-29.79,16.4-20.64,10.11-42.15,18.36-63.93,25.64C471.9,375.05,459.41,378.88,446.89,382.56Z"/><path class="cls-2" d="M513.64,379.46c-5.28,2.35-26.19,8.79-31.51,9.7a376.4,376.4,0,0,1-84.61,4.76l-6.16-.35,26.8-4.81c2.92-.52,5.94-1.07,8.89-1.69,6.56-1.4,13-3.26,19.64-5.2h0c14.44-4.26,26.31-8,37.35-11.65,24.53-8.2,45.42-16.57,63.85-25.6,10.45-5.12,20.47-10.89,29.74-16.37,3.06-1.81,6.42-2.48,7.82-1.56a1.41,1.41,0,0,1,.65,1.38c-1,7.8-11.27,17.75-30.58,29.59-6,3.67-12.15,7.1-17.9,10.13C526.64,373.57,517.21,377.87,513.64,379.46Zm64.73-50c-9.3,5.49-19.35,11.28-29.84,16.42-18.49,9.06-39.44,17.46-64,25.68-11.06,3.7-22.95,7.4-37.41,11.66h0c-6.64,2-13.14,3.82-19.75,5.23-3,.63-6,1.17-8.93,1.7L404,392.78a374.83,374.83,0,0,0,77.88-5.06c5.12-.87,26.09-7.33,31.17-9.59a391.89,391.89,0,0,0,41.71-21.71c18.64-11.43,29-21.3,29.92-28.49-.3-.35-2.63-.4-5.64,1.19Z"/><path class="cls-1" d="M572.08,353.78c-10.65,8.18-20,18-31.24,25.39-11.41,7.53-24.36,12.34-37.18,17.09-20.13,7.45-40.56,15-62,16.72a33.19,33.19,0,0,0-8.66,1.38c16.76,1,33.72,1.74,50.19-1.49a212.64,212.64,0,0,0,21.18-5.68c10.29-3.15,20.63-6.31,30.34-11a188.76,188.76,0,0,0,16.6-9.31c13.29-8.15,26.34-16.76,38.38-26.68,3-2.47,5.94-5,8.79-7.66,2.22-2.06,9.64-7.85,10.55-10.79,1.22-3.92-11.71-1.28-14.77-.3C586.2,344.08,578.81,348.62,572.08,353.78Z"/><path class="cls-2" d="M535.07,396.87c-9.78,4.7-20.28,7.91-30.44,11a211.28,211.28,0,0,1-21.25,5.7c-16.42,3.22-33.2,2.55-50.37,1.5l-3.49-.21,3.29-1.19a29,29,0,0,1,7.92-1.35l.92-.08c21.44-1.75,41.94-9.34,61.76-16.67,12.6-4.67,25.63-9.5,37-17,6.61-4.37,12.71-9.69,18.61-14.83,4.06-3.53,8.25-7.19,12.59-10.52,7.86-6,15.2-10.1,22.45-12.42,1.51-.49,12.75-3.28,15.25-.81a1.91,1.91,0,0,1,.43,2c-.72,2.33-4.57,5.78-8.8,9.4-.8.69-1.49,1.28-2,1.71-2.75,2.55-5.72,5.13-8.81,7.68-13.29,10.95-27.54,20-38.47,26.74-3.81,2.33-8.13,4.94-12.69,7.34C537.74,395.56,536.41,396.23,535.07,396.87Zm37.46-42.51c-4.31,3.31-8.48,6.95-12.52,10.47-5.94,5.17-12.07,10.52-18.77,14.94-11.54,7.62-24.65,12.47-37.33,17.17-19.91,7.37-40.5,15-62.14,16.76l-.93.07-2.14.19c15.12.81,29.93,1,44.4-1.8a212.13,212.13,0,0,0,21.11-5.67c10.1-3.09,20.55-6.28,30.23-10.93A185.62,185.62,0,0,0,551,386.29c10.89-6.68,25.09-15.73,38.3-26.62,3.07-2.53,6-5.1,8.75-7.63.47-.44,1.17-1,2-1.74,2.88-2.47,7.71-6.61,8.36-8.73.12-.37,0-.49-.07-.56-1.49-1.48-10.52.12-13.78,1.16a59,59,0,0,0-9.44,4A88.73,88.73,0,0,0,572.53,354.36Z"/><path class="cls-1" d="M518.79,417.69c-8,2.94-16,5.85-24.18,8.15a173.16,173.16,0,0,1-39.43,6.29,191.31,191.31,0,0,0,88.16-9.56,277.59,277.59,0,0,0,31-13.61c18-9,47.85-29.74,58.07-38.41,3.81-3.23,5.55-14.42.33-15-2-.21-14.75,10.34-19.81,13.62-14.71,9.56-28.24,16.54-43.74,24.78C560.32,398.71,526.09,415,518.79,417.69Z"/><path class="cls-2" d="M574.7,409.61a277.19,277.19,0,0,1-31.12,13.64,192.06,192.06,0,0,1-88.49,9.6l.06-1.44a172.79,172.79,0,0,0,39.26-6.27c8-2.25,15.67-5,24.13-8.13h0c7.28-2.68,41.47-18.9,50.34-23.67l4.57-2.42c13.9-7.37,25.9-13.73,39.12-22.31,1.77-1.16,4.51-3.22,7.41-5.41,7.66-5.78,11.42-8.48,12.87-8.33a4.13,4.13,0,0,1,3.52,3.2c1.22,4-.52,10.54-3.46,13-10.12,8.59-37.8,27.79-55.82,37.28Zm46.15-45.25c-2.92,2.2-5.68,4.28-7.49,5.46-13.27,8.63-25.3,15-39.23,22.38l-4.57,2.43c-8.89,4.75-43.2,21.06-50.52,23.75-8.49,3.12-16.18,5.89-24.23,8.16a174.42,174.42,0,0,1-31.14,5.75,190.63,190.63,0,0,0,79.42-10.41,274.34,274.34,0,0,0,31-13.57C591.83,399.4,621.44,378.92,632,370c2.48-2.1,4-8.11,3-11.49a2.71,2.71,0,0,0-2.27-2.19,2.76,2.76,0,0,0-1,.38C629.43,357.89,624.39,361.69,620.85,364.36Z"/><path class="cls-1" d="M618.67,405c-19.77,8-39.55,16-59.47,23.56q-47.66,18.19-96.33,33.57c31.53-.35,61.64-4.81,91.2-15.77,25.34-9.41,50.26-23.38,74.46-35.43,7.84-3.9,34.24-20.17,45.14-27.56-3.7.33-14.12,5.15-17.66,6.58l-12.44,5Z"/><path class="cls-2" d="M628.85,411.54c-5.91,2.95-12,6.07-17.87,9.09-18.42,9.46-37.47,19.25-56.66,26.37-27.67,10.26-57.58,15.44-91.44,15.82l-4.89.05,4.66-1.47c32.28-10.2,64.68-21.49,96.29-33.56,19.91-7.6,40-15.71,59.45-23.55l37.35-15.06c.75-.3,1.82-.76,3.07-1.3,4.69-2,11.77-5.06,14.8-5.32l2.78-.24-2.31,1.57c-10.7,7.24-35.08,22.27-44.06,27Zm30.53-22.27c-1.26.54-2.34,1-3.1,1.31l-37.34,15.06h0c-19.44,7.84-39.55,15.95-59.47,23.56-30.09,11.49-60.88,22.27-91.61,32.07,31.65-.81,59.82-5.94,86-15.63,19.11-7.09,38.12-16.86,56.5-26.3,5.89-3,12-6.15,17.89-9.1,7-3.5,29-17,41.46-25.11C666.38,386.26,662.24,388,659.38,389.27Z"/><path class="cls-1" d="M630.2,424.12c-34.58,16.93-77.08,39.12-106.73,43.43A171.86,171.86,0,0,0,500.13,473c7.9,1.05,15.92.27,23.81-.8a325.69,325.69,0,0,0,81.14-21.92c25.26-10.48,49.06-24.08,72.39-38.26,3-1.84,18-8.86,17.78-12-11,.33-25.81,8.2-35.93,12.22C648.56,416.52,640.6,419,630.2,424.12Z"/><path class="cls-2" d="M605.36,451a326.78,326.78,0,0,1-81.33,22c-7.71,1.05-16,1.87-24,.8l-3.42-.45,3.31-1a172.57,172.57,0,0,1,23.44-5.5c26.42-3.84,63-21.92,95.37-37.88,3.78-1.86,7.5-3.7,11.14-5.48h0c7.31-3.58,13.52-5.92,20.1-8.41,2.86-1.08,5.84-2.21,9.08-3.49,2.35-.94,5-2.08,7.72-3.29,9.32-4.09,19.87-8.73,28.45-9l.7,0,0,.7c.17,2.49-5.1,5.76-14.86,10.92-1.47.78-2.64,1.39-3.26,1.77-12.65,7.69-25.94,15.54-39.88,22.88C627.47,441.07,616.6,446.31,605.36,451Zm62-41.36c-2.77,1.21-5.39,2.36-7.77,3.31-3.24,1.29-6.22,2.41-9.1,3.5-6.55,2.47-12.73,4.81-20,8.35l-.32-.65.32.65-11.14,5.49c-32.41,16-69.16,34.14-95.8,38a153.07,153.07,0,0,0-19.57,4.4,102,102,0,0,0,19.83-1.17,325.22,325.22,0,0,0,81-21.87c26.08-10.82,50.16-24.76,72.29-38.21.67-.4,1.85-1,3.34-1.82,3.48-1.84,12.15-6.42,13.82-8.8C686.13,401.37,676.18,405.74,667.36,409.61Z"/><path class="cls-1" d="M538.16,490c8.51-.68,17-1.77,25.39-3.27,21.65-3.87,42.72-10.43,63.72-17,9.06-2.82,39.78-18.28,45.8-22s35.66-24.34,41-33.41c-3.68-.7-12.2,5.64-15.71,7.39q-8.54,4.26-17.13,8.41-17,8.22-34.25,16-34.47,15.54-69.7,29.27-9.74,3.79-19.51,7.44C554.4,484.06,541.13,489.72,538.16,490Z"/><path class="cls-2" d="M627.49,470.41c-20.69,6.44-42.09,13.11-63.81,17-8.4,1.5-17,2.61-25.46,3.29h0l-.12-1.45h0c2.15-.18,10.46-3.53,15.42-5.53,1.73-.7,3.16-1.28,4-1.59,6.52-2.43,13.08-4.93,19.5-7.43,23.37-9.11,46.8-18.95,69.67-29.26,11.41-5.15,22.93-10.52,34.24-16,5.69-2.75,11.45-5.58,17.11-8.41.92-.46,2.21-1.25,3.69-2.16,4.25-2.61,9.53-5.86,12.49-5.29l1,.19-.53.89c-5.53,9.37-35.55,30.13-41.25,33.66-1.27.78-3.72,2.13-6.86,3.79C655.22,458.11,634.67,468.17,627.49,470.41Zm75-50.29c-1.52.93-2.82,1.72-3.81,2.22-5.66,2.83-11.43,5.66-17.13,8.41-11.32,5.47-22.85,10.85-34.27,16-22.89,10.32-46.35,20.18-69.74,29.29-6.42,2.5-13,5-19.52,7.44-.82.31-2.24.88-3.95,1.57-3.23,1.3-6.34,2.55-9,3.53,6.13-.65,12.27-1.53,18.32-2.61,21.64-3.87,43-10.52,63.63-17,9.1-2.83,39.83-18.34,45.64-21.93,6.56-4,33.35-22.87,40-32C710,415.5,705.57,418.22,702.5,420.12Z"/><path class="cls-1" d="M666.92,466.19c-5.4,2.85-10.48,6.27-15.66,9.5-12.26,7.63-25.16,14.16-38,20.69-8.07,4.09-16.24,8.22-25.09,10.09a349.46,349.46,0,0,0,106.33-40.25c3.47-2,6.91-4.08,10.19-6.37a178.42,178.42,0,0,0,17.1-14.21c2-1.79,16.53-14.46,15.28-16.83-.68-1.29-15.91,8.93-18,10C702.32,447.1,671.62,463.7,666.92,466.19Z"/><path class="cls-2" d="M588.29,507.19l-.3-1.43c8.81-1.87,17-6,24.91-10,12.65-6.41,25.74-13.05,38-20.66,1.32-.82,2.64-1.66,4-2.49,3.79-2.41,7.71-4.9,11.76-7h0c.92-.48,2.85-1.52,5.47-2.92,10.78-5.78,33.22-17.8,46.66-24.49.56-.29,2.27-1.35,4.26-2.59,9.81-6.15,13-7.84,14.13-7.53a.93.93,0,0,1,.58.46c.74,1.4-.54,4.44-14.76,17.1l-.68.61a179.46,179.46,0,0,1-17.16,14.26c-3.51,2.46-7.15,4.62-10.24,6.41q-6.21,3.6-12.54,6.94A349.41,349.41,0,0,1,588.29,507.19Zm135.45-70.42c-2.18,1.36-3.75,2.35-4.38,2.66-13.43,6.68-35.84,18.69-46.62,24.47l-5.48,2.93c-4,2.11-7.89,4.58-11.66,7l-4,2.5C639.35,484,626.24,490.6,613.56,497c-3.85,2-7.75,3.93-11.77,5.67a347.58,347.58,0,0,0,92.32-37.1c3.07-1.78,6.67-3.93,10.14-6.35a179.82,179.82,0,0,0,17-14.15l.69-.61c11.79-10.51,14-13.92,14.39-15C734.26,430.19,727.25,434.57,723.74,436.77Z"/><path class="cls-1" d="M723.73,466a135.66,135.66,0,0,0-15,9,75.59,75.59,0,0,1-10.31,5.89c-3.14,1.42-6.59,2-9.78,3.28a35.74,35.74,0,0,0-8.18,4.64c-20.3,15.36-37.51,25.47-56.6,31.62q21.06-5.82,41.77-12.85c4.92-1.67,10-2.95,14.66-5.29,30.83-15.59,50.42-26.78,67.64-42.95,1.88-1.76,13.45-12.28,12.18-14.68-.68-1.29-9.89,5.26-11.25,6.2A235.14,235.14,0,0,1,723.73,466Z"/><path class="cls-2" d="M680.64,502.86a71.21,71.21,0,0,1-10.75,4c-1.34.43-2.68.85-4,1.3-13.75,4.67-27.82,9-41.81,12.86l-.41-1.39c18-5.81,34.87-15.23,56.38-31.51a36.48,36.48,0,0,1,8.34-4.73,46.87,46.87,0,0,1,4.57-1.5,39.67,39.67,0,0,0,5.19-1.77,74.82,74.82,0,0,0,10.2-5.83,136,136,0,0,1,15-9h0a235.84,235.84,0,0,0,25.08-15.14l.35-.24c8.39-5.85,10.4-6.43,11.27-6.22a1.06,1.06,0,0,1,.68.52c.72,1.36-.13,4.22-11.86,15.12l-.46.43c-14.29,13.42-30,23.32-53,35.47C690.8,497.68,685.89,500.2,680.64,502.86Zm69-51.73-.36.25a240.14,240.14,0,0,1-25.24,15.23,133.19,133.19,0,0,0-14.89,8.91,76,76,0,0,1-10.43,6,40.39,40.39,0,0,1-5.39,1.85,45.65,45.65,0,0,0-4.42,1.45,34.93,34.93,0,0,0-8,4.54c-15.55,11.76-28.69,20-41.6,25.84,8.76-2.63,17.49-5.42,26.1-8.34,1.34-.45,2.69-.88,4-1.3A70.08,70.08,0,0,0,680,501.56c31.41-15.87,50.46-26.86,67.47-42.83l.47-.43c10.19-9.48,11.49-12.35,11.59-13.13C758.79,445.34,756.53,446.33,749.66,451.13Z"/><path class="cls-1" d="M318.64,195.76c-41.84-10.82-42.39-15.46-76.43-17.24s-81,1-108.9,20.53c37.6-18.65,70.76-20.17,112.28-14.1A470.22,470.22,0,0,1,305,198c21.57,6.35,48.24,11.68,70.68,21.92,36.76,16.78,89.45,38.73,142.51,67.86,70,38.43,137,81.89,155.45,95.55,47,34.87,107.44,77.5,186.87,133.34,4.37-3.07,3.27-4.55,6.22-10,2.5-4.61-29.09-20.57-33.83-23.93q-25.75-18.19-51.61-36.25c-34.52-24-69.27-47.78-104.51-70.76-70.16-45.76-142.34-88.7-217.9-125C417,230.63,363.7,207.42,318.64,195.76Z"/><path class="cls-2" d="M860.12,517.26c-82.78-58.2-140.52-98.92-186.88-133.34-18.92-14.05-87-58-155.37-95.5-41.63-22.86-83.26-41.39-116.71-56.28-9.18-4.09-17.85-7.95-25.75-11.56-16.05-7.33-34-12.05-51.29-16.61-6.78-1.79-13.2-3.48-19.3-5.27a470.14,470.14,0,0,0-59.33-13c-38.75-5.67-72.6-5.45-111.86,14l-.74-1.25c13.13-9.17,44.78-24,109.35-20.66,22.72,1.19,30.86,3.73,45.63,8.35,7.55,2.36,16.93,5.29,30.95,8.92l-.18.7.18-.7c37,9.58,84.26,28.1,140.4,55.06,68,32.67,137.3,72.4,218,125,31.52,20.56,64.74,43.05,104.53,70.77,15,10.48,31.44,22,51.61,36.26,1.15.81,3.95,2.41,7.5,4.43,18.66,10.6,28.42,17,26.55,20.44a33.06,33.06,0,0,0-1.95,4.31,10.36,10.36,0,0,1-4.5,5.91l-.41.29Zm-614.42-333a473.45,473.45,0,0,1,59.54,13.07c6.08,1.79,12.48,3.48,19.25,5.27,17.39,4.57,35.36,9.31,51.52,16.69,7.9,3.6,16.57,7.46,25.75,11.55,33.47,14.9,75.13,33.45,116.81,56.34,71.72,39.38,137.7,82.36,155.53,95.6,46.28,34.35,103.88,75,186.43,133a8.88,8.88,0,0,0,3.57-4.94,34.43,34.43,0,0,1,2-4.49c1.54-2.83-18.46-14.2-26-18.48-3.59-2-6.42-3.65-7.63-4.5-20.17-14.26-36.56-25.78-51.6-36.25-39.78-27.72-73-50.2-104.5-70.75-80.63-52.6-149.84-92.3-217.81-124.94-56.07-26.92-103.22-45.41-140.15-55-14-3.64-23.45-6.58-31-8.94-15.14-4.73-22.74-7.11-45.27-8.29-47.07-2.46-76.47,4.8-93.91,12.42C181.59,178.8,211.79,179.27,245.7,184.23Z"/></g></g></g></svg>