<svg xmlns="http://www.w3.org/2000/svg" viewBox="0 0 962.01 653.31"><defs><style>.cls-1{fill:#748462;}.cls-1,.cls-2{stroke:#000;stroke-miterlimit:10;stroke-width:0.25px;}.cls-2{fill:#232323;}</style></defs><g id="Layer_2" data-name="Layer 2"><g id="plants"><g id="palm"><path class="cls-1" d="M263.31,31.39C282,20.34,305.83,6.87,327,2.05c-7.21,1.52-18.21,8-24.28,12.17-27,18.56-65.31,51.34-81.06,63.22-11.21,8.45-54.7,47.35-76.48,62.25-1.54,1.06,0,0-2-1.24C166.6,93.08,230.12,51,263.31,31.39Z"/><path class="cls-2" d="M142.19,138.74l.34-.66C166.76,91,234.78,47.29,262.89,30.69,283.88,18.3,306,6.21,325.94,1.47l.92-.22.35,1.6-.91.21c-7.37,1.88-17.87,8.24-23.09,11.83C285.48,27.09,263,45.34,244.89,60c-9.3,7.53-17.32,14-22.71,18.1-3.93,3-12.07,9.88-21.49,17.88-17.26,14.65-40.89,34.72-55,44.4-.71.48-1,.71-1.53.5a1,1,0,0,1-.56-.79c0-.21-.09-.51-.76-.94ZM263.72,32.1C235.85,48.55,168.61,91.73,144.3,138.22a3,3,0,0,1,.59.7c14.08-9.66,37.57-29.61,54.74-44.19,9.44-8,17.59-15,21.56-17.94,5.37-4.05,13.39-10.55,22.67-18.07C262,44.05,284.5,25.79,302.29,13.54c2.42-1.67,6-3.93,9.84-6.07-15.77,5.93-32.42,15.19-48.41,24.63Z"/><path class="cls-1" d="M268.8,63.58C303.7,41.33,345.29,16.39,392.05.93c-22.85,10.12-69.49,42.4-83.75,52.16-14.52,9.94-23.88,17.72-42.85,33-9.5,7.66-28.67,19.46-37.86,27.49-6.16,5.39-43,37.42-44.64,37.78a1.6,1.6,0,0,1-1.95-1.24c3.36-8.15,31.68-41.15,35.22-44.67A331.92,331.92,0,0,1,268.8,63.58Z"/><path class="cls-2" d="M180.21,150.29l-.06-.25.1-.24c3.45-8.39,32.42-42,35.39-44.94a332,332,0,0,1,52.72-42C305.46,39.23,346.09,15.26,391.79.16l.59,1.52C370.81,11.23,327.57,40.87,311.29,52l-2.53,1.74c-12.82,8.77-21.77,16-36.6,27.95l-6.19,5c-4.28,3.44-10.37,7.63-16.83,12.07-7.85,5.4-16,11-21,15.4-.43.37-42.94,37.5-45,38A2.38,2.38,0,0,1,180.21,150.29Zm89-86A329.6,329.6,0,0,0,216.8,106c-3.79,3.78-31.16,35.76-34.92,44.14a.71.71,0,0,0,.9.4c1.92-.9,32.05-26.9,44.27-37.59,5.12-4.48,13.28-10.09,21.17-15.52,6.43-4.42,12.5-8.59,16.72-12l6.19-5c14.86-12,23.83-19.22,36.71-28l2.53-1.74c13.81-9.46,47-32.21,70-44.79C339.66,21,303,42.75,269.24,64.27Z"/><path class="cls-1" d="M312.74,67.79c40-21.22,92.21-42.48,134.94-57.52-39.17,18.91-84.27,49.08-121.11,72.21-17.95,11.27-48.73,29.3-66,41.52-8.55,6-40.86,32-50.82,34.77C206.39,159.7,254.83,98.49,312.74,67.79Z"/><path class="cls-2" d="M208.79,159c-.86-3.85,48.65-62.79,103.57-91.91,35.3-18.71,85.79-40.23,135.05-57.57L448,11c-31.6,15.25-67.39,38.05-99,58.17-7.6,4.84-15,9.55-22.07,14-5.52,3.46-12.27,7.57-19.42,11.93C291.36,105,273,116.21,261,124.67c-2,1.4-5.23,3.85-9.32,7-13.53,10.26-34,25.75-41.75,27.93l-.7.2-.43-.72S208.79,159,208.79,159ZM313.13,68.51c-52.19,27.67-95.88,79.45-102,88.9,8.55-3.55,27.8-18.14,39.6-27.09,4.11-3.11,7.35-5.57,9.37-7,12-8.48,30.43-19.71,46.68-29.61,7.14-4.36,13.89-8.47,19.4-11.93,7.08-4.44,14.47-9.15,22.06-14,27.69-17.64,58.63-37.35,87.17-52.25C390.29,32,345.36,51.43,313.13,68.51Z"/><path class="cls-1" d="M513.24,19.07C442.93,41.46,406.46,73,377.07,91.3c-24.23,15.06-87.82,56.41-135.46,75.41,40.89-34.23,83.66-67.82,123.58-91.17,20.47-12,40.89-24,63-32.48C449.49,34.88,490.21,20.86,513.24,19.07Z"/><path class="cls-2" d="M237.17,169.36l3.91-3.28c34.91-29.21,80.51-66,123.69-91.24l.39-.23c20-11.71,40.71-23.81,62.77-32.31,26.15-10.07,64.17-22.4,85.25-24l7-.55-6.72,2.14C457.92,37.54,424.16,60.55,397,79.05c-6.89,4.69-13.4,9.13-19.53,12.94-2.69,1.67-5.86,3.66-9.43,5.91-29.27,18.4-83.73,52.65-126.16,69.57ZM505,20.93C483.38,24.46,451.4,35,428.52,43.83,406.58,52.27,385.94,64.34,366,76l-.39.22c-41.43,24.24-85.13,59.13-119.42,87.71,41.51-17.44,92.91-49.76,121-67.43,3.58-2.25,6.75-4.25,9.44-5.92,6.1-3.79,12.59-8.22,19.47-12.9C422,60.05,453.91,38.3,505,20.93Z"/><path class="cls-1" d="M571.22,24.79,518.05,49.3C492.85,60.92,467.13,80,442.8,93.36c-25.53,14-43.87,23-68.35,38.69-13.49,8.65-68.52,45.41-89.6,48.44,18.23-15.78,54.66-43.51,72.76-56.4,21.12-15,42.7-31.11,65.69-43.11s50.21-26.85,74.63-35.57C521,37.16,555.41,28.07,571.22,24.79Z"/><path class="cls-2" d="M282.21,181.7l2.1-1.83c18.52-16,54.9-43.68,72.83-56.45L364.8,118c18.61-13.33,37.85-27.12,58.12-37.69l8.38-4.4c21-11,44.78-23.52,66.35-31.22,23.64-8.44,57.82-17.42,73.4-20.65l7-1.45L518.39,50.05c-14.91,6.87-30.17,16.48-44.92,25.77-10,6.31-20.37,12.83-30.28,18.26-6.39,3.5-12.34,6.69-18,9.75C408,113,393.22,121,374.89,132.73l-4.44,2.88c-18.07,11.73-66.07,42.9-85.49,45.69ZM563.94,27.25c-17.23,4-45.75,11.79-65.74,18.93-21.46,7.66-45.2,20.13-66.14,31.13q-4.28,2.25-8.38,4.39c-20.17,10.53-39.36,24.28-57.93,37.57q-3.84,2.76-7.67,5.48c-17.16,12.23-51.26,38.12-70.33,54.33,20.67-5.15,64.71-33.74,81.81-44.84l4.45-2.88c18.38-11.8,33.2-19.76,50.37-29,5.7-3.06,11.64-6.24,18-9.74,9.86-5.41,20.19-11.92,30.18-18.21,14.81-9.32,30.11-19,45.12-25.88Z"/><path class="cls-1" d="M361.89,158.28C444.05,106.47,543,62.63,614.42,45c-20.89,11.36-47.12,24-67.6,33.51-24,11.12-48.12,21.83-72.18,32.75-23.51,10.66-47.87,27.76-70.94,39.34-19.18,9.63-67.29,36.14-88.19,39.76C325.3,184,352,164.53,361.89,158.28Z"/><path class="cls-2" d="M311.77,191.86l3.29-2.16c4.34-2.85,12-8.26,20.11-14,10.21-7.2,20.76-14.65,26.29-18.13,80.72-50.91,179.94-95.4,252.77-113.36l6.16-1.52-5.58,3c-23.32,12.68-52.39,26.45-67.64,33.53C531.31,86.63,515.1,93.93,499.43,101Q487.2,106.49,475,112c-13,5.9-26.47,13.89-39.5,21.62-10.38,6.17-21.13,12.54-31.42,17.71-3.35,1.69-7.59,3.89-12.42,6.39-23.35,12.12-58.63,30.44-76,33.45ZM362.33,159c-5.49,3.46-16,10.9-26.22,18.09-6.21,4.38-12.16,8.58-16.57,11.6,18.18-4.77,49.85-21.2,71.35-32.37,4.83-2.51,9.08-4.71,12.44-6.4,10.24-5.14,21-11.5,31.32-17.65,13.06-7.75,26.56-15.77,39.66-21.71q12.21-5.53,24.45-11c15.67-7,31.87-14.35,47.72-21.7,14-6.49,39.56-18.6,61.67-30.33C536.15,66.35,440.55,109.64,362.33,159Z"/><path class="cls-1" d="M571.11,81.94c26.43-10.21,40.32-12.82,82.37-18.15-50.32,17.53-91.07,40.67-139.79,62.29-24.09,10.69-46.55,23.77-71.37,32.66S364.05,198,339.08,198.51c33.46-22.53,99.52-57.18,130.09-72.1Q519.17,102,571.11,81.94Z"/><path class="cls-2" d="M336.31,199.39l2.31-1.55c35.17-23.68,102.9-58.84,130.2-72.16,33.24-16.22,67.56-31.2,102-44.5C597.09,71,611.21,68.33,653.38,63l7.72-1-7.35,2.56c-33,11.48-61.4,25.18-91.51,39.68-15.45,7.44-31.43,15.14-48.22,22.58-9,4-17.91,8.39-26.53,12.65-14.41,7.1-29.31,14.46-44.89,20-8.13,2.91-19.58,8.24-31.7,13.88-25.72,12-54.88,25.56-71.81,25.94ZM571.41,82.7C537,96,502.74,110.94,469.53,127.15c-26.62,13-91.74,46.77-127.47,70.35,16.93-1.73,44.06-14.36,68.15-25.59,12.16-5.66,23.64-11,31.84-13.94,15.49-5.55,30.35-12.88,44.72-20,8.63-4.26,17.56-8.67,26.59-12.67,16.76-7.44,32.73-15.13,48.17-22.56,28-13.47,54.49-26.24,84.55-37.21C609.78,70.29,595.89,73.24,571.41,82.7Z"/><path class="cls-1" d="M516.18,137.23c16.16-6.32,34.31-15,50.47-21.3C604.81,101,639.39,90.48,680.34,88.87c-74,24.9-103,41.14-153,60.93-24.77,9.81-39.85,15.88-64.46,26.1-12.75,5.3-73,33-91.56,32.15C420.38,180.37,477.84,152.24,516.18,137.23Z"/><path class="cls-2" d="M368.45,208.73l2.48-1.39c49.65-28,106.55-55.84,145-70.87,8.07-3.15,16.78-7,25.21-10.64s17.17-7.49,25.27-10.66c38.6-15.11,72.76-25.5,113.94-27.11l5.68-.23-5.38,1.82c-49,16.46-78.39,29.23-106.86,41.57-14.34,6.21-29.17,12.64-46.09,19.34-24.17,9.58-39.21,15.62-64.45,26.1-1.83.76-4.65,2-8.18,3.52-21.95,9.56-67.62,29.44-83.73,28.69Zm148-70.73c-37.6,14.71-93,41.7-141.86,69.14,18.18-1.65,60.86-20.23,79.75-28.45,3.54-1.55,6.37-2.78,8.21-3.54,25.24-10.49,40.29-16.53,64.47-26.11,16.9-6.69,31.71-13.11,46-19.32C600.5,117.84,628.81,105.57,674.52,90c-38.38,2.32-71,12.39-107.57,26.71-8.07,3.16-16.78,7-25.21,10.64s-17.17,7.5-25.26,10.67Z"/><path class="cls-1" d="M453.67,188.57C524,158,564.28,142.28,638.59,123.31a656,656,0,0,1,88.64-15.42c-55.25,11.37-108.51,30.39-161,50.66-18.75,7.23-149.69,64.52-169.36,58.87C413.67,210.32,443.6,193,453.67,188.57Z"/><path class="cls-2" d="M394.4,217.56l2.13-.89c9.7-4.1,23.63-11.54,35.91-18.1,8.92-4.77,16.63-8.89,20.9-10.75,68.35-29.72,108.89-45.85,185.05-65.3a654.87,654.87,0,0,1,88.76-15.44l.25,1.61C671.45,120.2,617,139.82,566.5,159.31c-3.14,1.21-9.34,3.79-17.92,7.36C504.66,185,413.26,223,396.62,218.2ZM454,189.32c-4.22,1.83-11.9,5.94-20.79,10.69-11.23,6-23.82,12.72-33.36,17,22.08.6,109.67-35.84,148.11-51.84,8.58-3.57,14.79-6.15,17.95-7.37,45.79-17.67,94.82-35.45,145.31-47.22a645.84,645.84,0,0,0-72.43,13.53C562.74,143.52,522.26,159.63,454,189.32Z"/><path class="cls-1" d="M749.49,125.33c-56.15,10.86-109.65,36.74-157.09,53.47-24.75,8.73-46.69,16.56-71.2,25.93-10.64,4.07-72.08,29.47-87.85,26.3,42.15-21.12,115.59-52.53,162-68C643.52,147.05,697.06,130.34,749.49,125.33Z"/><path class="cls-2" d="M430.87,231.36,433,230.3c40.24-20.17,113.66-51.9,162.1-68,47-15.63,101.62-32.74,154.32-37.77l.24,1.62c-39.46,7.62-77,22.45-113.31,36.78-15.23,6-29.61,11.69-43.67,16.65-27.5,9.7-48,17.05-71.18,25.92l-5.06,2c-18.85,7.44-68.92,27.23-83.24,24.35ZM733,128.11c-47.3,6.62-95.37,21.76-137.39,35.73C548.24,179.59,477,210.3,436.27,230.48c16.92.23,63.6-18.22,79.56-24.52,2.2-.87,3.94-1.56,5.08-2,23.23-8.88,43.7-16.24,71.22-25.94,14-4.95,28.39-10.62,43.61-16.63C667.08,149,699.34,136.29,733,128.11Z"/><path class="cls-1" d="M620.21,175.94c52.49-16.88,105.69-26.81,160.66-22.47-26.86,1.93-49.62,5.91-70,8.93-42.53,6.3-65.53,21.31-116.71,39.43-20.53,7.27-42.36,13.18-62.85,20.58-10.87,3.92-50.68,18.14-72.11,19.58,22.49-11.72,63.62-30.5,83.31-39C565.79,192.87,596.08,183.7,620.21,175.94Z"/><path class="cls-2" d="M455.4,243.06l3.45-1.8c21.71-11.3,62.36-29.94,83.37-39.06,19.82-8.6,44.68-16.51,66.61-23.48,3.81-1.22,7.54-2.4,11.13-3.56h0c60-19.29,111.13-26.44,161-22.5v1.63c-22,1.58-41.44,4.56-58.61,7.2-3.85.59-7.61,1.17-11.3,1.71-28.16,4.18-47.83,12.22-72.73,22.41-12.48,5.11-26.64,10.91-43.83,17-9.87,3.49-20.22,6.73-30.22,9.86-10.81,3.38-22,6.88-32.63,10.72-32.4,11.7-58.09,18.67-72.33,19.62Zm314.25-89.47c-46.14-2.09-93.89,5.34-149.19,23.13h0l-11.14,3.55c-21.89,7-46.71,14.86-66.45,23.43s-57.11,25.67-79.46,37.05c14.68-1.86,38.39-8.55,67.65-19.11,10.66-3.85,21.86-7.35,32.7-10.74,10-3.13,20.31-6.36,30.16-9.84,17.15-6.07,31.28-11.86,43.76-17,25-10.23,44.74-18.31,73.1-22.51l11.29-1.71C736.31,157.69,752.12,155.26,769.65,153.59Z"/><path class="cls-1" d="M651.05,194.16c52.52-13.36,89.1-13.19,149.43-6.55-27.69-.61-55.53-1.21-82.94,2.76-23.08,3.33-45.56,9.87-68,16.38-26.06,7.59-46.66,14.79-72.73,22.38-12.47,3.63-76.33,25.4-92.1,22.22,22.49-11.71,65.1-27.67,85.3-35.31C592.65,207.49,627.42,199.43,651.05,194.16Z"/><path class="cls-2" d="M482.32,251.7l2.05-1.07c21.52-11.21,61.2-26.21,82.52-34.27l2.87-1.08c21.77-8.24,54.77-16,81.1-21.91,53.79-13.68,91.13-13,149.71-6.57l-.11,1.63c-27.23-.6-55.38-1.22-82.8,2.74-23.07,3.34-45.84,10-67.85,16.37-13,3.79-24.88,7.55-36.35,11.18s-23.34,7.4-36.38,11.19c-2,.59-5.45,1.67-9.79,3-22.5,7.11-69.31,21.9-82.7,19.21Zm298.45-65.28c-47.66-4.38-82.22-3.5-129.52,8.53h0C625,200.82,592,208.6,570.34,216.8l-2.87,1.09c-20.51,7.75-58,21.94-79.92,33,15.75.62,58.2-12.79,79.25-19.44,4.34-1.38,7.77-2.46,9.82-3.06,13-3.79,24.88-7.54,36.35-11.18s23.34-7.4,36.39-11.19c22.06-6.42,44.88-13.06,68.06-16.41C738.38,186.53,759.73,186.16,780.77,186.42Z"/><path class="cls-1" d="M581.29,241.52c15-3.9,41.62-11.64,56.55-15.75,36.44-10,65.21-15.74,98.29-21.18s78.09-6.68,98.47,2.16c-15.32-2.61-46.31-.43-61.83.41-19.84,1.08-43.5,4.79-72.69,12.3-29,7.45-60.24,19.72-89.2,27.18-16.26,4.18-65.88,19.72-94.76,17.8C542.51,255.2,563.92,245.4,581.29,241.52Z"/><path class="cls-2" d="M512.08,265l3.77-1.32c9.52-3.34,18.24-6.68,26.67-9.92,14.72-5.65,27.43-10.53,38.58-13,9.36-2.44,23.55-6.46,36.06-10,7.65-2.16,14.88-4.21,20.46-5.74,37.74-10.38,66.62-16,98.38-21.21,33.8-5.56,78.63-6.58,98.93,2.22l6.2,2.69-6.67-1.13c-13.66-2.33-40.45-.79-56.45.12l-5.19.3c-21.21,1.15-44.94,5.17-72.54,12.27-14.45,3.72-29.75,8.73-44.54,13.57s-30.15,9.87-44.65,13.61c-2.48.63-5.73,1.54-9.57,2.6-21.26,5.89-60.84,16.86-85.46,15.22ZM827.27,205.1c-22.13-6-60.94-4.65-91,.29-31.7,5.22-60.53,10.81-98.2,21.17-5.59,1.54-12.81,3.58-20.45,5.75-12.53,3.54-26.73,7.56-36.11,10h0c-11,2.46-23.7,7.32-38.36,13-7.24,2.78-14.69,5.64-22.69,8.51,24.47.25,60.69-9.79,80.67-15.33,3.84-1.06,7.11-2,9.59-2.6,14.45-3.72,29.75-8.73,44.55-13.58s30.14-9.87,44.65-13.6c27.7-7.13,51.53-11.16,72.85-12.32l5.19-.3C791.45,205.28,812.64,204.06,827.27,205.1Z"/><path class="cls-1" d="M651.78,244.41c64.17-16.7,124.72-28,195.9-11.15-38.41-3.69-77,3.32-114.91,10.31-31.22,5.74-57.35,11.64-88.57,17.39-11.75,2.16-92.1,22.22-102.21,14.44C574.76,264.74,620.31,251.43,651.78,244.41Z"/><path class="cls-2" d="M540.27,275.1l1.47-.48c31.63-10.29,77.86-23.86,109.84-31,58.72-15.28,122.24-28.72,196.29-11.15l-.26,1.61c-38.59-3.71-77.28,3.41-114.69,10.29-15.6,2.87-30.18,5.83-44.27,8.69s-28.69,5.83-44.3,8.7c-2.05.38-6.35,1.34-11.8,2.55-13.36,3-33.55,7.48-51.88,10.53-22.54,3.76-35.35,4.15-39.18,1.2Zm296.26-43.43c-69-13.75-128.95-.94-184.55,13.53h0c-31.3,7-76.3,20.15-107.82,30.35,12.24,4.07,64.89-7.68,88.07-12.84,5.67-1.27,9.77-2.18,11.85-2.57,15.6-2.87,30.18-5.83,44.27-8.69s28.69-5.82,44.3-8.7C766.53,236.53,801.47,230.1,836.53,231.67Z"/><path class="cls-1" d="M874.66,265c-18.57.6-51.27-1.55-73.9-1.22q-37,.56-73.83,3.42a1065.45,1065.45,0,0,0-154.81,23.28C675.9,245.51,787.69,244,874.66,265Z"/><path class="cls-2" d="M571.8,289.68c93-40.23,203.41-49.53,303.05-25.52l5.88,1.42-6,.19c-9.58.31-22.73-.11-36.65-.55-12.93-.41-26.3-.83-37.27-.67-24.52.37-49.34,1.52-73.78,3.42A1060.12,1060.12,0,0,0,572.3,291.23ZM868,264.24c-94.66-21.34-198.47-12.84-287.32,23.47a1058.92,1058.92,0,0,1,146.17-21.37c24.48-1.91,49.34-3.06,73.89-3.42,11-.17,24.39.26,37.34.67C849,263.93,859.42,264.26,868,264.24Z"/><path class="cls-1" d="M771.42,276.08c49.07,2.44,80.09,2.49,119.15,19.66-64.4-6.78-111.88-14.16-174.24-4-23,3.73-54,5.36-82.19,6.63-4.91.22-32.24,5.52-39,5.35-5.6-.15,28.77-13.33,33.06-14.83C672,273.5,725.56,273.8,771.42,276.08Z"/><path class="cls-2" d="M593.76,303.67s0,0,0-.06c-.14-.86-.28-1.75,15.74-8.32,7.8-3.2,16.29-6.43,18.47-7.19,43.9-15.41,97.17-15.14,143.5-12.84l0,.82,0-.82q6.18.32,12,.58c43.07,2,71.53,3.36,107.44,19.15l4.8,2.11-5.21-.55c-7.33-.77-14.44-1.55-21.37-2.31-54.47-6-97.49-10.68-152.65-1.72-23.05,3.75-54.56,5.4-82.29,6.64-1.93.09-7.5,1-13.95,2-9.83,1.6-21,3.42-25.07,3.31C594.16,304.49,593.85,304.06,593.76,303.67Zm291.44-9.32c-33.33-13.66-61-15-101.83-16.88q-5.82-.27-12-.58h0c-46.17-2.29-99.24-2.57-142.88,12.75-5.52,1.94-26.38,10.11-31.92,13.21,4.83-.24,15-1.9,23.38-3.26,6.5-1.06,12.12-2,14.14-2.06,27.68-1.24,59.13-2.88,82.1-6.62,55.37-9,98.49-4.28,153.09,1.71Z"/><path class="cls-1" d="M732.82,298.08c18.77-.37,44.33,1,63.06,2.4,39.48,2.9,83,12.95,118.38,30.75-53.69-8.11-100.29-14.44-129.88-19.55-20.72-3.58-58.8-1.54-79.78-.13-10.5.7-21,1.59-31.45,2.58-6.51.61-57.22,4.84-56.89,1.59.53-5.13,55.78-12.5,62.49-13.14C699,300.65,712.53,298.48,732.82,298.08Z"/><path class="cls-2" d="M615.47,316a.88.88,0,0,1,0-.36c.67-6.56,62.6-13.81,63.22-13.87,5.58-.53,10.65-1.09,15.49-1.61,12.83-1.4,23.91-2.6,38.64-2.9,20.86-.41,48.51,1.33,63.14,2.41,42.73,3.14,86,14.37,118.68,30.83l4.58,2.3-5.06-.77c-19.75-3-38.94-5.78-55.88-8.25-29.67-4.33-55.3-8.07-74-11.3-15.07-2.6-41.85-2.64-79.58-.12-9.43.63-19.72,1.48-31.44,2.58-.54.05-54.15,4.94-57.42,1.64A1.22,1.22,0,0,1,615.47,316Zm117.35-17.92v.82c-14.65.29-25.7,1.49-38.5,2.88-4.85.53-9.92,1.08-15.5,1.61-13.78,1.33-58.82,8.29-61.64,12.17,4.17,1.73,41.3-.87,55.88-2.24,11.73-1.11,22-2,31.48-2.59,37.86-2.53,64.77-2.48,80,.14,18.69,3.23,44.31,7,74,11.3,15.42,2.25,32.73,4.77,50.62,7.46-31.89-15.09-72.83-25.36-113.3-28.33-14.6-1.08-42.19-2.81-63-2.4Z"/><path class="cls-1" d="M774.65,320.54c49.77,7,94,14.47,139.27,36.36a1204.32,1204.32,0,0,0-133-21.43C737,330.9,669.42,329,639.3,329c3-9,53.5-13.75,65.24-13.88C725.87,314.87,753.57,317.57,774.65,320.54Z"/><path class="cls-2" d="M638.17,329.81l.36-1.08c3.33-10,55.58-14.32,66-14.44,18.37-.2,44.63,1.83,70.23,5.44l-.11.81.11-.81c49.58,7,94.3,14.56,139.52,36.43l6.23,3-6.76-1.49a1208.48,1208.48,0,0,0-132.88-21.4c-42.87-4.47-109.82-6.51-141.57-6.48Zm268.88,24.77c-42.81-19.44-85.46-26.59-132.52-33.23-25.53-3.6-51.69-5.63-70-5.43-13.87.16-57.58,4.84-63.84,12.25,32.31,0,98,2.08,140.33,6.49A1208.78,1208.78,0,0,1,907.05,354.58Z"/><path class="cls-1" d="M942.83,391.79c-18.43-7.6-45-14.62-57.41-17.31-22.86-4.94-63.08-12.7-98.35-18.07-29-4.42-62.31-5.88-91.59-8.16-4.92-.38-33.66-.86-31.54-6.35,2-5.23,43.35-5.77,48.89-5.89,50-1.11,102.82,8.39,149.19,23.61,12.92,4.24,18.09,4.34,30.56,9.77C899.36,372.34,939,385.13,942.83,391.79Z"/><path class="cls-2" d="M663.06,342.94a2.27,2.27,0,0,1,.12-1.33c.52-1.36,2.11-5.48,48.56-6.39l1.07,0c46.76-1,99.84,7.37,149.47,23.65,4.88,1.6,8.57,2.59,12.13,3.55a114,114,0,0,1,18.49,6.25c1.56.68,5,1.91,9.23,3.46,19.4,7,38.58,14.34,41.41,19.28l1.19,2.07-2.21-.91c-18.14-7.48-44.76-14.56-57.27-17.26-24.11-5.21-63.86-12.82-98.3-18.06-21.73-3.31-45.72-5-68.91-6.54-7.7-.53-15.29-1.05-22.62-1.62-.68-.05-1.82-.1-3.27-.17-13.61-.65-26.51-1.73-28.75-5.17A2.24,2.24,0,0,1,663.06,342.94Zm275.79,46.39c-7.74-5-26.38-11.74-37.28-15.69-4.31-1.57-7.71-2.8-9.32-3.5A112.56,112.56,0,0,0,874,364c-3.42-.91-7.3-1.95-12.22-3.57-49.46-16.23-102.34-24.59-148.92-23.56l-1.08,0c-42.08.82-46.67,4.3-47.07,5.35a.65.65,0,0,0,.06.63c2.1,3.21,20.53,4.09,27.47,4.43,1.47.07,2.62.12,3.31.18,7.33.57,14.91,1.08,22.61,1.61,23.23,1.59,47.25,3.23,69,6.55,34.48,5.25,74.27,12.86,98.4,18.08C897.21,376.19,920.92,382.46,938.85,389.33Z"/><path class="cls-1" d="M791.11,363.17c9.42,1.19,24.69,3.92,33.92,6.15,10.08,2.44,24,5.21,32.58,8,30.24,9.85,61.31,19.79,82.38,31.92-24.43-4.69-53.67-15.14-81.11-20.19-28.1-5.17-49.53-11.28-77.63-16.45-14-2.58-31.31-5.7-45.36-8.28-7.12-1.31-32.43-2.81-48.2-6,19.84-1.08,42.19-1.68,55.93-.52C759.49,359.18,775.3,361.18,791.11,363.17Z"/><path class="cls-2" d="M681.24,357.89l6.41-.35c14.11-.77,40.16-1.86,56-.51s32,3.37,47.52,5.33l-.1.81.1-.81c9.75,1.23,25,4,34,6.17,3,.73,6.35,1.48,9.79,2.26,8.24,1.87,16.77,3.79,22.84,5.77l3,1c29.06,9.46,59.12,19.24,79.56,31l4.22,2.42-4.78-.91c-11.61-2.24-24.11-5.71-37.34-9.39-14.43-4-29.36-8.16-43.76-10.81-14.06-2.59-26.66-5.45-38.84-8.23s-24.76-5.63-38.79-8.21c-7-1.3-14.85-2.72-22.68-4.15l-22.68-4.14c-2.67-.49-8.11-1-14.4-1.65-10.69-1.05-24-2.36-33.81-4.33Zm253.63,49.49c-20.07-10.57-47.73-19.57-74.54-28.3l-3-1c-6-1.95-14.48-3.87-22.69-5.73-3.45-.78-6.81-1.53-9.82-2.26-9-2.16-24.13-4.92-33.84-6.14-15.52-2-31.58-4-47.45-5.33-13.34-1.13-34-.52-48.53.15,8.51,1.3,18.27,2.26,26.48,3.07,6.59.65,11.8,1.16,14.53,1.66,7,1.3,14.86,2.72,22.68,4.15l22.68,4.14c14.07,2.59,26.67,5.46,38.86,8.23S845,385.68,859,388.26c14.47,2.67,29.43,6.83,43.9,10.85C914.14,402.22,924.83,405.2,934.87,407.38Z"/><path class="cls-1" d="M782.73,378.79c19.93,4.9,39.67,10.51,59.41,16.12l24.62,7c18.69,5.31,30.58,8.53,48.46,16.13,8.52,3.63,23.87,10,30.17,16.8-47.2-18.32-74.46-20.3-139-39.38-8.48-2.5-17.76-3.89-26.4-5.82-7.26-1.62-20.86-3.36-28-5.47-7.58-2.24-29.95-6.7-42.18-9-3.59-.68,13.19-3.23,19.67-3.56C747.48,370.69,765.4,374.53,782.73,378.79Z"/><path class="cls-2" d="M708.56,375.14a.82.82,0,0,1,0-.27c.16-2.36,20.73-4.06,20.94-4.08,18.44-.94,37.26,3.23,53.45,7.21h0c20,4.91,40,10.61,59.44,16.12L870.08,402c17.18,4.87,28.54,8.09,45.46,15.29l.84.36c8.75,3.72,23.4,9.94,29.61,16.63l2.41,2.6-3.31-1.28c-27.78-10.79-48.32-15.82-74.32-22.19-17.85-4.37-38.09-9.33-64.58-17.16-5.52-1.64-11.48-2.81-17.23-3.94-3-.59-6.13-1.21-9.12-1.87s-6.7-1.3-10.78-2c-6.35-1.09-12.91-2.21-17.27-3.49-7.36-2.18-29.2-6.57-42.09-9C708.92,375.82,708.63,375.48,708.56,375.14Zm74,4.44c-16.82-4.13-34.76-8.09-53-7.15a143.79,143.79,0,0,0-17.33,2.35c13.07,2.49,33,6.53,40,8.6a173.26,173.26,0,0,0,17.08,3.45c4.09.7,8,1.36,10.86,2s6.07,1.28,9.07,1.87c5.8,1.14,11.79,2.31,17.39,4,26.44,7.82,46.66,12.78,64.5,17.15,24.75,6.06,44.56,10.91,70.37,20.66-7-5.34-18.47-10.23-25.78-13.34l-.85-.36c-16.82-7.15-28.14-10.36-45.27-15.22l-27.71-7.87c-19.4-5.51-39.46-11.2-59.38-16.11Z"/><path class="cls-1" d="M772.76,394.6c64.18,14.26,126.85,27.3,182.19,62.78-67.66-23.12-134.86-38.2-187.5-56.58-4-1.38-41.81-7.4-41.29-12.54C726.16,388.26,766.57,393.22,772.76,394.6Z"/><path class="cls-2" d="M725.39,388.76a1.63,1.63,0,0,1,0-.58l.09-.83.82.1c1.65.2,40.52,5,46.68,6.35l6.82,1.52c62.81,13.92,122.13,27.07,175.63,61.38l5.68,3.64-6.38-2.18c-35-12-69.33-21.62-102.57-31-30.59-8.6-59.49-16.73-84.94-25.62-.93-.32-4.06-1-8-1.77C738.05,395.47,726.19,392.37,725.39,388.76Zm223.18,65.61C896.86,423,839.75,410.29,779.41,396.91l-6.83-1.51c-5.42-1.21-37.87-5.26-45.09-6.15,3.55,3.12,24.62,7.43,32,8.95,4.18.85,7.19,1.47,8.23,1.83,25.41,8.87,54.28,17,84.84,25.59C883.71,434.38,915.86,443.43,948.57,454.37Z"/><path class="cls-1" d="M776.68,412.13c26.81,8.35,52.16,13.37,78.68,22.61,8,2.8,18.5,7.56,26.36,10.81,20.88,8.64,47,18,67.22,33.57-27.47-10.6-75.71-25.7-103.32-35.51-29.2-10.38-45.19-15-67.17-23.51-3.67-1.42-31.85-7.74-33.31-14.32C744.78,404.19,772.5,410.83,776.68,412.13Z"/><path class="cls-2" d="M744.34,406l-.1-.46.38-.43c1.91-1.77,32,6.19,32.3,6.28h0c11.47,3.57,22.85,6.58,33.84,9.48,14.6,3.86,29.68,7.85,44.86,13.14,5.68,2,12.68,5,18.87,7.63,2.65,1.14,5.21,2.23,7.54,3.2q4.38,1.8,9,3.68c19.17,7.75,40.89,16.54,58.36,30l4.47,3.43-5.26-2c-16.58-6.41-40.37-14.33-63.38-22-14.91-5-29-9.65-39.91-13.53-12.07-4.29-22-7.64-30.78-10.6-12.61-4.26-23.5-7.93-36.41-12.91-.7-.28-2.47-.77-4.71-1.39C760,415.71,745.52,411.25,744.34,406Zm199.25,70.27C927.21,464.86,907.78,457,890.46,450c-3.1-1.25-6.13-2.47-9.05-3.69-2.34-1-4.9-2.06-7.57-3.2-6.16-2.64-13.14-5.63-18.75-7.59-15.12-5.27-30.18-9.25-44.74-13.1-11-2.91-22.41-5.92-33.92-9.5h0c-4.35-1.35-25.69-6.37-30.2-6.56,2.68,4.56,20,9.42,27.66,11.55,2.37.66,4.08,1.14,4.86,1.44,12.88,5,23.75,8.64,36.34,12.89,8.78,3,18.73,6.31,30.8,10.61,10.92,3.88,25,8.56,39.88,13.52C906.31,463.19,927.46,470.23,943.59,476.23Z"/><path class="cls-1" d="M949.85,505.7c-23.93-9.73-56-21.3-78.87-30.94-23.72-10-37.18-17.11-61.14-26.52-4.28-1.67-43.56-15.21-45.38-23.34-.71-3.19,38.3,10.12,43.77,12.07,22.8,8.14,48.71,17.24,70.54,27.69C902.92,476.22,927.18,491.44,949.85,505.7Z"/><path class="cls-2" d="M763.67,425.08A1.08,1.08,0,0,1,764,424c2.89-2.55,44.08,12.07,44.5,12.21l3.51,1.26c21.73,7.75,46.35,16.53,67.1,26.46,24.43,11.7,49.26,27.31,71.16,41.09l-.74,1.44c-10.6-4.3-23.06-9.07-35.11-13.69-15.26-5.84-31-11.88-43.77-17.24-9.87-4.17-17.95-7.82-25.78-11.36-11-5-21.36-9.67-35.34-15.15-.46-.18-1.31-.5-2.47-.92C789.18,441.51,765.2,432,763.67,425.08Zm178.09,76.5c-19.91-12.48-41.8-25.87-63.35-36.18-20.67-9.9-45.25-18.67-66.94-26.4L808,437.74c-10.38-3.7-38.14-12.8-42.55-12.54,1.37,3.26,10.1,9.55,42.22,21.35l2.51.93c14,5.51,24.41,10.21,35.42,15.19,7.81,3.53,15.89,7.19,25.74,11.34,12.7,5.36,28.47,11.39,43.71,17.23C924,494.68,933.24,498.22,941.76,501.58Z"/><path class="cls-1" d="M939.66,527.28c-43-19.76-70.09-36.47-111-54.78-4.12-1.84-52.42-24.91-53.89-31.49-.71-3.19,48.93,17.78,54.21,20.25A638.17,638.17,0,0,1,901,500.72Q920.83,513.29,939.66,527.28Z"/><path class="cls-2" d="M774,441.19a1,1,0,0,1,.35-1c.65-.52,1.75-1.4,26.77,8.57,12.35,4.92,25.48,10.52,28.22,11.8A640.62,640.62,0,0,1,901.48,500c13.18,8.37,26.19,17.32,38.66,26.6l6.27,4.66L939.32,528c-20.68-9.52-37.78-18.37-54.32-26.93-18.24-9.44-35.46-18.36-56.7-27.86C827.78,473,775.61,448.61,774,441.19Zm158.55,81.86c-10.39-7.51-21.09-14.77-31.91-21.64a638.16,638.16,0,0,0-72-39.41c-6.35-3-46.29-19.66-52.75-20.48,4,6.26,42.92,25.67,53.11,30.23,21.28,9.52,38.52,18.45,56.78,27.9C900.24,507.15,915.15,514.86,932.51,523.05Z"/><path class="cls-1" d="M865.65,497.12a232.18,232.18,0,0,1,25.74,16.6c6.34,4.77,37.4,25.13,43.51,34.61L815.41,478.09c-3.38-2-29.66-17.78-30.37-21-1-4.56,29.9,13.62,33.08,15.27Z"/><path class="cls-2" d="M784.25,457.3a1.31,1.31,0,0,1,.46-1.42c1.53-1.14,7.17.8,30.49,13.95,1.62.92,2.8,1.58,3.29,1.84L866,496.4a230.69,230.69,0,0,1,25.85,16.67c1.28,1,3.57,2.56,6.48,4.59,11.28,7.88,32.27,22.53,37.23,30.23l1.86,2.88L815,478.79C814.7,478.62,785.11,461.19,784.25,457.3Zm81,40.55-47.53-24.73-3.35-1.87c-16.52-9.32-26.08-14.05-28.43-14.07,1.79,2.91,20.37,14.62,29.86,20.2L931.36,545.3c-7.53-7.86-24.3-19.57-33.93-26.3-2.92-2-5.23-3.65-6.53-4.63a232.46,232.46,0,0,0-25.63-16.52Z"/><path class="cls-1" d="M862,516.94c35.1,22.29,57.58,50.49,67.38,61.94-8.2-6.82-19-14.32-27.15-21.15-21.72-18.07-25.33-19-51.39-38.3-7.89-5.85-32.08-24.28-40-30.12-5.16-3.81-16.74-14.12-15.85-17.67C795,471.64,845.34,506.36,862,516.94Z"/><path class="cls-2" d="M794.21,472.79a2.91,2.91,0,0,1,0-1.34l.29-1.15,1,.67c.5.35,50.54,34.83,67,45.28,32.46,20.61,54.46,46.62,65,59.12.92,1.09,1.76,2.09,2.53,3l-1.14,1.16c-4.09-3.4-8.9-7-13.55-10.55s-9.49-7.18-13.61-10.6c-13.74-11.44-20.11-15.93-29.75-22.72-5.65-4-12-8.49-21.59-15.56-3.88-2.87-11.85-8.9-19.56-14.73-8.07-6.1-16.41-12.41-20.44-15.39C810.18,489.85,795.5,478.58,794.21,472.79ZM923.3,573c-11.38-13.34-32.23-36.62-61.75-55.37-14.8-9.4-56.71-38.21-65.44-44.21,1.78,3.7,9.5,11,15.2,15.23,4,3,12.38,9.29,20.45,15.4,7.71,5.83,15.68,11.85,19.55,14.72,9.53,7.05,15.92,11.56,21.56,15.53,9.68,6.82,16.07,11.32,29.86,22.8,4.08,3.4,8.89,7,13.54,10.55C918.61,569.42,921,571.22,923.3,573Z"/><path class="cls-1" d="M871.58,544.92c13.12,13.81,30.47,26.19,42.82,53.75-34.94-34.43-75.26-71.61-107.71-104.54-2.49-2.52-8.51-8.14-7.27-10.09,4.65.85,11.07,7.68,15,10.56,5.05,3.72,10,7.62,14.82,11.61C838.51,513.87,863.27,536.19,871.58,544.92Z"/><path class="cls-2" d="M798.51,485.27a2.12,2.12,0,0,1,.22-1.67l.29-.46.54.1c3.55.65,7.79,4.32,11.52,7.55,1.4,1.21,2.71,2.35,3.79,3.15,4.72,3.48,9.58,7.29,14.86,11.64,9.24,7.61,34.17,30.08,42.44,38.78,2.81,3,5.8,5.83,9,8.87,11.38,10.94,24.27,23.34,34,45.1l1.78,4-3.1-3C899,584.69,883.06,569.39,867.6,554.6c-21-20.1-42.77-40.89-61.49-59.89l-.91-.91C801.84,490.45,799,487.44,798.51,485.27ZM911.72,594.89c-9.36-19-21.2-30.36-31.73-40.49-3.17-3-6.17-5.93-9-8.92-8.23-8.66-33.08-31.05-42.29-38.64-5.25-4.33-10.09-8.12-14.79-11.58-1.13-.84-2.47-2-3.89-3.23-3.11-2.7-6.92-6-9.93-7,.31,1.21,2.42,3.75,6.28,7.59l.91.92c18.71,19,40.44,39.77,61.45,59.86C883.06,567.14,897.85,581.29,911.72,594.89Z"/><path class="cls-1" d="M860.2,565.26c3.66,6.12,28.08,39.52,33.59,56.7-3.61-4.05-9.76-11.63-13.36-15.68-3.86-4.34-30.43-39.06-34.45-44.62L814.1,517.52c-5.13-7.11-10.29-14.25-14.33-22,.77-.47,1.76.06,2.49.58C812.32,503.25,856.5,559.05,860.2,565.26Z"/><path class="cls-2" d="M798.7,495.19l.64-.4c1.37-.83,2.9.26,3.4.62,10.18,7.26,54.3,62.95,58.16,69.43h0c.8,1.34,2.68,4.1,5.05,7.6,8.49,12.51,24.3,35.8,28.62,49.28l1.18,3.67-2.57-2.88c-1.81-2-4.29-5-6.68-7.85s-4.88-5.82-6.68-7.84c-3.91-4.4-30.37-39-34.5-44.68L813.44,518c-5.07-7-10.32-14.28-14.39-22.13Zm60.8,70.48c-3.74-6.27-48-62-57.71-68.93a4.42,4.42,0,0,0-.65-.4c3.93,7.28,8.85,14.1,13.62,20.7l31.89,44.15c3.74,5.17,30.54,40.22,34.39,44.54,1.81,2,4.3,5,6.71,7.88l3.66,4.36c-5.71-13.53-19.21-33.41-26.81-44.61-2.48-3.66-4.27-6.31-5.1-7.69Z"/><path class="cls-1" d="M841.31,581.8c1.69,5.25,14.75,41.78,16.47,49.15a87.46,87.46,0,0,1,2.59,15.11c-1.59-5-8.83-14.36-10.69-19.27-4.08-10.81-9-24.47-16.23-39-2.28-4.58-11.38-23.63-13.12-28.81q-5-14.79-9.87-29.62l-7.55-22.79C807.41,512.38,835.81,564.62,841.31,581.8Z"/><path class="cls-2" d="M800.62,502.25l2.93,3.79c4.47,5.78,33,58.12,38.54,75.51h0c.49,1.52,1.95,5.73,3.81,11.06,4.55,13.1,11.44,32.89,12.67,38.16A85.88,85.88,0,0,1,861.18,646l.33,6.32-1.92-6c-.81-2.55-3.22-6.4-5.55-10.12a62.3,62.3,0,0,1-5.12-9.11l-1.43-3.8a364.7,364.7,0,0,0-14.77-35.16c-2.48-5-11.42-23.71-13.16-28.91q-5-14.76-9.85-29.56Zm39.92,79.8c-4.7-14.66-25.78-54.29-34.77-69.48l5.47,16.5q4.93,14.88,9.86,29.62c1.73,5.14,10.91,24.34,13.08,28.7A364.66,364.66,0,0,1,849,622.7l1.42,3.8a63.79,63.79,0,0,0,5,8.83c1.28,2,2.58,4.11,3.65,6-.51-3.45-1.31-6.87-2.09-10.21-1.21-5.18-8.08-24.93-12.63-38-1.85-5.34-3.32-9.55-3.81-11.09Z"/><path class="cls-1" d="M814.56,603.74c-3.74-9.92-2.83-20.9-3.89-31.45a164.57,164.57,0,0,0-3.42-19c-1.71-7.79-2.89-17-4.6-24.74-1.81-8.22-4.16-15.22-3.36-23.61a104.74,104.74,0,0,1,10.36,25.17c1.25,4.7,2.16,9.48,3.08,14.26C816.62,564.56,818.4,583.2,814.56,603.74Z"/><path class="cls-2" d="M812.17,598.52a96.83,96.83,0,0,1-1.72-16.7c-.14-3.11-.28-6.33-.59-9.45a166.8,166.8,0,0,0-3.41-19c-.86-3.91-1.59-8.23-2.31-12.4s-1.44-8.46-2.29-12.33c-.34-1.58-.72-3.12-1.08-4.63-1.52-6.34-2.95-12.33-2.29-19.24l.24-2.55,1.28,2.23a105.35,105.35,0,0,1,10.44,25.36c1.25,4.74,2.19,9.6,3.09,14.31,3.42,17.82,6,37.39,1.83,59.73l-.53,2.87-1-2.73A40.94,40.94,0,0,1,812.17,598.52Zm-8.82-70.62.09.43c.86,3.91,1.6,8.23,2.31,12.4s1.45,8.46,2.3,12.33a168.12,168.12,0,0,1,3.43,19.15c.32,3.16.46,6.4.6,9.54.28,6.22.56,12.63,2.24,18.62,3.31-20.75.83-39.1-2.39-55.9-.9-4.68-1.83-9.52-3.07-14.2A103.7,103.7,0,0,0,800,507.76c-.08,5.52,1.14,10.59,2.41,15.91C802.69,525.05,803,526.46,803.35,527.9Z"/><path class="cls-1" d="M793.42,517.17a224.46,224.46,0,0,1,2.31,42.71c-.37,6.51,1.34,14.87-1.54,20.72-1.84-12.45-5.81-26.53-7.65-39-.89-6-1.78-12-2.56-18-2-15.25-3.27-30.58-4.56-45.9-.33-3.85-3.32-23.43-2.53-27.13,3.51.67,5.4,20.66,6.07,23.4,1.25,5.15,2.78,10.23,4.33,15.3A173,173,0,0,1,793.42,517.17Z"/><path class="cls-2" d="M793.76,583.31l-.38-2.59c-.92-6.2-2.39-12.93-3.82-19.43s-2.91-13.3-3.83-19.55c-.89-6-1.78-12-2.56-18-2-15.26-3.29-30.85-4.57-45.93-.08-1-.36-3.17-.71-5.89-1.27-9.83-2.36-18.86-1.8-21.48l.17-.79.78.16c2.77.53,4.33,7.79,6.1,20.14.27,1.85.47,3.29.61,3.87,1.23,5.06,2.74,10.1,4.32,15.25a174.9,174.9,0,0,1,6.16,28,223.19,223.19,0,0,1,2.31,42.87c-.11,2,0,4.1.06,6.35.2,5.14.41,10.46-1.68,14.69ZM777.57,452.19c-.05,4.06,1.17,13.52,1.94,19.49.35,2.74.63,4.9.72,6,1.27,15.06,2.59,30.63,4.56,45.86.78,6,1.67,12,2.54,17.87.93,6.33,2.41,13.06,3.83,19.57,1.19,5.43,2.42,11,3.33,16.35.78-3.33.63-7.19.48-10.95-.09-2.29-.17-4.46-.06-6.51a222,222,0,0,0-2.29-42.53,174.58,174.58,0,0,0-6.11-27.78c-1.59-5.17-3.11-10.24-4.35-15.35-.17-.63-.36-2.06-.64-4C780.11,460.28,778.79,454.26,777.57,452.19Z"/><path class="cls-1" d="M771.55,469.79a140.37,140.37,0,0,1,2.06,17.35c1,16.15.57,32.35.1,48.53a35.62,35.62,0,0,1-1.17,7.92c-4.26-11.18-3.85-27.1-5.35-39-1.08-8.52-2.84-15.46-4.75-23.84-2.4-10.54-5.69-21.34-7.7-31.95-1-5.31-1.54-9.21-3.2-14.35-1.26-3.89-6.39-16.79-6.22-20.37,6.45,5.75,13.22,21,17,28.68A108.18,108.18,0,0,1,771.55,469.79Z"/><path class="cls-2" d="M769.87,537.38c-1.46-6.52-2-13.83-2.47-21-.29-4.17-.56-8.1-1-11.7a191.62,191.62,0,0,0-3.9-20.14l-.83-3.61c-1-4.19-2.08-8.51-3.16-12.68-1.64-6.34-3.34-12.9-4.55-19.31-.2-1-.37-2-.54-2.94a83.05,83.05,0,0,0-2.64-11.31c-.3-.94-.83-2.41-1.46-4.14-2.6-7.19-4.93-13.86-4.8-16.52l.09-1.71,1.27,1.14c5.75,5.12,11.68,17.49,15.61,25.67.57,1.19,1.1,2.29,1.58,3.27a108.79,108.79,0,0,1,9.3,27.2h0a137.9,137.9,0,0,1,2.07,17.45c1.05,16.19.57,32.67.11,48.6a36.07,36.07,0,0,1-1.2,8.1l-.63,2.52-.92-2.43A45.54,45.54,0,0,1,769.87,537.38Zm-4.56-47.74c1.09,4.85,2,9.52,2.69,14.88.46,3.64.74,7.6,1,11.78.59,8.4,1.2,17.06,3.34,24.24a31.05,31.05,0,0,0,.53-4.89c.46-15.9.94-32.34-.11-48.46a136.49,136.49,0,0,0-2-17.24h0a107.1,107.1,0,0,0-9.17-26.8c-.48-1-1-2.08-1.58-3.27-3.49-7.27-8.58-17.88-13.58-23.5A130.4,130.4,0,0,0,750.84,430c.63,1.76,1.17,3.25,1.48,4.2A83,83,0,0,1,755,445.75c.17.93.35,1.9.54,2.92,1.21,6.36,2.9,12.89,4.53,19.21,1.09,4.18,2.21,8.51,3.17,12.72l.83,3.61C764.5,486.07,764.92,487.87,765.31,489.64Z"/><path class="cls-1" d="M739.39,429.06a98.51,98.51,0,0,1,5.73,11.67c1.72,4.43,2.48,9.16,3.91,13.69,6.62,21,7.84,37.52,5.76,54.64-6.28-14.27-10.07-33.09-14.21-48.13-3.19-11.58-6.89-23-10.84-34.38-2-5.61-4-11.2-6-16.78-1.41-3.83-8.42-17.08-7.49-21C724.37,399.18,733,417.53,739.39,429.06Z"/><path class="cls-2" d="M715.63,391.9a7.65,7.65,0,0,1-.18-3.29l.39-1.64,1,1.33C723,396,729.21,408,734.73,418.56c1.91,3.66,3.72,7.12,5.37,10.11h0a97.12,97.12,0,0,1,5.78,11.77,66,66,0,0,1,2.41,8.16c.47,1.84.94,3.75,1.52,5.58,6.22,19.72,8,36.68,5.79,55l-.35,2.95-1.2-2.72c-4.66-10.58-7.89-23.38-11-35.76-1.1-4.39-2.15-8.53-3.24-12.48-2.85-10.35-6.39-21.58-10.82-34.33-1.75-5-3.72-10.51-6-16.77-.36-1-1.12-2.65-2-4.58C718.51,400.11,716.39,395.28,715.63,391.9Zm1.57-.46v0c.81,3.63,3.48,9.48,5.23,13.31.9,2,1.67,3.66,2,4.7,2.3,6.27,4.27,11.76,6,16.8,4.45,12.77,8,24,10.86,34.43,1.09,4,2.14,8.12,3.25,12.51,2.82,11.2,5.74,22.75,9.71,32.61,1.66-17-.2-32.55-6.08-51.17-.59-1.88-1.07-3.81-1.54-5.68a67.77,67.77,0,0,0-2.35-8,97.54,97.54,0,0,0-5.69-11.57h0c-1.66-3-3.47-6.47-5.39-10.14C728.28,409.76,722.67,399,717.2,391.44Z"/><path class="cls-1" d="M716.34,415.81a76.49,76.49,0,0,1,4.53,8.65c1.48,3.52,9.58,27.19,11.74,37.67,1.55,7.54,1.75,20-.62,27.35-5.71-11.33-10.15-23.25-14.58-35.15l-17.13-46.05-5.15-13.83c-1.55-4.16-12-25.56-9.2-29,5.6,6.64,11.82,19.74,16.41,27.11Q709.51,404.07,716.34,415.81Z"/><path class="cls-2" d="M685.1,370.61c-.62-2.76-.6-4.69.19-5.68l.62-.77.64.76c3.74,4.42,7.76,11.72,11.31,18.15,1.86,3.37,3.61,6.55,5.17,9.05,4.77,7.66,9.49,15.49,14,23.28h0a77.4,77.4,0,0,1,4.57,8.74c1.54,3.65,9.61,27.21,11.79,37.83,1.59,7.76,1.79,20.27-.64,27.76l-.61,1.89-.9-1.77c-5.74-11.38-10.25-23.5-14.61-35.23l-22.28-59.88c-.31-.82-1-2.34-1.81-4.27C688.81,381.89,686.1,375.12,685.1,370.61Zm1.14-3.48c-.17,4.4,5.52,17.43,7.81,22.69.86,1.95,1.53,3.49,1.85,4.35l22.28,59.88c4.1,11,8.34,22.41,13.59,33.16,1.72-7.29,1.42-18.18,0-24.91-2.11-10.26-10.22-34-11.69-37.53a76.93,76.93,0,0,0-4.49-8.55h0c-4.52-7.77-9.22-15.59-14-23.24-1.59-2.54-3.35-5.73-5.22-9.12C693.22,378,689.61,371.5,686.24,367.13Z"/><path class="cls-1" d="M675.27,381.18a119.73,119.73,0,0,1,9.6,15.41c3.1,6.34,5,13.18,8,19.57,2.26,4.84,5.1,9.39,7.2,14.3a94.82,94.82,0,0,1,4.4,13.94c2.83,10.94,9.34,38.65,5.86,44.87-1-5.48-3.51-10.57-6-15.57-6.12-12.32-19.79-40.77-20.88-44.12-1.48-4.58-12.74-23-15.37-26.91-13.54-20.19-15.32-27.54-19.65-42.76-.81-2.82-3.75-17.92-1.91-20.83,1.24-1.95,2.67,4.43,8.68,13.35C661.77,362.12,668.59,371.6,675.27,381.18Z"/><path class="cls-2" d="M647.41,358.94c-.93-4.16-3.47-17.24-1.52-20.3a1.35,1.35,0,0,1,1.21-.73c1,0,1.67,1.27,3.16,4.2a86,86,0,0,0,5.67,9.87c4.34,6.45,8.9,12.93,13.31,19.19q3.36,4.75,6.7,9.54h0a119.76,119.76,0,0,1,9.66,15.52c1.65,3.37,3,6.92,4.29,10.35,1.16,3.07,2.35,6.24,3.76,9.24,1,2.1,2.1,4.2,3.18,6.22,1.4,2.61,2.84,5.31,4,8.09a98.85,98.85,0,0,1,4.45,14.06c3,11.49,9.45,38.91,5.78,45.48l-1.1,2-.42-2.22c-1-5.54-3.64-10.75-5.92-15.36-5.65-11.37-19.78-40.7-20.92-44.23-1.43-4.39-12.6-22.72-15.28-26.71-13.1-19.53-15.29-27.25-19.27-41.28l-.49-1.71C647.64,360,647.54,359.55,647.41,358.94Zm-.27-19.13c-1.2,3.2,1.06,16.15,2.12,19.88l.49,1.7c3.93,13.87,6.1,21.51,19.06,40.82,2.5,3.73,13.94,22.4,15.47,27.12,1.05,3.21,14.61,31.49,20.83,44A74.85,74.85,0,0,1,710.43,486c.89-7.79-2.67-25.71-6.71-41.39a96,96,0,0,0-4.36-13.82c-1.16-2.72-2.59-5.39-4-8-1.09-2-2.22-4.16-3.22-6.3-1.43-3.06-2.64-6.26-3.81-9.35-1.28-3.4-2.61-6.91-4.23-10.21a118.3,118.3,0,0,0-9.53-15.3q-3.33-4.78-6.7-9.54c-4.41-6.27-9-12.75-13.33-19.22a88,88,0,0,1-5.77-10A32,32,0,0,0,647.14,339.81Z"/><path class="cls-1" d="M685,467.24c1.91,5.71,3.75,11.81,2.29,17.66a180,180,0,0,0-17.7-35.45c-3.1-4.81-6.43-9.47-9.42-14.35-3.31-5.41-6.17-11.08-9-16.74L630,376.56c-2.81-5.54-12.16-28.19-13.82-34-1.31-4.61-6.36-17.58-5.55-22.23,6.75,15.23,30,48.72,35.16,58a532.93,532.93,0,0,1,27.1,56.4Q679.44,450.76,685,467.24Z"/><path class="cls-2" d="M610.37,326.39a17.73,17.73,0,0,1-.58-6.2l.47-2.64,1.08,2.45c4.4,9.94,16.18,28.14,24.78,41.44,4.6,7.11,8.57,13.25,10.35,16.45a536.5,536.5,0,0,1,27.14,56.49C678,445.07,682.08,456,685.75,467h0c2.07,6.15,3.8,12.17,2.32,18.11l-.65,2.58-.91-2.49a180.1,180.1,0,0,0-17.63-35.29c-1.22-1.9-2.49-3.78-3.75-5.66-1.9-2.82-3.86-5.74-5.67-8.7-3.33-5.45-6.25-11.22-9.08-16.8l-21.15-41.8c-2.67-5.28-12.17-28.18-13.87-34.15-.31-1.08-.82-2.61-1.41-4.39C612.72,334.71,611.22,330.21,610.37,326.39Zm1.25-2a109.36,109.36,0,0,0,3.88,13.51c.6,1.8,1.12,3.36,1.43,4.45,1.69,5.92,11.1,28.62,13.75,33.86L651.84,418c2.81,5.55,5.72,11.29,9,16.68,1.79,2.93,3.74,5.84,5.63,8.65,1.27,1.89,2.54,3.78,3.78,5.69a181.18,181.18,0,0,1,16.68,32.71c.31-4.61-1.11-9.36-2.74-14.22-3.66-10.91-7.73-21.84-12.11-32.5A534.16,534.16,0,0,0,645,378.68c-1.75-3.15-5.71-9.27-10.29-16.36C626.67,349.84,616.85,334.65,611.62,324.37Z"/><path class="cls-1" d="M583.31,318.06c3.26,4.63,6.78,9.21,10.34,13.63,7.51,9.31,13.51,19.71,19.48,30.07l14.77,25.63c2.72,4.71,5.43,9.43,7.93,14.26a177.87,177.87,0,0,1,19.73,79.2c-3-29-23.86-50.6-37.64-73-4.49-7.31-9-19.91-12.41-27.78-10.85-25.1-29.69-52-34.44-79.33-.92-5.29,4.15,3.84,5.76,7.2A71.19,71.19,0,0,0,583.31,318.06Z"/><path class="cls-2" d="M571.08,305c-.3-1.37-.58-2.74-.81-4.12-.14-.76-.38-2.18.64-2.51,1.75-.56,5.24,6.27,6.66,9.23a58.55,58.55,0,0,0,5.38,8.58l1,1.45c3,4.25,6.36,8.7,10.31,13.59,7.56,9.37,13.66,19.95,19.55,30.18L628.61,387c2.67,4.64,5.44,9.44,7.95,14.3a178.87,178.87,0,0,1,19.82,79.56l-1.63.1c-2.27-21.55-14.48-39-26.28-55.92-4-5.74-7.8-11.17-11.25-16.78-3.29-5.36-6.56-13.44-9.45-20.57-1.07-2.65-2.08-5.15-3-7.3-3.57-8.25-7.92-16.54-12.52-25.31C583.7,338.79,574.89,322,571.08,305Zm.86-4c3.24,18.08,12.64,36,21.74,53.34,4.62,8.8,9,17.11,12.58,25.42.93,2.16,2,4.67,3,7.33,2.86,7.07,6.1,15.09,9.32,20.34,3.43,5.56,7.2,11,11.2,16.69,9.79,14,19.85,28.43,24.42,45.29A177.26,177.26,0,0,0,635.11,402c-2.49-4.82-5.25-9.61-7.92-14.24l-14.76-25.62c-5.87-10.17-11.93-20.69-19.41-30-4-4.92-7.36-9.39-10.38-13.67l-1-1.45a58.38,58.38,0,0,1-5.53-8.81A61,61,0,0,0,571.94,301Z"/><path class="cls-1" d="M575.4,327.25c3.35,4.77,17.73,34.59,22,46.24,9.75,26.93,26.63,55.39,28.71,83.94q-19.2-34.2-37.37-69c-1.1-2.11-19.94-39.79-23.79-47.89-3.5-7.38-7.11-14.08-9.92-21.75-1.44-4-8.36-22.7-6.24-28.19,1.66-4.31,7.63,11.68,11.86,15.5C567,311.89,570.47,320.21,575.4,327.25Z"/><path class="cls-2" d="M548.53,300.79c-1.12-5-1.31-8.51-.55-10.46.37-1,1-1.22,1.41-1.25,1.64-.11,3.23,2.61,6.14,7.83,1.85,3.33,3.94,7.11,5.62,8.61,4.34,3.92,7.39,9,10.34,14,1.45,2.44,3,5,4.58,7.28h0c3.45,4.92,17.88,34.9,22,46.44,3,8.14,6.48,16.25,10.21,24.83,8.4,19.32,17.08,39.29,18.54,59.32l.27,3.66-1.79-3.2c-12.74-22.71-25.32-45.92-37.38-69-1.15-2.21-20.06-40-23.8-47.92-.91-1.91-1.82-3.77-2.72-5.61a161.69,161.69,0,0,1-7.23-16.21l-.08-.21A150.49,150.49,0,0,1,548.53,300.79Zm1.05-10a.59.59,0,0,0-.08.16c-.74,1.91-.91,8,6.17,27.41l.08.21a162.6,162.6,0,0,0,7.16,16c.91,1.85,1.82,3.72,2.73,5.63,3.74,7.88,22.62,45.65,23.78,47.86,11.45,21.91,23.37,44,35.46,65.57-2.19-18.48-10.25-37-18-54.95-3.58-8.23-7.28-16.74-10.24-24.93-4.15-11.45-18.45-41.19-21.85-46h0c-1.67-2.38-3.18-4.92-4.65-7.38-2.89-4.84-5.87-9.85-10-13.6-1.87-1.69-3.95-5.43-5.95-9C552.66,295.12,550.51,291.26,549.58,290.76Z"/><path class="cls-1" d="M571.7,373.53c8.43,17.46,14.59,35.9,22.71,53.5,9.39,20.34,9.8,36.19,13.36,54.6-16.11-40.09-34.27-78.7-52.37-110.39-2.44-4.26-13.82-32-17.61-39.68-2.21-4.49-14.11-29.59-16.38-39.66-.52-2.28-3.2-12.17-.5-13.47,3.44-1.66,5.75,7.48,6.75,9.31C537.52,305.85,566.69,363.15,571.7,373.53Z"/><path class="cls-2" d="M520,289.39c-1.24-5.56-1.83-10.54.58-11.7a2.59,2.59,0,0,1,2.16-.08c2.28.91,3.78,4.89,4.87,7.81.32.85.59,1.58.78,1.93,10,18.3,39.34,76,44.06,85.82l-.73.36.73-.36c4.53,9.39,8.47,19.21,12.28,28.71,3.29,8.19,6.69,16.67,10.45,24.81,7.08,15.36,9.06,28,11.15,41.39.67,4.33,1.37,8.81,2.26,13.39l-1.56.46c-16.56-41.21-34.65-79.35-52.32-110.28-1.31-2.31-5.05-11-9-20.2-3.37-7.83-6.85-15.93-8.62-19.53-.14-.28-13.92-28.62-16.45-39.84l-.2-.83C520.26,290.62,520.12,290,520,289.39Zm51,84.49c-4.72-9.77-34.06-67.46-44-85.75a18.55,18.55,0,0,1-.88-2.14c-.82-2.18-2.34-6.22-3.94-6.87a1,1,0,0,0-.85,0c-.7.34-1.52,2.31.73,11.71l.2.85c2.16,9.58,13.43,33.58,16.32,39.48,1.79,3.64,5.28,11.75,8.66,19.6,3.76,8.76,7.66,17.81,8.93,20,16.68,29.19,33.72,64.78,49.51,103.32q-.48-3-.93-5.82c-2.07-13.28-4-25.81-11-41-3.78-8.19-7.18-16.68-10.48-24.89-3.79-9.47-7.72-19.27-12.23-28.61Z"/><path class="cls-1" d="M513.14,303.59c11.36,22.06,21.07,42.41,32.09,64.64,4,8,7.87,16,11,24.29,7,18.39,13.76,66.17,12.29,69.4-16.89-38.62-32.77-81.48-50.85-121.09-2.37-5.19-4.69-10.4-6.82-15.69C508,318,505.51,310.63,503,303.3q-3-8.9-6-17.79c-.76-2.29-8.38-20-4.29-20.88,1.6-.35,9.35,18.95,10.63,21.44C506.07,291.34,510.43,298.32,513.14,303.59Z"/><path class="cls-2" d="M491.22,271c-.6-2.68-.72-4.81-.08-6a2.07,2.07,0,0,1,1.41-1.1c1.32-.3,2.54,1.19,9.52,17.32.95,2.2,1.7,3.93,2,4.54,1.35,2.62,3.14,5.73,4.88,8.74s3.53,6.13,4.9,8.78h0c7.64,14.85,14.43,28.69,21.6,43.33,3.43,7,6.89,14.06,10.49,21.32,4.22,8.5,8,16.21,11.07,24.36,6.58,17.28,14.07,66.08,12.27,70l-.76,1.67-.73-1.68c-7.37-16.85-14.7-34.89-21.79-52.33-9.27-22.82-18.87-46.42-29.06-68.75-2.09-4.59-4.55-10.06-6.83-15.72-2.91-7.22-5.43-14.68-7.87-21.89q-3-8.9-6-17.79c-.11-.32-.35-.95-.68-1.79A99.12,99.12,0,0,1,491.22,271Zm1.49-5.42a.7.7,0,0,0-.12.18c-1.38,2.58,3.05,14,4.5,17.68.34.88.6,1.53.71,1.86q3,8.89,6,17.79c2.44,7.19,4.95,14.62,7.84,21.8,2.28,5.63,4.72,11.07,6.81,15.65,10.2,22.36,19.8,46,29.09,68.82,6.63,16.32,13.47,33.16,20.35,49.05-.6-11.44-6.15-49.18-12.38-65.55-3.08-8.08-6.81-15.75-11-24.22-3.6-7.26-7.07-14.33-10.49-21.32-7.18-14.64-14-28.46-21.6-43.3-1.34-2.62-3.13-5.71-4.86-8.71s-3.55-6.16-4.92-8.81c-.34-.66-1.06-2.33-2.06-4.64C498.64,277.33,494.2,267.07,492.71,265.53Z"/><path class="cls-1" d="M493.53,310.4c7.86,14.76,13.65,30.52,19.42,46.22,13.41,36.48,29.89,72.55,27.43,112.71-10.4-18.66-16.14-44.64-24.67-64.23-20.59-47.28-35.77-88.87-53.31-136-.81-2.16-5.29-21.6-1.39-19.12,2.34,1.49,9.88,19.43,11.71,22.49C479.92,284.49,486.93,298,493.53,310.4Z"/><path class="cls-2" d="M460.31,264c-1.22-5.46-2.59-13.31-.8-14.75a1.56,1.56,0,0,1,1.94,0c1.64,1,4.65,7.31,8.71,16,1.44,3.08,2.68,5.74,3.26,6.72,6.06,10.12,11.94,21.22,17.62,32l3.21,6c7.9,14.84,13.78,30.84,19.47,46.32,1.82,5,3.71,9.94,5.59,14.91,11.81,31.11,24,63.27,21.89,98.13l-.17,2.79-1.36-2.44c-6.18-11.09-10.74-24.79-15.15-38-3.13-9.4-6.08-18.28-9.56-26.26C496.1,362.11,481.49,322.81,466,281.19l-4.4-11.82C461.61,269.31,461,267,460.31,264Zm.16-13.4c-1.12,1.84,1.74,15.65,2.69,18.21l4.4,11.82c15.45,41.59,30.05,80.88,48.9,124.16,3.51,8.05,6.47,17,9.61,26.39,4,12.17,8.22,24.71,13.64,35.19C541,433,529.2,401.9,517.79,371.83c-1.89-5-3.78-9.95-5.61-14.93-5.66-15.42-11.52-31.37-19.37-46.12l.72-.38-.72.38-3.21-6C483.92,294,478.05,283,472,272.87c-.63-1.05-1.82-3.62-3.34-6.87-2.52-5.42-6.74-14.48-8.11-15.35Zm-.09,0Z"/><path class="cls-1" d="M482,359.07C485.63,369,508.5,435,518.77,456.3c-3.11-7.73-11.85-21.17-15.81-28.5-15.24-28.16-51.41-101.11-57.69-115.25-8.16-18.34-15.31-36.77-19.69-56.36-1-4.56-1.5-16,4.06-19.31,4.43-2.67,15.39,38.56,21.79,55.56C461.25,318.52,477.19,345.82,482,359.07Z"/><path class="cls-2" d="M424.78,256.37c-1.12-5.05-1.52-16.61,4.44-20.19a1.63,1.63,0,0,1,1.49-.12c3.42,1.28,8.1,15.19,14.85,36.27,2.43,7.59,4.73,14.77,6.63,19.82,5.6,14.88,13.36,30.48,19.6,43,4.78,9.61,8.91,17.92,11,23.63h0c.57,1.57,1.62,4.53,3,8.49,7,19.68,22.64,63.89,31.74,84.41.79,1.55,1.46,3,2,4.3l-1.5.66c-.61-1.27-1.27-2.7-2-4.26-2.31-4.58-5.58-10.09-8.56-15.1-2-3.39-3.92-6.61-5.27-9.1-14.8-27.34-51.33-100.91-57.72-115.31-6.66-15-14.92-34.94-19.74-56.51Zm56.46,103c-2.05-5.63-6.16-13.89-10.92-23.46-6.25-12.57-14-28.21-19.66-43.16-1.91-5.09-4.22-12.29-6.66-19.91-4.24-13.23-11.33-35.38-13.93-35.25-4.87,2.93-4.81,13.45-3.69,18.44h0c4.78,21.43,13,41.3,19.63,56.21,6.39,14.37,42.88,87.87,57.67,115.19,1.33,2.47,3.23,5.67,5.24,9l1.69,2.86c-9-22.6-20.62-55.32-26.35-71.5-1.4-3.95-2.45-6.9-3-8.47Z"/><path class="cls-1" d="M417.41,274.88c2.57,7.16,4.67,14.47,7,21.69,2.31,7.05,4.87,14,7.44,21l12.79,34.71,11.92,32.32c6.24,16.94,12.51,33.92,20.81,49.95a654.26,654.26,0,0,1-61.84-110.77c-2.24-5.11-4.41-10.25-6.25-15.51-2.72-7.76-4.73-15.75-6.73-23.72-3.2-12.74-11.21-39.1-8.56-49.73.85-3.41,4.24-11,6.19-9.75,3.53,2.25,4.4,13.58,5.51,17.18C409.23,253.64,413.37,263.65,417.41,274.88Z"/><path class="cls-2" d="M395.6,260.28c-2.24-10-3.78-20-2.37-25.7.64-2.53,3.3-9.35,5.83-10.36a1.74,1.74,0,0,1,1.6.12c2.86,1.82,4,8.21,4.95,13.34.33,1.8.61,3.35.9,4.29,2.36,7.71,5,14.67,7.75,22,1.3,3.47,2.61,7,3.92,10.6l-.77.27.77-.27c1.64,4.58,3.12,9.29,4.55,13.85.82,2.62,1.64,5.25,2.49,7.86,2.31,7,4.92,14.1,7.44,20.93l24.71,67c6.13,16.64,12.47,33.85,20.76,49.85l-1.39.84a655.53,655.53,0,0,1-61.92-110.91c-2.13-4.87-4.36-10.12-6.27-15.56-2.74-7.81-4.78-15.93-6.75-23.79-.5-2-1.11-4.3-1.79-6.83C398.63,272.69,397,266.48,395.6,260.28Zm7.5-26.91c-.75-3.37-1.79-6.68-3.32-7.65-.92-.18-3.94,5.14-5,9.26-2.18,8.77,3.21,29.06,6.77,42.48.68,2.54,1.3,4.86,1.79,6.85,2,7.82,4,15.91,6.71,23.65,1.89,5.39,4.11,10.61,6.22,15.45A655,655,0,0,0,471.72,424.7c-6-13.07-11-26.64-15.89-39.85l-24.71-67c-2.52-6.84-5.13-13.92-7.45-21-.86-2.62-1.68-5.25-2.5-7.88-1.42-4.54-2.9-9.24-4.53-13.79-1.3-3.62-2.62-7.12-3.91-10.57-2.78-7.4-5.4-14.38-7.78-22.14A43.46,43.46,0,0,1,404,238C403.75,236.59,403.46,235,403.1,233.37Z"/><path class="cls-1" d="M416.85,373.29c3.09,7,6.23,13.94,9.86,20.65,1.61,3,3.32,5.93,5,8.87l11.9,20.46a421.09,421.09,0,0,1-57.37-75.78c-2.93-4.94-12.69-27.54-14.55-33.86-6.1-20.81-22.34-83.95-8.89-98.66,1.1-1.21,3.75,2,4.61,7,2.16,12.58,4.48,25.06,7.63,37.44,6.36,25,14.94,49.46,24.56,73.41C405.09,346.41,410.89,359.88,416.85,373.29Z"/><path class="cls-2" d="M363.49,284.84c-1.59-7.13-3.14-14.92-4.35-22.7-3.91-25.15-2.87-41.21,3.09-47.72a1.57,1.57,0,0,1,1.66-.45c1.8.53,3.67,3.9,4.35,7.83,2.06,11.93,4.4,24.71,7.62,37.38,5.68,22.36,13.7,46.34,24.53,73.31,4.87,12.14,10.34,25,17.2,40.47h0c3.14,7.07,6.26,14,9.84,20.6,1.61,3,3.34,6,5,8.84l15.39,26.46-4.78-5a422.67,422.67,0,0,1-57.48-75.92c-3.1-5.22-12.8-27.81-14.63-34.05C369.71,309.65,366.52,298.44,363.49,284.84Zm3-63.62c-.83-3.73-2.57-5.69-3.07-5.69-5.49,6-6.41,22.07-2.64,46.36a437.51,437.51,0,0,0,11.76,51.51c1.76,6,11.49,28.66,14.46,33.68a421.16,421.16,0,0,0,52.34,70.37L431,403.22c-1.68-2.89-3.42-5.88-5-8.89-3.61-6.68-6.74-13.61-9.89-20.71h0c-6.87-15.48-12.35-28.36-17.23-40.52-10.85-27-18.9-51.09-24.6-73.52-3.22-12.72-5.58-25.54-7.64-37.5C366.58,221.79,366.53,221.5,366.46,221.22Z"/><path class="cls-1" d="M350.41,245.13c.74,15.07-.82,30.25,1,45.23,1.85,15.25,7.16,29.84,12.42,44.28,8.26,22.65,16.69,45.63,30.76,65.22,1.92,2.67,4,5.32,5.11,8.41-13.06-13.6-26-27.61-35.24-44.06a239.64,239.64,0,0,1-10.55-22.27c-4.79-11.11-9.6-22.27-12.68-34a210.26,210.26,0,0,1-4.1-21c-2.7-17.31-4.82-34.75-5.08-52.28q-.1-6.55.16-13.1c.15-3.4-.28-14,1.57-16.88,2.47-3.9,9.62,9.09,11,12.42C348.45,226,349.93,235.62,350.41,245.13Z"/><path class="cls-2" d="M339.25,303.31c-1.26-5.65-2.16-11.24-2.94-16.21-2.21-14.23-4.8-33.05-5.09-52.39-.07-4.5,0-8.92.17-13.14,0-.7,0-1.72,0-2.91,0-6.26.18-12.07,1.65-14.38a2.14,2.14,0,0,1,2-1.09c3.94.34,9.72,12,10.41,13.64,3.28,7.9,5.14,17.14,5.69,28.26.31,6.15.23,12.4.15,18.44-.11,8.79-.23,17.89.84,26.73,1.85,15.24,7.2,29.91,12.38,44.1,8.13,22.31,16.55,45.38,30.65,65l.6.84a33,33,0,0,1,4.61,7.77l1.37,3.68-2.72-2.83c-13.39-13.95-26.17-27.83-35.37-44.23a244.16,244.16,0,0,1-10.58-22.35c-4.73-11-9.62-22.29-12.72-34.08Q339.8,305.75,339.25,303.31Zm8.2-74.85a66,66,0,0,0-3.43-11c-1.48-3.54-6.68-12.43-9-12.64-.11,0-.29,0-.52.35-1.34,2.1-1.38,9.24-1.4,13.51,0,1.22,0,2.25,0,3-.18,4.18-.24,8.57-.17,13.05.29,19.24,2.87,38,5.08,52.16A210.65,210.65,0,0,0,342,307.77c3.07,11.67,7.94,22.94,12.64,33.84a238.61,238.61,0,0,0,10.51,22.2c8.1,14.46,19.06,27,30.77,39.34-.46-.67-.94-1.32-1.41-2l-.61-.85c-14.23-19.82-22.68-43-30.86-65.41-5.2-14.28-10.59-29-12.46-44.46-1.08-8.95-1-18.1-.85-26.95.07-6,.15-12.24-.15-18.34A98.63,98.63,0,0,0,347.45,228.46Z"/><path class="cls-1" d="M334.45,337.27c3.29,9,6.63,18,10.62,26.64a194.69,194.69,0,0,0,23.3,38.35,215.09,215.09,0,0,1-55.95-82.46,312.22,312.22,0,0,1-10.93-36.48c-5.38-22-9.34-62.62-9.36-77.68,0-5.61,8.32-15.24,12.57-11.17,1.67,1.6,1.88,20.16,2.75,26.88,2.52,19.55,6.39,36.22,10.61,55.49C320.49,287.9,331.44,329.07,334.45,337.27Z"/><path class="cls-2" d="M300,280.57c-5-22.34-8.68-60-8.69-74.93,0-4.33,4.36-10.61,8.64-12.44a4.63,4.63,0,0,1,5.31.68c1.18,1.13,1.6,6.32,2.23,17.09.23,4.07.46,7.92.76,10.28,2.26,17.56,5.55,32.47,9.35,49.73l1.25,5.68c2.37,11.07,13.35,52.15,16.35,60.33h0c3.5,9.52,6.7,18.08,10.6,26.58A194.3,194.3,0,0,0,369,401.76l-1.19,1.1a216,216,0,0,1-56.17-82.77,312.46,312.46,0,0,1-11-36.58C300.46,282.57,300.23,281.59,300,280.57Zm4.53-84.39a3.24,3.24,0,0,0-.41-1.13,3,3,0,0,0-3.53-.35C297,196.26,293,202,293,205.64c0,15.51,4,55.77,9.33,77.49a311.55,311.55,0,0,0,10.9,36.38,214.22,214.22,0,0,0,48.88,75.59,195.06,195.06,0,0,1-17.73-30.85c-3.93-8.55-7.15-17.15-10.65-26.7-3-8.22-14-49.47-16.41-60.54L316,271.33c-3.81-17.3-7.1-32.23-9.37-49.87-.31-2.42-.54-6.29-.78-10.4C305.58,206.09,305.17,199,304.54,196.18Z"/><path class="cls-1" d="M272.68,242.47c7.56,22.74,15.12,45.48,23.1,68.07q19.08,54.06,41.33,106.92c-22.63-27.25-40.72-56.28-52.84-89.57-10.39-28.55-16.55-60.05-23.84-89.54-2.36-9.56-7.64-44-9.24-58.71,2.41,3.39,5.86,15.83,7.21,19.9l4.76,14.31Z"/><path class="cls-2" d="M259.3,237.11c-2.48-11.14-7.35-43-8.93-57.39L250,176.6l1.82,2.56c2,2.78,4.52,11.07,6.21,16.55.45,1.46.83,2.7,1.12,3.57l14.28,42.95c7.43,22.35,15.11,45.46,23.09,68,12.66,35.86,26.56,71.82,41.32,106.88l2.13,5.07L336.48,418c-24.31-29.28-41.64-58.66-53-89.82-7.86-21.62-13.34-45.05-18.64-67.71-1.69-7.23-3.44-14.71-5.22-21.92C259.53,238.11,259.42,237.63,259.3,237.11Zm-6.73-52.73c2.06,16.55,6.52,45.19,8.65,53.77,1.79,7.22,3.54,14.7,5.23,21.94,5.29,22.61,10.76,46,18.59,67.52,10.71,29.45,26.81,57.3,49.15,85-14-33.44-27.13-67.66-39.18-101.78-8-22.6-15.67-45.72-23.1-68.08h0L257.63,199.8c-.29-.88-.68-2.14-1.13-3.61C255.47,192.85,254,188,252.57,184.38Z"/><path class="cls-1" d="M247.88,246.54c10.67,41.93,22.58,94.47,40.47,123a192.66,192.66,0,0,1,12.29,24c-6.64-6-11.81-13.43-16.63-21a366,366,0,0,1-40.27-85.44c-9.4-29.25-15.07-59.54-19.9-89.84-.63-3.93-5.5-21.85-2.64-24C228.91,183,233,201.36,236.87,213,241,225.29,244.68,233.93,247.88,246.54Z"/><path class="cls-2" d="M232.45,248.19c-3.85-17.28-6.8-34.37-9.42-50.8-.13-.81-.45-2.25-.85-4.08-2.69-12.12-3.72-19-1.47-20.67l.63-.47.49.61c6,7.53,9.73,19.95,13,30.9,1,3.25,1.89,6.32,2.8,9,1.25,3.71,2.45,7.08,3.61,10.32,2.66,7.44,5.17,14.47,7.43,23.33h0c1.12,4.41,2.25,8.93,3.41,13.53,9.85,39.29,21,83.82,37,109.24a195.19,195.19,0,0,1,12.35,24.07l1.57,3.53-2.87-2.59c-6.75-6.11-12-13.77-16.77-21.14A366.85,366.85,0,0,1,243,287.35C238.78,274.33,235.36,261.2,232.45,248.19Zm-11.19-73.47c-.83,3.16,1.55,13.91,2.51,18.24.41,1.85.74,3.31.87,4.18,4.59,28.74,10.17,59.5,19.88,89.71a365.75,365.75,0,0,0,40.17,85.25,114.91,114.91,0,0,0,13.44,17.83,174.91,174.91,0,0,0-10.48-20c-16.07-25.64-27.27-70.3-37.15-109.7-1.15-4.6-2.29-9.12-3.41-13.53l.79-.2-.79.2c-2.23-8.78-4.73-15.78-7.37-23.18-1.17-3.25-2.37-6.63-3.63-10.34-.92-2.72-1.84-5.81-2.82-9.07C230.17,193.78,226.67,182.08,221.26,174.72Z"/><path class="cls-1" d="M258.46,373.27q-8.4-11.68-15.66-24.13C230.36,327.78,220.65,305,211,282.22c-4.17-9.81-13.29-47.37-14.48-55.23s-5.1-48.25-1.23-59.43c3.28,2.64,4.05,14.55,5.1,18.83q2.56,10.41,5.27,20.79,5.34,20.55,11.23,41,11.76,40.82,25.64,81,3.83,11.08,7.82,22.12C251.7,355.06,256.51,370.55,258.46,373.27Z"/><path class="cls-2" d="M197.43,235.74c-.87-3.9-1.5-7-1.75-8.63-1.14-7.46-5.19-48.26-1.19-59.82l.38-1.1.9.73c2.64,2.13,3.7,9,4.55,14.54.3,1.94.57,3.61.84,4.73,1.7,6.91,3.47,13.9,5.26,20.78,3.55,13.66,7.33,27.44,11.22,40.95,7.81,27.08,16.43,54.32,25.63,81,2.53,7.32,5.16,14.76,7.82,22.11.34.94.89,2.58,1.55,4.57,1.9,5.71,5.07,15.26,6.48,17.23h0l-1.33.95h0c-5.6-7.77-10.88-15.9-15.71-24.19-12.48-21.43-22.34-44.6-31.87-67C206.91,274.76,200.58,249.84,197.43,235.74Zm-1.81-66.48c-3,12.4.37,49,1.67,57.6,1.16,7.6,10.24,45.2,14.43,55,9.51,22.36,19.35,45.49,31.78,66.83,3.48,6,7.2,11.86,11.1,17.59-1.08-3-2.28-6.54-3.51-10.25-.66-2-1.2-3.6-1.54-4.53-2.66-7.36-5.29-14.81-7.82-22.14-9.21-26.65-17.85-53.92-25.66-81-3.9-13.53-7.68-27.32-11.23-41-1.8-6.89-3.57-13.88-5.27-20.8-.29-1.2-.56-2.89-.86-4.87C198.09,177.7,197.2,171.93,195.62,169.26Z"/><path class="cls-1" d="M185.14,245.7c1.49,6.7,2.25,13.54,3.26,20.33,2.39,16,6.17,31.84,9.95,47.62,2.36,9.88,4.78,19.89,9.61,28.83a393.08,393.08,0,0,1-42.9-120.35c-.8-4.43-1.53-8.88-1.95-13.37a200,200,0,0,1-.27-25c.09-3,.35-24.68,3.29-25.34,1.59-.35,3.94,20.12,4.57,22.67C175.74,201.49,183.85,239.86,185.14,245.7Z"/><path class="cls-2" d="M167.44,238.06q-1.75-7.86-3.18-15.79c-.72-4-1.51-8.64-2-13.43-.79-8.36-.53-16.86-.28-25.08l0-1c.5-21.39,2.17-24.7,3.9-25.09a1.05,1.05,0,0,1,.82.17c1.1.76,2,4.7,3.84,17.58.38,2.6.72,4.84.88,5.52,4,16.39,10.08,44.35,13,57.78.71,3.28,1.22,5.67,1.48,6.82h0c1.11,5,1.83,10.19,2.53,15.19.24,1.73.48,3.47.74,5.2,2.38,16,6.22,32,9.93,47.55,2.33,9.7,4.73,19.73,9.54,28.63l-1.44.78A392.1,392.1,0,0,1,167.44,238.06ZM166,159.55c-.66,1.07-1.93,5.48-2.35,23.23l0,1c-.25,8.17-.51,16.62.27,24.88.45,4.73,1.24,9.37,1.94,13.29A390.52,390.52,0,0,0,201.26,328c-1.43-4.71-2.58-9.49-3.71-14.2-3.72-15.54-7.56-31.61-10-47.69-.26-1.74-.5-3.48-.74-5.21-.69-5-1.4-10.11-2.5-15.07-.26-1.14-.78-3.55-1.48-6.82-2.9-13.43-8.92-41.37-13-57.73-.19-.77-.49-2.83-.9-5.68C168.32,171,167,161.83,166,159.55Z"/><path class="cls-1" d="M144,196.89a152.56,152.56,0,0,1,3.23,19.33,83.47,83.47,0,0,0,2.46,13.13c1.07,3.71,3.08,7.09,4.3,10.76a40,40,0,0,1,2,10.38c1.62,28.56,5.49,50.65,14.1,71.48q-10.33-22.28-19.39-45.13c-2.15-5.42-4.77-10.72-6.13-16.4-9.09-37.74-13.75-62.66-12.44-89.18.15-2.89.74-20.44,3.72-21.11,1.59-.35,2.68,12.3,2.87,14.15A264,264,0,0,0,144,196.89Z"/><path class="cls-2" d="M139.52,242.45c-6.38-28.6-9.31-49.23-8.22-71.23l0-.7c.81-18,2.64-20.79,4.32-21.16a1.14,1.14,0,0,1,.94.2c.81.59,1.79,2.74,2.87,14.17l0,.48a263.86,263.86,0,0,0,5.29,32.5h0A153.49,153.49,0,0,1,148,216.14a83.94,83.94,0,0,0,2.43,13,44.12,44.12,0,0,0,2.26,5.74,53.71,53.71,0,0,1,2,5,40.67,40.67,0,0,1,2,10.59c1.72,30.27,5.92,51.57,14,71.22l-1.49.65c-6.87-14.79-13.4-30-19.41-45.16-.58-1.47-1.19-2.92-1.8-4.38a80,80,0,0,1-4.37-12.14C142.21,254.2,140.79,248.17,139.52,242.45Zm-3.75-91.34c-.6.66-2.11,3.86-2.81,19.48l0,.71c-1.3,26.2,3.16,50.51,12.41,88.95a78.28,78.28,0,0,0,4.28,11.88c.62,1.47,1.24,2.94,1.82,4.41,3.76,9.5,7.73,19,11.85,28.42-4.36-15.33-6.9-32.55-8.14-54.43a39.54,39.54,0,0,0-1.93-10.16c-.55-1.64-1.28-3.27-2-4.84a45.53,45.53,0,0,1-2.34-6,85,85,0,0,1-2.49-13.26,148.78,148.78,0,0,0-3.21-19.24,269.84,269.84,0,0,1-5.32-32.69l0-.49C136.94,154.5,136.15,151.86,135.77,151.11Z"/><path class="cls-1" d="M670.14,347.21c39.71,28,44.09,25.05,70.38,52.91s58,70.05,61.66,108.19C790.79,462.55,768,433.05,732.55,401.9a527.47,527.47,0,0,0-54.42-41.41c-21.14-13.85-45.1-32.82-70.2-44.58-41.12-19.28-98.25-48.43-161.81-72.67-83.82-32-169.84-57.78-194.93-63.6-64-14.86-144.54-35.63-250.16-63-.55-6,1.52-6.12,4-12.58C7.16,98.54,43.82,114,50.15,115.6q34.32,8.81,68.59,17.81c45.72,12.07,91.32,24.57,136.65,38C345.63,198.22,434.91,228.8,521,267.11,568.74,288.38,627.37,317.1,670.14,347.21Z"/><path class="cls-2" d="M.27,117.26l-.05-.57A11.57,11.57,0,0,1,2,108.54a36.53,36.53,0,0,0,2.28-4.8c1.58-4.11,14.16-.41,36.82,7.86,4.31,1.57,7.72,2.81,9.25,3.2C77.23,121.7,99,127.36,119,132.62c52.69,13.91,96.12,26,136.67,38,103.78,30.81,188.2,61.22,265.68,95.71,63.94,28.47,114.18,55.45,149.31,80.18l-.47.67.47-.67c13.31,9.37,22.65,15.27,30.16,20,14.7,9.29,22.8,14.41,40.35,33C791,452.41,801.29,490.33,803,508.24l-1.61.27c-11.88-47.79-36.32-76.94-69.37-106a530.83,530.83,0,0,0-54.33-41.34c-6-3.91-12.09-8.17-18.56-12.69-16.51-11.51-33.59-23.42-51.53-31.83-8.84-4.15-18.46-8.76-28.64-13.65-37.09-17.81-83.25-40-133.12-59C364,212.77,276.79,186.41,251,180.43,187.79,165.77,110.9,146,.83,117.41ZM797.63,490.13c-6.17-20.48-21.35-50.93-57.7-89.45-17.41-18.44-25-23.22-40-32.74-7.53-4.76-16.89-10.67-30.23-20.06-35-24.68-85.19-51.6-149-80C443.22,233.39,358.87,203,255.16,172.22c-40.54-12-83.95-24.12-136.63-38C98.62,129,76.82,123.28,50,116.39c-1.61-.42-5.05-1.67-9.41-3.26C31.4,109.8,7.11,100.94,5.8,104.32a37.48,37.48,0,0,1-2.37,5A9.91,9.91,0,0,0,1.8,116c109.76,28.47,186.48,48.23,249.57,62.87,24.31,5.64,109.13,30.87,195,63.64,49.93,19,96.13,41.22,133.24,59,10.18,4.89,19.8,9.51,28.63,13.65,18.07,8.47,35.21,20.42,51.78,32,6.46,4.51,12.56,8.76,18.52,12.67a532.5,532.5,0,0,1,54.51,41.47C762,426.72,784.39,452.24,797.63,490.13Z"/></g></g></g></svg>