<svg xmlns="http://www.w3.org/2000/svg" viewBox="0 0 269.44 559.17"><defs><style>.cls-1{fill:#9bab9c;stroke:#000;stroke-miterlimit:10;stroke-width:2px;}.cls-2{fill:#c6dcae;}.cls-3{fill:#c8ddad;}.cls-4{fill:#a1b595;}.cls-5{fill:#aec3a1;}.cls-6{fill:#f8dad8;}</style></defs><g id="Layer_2" data-name="Layer 2"><g id="plants"><g id="peacock2"><path class="cls-1" d="M92.09,65c-3.51,17.86-10.74,34.74-17.66,51.58C41.2,197.35,13.75,281.26,3.81,368c-6.6,57.64-3.75,121,32.51,166.31,3.1,3.87,6.53,7.65,11,9.88,13.19,6.62,28.47-2.72,40.23-11.64C101.22,544.16,116.12,556.24,134,558s35.2-7.51,49.35-18.71c52.66-41.68,76.35-110.78,83-177.62,5.86-59,.17-120.11-24.6-173.94-25-54.23-67.5-98-106.71-143q-11.43-13.12-22.55-26.5c-3.62-4.35-14.78-23.65-18.93-15-3,6.32,1.41,23.87,1.36,31.27A165.38,165.38,0,0,1,92.09,65Z"/><path class="cls-2" d="M144.17,98.6a99.1,99.1,0,0,1,24.91,54l5.79-15.23,4.92,26a20.39,20.39,0,0,0,2.1,6.7c3,5,9.48,6.47,14.17,9.93,7.1,5.24,9.6,14.82,9.55,23.64s-2.15,17.56-2.06,26.38a64.24,64.24,0,0,0,14.32-23.82c6.1,19.57-5.36,41-1,61l10.19-15.49a81.61,81.61,0,0,1,.75,22.4l4.89-4.19a65.68,65.68,0,0,1-8.42,51.91c3.08-2.05,7.49.82,8.37,4.41s-.57,7.3-2,10.71l11.9-10.61a66.86,66.86,0,0,1-12.3,37l8,1.63a87.8,87.8,0,0,1-14.43,40c-4,6-9,12.94-6.33,19.6l20-12.69a35.78,35.78,0,0,1-12.83,26.52l6.19,2.19a194.59,194.59,0,0,1-41.73,54.17,14.71,14.71,0,0,0,10.62,1.43L183,507.57c1-1,2.88.32,2.86,1.75s-1.11,2.58-2.17,3.53a66.34,66.34,0,0,1-62.54,13.91,70.38,70.38,0,0,0,20.23-13.14A23.84,23.84,0,0,1,120,509.5a346.46,346.46,0,0,1,41.12-38,62,62,0,0,1-39.8,8.59l40.95-31.21a20.49,20.49,0,0,1-18.95-4.19,53.08,53.08,0,0,0,20.94-34.11,25.21,25.21,0,0,1-20.82,5.33A320.63,320.63,0,0,0,174.52,359l-22.26,11.31a454.06,454.06,0,0,0,16.2-64.59l-22.7,8.43a106.45,106.45,0,0,1,17.29-50.74,73,73,0,0,1-15.52,5.82q6.33-33.13,10.85-66.57a104.92,104.92,0,0,0-21.09,25.77c-2.52-12.48,5.87-24.36,8.16-36.89,2.86-15.69-3.83-30.89-5-46.38S144.62,114.33,144.17,98.6Z"/><path class="cls-3" d="M104.28,193.36l1.11,71.13c0,1.73-.23,3.9-1.86,4.46-1.29.44-2.74-.43-4,0-1.58.54-1.9,2.59-1.93,4.26A293.67,293.67,0,0,0,103,335.06a4.79,4.79,0,0,0-5.07-1.1,35.84,35.84,0,0,1,3.4,17.11L86,342.35a213.19,213.19,0,0,0,11.5,61.2L72.6,392.75l8.83,51.34L68.2,435.55c.5,14.14,8.75,26.67,16.72,38.36l-26.18-9.48c-.45,13.75,11,24.59,21.57,33.43-10.46,6.19-24.55,2.44-33.57-5.7s-14-19.72-18.37-31.08c-5.6-14.67-10.44-31.43-3.72-45.62A38.93,38.93,0,0,0,37,430.16a315.73,315.73,0,0,1-11.51-77.83,30.42,30.42,0,0,1,9.27,13,72.91,72.91,0,0,1-.31-52.93,29.31,29.31,0,0,0,11,18.49,133.87,133.87,0,0,1,1.84-71.69l10.11,10.94.88-57c.15-9.76.48-20.12,5.84-28.28l11.12,19.64C68.86,193.28,71.2,169.5,77,158.54c.94,1,2.71,1.56,3.6,2.56,1.09-9.89,5-27.5,17.62-13.63C107.13,157.34,104.08,180.92,104.28,193.36Z"/><path class="cls-4" d="M62.64,523.65c-7.57-.28-14.71-4.2-19.89-9.72s-8.57-12.52-10.84-19.74c-1-3.11-1.47-7.14,1.18-9,5.79,6.42,10,14.56,17.27,19.16a47.42,47.42,0,0,0,6.43,3.18l14.61,6.32C86,520.12,70.23,523.94,62.64,523.65Z"/><path class="cls-5" d="M115.18,436.85c8.91-64,14.65-128.82,9.49-193.23a224.6,224.6,0,0,0-3.18,31.48c-.34,11.32.17,22.66-.22,34-.36,10.59-1.51,21.13-2.66,31.66l-4,36.52c-.9,8.26-1.8,16.52-2.81,24.76a953.74,953.74,0,0,1-24.6,127.91c-.66,2.52-1.22,5.54.55,7.44,4,4.33,7.46-12.46,8.29-14.66a260,260,0,0,0,8.68-28.24C109.49,475.52,112.49,456.18,115.18,436.85Z"/><path class="cls-6" d="M109.17,33.41a51.9,51.9,0,0,1,4.56,9.87A88.31,88.31,0,0,1,118.28,64a52.1,52.1,0,0,1,0,10.88A50.74,50.74,0,0,1,113.67,65a83.87,83.87,0,0,1-2.9-10.24,87.53,87.53,0,0,1-1.63-10.5A52.09,52.09,0,0,1,109.17,33.41Z"/><path class="cls-6" d="M98.69,44.27C101,51.12,102.83,58,104.49,65s3.07,13.92,4.35,20.92,2.4,14,3.32,21.11,1.66,14.19,1.87,21.43a178.31,178.31,0,0,1-6.5-20.53Q104.85,97.53,102.94,87T99.86,65.77A180.74,180.74,0,0,1,98.69,44.27Z"/><path class="cls-6" d="M122,55.62a116.68,116.68,0,0,1,9,24.85,143.4,143.4,0,0,1,3.9,26.25,142.43,142.43,0,0,1-1,26.52,116,116,0,0,1-6.24,25.69c.67-8.79,1.31-17.43,1.54-26.07s.15-17.23-.32-25.81-1.32-17.14-2.52-25.69S123.6,64.28,122,55.62Z"/><path class="cls-6" d="M96.59,74.25c1,9.36,1.92,18.61,3.13,27.81s2.6,18.33,4.29,27.41,3.65,18.11,5.85,27.12,4.65,18,7.06,27.08a150,150,0,0,1-11.59-25.75A190.17,190.17,0,0,1,95,102.44,151,151,0,0,1,96.59,74.25Z"/><path class="cls-6" d="M148,97.51A178.4,178.4,0,0,1,151.91,130a216.88,216.88,0,0,1-1.43,32.82,216.65,216.65,0,0,1-6.32,32.24,178.57,178.57,0,0,1-11.48,30.68c2.46-10.64,4.88-21.17,6.88-31.76s3.69-21.2,5-31.87,2.16-21.38,2.68-32.14S147.88,108.43,148,97.51Z"/><path class="cls-6" d="M154.68,105.9a46.16,46.16,0,0,1,4.48,12.43,63.64,63.64,0,0,1,.07,26.22A45.76,45.76,0,0,1,154.8,157c-.29-4.45-.25-8.71-.26-13l0-12.59-.08-12.59C154.48,114.62,154.42,110.36,154.68,105.9Z"/><path class="cls-6" d="M180.12,143.53a185.51,185.51,0,0,1,0,39.49c-.39,3.28-.78,6.56-1.23,9.84l-1.68,9.78c-.68,3.24-1.44,6.46-2.15,9.69l-2.54,9.61A217.52,217.52,0,0,1,158,258.83a185.26,185.26,0,0,1-21.26,33.28c6.2-11.59,12-23.28,17-35.25a337.42,337.42,0,0,0,13-36.6l2.62-9.36c.76-3.14,1.48-6.3,2.29-9.44l2-9.5c.55-3.19,1.16-6.38,1.77-9.57C177.68,169.59,179.11,156.64,180.12,143.53Z"/><path class="cls-6" d="M195.86,148.13a163.19,163.19,0,0,1,1.9,24.92,194.59,194.59,0,0,1-1.91,25l-1,6.21c-.33,2.07-.82,4.11-1.22,6.17l-.64,3.08-.73,3c-.51,2-.94,4.09-1.52,6.11s-1.13,4-1.71,6-1.27,4-1.9,6-1.32,4-2,5.95-1.36,4-2.14,5.91a286.77,286.77,0,0,1-22.13,45,268.56,268.56,0,0,1-29.51,40.28c9.1-13.92,17.68-28.05,25.44-42.59a407.8,407.8,0,0,0,20.6-44.8,291.1,291.1,0,0,0,13.87-47.16c.42-2,.73-4,1.1-6.06l.53-3,.44-3.05c.28-2,.66-4.06.85-6.11l.66-6.14C195.6,164.71,195.86,156.45,195.86,148.13Z"/><path class="cls-6" d="M226.2,202a185.76,185.76,0,0,1-6.47,51.78,230,230,0,0,1-8.15,24.95c-3.2,8.16-6.87,16.12-10.85,23.92a291.87,291.87,0,0,1-28.29,44.05,327.62,327.62,0,0,1-35,38.64c10.83-13.59,21.43-27.24,31.25-41.41a404,404,0,0,0,26.75-44c4-7.59,7.6-15.37,10.91-23.28s6.27-16,8.93-24.13A272,272,0,0,0,226.2,202Z"/><path class="cls-6" d="M236.4,258.31l-.59,6.29-.34,3.15c-.14,1.05-.35,2.08-.52,3.13-.35,2.08-.74,4.16-1.12,6.25s-1,4.11-1.5,6.18l-.79,3.08c-.25,1-.63,2-.93,3l-2,6.07c-.67,2-1.5,4-2.26,5.95s-1.52,4-2.44,5.9l-2.62,5.81c-.41,1-.92,1.91-1.41,2.86l-1.47,2.82c-1.9,3.81-4.06,7.46-6.18,11.15-1,1.87-2.22,3.61-3.35,5.41s-2.26,3.6-3.46,5.34c-2.42,3.48-4.75,7-7.3,10.41-5,6.86-10.36,13.4-15.82,19.85s-11.16,12.68-17,18.7-11.75,12.12-18.13,17.7S134.09,418,129.44,425.05a43.71,43.71,0,0,1,7-10.57c2.76-3.23,5.8-6.19,8.68-9.21s5.71-6.08,8.46-9.23,5.52-6.3,8.24-9.48c11-12.68,21.61-25.56,31.5-39,2.55-3.3,4.86-6.75,7.28-10.14,1.2-1.7,2.3-3.47,3.45-5.2s2.32-3.45,3.38-5.23c2.19-3.53,4.43-7,6.4-10.69,1-1.81,2.08-3.6,3-5.44l2.87-5.53c1-1.83,1.82-3.73,2.69-5.62s1.76-3.76,2.58-5.67l2.36-5.78c.37-1,.82-1.91,1.14-2.9l1-2.95c.68-2,1.42-3.93,2.06-5.91s1.14-4,1.75-6c.29-1,.61-2,.88-3l.7-3.06Z"/><path class="cls-6" d="M250.33,304.6a110.77,110.77,0,0,1-1.6,13.32,129,129,0,0,1-3.21,13.1,144.54,144.54,0,0,1-10.38,25c-1,2-2.14,4-3.25,5.94s-2.3,3.88-3.52,5.78q-3.63,5.71-7.61,11.18c-5.32,7.28-11.13,14.17-17.12,20.86q-4.53,5-9.23,9.78c-3.15,3.18-6.31,6.35-9.54,9.45-6.47,6.15-13,12.32-19.79,18.12-13.56,11.66-28.21,22.38-44.36,30.07,14.89-9.86,28.37-21.36,41.22-33.55,1.61-1.53,3.2-3.06,4.78-4.62l4.76-4.64q4.74-4.66,9.4-9.43c6.23-6.31,12.39-12.67,18.32-19.22s11.68-13.23,17-20.22a213.16,213.16,0,0,0,14.84-21.78C240,338.57,246.88,322.13,250.33,304.6Z"/><path class="cls-6" d="M252.52,340a110.05,110.05,0,0,1-8.64,24.69,180.47,180.47,0,0,1-13.4,22.57c-4.93,7.23-10.34,14.08-15.71,20.92s-10.86,13.55-16.83,20.07a130.55,130.55,0,0,1-9.54,9.27q-5,4.33-10.36,8.21c-3.55,2.58-7.16,5.05-10.75,7.48s-7.2,4.84-10.83,7.22c-14.47,9.57-29.05,19-44,27.88,13.49-11,27.33-21.42,41.3-31.72s28.38-19.87,39.77-32.43c5.83-6.19,11.25-12.94,16.84-19.57s11-13.29,16.32-20.07a229.21,229.21,0,0,0,14.59-21.22A143.25,143.25,0,0,0,252.52,340Z"/><path class="cls-6" d="M237.11,418a33.12,33.12,0,0,1-3.41,11.09,45.44,45.44,0,0,1-6.5,9.62,44.48,44.48,0,0,1-8.74,7.64,32.7,32.7,0,0,1-10.59,4.76c2.53-3,5.08-5.67,7.55-8.36s4.9-5.33,7.28-8,4.71-5.42,7.05-8.21S234.44,420.85,237.11,418Z"/><path class="cls-6" d="M224.33,453.16a232.32,232.32,0,0,1-23.8,21.5,149.69,149.69,0,0,1-27.48,17c-2.42,1.19-4.89,2.26-7.35,3.35s-5,2.07-7.48,3c-5,1.9-10.09,3.64-15.22,5.16a286.63,286.63,0,0,1-31.13,7.5c9.79-4.31,19.75-8,29.58-11.95,4.92-1.95,9.81-3.93,14.65-6s9.64-4.18,14.35-6.47a234.5,234.5,0,0,0,27.36-15.41C206.66,465.11,215.3,458.91,224.33,453.16Z"/><path class="cls-6" d="M17.65,439.63c4.8,6.29,9.49,12.48,14.43,18.42s10.05,11.69,15.4,17.2,10.94,10.8,16.75,15.9,11.84,10,18,15a98.89,98.89,0,0,1-20.89-11.26,124.82,124.82,0,0,1-33-34A99.27,99.27,0,0,1,17.65,439.63Z"/><path class="cls-6" d="M21.15,353.7c4.75,11.24,9.52,22.35,14.71,33.25s10.69,21.61,16.6,32.1,12.2,20.76,18.85,30.83S85,469.81,92.11,479.7a212.41,212.41,0,0,1-24.64-27.08,259.2,259.2,0,0,1-35.93-63.81A212.36,212.36,0,0,1,21.15,353.7Z"/><path class="cls-6" d="M29.25,309.09a200.32,200.32,0,0,0,8.51,40.63c2.14,6.55,4.44,13,7.14,19.39s5.49,12.65,8.62,18.8c6.19,12.33,13.1,24.35,20.31,36.23s14.71,23.66,21.74,35.78c-9.06-10.68-17.65-21.72-25.66-33.23a290.72,290.72,0,0,1-21.75-36.1c-3.1-6.34-6-12.78-8.53-19.38A180.9,180.9,0,0,1,33.27,351,131.56,131.56,0,0,1,29.25,309.09Z"/><path class="cls-6" d="M41.66,267.91c2.36,8.46,4.59,16.81,7.08,25.07s5.21,16.41,8.17,24.47,6.21,16,9.67,23.91l2.63,5.92c.89,2,1.8,4,2.65,6a42.62,42.62,0,0,1,3.5,12.77,66.39,66.39,0,0,0-6.11-11.41l-3.51-5.5c-1.15-1.87-2.3-3.75-3.38-5.66a164.58,164.58,0,0,1-11.08-24,166.38,166.38,0,0,1-7.11-25.41A133.45,133.45,0,0,1,41.66,267.91Z"/><path class="cls-6" d="M55.2,298.51c4.43,8.75,8.46,17.61,12.48,26.46s7.94,17.71,11.86,26.58,7.82,17.75,11.67,26.67,7.67,17.87,11.15,27a250.37,250.37,0,0,1-15.39-25Q80,367.41,74.06,354T63.31,326.7A253,253,0,0,1,55.2,298.51Z"/><path class="cls-6" d="M55,219.23c4.18,12.5,8.35,24.89,12.75,37.19,1.14,3.07,2.27,6.13,3.35,9.21l3.41,9.18c1.19,3.05,2.3,6.12,3.45,9.18l3.54,9.13L95.79,329.7c4.74,12.22,9.43,24.48,13.58,37-6.44-11.5-12.33-23.24-17.89-35.15s-10.81-24-15.53-36.25L72.51,286c-1.1-3.11-2.24-6.2-3.29-9.31l-3-9.4c-1-3.15-1.9-6.31-2.82-9.48A276.78,276.78,0,0,1,55,219.23Z"/><path class="cls-6" d="M58.52,181.61c2.18,13.16,4.84,26.1,8.1,38.89q1.32,4.77,2.55,9.56l2.74,9.5c1,3.14,1.91,6.31,2.88,9.46l3.07,9.41C82,271,86.45,283.43,91,295.89s9.08,24.95,13.12,37.67C97.75,321.82,92,309.83,86.61,297.63S76.34,273,72.17,260.31l-3-9.57c-.92-3.22-1.86-6.43-2.73-9.65l-2.38-9.76c-.72-3.27-1.37-6.55-2-9.83A195.2,195.2,0,0,1,58.52,181.61Z"/><path class="cls-6" d="M74.46,149.05c2.17,12.31,3.74,24.66,6.94,36.46,3,11.8,8.48,22.79,13.07,34.52a286.62,286.62,0,0,1,11.19,35.86q4.47,18.21,7.2,36.74c-4.24-11.77-7.89-23.66-11.73-35.45s-7.77-23.5-12.25-35c-2.21-5.73-4.66-11.45-6.83-17.37a113.1,113.1,0,0,1-5.23-18.28C74.43,174.08,74.16,161.52,74.46,149.05Z"/><path class="cls-6" d="M83.17,123.57c1.85,12.68,3.68,25.26,5.88,37.77.6,3.12,1.19,6.24,1.72,9.36L92.62,180c.69,3.1,1.29,6.2,1.94,9.3l2.14,9.26c2.91,12.33,6.13,24.59,9.74,36.76S114,259.62,118,271.8a247.87,247.87,0,0,1-16-35A305.17,305.17,0,0,1,90.86,200l-2-9.42c-.59-3.15-1.23-6.3-1.78-9.47l-1.46-9.52c-.43-3.18-.8-6.37-1.16-9.56A250.41,250.41,0,0,1,83.17,123.57Z"/></g></g></g></svg>