<svg xmlns="http://www.w3.org/2000/svg" viewBox="0 0 317.14 602.08"><defs><style>.cls-1{fill:#99aa93;}.cls-1,.cls-3{stroke:#000;stroke-miterlimit:10;stroke-width:2px;}.cls-2{fill:#f0f1ed;}.cls-3{fill:#d2cdc2;}.cls-4{fill:#a89995;}.cls-5{fill:#8b918d;}.cls-6{fill:#959c9f;}.cls-7{fill:#8d968f;}.cls-8{fill:#a1a6ac;}.cls-9{fill:#99a7a1;}.cls-10{fill:#8e9b96;}.cls-11{fill:#a1a8a5;}.cls-12{fill:#9ea2a4;}.cls-13{fill:#909c92;}.cls-14{fill:#9b9f9d;}.cls-15{fill:#959b92;}.cls-16{fill:#8d998e;}.cls-17{fill:#90989b;}.cls-18{fill:#969d99;}.cls-19{fill:#8d9791;}.cls-20{fill:#8d948f;}.cls-21{fill:#8a908f;}.cls-22{fill:#878c82;}.cls-23{fill:#919898;}.cls-24{fill:#a2a8aa;}.cls-25{fill:#9ea5ae;}</style></defs><g id="Layer_2" data-name="Layer 2"><g id="plants"><g id="peacock1"><path class="cls-1" d="M83.5,56.1c-11.61,23-14.37,49.44-24.31,73.18-5.42,12.95-12.93,25-18,38.06-4.39,11.28-6.92,23.19-9.44,35L16.41,274.56C9,309.73,1.45,345.18,1,381.14s6.67,72.88,26.34,103c13.55,20.72,32.45,37.37,52.12,52.41,11.9,9.1,24.38,17.82,38.52,22.77,14.88,5.21,30.88,6,46.63,6.77,9.75.47,19.82.9,29-2.45,9.35-3.42,16.87-10.43,24.12-17.26,18.68-17.62,37.52-35.42,52.06-56.59,21-30.58,32.1-66.81,40.58-102.92,3.45-14.71,6.53-29.73,5.58-44.81-.75-11.85-4-23.39-6.69-35a416.16,416.16,0,0,1-11-94.72c0-14.63.72-29.53-3.3-43.6-4-13.85-12.28-26-18.15-39.14-6.87-15.42-10.37-32.22-17.74-47.41-10.66-22-28.74-39.37-46.44-56.24C192,6.31,170.78-5.34,142.43,4.65A106.14,106.14,0,0,0,83.5,56.1Z"/><path class="cls-2" d="M96.53,94.59a75.13,75.13,0,0,1,18.71,9.18,39.92,39.92,0,0,1,10.35,9.59c1.69,2.37,3,5,4.9,7.22.89,1,1.89,1.94,2.78,3a36.35,36.35,0,0,1,2.86,4l8.41,12.86c2.77,4.25,5.63,8.73,6,13.78.31,4-1,8.14-.13,12.09a3.6,3.6,0,0,1,0,2.38,2.25,2.25,0,0,1-2.48.9,13.2,13.2,0,0,1-2.58-1.15c-2.11-1-4.5-1.14-6.79-1.56A37.48,37.48,0,0,1,122.44,159a111.64,111.64,0,0,1-13-12.65l-8.67-9.4a41,41,0,0,1-5.7-7.2,38.93,38.93,0,0,1-3.49-9.65,52.84,52.84,0,0,1-1.52-7.34c-.55-4.8.12-9.65.79-14.44l-.5-2.61a13.78,13.78,0,0,1-6.4-10c-4,13-2.52,29.39,5.23,40.51-6.17-3.19-10.48-10-13.77-16.11A64.58,64.58,0,0,0,89.59,154.7c-5-1.26-18.4-23.19-18.4-23.46-1.77,9.23.24,21.95,2.42,30.18a33.32,33.32,0,0,1-8.36-22.5c-.13,14.24.36,29.59,9,40.93,5.34,7,13.16,11.61,20.26,16.85a120,120,0,0,1,46.22,74.09c.84,4.6.27,10.95-4.33,11.79-2.08.38-4.14-.66-6-1.74-39.1-23.28-65.34-69.35-74.22-113.6.5,4.51.21,34.47,7.83,47.14-6.1-4.66-10.34-13.87-12.83-21.14,1.74,20.33,8.91,42.85,21.25,59.09A111.41,111.41,0,0,1,44.8,214.54,67.31,67.31,0,0,0,51,242.11a15.36,15.36,0,0,1-8.16-12c-.23,25.7,19.35,45.56,37.31,61,16.18,13.93,27.33,32.9,38.09,51.34,6.88,11.79,13,26.13,7.6,38.65a147.39,147.39,0,0,1-76.22-87.51c-2.27-7.17-4-14.53-6.76-21.52-2.88-7.3-6.89-14.11-9.59-21.48.25,13.84,2.73,27.24,9.24,39.85a36.82,36.82,0,0,1-11.75-26.6A109.46,109.46,0,0,0,54.3,332.08a105.38,105.38,0,0,1-27.24-35.56,86.79,86.79,0,0,0,17.41,53.42c8.76,11.58,20.27,20.73,30.32,31.21,12.72,13.26,23,28.59,33.31,43.84,6.55,9.73,13.22,22.54,6.86,32.4-47.52-20.52-75.34-70.15-93.18-118.73a121.44,121.44,0,0,0,23.87,65.89A168.29,168.29,0,0,1,15.38,364.6c2.09,30.84,24.61,55.9,45.9,78.31l40.26,42.36c3,3.21,6.18,6.57,7.54,10.78s.36,9.53-3.44,11.8c-41.13-15.15-65-57-85.5-95.77A133.94,133.94,0,0,0,55.25,481.7a315.85,315.85,0,0,1-26.06-23.46c8.91,17.78,23.32,33.34,38.15,46.6l30.89,27.61c3.17,2.83,6.51,5.76,10.63,6.81,6.21,1.59,12.55-1.4,18.83-2.7,14.71-3,29.66,3.32,44.68,3.79,21.36.66,41.09-10.48,59.54-21.27l-13.45.72,17.41-15.11a207,207,0,0,1-39.43,11.77c25.92-13.15,53.9-28.49,64.65-55.49-8.19,2.24-14.66,8.32-21.13,13.81a212.15,212.15,0,0,1-106.54,48.08c-7.17,1-17.32-.74-17.27-8,0-4.41,4.25-7.47,8.09-9.63,48.31-27.1,109.41-31.2,150.16-68.72l-10,3.49A154.06,154.06,0,0,0,288.15,415a394.22,394.22,0,0,0-45.29,27.66,347.16,347.16,0,0,0,49.37-51.37,16.94,16.94,0,0,0-6.9,3.72,23.89,23.89,0,0,0,4-16.57c-10,8.93-21.61,18.43-35,17.67A95.65,95.65,0,0,0,295,362.22c0,1.83-3.1,2-4,.41s-.34-3.58.26-5.3l7-19.94-42.4,31.2c17.6-15.57,36.48-33.61,38.14-57a126.31,126.31,0,0,0-18.45,23,90.08,90.08,0,0,0,17.31-53.09,61.57,61.57,0,0,1-5.63,8.73l-3,6.1c-4.19,6.47-7.51,13.39-11.69,19.85-12.35,19.08-25.17,38.66-43.83,51.63A159.31,159.31,0,0,1,210.85,378c-18.35,9.5-37.41,18.42-57.85,21.46-4.65.7-9.48,1.07-14-.3a3.87,3.87,0,0,1-2.17-1.29,3.77,3.77,0,0,1-.53-2.09c-.18-6.61,4.32-12.39,9.08-17,10.79-10.42,24-18,37-25.43l22.34-12.78c5.16-2.95,10.33-5.91,15.75-8.36,3.62-1.64,7.34-3,11-4.71a88.36,88.36,0,0,0,18.78-11.66l4.23-3.36a102.43,102.43,0,0,0,30.26-46.27,126.88,126.88,0,0,0-23.51,26c9.64-12.55,19.66-30.69,19-47-8.94,11.37-24.49,32.38-38,40,16.91-15.26,35.42-48.25,39-69-5.06,7.77-20.13,26-28,31,10.85-6.06,35.41-50.85,27-67l-8.72,15.12q-4.22,6.31-8.14,12.82c-2.48,4.1-4.91,8.36-5.84,13.06-.68,3.44-.53,7-1.32,10.41-2.12,9.06-10.22,15.19-16.75,21.81-3.32,3.36-6.34,7-9.6,10.44-16.13,16.93-38.11,27.74-61,32.27-5,1-11.16,1.15-13.81-3.14-1.51-2.43-1.24-5.64,0-8.24a25.13,25.13,0,0,1,5.25-6.74q11.69-11.85,24.12-22.91c8.58-7.63,17.41-15,26.24-22.29,2.78-2.31,12.27-9.3,15.65-10.61,20.3-7.85,59.42-49.77,45-64-2.92,9-7.42,20.78-13.93,27.71,7.58-13.73,9.31-32.2,6.93-47.71-6.48,15.46-13.92,31.25-25.09,40.45,12.32-17.3,18.25-40.66,16.09-61.45-5.61,11.26-12.51,24.32-21.77,32.84,9.77-14.61,15.17-36.27,14.77-53.84-1,3.84-2.95,10-5.57,10.31-.18-6.92-.25-13.39-.43-20.31a47.87,47.87,0,0,1-16.34,24.56,92.44,92.44,0,0,0,4.73-39.07l-5.33,11.18a28.91,28.91,0,0,0-3.19-21.51L211.25,87.11a71.47,71.47,0,0,0,2-44.59l-8,19.47c3.7-8.73-3.82-28.94-4.06-31.75.09,7.76-4.16,17.28-9.83,22.57a87.77,87.77,0,0,0,1.82-27.47c-.55,3.41-7.2.8-5.29-2.07l-9,26.73a64,64,0,0,0,3.62-36.1c.85,1.87-2.21,3.49-3.91,2.35s-2.1-3.43-2.35-5.46A47.43,47.43,0,0,1,169,29.32a33.35,33.35,0,0,0-.34-25.92,11.2,11.2,0,0,0-6,10.28l-.61-8.18a26.33,26.33,0,0,0-8,21.06l-4.29-19c-3.5,4.92-9.24,9.4-8,15.31a7.8,7.8,0,0,1-4.59-7.53,23.4,23.4,0,0,0-3,15.43A9.14,9.14,0,0,1,129,20.44a3.45,3.45,0,0,0-3.16,4.5l-3.38-3.77a92.11,92.11,0,0,0-.81,18.48c-4.19.3-7.57,6.92-7.35,14.6a17.31,17.31,0,0,1-8.64-15.14,57.61,57.61,0,0,0,4.82,30.58A21.56,21.56,0,0,1,98,57.36l2.88,23.72a16.41,16.41,0,0,1-6.52-17.14,137,137,0,0,0-2,24.77Z"/><path class="cls-3" d="M111.78,549.41q-1.75,23.72-5,47.3c-.26,1.9-1,4.29-3,4.36-2.31.1-3-3.1-2.83-5.41a1576.36,1576.36,0,0,1,23-187.53c2-10.76,1.42-21.74,3.76-32.43,17.48-80,22.34-162.1,27.15-243.83,2.12-36,1.42-72.7-8.24-107.47,7.38,6.32,8.71,17.05,9.37,26.74,9.18,134.78-11.73,269.59-32.57,403.06C118.53,485.43,114.11,517.89,111.78,549.41Z"/><path class="cls-4" d="M115.6,486c-.44,5.08-.75,10.17-1.12,15.25-1.33,18.24-2.35,35.91-5.29,54-3-2-2.24-9.19-1.84-14.07q2.79-34.83,8.17-69.37c.68-4.4,3.38-31.94,7.78-32.22.13,3.23-1.57,7.37-2.28,10.65q-1.29,6-2.33,12Q116.65,474,115.6,486Z"/><path class="cls-5" d="M68.19,450.24c6.34,6.09,15.72,17.85,22,24,3.57,3.51,10.12,10.83,14,14,6,4.92,5.72,15.53,1,19-5.1,1.64-14.78-4.22-19.52-6.7s-9.5-5.54-12.48-10c-6-8.93-20.69-24.57-27.19-32.7C35.23,444.41,63.45,445.7,68.19,450.24Z"/><path class="cls-6" d="M83.19,391.24c10.15,11.78,23.55,32.95,32,46,2,3.15.49,16.29,0,20-5.52-.15-15.6-7.71-20.1-10.9C80.62,436.06,65.86,425.49,55.68,411c-3.49-5-16.09-38.1-3.49-39.71C60.32,370.21,78.58,385.91,83.19,391.24Z"/><path class="cls-7" d="M126.19,362.24c2.42,3.28.38,14.95,0,19-19.64-7-39.17-26.95-52.71-42.79-7.78-9.1-15.56-18.82-19.59-30.24-3.93-11.13,8.37-32.61,18.3-25,10.24,7.9,23.92,24.95,32,35C113.26,329.55,117.57,350.59,126.19,362.24Z"/><path class="cls-8" d="M134.46,337.83a2.21,2.21,0,0,1-.57,1.61c-.65.53-1.62.17-2.37-.22A64.14,64.14,0,0,1,114,325.66c-6.66-7.31-9.49-23.66,5.23-19.79C132,309.24,135.2,326.72,134.46,337.83Z"/><path class="cls-9" d="M134.19,249.24c6.05,10.56,5.84,30.52,2,33-5.12-.07-13.76-9.09-17.7-12.37-10.73-8.93-21-18.52-29.77-29.47-6.14-7.72-20.93-26.18-18.85-36.93,2.82-14.58,26.95-5.58,31.32-1.23C111.68,212.7,126.77,236.32,134.19,249.24Z"/><path class="cls-10" d="M147.74,234.44c-4.69,1-9.2-2.18-12.75-5.42-6.05-5.51-15.67-13.8-18.28-21.82-2.2-6.77,1.38-13.63,8.9-12.55C141.1,196.88,149.93,221.59,147.74,234.44Z"/><path class="cls-11" d="M136.19,127.24c7.15,10.86,18.44,31.3,14,39-.41.7-10,.87-10.77.7-11.43-2.61-20.15-11.57-28.18-20.11-6-6.42-12.06-12.73-16-20.59-3.92-7.69-7.79-32.36,9-28C118.33,101.92,129.61,117.26,136.19,127.24Z"/><path class="cls-12" d="M137.32,105.82c2.9-.72,5.89.64,8.48,2.15,2.9,1.69,5.75,3.69,7.52,6.55s2.2,6.75.3,9.51c-2.31,3.35-7.35,3.91-11,2.07s-6-5.47-7.59-9.21c-1.71-4-2.27-9.58,1.34-12.09"/><path class="cls-13" d="M149.24,61.09c1.91,5,1.64,10.48,1.33,15.81a3.12,3.12,0,0,1-.36,1.54,2.78,2.78,0,0,1-1.64,1c-6,1.67-11.94-2.28-16.9-6L124.51,68c-2.89-2.18-5.82-4.4-7.87-7.37-5.89-8.53-6.24-21.77,6.85-20.17C133.3,41.7,145.73,52,149.24,61.09Z"/><path class="cls-14" d="M169.62,34.51c1.48,4.29,2.45,9.07.77,13.28s-6.91,7.23-10.91,5.09c-3.76-2-4.45-7.48-2.42-11.22s6-6,9.86-7.72l3.1,2.41"/><path class="cls-15" d="M200.4,66.87c.88,5,.73,10.56-2.09,14.84-1.7,2.56-4.21,4.46-6.26,6.75-1.91,2.13-3.43,4.6-5.52,6.55-5.2,4.83-12.86,5.58-19.93,6.09a6.21,6.21,0,0,1-2.72-.22,4.55,4.55,0,0,1-2.26-2.35C159,93.28,162,87.1,165,82.08c5-8.45,10.45-17,17.85-23.62,2.28-2,8.14-7.83,11.44-6.76S199.88,63.93,200.4,66.87Z"/><path class="cls-16" d="M166.5,148.8a6.85,6.85,0,0,1-3.15-.4,5.7,5.7,0,0,1-2.51-2.42,10.73,10.73,0,0,1-.1-9.43,22.88,22.88,0,0,1,6-7.6c2.75-2.44,6-4.68,9.63-5C193.68,122.22,179.19,148.09,166.5,148.8Z"/><path class="cls-17" d="M166.81,252a13.38,13.38,0,0,1-6.8.83c-4.39-.91-7.18-5.75-6.86-10.21s3.11-8.43,6.5-11.36,7.39-5,11.14-7.47c3.16-2.06,6.17-4.38,9.61-5.92s7.47-2.23,11-.85C210.9,224.64,174.59,249.43,166.81,252Z"/><path class="cls-18" d="M233,133.8a45.16,45.16,0,0,1-5.12,10.44c-6.62,10.84-14.06,21.4-23.88,29.45s-22.34,13.43-35,12.61a6,6,0,0,1-2.41-.54,4.56,4.56,0,0,1-1.93-2.55c-1.81-5.17,1.82-10.52,5.24-14.79L207,122.14c3-3.73,6.09-7.56,10.3-9.83C233.19,103.71,236.39,122.51,233,133.8Z"/><path class="cls-19" d="M246.77,241.64c-20.7,26-47.75,49.93-80.72,54.2-2.38.31-4.94.48-7-.68-3.71-2-4.27-7.45-2.38-11.24s5.5-6.37,8.86-8.95c24.66-18.94,43.61-46.09,72.14-58.46,5.43-2.35,16.43-5.38,19.32,2C259.74,225.53,250.73,236.68,246.77,241.64Z"/><path class="cls-20" d="M271.64,315.08c-6.75,11.62-13.56,23.33-22.57,33.3-16,17.76-38,28.87-59.44,39.49-13.65,6.76-28.09,13.65-43.31,12.86-4.79-.25-10.7-2.53-10.79-7.34-.06-3,2.28-5.41,4.47-7.45,29.54-27.41,63.89-51.17,103.07-60.61,4.9-1.18,10.76-1.9,14.39,1.62s2.34,10.94-2.45,12.94"/><path class="cls-21" d="M211.57,440.24c-8.52,5.7-17.64,10.44-26.74,15.16-15.65,8.13-32.36,16.49-49.94,15.12-2.64-.21-5.39-.69-7.47-2.32-3.17-2.49-4-7.16-2.79-11s4-7,7-9.6c6.67-5.77,14.68-9.7,22.6-13.57l43.61-21.33c8.18-4,57.31-29.59,62.85-16.07,2.68,6.56-15.87,17-20.47,20.86C231,425.37,221.75,433.45,211.57,440.24Z"/><path class="cls-22" d="M134.87,521.63c-3.46.41-7.05.71-10.35-.42s-6.22-4-6.28-7.51c-.09-4.87,4.93-8,9.33-10.15A554.14,554.14,0,0,1,225,467.71c4-1,12.25-2.93,13.6,2.9,1.05,4.47-6.34,8.66-9.26,11a186,186,0,0,1-94.51,40Z"/><path class="cls-23" d="M140.83,348.58c1.07-3.27,3.59-5.84,6-8.27l4-4.05c4.69-4.68,9.55-9.48,15.68-12s13.91-2.27,18.61,2.41a7.48,7.48,0,0,1,2.5,6c-.3,2.35-2.13,4.18-3.92,5.73a79,79,0,0,1-25.94,14.9C152.14,355.24,136.76,361,140.83,348.58Z"/><path class="cls-24" d="M138.32,434a3.63,3.63,0,0,1-1.54.78c-1.82.52-4.08.29-5.16-1.26a3.68,3.68,0,0,1,.12-4.06,5.48,5.48,0,0,1,3.6-2.15,8.92,8.92,0,0,0,3.22-.74,15.06,15.06,0,0,0,2-2A8.64,8.64,0,0,1,143.6,423c1.13-.41,2.42-.81,3.47-.23a2.81,2.81,0,0,1,.89,3.58,6.76,6.76,0,0,1-2.88,2.77,3.29,3.29,0,0,1-1.18.49c-1.52.21-3-1.29-4.29,0C138.51,430.69,139.59,432.79,138.32,434Z"/><path class="cls-25" d="M165.35,222.35c-1.19.64-2.6.87-3.68,1.69s-1.75,2.3-2.68,3.42a1.24,1.24,0,0,1-.57.47c-.64.22-1.25-.51-1.31-1.19-.15-1.86,1.95-3.15,2.38-5,.16-.66.08-1.36.25-2,.41-1.62,2.07-2.53,3.58-3.24,1.76-.84,4.38-2.93,5.2-.15C169.17,218.58,167.21,221.37,165.35,222.35Z"/></g></g></g></svg>