<svg xmlns="http://www.w3.org/2000/svg" viewBox="0 0 334.52 691.26"><defs><style>.cls-1{fill:#b0bb9e;}.cls-2{fill:#abc49b;}.cls-3{fill:#e0eaab;}.cls-4{fill:#ebf5c1;}.cls-5{fill:#f9f7e3;}.cls-6{fill:#bed9a9;}.cls-7{fill:#b7d1a4;}.cls-8{fill:#afc9a0;}.cls-9{fill:#c3d7ad;}.cls-10{fill:#a6bd96;}.cls-11{fill:#aebfa6;}.cls-12{fill:#d4dfc5;}.cls-13{fill:#c2ceb6;}.cls-14{fill:#ddedbf;}.cls-15{fill:none;}.cls-16{fill:#d3e6b8;}.cls-17{fill:#a6bb9c;}.cls-18{fill:#95a78d;}.cls-19{fill:#b2c7a0;}.cls-20{fill:#c3d3b3;}.cls-21{fill:#abc1a0;}.cls-22{fill:#ccccaf;}.cls-23{fill:#a7bc9c;}.cls-24{fill:#cae0bc;}.cls-25{fill:#e5f6bb;}.cls-26{fill:#bbd1a3;}.cls-27{fill:#bacfa6;}.cls-28{fill:#b3caa7;}.cls-29{fill:#afc4a3;}.cls-30{fill:#b6cbab;}.cls-31{fill:#b6cbac;}.cls-32{fill:#b5caab;}.cls-33{fill:#9cb090;}.cls-34{fill:#a4b895;}.cls-35{fill:#a0b591;}.cls-36{fill:#9aac8d;}.cls-37{fill:#afc69f;}.cls-38{fill:#e4f5b5;}.cls-39{fill:#dff4a8;}.cls-40{fill:#c5dab0;}.cls-41{fill:#afc59d;}.cls-42{fill:#bed4a1;}.cls-43{fill:#b4c998;}.cls-44{fill:#a8ba9c;}.cls-45{fill:#b7cbac;}.cls-46{fill:#bad0ac;}.cls-47{fill:#b4c8aa;}.cls-48{fill:#cde7a8;}.cls-49{fill:#d5e6bf;}.cls-50{fill:#bcd2b1;}.cls-51{fill:#afc6a5;}.cls-52{fill:#9dad8e;}.cls-53{fill:#b7cda4;}.cls-54{fill:#d2e3ad;}.cls-55{fill:#e7f5b0;}.cls-56{fill:#d9e9ae;}.cls-57{fill:#cfeab5;}.cls-58{fill:#d4e9b3;}.cls-59{fill:#c3daae;}.cls-60{fill:#c6ddb0;}.cls-61{fill:#bad0a8;}</style></defs><g id="Layer_2" data-name="Layer 2"><g id="plants2"><g id="pothos2"><path class="cls-1" d="M219.19,657.76c-3.69-1.87-7,2.88-10.46,5.15-4.92,3.24-11.45,1.34-17-.66-17.06-31.73-25.3-67.11-37.6-101-1.78-4.89-9.15-25.61-11.12-31.13-2.87-8-3.35-16.66-3.8-25.16-.8-15.18-1.6-30.37-1.57-45.57,0-18.13,1.29-36.28.07-54.4-.19-2.69,0-6.45,0-10.11,3.47,1.55,7.58,2.6,10.85.73s3.69-8.22-.12-9.09c-1.46-.33-3,.23-4.49-.13-2.48-.61-3.58-3.44-4.3-5.89l-15.45-52.39c-4.12-13.94-8.24-27.92-10.66-42.26-3.9-23-3.32-34.86-1.75-59.23.92-14.17,1.6-41.14,3.42-54.59,9.63,16.16,35.84-14,37.53-37.53-8.72,14-22.66,35.81-30.71,34.12-3.41,0-10.15-31-11.52-36.23-2.52-9.58-5.49-19.12-7.45-28.84-5.46-27-6.51-67.82-4.91-95.3.4-7-.29-3.37-6.81-5.88C88,39,89.34,75.84,98.21,110.64c4.39,17.25,8.46,30.06,10.23,47.77,3.08,30.7-3.41,71.65-3.41,81.89,0,9.22-1.49,19.93,0,34.12,1,9.95,4.53,22.3,6.82,34.12,4.78,24.57,14,53.85,14.26,70.78.1,5.55,1.08,7.79,2.47,8.87a342.4,342.4,0,0,0,0,43.45c1.7,24.48-.45,49.13,1.75,73.57a207.38,207.38,0,0,0,4.1,26.35c8.23,37,26.46,71.13,36.78,107.65,3.36,11.89,8.91,20.76,19.15,27.58,6.39,4.27,14.69,4.3,22.11,2.32,2.77-.75,5.71-1.66,7.53-3.88S221.75,659.07,219.19,657.76Z"/><path d="M203.25,672.09a24.73,24.73,0,0,1-13.87-3.88c-10-6.68-16.15-15.49-19.84-28.54-4.55-16.08-10.75-32-16.75-47.37-7.59-19.47-15.44-39.59-20-60.37a210.71,210.71,0,0,1-4.14-26.56c-1.17-13-1.11-26.33-1.06-39.17,0-11.31.1-23-.7-34.44a344.46,344.46,0,0,1,0-42.88c-1.61-1.74-2.34-4.69-2.42-9.53-.18-10.71-4-26.46-8-43.13-2.21-9.13-4.49-18.56-6.2-27.36-.82-4.22-1.8-8.51-2.76-12.74-1.75-7.73-3.41-15-4.09-21.52a158.6,158.6,0,0,1-.3-25.29c.15-3.19.29-6.17.29-9,0-3,.55-8.65,1.25-15.74,1.73-17.65,4.34-44.32,2.17-66-1.42-14.2-4.34-25.26-7.72-38.06-.8-3-1.63-6.17-2.47-9.46C88.28,78.6,86,42,89.7,2.24L89.91,0,92,.81a14.59,14.59,0,0,0,4.39,1c3.72.34,3.77,2.15,3.51,6.58-1.53,26.46-.66,67.43,4.88,94.86,1.35,6.7,3.23,13.45,5,20,.81,2.92,1.62,5.84,2.39,8.77.23.85.59,2.39,1.07,4.37,4.45,18.67,7.55,29,9.22,30.63,7.19,1.34,22.91-23.86,28.84-33.37l3.64-5.84-.49,6.87C153.24,152.3,138,175,125.33,178a9.77,9.77,0,0,1-8.83-1.84c-1,9.19-1.56,22.26-2.1,34-.28,6.27-.55,12.1-.84,16.63-1.58,24.44-2.12,36.2,1.72,58.84,2.41,14.26,6.58,28.39,10.61,42.06l15.45,52.39c.59,2,1.47,4.32,3.08,4.71a5.84,5.84,0,0,0,1.74,0,8.72,8.72,0,0,1,2.72.1,5.28,5.28,0,0,1,4,4.64,7.67,7.67,0,0,1-3.42,7.59c-2.67,1.53-6,1.62-10,.28l0,1.6c0,2.21-.1,4.29,0,5.91.83,12.25.53,24.69.24,36.72-.15,5.93-.29,11.86-.3,17.79,0,15.13.78,30.53,1.56,45.41.44,8.34.9,16.9,3.7,24.74l3.43,9.61c2.89,8.1,6.52,18.28,7.69,21.52,3.86,10.62,7.37,21.54,10.76,32.1,7.35,22.89,15,46.54,26.43,68.06,5.42,1.92,10.91,3.22,14.85.63a28.88,28.88,0,0,0,2.61-2.08c2.61-2.25,5.86-5,9.56-3.17h0a5.44,5.44,0,0,1,2.83,3.86,7.59,7.59,0,0,1-1.5,6.22c-2.12,2.58-5.32,3.61-8.41,4.43A37,37,0,0,1,203.25,672.09ZM92.91,4.68c-3.42,38.54-1.08,74,7,105.54.83,3.28,1.66,6.4,2.46,9.43,3.42,12.94,6.37,24.12,7.82,38.59,2.2,22-.43,48.87-2.18,66.65-.68,7-1.22,12.53-1.22,15.41s-.15,5.93-.3,9.17a154.27,154.27,0,0,0,.29,24.77c.65,6.28,2.29,13.49,4,21.13,1,4.26,2,8.58,2.78,12.84,1.69,8.72,4,18.12,6.17,27.21,4.08,16.86,7.93,32.78,8.12,43.87.07,4.19.66,6.66,1.81,7.55l.71.56-.06.9a342.48,342.48,0,0,0,0,43.22c.8,11.56.75,23.32.7,34.69,0,12.77-.11,26,1.05,38.85a205.72,205.72,0,0,0,4.07,26.13c4.56,20.52,12.36,40.52,19.9,59.87,6,15.46,12.26,31.44,16.85,47.68,3.45,12.22,9.15,20.43,18.46,26.64,7.1,4.74,16,3.34,20.71,2.08,2.56-.69,5.18-1.5,6.66-3.31a4.17,4.17,0,0,0,.8-3.35,2.08,2.08,0,0,0-1-1.51h0c-1.56-.8-3.22.49-5.78,2.7a31.11,31.11,0,0,1-3,2.35c-5.34,3.52-12,1.84-18.5-.49l-.62-.22-.31-.58c-11.8-21.94-19.51-46-27-69.2-3.38-10.54-6.88-21.43-10.72-32-1.17-3.23-4.8-13.42-7.7-21.54l-3.42-9.6c-3-8.31-3.44-17.12-3.89-25.64-.79-15-1.61-30.44-1.57-45.67,0-6,.15-11.91.3-17.86.28-11.95.58-24.31-.24-36.41-.12-1.77-.07-3.93,0-6.22,0-1.31.06-2.67.06-4v-2.63l2.4,1.08c4,1.78,7.13,2.05,9.31.8a4.26,4.26,0,0,0,1.73-4.14,2,2,0,0,0-1.39-1.81,6.09,6.09,0,0,0-1.72,0,8.9,8.9,0,0,1-2.79-.11c-3.72-.91-5-5.22-5.54-7.06l-15.45-52.4c-4.06-13.76-8.26-28-10.71-42.45-3.89-23-3.35-34.91-1.76-59.63.29-4.51.56-10.32.85-16.57.62-13.55,1.33-28.9,2.57-38.14l.66-4.84,2.5,4.2c1.88,3.14,4.43,4.28,7.81,3.48,8.66-2,20.65-16.77,25-31.79-9.78,15.16-20.07,28.85-27.65,27.46-2.82-.23-5.3-5.47-11.91-33.19-.47-2-.83-3.46-1-4.29-.76-2.92-1.57-5.82-2.38-8.73-1.83-6.59-3.72-13.39-5.1-20.21C95.85,76.19,95,34.85,96.5,8.19a28.79,28.79,0,0,0,.07-2.94l-.47,0A17.85,17.85,0,0,1,92.91,4.68Z"/><path class="cls-2" d="M105.61,63.14C100.32,56.35,91.5,53.38,83,51.82c-6.13-1.12-12.46-1.7-18.58-.53C50.42,54,39.76,65.08,30.36,75.83,22,85.43,13.69,95.26,3.94,103.49A594,594,0,0,0,100.52,111c5.42,0,12-.79,14.26-5.7,4-8.5-7.46-12-8-19.34C106.23,77.38,112.15,71.54,105.61,63.14Z"/><path d="M98.43,112.75a597.84,597.84,0,0,1-94.76-7.58L0,104.59l2.84-2.4c8.66-7.31,16.29-16.07,23.67-24.54l2.57-3c9.78-11.18,20.55-22.34,35.05-25.09,5.46-1,11.56-.87,19.21.54,11.24,2.06,19,6,23.62,12s3.59,11.08,2.5,15.93a26.79,26.79,0,0,0-.94,7.85c.17,2.52,2,4.64,4,6.88,2.91,3.28,6.54,7.36,3.76,13.3s-10.35,6.67-15.8,6.69ZM7.82,102.37a599.25,599.25,0,0,0,92.7,7c7.18,0,11.22-1.52,12.72-4.71,1.74-3.73-.09-6.07-3.23-9.59-2.17-2.45-4.64-5.23-4.9-8.91a30.14,30.14,0,0,1,1-8.83c1-4.64,1.86-8.31-1.87-13.1h0c-4.11-5.28-11.16-8.78-21.54-10.69C75.51,52.18,69.8,52,64.76,53,51.34,55.51,41,66.21,31.64,77l-2.56,2.94C22.41,87.55,15.53,95.44,7.82,102.37Z"/><path class="cls-3" d="M97.21,107.41c4.67,0,9.66-.08,13.52-2.71,1.28-.87,2.47-2.2,2.37-3.74a5.13,5.13,0,0,0-.76-2.09,30.37,30.37,0,0,0-4.64-6.28C99.35,83.88,96.64,102.26,97.21,107.41Z"/><path class="cls-4" d="M101.54,70a13.49,13.49,0,0,1,3.86,8.1,8,8,0,0,1-.31,3.76,3.91,3.91,0,0,1-2.69,2.48c-1.72.37-3.39-.77-4.68-2-2.48-2.33-9.39-10.52-7.46-14.4C92,64.39,99.53,68.05,101.54,70Z"/><path class="cls-5" d="M103.08,101.9c-1.31,1-3.33,1.58-4.46.4a3.27,3.27,0,0,1-.72-1.47,8.6,8.6,0,0,1,.44-5.57,5.15,5.15,0,0,1,1.46-2c1.25-1,3-1.07,4.55-1.12a1.86,1.86,0,0,1,1.68.53,1.82,1.82,0,0,1,.24.86,27.11,27.11,0,0,1,0,4A14.64,14.64,0,0,1,103.08,101.9Z"/><path class="cls-6" d="M77.8,94.69c-.45,0,3.24-3.82,3.69-4.13,1.06-.74,3-2,4.23-.55C88,92.67,79.62,94.88,77.8,94.69Z"/><path class="cls-7" d="M65,100.23c-2.81,1.75-6.13,3.18-9.35,2.43-.52-1,.48-2.16,1.4-2.85,5.62-4.22,12.29-6.77,18.85-9.27a1,1,0,0,1,.52-.1.72.72,0,0,1,.5.87,2.21,2.21,0,0,1-.59,1C73.09,95.8,69.08,97.68,65,100.23Z"/><path class="cls-8" d="M74.84,74.33a8.79,8.79,0,0,1-4.61-1.44c-.51-.33-1-.91-.79-1.47a11.11,11.11,0,0,1,5.25.82A1.91,1.91,0,0,1,76,73.37c.13.57-.58,1.23-1,.85"/><path class="cls-9" d="M95,79.11a3.77,3.77,0,0,1-3.85,2.25,6.16,6.16,0,0,1-4-2.32c-1.89-2.24-3.45-7.29.92-7.73C91.28,71,96.18,75.77,95,79.11Z"/><path class="cls-10" d="M65.85,89.34l-.28-1.68a138.89,138.89,0,0,1,38.09-1.2l-.18,1.7A137.14,137.14,0,0,0,65.85,89.34Z"/><path class="cls-11" d="M135.77,115.56c1.42-7.06,6.39-13.09,12.57-16.78s13.46-5.2,20.66-5.39a41.89,41.89,0,0,1,15.25,2.15,44.58,44.58,0,0,1,11.56,6.56c11,8.33,19.48,19.53,27.79,30.57l9,12c2.68,3.57,5.41,7.22,6.79,11.47-4.69-1.09-4.18-1.11-6.51-1.39-25.48-3.11-41.18-.79-61.5-4.42-6.25-1.12-12.61-2.28-18.24-5.23C143.78,140.14,133.52,126.66,135.77,115.56Z"/><path d="M241.94,158.44l-2.94-.69c-1.55-.36-2.53-.6-3.24-.78a19.8,19.8,0,0,0-3.1-.58,303,303,0,0,0-30.78-1.95c-10.24-.28-19.91-.54-30.81-2.49-6.3-1.12-12.82-2.29-18.73-5.39-10.51-5.51-20.59-19.74-18.25-31.34,1.45-7.17,6.33-13.7,13.37-17.91,5.9-3.51,13.13-5.41,21.49-5.62a43,43,0,0,1,15.88,2.25,45.77,45.77,0,0,1,12,6.8c11.31,8.53,19.86,19.91,28.14,30.9l9,12c2.61,3.48,5.57,7.42,7.06,12ZM170.52,95.08l-1.48,0c-7.77.2-14.44,1.93-19.83,5.14-6.13,3.66-10.53,9.51-11.77,15.66h0c-2.15,10.64,8.15,23.27,16.49,27.64,5.44,2.86,11.69,4,17.74,5.06,10.64,1.9,20.19,2.16,30.3,2.42a305.66,305.66,0,0,1,31.11,2,21.32,21.32,0,0,1,3.45.64,53.72,53.72,0,0,0-5.31-8l-9-11.94c-8.13-10.82-16.54-22-27.46-30.24a42.39,42.39,0,0,0-11.1-6.31A38.43,38.43,0,0,0,170.52,95.08Z"/><path class="cls-12" d="M226.3,150.67c.66.36,1.41,1.19.89,1.74a1.33,1.33,0,0,1-.92.26l-3.28.06a13.29,13.29,0,0,1-3.83-.29,13,13,0,0,1-3.08-1.47,136.6,136.6,0,0,1-12.3-8.24c-1.29-1-3.81-4.17-.84-4.81,1.74-.37,4.77,2.38,6.18,3.18C214.82,144.33,220.57,147.48,226.3,150.67Z"/><path class="cls-13" d="M202.27,134.82A67.17,67.17,0,0,1,229.36,145c2.17,1.42,4.37,3.11,5.23,5.55a3.85,3.85,0,0,1-3.06-.54l-17.4-8.56C212.62,140.74,201.94,136.21,202.27,134.82Z"/><path class="cls-14" d="M178.38,141.83c1.66.39,3.35.68,5,1.23a16.09,16.09,0,0,1,3.11,1.47c.54.33,1.12.83,1,1.45a1.17,1.17,0,0,1-1,.91,3.27,3.27,0,0,1-1.42-.13c-2.42-.61-4.79-1.37-7.13-2.19-1.59-.55-5.94-1.3-6.95-2.65C169,139.21,177.49,141.62,178.38,141.83Z"/><path class="cls-15" d="M177.29,135.07l-3-.95a8.1,8.1,0,0,0-1.75-.41,7.71,7.71,0,0,0-1.44,0l-5.14.49c-.63.06-1.45.32-1.42,1s1,.8,1.72.73c3.95-.4,7.78.87,11.55,1.86,1,.25,4.33,1.65,4-.23C181.47,136.1,178.43,135.43,177.29,135.07Z"/><path class="cls-16" d="M198.45,109.58a3.68,3.68,0,0,1-2.25-3.11.68.68,0,0,1,.07-.4c.2-.38.75-.33,1.16-.2,1.89.6,4.32,1.83,4.94,3.86A4.84,4.84,0,0,1,198.45,109.58Z"/><path class="cls-17" d="M169.48,104.06a20.11,20.11,0,0,1,1.65,7.45q.35,4.15.37,8.34a11.38,11.38,0,0,1-.59,4.5c-1.35,3.29-5.13,4.7-8.52,5.76L152,133.38a12.65,12.65,0,0,1-5.58.86,8.6,8.6,0,0,1-5.9-4.48,25.51,25.51,0,0,1-2.37-7.27,17.06,17.06,0,0,1-.57-6.06c.39-2.54,1.89-4.75,3.36-6.86,3.24-4.65,6.93-9.63,12.4-11.12,2.7-.73,7.11-2.41,9.51-1A16.63,16.63,0,0,1,169.48,104.06Z"/><path class="cls-18" d="M216.59,144.79a31.14,31.14,0,0,1-7.55-3.57c-1.35-.8-2.74-1.62-4.15-2.28a47,47,0,0,0-8.67-2.81c-7.58-1.89-15.74-3.62-24.08-3.62H172c-8.94,0-16.93,2.15-23.11,6.18l-.93-1.43c6.46-4.21,14.77-6.44,24-6.46h.13c8.52,0,16.81,1.76,24.49,3.67a48.69,48.69,0,0,1,9,2.92c1.48.7,2.91,1.54,4.29,2.36a29.68,29.68,0,0,0,7.12,3.39Z"/><path class="cls-19" d="M174.45,134.29a13.67,13.67,0,0,1,7.77,2.78.83.83,0,0,1,.37.57c0,.31-.3.52-.58.64a5.55,5.55,0,0,1-4.2.09c-1-.39-1.86-1.06-2.86-1.4a9.63,9.63,0,0,0-2.73-.38l-6.38-.26c-1.22-.05-2.83-.15-3.29-1.44,1.24-.86,3.14-.19,4.6-.2C169.6,134.67,172,134.14,174.45,134.29Z"/><path class="cls-20" d="M198.75,148.07l5.19,2.9c.27.16.58.38.55.69s-.57.5-1,.48c-3-.16-14.93-2.54-14.16-7.2C192.57,144.44,196.05,146.55,198.75,148.07Z"/><path class="cls-21" d="M111.85,271c3.42,6.82-1.15,9.67-3.41,13.64-1.59,2.82-4.53,7-6,9.86-2.32,4.52-5.77,8.35-9.28,12a283.81,283.81,0,0,1-50.95,42.18C33.89,354.1,25,359.27,19.29,367.35q1.49-25.53,4.38-51c1.46-12.8,3.29-25.9,9.38-37.25,3.22-6,7.53-11.31,11.93-16.49a39.85,39.85,0,0,1,6.41-6.44c5.24-3.91,11.93-5.17,18.36-6.32,7.23-1.29,15.41-2.38,21.28,2,5.53,4.15,7.18,15.66,7.18,19.08S109,265.32,111.85,271Z"/><path d="M17.25,373.17l.34-5.92c1-17,2.45-34.16,4.38-51.05,1.53-13.39,3.41-26.36,9.58-37.85,3.38-6.3,7.84-11.75,12.13-16.79a41.23,41.23,0,0,1,6.69-6.71c5.67-4.23,12.79-5.5,19.08-6.63,8-1.42,16.27-2.41,22.61,2.35,5.82,4.37,7.53,15.13,7.81,19.32.58-.2,1.33-.49,1.94-.73,3.44-1.37,9.21-3.65,11.57,1.08h0c3.12,6.24.38,9.92-1.82,12.88a23.2,23.2,0,0,0-1.63,2.37c-.7,1.23-1.64,2.71-2.62,4.23-1.25,2-2.55,4-3.36,5.57-2.46,4.8-6.07,8.77-9.56,12.42a285.24,285.24,0,0,1-51.25,42.44l-2.55,1.63c-7.34,4.71-14.94,9.57-19.9,16.56ZM80,250.47a58.17,58.17,0,0,0-9.92,1.11c-5.91,1.06-12.62,2.26-17.64,6a39.12,39.12,0,0,0-6.14,6.19c-4.16,4.9-8.5,10.19-11.72,16.19-5.88,11-7.7,23.58-9.19,36.63-1.72,15.09-3.08,30.41-4.05,45.62,5-5.35,11.31-9.38,17.44-13.3l2.53-1.63a281.12,281.12,0,0,0,50.64-41.92c3.32-3.47,6.74-7.23,9-11.63.88-1.72,2.22-3.82,3.52-5.85.94-1.46,1.85-2.89,2.52-4.07a27.38,27.38,0,0,1,1.86-2.73c2.06-2.77,3.69-4.95,1.51-9.31h0c-.82-1.63-3.19-1.06-7.27.56-2.43,1-4.19,1.66-5.54.74a2.38,2.38,0,0,1-1-2.06c0-3.29-1.6-14-6.49-17.71C87.18,251.18,83.71,250.47,80,250.47Z"/><path class="cls-22" d="M108.45,278.71c0,.49.18,1.08.65,1.22a1,1,0,0,0,.53,0A2.81,2.81,0,0,0,111.4,278a8.6,8.6,0,0,0,.19-2.73,5.38,5.38,0,0,0-.49-2.42c-.79-1.44-2.62-1.82-3.21-.14C107.38,274.14,108.29,277.15,108.45,278.71Z"/><path class="cls-23" d="M86,278.81a92.69,92.69,0,0,0-11.7,9.9,175.28,175.28,0,0,0-15.08,15.64,84.61,84.61,0,0,1-5.52,6.43,62,62,0,0,0-5.3,5.2c-2.47,3.12-3.68,7.21-6.64,9.87.74-4.31,3.37-8,6.08-11.47,7.06-9,15.09-17.13,23.1-25.27l8-8.1A17.74,17.74,0,0,1,83,277.58c1.38-.73,2.94-1.08,4.3-1.85s7.36-6.78,8.12-2.7C95.74,274.6,87.59,277.71,86,278.81Z"/><path class="cls-24" d="M88.38,277.4a2.72,2.72,0,0,1-.9-.06,1.94,1.94,0,0,1-1.1-2.33,4.2,4.2,0,0,1,1.73-2.18,15.32,15.32,0,0,1,2.48-1.45c2-1,8-2.2,7.28,1.94C97.35,276.44,90.85,277.29,88.38,277.4Z"/><path class="cls-25" d="M53.15,326.62a40.73,40.73,0,0,1-2.74,7c-1.24,2.48-3.06,5.06-5.79,5.54-.55-1.27,0-2.72.55-4l8.06-18.61a3,3,0,0,1,1.41-1.77c3-1.13,2.09,3.06,1.36,4.25A28.41,28.41,0,0,0,53.15,326.62Z"/><path class="cls-26" d="M56.66,325.91a8.78,8.78,0,0,1,0-4.41c.65-1.83,3.47-3.39,3.85-.78C60.84,323,58.77,325.44,56.66,325.91Z"/><path class="cls-27" d="M58.88,331.48a7.49,7.49,0,0,1-.3,3.4,2.6,2.6,0,0,1-2.67,1.73.52.52,0,0,1-.36-.18.64.64,0,0,1-.09-.41,11.81,11.81,0,0,1,.71-3.14,2.62,2.62,0,0,1,1.08-1.65c.61-.3,1.56.23,1.33.87"/><path class="cls-28" d="M51,298.87a2.85,2.85,0,0,1-1.2-.17,1.06,1.06,0,0,1-.67-.95l1.47-.87a8.61,8.61,0,0,1,1.13-.58,6.33,6.33,0,0,1,3.15-.12c1.16.18,2.91,1.44,1.11,2.15A15,15,0,0,1,51,298.87Z"/><path class="cls-29" d="M38.83,308.9a3.69,3.69,0,0,1-.9.26c-2.34.17-2-3.5.22-3.74a1.91,1.91,0,0,1,1.94.88C40.87,307.65,40,308.49,38.83,308.9Z"/><path class="cls-30" d="M80.13,272.84A3.53,3.53,0,0,0,78.41,274a.94.94,0,0,0,.22,1.55,4.59,4.59,0,0,0,2.33.59,9.24,9.24,0,0,0,4.05-.85c.63-.28,2.69-1.15,2.46-2.06s-2.08-1-2.74-1A12.34,12.34,0,0,0,80.13,272.84Z"/><path class="cls-31" d="M85.7,265.87a2.17,2.17,0,0,0-1.6.3,1.68,1.68,0,0,0-.56,1.41A3.12,3.12,0,0,0,84.1,269a4.08,4.08,0,0,0,2.13,1.69,6.45,6.45,0,0,0,1.08.21c1.42.19,3.48.87,4.9.59.43-.08.93-.32.9-.85s-.68-.74-1.07-1C90,268.31,88.24,266.23,85.7,265.87Z"/><path class="cls-32" d="M93.24,262c-.56-.49-1.16-.93-1.73-1.41-1.13-1-2.09-2.12-3.18-3.13a8.1,8.1,0,0,0-3.83-2.17c-.61-.12-1.46.08-1.45.7a1,1,0,0,0,.25.57,11.32,11.32,0,0,0,2.59,2.23,40.31,40.31,0,0,1,6.76,6.49c.6.7,1.92,3,2.92,3.09,1.28.08.94-1.82.64-2.48A11.94,11.94,0,0,0,93.24,262Z"/><path class="cls-21" d="M70.68,266.87a17.63,17.63,0,0,0-3.91.1,6,6,0,0,0-3.43,1.74c1.18,1.05,2.94,1,4.51.94a74.88,74.88,0,0,1,10.38.33,3,3,0,0,0,1.87-.19,1,1,0,0,0,.27-1.66c-.62-.52-2.34-.58-3.13-.7A60,60,0,0,0,70.68,266.87Z"/><path class="cls-33" d="M88.28,291.2a3.1,3.1,0,0,1-1,1.34.51.51,0,0,1-.37.11c-.2,0-.29-.28-.33-.48a11.15,11.15,0,0,1,.38-4.89c.33-1.44.67-2.88,1.11-4.29.27-.86.79-3.33,1.75-3.62,2.2-.67.44,6,.2,6.89A29.13,29.13,0,0,1,88.28,291.2Z"/><path class="cls-34" d="M82.64,291.06c-.37.72-.83,1.52-1.62,1.68a.54.54,0,0,1-.48-.07.68.68,0,0,1-.16-.61c.2-3.08,1.67-5.87,3.23-8.47.39-.64,1.5-3,2.18-1.44.48,1.15-.48,3.07-.9,4.13A50.7,50.7,0,0,1,82.64,291.06Z"/><path class="cls-35" d="M97.06,292.14a1.86,1.86,0,0,1-1.17.95,5.22,5.22,0,0,1,0-2.69,43.21,43.21,0,0,1,1.72-6.33,15.34,15.34,0,0,1,3.3-5.83c.16-.17.44-.33.62-.18a.5.5,0,0,1,.12.34,4.18,4.18,0,0,1-.23,1.65c-.17.5-.65.94-.77,1.42-.28,1.14,0,2.51-.31,3.72A21.05,21.05,0,0,1,97.06,292.14Z"/><path class="cls-36" d="M148.29,370.82c-3.84,1.22-5,6.16-4.52,10.16,1.2,10.43,8.69,19.06,16.92,25.58,9.14,7.25,19.52,12.75,29.84,18.21a75.26,75.26,0,0,0,11.4,5.24c5.58,1.86,11.51,2.39,17.37,2.91l13.65,1.2a68.2,68.2,0,0,0,11.86.36c8.39-.73,16.53-4.54,24.89-3.61-4.88-9.21-4.28-20.29-7.13-30.33-2.72-9.6-8.53-18-14.51-26q-8.51-11.42-17.73-22.27a40.33,40.33,0,0,0-5.94-6,41.46,41.46,0,0,0-6.28-3.77c-9.25-4.84-18.77-9.74-29.14-10.93s-21.92,2.15-27.72,10.82c-3.78,5.66-4.67,12.74-4.71,19.39,0,1.92.74,5-.31,6.75C154.6,371.22,150.81,370,148.29,370.82Z"/><path d="M241.39,436.32c-2.9,0-5.78-.25-8.59-.5l-13.65-1.2c-5.88-.52-12-1.06-17.76-3a77.16,77.16,0,0,1-11.66-5.35c-10.23-5.42-20.81-11-30.1-18.38-10.57-8.38-16.48-17.37-17.56-26.72-.56-4.89,1-10.49,5.7-12h0a12.82,12.82,0,0,1,3.32-.43c2.09-.09,3.13-.23,3.67-1.13s.32-2.5.2-3.88a18.83,18.83,0,0,1-.12-2c0-5.57.58-13.73,5-20.32,5.63-8.42,17.14-13,29.33-11.57,10.89,1.24,20.9,6.48,29.74,11.11a43.77,43.77,0,0,1,6.54,3.93,41.4,41.4,0,0,1,6.19,6.28c6.13,7.22,12.12,14.74,17.8,22.34,5.92,7.92,11.93,16.49,14.78,26.56a92.62,92.62,0,0,1,2.31,12.09c.94,6.43,1.82,12.49,4.69,17.9l1.51,2.85-3.2-.35c-4.78-.54-9.46.57-14.44,1.74A72,72,0,0,1,245,436.18C243.77,436.28,242.58,436.32,241.39,436.32ZM148.8,372.45c-2.72.86-3.74,4.85-3.34,8.34,1,8.42,6.46,16.64,16.29,24.44,9,7.17,19.48,12.69,29.58,18a73.3,73.3,0,0,0,11.14,5.13c5.43,1.81,11.3,2.33,17,2.83l13.65,1.2a66.77,66.77,0,0,0,11.56.36A69.81,69.81,0,0,0,254.3,431,55.88,55.88,0,0,1,267,429c-2.18-5.22-3-10.87-3.8-16.36A92.81,92.81,0,0,0,260.93,401c-2.7-9.5-8.51-17.78-14.23-25.44s-11.59-15-17.67-22.18a38.59,38.59,0,0,0-5.68-5.79,41.1,41.1,0,0,0-6-3.61c-8.57-4.49-18.29-9.57-28.55-10.74-10.94-1.26-21.18,2.7-26.1,10.07-3,4.44-4.37,10.3-4.42,18.45,0,.49.05,1.07.11,1.67.17,2,.37,4.21-.67,5.95-1.55,2.58-4.39,2.69-6.46,2.78a9.9,9.9,0,0,0-2.43.28Z"/><path class="cls-37" d="M172.77,370.41A80.61,80.61,0,0,1,184,375.47c21.82,11,44.91,20,64.63,34.53a43.94,43.94,0,0,1,9.88,9.26c-4-1.3-7.44-3.84-10.88-6.25a255,255,0,0,0-27.68-16.92c-2.51-1.33-5.05-2.61-7.58-3.89-4.08-2.07-8.16-4.13-12.28-6.11q-13.11-6.31-26.74-11.48c-2-.78-11.66-2.92-11.88-5.11C161.19,366.77,171.28,369.92,172.77,370.41Z"/><path class="cls-38" d="M175.47,370.88a16.94,16.94,0,0,1-6.06.17,5.75,5.75,0,0,1-4.45-3.73,1.33,1.33,0,0,1,.15-1.23,1.36,1.36,0,0,1,.54-.33A73.84,73.84,0,0,1,188.88,360a16.74,16.74,0,0,1,7.46.57c1.76.67,4.52,2.63,4,4.86-.58,2.45-4.16,2.33-6.07,2.62Z"/><path class="cls-39" d="M180.33,379.69c-4.3-3.5-9.15-6.72-14.66-7.35-.85-.1-1.93,0-2.24.8A2.12,2.12,0,0,0,164,375l4.24,6.3c1.33,2,2.73,4,4.8,5.16,2.58,1.43,5.75,1.25,8.51,2.27,4.18,1.54,6.84,5.54,9.49,9.12,1.88,2.53,4.74,6.27,8,7,5,1-.74-5.45-2.09-7.33A91.75,91.75,0,0,0,180.33,379.69Z"/><path class="cls-40" d="M213.71,406.85a14.49,14.49,0,0,0,2.6,4.43,4.92,4.92,0,0,0,4.67,1.56,98.31,98.31,0,0,0-5.35-8.93C212.45,400.73,212.5,404.08,213.71,406.85Z"/><path class="cls-41" d="M254.06,407.58a3.74,3.74,0,0,1,1.59,2.57.78.78,0,0,1-.05.48.76.76,0,0,1-.35.31c-1.93,1-5.25-.3-5.85-2.45C248.59,405.61,252.77,406.72,254.06,407.58Z"/><path class="cls-42" d="M254.36,420.09a.51.51,0,0,1-.38.83c-1.42.44-3,.57-4.08-.57a2.6,2.6,0,0,1-.55-3.2C250.94,414.45,253.78,418.54,254.36,420.09Z"/><path class="cls-43" d="M259.83,411.06a1.4,1.4,0,0,1,.41-1.19,1.51,1.51,0,0,1,1.85.08,4.17,4.17,0,0,1,1.1,1.65C264.88,415.41,260.1,413.93,259.83,411.06Z"/><path class="cls-44" d="M146,515.23c5.43.32,9.21,6.11,9.31,11.54s-2.48,10.52-5,15.35l-12.25,23.51a220,220,0,0,1-11.32,20c-9,13.6-20.78,25.05-32.5,36.38L68,647.51c-4.72-8.93-5.18-19.42-5.54-29.52q-.84-24-1.69-47.91c-.27-7.61-.52-15.33,1.27-22.73A59.45,59.45,0,0,1,69.77,530c9.11-14.53,22.71-27.13,39.43-30.94a16.2,16.2,0,0,1,7.82-.27,19.54,19.54,0,0,1,6,3.24,50.13,50.13,0,0,1,14.75,15.85C140.37,516.68,143,515.05,146,515.23Z"/><path d="M67.5,650.31l-1.06-2c-5-9.45-5.39-20.5-5.73-30.25L59,570.14c-.27-7.63-.55-15.51,1.32-23.19a60.9,60.9,0,0,1,8-17.83c10.6-16.9,25-28.15,40.5-31.69a18,18,0,0,1,8.64-.26,20.89,20.89,0,0,1,6.52,3.5,50.72,50.72,0,0,1,14.39,15c2.25-1.11,4.77-2.36,7.75-2.19h0c6.6.4,10.8,7.17,10.91,13.22s-2.82,11.64-5.18,16.16L139.6,566.42a225.84,225.84,0,0,1-11.4,20.18c-9.13,13.83-21.13,25.44-32.74,36.67ZM114,500.16a20.48,20.48,0,0,0-4.47.59C95,504.09,81.32,514.81,71.21,530.94a57.53,57.53,0,0,0-7.56,16.82C61.9,555,62.17,562.62,62.43,570l1.69,47.91c.31,8.66.65,18.38,4.34,26.71l24.63-23.83c11.47-11.09,23.34-22.57,32.26-36.09a224.2,224.2,0,0,0,11.23-19.88l12.24-23.51c2.29-4.4,4.89-9.39,4.8-14.53-.08-4.55-3.19-9.6-7.7-9.87-2.07-.12-4,.84-6.09,1.87l-2.72,1.3-.81-1.28A48.6,48.6,0,0,0,122,503.45a18.29,18.29,0,0,0-5.44-3A9.5,9.5,0,0,0,114,500.16Z"/><path class="cls-45" d="M118,534.84a195.42,195.42,0,0,0-38.68,82c-1.83-10.66,2-21.39,5.7-31.54,4.65-12.66,9.35-25.39,16.25-37s16.23-22.06,28.2-28.27c2-1.05,4.83-1.38,5.47,1A46.94,46.94,0,0,0,118,534.84Z"/><path class="cls-46" d="M95,525.12c-6.12,2.62-11.76,6.22-17.36,9.81a29.5,29.5,0,0,1,9.14-10.7c8.41-6,19.31-7.19,29.65-7.22,1.63,0,3.45.08,4.61,1.23a1.59,1.59,0,0,1,.41,2c-1.67,2.2-9.77,1.07-12.22,1.25A44.44,44.44,0,0,0,95,525.12Z"/><path class="cls-47" d="M107.72,510.91a7.68,7.68,0,0,1-3.17-.54,2.42,2.42,0,0,1-1.44-2.62c.32-1.17,1.67-1.66,2.84-2l5.27-1.43a13.8,13.8,0,0,1,6-.69,11.81,11.81,0,0,1,4.48,2.17c2.47,1.74,10.86,7.56,5.33,8.74-2.06.44-7-2.08-9.26-2.51A64.3,64.3,0,0,0,107.72,510.91Z"/><path class="cls-48" d="M142.07,552.52a10.39,10.39,0,0,1-1.72,4.28,3.56,3.56,0,0,1-4.13,1.25c-1.18-3.16.05-14.48,3.93-15.94C146,539.92,142.66,550,142.07,552.52Z"/><path class="cls-49" d="M90.62,621.59a10.24,10.24,0,0,1-2,4.42,4,4,0,0,1-4.43,1.17,46.86,46.86,0,0,1,5.17-11.34,1.63,1.63,0,0,1,2,.23A35.64,35.64,0,0,1,90.62,621.59Z"/><path class="cls-50" d="M94.93,546.81a15.69,15.69,0,0,1,6.31-1.18,3.51,3.51,0,0,1-.88,3.57,10.4,10.4,0,0,1-3.24,2.1,7.63,7.63,0,0,1-3.05,1,2.58,2.58,0,0,1-2.58-1.56c-.38-1.14.37-2.31,1.08-3.28Z"/><path class="cls-51" d="M99.59,537.18a49.33,49.33,0,0,1-12.91,4.59,1.73,1.73,0,0,1-.75,0c-.87-.21-.9-1.46-.58-2.3,1.47-3.78,5.59-5.71,9.37-7.18s7.39-2.78,11.18-3.9a24.06,24.06,0,0,1,6.6-1.24c1,0,2.24.54,2,1.44a1.64,1.64,0,0,1-.47.64c-1.81,1.74-4,4.8-6.41,5.37-1.24.28-2.5.09-3.79.53A32.37,32.37,0,0,0,99.59,537.18Z"/><path class="cls-52" d="M205.3,634.69a20.87,20.87,0,0,1,2.81-15,36.4,36.4,0,0,1,10.9-11,58.46,58.46,0,0,1,18.27-8.35,25.81,25.81,0,0,1,8.09-1c4.22.26,8.15,2.09,12.12,3.56,5.8,2.16,11.85,3.58,17.67,5.7a78.61,78.61,0,0,1,36.14,27c5.49,7.44,10,16.19,18.05,20.73-4.59.68-8.48,3.78-11.51,7.31s-5.42,7.55-8.49,11c-7.81,8.83-19.58,13.44-31.31,14.58s-23.54-.92-35-3.62a68.64,68.64,0,0,1-14.92-4.9,38.46,38.46,0,0,1-9.72-6.93c-3-2.91-5.5-6.42-6.43-10.47a13.15,13.15,0,0,1,.36-7.3c1.12-3.14,3.09-3.35,1.25-6.49C210.69,644.59,206.6,640.45,205.3,634.69Z"/><path d="M271.26,691.26c-10.15,0-20-2-28.62-4a71,71,0,0,1-15.29-5A40,40,0,0,1,217.2,675c-3.69-3.62-6-7.43-6.91-11.31a14.86,14.86,0,0,1,.42-8.25,12.43,12.43,0,0,1,1.37-2.67c.69-1.1.74-1.16,0-2.39-.87-1.5-1.86-2.92-2.85-4.34-2.28-3.29-4.64-6.69-5.61-11h0a22.58,22.58,0,0,1,3-16.24,37.55,37.55,0,0,1,11.4-11.55,59.58,59.58,0,0,1,18.79-8.6,27.93,27.93,0,0,1,8.63-1.08c3.72.22,7.16,1.56,10.48,2.85l2.13.81c2.93,1.09,6,2,9,2.9s5.83,1.75,8.71,2.8a80.65,80.65,0,0,1,36.92,27.62c1.25,1.7,2.45,3.46,3.65,5.23,4.1,6,8,11.71,13.87,15l4.33,2.44-4.92.73c-3.56.53-7.08,2.79-10.47,6.73-1.4,1.64-2.71,3.44-4,5.19-1.42,2-2.88,4-4.54,5.86-7.49,8.47-19,13.85-32.42,15.14C275.88,691.16,273.56,691.26,271.26,691.26Zm-64.29-57c.82,3.65,2.89,6.63,5.08,9.79,1,1.5,2.08,3,3,4.57,1.63,2.8,1,4.29-.1,5.94a9.42,9.42,0,0,0-1,2,11.42,11.42,0,0,0-.3,6.34c.74,3.24,2.75,6.48,6,9.63a36.49,36.49,0,0,0,9.29,6.62A66.94,66.94,0,0,0,243.42,684c10.28,2.42,22.41,4.73,34.46,3.58,12.55-1.21,23.27-6.19,30.19-14,1.54-1.75,2.95-3.7,4.32-5.6s2.66-3.67,4.16-5.42a24.22,24.22,0,0,1,8.79-6.81c-4.87-3.74-8.4-8.93-11.84-14-1.17-1.73-2.35-3.46-3.57-5.12a77.27,77.27,0,0,0-35.35-26.45c-2.79-1-5.7-1.89-8.52-2.73-3-.91-6.14-1.84-9.17-3l-2.18-.83c-3.22-1.25-6.26-2.43-9.44-2.63a24.7,24.7,0,0,0-7.56,1A56.28,56.28,0,0,0,220,610.08a34.21,34.21,0,0,0-10.4,10.49A19.17,19.17,0,0,0,207,634.31Z"/><path class="cls-53" d="M216.43,653.77a5.73,5.73,0,0,1,3-4.72,15.91,15.91,0,0,1,5.55-1.73,185.92,185.92,0,0,1,80.6,3.71c.93.25,2.1,1.09,1.57,1.89-.32.48-1,.44-1.6.36-23.83-3.61-48.19-7.32-72.28-3.88a33.2,33.2,0,0,0-8.31,1.79C222,652.43,219.72,653.74,216.43,653.77Z"/><path class="cls-54" d="M245,639.32A7.9,7.9,0,0,1,250.1,637c1.9,0,3.85,1.73,3.5,3.6a4.29,4.29,0,0,1-2.08,2.62c-2.24,1.47-7,3.15-9.65,1.72C238.7,643.21,243.16,640.93,245,639.32Z"/><path class="cls-55" d="M270.88,671.35a2.49,2.49,0,0,1,.23,1.28c-.19,1.23-1.74,1.63-3,1.74a15.6,15.6,0,0,1-6.46-.3,15.26,15.26,0,0,1-4.25-2.55c-2-1.46-5-3.79-4.71-6.58.22-2.54,2.52-3.7,4.78-3.47C262.7,662,269,666.53,270.88,671.35Z"/><path class="cls-56" d="M303.72,659.12a8.79,8.79,0,0,1-3-2.08,3.39,3.39,0,0,1-.69-3.43c2.56-1.17,5.5.3,7.93,1.73,1.63.95,6.69,3,4.76,5.3C311,662.76,305.54,660,303.72,659.12Z"/><path class="cls-57" d="M245.49,663.47c2.08.91,4.34,1.89,5.43,3.88a2.79,2.79,0,0,1,.33,2.24c-.52,1.45-2.47,1.72-4,1.43-3.27-.62-6.07-2.63-8.76-4.59-1.78-1.3-5.33-4-2.26-5.78C238.85,659.17,243.24,662.48,245.49,663.47Z"/><path class="cls-58" d="M228.66,677.13c-1.66.14-3.14-1-4.39-2.1-2-1.78-14.23-10.89-6.91-11.62C223,662.84,229.3,672.09,228.66,677.13Z"/><path class="cls-59" d="M275,643.38a21.2,21.2,0,0,1-7.87.66,3.16,3.16,0,0,1-1.46-.3,2.19,2.19,0,0,1-.52-2.84,7.34,7.34,0,0,1,2.27-2.2c3.08-2.31,5.72-5.19,8.93-7.32a23.74,23.74,0,0,1,17.17-3.53c1,.18,2.13.65,2.17,1.63-.53,2.52-7.37,4.49-9.54,5.89C282.36,637.84,279.42,641.86,275,643.38Z"/><path class="cls-60" d="M235.24,639.53a1.94,1.94,0,0,1-1.08.32c-.84-.11-1.15-1.19-1.06-2,.3-2.86,2.63-5.06,5-6.73s5.85-2.43,4.83,1.31C242.07,635.43,237.79,638.15,235.24,639.53Z"/><path class="cls-40" d="M268.29,619.68c-.89-.26-2-.86-1.78-1.77a1.81,1.81,0,0,1,1.08-1.12c2.5-1.3,10.69-2.23,11.85,1.65C280.87,623.23,270.25,620.27,268.29,619.68Z"/><path class="cls-61" d="M250.26,654.2a2.7,2.7,0,0,1,.71,1.7c-.05,1.08-1.12,1.79-2.08,2.29a3.48,3.48,0,0,1-4.33-.12c-1.5-.9-3-1.88-4.38-2.91-1-.69-2-1.64-1.85-2.81a2.35,2.35,0,0,1,2-1.82,6.92,6.92,0,0,1,2.85.27S248.5,651.94,250.26,654.2Z"/></g></g></g></svg>