<svg xmlns="http://www.w3.org/2000/svg" viewBox="0 0 302.29 629.46"><defs><style>.cls-1{fill:#b0bb9e;}.cls-1,.cls-11,.cls-19,.cls-2,.cls-35,.cls-43,.cls-51{stroke:#000;stroke-miterlimit:10;stroke-width:2px;}.cls-2{fill:#abc49b;}.cls-3{fill:#e0eaab;}.cls-4{fill:#ebf5c1;}.cls-5{fill:#f9f7e3;}.cls-6{fill:#bed9a9;}.cls-7{fill:#b7d1a4;}.cls-8{fill:#afc9a0;}.cls-9{fill:#c3d7ad;}.cls-10{fill:none;}.cls-11{fill:#aebfa6;}.cls-12{fill:#d4dfc5;}.cls-13{fill:#c2ceb6;}.cls-14{fill:#ddedbf;}.cls-15{fill:#d3e6b8;}.cls-16{fill:#a6bb9c;}.cls-17{fill:#b2c7a0;}.cls-18{fill:#c3d3b3;}.cls-19,.cls-31{fill:#abc1a0;}.cls-20{fill:#ccccaf;}.cls-21{fill:#a7bc9c;}.cls-22{fill:#cae0bc;}.cls-23{fill:#e5f6bb;}.cls-24{fill:#bbd1a3;}.cls-25{fill:#bacfa6;}.cls-26{fill:#b3caa7;}.cls-27{fill:#afc4a3;}.cls-28{fill:#b6cbab;}.cls-29{fill:#b6cbac;}.cls-30{fill:#b5caab;}.cls-32{fill:#9cb090;}.cls-33{fill:#a4b895;}.cls-34{fill:#a0b591;}.cls-35{fill:#9aac8d;}.cls-36{fill:#afc69f;}.cls-37{fill:#e4f5b5;}.cls-38{fill:#dff4a8;}.cls-39{fill:#c5dab0;}.cls-40{fill:#afc59d;}.cls-41{fill:#bed4a1;}.cls-42{fill:#b4c998;}.cls-43{fill:#a8ba9c;}.cls-44{fill:#b7cbac;}.cls-45{fill:#bad0ac;}.cls-46{fill:#b4c8aa;}.cls-47{fill:#cde7a8;}.cls-48{fill:#d5e6bf;}.cls-49{fill:#bcd2b1;}.cls-50{fill:#afc6a5;}.cls-51{fill:#9dad8e;}.cls-52{fill:#b7cda4;}.cls-53{fill:#d2e3ad;}.cls-54{fill:#e7f5b0;}.cls-55{fill:#d9e9ae;}.cls-56{fill:#cfeab5;}.cls-57{fill:#d4e9b3;}.cls-58{fill:#c3daae;}.cls-59{fill:#c6ddb0;}.cls-60{fill:#bad0a8;}</style></defs><g id="Layer_2" data-name="Layer 2"><g id="plants"><g id="pothos1"><path class="cls-1" d="M198.73,599.45c-3.36-1.71-6.4,2.62-9.55,4.7-4.48,3-10.44,1.22-15.49-.61-15.57-28.95-23.09-61.23-34.31-92.13C137.76,507,131,488,129.23,483c-2.62-7.32-3-15.21-3.46-23-.73-13.86-1.47-27.72-1.44-41.59,0-16.54,1.18-33.11.06-49.63-.16-2.46,0-5.89,0-9.23,3.16,1.41,6.91,2.37,9.9.66s3.36-7.5-.11-8.29c-1.34-.31-2.76.2-4.1-.12-2.26-.55-3.27-3.14-3.93-5.37l-14.1-47.81c-3.75-12.72-7.51-25.48-9.73-38.56-3.55-21-3-31.82-1.59-54.06.84-12.93,1.46-37.54,3.12-49.81,8.79,14.74,32.71-12.75,34.25-34.25-8,12.76-20.68,32.68-28,31.13-3.12,0-9.27-28.32-10.52-33.06-2.3-8.74-5-17.44-6.8-26.31-5-24.67-5.93-61.89-4.48-87,.37-6.36-.26-3.07-6.21-5.36-3.13,33.39-1.88,67,6.21,98.77,4,15.74,7.72,27.43,9.34,43.59,2.81,28-3.11,65.39-3.11,74.73,0,8.41-1.36,18.19,0,31.13,1,9.09,4.13,20.36,6.22,31.14,4.37,22.42,12.76,49.14,13,64.59.08,5.06,1,7.1,2.25,8.09a310.6,310.6,0,0,0,0,39.66c1.55,22.33-.41,44.83,1.6,67.13a189.2,189.2,0,0,0,3.74,24c7.51,33.81,24.14,64.91,33.56,98.24,3.07,10.85,8.14,19,17.48,25.17,5.83,3.89,13.4,3.92,20.17,2.11,2.53-.68,5.21-1.51,6.87-3.53S201.07,600.64,198.73,599.45Z"/><path class="cls-2" d="M95.09,56.84c-4.83-6.2-12.88-8.91-20.61-10.33-5.59-1-11.37-1.55-17-.49C44.72,48.45,35,58.61,26.42,68.41,18.75,77.18,11.21,86.14,2.31,93.65a543.22,543.22,0,0,0,88.14,6.9c4.94,0,10.91-.73,13-5.21,3.62-7.75-6.81-10.91-7.27-17.65C95.65,69.83,101.05,64.5,95.09,56.84Z"/><path class="cls-3" d="M87.42,97.24c4.26,0,8.82-.08,12.34-2.48a4.17,4.17,0,0,0,2.16-3.42,4.55,4.55,0,0,0-.69-1.9A28,28,0,0,0,97,83.71C89.37,75.76,86.9,92.53,87.42,97.24Z"/><path class="cls-4" d="M91.37,63.07a12.22,12.22,0,0,1,3.52,7.39,7.11,7.11,0,0,1-.28,3.43,3.59,3.59,0,0,1-2.45,2.27c-1.57.33-3.09-.71-4.27-1.82-2.26-2.12-8.58-9.59-6.81-13.13C82.7,58,89.54,61.32,91.37,63.07Z"/><path class="cls-5" d="M92.78,92.21c-1.2.89-3,1.44-4.07.36a3,3,0,0,1-.66-1.34,7.81,7.81,0,0,1,.4-5.09,4.71,4.71,0,0,1,1.34-1.86,6.85,6.85,0,0,1,4.15-1c.56,0,1.22,0,1.53.48a1.56,1.56,0,0,1,.21.79,23.78,23.78,0,0,1,0,3.68A13.53,13.53,0,0,1,92.78,92.21Z"/><path class="cls-6" d="M69.71,85.62c-.41,0,3-3.48,3.36-3.76,1-.68,2.77-1.8,3.87-.51C79,83.78,71.37,85.8,69.71,85.62Z"/><path class="cls-7" d="M58,90.68c-2.56,1.59-5.6,2.9-8.54,2.22-.47-1,.44-2,1.28-2.61C55.92,86.45,62,84.12,68,81.83a1.17,1.17,0,0,1,.48-.09.66.66,0,0,1,.45.8,1.91,1.91,0,0,1-.54.87C65.42,86.64,61.76,88.35,58,90.68Z"/><path class="cls-8" d="M67,67a8,8,0,0,1-4.21-1.31c-.46-.3-.95-.83-.72-1.34a10.21,10.21,0,0,1,4.79.74,1.76,1.76,0,0,1,1.15,1c.12.52-.53,1.12-.94.78"/><path class="cls-9" d="M85.41,71.4a3.42,3.42,0,0,1-3.51,2.06,5.68,5.68,0,0,1-3.7-2.12c-1.72-2-3.15-6.65.84-7C82,64,86.48,68.36,85.41,71.4Z"/><path class="cls-10" d="M58.68,80a125.71,125.71,0,0,1,34.54-1.09"/><path class="cls-11" d="M122.6,104.67c1.3-6.44,5.84-12,11.48-15.31s12.29-4.75,18.85-4.92a38.13,38.13,0,0,1,13.92,2,40.33,40.33,0,0,1,10.54,6c10.07,7.59,17.79,17.81,25.37,27.89l8.2,10.91c2.45,3.25,4.94,6.59,6.2,10.47-4.29-1-3.82-1-5.94-1.27-23.26-2.85-37.58-.72-56.13-4-5.7-1-11.51-2.08-16.64-4.77C129.91,127.1,120.56,114.8,122.6,104.67Z"/><path class="cls-12" d="M205.22,136.7c.6.34,1.29,1.09.81,1.59a1.12,1.12,0,0,1-.84.24l-3,.06a12.36,12.36,0,0,1-3.49-.27A11.51,11.51,0,0,1,195.9,137a125.55,125.55,0,0,1-11.23-7.52c-1.17-.88-3.48-3.8-.77-4.38,1.59-.35,4.36,2.17,5.64,2.9C194.74,130.92,200,133.79,205.22,136.7Z"/><path class="cls-13" d="M183.29,122.24A61.32,61.32,0,0,1,208,131.56c2,1.29,4,2.84,4.78,5.07a3.55,3.55,0,0,1-2.8-.5l-15.87-7.8C192.73,127.64,183,123.51,183.29,122.24Z"/><path class="cls-14" d="M161.49,128.64c1.51.36,3.06.62,4.53,1.12a14.79,14.79,0,0,1,2.84,1.35c.49.3,1,.75.94,1.32a1.07,1.07,0,0,1-.9.83,3,3,0,0,1-1.3-.12c-2.2-.55-4.36-1.25-6.5-2-1.45-.5-5.42-1.18-6.34-2.42C152.91,126.25,160.68,128.45,161.49,128.64Z"/><path class="cls-10" d="M160.5,122.47l-2.73-.86a7.31,7.31,0,0,0-1.6-.38,7.15,7.15,0,0,0-1.31,0l-4.69.44c-.58.06-1.33.3-1.3.88s.94.73,1.57.66c3.61-.36,7.1.8,10.54,1.7.87.23,4,1.51,3.61-.2C164.32,123.42,161.54,122.8,160.5,122.47Z"/><path class="cls-15" d="M179.81,99.22a3.39,3.39,0,0,1-2.06-2.84.82.82,0,0,1,.06-.38c.19-.34.69-.29,1.06-.17,1.73.54,3.94,1.67,4.52,3.52A4.47,4.47,0,0,1,179.81,99.22Z"/><path class="cls-16" d="M153.37,94.17a18.55,18.55,0,0,1,1.51,6.8c.2,2.53.32,5.07.34,7.61a10.71,10.71,0,0,1-.54,4.11c-1.23,3-4.69,4.29-7.78,5.26l-9.51,3a11.63,11.63,0,0,1-5.09.79,7.83,7.83,0,0,1-5.38-4.1,22.94,22.94,0,0,1-2.17-6.63,15.44,15.44,0,0,1-.51-5.52c.35-2.32,1.72-4.34,3.06-6.27,3-4.24,6.32-8.79,11.32-10.14,2.46-.67,6.49-2.2,8.68-1A15.32,15.32,0,0,1,153.37,94.17Z"/><path class="cls-10" d="M134.18,125.13c6.3-4.12,14-5.76,21.5-5.78s15,1.52,22.28,3.33a42.32,42.32,0,0,1,8,2.62c3.57,1.68,6.74,4.27,10.55,5.29"/><path class="cls-17" d="M157.9,121.76A12.48,12.48,0,0,1,165,124.3a.79.79,0,0,1,.35.52c0,.28-.28.47-.54.58a5,5,0,0,1-3.83.08c-.9-.35-1.69-1-2.61-1.27a8.69,8.69,0,0,0-2.48-.35l-5.83-.24c-1.11-.05-2.59-.13-3-1.31,1.13-.79,2.86-.18,4.19-.18C153.48,122.11,155.65,121.62,157.9,121.76Z"/><path class="cls-18" d="M180.08,134.33l4.74,2.65c.25.14.53.35.5.63s-.52.46-.89.44c-2.77-.14-13.63-2.32-12.93-6.57C174.44,131,177.62,133,180.08,134.33Z"/><path class="cls-19" d="M100.78,246.52c3.12,6.23-1,8.83-3.11,12.45-1.45,2.57-4.13,6.37-5.48,9-2.12,4.12-5.26,7.62-8.47,11a258,258,0,0,1-46.49,38.49c-7.59,4.92-15.67,9.64-20.91,17q1.35-23.29,4-46.5c1.33-11.68,3-23.63,8.56-34a88.06,88.06,0,0,1,10.89-15A36.62,36.62,0,0,1,45.61,233c4.78-3.56,10.88-4.71,16.75-5.76,6.6-1.18,14.07-2.17,19.43,1.85,5,3.79,6.54,14.3,6.54,17.41S98.19,241.33,100.78,246.52Z"/><path class="cls-20" d="M97.68,253.55c0,.45.16,1,.59,1.11a.91.91,0,0,0,.49,0,2.56,2.56,0,0,0,1.61-1.78,7.64,7.64,0,0,0,.17-2.48,4.86,4.86,0,0,0-.44-2.21c-.73-1.32-2.4-1.66-2.93-.13C96.7,249.38,97.54,252.13,97.68,253.55Z"/><path class="cls-21" d="M77.16,253.64a84.32,84.32,0,0,0-10.68,9,164.1,164.1,0,0,0-13.77,14.27,72.07,72.07,0,0,1-5,5.87,55.56,55.56,0,0,0-4.83,4.75c-2.26,2.84-3.36,6.58-6.07,9,.68-3.93,3.08-7.32,5.55-10.46,6.45-8.18,13.77-15.63,21.08-23.06l7.28-7.39a15.78,15.78,0,0,1,3.79-3.13c1.26-.67,2.69-1,3.92-1.69s6.72-6.19,7.41-2.46C86.08,249.8,78.64,252.64,77.16,253.64Z"/><path class="cls-22" d="M79.36,252.36a2.53,2.53,0,0,1-.82-.06,1.76,1.76,0,0,1-1-2.12,3.87,3.87,0,0,1,1.57-2,16,16,0,0,1,2.27-1.32c1.83-.89,7.28-2,6.65,1.77C87.55,251.48,81.61,252.25,79.36,252.36Z"/><path class="cls-23" d="M47.21,297.27a37.58,37.58,0,0,1-2.49,6.42c-1.14,2.27-2.79,4.62-5.29,5.06-.5-1.16,0-2.48.51-3.64l7.35-17a2.7,2.7,0,0,1,1.28-1.62c2.7-1,1.91,2.79,1.24,3.88A26.26,26.26,0,0,0,47.21,297.27Z"/><path class="cls-24" d="M50.41,296.62a8,8,0,0,1,0-4c.6-1.67,3.16-3.1,3.51-.71C54.23,294,52.34,296.19,50.41,296.62Z"/><path class="cls-25" d="M52.45,301.7a7.07,7.07,0,0,1-.28,3.11,2.39,2.39,0,0,1-2.44,1.58.44.44,0,0,1-.4-.54A10.49,10.49,0,0,1,50,303a2.41,2.41,0,0,1,1-1.51c.55-.28,1.42.2,1.21.79"/><path class="cls-26" d="M45.24,272a2.7,2.7,0,0,1-1.1-.16.94.94,0,0,1-.61-.86l1.34-.8a8.35,8.35,0,0,1,1-.53,5.8,5.8,0,0,1,2.87-.11c1.06.16,2.66,1.31,1,2A13.58,13.58,0,0,1,45.24,272Z"/><path class="cls-27" d="M34.14,281.1a3.41,3.41,0,0,1-.81.24c-2.14.15-1.82-3.2.2-3.42a1.74,1.74,0,0,1,1.77.81C36,280,35.25,280.73,34.14,281.1Z"/><path class="cls-28" d="M71.83,248.2a3.18,3.18,0,0,0-1.57,1,1,1,0,0,0-.15,1.1,1.06,1.06,0,0,0,.35.32,4.26,4.26,0,0,0,2.14.54,8.39,8.39,0,0,0,3.69-.78c.57-.26,2.46-1,2.24-1.88s-1.89-.88-2.49-.9A11.32,11.32,0,0,0,71.83,248.2Z"/><path class="cls-29" d="M76.92,241.84a1.9,1.9,0,0,0-1.46.27,1.5,1.5,0,0,0-.51,1.28,2.72,2.72,0,0,0,.51,1.33,3.73,3.73,0,0,0,1.94,1.54,6.52,6.52,0,0,0,1,.19c1.31.17,3.19.8,4.48.54.39-.07.85-.29.82-.78s-.62-.67-1-.91C80.86,244.06,79.23,242.16,76.92,241.84Z"/><path class="cls-30" d="M83.8,238.3c-.51-.45-1.06-.85-1.58-1.29-1-.88-1.91-1.93-2.9-2.85a7.37,7.37,0,0,0-3.5-2c-.55-.11-1.33.07-1.32.63a.91.91,0,0,0,.23.53,10.22,10.22,0,0,0,2.36,2,37.18,37.18,0,0,1,6.17,5.92c.55.64,1.75,2.77,2.66,2.82,1.17.08.86-1.66.59-2.26A11,11,0,0,0,83.8,238.3Z"/><path class="cls-31" d="M63.22,242.75a15.76,15.76,0,0,0-3.57.09,5.34,5.34,0,0,0-3.13,1.59c1.07.95,2.67.91,4.11.85a68,68,0,0,1,9.47.31,2.92,2.92,0,0,0,1.71-.18,1,1,0,0,0,.25-1.51c-.57-.48-2.15-.53-2.86-.65A54.59,54.59,0,0,0,63.22,242.75Z"/><path class="cls-32" d="M79.27,265a2.83,2.83,0,0,1-.87,1.22.47.47,0,0,1-.34.1c-.18,0-.27-.25-.31-.44a10.27,10.27,0,0,1,.36-4.46c.3-1.31.6-2.63,1-3.91.24-.79.71-3,1.6-3.31,2-.61.39,5.47.18,6.29A26.68,26.68,0,0,1,79.27,265Z"/><path class="cls-33" d="M74.13,264.82c-.34.66-.76,1.38-1.49,1.53a.47.47,0,0,1-.43-.06c-.16-.12-.16-.36-.15-.56.18-2.8,1.53-5.36,3-7.73.35-.58,1.37-2.77,2-1.31.44,1.05-.44,2.8-.82,3.77A46.77,46.77,0,0,1,74.13,264.82Z"/><path class="cls-34" d="M87.28,265.8a1.68,1.68,0,0,1-1.07.87,4.84,4.84,0,0,1,0-2.45,39.84,39.84,0,0,1,1.58-5.78,14,14,0,0,1,3-5.32c.16-.15.4-.3.57-.16a.39.39,0,0,1,.11.31,3.89,3.89,0,0,1-.21,1.51c-.16.45-.59.85-.7,1.29-.26,1,0,2.29-.28,3.39A19.08,19.08,0,0,1,87.28,265.8Z"/><path class="cls-35" d="M134,337.61c-3.5,1.11-4.55,5.62-4.12,9.27,1.1,9.51,7.93,17.39,15.44,23.34,8.34,6.62,17.81,11.63,27.23,16.61a68.35,68.35,0,0,0,10.4,4.79c5.1,1.69,10.5,2.18,15.85,2.65l12.46,1.1a62.14,62.14,0,0,0,10.82.32c7.66-.66,15.08-4.14,22.72-3.29-4.46-8.4-3.91-18.52-6.51-27.67-2.49-8.76-7.79-16.43-13.24-23.73q-7.77-10.41-16.18-20.31a36.68,36.68,0,0,0-5.42-5.51,39.53,39.53,0,0,0-5.73-3.44c-8.44-4.42-17.13-8.89-26.6-10s-20,2-25.29,9.88c-3.45,5.15-4.26,11.61-4.3,17.68,0,1.76.68,4.56-.28,6.16C139.79,338,136.33,336.87,134,337.61Z"/><path class="cls-36" d="M156.38,337.23a73.33,73.33,0,0,1,10.23,4.62c19.91,10.08,41,18.29,59,31.5a40.5,40.5,0,0,1,9,8.45c-3.65-1.18-6.8-3.5-9.93-5.7a236.18,236.18,0,0,0-25.26-15.44c-2.3-1.21-4.61-2.38-6.92-3.55-3.72-1.88-7.45-3.76-11.21-5.57-8-3.84-16.12-7.34-24.39-10.48-1.87-.71-10.65-2.67-10.85-4.66C145.8,333.9,155,336.78,156.38,337.23Z"/><path class="cls-37" d="M158.83,337.66a15.59,15.59,0,0,1-5.53.15,5.23,5.23,0,0,1-4.05-3.4,1.22,1.22,0,0,1,.13-1.12,1.46,1.46,0,0,1,.49-.31,67.39,67.39,0,0,1,21.21-5.24,15.28,15.28,0,0,1,6.8.52c1.6.61,4.13,2.4,3.65,4.43-.53,2.24-3.79,2.13-5.54,2.4Z"/><path class="cls-38" d="M163.27,345.7c-3.92-3.2-8.35-6.13-13.38-6.71-.77-.09-1.76,0-2,.73a1.92,1.92,0,0,0,.47,1.65l3.87,5.75c1.21,1.8,2.49,3.66,4.39,4.71,2.35,1.31,5.24,1.14,7.76,2.07,3.81,1.41,6.24,5.05,8.66,8.32,1.72,2.32,4.32,5.73,7.34,6.36,4.54.95-.67-5-1.9-6.69A84.09,84.09,0,0,0,163.27,345.7Z"/><path class="cls-39" d="M193.73,370.48a13,13,0,0,0,2.38,4,4.46,4.46,0,0,0,4.25,1.43,86.7,86.7,0,0,0-4.88-8.15C192.58,364.89,192.63,368,193.73,370.48Z"/><path class="cls-40" d="M230.55,371.15A3.38,3.38,0,0,1,232,373.5a.74.74,0,0,1,0,.44.71.71,0,0,1-.32.27c-1.76.92-4.79-.27-5.34-2.23C225.56,369.35,229.38,370.36,230.55,371.15Z"/><path class="cls-41" d="M230.83,382.56a.63.63,0,0,1,0,.55.7.7,0,0,1-.37.22c-1.3.4-2.7.51-3.72-.53a2.37,2.37,0,0,1-.51-2.92C227.7,377.42,230.3,381.15,230.83,382.56Z"/><path class="cls-42" d="M235.82,374.32a1.27,1.27,0,0,1,.38-1.08,1.34,1.34,0,0,1,1.68.08,3.71,3.71,0,0,1,1,1.5C240.42,378.29,236.06,376.94,235.82,374.32Z"/><path class="cls-43" d="M132,469.38c5,.3,8.41,5.58,8.49,10.54s-2.26,9.6-4.55,14l-11.17,21.46a206,206,0,0,1-10.33,18.27c-8.19,12.42-19,22.86-29.66,33.2l-24,23.24c-4.31-8.15-4.73-17.72-5-26.93q-.78-21.85-1.54-43.73c-.25-6.94-.48-14,1.15-20.73a54.21,54.21,0,0,1,7.1-15.81c8.31-13.26,20.72-24.75,36-28.23a14.77,14.77,0,0,1,7.14-.25,17.8,17.8,0,0,1,5.46,3,45.75,45.75,0,0,1,13.46,14.46C126.81,470.71,129.17,469.22,132,469.38Z"/><path class="cls-44" d="M106.42,487.27a178.41,178.41,0,0,0-35.3,74.88c-1.67-9.73,1.8-19.52,5.2-28.78,4.25-11.55,8.54-23.17,14.84-33.74s14.81-20.14,25.73-25.8c1.86-1,4.41-1.26,5,.89A43,43,0,0,0,106.42,487.27Z"/><path class="cls-45" d="M85.38,478.41a111.36,111.36,0,0,0-15.84,8.95,27,27,0,0,1,8.35-9.77C85.56,472.1,95.5,471,104.94,471c1.49,0,3.15.08,4.21,1.13a1.45,1.45,0,0,1,.37,1.81c-1.52,2-8.91,1-11.14,1.14A40.65,40.65,0,0,0,85.38,478.41Z"/><path class="cls-46" d="M97,465.44a6.86,6.86,0,0,1-2.89-.49,2.22,2.22,0,0,1-1.32-2.39c.3-1.07,1.53-1.52,2.6-1.8l4.81-1.3a12.43,12.43,0,0,1,5.49-.63,10.73,10.73,0,0,1,4.09,2c2.25,1.59,9.91,6.89,4.86,8-1.88.4-6.4-1.9-8.45-2.29A59.05,59.05,0,0,0,97,465.44Z"/><path class="cls-47" d="M128.36,503.41a9.6,9.6,0,0,1-1.57,3.91,3.26,3.26,0,0,1-3.77,1.14c-1.08-2.88,0-13.21,3.59-14.54C131.93,491.92,128.89,501.13,128.36,503.41Z"/><path class="cls-48" d="M81.41,566.44a9.27,9.27,0,0,1-1.86,4,3.59,3.59,0,0,1-4,1.07,42.46,42.46,0,0,1,4.72-10.35,1.51,1.51,0,0,1,1.86.21A33,33,0,0,1,81.41,566.44Z"/><path class="cls-49" d="M85.34,498.21a14.23,14.23,0,0,1,5.76-1.09,3.2,3.2,0,0,1-.8,3.26,9.5,9.5,0,0,1-3,1.92,7,7,0,0,1-2.78.88,2.35,2.35,0,0,1-2.36-1.42c-.34-1,.34-2.11,1-3Z"/><path class="cls-50" d="M89.6,489.42a45.27,45.27,0,0,1-11.79,4.18,1.57,1.57,0,0,1-.68,0c-.8-.19-.83-1.33-.53-2.1,1.34-3.45,5.1-5.21,8.55-6.55s6.74-2.53,10.2-3.56a21.79,21.79,0,0,1,6-1.13c.87,0,2,.49,1.79,1.32a1.42,1.42,0,0,1-.43.57c-1.65,1.59-3.62,4.39-5.84,4.9a33.26,33.26,0,0,0-3.47.49A28.54,28.54,0,0,0,89.6,489.42Z"/><path class="cls-51" d="M186.06,578.4a19.07,19.07,0,0,1,2.56-13.69,33.37,33.37,0,0,1,9.95-10.06A53.65,53.65,0,0,1,215.24,547a23.68,23.68,0,0,1,7.38-.94c3.85.24,7.44,1.91,11.06,3.25,5.3,2,10.82,3.27,16.13,5.2a71.79,71.79,0,0,1,33,24.67c5,6.8,9.13,14.78,16.48,18.93-4.19.62-7.74,3.45-10.5,6.66s-4.95,6.89-7.76,10.07c-7.12,8-17.86,12.27-28.56,13.3s-21.48-.83-31.95-3.3a62,62,0,0,1-13.61-4.47,35,35,0,0,1-8.87-6.32,20.12,20.12,0,0,1-5.88-9.56,12,12,0,0,1,.33-6.66c1-2.87,2.82-3.05,1.15-5.92C191,587.43,187.25,583.65,186.06,578.4Z"/><path class="cls-52" d="M196.21,595.81a5.26,5.26,0,0,1,2.73-4.31,14.63,14.63,0,0,1,5.07-1.58,169.78,169.78,0,0,1,73.55,3.38c.85.23,1.92,1,1.43,1.73-.3.44-.94.41-1.46.33-21.75-3.29-44-6.68-66-3.54a30.34,30.34,0,0,0-7.58,1.64C201.34,594.58,199.22,595.78,196.21,595.81Z"/><path class="cls-53" d="M222.3,582.62a7.28,7.28,0,0,1,4.64-2.12c1.74,0,3.51,1.58,3.2,3.29a4,4,0,0,1-1.91,2.39c-2,1.34-6.41,2.87-8.8,1.57C216.53,586.17,220.61,584.09,222.3,582.62Z"/><path class="cls-54" d="M245.9,611.85a2.16,2.16,0,0,1,.21,1.17c-.17,1.12-1.58,1.48-2.71,1.59a14.23,14.23,0,0,1-5.89-.28,14.08,14.08,0,0,1-3.88-2.32c-1.78-1.34-4.52-3.47-4.3-6,.2-2.32,2.3-3.38,4.36-3.17C238.44,603.31,244.21,607.45,245.9,611.85Z"/><path class="cls-55" d="M275.87,600.69a8,8,0,0,1-2.74-1.9,3.1,3.1,0,0,1-.63-3.13c2.34-1.07,5,.27,7.24,1.58,1.49.87,6.11,2.72,4.34,4.83C282.48,604,277.53,601.49,275.87,600.69Z"/><path class="cls-56" d="M222.73,604.66c1.9.83,4,1.73,5,3.54a2.59,2.59,0,0,1,.3,2c-.48,1.33-2.26,1.57-3.63,1.31-3-.57-5.54-2.41-8-4.19-1.63-1.19-4.87-3.69-2.07-5.28C216.68,600.74,220.68,603.76,222.73,604.66Z"/><path class="cls-57" d="M207.38,617.13c-1.52.12-2.87-.92-4-1.92-1.85-1.62-13-9.94-6.31-10.61C202.19,604.08,208,612.53,207.38,617.13Z"/><path class="cls-58" d="M249.69,586.33a19.43,19.43,0,0,1-7.18.6,2.84,2.84,0,0,1-1.33-.28,2,2,0,0,1-.47-2.59,6.57,6.57,0,0,1,2.06-2c2.81-2.11,5.22-4.74,8.15-6.69a21.6,21.6,0,0,1,15.67-3.21c.88.16,1.94.59,2,1.48-.48,2.3-6.72,4.1-8.71,5.38C256.38,581.27,253.7,584.94,249.69,586.33Z"/><path class="cls-59" d="M213.38,582.82a1.77,1.77,0,0,1-1,.28c-.76-.09-1-1.08-1-1.85.27-2.62,2.39-4.63,4.54-6.15s5.33-2.22,4.4,1.2C219.61,579.08,215.7,581.55,213.38,582.82Z"/><path class="cls-39" d="M243.54,564.7c-.81-.24-1.78-.79-1.63-1.62.09-.48.55-.79,1-1,2.28-1.19,9.76-2,10.81,1.51C255,567.93,245.33,565.24,243.54,564.7Z"/><path class="cls-60" d="M227.08,596.2a2.45,2.45,0,0,1,.65,1.55c0,1-1,1.64-1.89,2.09a4.22,4.22,0,0,1-2.13.63,4.33,4.33,0,0,1-1.83-.73q-2.06-1.25-4-2.66c-.87-.63-1.82-1.5-1.69-2.57a2.14,2.14,0,0,1,1.81-1.66,6.18,6.18,0,0,1,2.59.25S225.48,594.14,227.08,596.2Z"/></g></g></g></svg>