<svg xmlns="http://www.w3.org/2000/svg" viewBox="0 0 309.08 604.27"><defs><style>.cls-1{fill:#f4eecb;}.cls-2{fill:#b7be9d;}.cls-3{fill:#96a08d;}.cls-4{fill:#b5bea4;}.cls-5{fill:#cdb39d;}</style></defs><g id="Layer_2" data-name="Layer 2"><g id="plants"><g id="rubber-tree1"><path class="cls-1" d="M78.85,574.72a135.45,135.45,0,0,1-58.94-87.56c-4.7-24.84-2.34-50.9-9.73-75.07-3-9.77-7.55-19.23-8.2-29.42-.57-8.84,1.85-17.55,4-26.12a544.18,544.18,0,0,0,16.9-130.94c.09-12.47-.24-25.08,2.56-37.22S34.05,165.15,40,154.28c24.15-44.07,54.26-88,99.37-110.13C158.16,34.93,180,29,192.72,12.36c-4.15,10.28-.22,22.3,6.58,31s16.12,15.1,24.64,22.18c34.55,28.72,56.41,70.47,68.1,113.85s13.94,88.7,14.84,133.62c1,50,.28,100.75-13.65,148.76s-42.68,93.59-86.32,118c-20.78,11.62-49.9,22.58-74.07,22.59C114.84,602.38,94.25,584.65,78.85,574.72Z"/><path d="M132.83,604.27c-14.86,0-30.82-11.18-44.89-21-3.58-2.51-7-4.87-10.12-6.91h0a138.12,138.12,0,0,1-59.77-88.8c-2-10.53-2.74-21.4-3.46-31.9-1-14.33-2-29.15-6.21-43-.85-2.78-1.86-5.6-2.83-8.33-2.45-6.89-5-14-5.46-21.52-.56-8.6,1.61-17,3.7-25.16l.4-1.55A542.5,542.5,0,0,0,21,225.6l0-4.35c0-11,.06-22.35,2.59-33.29,2.84-12.34,8.82-23.85,14.71-34.59C59.88,114.06,90.74,65.92,138.53,42.46c4.56-2.24,9.35-4.31,14-6.31,14.44-6.23,29.36-12.67,38.69-24.93L199.75,0l-5.28,13.07c-4.12,10.21.57,21.77,6.32,29.17,5,6.49,11.71,11.78,18.16,16.89,2.08,1.65,4.16,3.3,6.2,5,40.24,33.45,59.58,80.9,68.72,114.81C306.05,224.17,308,271.86,308.77,313c.92,46.19.7,99.64-13.72,149.32-15.71,54.15-46.69,96.45-87.22,119.11-19.73,11-49.8,22.81-75,22.82Zm-53-31.14c3.22,2.08,6.63,4.46,10.24,7,13.62,9.55,29.05,20.37,42.72,20.37h0c24.46,0,53.83-11.55,73.14-22.35,39.66-22.16,70-63.66,85.44-116.86C305.69,412.11,305.9,359,305,313.09c-.82-40.93-2.7-88.35-14.78-133.17-9-33.38-28-80.06-67.48-112.89-2-1.67-4.07-3.3-6.13-4.93-6.63-5.26-13.47-10.69-18.8-17.54-5.05-6.5-9.33-16-8.58-25.4-9.7,9.46-22.63,15-35.2,20.46-4.6,2-9.35,4-13.82,6.23-46.84,23-77.27,70.51-98.54,109.34-5.75,10.5-11.6,21.75-14.34,33.62-2.42,10.53-2.46,21.67-2.49,32.45v4.36A546.36,546.36,0,0,1,7.85,357l-.4,1.56c-2,7.86-4.1,16-3.59,24,.45,7,2.78,13.54,5.26,20.49,1,2.77,2,5.63,2.87,8.49,4.35,14.24,5.38,29.28,6.38,43.82.71,10.39,1.45,21.15,3.4,31.46A134.24,134.24,0,0,0,79.87,573.13Z"/><path class="cls-2" d="M41.39,529.62l6.9.33A139.56,139.56,0,0,1,23.2,450.1L51,480.55c3,3.24,6.09,6.6,10.22,8.08,11.91,4.27,26.19-8.66,36.86-1.88A62.53,62.53,0,0,1,75,467.9c2,1.49,4.93-.88,4.93-3.35s-1.77-4.52-3.43-6.34l-19.19-21,17.66-1c-15.53-5.09-27.07-18.71-33.52-33.73s-8.52-31.48-10.53-47.7c-3.95-32-7.58-66.09,6.52-95.09,4.87-10,11.7-19,15.94-29.31,7.86-19.1,6.06-40.58,5.91-61.24s2.15-43,16-58.37c-1.32,6.53,6.32,13,12.53,10.56-.48-10-.73-20.82,5-29S112.77,81.54,118.09,90c.65-3.59-.58-7.22-.77-10.87-.61-11.59,11.37-22.07,22.78-19.91-3.09,5.36,1.64,13.29,7.83,13.12l3.51-15.72a19,19,0,0,1,8.69,12.79,59.44,59.44,0,0,0,8.68-30.72l13.1-1.44.48,13.7a15.37,15.37,0,0,1,10.47-.91l2.76,29.55c3.91-3.47,9.43,1.82,11.9,6.43l21.41,40c4.71,8.79,10.71,18.55,20.53,20.24,3.61.62,7.36,0,11,.73,10.84,2.15,15.87,14.6,18.18,25.42a210.25,210.25,0,0,1-8,114.9c-3.15,8.65-6.91,18-4,26.76,4.33,13.09,21.36,18.24,26.56,31,5.74,14.12-5.52,29-16,40.09l-21.86,23.22c3.89-4,11.32-2.38,14.43,2.25s2.56,10.95.15,16a25.17,25.17,0,0,1-11,11.35,36.21,36.21,0,0,1-3,25.48c-5,9.54-14,16.27-21.21,24.24s-13.17,18.91-10,29.2a172.46,172.46,0,0,0-43.54,31.07l19.08,2.9.86,9.62c0,7.69-76.13,27.09-87.7,24.6C85.24,579,57.28,552.44,41.39,529.62Z"/><path class="cls-3" d="M56.56,526.41c-4.21-3.64-8.79-8-8.73-13.58l9.26,1.37L45.15,502.66c-8-7.7-16.06-15.56-21.42-25.26s-7.67-21.71-3.46-32q20.56,23.46,41.12,46.91c1.8,2.06,4,4.3,6.76,4,4.44-.42,5.44-6.45,8.54-9.66,3.81-3.93,10.26-3,15.56-1.6a194.71,194.71,0,0,1,26.44,9.22c4.13,1.77,8.31,3.78,11.3,7.13,6.26,7,5.6,17.6,4.58,27-1.69,15.43,2.63,55.62-20.95,46.75C94.18,567.88,72.42,540.07,56.56,526.41Z"/><path class="cls-3" d="M92.48,419.66c-30.15-6.7-53.7-32.49-63.55-61.76s-7.61-61.43-.08-91.38c4-15.79,9.37-32.46,4.34-47.95A7.9,7.9,0,0,0,43.61,224c-2.55-5.06,3-11.95,8.45-10.59-1.24-34.72-1.8-72,17.49-100.94,5.69,7.29,4.14,17.62,3.26,26.83s.26,20.37,8.43,24.71A139.66,139.66,0,0,1,99.6,81.12c7.62-.74,10.91,9.17,12.47,16.67a97.61,97.61,0,0,0,30.53,52.67c3.21,2.84,6.73,5.64,8.36,9.61,1.42,3.48,1.18,7.4.91,11.15L140.59,328.85q-2.75,38.53-5.51,77.06c-.86,12.2,1.79,20.63-9.76,22.42C119.29,429.27,99.46,421.21,92.48,419.66Z"/><path class="cls-3" d="M145,112.1c-1.18-2.29-2.4-4.7-2.4-7.28s1.61-5.38,4.16-5.77,5.11,2.84,3.56,4.91c1.39-3.16.9-6.78.5-10.2s-.62-7.14,1.21-10.06,6.51-4.22,8.73-1.59A38.43,38.43,0,0,0,171,57.65c.2-5.14-.64-10.33.19-15.4s3.94-10.3,9-11.46c4.29,9.41-3.3,19.53-6.74,29.28-1.95,5.53-2.56,11.44-3.32,17.26-1.67,12.8-3.35,46.23-14.61,53.38C151.18,125.18,148.3,118.41,145,112.1Z"/><path class="cls-3" d="M215.34,182c4.59-1.88,9.6-2.79,13.84-5.35s7.65-7.56,6.25-12.31L228,169.43c-1.91-2.89-.24-6.93,2.36-9.21s6-3.5,8.74-5.58c8.25-6.19,9.23-18,9.48-28.29-4.29,1.54-6.72-5.31-5.09-9.57s4.79-8.87,2.65-12.9c-.79-1.49-2.21-2.56-3.11-4-2-3.2-1.11-7.36-1.62-11.12s-4.46-7.8-7.6-5.67l-5.43,2.36-22.4,9.71-1.44-11a13.71,13.71,0,0,1-13,6.47c.73-11.62,11-22.71,6.72-33.55a5.54,5.54,0,0,1-5.91-5.31c-8.65,7.6-17.46,15.4-23.09,25.44-4.46,7.92-6.71,16.87-8.6,25.76-4.68,22-18.47,70.19-5.33,91.29C171.2,219.86,198.83,188.79,215.34,182Z"/><path class="cls-3" d="M230.6,237.88A33.08,33.08,0,0,1,219.45,253l34.94-5.69c2.52-.41,5.2-.89,7.12-2.58,7.32-6.48-1.71-24,7.87-26a36.73,36.73,0,0,1-23.26,7.94,21.83,21.83,0,0,1-2.92-14c14.31-1.27,20-25.64,34.13-23.22,8.55,1.46,11.78,11.83,13.29,20.37,2.82,16,5.52,33.15-1.19,47.94,4.32-.7,6.31,5.16,6.58,9.53l2.28,37.38c1.5,24.42.63,53.73-20.06,66.77-4,2.53-9.16,5.06-9.55,9.8-.23,2.8,1.42,5.68.53,8.35-1.11,3.29-5.18,4.21-8.17,6-6.23,3.64-8.08,13.07-3.68,18.8L241.78,418l.25,8.23c3.78-3,10-3.12,12.94.72s-.53,10.84-5.24,9.82c8.1,11.53-1.61,26.89-11,37.42-9.72,10.91-20.57,22.36-34.91,25.14l23.47,1.6C224.5,509,217.07,514.36,210,519.24L180.69,539.6c-13.23,9.18-27.67,18.75-43.77,18.32-1.77,0-3.67-.27-5-1.45-1.87-1.66-1.89-4.52-1.77-7,3.72-71.71,6.94-143.45,10.55-215.16,1.64-32.45-2.92-73.77,7-104.72,2.87-8.89,9.35-22.57,20.78-20.62,11.07,1.89,18.93,19.32,12.72,28.25C197.05,241,214.63,240.46,230.6,237.88Z"/><path class="cls-4" d="M174.83,453.55c3.29,0,7-.25,9.2-2.68s1-7.55-2.28-7.35a29.65,29.65,0,0,1,15.71-2l.44-9.58,6.74-.51a20.83,20.83,0,0,1-6.78-8A30.18,30.18,0,0,0,223.25,413c-2.52-4.28-8.93-1.69-13.59,0-5,1.85-10.46,2-15.8,2.19l-33.74,1,15.49,10a18.78,18.78,0,0,1-10.21,1.29c1.53,4.22-4,7.56-8.49,7.87C130.79,437.24,163.05,453.53,174.83,453.55Z"/><path class="cls-5" d="M126.48,598.69c1.93-47.49,3.14-95.1,5.28-142.65s4.11-95.11,7.33-142.61c.74-11.88,1.7-23.75,2.57-35.62,1-11.86,1.92-23.73,3.11-35.57,2.17-23.71,4.88-47.37,7.93-71s6.77-47.13,10.84-70.58c2.24-11.68,4.22-23.42,6.78-35s5.86-23.17,11.26-33.79c-5.26,10.69-8.38,22.27-10.8,33.88s-4.23,23.41-6.31,35.11c-3.76,23.49-7.19,47-9.9,70.65s-5.13,47.28-7,71c-1,11.84-1.77,23.71-2.64,35.56-.71,11.87-1.51,23.73-2.1,35.61-2.58,47.48-4.06,95-5.43,142.58S135.31,551.34,134,599Z"/></g></g></g></svg>