<svg xmlns="http://www.w3.org/2000/svg" viewBox="0 0 182.05 438.74"><defs><style>.cls-1{fill:#bad0be;}.cls-1,.cls-11,.cls-12,.cls-14,.cls-16,.cls-18,.cls-21,.cls-22,.cls-24,.cls-25,.cls-27,.cls-3,.cls-30,.cls-31,.cls-32,.cls-33,.cls-35,.cls-36,.cls-37,.cls-39,.cls-4,.cls-41,.cls-42,.cls-44,.cls-45,.cls-47,.cls-49,.cls-5,.cls-50,.cls-51,.cls-53,.cls-55,.cls-56,.cls-59,.cls-6,.cls-60,.cls-62,.cls-63,.cls-64,.cls-65,.cls-66,.cls-7,.cls-8,.cls-9{stroke:#000;stroke-miterlimit:10;}.cls-2{fill:#a7b8a1;}.cls-3{fill:#bed3b3;}.cls-4{fill:#bdc9ba;}.cls-5{fill:#a6b199;}.cls-6{fill:#b4b9b0;}.cls-7{fill:#c7dac5;}.cls-8{fill:#c3dac0;}.cls-9{fill:#cae2ca;}.cls-10{fill:#b4c8a3;}.cls-11{fill:#b3c8a3;}.cls-12{fill:#c0dcc2;}.cls-13{fill:#cdd7ae;}.cls-14{fill:#bfdbc0;}.cls-15{fill:#b8cda8;}.cls-16{fill:#c1d8c6;}.cls-17{fill:#a1b29c;}.cls-18{fill:#bbd3b7;}.cls-19{fill:#a5ad9f;}.cls-20{fill:#b3bfa0;}.cls-21{fill:#c4dcc4;}.cls-22{fill:#9dad97;}.cls-23{fill:#cbe2c9;}.cls-24{fill:#c6dcc3;}.cls-25{fill:#becfbe;}.cls-26{fill:#9daa99;}.cls-27{fill:#cfe2cb;}.cls-28{fill:#d3deb7;}.cls-29{fill:#a5b99e;}.cls-30{fill:#cad4b1;}.cls-31{fill:#bad0c3;}.cls-32{fill:#c8ddbd;}.cls-33{fill:#c9ddbb;}.cls-34{fill:#aac2aa;}.cls-35{fill:#c5dcbf;}.cls-36{fill:#bcd6bb;}.cls-37{fill:#c0dbc1;}.cls-38{fill:#a9bbac;}.cls-39{fill:#bad1be;}.cls-40{fill:#c6d8af;}.cls-41{fill:#d0e5c6;}.cls-42{fill:#ccdbb4;}.cls-43{fill:#bbd0a4;}.cls-44{fill:#949b8c;}.cls-45{fill:#c3ddc3;}.cls-46{fill:#b4c49d;}.cls-47{fill:#c5dabb;}.cls-48{fill:#c0d0a5;}.cls-49{fill:#cfe4c9;}.cls-50{fill:#ccdebe;}.cls-51{fill:#c4ddbd;}.cls-52{fill:#cdd7b4;}.cls-53{fill:#c6d8b5;}.cls-54{fill:#b1af9e;}.cls-55{fill:#b9d3ba;}.cls-56{fill:#cbdac0;}.cls-57{fill:#a9bba4;}.cls-58{fill:#abc2a4;}.cls-59{fill:#a0b199;}.cls-60{fill:#c9e1c5;}.cls-61{fill:#c5d0a7;}.cls-62{fill:#b7c09e;}.cls-63{fill:#c1dbc4;}.cls-64{fill:#b5cbb2;}.cls-65{fill:#cbe1c9;}.cls-66{fill:#c6e1ca;}.cls-67{fill:#bec2a1;}</style></defs><g id="Layer_2" data-name="Layer 2"><g id="plants"><g id="string-of-pearls"><path class="cls-1" d="M156.75,68c4.06,3.3,7.29,7.86,8.08,13,.43,2.8-.14,6.13-2.59,7.54a8.08,8.08,0,0,1-2.91.84c-2.77.39-5.71.45-8.24-.74-4.57-2.15-6.45-7.53-7.89-12.36-1.18-4-4.69-11.3.34-13.7C147.6,60.64,153.88,65.62,156.75,68Z"/><path class="cls-2" d="M151.12,77.18a5.72,5.72,0,0,1-.64,2.88,2.83,2.83,0,0,1-2.42,1.51c-1.44,0-2.46-1.4-3.13-2.68a23.82,23.82,0,0,1-2.66-10.66c-.05-4.94,3.34-4.07,5.44-.86C149.62,70.3,151.14,73.62,151.12,77.18Z"/><path class="cls-3" d="M119,55.76c-3.54,3.21-7.66,6-12.36,6.88a33.35,33.35,0,0,1-5.47.43,8.17,8.17,0,0,1-3.84-.57,5.75,5.75,0,0,1-1.64-1.35,9.59,9.59,0,0,1-1.91-8,13.5,13.5,0,0,1,4.31-7.21,33,33,0,0,1,4.3-3.13,16,16,0,0,1,2.39-1.34c1-.4,2-.61,3-.92,4.8-1.47,8.85-5.08,13.81-5.84a23.63,23.63,0,0,1,3.67-.18,10.43,10.43,0,0,1,5,.86c1.2.64,2.57,2.3,2.13,3.77a4.32,4.32,0,0,1-1,1.42,19.43,19.43,0,0,0-1.46,2.12,67.46,67.46,0,0,1-6.6,8.79A57.63,57.63,0,0,1,119,55.76Z"/><path class="cls-4" d="M133.19,425.24a2.92,2.92,0,0,0,4-2.48c2-27.27.55-54.81-.25-82.2-1-35.47,3.13-70.52,2.2-106-1.34-50.87-2.9-76.47.56-114.29,2.12-23.21,5.51-46.66,2-69.7-1.54-10.25-4.29-26.15-11.47-33.47-8.42,7.3,1.59,35.92,2.08,46.81.86,19.3-.88,38.62-1.83,57.89-4.5,91.82-5.15,184.52-2.09,280.1.31,9.74.39,13.62.2,19.44a2.92,2.92,0,0,0,1.83,2.81Z"/><path class="cls-5" d="M127.66,106.07c-2.36,4.54-5.79,9-10.7,10.43a12.28,12.28,0,0,1-14.47-7.3c-1.79-4.92-.09-10.56,3-14.8a27.44,27.44,0,0,1,16.89-10.48c3-.59,6.35-.66,9.14.72,4,2,5.2,5.54,2.75,8.9C131.45,97.38,129.85,101.86,127.66,106.07Z"/><path class="cls-6" d="M139,137.82l5,11.68a12.9,12.9,0,0,0,6.31,7.43,13,13,0,0,0,4.3,2.13,9.62,9.62,0,0,0,6.15-1.1,18.09,18.09,0,0,0,8.68-9.39,11.11,11.11,0,0,0,.91-4.85,14.66,14.66,0,0,0-2.49-6.36c-1.71-2.82-3.66-5.62-6.44-7.4a24.79,24.79,0,0,0-6.9-2.65,32.79,32.79,0,0,0-8.63-1.56c-2.55,0-6.49.66-7.89,3.1C136.41,131.49,137.88,135.32,139,137.82Z"/><path class="cls-7" d="M157.16,108c3.27,3.15,6,7.13,6.51,11.63a13.69,13.69,0,0,1-3.51,10.87,13,13,0,0,1-10.66,4,10.24,10.24,0,0,1-4.17-1.35,14,14,0,0,1-2.9-2.42,25.19,25.19,0,0,1-5.3-7.93c-1.91-4.75-5-19.35.86-22.45C143.64,97.3,153.43,104.35,157.16,108Z"/><path class="cls-8" d="M136.18,96.62a26.51,26.51,0,0,1-3.78,7.67,14.54,14.54,0,0,1-15.31,4.46,16.69,16.69,0,0,1-10.92-12,14.22,14.22,0,0,1-.36-5.07c.64-5.25,4.81-9.56,9.66-11.68s10.29-2.37,15.58-2.23A14.34,14.34,0,0,1,137.18,79C143.93,82.43,138,91.76,136.18,96.62Z"/><path class="cls-9" d="M164,35.08a22,22,0,0,1,6.55,3.22c2.7,1.83,5.32,4.11,6.36,7.2,1.4,4.14-.52,9-4,11.59a15.79,15.79,0,0,1-12.47,2.47,20.67,20.67,0,0,1-9.25-4.36,41.59,41.59,0,0,1-4.14-4.15c-3.59-4-12.66-12.17-6-16.63C145.48,31.53,159.12,33.77,164,35.08Z"/><path class="cls-10" d="M145,37.46a15.16,15.16,0,0,1,5.12.66,120.93,120.93,0,0,1,17.32,6,15.46,15.46,0,0,1,5.64,3.5c1.49,1.66,2.22,4.2,1.18,6.17A7.85,7.85,0,0,1,171,56.61a16.76,16.76,0,0,1-7.51,2.57,15.07,15.07,0,0,1-7.75-2.26,31.07,31.07,0,0,1-12.47-13c-1-2-1.63-4.65,0-6.08Z"/><path class="cls-11" d="M147.27,49.91a8.43,8.43,0,0,1,2.7.76A5.58,5.58,0,0,1,149.13,61a9.41,9.41,0,0,1-2.59.35c-3.69.13-9-1.55-8.53-6.21C138.41,50.74,143.69,49.43,147.27,49.91Z"/><path class="cls-12" d="M131.05,16.68A13.32,13.32,0,0,0,127,13a13.12,13.12,0,0,0-7.87-1.21c-3.95.47-7.9,2.2-10.29,5.39s-2.85,7.93-.46,11.12c3.44,4.58,17.39,10.73,23.11,8.17C139,33.07,134.71,21.51,131.05,16.68Z"/><path class="cls-13" d="M116.63,18.57a7.93,7.93,0,0,0,1.84,4.32,9,9,0,0,0,5.68,2.51c2.1.25,4.23.13,6.32.41a3.74,3.74,0,0,1,2.87,1.43,4.17,4.17,0,0,1,.36,2.33,5.67,5.67,0,0,1-.4,2.24,5.11,5.11,0,0,1-.92,1.2,8.7,8.7,0,0,1-3.65,2.33,5.11,5.11,0,0,1-4.2-.49,4,4,0,0,0-1-.56c-.24-.08-4.37-1.68-6-2.09-.75-.19-1.54-.26-2.27-.5a9.8,9.8,0,0,1-2.46-1.39,12.68,12.68,0,0,1-2.43-2,8,8,0,0,1-.81-8.53,12.63,12.63,0,0,1,4.45-4.95c.69-.46,1.69-.92,2.28,0S116.49,17.53,116.63,18.57Z"/><path class="cls-14" d="M106.32,71.92a8.32,8.32,0,0,1-3.81-.53,9.47,9.47,0,0,1-3-2.71c-2.62-3.14-5.31-6.73-5.11-10.81.26-5.21,5.14-9,10-10.91,6.48-2.56,33.55-5.23,29.86,7.06C131.1,64.41,116.16,71.55,106.32,71.92Z"/><path class="cls-15" d="M110.7,60.44a6.06,6.06,0,0,1,2.72,2,5.37,5.37,0,0,1,.66,3.28,5,5,0,0,1-.94,2.89c-1,1.2-2.68,1.48-4.23,1.67a9,9,0,0,1-2.31.09,9.32,9.32,0,0,1-3.82-1.79C100.93,67.33,99,66,97.9,64.09s-1.1-5.19,1.49-6a5.94,5.94,0,0,1,2.44.15c1.4.18,2.78.3,4.16.61A25.5,25.5,0,0,1,110.7,60.44Z"/><path class="cls-16" d="M174.29,86.92a14.8,14.8,0,0,1,4.32,2.8c3.75,3.72,3.79,10.2.84,14.57s-8.27,6.73-13.53,7.09a8.17,8.17,0,0,1-4.11-.54,9.66,9.66,0,0,1-2.68-2.17c-4.19-4.32-22.13-19.63-16-25.42C148.44,78.26,168.53,84.29,174.29,86.92Z"/><path class="cls-17" d="M158.8,95.17c5.94,2,12.4,1.41,18.63.72a1.92,1.92,0,0,1,1.14.11,1.62,1.62,0,0,1,.64.9,7.23,7.23,0,0,1-.89,6.21,14.73,14.73,0,0,1-4.71,4.41c-2.51,1.62-5.49,2.91-8.43,2.36s-5.07-2.65-7.13-4.67l-7.75-7.63c-1.4-1.39-4.62-5.65-.63-6C152.33,91.35,156.28,94.33,158.8,95.17Z"/><path class="cls-18" d="M117.4,126.76a48,48,0,0,0-13.57,1.47,21.9,21.9,0,0,0-11.38,7.21,10.56,10.56,0,0,0-2.18,4.47,11.7,11.7,0,0,0,.36,5c1.16,4.66,4.07,9.34,8.69,10.65a12.53,12.53,0,0,0,8.53-1,37.12,37.12,0,0,0,7.26-4.89l9.52-7.55c2.52-2,5.08-4.05,6.76-6.78s2.8-7-1.17-7.89S121.48,126.78,117.4,126.76Z"/><path class="cls-19" d="M128.32,137.82a17.39,17.39,0,0,1-3.54,3L120,144.13l-6.57,4.61a4.39,4.39,0,0,1-2.41,1,2.82,2.82,0,0,1-2.46-2.57,6.45,6.45,0,0,1,1-3.7,19.92,19.92,0,0,1,10.67-9.11C123.22,133.27,133.33,131.85,128.32,137.82Z"/><path class="cls-20" d="M102.34,146.52a5.27,5.27,0,0,1,1.09,2.87,3.5,3.5,0,0,1-.56,2.67,2.88,2.88,0,0,1-1.25.82,4.38,4.38,0,0,1-3.26-.12,6.79,6.79,0,0,1-2.61-2.3C91.88,145.14,99.17,142.8,102.34,146.52Z"/><path class="cls-21" d="M155.34,159.27c5.25.89,10.59,2.49,14.56,6s6.2,9.46,4.19,14.39a13.64,13.64,0,0,1-3.82,5.06,15.32,15.32,0,0,1-6.25,3.38,16,16,0,0,1-11.53-2,35.61,35.61,0,0,1-9-7.87c-2.07-2.36-4.11-4.89-6.93-6.26a10.83,10.83,0,0,1-2.74-1.49c-3.44-3.2-1.89-10.39,2.55-11.68C142.12,157.18,149.61,158.3,155.34,159.27Z"/><path class="cls-22" d="M131.13,174.64a18.56,18.56,0,0,1-9.92,10.61c-1,.41-2,.73-3.06,1.05l-3.45,1.06a17.38,17.38,0,0,1-4.19.93c-2.9.17-5.7-1.09-8.18-2.61-2-1.23-4-2.76-4.81-4.93a12.67,12.67,0,0,1-.58-4.87,17.16,17.16,0,0,1,.85-6.22c1.08-2.69,3.45-4.63,5.72-6.44l5.89-4.7a17.6,17.6,0,0,1,5.13-3.2,17.49,17.49,0,0,1,6.54-.47c3.81.2,9.74.59,10.77,5.1A26.68,26.68,0,0,1,131.13,174.64Z"/><path class="cls-23" d="M103.72,170.91a20,20,0,0,0,4,8.36,16.71,16.71,0,0,0,4,4.18,7.11,7.11,0,0,0,5.52,1.23,9.13,9.13,0,0,0,2.64-1.25,25.65,25.65,0,0,0,9.82-11.72,12.26,12.26,0,0,0,.95-7.7c-1.17-4.37-6-7-10.56-6.88C112.74,157.29,102.3,162.22,103.72,170.91Z"/><path class="cls-24" d="M111.58,222.56a24.75,24.75,0,0,1-7.92,2.39,14.51,14.51,0,0,1-13.38-7c-1.84-3.14-2.4-6.87-2.55-10.51a10.49,10.49,0,0,1,.32-3.67c.44-1.37,4.87-9.81,8.24-10.75A56.64,56.64,0,0,1,107,191.72c6.38-.15,13.65,2.94,18.75,6.77,3.48,2.61,5,10.26,2.27,14C124.58,217.19,116.69,220.19,111.58,222.56Z"/><path class="cls-25" d="M173.84,215.53c3.73,3.84,4.63,9.58,4.78,14.94a14.22,14.22,0,0,1-.92,6.45,9.91,9.91,0,0,1-2.19,3c-4.3,4.14-10.89,5.22-16.74,4s-11.1-4.32-16-7.72c-8.43-5.86-12.56-16.93-.54-20.58C151.51,212.77,165.88,207.35,173.84,215.53Z"/><path class="cls-26" d="M158.79,235c4.37,1.2,9.37,1.33,13.07-1.27.71-.49,1.55-1.11,2.35-.78a1.85,1.85,0,0,1,.94,1.54,5.88,5.88,0,0,1-2.55,5.25A14.64,14.64,0,0,1,167,242a23.54,23.54,0,0,1-8.51.69c-2.7-.38-16.18-6.28-14.74-9.85C145.26,229,156.84,234.51,158.79,235Z"/><path class="cls-27" d="M139,211.79c2.79,1.84,4.64,4.79,6,7.84a16.09,16.09,0,0,1,1.75,8.3,11.53,11.53,0,0,1-4.63,7.77,15.47,15.47,0,0,1-8.68,2.91,13.29,13.29,0,0,1-5.73-.92,12.28,12.28,0,0,1-6.23-6.51,19.31,19.31,0,0,1-1.31-9C120.85,213.44,131,206.49,139,211.79Z"/><path class="cls-28" d="M131,230.72a4.09,4.09,0,0,1-1.22,1.59,4.94,4.94,0,0,1-3.64.38,4,4,0,0,1-1.33-.37,3.22,3.22,0,0,1-1.08-1.06,11.43,11.43,0,0,1-1.87-5.59c-.31-3.81,2.92-8.28,7.08-5.87C132.46,221.85,132.58,227.53,131,230.72Z"/><path class="cls-29" d="M143.63,231.51a8.36,8.36,0,0,1-2.58,2.4A13,13,0,0,1,136.4,236a2.05,2.05,0,0,1-1.6-.19c-.77-.56-.57-1.77-.1-2.59a12.41,12.41,0,0,1,5.45-4.54C142.68,227.67,145.66,228.22,143.63,231.51Z"/><path class="cls-30" d="M102.18,259.89c-3.1-.44-6.47-.52-9.1,1.17a14.42,14.42,0,0,0-4.28,5.18c-2.17,3.74-4.22,8.05-3.14,12.24,1.15,4.46,5.68,7.38,10.23,8.08s9.17-.39,13.64-1.47l13.16-3.17c2.84-.68,5.91-1.51,7.69-3.83C136.64,269.91,107.72,260.68,102.18,259.89Z"/><path class="cls-31" d="M144.7,263.78a20.86,20.86,0,0,1,4.81-1.58,15,15,0,0,1,14,5.3A15.76,15.76,0,0,1,166,282.32a10.7,10.7,0,0,1-2.27,3.92,15.61,15.61,0,0,1-3.88,2.68,22.48,22.48,0,0,1-5.58,2.44c-5.15,1.19-10.41-1.4-14.71-4.48-2.57-1.84-5.07-4-6.44-6.83C129.21,271.85,138.45,266.57,144.7,263.78Z"/><path class="cls-32" d="M165.18,244.13a12.33,12.33,0,0,1,6.53,5.83,15.23,15.23,0,0,1-3.16,18,12.82,12.82,0,0,1-5.34,2.91c-7.32,1.83-25.69-7.85-25.83-16.32C137.22,244.79,158.74,241.88,165.18,244.13Z"/><path class="cls-33" d="M110.24,267.82c-5.08-.25-9.18-4.11-12.5-8a19.79,19.79,0,0,1-4.24-6.66,12.43,12.43,0,0,1,3.44-12.33,16.53,16.53,0,0,1,12.4-4.25,19.69,19.69,0,0,1,7,1.73c6,2.71,16.44,8.13,14,16.1C128.2,261.15,117,268.16,110.24,267.82Z"/><path class="cls-34" d="M115.46,257.49c1.2-2.08,2.51-4.27,4.63-5.4s5.29-.65,6.2,1.57a4.78,4.78,0,0,1-.4,3.88,8.9,8.9,0,0,1-8.15,4.81,2.33,2.33,0,0,1-1.53-.48,2.52,2.52,0,0,1-.62-1.16,14.23,14.23,0,0,1-.55-5.54"/><path class="cls-35" d="M136.11,319.39a21,21,0,0,0,3.07,6.42,11.82,11.82,0,0,0,12.95,3.39,13.29,13.29,0,0,0,8.2-9.19A14,14,0,0,0,157.5,308c-4.89-5.89-13.38-6.8-20.59-9.37C123.48,293.83,134.21,313.92,136.11,319.39Z"/><path class="cls-36" d="M107.79,341.3a21.68,21.68,0,0,1-10.52.3c-3.43-.93-6.59-3.43-7.52-6.85-1-3.6.62-7.39,2.51-10.61A21,21,0,0,1,98.47,317c6-3.94,14-2.23,21-.38l6.44,1.7C143.53,323,114.64,339.69,107.79,341.3Z"/><path class="cls-37" d="M157.45,343.68c5.26,2.73,8.9,8.71,8.08,14.57A13.08,13.08,0,0,1,151.86,369c-5.87-.56-21.42-8.1-18.46-15.82C136.09,346.23,151.18,340.42,157.45,343.68Z"/><path class="cls-38" d="M154.62,355.63c2.21-.08,4.82-.14,6.17,1.61,1.47,1.91.42,4.78-1.31,6.45a10.08,10.08,0,0,1-5.55,2.73c-3.62.53-14.17-2.32-14.21-7.09C139.66,353.11,151.38,355.76,154.62,355.63Z"/><path class="cls-39" d="M112,430.4c-2.56,2-5.51,3.73-8.74,3.85a11.08,11.08,0,0,1-8.41-3.73,15.63,15.63,0,0,1-3.73-8.58,8.18,8.18,0,0,1,.26-3.81,9.1,9.1,0,0,1,2.07-3,39.64,39.64,0,0,1,25.41-12.1c2.5-.2,5.28-.06,7.12,1.64C134.06,412.19,117.4,426.2,112,430.4Z"/><path class="cls-40" d="M110.68,426.7A10.09,10.09,0,0,1,107.5,429c-2.5,1.28-5.55,2-8.07.78-2.09-1-3.38-3.17-4.26-5.32C87.14,404.93,121.74,413.69,110.68,426.7Z"/><path class="cls-41" d="M138.4,399.77c-1.89,5.34-6.9,10.06-12.56,9.61-4.28-.35-8-3.67-9.44-7.71-3.23-8.91,2.29-19.54,12.06-20.33S141.06,392.23,138.4,399.77Z"/><path class="cls-42" d="M163.3,414.58c2,2.1,4,4.35,4.74,7.13,1.5,5.37-2,10.86-6.14,14.63a6.36,6.36,0,0,1-3.1,1.84,6,6,0,0,1-3.33-.64c-6.95-3-11.86-9.3-16.25-15.48a22.69,22.69,0,0,1-3.3-5.82c-1.2-3.61-1.87-8.7,1.53-10.55,2.06-1.12,7.06-1.07,9.5-1C153.6,405,159,409.94,163.3,414.58Z"/><path class="cls-43" d="M152.11,430.93a26.64,26.64,0,0,0,3.25-11.46,3.89,3.89,0,0,1,.72-2.59c1.13-1.16,3.11-.33,4.29.76a13.24,13.24,0,0,1,4.23,8.8c.14,2.3-.47,4.86-2.37,6.16a7.2,7.2,0,0,1-2.74,1,7.81,7.81,0,0,1-5.27-.54c-1.56-.9-2.55-2.95-1.78-4.58"/><path class="cls-44" d="M55.47,239.29a14.45,14.45,0,0,0,12.77.47,7.54,7.54,0,0,0,3.86-3.47,17.6,17.6,0,0,0,.85-4c.29-1.58.91-3.1,1.09-4.69a10.53,10.53,0,0,0-4.15-9.08,17.47,17.47,0,0,0-9.67-3.41,9.08,9.08,0,0,0-3.12.21,8.63,8.63,0,0,0-2.68,1.49C46.14,223.09,45.74,233.94,55.47,239.29Z"/><path class="cls-45" d="M87.76,205.46c4,.88,8.09,2.94,9.7,6.69a14,14,0,0,1,.52,7.46c-.78,5.43-3.14,11.27-8.17,13.48-4.37,1.92-9.5.54-13.73-1.68s-8-5.25-12.53-6.88c-2.7-1-5.74-1.51-7.76-3.55-1.77-1.78-4.08-7.46-2.39-9.86,1.3-1.85,6.17-1.94,8.35-2.65C70.08,205.74,79,203.51,87.76,205.46Z"/><path class="cls-46" d="M82.44,221.73a8.44,8.44,0,0,1,6.3-1.35,5.44,5.44,0,0,1,4.26,4.5,5.78,5.78,0,0,1-3,5.25,12.36,12.36,0,0,1-6.17,1.4C75.51,231.66,77,225.2,82.44,221.73Z"/><path class="cls-47" d="M45.11,239.15c-2.65,5.41-5.82,11.3-11.49,13.32A12.83,12.83,0,0,1,21.25,250a15,15,0,0,1-5-11.78,13.13,13.13,0,0,1,2-6.66c2.34-3.63,6.54-5.53,10.5-7.23l16.63-7.15a15.07,15.07,0,0,1,5.09-1.5,5.12,5.12,0,0,1,4.64,2.07c1.78,2.82-2.55,6.22-3.74,8.61C49.24,230.59,47.19,234.88,45.11,239.15Z"/><path class="cls-48" d="M24.75,237.55A5.6,5.6,0,0,1,30.84,240a6.69,6.69,0,0,1,.12,6.69,5,5,0,0,1-4.33,2.85,6.93,6.93,0,0,1-4-2A11,11,0,0,1,19,242.84c-.63-1.89-.15-4.29,1.57-5.3s3.6-.44,5.37.08"/><path class="cls-49" d="M65.7,29.91c5,.85,10.06,1.75,14.31,4.43S87.5,42,86.64,46.91c-.51,2.91-2.32,5.42-4.22,7.68-2.45,2.93-6,5.91-9.64,4.88a10.55,10.55,0,0,1-4.08-2.68q-6.59-6-12.94-12.21c-2.91-2.85-9.42-7.37-9.92-11.76C44.89,24.48,61.86,29.25,65.7,29.91Z"/><path class="cls-50" d="M18.47,109.69c-3.06,1.24-6.51,2.2-9.61,1.06a11,11,0,0,1-4.26-3.1C1.24,103.94-.61,98.46,1.22,93.8c1.48-3.79,5.11-6.41,9-7.71s8-1.48,12-1.73a83.21,83.21,0,0,0,17-2.39c1.64-.44,3.35-1,5-.59,3.55.84,4.82,5.36,3.38,8.42-1.17,2.49-4.21,3.78-6.33,5.38C34.05,100.67,27,106.24,18.47,109.69Z"/><path class="cls-51" d="M32.27,155.21c-4.15,3.82-8.51,7.75-13.91,9.43s-12.13.43-15.13-4.35a14.6,14.6,0,0,1-1.83-5.13c-.82-4.37-.54-9.24,2.19-12.75,3.76-4.83,10.69-5.51,16.81-5.8l21.89-1c2.76-.13,5.87-.14,7.84,1.8,3.92,3.84.09,7.58-3.46,8.76C40.9,148.06,36.74,151.09,32.27,155.21Z"/><path class="cls-52" d="M8.75,151.16a6.63,6.63,0,0,1,8.74,6.17,3.91,3.91,0,0,1-.31,1.73c-.6,1.26-2,1.85-3.33,2.33a9,9,0,0,1-3.55.78c-3-.16-5-3.14-6.07-5.93-.67-1.75-1-4.1.52-5.17a4,4,0,0,1,2.32-.53,14.52,14.52,0,0,1,4.29.68"/><path class="cls-53" d="M13.74,176.8A16.7,16.7,0,0,0,8.38,181a16.39,16.39,0,0,0-3.28,8.15,17.25,17.25,0,0,0,3.23,13c2.87,3.57,7.76,5.61,12.2,4.51,8.14-2,11.22-12.47,18.69-16.27,3.3-1.67,7.59-2.19,9.43-5.39,4.41-7.69-7.85-9.34-12.33-10.13C28.8,173.53,20.71,173.17,13.74,176.8Z"/><path class="cls-54" d="M17.37,204.88a4.35,4.35,0,0,1-2.29-.28A1.89,1.89,0,0,1,14,202.73a2.69,2.69,0,0,1,.61-1.17,25.27,25.27,0,0,1,11.06-8.25c5.64-2.15,3.49,3.49,1.57,6A14.08,14.08,0,0,1,17.37,204.88Z"/><path class="cls-55" d="M53.64,145.73c-.63,8,0,16.54-.19,24.57-.16,7.6-1.21,14.63-.39,22.19q2.79,25.83,7.73,51.36c.67,3.43,2.21,6.25,1.39,9.18a1.57,1.57,0,0,1-1.37,1.19c-1.07,0-2.92,1.57-3.34.42-.76-2-.65-7.31-1.34-9.37A212,212,0,0,1,45.36,177c0-13.79,1.78-27.55,1.7-41.35C46.82,97.2,38.23,58.85,41.68,19.8,42.05,15.71,41-1.43,47.92.68c6.22,1.9,3,19.05,2.85,23.7a444.32,444.32,0,0,0,1,56.06C53.57,102.14,55.36,124,53.64,145.73Z"/><path class="cls-56" d="M30.26,38.34a14.16,14.16,0,0,1-12,1.72,11.33,11.33,0,0,1-7.63-9.12,19.35,19.35,0,0,1,.63-6.14,11.59,11.59,0,0,1,1.5-4.12A12,12,0,0,1,16,17.78c7.35-5.14,15.1-10.44,24-11.44a4.41,4.41,0,0,1,2.81.35,4.08,4.08,0,0,1,1.46,2C48.24,18.37,38,33.35,30.26,38.34Z"/><path class="cls-57" d="M25.48,38.19a2.15,2.15,0,0,1-2.16-.09c-.76-.7-.22-2,.38-2.81,1.38-2,9.78-15,13.57-10.09C40.45,29.29,28.36,37.17,25.48,38.19Z"/><path class="cls-58" d="M81.28,52.67c-1.26,1.94-2.92,3.79-5.15,4.44s-5-.37-5.67-2.6c-.9-3.15,6-12.53,9-13.59C86.76,38.31,83.09,49.9,81.28,52.67Z"/><path class="cls-59" d="M59.56,104.47c3.24,3.37,7.8,5.79,12.45,5.39a11.89,11.89,0,0,0,10.6-14.35A19.08,19.08,0,0,0,78.69,88a17.56,17.56,0,0,0-5.37-4.94,18.51,18.51,0,0,0-4.71-1.57A63.47,63.47,0,0,0,57.37,80a8.52,8.52,0,0,0-4.95.87C44.71,85.78,55.83,100.59,59.56,104.47Z"/><path class="cls-60" d="M51.25,90.65a14.2,14.2,0,0,0,11.64,2.91,27.28,27.28,0,0,0,4-1.21c3-1.09,6.3-2.42,7.79-5.27a9.54,9.54,0,0,0,.94-3.68A17.72,17.72,0,0,0,74.15,75c-1.91-4.37-6.06-8-10.84-8.18a13.88,13.88,0,0,0-3.79.48C48.57,70,40.69,82,51.25,90.65Z"/><path class="cls-61" d="M57.43,80.88a79.68,79.68,0,0,1,10.8-1,4.69,4.69,0,0,1,1.94.23,3.17,3.17,0,0,1,1.64,3.4A6.73,6.73,0,0,1,69.87,87a13.75,13.75,0,0,1-9.37,4.56C52.4,91.84,46.94,82.56,57.43,80.88Z"/><path class="cls-62" d="M39.22,131.75c-4.6,3.46-11.3,4.48-16.17,1.41a15.15,15.15,0,0,1-6.14-9c-1.1-4-.88-8.57,1.43-12,2-3.05,5.44-4.94,9-5.92a54.93,54.93,0,0,1,10.86-1.4c2.63-.19,5.42-.41,7.77.79C55.57,110.53,44.53,127.76,39.22,131.75Z"/><path class="cls-63" d="M26.58,124.39A12.56,12.56,0,0,1,23,109.15a9.94,9.94,0,0,1,2.2-3,14,14,0,0,1,7.09-2.89,42.23,42.23,0,0,1,15.53.25,4.2,4.2,0,0,1,2.17.92,3.81,3.81,0,0,1,1,2.1C53.29,118.41,37.56,132.51,26.58,124.39Z"/><path class="cls-64" d="M68.7,155.33c7.17.65,15.12,2.53,19,8.63a14.14,14.14,0,0,1,1.24,12,16.14,16.14,0,0,1-8.18,9,11.07,11.07,0,0,1-3.83,1.14c-3.44.29-6.7-1.66-9.17-4.06s-4.43-5.3-6.93-7.68c-3.84-3.62-13.48-8.74-11.33-15.45C51.47,152.58,64.07,154.91,68.7,155.33Z"/><path class="cls-65" d="M50.29,133c1.56-1.35,3.81-1.41,5.87-1.41H73.39a15.09,15.09,0,0,1,3.68.3,10.83,10.83,0,0,1,4,2.09c5.19,4.07,7.77,11.44,5.65,17.7s-9.13,10.61-15.58,9.19c-5.48-1.21-9.44-5.82-13-10.17C55.3,147.16,44.44,138,50.29,133Z"/><path class="cls-66" d="M60.79,217.07a14.08,14.08,0,0,1-9.42,4.78,9,9,0,0,1-3.47-.32,10.14,10.14,0,0,1-5.27-4.88,17.86,17.86,0,0,1-2.09-12.92A13.77,13.77,0,0,1,49,194C62.71,189.17,68.42,208.21,60.79,217.07Z"/><path class="cls-67" d="M48.42,212.37c1.58,0,3.31,0,4.49,1.07,1.59,1.42,1.25,4.29-.44,5.6a5.13,5.13,0,0,1-6-.17,6.16,6.16,0,0,1-2.49-5,2.07,2.07,0,0,1,.25-1.06,2.22,2.22,0,0,1,1.89-.78,9.39,9.39,0,0,1,3.92.73"/></g></g></g></svg>