<svg xmlns="http://www.w3.org/2000/svg" viewBox="0 0 182.86 438.34"><defs><style>.cls-1{fill:#bad0be;}.cls-2{fill:#a7b8a1;}.cls-3{fill:#bed3b3;}.cls-4{fill:#bdc9ba;}.cls-5{fill:#a6b199;}.cls-6{fill:#b4b9b0;}.cls-7{fill:#c7dac5;}.cls-8{fill:#c3dac0;}.cls-9{fill:#cae2ca;}.cls-10{fill:#b4c8a3;}.cls-11{fill:#b3c8a3;}.cls-12{fill:#c0dcc2;}.cls-13{fill:#cdd7ae;}.cls-14{fill:#bfdbc0;}.cls-15{fill:#b8cda8;}.cls-16{fill:#c1d8c6;}.cls-17{fill:#a1b29c;}.cls-18{fill:#bbd3b7;}.cls-19{fill:#a5ad9f;}.cls-20{fill:#b3bfa0;}.cls-21{fill:#c4dcc4;}.cls-22{fill:#9dad97;}.cls-23{fill:#cbe2c9;}.cls-24{fill:#c6dcc3;}.cls-25{fill:#becfbe;}.cls-26{fill:#9daa99;}.cls-27{fill:#cfe2cb;}.cls-28{fill:#d3deb7;}.cls-29{fill:#a5b99e;}.cls-30{fill:#cad4b1;}.cls-31{fill:#bad0c3;}.cls-32{fill:#c8ddbd;}.cls-33{fill:#c9ddbb;}.cls-34{fill:#aac2aa;}.cls-35{fill:#c5dcbf;}.cls-36{fill:#bcd6bb;}.cls-37{fill:#c0dbc1;}.cls-38{fill:#a9bbac;}.cls-39{fill:#bad1be;}.cls-40{fill:#c6d8af;}.cls-41{fill:#d0e5c6;}.cls-42{fill:#ccdbb4;}.cls-43{fill:#bbd0a4;}.cls-44{fill:#949b8c;}.cls-45{fill:#c3ddc3;}.cls-46{fill:#b4c49d;}.cls-47{fill:#c5dabb;}.cls-48{fill:#c0d0a5;}.cls-49{fill:#cfe4c9;}.cls-50{fill:#ccdebe;}.cls-51{fill:#c4ddbd;}.cls-52{fill:#cdd7b4;}.cls-53{fill:#c6d8b5;}.cls-54{fill:#b1af9e;}.cls-55{fill:#b9d3ba;}.cls-56{fill:#cbdac0;}.cls-57{fill:#a9bba4;}.cls-58{fill:#abc2a4;}.cls-59{fill:#a0b199;}.cls-60{fill:#c9e1c5;}.cls-61{fill:#c5d0a7;}.cls-62{fill:#b7c09e;}.cls-63{fill:#c1dbc4;}.cls-64{fill:#b5cbb2;}.cls-65{fill:#cbe1c9;}.cls-66{fill:#c6e1ca;}.cls-67{fill:#bec2a1;}</style></defs><g id="Layer_2" data-name="Layer 2"><g id="plants2"><g id="string-of-pearls2"><path class="cls-1" d="M156.85,68.47c4,3.29,7.26,7.83,8,13,.43,2.78-.14,6.1-2.58,7.5a8,8,0,0,1-2.89.83c-2.76.39-5.69.45-8.21-.73-4.54-2.14-6.42-7.49-7.85-12.31-1.17-4-4.66-11.24.34-13.63C147.74,61.19,154,66.14,156.85,68.47Z"/><path d="M156.21,91.37a13.06,13.06,0,0,1-5.57-1.12c-5-2.35-7-8-8.56-13.13-.16-.57-.38-1.2-.62-1.89-1.46-4.29-3.67-10.78,1.67-13.32,4.35-2.07,10.06,1.87,14.56,5.53h0c4.72,3.85,7.75,8.75,8.52,13.81.47,3.11-.13,7.07-3.24,8.85a9.17,9.17,0,0,1-3.37,1A23.77,23.77,0,0,1,156.21,91.37ZM145.76,64a3.37,3.37,0,0,0-1.49.31c-3,1.4-1.87,5.38-.28,10.05.24.72.47,1.4.65,2,1.42,4.77,3.14,9.59,7.14,11.47,1.87.88,4.24,1.08,7.45.62a7,7,0,0,0,2.42-.67c1.94-1.11,2.25-4,1.93-6.14-.68-4.4-3.37-8.72-7.58-12.15C154.21,68.05,149.26,64,145.76,64Z"/><path class="cls-2" d="M151.25,77.65a5.79,5.79,0,0,1-.65,2.87,2.81,2.81,0,0,1-2.41,1.5c-1.43,0-2.44-1.39-3.1-2.67a23.59,23.59,0,0,1-2.65-10.6c-.06-4.92,3.32-4.06,5.41-.86C149.75,70.8,151.27,74.11,151.25,77.65Z"/><path class="cls-3" d="M119.24,56.34c-3.52,3.18-7.63,6-12.29,6.84a32.12,32.12,0,0,1-5.45.42A8,8,0,0,1,97.67,63,5.67,5.67,0,0,1,96,61.7a9.58,9.58,0,0,1-1.9-8,13.46,13.46,0,0,1,4.29-7.18,33.62,33.62,0,0,1,4.28-3.11,15.88,15.88,0,0,1,2.38-1.33,30.45,30.45,0,0,1,3-.91c4.77-1.47,8.81-5.06,13.74-5.82a23.43,23.43,0,0,1,3.65-.18,10.46,10.46,0,0,1,5,.85c1.2.65,2.56,2.3,2.12,3.76a4.4,4.4,0,0,1-1,1.41,18.79,18.79,0,0,0-1.45,2.11,69.33,69.33,0,0,1-6.58,8.76A57.07,57.07,0,0,1,119.24,56.34Z"/><path d="M100.83,64.94a8.24,8.24,0,0,1-3.76-.72,6.72,6.72,0,0,1-2-1.65,10.85,10.85,0,0,1-2.2-9.13,14.89,14.89,0,0,1,4.71-7.91A34,34,0,0,1,102,42.29a17,17,0,0,1,2.59-1.44,17.53,17.53,0,0,1,2.13-.69c.32-.09.63-.17.94-.27a32,32,0,0,0,5.66-2.59A26.23,26.23,0,0,1,121.58,34a23.43,23.43,0,0,1,3.85-.21,11.55,11.55,0,0,1,5.6,1c1.56.84,3.45,3,2.77,5.32a4.18,4.18,0,0,1-1.05,1.62c-.07.09-.15.17-.23.26a15.69,15.69,0,0,0-1.12,1.61l-.22.36a68.79,68.79,0,0,1-6.71,8.92,56.06,56.06,0,0,1-4.33,4.38h0c-4.45,4-8.68,6.37-13,7.17a34.25,34.25,0,0,1-5.67.45ZM125.07,36.5a20.3,20.3,0,0,0-3.08.17,23.93,23.93,0,0,0-7.42,3,34.84,34.84,0,0,1-6.14,2.79l-1,.29a14.77,14.77,0,0,0-1.81.58,14.28,14.28,0,0,0-2.18,1.23,30.61,30.61,0,0,0-4.11,3A12.19,12.19,0,0,0,95.45,54a8.22,8.22,0,0,0,1.61,6.87,4,4,0,0,0,1.22,1,6.77,6.77,0,0,0,3.2.42,30,30,0,0,0,5.22-.4c3.77-.71,7.58-2.84,11.65-6.52a58.44,58.44,0,0,0,4.14-4.18,66.66,66.66,0,0,0,6.44-8.58l.22-.35a17.06,17.06,0,0,1,1.34-1.91l.3-.34a2.35,2.35,0,0,0,.45-.59c.2-.65-.64-1.76-1.47-2.2a9.17,9.17,0,0,0-4.34-.7Z"/><path class="cls-4" d="M133.39,424.08a2.91,2.91,0,0,0,4-2.47c2-27.14.54-54.55-.25-81.81-1-35.31,3.12-70.2,2.19-105.51-1.33-50.63-2.88-76.11.56-113.75,2.11-23.11,5.48-46.44,2-69.38-1.53-10.2-4.26-26-11.41-33.31-8.38,7.27,1.59,35.76,2.07,46.59.86,19.22-.88,38.44-1.82,57.62-4.48,91.39-5.13,183.66-2.08,278.79.31,9.69.38,13.55.19,19.35a2.92,2.92,0,0,0,1.83,2.8Z"/><path d="M134.48,425.63a4.36,4.36,0,0,1-1.58-.31l-2.72-1.08a4.26,4.26,0,0,1-2.67-4.08c.19-5.7.12-9.43-.19-19.27-3.08-96.24-2.4-187.47,2.08-278.89.22-4.5.49-9,.75-13.49.85-14.43,1.72-29.36,1.07-44a100.9,100.9,0,0,0-2.17-13c-2.78-13.6-5.94-29,.55-34.65l1-.82.88.9c6.93,7.06,9.84,21.17,11.78,34,2.95,19.58.95,39.64-1,59q-.54,5.34-1,10.67c-2.91,31.88-2.25,54.6-1.15,92.24.19,6.63.4,13.71.6,21.36.46,17.53-.34,35.24-1.11,52.35-.78,17.4-1.59,35.38-1.08,53.15q.2,6.5.41,13c.75,22.65,1.51,46.06-.17,69a4.26,4.26,0,0,1-4.21,3.92Zm-.59-2.79a1.55,1.55,0,0,0,1.42-.13,1.52,1.52,0,0,0,.73-1.2c1.67-22.76.9-46.1.16-68.68-.14-4.33-.29-8.66-.41-13-.52-17.87.29-35.9,1.08-53.35.77-17.07,1.57-34.72,1.11-52.16-.2-7.65-.41-14.72-.6-21.35-1.1-37.74-1.77-60.53,1.16-92.56.32-3.56.68-7.13,1-10.69,1.91-19.24,3.89-39.12,1-58.37-1.09-7.2-3.56-23.63-10.11-31.53-4,5.57-1,20.24,1.19,31.13a101.24,101.24,0,0,1,2.22,13.43c.66,14.78-.22,29.78-1.07,44.28-.26,4.49-.53,9-.75,13.46-4.48,91.35-5.16,182.5-2.08,278.68.32,9.91.38,13.66.19,19.43a1.58,1.58,0,0,0,1,1.52Z"/><path class="cls-5" d="M127.9,106.4c-2.36,4.52-5.77,8.94-10.66,10.38a12.21,12.21,0,0,1-14.4-7.26c-1.78-4.9-.09-10.51,3-14.73a27.31,27.31,0,0,1,16.8-10.43c3-.59,6.33-.66,9.11.71,3.93,1.94,5.17,5.52,2.73,8.86C131.67,97.76,130.07,102.22,127.9,106.4Z"/><path d="M114.15,118.56A13.54,13.54,0,0,1,101.59,110c-1.77-4.86-.59-10.83,3.15-16a28.64,28.64,0,0,1,17.63-11c3.95-.76,7.29-.48,9.94.83a8,8,0,0,1,4.56,5.1,6.83,6.83,0,0,1-1.33,5.74,46.75,46.75,0,0,0-4.45,8.13c-.64,1.37-1.3,2.79-2,4.17h0c-3.13,6-7,9.72-11.46,11A12.09,12.09,0,0,1,114.15,118.56ZM126.47,85.3a18.79,18.79,0,0,0-3.59.37,25.9,25.9,0,0,0-16,9.91c-3.22,4.42-4.27,9.46-2.8,13.49a10.85,10.85,0,0,0,12.76,6.43c3.76-1.1,7.07-4.37,9.85-9.71h0c.69-1.33,1.34-2.72,2-4.06a49.6,49.6,0,0,1,4.7-8.58,4.23,4.23,0,0,0,.9-3.54,5.48,5.48,0,0,0-3.14-3.34A10.41,10.41,0,0,0,126.47,85.3Z"/><path class="cls-6" d="M139.13,138l5,11.62a16.84,16.84,0,0,0,2.14,4,17.2,17.2,0,0,0,4.13,3.41,13.13,13.13,0,0,0,4.29,2.12,9.53,9.53,0,0,0,6.12-1.1,18,18,0,0,0,8.64-9.34,11,11,0,0,0,.9-4.83,14.63,14.63,0,0,0-2.47-6.33c-1.7-2.81-3.65-5.6-6.42-7.36a24.37,24.37,0,0,0-6.87-2.65A32.73,32.73,0,0,0,146,126c-2.54,0-6.47.65-7.86,3.08C136.6,131.71,138.07,135.52,139.13,138Z"/><path d="M156.09,160.63a8.16,8.16,0,0,1-1.72-.18,14.06,14.06,0,0,1-4.74-2.31,18.36,18.36,0,0,1-4.44-3.69,17.85,17.85,0,0,1-2.33-4.3l-5-11.62c-1.42-3.33-2.65-7.14-1-10.11,2-3.49,7.39-3.76,9-3.76a33.87,33.87,0,0,1,8.93,1.6,26.29,26.29,0,0,1,7.24,2.8c3,1.93,5.07,4.89,6.84,7.8a15.86,15.86,0,0,1,2.66,6.93,12.19,12.19,0,0,1-1,5.41,19.42,19.42,0,0,1-9.29,10A12,12,0,0,1,156.09,160.63ZM146,127.33c-2.64,0-5.74.74-6.69,2.41-1.27,2.22.38,6.09,1.08,7.74l5,11.62a16.34,16.34,0,0,0,2,3.7,16,16,0,0,0,3.82,3.12,11.79,11.79,0,0,0,3.83,1.92,8.13,8.13,0,0,0,5.25-1,16.7,16.7,0,0,0,8-8.65A9.5,9.5,0,0,0,169,144a13.49,13.49,0,0,0-2.28-5.73c-1.6-2.63-3.43-5.29-6-6.93a23.28,23.28,0,0,0-6.5-2.48,31.64,31.64,0,0,0-8.23-1.5Z"/><path class="cls-7" d="M157.26,108.28c3.24,3.13,5.94,7.1,6.48,11.58a13.64,13.64,0,0,1-3.5,10.81,12.87,12.87,0,0,1-10.61,4,10.34,10.34,0,0,1-4.15-1.34,13.87,13.87,0,0,1-2.89-2.41,25.21,25.21,0,0,1-5.27-7.89c-1.91-4.73-5-19.26.85-22.35C143.8,97.68,153.54,104.7,157.26,108.28Z"/><path d="M150.9,136.05a11.11,11.11,0,0,1-1.41-.08,11.63,11.63,0,0,1-4.69-1.51,15.6,15.6,0,0,1-3.17-2.64,26.35,26.35,0,0,1-5.55-8.31c-2-4.91-5.45-20.36,1.47-24,6.61-3.5,17.14,4.47,20.63,7.84h0c4,3.85,6.37,8.13,6.88,12.38a14.94,14.94,0,0,1-3.85,11.89A14.37,14.37,0,0,1,150.9,136.05Zm-9.63-34.76a5.26,5.26,0,0,0-2.48.55c-4.65,2.47-2.27,15.61-.24,20.67a23.63,23.63,0,0,0,5,7.47,12.84,12.84,0,0,0,2.6,2.19,8.92,8.92,0,0,0,3.62,1.15,11.53,11.53,0,0,0,9.49-3.56,12.24,12.24,0,0,0,3.14-9.75c-.55-4.59-3.61-8.39-6.08-10.77C152.57,105.62,145.9,101.29,141.27,101.29Z"/><path class="cls-8" d="M136.38,97a26.51,26.51,0,0,1-3.77,7.63,14.44,14.44,0,0,1-15.24,4.44,16.63,16.63,0,0,1-10.87-11.9,14,14,0,0,1-.35-5c.63-5.23,4.79-9.53,9.61-11.63s10.24-2.36,15.5-2.22a14,14,0,0,1,6.1,1.15C144.09,82.88,138.15,92.16,136.38,97Z"/><path d="M121.59,111a15.87,15.87,0,0,1-4.62-.69A18,18,0,0,1,105.2,97.48a15.62,15.62,0,0,1-.38-5.51c.65-5.31,4.63-10.17,10.41-12.69,5.26-2.3,11.08-2.47,16.07-2.33A15.21,15.21,0,0,1,138,78.24c6.65,3.41,3.17,11.19.87,16.34-.47,1.06-.91,2.06-1.21,2.88h0a27.83,27.83,0,0,1-4,8A15.53,15.53,0,0,1,121.59,111Zm7.34-31.46c-4.12,0-8.62.38-12.64,2.14-4.83,2.11-8.3,6.26-8.82,10.57a13.09,13.09,0,0,0,.32,4.56,15.3,15.3,0,0,0,10,11,13.23,13.23,0,0,0,13.81-4,25.7,25.7,0,0,0,3.56-7.26h0c.33-.91.79-1.94,1.28-3,2.6-5.82,4.41-10.8.35-12.89a13.28,13.28,0,0,0-5.53-1C130.48,79.59,129.71,79.58,128.93,79.58Z"/><path class="cls-9" d="M164.09,35.75A21.78,21.78,0,0,1,170.61,39c2.69,1.82,5.3,4.09,6.34,7.16,1.39,4.12-.53,8.91-4,11.54a15.73,15.73,0,0,1-12.41,2.46,20.61,20.61,0,0,1-9.21-4.35,41.19,41.19,0,0,1-4.12-4.13c-3.57-3.94-12.6-12.11-5.92-16.55C145.63,32.22,159.2,34.45,164.09,35.75Z"/><path d="M164.05,61.79a20.06,20.06,0,0,1-3.74-.36,21.83,21.83,0,0,1-9.81-4.63,40.76,40.76,0,0,1-4.25-4.27L145,51.15c-3.3-3.5-7.84-8.29-7.33-12.72A6.13,6.13,0,0,1,140.57,34c5.18-3.44,20.38-.45,23.87.48h0a23.1,23.1,0,0,1,6.92,3.39c2.34,1.59,5.59,4.12,6.85,7.85,1.5,4.45-.36,9.92-4.44,13A16,16,0,0,1,164.05,61.79ZM148.62,35c-2.86,0-5.29.33-6.57,1.18a3.51,3.51,0,0,0-1.78,2.54c-.37,3.19,4,7.81,6.62,10.58l1.33,1.42a39.66,39.66,0,0,0,4,4,19.27,19.27,0,0,0,8.61,4.06,14.28,14.28,0,0,0,11.35-2.21c3.19-2.43,4.67-6.65,3.52-10.05-1-3-3.8-5.12-5.81-6.49a20.67,20.67,0,0,0-6.12-3A67.53,67.53,0,0,0,148.62,35Z"/><path class="cls-10" d="M145.17,38.12a15,15,0,0,1,5.09.65,121.08,121.08,0,0,1,17.24,5.95,15.34,15.34,0,0,1,5.61,3.48c1.49,1.65,2.22,4.18,1.18,6.14A7.78,7.78,0,0,1,171,57.18a16.88,16.88,0,0,1-7.47,2.56,15,15,0,0,1-7.71-2.25,30.89,30.89,0,0,1-12.42-13c-1-1.94-1.62-4.62,0-6Z"/><path class="cls-11" d="M147.41,50.51a8.7,8.7,0,0,1,2.69.75,5.56,5.56,0,0,1-.83,10.27,9.86,9.86,0,0,1-2.59.35c-3.67.12-8.91-1.55-8.49-6.19C138.59,51.34,143.85,50,147.41,50.51Z"/><path d="M146.31,63.22c-2.56,0-5.84-.74-7.83-2.86a6,6,0,0,1-1.61-4.79,6.26,6.26,0,0,1,2.41-4.42c2.44-1.95,6-2.27,8.31-2h0a10,10,0,0,1,3.11.88,6.88,6.88,0,0,1-1,12.73,10.78,10.78,0,0,1-2.93.41ZM146,51.75a8.35,8.35,0,0,0-5,1.48,3.57,3.57,0,0,0-1.42,2.58,3.28,3.28,0,0,0,.9,2.72c1.4,1.49,4.15,2.08,6.22,2a8.56,8.56,0,0,0,2.23-.29,4.22,4.22,0,0,0,.63-7.81,7.26,7.26,0,0,0-2.27-.62h0A10.34,10.34,0,0,0,146,51.75Z"/><path class="cls-12" d="M131.26,17.43a13.11,13.11,0,0,0-4-3.69,13,13,0,0,0-7.83-1.21c-3.94.47-7.87,2.19-10.25,5.36s-2.84,7.9-.45,11.07c3.42,4.55,17.3,10.68,23,8.13C139.19,33.75,134.9,22.25,131.26,17.43Z"/><path d="M128.46,39c-7.1,0-17.72-5.11-20.82-9.23-2.63-3.5-2.44-8.83.45-12.67a16.23,16.23,0,0,1,11.16-5.88,14.26,14.26,0,0,1,8.63,1.36,14.42,14.42,0,0,1,4.45,4.06h0c2.5,3.31,5.93,10.65,4.49,16.25a7.91,7.91,0,0,1-4.57,5.43A9.4,9.4,0,0,1,128.46,39Zm-7-25.26a16.07,16.07,0,0,0-1.92.12,13.56,13.56,0,0,0-9.33,4.84c-2.16,2.87-2.36,6.94-.46,9.47,3,4.06,16.38,10,21.39,7.72a5.2,5.2,0,0,0,3.08-3.66c1.13-4.4-1.74-10.94-4-14a11.83,11.83,0,0,0-3.61-3.34A10.6,10.6,0,0,0,121.48,13.73Z"/><path class="cls-13" d="M116.91,19.31a8,8,0,0,0,1.83,4.31,9,9,0,0,0,5.66,2.49c2.08.25,4.21.14,6.29.41a3.76,3.76,0,0,1,2.86,1.42,4.1,4.1,0,0,1,.35,2.33,5.57,5.57,0,0,1-.4,2.22,4.82,4.82,0,0,1-.91,1.2A8.59,8.59,0,0,1,129,36a5.12,5.12,0,0,1-4.19-.48,4.08,4.08,0,0,0-1-.56c-.24-.07-4.35-1.67-6-2.08-.75-.19-1.53-.25-2.26-.5A9.58,9.58,0,0,1,113.14,31a12.94,12.94,0,0,1-2.42-2,8,8,0,0,1-.8-8.49,12.36,12.36,0,0,1,4.43-4.92c.69-.47,1.68-.93,2.27,0S116.78,18.28,116.91,19.31Z"/><path class="cls-14" d="M106.66,72.42a8.15,8.15,0,0,1-3.8-.54,9.36,9.36,0,0,1-3-2.69c-2.6-3.12-5.28-6.7-5.08-10.76.26-5.19,5.12-9,9.94-10.86,6.45-2.54,33.4-5.2,29.73,7C131.31,64.94,116.45,72.05,106.66,72.42Z"/><path d="M105.93,73.77a8.51,8.51,0,0,1-3.63-.68,10.5,10.5,0,0,1-3.49-3c-2.72-3.27-5.61-7.14-5.39-11.69.25-5,4.28-9.46,10.79-12,4.77-1.88,23.43-4.48,29.75,1.33,1.4,1.29,2.85,3.61,1.73,7.32-1.5,5-5.76,9.78-12,13.42a38.65,38.65,0,0,1-17,5.35Zm13.86-27c-5.82,0-11.88,1-14.61,2-2.06.82-8.81,3.93-9.1,9.68-.17,3.59,2.38,7,4.78,9.85a8.2,8.2,0,0,0,2.56,2.34,7.16,7.16,0,0,0,3.19.41h0c9.06-.34,23.54-6.93,26.53-16.88.59-2,.28-3.43-1-4.59C129.87,47.52,124.93,46.77,119.79,46.77Z"/><path class="cls-15" d="M111,61a6,6,0,0,1,2.71,2,5.32,5.32,0,0,1,.65,3.27,4.92,4.92,0,0,1-.93,2.87c-1,1.19-2.67,1.48-4.2,1.66a9,9,0,0,1-2.31.09,9.28,9.28,0,0,1-3.8-1.78c-1.84-1.24-3.75-2.54-4.85-4.46s-1.1-5.16,1.47-5.94a5.88,5.88,0,0,1,2.43.15c1.39.18,2.77.3,4.14.61A25,25,0,0,1,111,61Z"/><path class="cls-16" d="M174.31,87.35a14.6,14.6,0,0,1,4.3,2.79c3.73,3.69,3.77,10.14.83,14.49s-8.23,6.71-13.47,7.07a8.23,8.23,0,0,1-4.09-.55,9.5,9.5,0,0,1-2.66-2.15c-4.17-4.31-22-19.54-15.91-25.31C148.58,78.73,168.57,84.72,174.31,87.35Z"/><path d="M164.91,113.07a8.35,8.35,0,0,1-3.61-.72,11,11,0,0,1-3-2.42c-.58-.6-1.41-1.4-2.41-2.36-7.34-7-15.16-15-15.14-20.89a5.29,5.29,0,0,1,1.69-4c6.12-5.77,27.32,1.06,32.46,3.42h0a15.79,15.79,0,0,1,4.69,3c4,4,4.44,11.08,1,16.19-3,4.37-8.36,7.23-14.49,7.64C165.7,113.05,165.32,113.07,164.91,113.07ZM150.35,83.12c-2.74,0-5,.44-6.13,1.54a2.63,2.63,0,0,0-.84,2c0,5.21,9.66,14.49,14.31,19,1,1,1.89,1.81,2.48,2.42a8.87,8.87,0,0,0,2.28,1.88,7.17,7.17,0,0,0,3.43.42c5.31-.37,10-2.79,12.46-6.48,2.7-4,2.4-9.76-.67-12.81a13.33,13.33,0,0,0-3.92-2.52C168.72,86.26,157.66,83.12,150.35,83.12Z"/><path class="cls-17" d="M158.89,95.56c5.91,2,12.34,1.4,18.54.71a1.89,1.89,0,0,1,1.13.11,1.61,1.61,0,0,1,.64.89,7.19,7.19,0,0,1-.89,6.19,14.68,14.68,0,0,1-4.68,4.39c-2.5,1.61-5.47,2.9-8.4,2.35s-5-2.64-7.09-4.65L150.43,98c-1.4-1.38-4.6-5.61-.63-6C152.44,91.75,156.38,94.72,158.89,95.56Z"/><path class="cls-18" d="M117.68,127a48.19,48.19,0,0,0-13.5,1.47,21.82,21.82,0,0,0-11.33,7.17,10.56,10.56,0,0,0-2.17,4.46A11.72,11.72,0,0,0,91,145c1.16,4.64,4,9.3,8.65,10.6a12.41,12.41,0,0,0,8.49-1,36.84,36.84,0,0,0,7.24-4.86l9.47-7.51c2.5-2,5.06-4,6.73-6.76s2.78-6.9-1.17-7.84S121.74,127,117.68,127Z"/><path d="M102.37,157.3a11.29,11.29,0,0,1-3.05-.41c-4.51-1.27-8.09-5.59-9.58-11.55a13.23,13.23,0,0,1-.37-5.49,11.8,11.8,0,0,1,2.43-5,23.23,23.23,0,0,1,12-7.64,48.88,48.88,0,0,1,13.88-1.52h0l2.73,0a43,43,0,0,1,10.33.68,4.51,4.51,0,0,1,3.37,2.64c1.11,2.67-.59,5.93-1.37,7.2-1.82,3-4.59,5.16-7,7.1l-9.48,7.52a38.14,38.14,0,0,1-7.49,5A15.3,15.3,0,0,1,102.37,157.3Zm14.63-29a45.48,45.48,0,0,0-12.46,1.42,20.63,20.63,0,0,0-10.64,6.71A9.21,9.21,0,0,0,92,140.33a10.25,10.25,0,0,0,.34,4.36c1.25,5,4.14,8.63,7.72,9.64a11.16,11.16,0,0,0,7.56-.94,36.43,36.43,0,0,0,7-4.7l9.47-7.52c2.39-1.89,4.86-3.85,6.42-6.4,1.15-1.87,1.62-3.75,1.19-4.79-.08-.19-.33-.78-1.52-1.07a40.76,40.76,0,0,0-9.68-.6l-2.79,0Z"/><path class="cls-19" d="M128.55,138a18,18,0,0,1-3.53,3l-4.74,3.32-6.54,4.58a4.29,4.29,0,0,1-2.4,1,2.81,2.81,0,0,1-2.45-2.56,6.48,6.48,0,0,1,1-3.68,19.83,19.83,0,0,1,10.62-9.06C123.48,133.48,133.54,132.07,128.55,138Z"/><path class="cls-20" d="M102.69,146.67a5.24,5.24,0,0,1,1.09,2.86,3.5,3.5,0,0,1-.56,2.65A2.88,2.88,0,0,1,102,153a4.4,4.4,0,0,1-3.25-.11,6.66,6.66,0,0,1-2.59-2.3C92.28,145.29,99.53,143,102.69,146.67Z"/><path class="cls-21" d="M155.45,159.36c5.22.88,10.54,2.48,14.48,6s6.17,9.41,4.17,14.33a13.35,13.35,0,0,1-3.8,5,15.19,15.19,0,0,1-6.22,3.37,15.84,15.84,0,0,1-11.47-2,35.69,35.69,0,0,1-8.94-7.83c-2-2.35-4.08-4.87-6.89-6.23a10.54,10.54,0,0,1-2.72-1.49c-3.43-3.18-1.89-10.34,2.53-11.62C142.28,157.27,149.74,158.39,155.45,159.36Z"/><path d="M161,189.8a18.33,18.33,0,0,1-9-2.55,36.86,36.86,0,0,1-9.28-8.12l-.54-.62c-1.78-2-3.62-4.16-5.93-5.28l-.67-.31a7.29,7.29,0,0,1-4.41-9.37,7.7,7.7,0,0,1,5.1-5.91c5.81-1.68,13.08-.67,19.45.4h0c6.79,1.15,11.61,3.17,15.15,6.35,4.73,4.23,6.58,10.74,4.52,15.82a14.88,14.88,0,0,1-4.16,5.53,16.51,16.51,0,0,1-6.78,3.66A14.35,14.35,0,0,1,161,189.8Zm-17.54-30.39a23.5,23.5,0,0,0-6.48.79,5.17,5.17,0,0,0-3.25,4,5.63,5.63,0,0,0,1.25,5.39,6.07,6.07,0,0,0,1.64.92l.76.35c2.81,1.36,4.83,3.68,6.78,5.93l.54.62a34.77,34.77,0,0,0,8.58,7.56,14.49,14.49,0,0,0,10.5,1.87,13.82,13.82,0,0,0,5.67-3.08,12.12,12.12,0,0,0,3.44-4.53c1.92-4.73-.64-10-3.83-12.83s-7.54-4.64-13.82-5.7h0A73,73,0,0,0,143.44,159.41Z"/><path class="cls-22" d="M131.35,174.65a18.47,18.47,0,0,1-9.88,10.56c-1,.42-2,.73-3,1L115,187.32a17.58,17.58,0,0,1-4.17.92c-2.89.17-5.67-1.08-8.14-2.6-2-1.22-3.94-2.74-4.79-4.91a12.69,12.69,0,0,1-.57-4.84,16.94,16.94,0,0,1,.84-6.19c1.08-2.68,3.43-4.61,5.7-6.41l5.86-4.68a17.31,17.31,0,0,1,5.1-3.18,17.58,17.58,0,0,1,6.51-.48c3.8.2,9.7.6,10.72,5.08A26.53,26.53,0,0,1,131.35,174.65Z"/><path d="M110.29,189.59c-2.54,0-5.19-.9-8.3-2.81-1.94-1.19-4.29-2.9-5.34-5.56a14,14,0,0,1-.66-5.35,18.22,18.22,0,0,1,.93-6.67c1.25-3.08,3.94-5.22,6.1-6.95l5.87-4.68a18.52,18.52,0,0,1,5.51-3.41,18.77,18.77,0,0,1,7-.54c3.73.2,10.68.57,11.94,6.11a28,28,0,0,1-.75,15.39A19.93,19.93,0,0,1,122,186.44c-1.06.44-2.13.77-3.17,1.09l-3.44,1.06a18.82,18.82,0,0,1-4.48,1Zm8.58-33.39a11.16,11.16,0,0,0-3.62.49,16.51,16.51,0,0,0-4.7,3l-5.86,4.68c-2,1.61-4.32,3.44-5.29,5.87a15.8,15.8,0,0,0-.75,5.7,12,12,0,0,0,.48,4.35c.76,1.92,2.67,3.28,4.25,4.26,2.87,1.76,5.21,2.53,7.36,2.4a16.16,16.16,0,0,0,3.86-.87l3.44-1c1-.31,2-.62,2.92-1a17.19,17.19,0,0,0,9.14-9.8h0a25.19,25.19,0,0,0,.66-13.85c-.76-3.31-5.3-3.82-9.5-4.05C120.47,156.24,119.67,156.2,118.87,156.2Z"/><path class="cls-23" d="M104.07,171a20,20,0,0,0,4,8.31,16.8,16.8,0,0,0,4,4.17,7.07,7.07,0,0,0,5.49,1.21,9,9,0,0,0,2.63-1.23,25.5,25.5,0,0,0,9.77-11.68,12.2,12.2,0,0,0,1-7.66c-1.17-4.35-6-6.95-10.51-6.85C113,157.38,102.65,162.29,104.07,171Z"/><path class="cls-24" d="M111.89,222.35a24.57,24.57,0,0,1-7.89,2.38,14.43,14.43,0,0,1-13.31-6.93c-1.83-3.13-2.39-6.84-2.54-10.46a10.46,10.46,0,0,1,.32-3.66c.44-1.35,4.85-9.75,8.2-10.69a56.94,56.94,0,0,1,10.66-1.34c6.35-.15,13.59,2.93,18.66,6.74,3.47,2.6,5,10.22,2.26,13.94C124.83,217,117,220,111.89,222.35Z"/><path d="M102.93,226.1a15.75,15.75,0,0,1-13.39-7.62c-2.18-3.73-2.6-8.11-2.72-11.09a11.88,11.88,0,0,1,.38-4.12c.25-.77,4.79-10.36,9.11-11.57a58.38,58.38,0,0,1,11-1.38c7.29-.18,14.84,3.51,19.49,7,3.89,2.92,5.86,11.26,2.54,15.79-3.14,4.28-9.47,7.11-14.55,9.38l-2.33,1.06h0a25.52,25.52,0,0,1-8.32,2.49A11.64,11.64,0,0,1,102.93,226.1ZM107.76,193h-.4A55.69,55.69,0,0,0,97,194.27c-2.49.7-6.75,8.15-7.29,9.83a9.33,9.33,0,0,0-.26,3.18c.18,4.27.93,7.4,2.36,9.85a13.17,13.17,0,0,0,12,6.27,23,23,0,0,0,7.44-2.27l2.36-1.06c4.8-2.14,10.77-4.81,13.49-8.53,2.37-3.23.84-10-2-12.08C119.92,195.5,113.13,193,107.76,193Z"/><path class="cls-25" d="M173.85,215.35c3.72,3.82,4.61,9.54,4.76,14.87a14,14,0,0,1-.91,6.42,10,10,0,0,1-2.19,2.94c-4.28,4.12-10.83,5.19-16.65,4s-11.06-4.3-15.93-7.69c-8.39-5.82-12.51-16.84-.55-20.48C151.64,212.6,165.93,207.22,173.85,215.35Z"/><path d="M163.39,245.39a24,24,0,0,1-4.79-.49c-6.28-1.27-11.83-4.7-16.44-7.9-5.82-4.05-9.22-10-8.46-14.87.41-2.62,2.19-6.13,8.29-8l2.28-.7c9.57-3,22.67-7.1,30.54,1h0c4.33,4.46,5,11.13,5.14,15.76a15.41,15.41,0,0,1-1,7,11.36,11.36,0,0,1-2.47,3.34A18.67,18.67,0,0,1,163.39,245.39Zm-1.14-33c-5.69,0-12,2-17.18,3.6l-2.3.71c-2.64.81-5.9,2.48-6.44,5.86-.59,3.8,2.43,8.84,7.35,12.26,4.38,3,9.64,6.31,15.44,7.48s11.87-.21,15.47-3.67a8.72,8.72,0,0,0,1.9-2.54,13,13,0,0,0,.79-5.82c-.11-4.19-.7-10.19-4.38-14h0C170.09,213.4,166.33,212.38,162.25,212.38Z"/><path class="cls-26" d="M158.88,234.77c4.34,1.19,9.32,1.32,13-1.26.7-.49,1.54-1.11,2.33-.78a1.84,1.84,0,0,1,.94,1.54,5.85,5.85,0,0,1-2.54,5.22,14.49,14.49,0,0,1-5.61,2.24,23.56,23.56,0,0,1-8.47.68c-2.69-.37-16.1-6.25-14.67-9.8C145.41,228.79,156.93,234.24,158.88,234.77Z"/><path class="cls-27" d="M139.21,211.63c2.77,1.83,4.62,4.77,6,7.8a16.07,16.07,0,0,1,1.75,8.26,11.54,11.54,0,0,1-4.61,7.74,15.52,15.52,0,0,1-8.65,2.9,13.19,13.19,0,0,1-5.7-.93,12.22,12.22,0,0,1-6.2-6.47,19.29,19.29,0,0,1-1.31-9C121.11,213.28,131.23,206.36,139.21,211.63Z"/><path d="M133,239.67a14.07,14.07,0,0,1-5.54-1,13.54,13.54,0,0,1-6.9-7.17,20.43,20.43,0,0,1-1.41-9.63,14.87,14.87,0,0,1,8.28-12,12.29,12.29,0,0,1,12.5.67c2.58,1.7,4.7,4.44,6.47,8.36a17.5,17.5,0,0,1,1.86,9,12.71,12.71,0,0,1-5.13,8.65,16.92,16.92,0,0,1-9.4,3.17Zm.19-28.53a10.31,10.31,0,0,0-4.58,1.1,12.21,12.21,0,0,0-6.81,9.78,17.87,17.87,0,0,0,1.2,8.38,10.92,10.92,0,0,0,5.51,5.78,11.7,11.7,0,0,0,5.12.81,14.14,14.14,0,0,0,7.9-2.63,10.21,10.21,0,0,0,4.08-6.82c.24-2.15-.28-4.55-1.64-7.56-1.55-3.45-3.36-5.82-5.5-7.24h0A9.51,9.51,0,0,0,133.2,211.14Z"/><path class="cls-28" d="M131.18,230.47a4.17,4.17,0,0,1-1.22,1.59,4.93,4.93,0,0,1-3.62.37,4,4,0,0,1-1.33-.36A3.16,3.16,0,0,1,124,231a11.22,11.22,0,0,1-1.87-5.57c-.31-3.79,2.91-8.23,7-5.84C132.67,221.65,132.79,227.29,131.18,230.47Z"/><path class="cls-29" d="M143.79,231.25a8.16,8.16,0,0,1-2.57,2.39,12.8,12.8,0,0,1-4.63,2.11,2.06,2.06,0,0,1-1.6-.18c-.76-.56-.56-1.77-.09-2.58a12.35,12.35,0,0,1,5.42-4.52C142.84,227.44,145.81,228,143.79,231.25Z"/><path class="cls-30" d="M102.53,259.5c-3.08-.44-6.44-.52-9,1.17a14.39,14.39,0,0,0-4.27,5.15c-2.16,3.73-4.2,8-3.12,12.19,1.15,4.43,5.65,7.35,10.18,8s9.12-.39,13.58-1.46l13.1-3.16c2.83-.68,5.88-1.5,7.65-3.81C136.83,269.48,108,260.29,102.53,259.5Z"/><path d="M99.26,287.6a21.4,21.4,0,0,1-3.19-.23c-4.63-.71-9.91-3.78-11.27-9-1.19-4.61,1-9.25,3.26-13.19a15.56,15.56,0,0,1,4.7-5.6c3.17-2.05,7.2-1.76,10-1.37h0c4.77.69,26.55,7.4,29.67,15a5,5,0,0,1-.74,5.21c-2,2.57-5.09,3.5-8.39,4.3l-13.1,3.15A46.68,46.68,0,0,1,99.26,287.6Zm-.12-27a9,9,0,0,0-4.94,1.23,13.15,13.15,0,0,0-3.83,4.7c-2.11,3.64-3.94,7.52-3,11.18,1.05,4.08,5.33,6.49,9.09,7.06,4.34.66,9-.45,13.07-1.44l13.1-3.15c2.81-.68,5.45-1.45,6.9-3.33a2.39,2.39,0,0,0,.39-2.58c-2.52-6.16-22.89-12.74-27.59-13.41A23,23,0,0,0,99.14,260.56Z"/><path class="cls-31" d="M144.85,263.38a20.86,20.86,0,0,1,4.79-1.58,14.91,14.91,0,0,1,13.93,5.28,15.7,15.7,0,0,1,2.49,14.75,10.46,10.46,0,0,1-2.26,3.9,15.93,15.93,0,0,1-3.86,2.67,22.22,22.22,0,0,1-5.55,2.42c-5.13,1.19-10.37-1.39-14.65-4.45-2.56-1.83-5-4-6.4-6.8C129.43,271.41,138.63,266.15,144.85,263.38Z"/><path d="M151.72,292.46c-3.87,0-8.07-1.66-12.75-5-2.51-1.79-5.28-4.06-6.83-7.3a9.33,9.33,0,0,1-.52-7.48c1.44-3.91,5.59-7.35,12.69-10.51a22.13,22.13,0,0,1,5.1-1.67,16.14,16.14,0,0,1,15.19,5.75,17.09,17.09,0,0,1,2.72,16,11.7,11.7,0,0,1-2.56,4.38,16.69,16.69,0,0,1-4.18,2.91,22.9,22.9,0,0,1-5.89,2.56A12.83,12.83,0,0,1,151.72,292.46Zm.3-29.54a12.71,12.71,0,0,0-2.14.19,19.63,19.63,0,0,0-4.49,1.48h0c-6.31,2.82-10.1,5.85-11.27,9a6.73,6.73,0,0,0,.42,5.41c1.29,2.69,3.75,4.69,6,6.29,5.24,3.75,9.68,5.14,13.57,4.24a21.3,21.3,0,0,0,5.21-2.3,14.87,14.87,0,0,0,3.54-2.42,9.17,9.17,0,0,0,2-3.41,14.42,14.42,0,0,0-2.27-13.49A13.78,13.78,0,0,0,152,262.92Z"/><path class="cls-32" d="M165.23,243.82a12.21,12.21,0,0,1,6.51,5.81,15.15,15.15,0,0,1-3.15,17.93,12.85,12.85,0,0,1-5.31,2.89c-7.29,1.83-25.58-7.81-25.72-16.24C137.41,244.47,158.83,241.58,165.23,243.82Z"/><path d="M161.21,272c-5.38,0-12.92-3.38-17.94-7.23-4.48-3.44-7-7.19-7-10.55,0-2.8,1.42-5.36,4.25-7.4,6.74-4.87,20.07-6.06,25.19-4.27h0a13.64,13.64,0,0,1,7.24,6.43,16.39,16.39,0,0,1-3.43,19.56,14.17,14.17,0,0,1-5.88,3.19A10,10,0,0,1,161.21,272Zm-1.62-27.58c-5.59,0-13.28,1.48-17.55,4.56-2.12,1.53-3.18,3.28-3.14,5.2,0,2.49,2.22,5.58,6,8.48,5.87,4.5,14.13,7.47,18.06,6.49a11.45,11.45,0,0,0,4.75-2.6,13.83,13.83,0,0,0,2.86-16.3,10.83,10.83,0,0,0-5.77-5.18A16.73,16.73,0,0,0,159.59,244.43Z"/><path class="cls-33" d="M110.55,267.4c-5-.25-9.13-4.09-12.44-7.92a19.78,19.78,0,0,1-4.21-6.63,12.35,12.35,0,0,1,3.42-12.28,16.46,16.46,0,0,1,12.34-4.23,19.73,19.73,0,0,1,7,1.72c5.92,2.7,16.36,8.1,13.89,16C128.43,260.76,117.32,267.74,110.55,267.4Z"/><path d="M111,268.74h-.53c-5.69-.28-10.14-4.63-13.39-8.38a21,21,0,0,1-4.47-7.1,13.69,13.69,0,0,1,3.76-13.64,17.63,17.63,0,0,1,13.34-4.6,20.77,20.77,0,0,1,7.43,1.84c4.35,2,17.61,8,14.62,17.63C129.46,261.92,118.15,268.74,111,268.74Zm-2.43-31.1a15,15,0,0,0-10.35,3.89,11,11,0,0,0-3.07,10.91,18.54,18.54,0,0,0,4,6.17c2.9,3.35,6.82,7.23,11.5,7.46h0c6,.27,16.64-6.05,18.61-12.38,1.55-5-2.77-9.68-13.18-14.41a18.07,18.07,0,0,0-6.47-1.61Z"/><path class="cls-34" d="M115.75,257.11c1.2-2.07,2.5-4.24,4.61-5.37s5.26-.65,6.17,1.56a4.76,4.76,0,0,1-.4,3.87A8.86,8.86,0,0,1,118,262a2.33,2.33,0,0,1-1.53-.48,2.42,2.42,0,0,1-.61-1.15,14.28,14.28,0,0,1-.55-5.51"/><path class="cls-35" d="M136.3,318.73a21.18,21.18,0,0,0,3.06,6.39,11.77,11.77,0,0,0,12.88,3.37,13.18,13.18,0,0,0,8.17-9.15,13.93,13.93,0,0,0-2.82-12c-4.87-5.86-13.31-6.77-20.5-9.32C123.74,293.29,134.41,313.28,136.3,318.73Z"/><path d="M148.29,330.5a12.81,12.81,0,0,1-10-4.55,22.37,22.37,0,0,1-3.28-6.79h0c-.29-.84-.82-2.09-1.44-3.54-3.36-7.93-6.14-15.3-3.23-18.39,1.43-1.51,3.77-1.66,7.17-.46,1.76.63,3.65,1.17,5.48,1.69,5.74,1.64,11.68,3.33,15.6,8a15.31,15.31,0,0,1,3.09,13.16,14.44,14.44,0,0,1-9,10.08A12.81,12.81,0,0,1,148.29,330.5Zm-14.64-31.87a1.82,1.82,0,0,0-1.34.43c-2,2.08,1.9,11.16,3.75,15.52.63,1.49,1.18,2.78,1.5,3.71h0a19.93,19.93,0,0,0,2.84,6,10.38,10.38,0,0,0,11.39,3,11.93,11.93,0,0,0,7.33-8.22,12.62,12.62,0,0,0-2.55-10.82c-3.39-4.07-8.68-5.58-14.28-7.18-1.87-.53-3.8-1.08-5.64-1.74A9.57,9.57,0,0,0,133.65,298.63Z"/><path class="cls-36" d="M108.12,340.53a21.64,21.64,0,0,1-10.48.3c-3.4-.93-6.55-3.41-7.47-6.81-1-3.59.61-7.36,2.49-10.56a20.8,20.8,0,0,1,6.18-7.11c6-3.92,13.92-2.22,20.85-.38l6.41,1.69C143.69,322.33,114.93,338.93,108.12,340.53Z"/><path d="M101.81,342.69a16.8,16.8,0,0,1-4.52-.58c-4.2-1.14-7.42-4.1-8.41-7.74-1.19-4.37.94-8.71,2.63-11.59a22.29,22.29,0,0,1,6.6-7.55c6.4-4.18,14.67-2.47,21.92-.55l6.41,1.7c4.42,1.17,6.64,3.22,6.6,6.09-.11,7.82-19.51,18.15-24.62,19.36h0A29.34,29.34,0,0,1,101.81,342.69Zm5.93-27.4a14.56,14.56,0,0,0-8.17,2.18,19.68,19.68,0,0,0-5.76,6.66c-2.31,3.93-3.06,7-2.36,9.54s3.3,5,6.54,5.87c2.69.73,5.81.63,9.82-.31,5.61-1.32,22.49-11.26,22.57-16.8,0-1.49-1.53-2.66-4.62-3.48l-6.41-1.7A47,47,0,0,0,107.74,315.29Z"/><path class="cls-37" d="M157.55,342.9c5.23,2.72,8.86,8.67,8,14.5A13,13,0,0,1,152,368.14c-5.85-.55-21.32-8.06-18.37-15.75C136.28,345.44,151.3,339.66,157.55,342.9Z"/><path d="M153,369.52c-.38,0-.76,0-1.15,0-4.46-.42-14.91-4.84-18.6-10.8a7.4,7.4,0,0,1-.88-6.75c1.66-4.33,7.13-7.73,11.7-9.46,5.62-2.13,10.88-2.41,14.09-.74h0c5.93,3.08,9.61,9.75,8.74,15.87C166,364.2,159.63,369.52,153,369.52Zm0-26.21a23.29,23.29,0,0,0-8,1.64c-5.07,1.92-9.06,5-10.17,7.92a4.77,4.77,0,0,0,.66,4.39c3.09,5,12.61,9.18,16.59,9.55a11.62,11.62,0,0,0,12.16-9.59c.71-5-2.37-10.56-7.33-13.14A8.74,8.74,0,0,0,153,343.31Z"/><path class="cls-38" d="M154.72,354.8c2.21-.08,4.8-.15,6.15,1.6,1.46,1.9.41,4.75-1.3,6.42a10.17,10.17,0,0,1-5.53,2.72c-3.6.53-14.1-2.32-14.14-7.06C139.84,352.29,151.51,354.92,154.72,354.8Z"/><path class="cls-39" d="M112.28,429.21c-2.55,2-5.48,3.71-8.7,3.84a11,11,0,0,1-8.37-3.72,15.45,15.45,0,0,1-3.71-8.54,8.09,8.09,0,0,1,.25-3.79,9.09,9.09,0,0,1,2.06-2.95A39.48,39.48,0,0,1,119.11,402c2.49-.2,5.25-.06,7.08,1.64C134.26,411.09,117.68,425,112.28,429.21Z"/><path d="M103.23,434.39a12.46,12.46,0,0,1-9-4.16,16.73,16.73,0,0,1-4-9.27,9.51,9.51,0,0,1,.33-4.42,10.44,10.44,0,0,1,2.35-3.41A40.85,40.85,0,0,1,119,400.67c2.36-.18,5.75-.18,8.09,2a7.65,7.65,0,0,1,2.6,6.2c-.35,8-11.73,17.64-16.6,21.41h0c-2.19,1.69-5.56,4-9.46,4.11Zm17.46-31.12c-.47,0-1,0-1.48.06A38.11,38.11,0,0,0,94.78,415a7.65,7.65,0,0,0-1.78,2.5,6.79,6.79,0,0,0-.18,3.16,14.24,14.24,0,0,0,3.37,7.8,9.69,9.69,0,0,0,7.34,3.29c2.39-.1,4.91-1.23,7.93-3.56,3.57-2.76,15.26-12.33,15.57-19.42a5,5,0,0,0-1.74-4.12C124.3,403.7,122.82,403.27,120.69,403.27Z"/><path class="cls-40" d="M111,425.53a10.44,10.44,0,0,1-3.16,2.34c-2.49,1.27-5.53,2-8,.77-2.08-1-3.37-3.16-4.25-5.3C87.57,403.86,122,412.58,111,425.53Z"/><path class="cls-41" d="M138.58,398.73c-1.88,5.32-6.87,10-12.5,9.56-4.25-.34-7.93-3.65-9.39-7.67-3.22-8.87,2.27-19.45,12-20.23S141.23,391.22,138.58,398.73Z"/><path d="M126.85,409.65l-.87,0a12.75,12.75,0,0,1-10.54-8.55,17.15,17.15,0,0,1,1.71-15,15,15,0,0,1,11.43-7,10.08,10.08,0,0,1,9.22,4c3.12,4.05,4,10.68,2,16.12h0C138,404.51,133,409.65,126.85,409.65Zm2.75-28-.8,0a12.22,12.22,0,0,0-9.41,5.76,14.53,14.53,0,0,0-1.45,12.7c1.35,3.72,4.74,6.51,8.25,6.79,5.17.41,9.5-4,11.13-8.68s.92-10.28-1.64-13.61A7.34,7.34,0,0,0,129.6,381.68Z"/><path class="cls-42" d="M163.36,413.46c2,2.1,3.95,4.34,4.73,7.1,1.49,5.35-2,10.82-6.12,14.57a6.41,6.41,0,0,1-3.08,1.83,6,6,0,0,1-3.32-.64c-6.92-3-11.81-9.26-16.17-15.4a22.84,22.84,0,0,1-3.29-5.8c-1.19-3.6-1.86-8.66,1.53-10.5,2.05-1.11,7-1.07,9.45-1C153.72,403.92,159.05,408.85,163.36,413.46Z"/><path d="M158.28,438.34a8.22,8.22,0,0,1-3.24-.8c-7.3-3.17-12.46-9.85-16.73-15.85a23.47,23.47,0,0,1-3.46-6.15c-2-5.88-1.17-10.28,2.15-12.09,2.19-1.19,6.72-1.27,10.14-1.13,7,.29,12.62,5.33,17.2,10.23h0c2.18,2.34,4.2,4.68,5,7.66,2,7.14-3.88,13.5-6.5,15.9a7.64,7.64,0,0,1-3.76,2.17A5.9,5.9,0,0,1,158.28,438.34Zm-13.42-33.4c-3.14,0-5.58.3-6.59.85-3,1.65-1.45,7.24-.89,8.91a21,21,0,0,0,3.11,5.44c4.24,6,8.94,12.06,15.61,15a5,5,0,0,0,2.57.55,5.39,5.39,0,0,0,2.4-1.5c2.25-2.07,7.33-7.5,5.73-13.23-.67-2.4-2.39-4.38-4.41-6.55h0c-4.42-4.73-9.34-9.14-15.36-9.39C146.28,405,145.55,404.94,144.86,404.94Z"/><path class="cls-43" d="M152.23,429.74a26.54,26.54,0,0,0,3.23-11.41,3.89,3.89,0,0,1,.72-2.57c1.12-1.16,3.09-.34,4.27.75a13.14,13.14,0,0,1,4.2,8.76c.15,2.29-.46,4.84-2.35,6.14a7,7,0,0,1-2.73,1,7.72,7.72,0,0,1-5.24-.53c-1.55-.89-2.54-2.94-1.78-4.56"/><path class="cls-44" d="M56,239a14.35,14.35,0,0,0,12.71.46A7.4,7.4,0,0,0,72.59,236a17.63,17.63,0,0,0,.85-4c.29-1.57.91-3.08,1.08-4.67a10.48,10.48,0,0,0-4.12-9,17.4,17.4,0,0,0-9.63-3.39,8.55,8.55,0,0,0-3.11.21A8.39,8.39,0,0,0,55,216.59C46.76,222.87,46.35,233.68,56,239Z"/><path d="M62.88,242.05a15.61,15.61,0,0,1-7.48-1.88c-4.75-2.61-7.56-6.62-7.9-11.28-.37-4.89,2.13-9.89,6.69-13.36a9.73,9.73,0,0,1,3.09-1.7,10,10,0,0,1,3.59-.26,18.64,18.64,0,0,1,10.36,3.68,11.75,11.75,0,0,1,4.62,10.22,19,19,0,0,1-.64,2.91c-.17.61-.34,1.23-.46,1.86-.07.38-.13.76-.18,1.15a11,11,0,0,1-.76,3.18,8.74,8.74,0,0,1-4.51,4.11A15.4,15.4,0,0,1,62.88,242.05Zm-3.21-25.87a5.92,5.92,0,0,0-1.63.2,7.31,7.31,0,0,0-2.23,1.27c-3.84,2.92-6,7-5.66,11,.28,3.73,2.6,7,6.53,9.14h0a13,13,0,0,0,11.51.42,6.28,6.28,0,0,0,3.19-2.78,8.83,8.83,0,0,0,.55-2.44c.06-.43.12-.86.2-1.28.13-.72.33-1.42.51-2.09a16.05,16.05,0,0,0,.56-2.49,9.2,9.2,0,0,0-3.63-7.84,16,16,0,0,0-8.9-3.1C60.35,216.2,60,216.18,59.67,216.18Z"/><path class="cls-45" d="M88.18,205.33c4,.88,8,2.92,9.65,6.66a13.82,13.82,0,0,1,.52,7.42c-.77,5.41-3.13,11.22-8.13,13.42-4.35,1.91-9.46.53-13.66-1.67s-8-5.23-12.47-6.85c-2.69-1-5.72-1.5-7.73-3.53C54.6,219,52.3,213.35,54,211c1.3-1.84,6.14-1.92,8.31-2.63C70.58,205.61,79.46,203.39,88.18,205.33Z"/><path d="M85.69,235.08a21.7,21.7,0,0,1-9.75-2.74c-1.59-.84-3.13-1.79-4.62-2.71a41.81,41.81,0,0,0-7.69-4.06c-.6-.22-1.23-.42-1.85-.62-2.26-.71-4.59-1.44-6.37-3.24s-4.78-8.31-2.52-11.51c1.21-1.72,4-2.2,6.53-2.63a19.93,19.93,0,0,0,2.46-.51c8.45-2.77,17.52-5.05,26.59-3,3,.68,8.5,2.55,10.59,7.43a15.21,15.21,0,0,1,.61,8.14c-.6,4.2-2.56,11.65-8.92,14.45A12.45,12.45,0,0,1,85.69,235.08Zm-4.44-29.16c-6.28,0-12.57,1.71-18.54,3.67a20.46,20.46,0,0,1-2.84.61c-1.69.29-4.23.72-4.8,1.53-1.11,1.57.66,6.52,2.23,8.11,1.32,1.33,3.24,1.93,5.28,2.57.66.21,1.32.42,2,.65a44.8,44.8,0,0,1,8.18,4.3c1.45.9,3,1.82,4.46,2.62,3.37,1.77,8.27,3.49,12.5,1.63,5.37-2.36,6.93-9.45,7.35-12.39a12.8,12.8,0,0,0-.42-6.71c-1.63-3.79-6.16-5.31-8.72-5.88h0A30.53,30.53,0,0,0,81.25,205.92Z"/><path class="cls-46" d="M82.88,221.52a8.43,8.43,0,0,1,6.28-1.34,5.4,5.4,0,0,1,4.24,4.48,5.79,5.79,0,0,1-3,5.23,12.34,12.34,0,0,1-6.14,1.39C76,231.41,77.46,225,82.88,221.52Z"/><path class="cls-47" d="M45.73,238.86c-2.64,5.38-5.79,11.25-11.44,13.26A12.76,12.76,0,0,1,22,249.64a14.9,14.9,0,0,1-4.93-11.72A13.07,13.07,0,0,1,19,231.28c2.32-3.61,6.5-5.49,10.45-7.19L46,217a15,15,0,0,1,5.06-1.5,5.12,5.12,0,0,1,4.63,2.06c1.76,2.81-2.54,6.19-3.73,8.57C49.84,230.34,47.8,234.61,45.73,238.86Z"/><path d="M30.4,254.11a14.36,14.36,0,0,1-9.29-3.46,16.21,16.21,0,0,1-5.4-12.78,14.46,14.46,0,0,1,2.17-7.31c2.63-4.08,7.29-6.08,11.05-7.69l16.54-7.12a16.26,16.26,0,0,1,5.52-1.6,6.37,6.37,0,0,1,5.83,2.68c1.74,2.78-.54,5.68-2.2,7.79a14.71,14.71,0,0,0-1.47,2.09Q51,231,49,235.26l-2,4.18c-2.87,5.88-6.18,11.8-12.18,13.94A13.05,13.05,0,0,1,30.4,254.11Zm21-37.31h-.27a14.21,14.21,0,0,0-4.61,1.39L30,225.31c-3.42,1.47-7.68,3.3-9.86,6.7a11.63,11.63,0,0,0-1.74,6,13.69,13.69,0,0,0,4.47,10.66,11.48,11.48,0,0,0,11,2.23c5.06-1.79,8.06-7.2,10.69-12.59l2-4.17c1.39-2.87,2.78-5.73,4.2-8.58A15.69,15.69,0,0,1,52.53,223c1.57-2,2.72-3.63,2-4.73A3.7,3.7,0,0,0,51.4,216.8Z"/><path class="cls-48" d="M25.46,237.27a5.6,5.6,0,0,1,6.07,2.39,6.68,6.68,0,0,1,.11,6.67,5,5,0,0,1-4.31,2.83,6.88,6.88,0,0,1-4-2,11,11,0,0,1-3.63-4.63c-.64-1.89-.16-4.28,1.56-5.28s3.58-.44,5.34.08"/><path class="cls-49" d="M66.23,30.6c4.93.85,10,1.74,14.24,4.41s7.45,7.58,6.59,12.51c-.5,2.9-2.3,5.39-4.19,7.65-2.44,2.91-5.94,5.88-9.6,4.86a10.68,10.68,0,0,1-4.06-2.67q-6.55-6-12.88-12.15c-2.9-2.84-9.38-7.34-9.88-11.71C45.51,25.19,62.4,30,66.23,30.6Z"/><path d="M74.76,61.56a6.77,6.77,0,0,1-1.85-.25,11.81,11.81,0,0,1-4.6-3c-4.36-4-8.7-8.06-12.92-12.19-.61-.61-1.44-1.32-2.31-2.08-3.34-2.9-7.51-6.52-7.95-10.43a5,5,0,0,1,1.5-4.48c3.37-3.06,11-1.74,17.91-.27.79.17,1.45.31,1.91.39h0c4.79.82,10.21,1.74,14.73,4.59,4.31,2.72,8.2,8.06,7.2,13.87C87.81,51,85.89,53.64,83.89,56,80.83,59.68,77.71,61.56,74.76,61.56ZM53.16,30c-2,0-3.8.3-4.74,1.15a2.32,2.32,0,0,0-.64,2.21c.32,2.88,4.21,6.26,7,8.72.9.78,1.75,1.52,2.43,2.19,4.19,4.1,8.51,8.18,12.84,12.11a9.29,9.29,0,0,0,3.53,2.37c3,.85,6.13-1.94,8.22-4.42,1.75-2.1,3.45-4.41,3.9-7,.8-4.59-2.44-8.91-6-11.15-4.07-2.57-9.21-3.45-13.75-4.22h0l-2-.41A56.4,56.4,0,0,0,53.16,30Z"/><path class="cls-50" d="M19.21,110c-3,1.24-6.48,2.19-9.56,1.06A11,11,0,0,1,5.41,108C2.06,104.29.23,98.83,2,94.19c1.48-3.77,5.09-6.37,8.92-7.67s8-1.47,12-1.72a83.22,83.22,0,0,0,16.94-2.38c1.63-.44,3.33-1,5-.59,3.53.83,4.79,5.33,3.36,8.38-1.17,2.48-4.2,3.76-6.3,5.36C34.72,101,27.68,106.57,19.21,110Z"/><path d="M12.65,112.91a10,10,0,0,1-3.46-.59,12.13,12.13,0,0,1-4.77-3.44C.37,104.4-1,98.44.8,93.7c1.48-3.78,5-6.85,9.74-8.44a44.06,44.06,0,0,1,11.57-1.74l.76,0a81.21,81.21,0,0,0,16.67-2.33l.34-.1a10.62,10.62,0,0,1,5.29-.51A6.24,6.24,0,0,1,49.36,84a8.05,8.05,0,0,1,.08,6.77c-1,2.15-3.08,3.47-4.9,4.63-.65.42-1.27.81-1.81,1.22l-1.27,1c-6.69,5.09-13.61,10.35-21.75,13.65A19.16,19.16,0,0,1,12.65,112.91ZM43.66,83a12,12,0,0,0-3.07.58l-.35.1A84.83,84.83,0,0,1,23,86.13l-.76.05a42.45,42.45,0,0,0-10.88,1.6c-4,1.34-6.91,3.85-8.1,6.89C1.8,98.48,3,103.35,6.4,107.09a9.64,9.64,0,0,0,3.71,2.73c2.81,1,6.07,0,8.6-1h0c7.8-3.17,14.28-8.09,21.14-13.3l1.27-1c.63-.47,1.32-.92,2-1.34,1.6-1,3.24-2.07,3.92-3.52A5.42,5.42,0,0,0,47,85.16a3.61,3.61,0,0,0-2.4-2A3.82,3.82,0,0,0,43.66,83Z"/><path class="cls-51" d="M33,155.31c-4.14,3.81-8.47,7.72-13.84,9.39S7,165.13,4,160.37a14.59,14.59,0,0,1-1.81-5.11c-.82-4.34-.55-9.19,2.17-12.68,3.75-4.81,10.64-5.49,16.74-5.78l21.78-1c2.75-.12,5.84-.13,7.81,1.8,3.9,3.82.09,7.55-3.45,8.72C41.54,148.2,37.39,151.22,33,155.31Z"/><path d="M14.4,166.73c-4.45,0-9-1.69-11.49-5.65a15.76,15.76,0,0,1-2-5.57c-1-5.52-.18-10.4,2.43-13.75,4.07-5.23,11.28-6,17.73-6.29l21.78-1c3-.14,6.48-.1,8.8,2.17,2.14,2.1,2.22,4.1,1.92,5.42-.67,2.86-3.58,4.76-5.88,5.52-5.67,1.88-9.64,4.85-13.85,8.73-3.8,3.51-8.54,7.87-14.35,9.68A17.15,17.15,0,0,1,14.4,166.73Zm30.27-29.66c-.56,0-1.12,0-1.69.05l-21.78,1c-5.85.28-12.37.93-15.75,5.27C2.57,147.09,3,152.26,3.53,155a13.24,13.24,0,0,0,1.64,4.64c2.72,4.34,9,5.18,13.54,3.77,5.24-1.64,9.54-5.6,13.34-9.1h0c3.86-3.56,8.33-7.15,14.81-9.3,1.77-.58,3.75-2,4.12-3.59a3.1,3.1,0,0,0-1.19-2.91C48.58,137.33,46.68,137.07,44.67,137.07Z"/><path class="cls-52" d="M9.54,151.29a6.59,6.59,0,0,1,8.7,6.14,3.9,3.9,0,0,1-.31,1.72c-.6,1.25-2,1.83-3.32,2.31a8.92,8.92,0,0,1-3.53.78c-3-.16-5-3.12-6-5.9-.67-1.74-1-4.08.52-5.14a3.92,3.92,0,0,1,2.31-.53,14.76,14.76,0,0,1,4.27.67"/><path class="cls-53" d="M14.5,176.8A16.63,16.63,0,0,0,9.18,181a16.29,16.29,0,0,0-3.28,8.12A17.16,17.16,0,0,0,9.12,202c2.85,3.56,7.72,5.59,12.15,4.5,8.1-2,11.16-12.42,18.6-16.2,3.28-1.66,7.55-2.18,9.38-5.37,4.39-7.65-7.81-9.29-12.27-10.08C29.5,173.55,21.44,173.2,14.5,176.8Z"/><path d="M18.8,208.14a14,14,0,0,1-10.72-5.28,18.43,18.43,0,0,1-3.5-13.92,17.73,17.73,0,0,1,3.56-8.78,18,18,0,0,1,5.75-4.54c8-4.14,17.13-3.16,23.32-2.06l.73.12c3.9.67,11.15,1.91,13.09,6,.83,1.75.62,3.73-.62,5.9-1.53,2.65-4.3,3.68-7,4.67a28.94,28.94,0,0,0-3,1.22c-3.1,1.57-5.4,4.42-7.83,7.44-3,3.76-6.17,7.65-11,8.86A11.44,11.44,0,0,1,18.8,208.14Zm8.74-32.87A26.66,26.66,0,0,0,15.12,178h0a15.06,15.06,0,0,0-4.91,3.85,14.91,14.91,0,0,0-3,7.45,15.72,15.72,0,0,0,2.93,11.9c2.64,3.29,7.08,4.95,10.79,4,4-1,6.73-4.37,9.62-7.94,2.5-3.11,5.08-6.31,8.7-8.15a30.28,30.28,0,0,1,3.24-1.34c2.33-.86,4.54-1.68,5.59-3.5.79-1.38,1-2.51.52-3.44-1.35-2.86-7.95-4-11.13-4.54l-.74-.13A53.64,53.64,0,0,0,27.54,175.27Z"/><path class="cls-54" d="M18.12,204.75a4.31,4.31,0,0,1-2.28-.28,1.87,1.87,0,0,1-1.13-1.85,2.69,2.69,0,0,1,.61-1.17,25.27,25.27,0,0,1,11-8.22c5.62-2.13,3.48,3.48,1.56,6A14,14,0,0,1,18.12,204.75Z"/><path class="cls-55" d="M54.22,145.88c-.63,8,0,16.46-.19,24.45-.16,7.57-1.2,14.57-.39,22.09q2.78,25.71,7.7,51.12c.66,3.41,2.2,6.22,1.38,9.14a1.56,1.56,0,0,1-1.37,1.18c-1.06,0-2.9,1.56-3.32.42-.75-2-.64-7.28-1.33-9.33A210.92,210.92,0,0,1,46,177c.05-13.73,1.77-27.43,1.69-41.16-.24-38.28-8.78-76.45-5.35-115.32.36-4.07-.68-21.13,6.21-19,6.19,1.89,3,19,2.84,23.59a441.88,441.88,0,0,0,1,55.79C54.15,102.49,55.93,124.21,54.22,145.88Z"/><path d="M58.64,256a2,2,0,0,1-.81-.17,1.9,1.9,0,0,1-1-1.13,22.63,22.63,0,0,1-.78-5.17,23,23,0,0,0-.57-4.2A212.35,212.35,0,0,1,44.64,177c0-6.62.45-13.33.85-19.82.44-7,.89-14.22.85-21.32-.1-15.58-1.61-31.45-3.06-46.8C41.15,66.68,39,43.53,41,20.43c.06-.64.08-1.68.1-2.88.15-7.17.57-14.36,3.88-16.76a4.32,4.32,0,0,1,4-.55c6.16,1.88,4.86,14.2,4.08,21.57-.14,1.38-.27,2.57-.3,3.34a438.89,438.89,0,0,0,1,55.64l0,.46c1.72,21.2,3.49,43.12,1.79,64.73h0c-.39,4.83-.3,10-.22,14.91.05,3.13.1,6.36,0,9.47-.06,2.5-.21,4.95-.35,7.33A84.63,84.63,0,0,0,55,192.28c1.83,17,4.42,34.18,7.68,51,.19,1,.46,1.94.73,2.86.64,2.21,1.29,4.5.62,6.89a2.89,2.89,0,0,1-2.59,2.15,5.4,5.4,0,0,0-.87.32A5,5,0,0,1,58.64,256ZM47.41,2.66a1.46,1.46,0,0,0-.88.29C44,4.77,43.84,13.44,43.76,17.6c0,1.31,0,2.34-.11,3.06-2,22.87.16,45.89,2.28,68.15,1.46,15.41,3,31.34,3.07,47,0,7.19-.41,14.47-.85,21.5-.4,6.45-.81,13.12-.84,19.67A209.37,209.37,0,0,0,58,244.53a23.55,23.55,0,0,1,.69,4.82,37.9,37.9,0,0,0,.46,3.87l.38-.16a5.09,5.09,0,0,1,1.81-.53.44.44,0,0,0,.14-.21c.46-1.66,0-3.41-.62-5.43-.28-1-.58-2-.79-3.09-3.27-16.9-5.87-34.14-7.71-51.24a87.61,87.61,0,0,1,0-15c.14-2.35.29-4.78.34-7.22.07-3.06,0-6.27,0-9.37-.08-5-.16-10.21.23-15.17,1.69-21.4-.08-43.21-1.78-64.31l0-.46a442.07,442.07,0,0,1-1-56c0-.85.16-2.08.31-3.51C50.9,16.29,52.2,4,48.14,2.78A2.69,2.69,0,0,0,47.41,2.66Z"/><path class="cls-56" d="M31,39a14.1,14.1,0,0,1-12,1.72,11.3,11.3,0,0,1-7.6-9.09,19.1,19.1,0,0,1,.63-6.1,11.79,11.79,0,0,1,1.49-4.11,12.18,12.18,0,0,1,3.22-2.88C24,13.41,31.76,8.14,40.62,7.14a4.45,4.45,0,0,1,2.8.36,4,4,0,0,1,1.46,2C48.85,19.11,38.66,34,31,39Z"/><path d="M23.06,42.7a14,14,0,0,1-4.5-.73,12.57,12.57,0,0,1-8.49-10.2,20.12,20.12,0,0,1,.65-6.54,12.78,12.78,0,0,1,1.69-4.57A13.22,13.22,0,0,1,16,17.44c7.08-5,15.1-10.57,24.52-11.62a5.59,5.59,0,0,1,3.64.54,5.33,5.33,0,0,1,2,2.61c4.41,10.7-6.84,26.25-14.44,31.14h0A16,16,0,0,1,23.06,42.7ZM41.65,8.41a6.51,6.51,0,0,0-.88.06c-8.74,1-16.46,6.38-23.28,11.15a11.09,11.09,0,0,0-2.88,2.54,10.76,10.76,0,0,0-1.29,3.64,17.88,17.88,0,0,0-.6,5.68,10,10,0,0,0,6.7,8,12.88,12.88,0,0,0,10.81-1.58h0c7.74-5,17-19.21,13.42-27.88a2.79,2.79,0,0,0-.93-1.36A2.07,2.07,0,0,0,41.65,8.41Z"/><path class="cls-57" d="M26.19,38.84A2.16,2.16,0,0,1,24,38.76c-.75-.71-.21-2,.38-2.81,1.38-2,9.73-14.88,13.5-10C41.1,30,29.06,37.83,26.19,38.84Z"/><path class="cls-58" d="M81.73,53.26c-1.26,1.93-2.91,3.77-5.12,4.42s-5-.37-5.65-2.59c-.89-3.14,6-12.47,9-13.53C87.18,39,83.53,50.5,81.73,53.26Z"/><path class="cls-59" d="M60.11,104.82c3.23,3.35,7.76,5.76,12.4,5.35A11.84,11.84,0,0,0,83.06,95.9a19.08,19.08,0,0,0-3.91-7.48,17.52,17.52,0,0,0-5.34-4.92A18.32,18.32,0,0,0,69.12,82a62.92,62.92,0,0,0-11.19-1.46,8.5,8.5,0,0,0-4.92.86C45.33,86.21,56.4,101,60.11,104.82Z"/><path d="M71.48,111.55c-4.3,0-8.74-2.08-12.33-5.81h0C56.8,103.3,48.21,92.67,49.09,85.35a6.78,6.78,0,0,1,3.2-5.12A9.57,9.57,0,0,1,58,79.16a64.56,64.56,0,0,1,11.43,1.48,19.56,19.56,0,0,1,5,1.69A18.91,18.91,0,0,1,80.2,87.6a20.23,20.23,0,0,1,4.16,8A13.16,13.16,0,0,1,72.62,111.5C72.25,111.53,71.86,111.55,71.48,111.55ZM56.92,81.8a6,6,0,0,0-3.2.68,4.13,4.13,0,0,0-2,3.19c-.65,5.35,5.76,14.51,9.33,18.22h0c3.3,3.43,7.52,5.28,11.32,5a10.51,10.51,0,0,0,9.36-12.67,17.86,17.86,0,0,0-3.65-6.94,16.43,16.43,0,0,0-4.92-4.56,17,17,0,0,0-4.34-1.43,62.3,62.3,0,0,0-11-1.43Z"/><path class="cls-60" d="M51.84,91.06A14.15,14.15,0,0,0,63.43,94a27.38,27.38,0,0,0,3.93-1.2c3-1.09,6.27-2.41,7.75-5.24a9.49,9.49,0,0,0,.94-3.67,17.61,17.61,0,0,0-1.41-8.36c-1.91-4.36-6-8-10.8-8.15a13.73,13.73,0,0,0-3.77.48C49.18,70.55,41.33,82.43,51.84,91.06Z"/><path d="M60.74,95.55A15.43,15.43,0,0,1,51,92.09h0c-4.37-3.59-6.2-8.15-5.15-12.83,1.31-5.86,6.9-11,13.9-12.74A14.92,14.92,0,0,1,63.88,66c4.89.14,9.7,3.73,12,8.94a18.82,18.82,0,0,1,1.51,9,10.63,10.63,0,0,1-1.08,4.18c-1.67,3.19-5.1,4.65-8.47,5.87a27.6,27.6,0,0,1-4.13,1.26A14.61,14.61,0,0,1,60.74,95.55ZM52.68,90a12.91,12.91,0,0,0,10.49,2.62,27.8,27.8,0,0,0,3.74-1.15c3-1.09,5.79-2.26,7-4.61a8.15,8.15,0,0,0,.79-3.15A16.26,16.26,0,0,0,73.41,76c-1.56-3.57-5.13-7.22-9.6-7.35a12.47,12.47,0,0,0-3.42.44c-6,1.5-10.87,5.92-12,10.74-.83,3.71.64,7.23,4.24,10.19Z"/><path class="cls-61" d="M58,81.34a79,79,0,0,1,10.75-1,4.65,4.65,0,0,1,1.93.23A3.16,3.16,0,0,1,72.31,84a6.81,6.81,0,0,1-1.94,3.48A13.65,13.65,0,0,1,61.05,92C53,92.24,47.56,83,58,81.34Z"/><path class="cls-62" d="M39.87,132c-4.58,3.44-11.25,4.45-16.09,1.4a15.07,15.07,0,0,1-6.12-8.91c-1.09-4-.87-8.53,1.43-12,2-3,5.41-4.91,8.91-5.89a55.17,55.17,0,0,1,10.81-1.39c2.62-.19,5.39-.4,7.73.78C56.14,110.85,45.15,128,39.87,132Z"/><path d="M30.42,136.51a13.68,13.68,0,0,1-7.35-2,16.28,16.28,0,0,1-6.7-9.68c-1.31-4.81-.72-9.57,1.61-13.07,2.53-3.8,6.65-5.59,9.67-6.43A48.93,48.93,0,0,1,37.49,104l1.23-.09c2.76-.2,5.78-.42,8.43.93a8,8,0,0,1,4.48,6.74c.67,7.59-6.82,18.38-11,21.49h0A17.22,17.22,0,0,1,30.42,136.51Zm11.42-30.12c-.93,0-1.89.07-2.84.13l-1.33.1a46.68,46.68,0,0,0-9.31,1.26,14.24,14.24,0,0,0-8.17,5.34c-1.9,2.85-2.35,6.82-1.25,10.89a13.64,13.64,0,0,0,5.55,8.13c4.1,2.58,10.09,2,14.58-1.34C42.89,128,49.54,118.21,49,111.77a5.32,5.32,0,0,0-3-4.6A9.05,9.05,0,0,0,41.84,106.39Z"/><path class="cls-63" d="M27.29,124.64a12.52,12.52,0,0,1-3.62-15.17,10,10,0,0,1,2.19-2.93,13.92,13.92,0,0,1,7.06-2.88,41.86,41.86,0,0,1,15.46.25,4.23,4.23,0,0,1,2.16.91,3.87,3.87,0,0,1,1,2.1C53.87,118.68,38.22,132.72,27.29,124.64Z"/><path d="M34.48,128.35a13.27,13.27,0,0,1-8-2.64h0a13.75,13.75,0,0,1-4-16.83A10.89,10.89,0,0,1,25,105.55c2.3-2.06,5.34-2.79,7.73-3.2a43,43,0,0,1,15.95.25,5.44,5.44,0,0,1,2.81,1.26,5.06,5.06,0,0,1,1.34,2.79c1.52,7.53-3.59,15.21-9.42,18.92A16.66,16.66,0,0,1,34.48,128.35Zm-6.4-4.78c4,2.93,9,2.84,13.87-.25,5.9-3.75,9.37-10.54,8.24-16.14a2.85,2.85,0,0,0-.57-1.4,3.43,3.43,0,0,0-1.51-.57,40.46,40.46,0,0,0-15-.24c-2,.35-4.61,1-6.4,2.56a8.56,8.56,0,0,0-1.89,2.54,11.18,11.18,0,0,0,3.22,13.5Z"/><path class="cls-64" d="M69.21,155.43c7.14.65,15.05,2.53,18.86,8.6A14.07,14.07,0,0,1,89.3,176a16,16,0,0,1-8.14,9,10.89,10.89,0,0,1-3.81,1.13c-3.42.28-6.67-1.65-9.13-4s-4.41-5.28-6.9-7.64c-3.81-3.61-13.41-8.7-11.27-15.38C52.06,152.69,64.61,155,69.21,155.43Z"/><path d="M76.7,187.42c-3.12,0-6.43-1.56-9.41-4.44-1.24-1.21-2.36-2.54-3.44-3.82a45.44,45.44,0,0,0-3.44-3.81c-.79-.75-1.9-1.6-3.07-2.51-4.44-3.44-10.52-8.14-8.56-14.24,2.11-6.62,12.88-5.37,18.68-4.7l1.87.21h0c10,.91,16.55,3.93,19.86,9.21a15.32,15.32,0,0,1,1.37,13.09,17.32,17.32,0,0,1-8.82,9.72,12.35,12.35,0,0,1-4.28,1.26C77.21,187.41,77,187.42,76.7,187.42ZM59.92,156c-3.93,0-7.74.69-8.61,3.39-1.38,4.32,3.64,8.2,7.66,11.32,1.23,1,2.38,1.84,3.27,2.68a51,51,0,0,1,3.66,4,45.8,45.8,0,0,0,3.25,3.62c1.54,1.5,4.64,3.95,8.09,3.67a9.37,9.37,0,0,0,3.34-1,14.58,14.58,0,0,0,7.46-8.2,12.82,12.82,0,0,0-1.1-10.8c-2.84-4.53-8.68-7.13-17.85-8h0l-1.94-.21A63.21,63.21,0,0,0,59.92,156Z"/><path class="cls-65" d="M50.89,133.18c1.55-1.34,3.79-1.41,5.84-1.41l17.15,0a15.43,15.43,0,0,1,3.66.29,10.74,10.74,0,0,1,4,2.09c5.17,4.05,7.73,11.38,5.62,17.61s-9.09,10.57-15.5,9.15c-5.45-1.2-9.4-5.8-12.93-10.12C55.88,147.3,45.06,138.17,50.89,133.18Z"/><path d="M74.08,162.52a12.36,12.36,0,0,1-2.71-.29c-5.68-1.25-9.71-5.72-13.67-10.58-.46-.57-1.17-1.32-2-2.18-3.41-3.61-8.08-8.56-7.84-13.08A5.79,5.79,0,0,1,50,132.17c2-1.73,4.78-1.73,6.71-1.73H73.88a16.92,16.92,0,0,1,4,.34,12,12,0,0,1,4.51,2.33c5.74,4.5,8.29,12.52,6.06,19.08A15.64,15.64,0,0,1,74.08,162.52ZM56.69,133.11c-1.95,0-3.78.08-4.93,1.08h0a3.21,3.21,0,0,0-1.23,2.34c-.18,3.38,4.39,8.22,7.12,11.11.86.9,1.59,1.68,2.12,2.32,3.65,4.49,7.33,8.6,12.18,9.67,5.62,1.24,12-2.55,14-8.28,1.87-5.53-.31-12.31-5.19-16.13a9.11,9.11,0,0,0-3.49-1.84,14.1,14.1,0,0,0-3.34-.26H56.69Z"/><path class="cls-66" d="M61.34,216.88A14,14,0,0,1,52,221.64a8.74,8.74,0,0,1-3.45-.32,10,10,0,0,1-5.25-4.86,17.78,17.78,0,0,1-2.08-12.85,13.67,13.67,0,0,1,8.4-9.67C63.24,189.11,68.93,208.07,61.34,216.88Z"/><path d="M51,223a9.49,9.49,0,0,1-2.9-.43c-2.34-.76-4.35-2.6-6-5.46a19.09,19.09,0,0,1-2.21-13.84,14.91,14.91,0,0,1,9.25-10.6c5.67-2,10.77-.44,14,4.29,4.17,6.1,3.81,15.42-.8,20.77h0A15.27,15.27,0,0,1,52.07,223C51.7,223,51.35,223,51,223Zm2.79-28.52a11.4,11.4,0,0,0-3.77.7,12.42,12.42,0,0,0-7.54,8.72,16.37,16.37,0,0,0,1.94,11.88c1.3,2.28,2.82,3.71,4.5,4.25a7.34,7.34,0,0,0,2.94.26,12.52,12.52,0,0,0,8.47-4.3c4.2-4.88,3.71-13,.62-17.52A8.58,8.58,0,0,0,53.79,194.5Z"/><path class="cls-67" d="M49,212.21c1.57,0,3.3,0,4.47,1.06,1.59,1.42,1.25,4.27-.43,5.57a5.11,5.11,0,0,1-6-.16,6.14,6.14,0,0,1-2.47-5,2,2,0,0,1,.24-1.05,2.23,2.23,0,0,1,1.88-.79,9.35,9.35,0,0,1,3.91.73"/></g></g></g></svg>