<svg xmlns="http://www.w3.org/2000/svg" viewBox="0 0 368.96 263.08"><defs><style>.cls-1{fill:#c6cdbb;}.cls-1,.cls-12,.cls-14,.cls-16,.cls-18,.cls-2,.cls-20,.cls-22,.cls-24,.cls-26,.cls-29,.cls-3,.cls-32,.cls-35,.cls-38,.cls-41,.cls-42,.cls-44,.cls-45,.cls-49,.cls-5,.cls-53,.cls-55,.cls-57,.cls-59,.cls-61,.cls-65,.cls-66,.cls-67,.cls-7,.cls-9{stroke:#232323;stroke-miterlimit:10;stroke-width:2px;}.cls-2{fill:#b0b5b1;}.cls-3{fill:#acaaa6;}.cls-4{fill:#f1e6db;}.cls-5{fill:#c0c7c5;}.cls-6{fill:#d8ded5;}.cls-7{fill:#9d9e9c;}.cls-8{fill:#d9d1c1;}.cls-9{fill:#ced5cd;}.cls-10{fill:#ebeded;}.cls-11{fill:#a6aba4;}.cls-12{fill:#a8aca9;}.cls-13{fill:#c3bfab;}.cls-14{fill:#dde1e1;}.cls-15{fill:#e5d0c8;}.cls-16{fill:#c3cbcd;}.cls-17{fill:#eef3f1;}.cls-18{fill:#b3bab3;}.cls-19{fill:#dbdfc7;}.cls-20{fill:#c8cdc8;}.cls-21{fill:#e4ddcf;}.cls-22{fill:#a3a9a5;}.cls-23{fill:#b8b0a7;}.cls-24{fill:#eaeeed;}.cls-25{fill:#e0d0c5;}.cls-26{fill:#dce5db;}.cls-27{fill:#dadedf;}.cls-28{fill:#e9eaeb;}.cls-29{fill:#b9c0a9;}.cls-30{fill:#f1f3fa;}.cls-31{fill:#efe9e9;}.cls-32{fill:#dfe4dc;}.cls-33{fill:#c9c9c9;}.cls-34{fill:#cacbcc;}.cls-35{fill:#dbe2ce;}.cls-36{fill:#f1f0f0;}.cls-37{fill:#c0c5c5;}.cls-38{fill:#d3d9d7;}.cls-39{fill:#babebf;}.cls-40{fill:#dee3e2;}.cls-41{fill:#adaa9f;}.cls-42{fill:#d7dbd3;}.cls-43{fill:#bcbfb6;}.cls-44{fill:#c5cac5;}.cls-45{fill:#d6dad7;}.cls-46{fill:#d2cab9;}.cls-47{fill:#b0b2af;}.cls-48{fill:#b0baa4;}.cls-49{fill:#cad1d0;}.cls-50{fill:#cdc2b9;}.cls-51{fill:#dedad7;}.cls-52{fill:#efeeeb;}.cls-53{fill:#ced5d6;}.cls-54{fill:#d1dbca;}.cls-55{fill:#e1ece2;}.cls-56{fill:#e9e9e7;}.cls-57{fill:#d8dcd3;}.cls-58{fill:#b9cabe;}.cls-59{fill:#bbc5aa;}.cls-60{fill:#dadbd5;}.cls-61{fill:#ecf1f1;}.cls-62{fill:#f4f0ed;}.cls-63{fill:#d6d0c3;}.cls-64{fill:#b3bda9;}.cls-65{fill:#d5dfdb;}.cls-66{fill:#cfdcc9;}.cls-67{fill:#e0e5e1;}.cls-68{fill:#bec3c1;}</style></defs><g id="Layer_2" data-name="Layer 2"><g id="plants"><g id="succulent1"><path class="cls-1" d="M269.81,91.13a14.53,14.53,0,0,0-5.12-7.69c-2,5.15-6.92,8.92-8.25,14.28a11.67,11.67,0,0,0,.79,7.78,3.31,3.31,0,0,0,1.25,1.55,3.65,3.65,0,0,0,1.64.33,31.68,31.68,0,0,0,5.33-.25C274,106,271.65,97.14,269.81,91.13Z"/><path class="cls-2" d="M281,87.25a32.51,32.51,0,0,1,9-6.81,33.39,33.39,0,0,1,10-2.53,97.57,97.57,0,0,1,18-.65,4.1,4.1,0,0,1,2,.45c1.35.83,1.31,2.82.83,4.34a23.79,23.79,0,0,1-2.88,5.52,137.45,137.45,0,0,1-58.53,50.12,4.15,4.15,0,0,1-2.75.52,3.32,3.32,0,0,1-2.06-2.86c-.61-3.81,1.84-7.35,3.83-10.66,3.63-6,5.11-12.89,8.57-19A86,86,0,0,1,281,87.25Z"/><path class="cls-3" d="M316,232.49c3.7-1.16,7.57-2.64,9.86-5.76,2.84-3.86,2.52-9.1,2.09-13.86-.25-2.7-.63-5.66-2.64-7.46-1.73-1.56-4.23-1.84-6.55-1.91-17.48-.56-34.19,6.34-50.86,11.62s-35.21,1.54-51.34-5.23c-6-2.53-13.62-.42-20.29,2.41-.17,9.65,7.86,12.6,15.71,13.22,10.74.86,18.75,3.51,29.08,6.73A126.65,126.65,0,0,0,316,232.49Z"/><path class="cls-4" d="M293.87,222.6c-7.88-1.65-17.19-1.74-22.75,4.1a19.5,19.5,0,0,0,7.64,4.63c13.39,5,31,4.51,43.12-3.63C319.34,223.47,299.63,223.82,293.87,222.6Z"/><path class="cls-5" d="M251.58,228.89c4.09-.12,11-.77,15,0s10-2,12,6c1.16,4.63-4.32,11-6.69,15.17-2.86,5-6.33,10.44-11.93,11.72a19.61,19.61,0,0,1-7-.07A142.88,142.88,0,0,1,230,256.56c-4.55-1.42-11.44-1.94-14.41-5.67-1.4-1.76-1.09-3.93-2-6-4.4-10-7.87-21.29-12.27-31.32-2.61-6,.12-7.46,4.62-5.5,3.16,1.38,8,9.1,11.89,11.52A57,57,0,0,0,251.58,228.89Z"/><path class="cls-6" d="M243.44,242.63a21.33,21.33,0,0,1,11.83,13.42c-5-1-30-2.63-31.72-7.62C220.54,239.91,240.08,241.18,243.44,242.63Z"/><path class="cls-7" d="M173.55,255.58c-8,4.49-17.78,3.31-26.91,4a50.16,50.16,0,0,1-6.81.38,23.67,23.67,0,0,1-11.39-4,62.81,62.81,0,0,1-9.38-7.78c-4.85-4.63-9.81-9.83-10.92-16.44a7.64,7.64,0,0,1,.31-4.32c1.08-2.45,4-3.62,6.69-3.54a10.14,10.14,0,0,0,7.44-3c3.58-3.85,9.24-8.06,16-4,3.29,2,10.2,8.47,14,9,2.5.35,9.65,1.55,12,1,2.77-.64,6.76,2.08,9.48,1.26a14.47,14.47,0,0,1,5-.92c3.77.23,6.79,3.68,7.47,7.4C188.07,243.12,180.46,251.69,173.55,255.58Z"/><path class="cls-8" d="M123.38,231.28c1.81.91,3.69,1.67,5.57,2.43,9.23,3.7,18.5,7.42,28.16,9.78,5.48,1.34,11.09,2.24,16.32,4.33a4.06,4.06,0,0,1,2.5,2c.62,1.66-1,3.29-2.48,4.19-4.34,2.58-9.42,3.55-14.43,4.18-10.45,1.31-21.69,1.15-30.71-4.28a50.66,50.66,0,0,1-6.36-4.73c-4.13-3.48-8.2-7.26-10.57-12.11a9.81,9.81,0,0,1-1.13-6.61c.57-2.22,3-4.45,5.44-3.75C118.31,227.45,120.9,230,123.38,231.28Z"/><path class="cls-9" d="M249.83,145.55c8.9-7.07,16.45-15.65,24-24.19l29.73-33.81c8.63-9.8,18.73-20.35,31.77-21,9.91-.46,19.14,5.06,29,6.09,2.15,3.13,2.3,7.3,1.28,11s-3.08,6.92-5.11,10.13L339,127.7a94.36,94.36,0,0,1-9.66,13.44c-3.59,3.94-7.85,7.27-11.11,11.49-2.21,2.84-3.92,6-6,9A63.09,63.09,0,0,1,302.53,172c-10.84,9.64-23.46,17.49-37.36,21.64s-29.14,4.44-42.79-.48c-3.82-1.37-7.87-3.55-9.11-7.42-2.84-8.87,10-17.7,15.55-22.74C235.6,156.82,242.67,151.24,249.83,145.55Z"/><path class="cls-10" d="M348.53,86a30.93,30.93,0,0,1,7.08-1.32,4.13,4.13,0,0,1,3.08.5,3.25,3.25,0,0,1,.89,2.79c-.27,3.21-2.63,5.77-4.35,8.48s-2.89,5.83-4.81,8.44A17.79,17.79,0,0,1,336.71,112c-6.74.15-10.61-6.84-6.53-12.29C334,94.61,342.5,88.07,348.53,86Z"/><path class="cls-11" d="M296.61,153.25c3-.46,6.46-.62,8.69,1.45,2,1.84,2.3,5,1.38,7.54a16.42,16.42,0,0,1-4.85,6.41c-8.6,7.71-19.51,12.25-30.25,16.52-4.29,1.71-8.66,3.41-13.25,3.92-3.59.4-7.51-.06-10.28-2.38-9.76-8.17,9.58-17.87,15.3-21.26A92.83,92.83,0,0,1,296.61,153.25Z"/><path class="cls-12" d="M330.47,140c3.81-2.92,8.07-5.7,12.87-6,5.28-.31,10.19,2.45,14.76,5.12a29.88,29.88,0,0,1,6.78,4.87,10.06,10.06,0,0,1,3.06,7.53c-.2,2.38-1.51,4.49-2.79,6.5A67.51,67.51,0,0,1,358,168a58.35,58.35,0,0,1-9.11,7.62,53,53,0,0,1-8.25,5.08,61,61,0,0,1-8.76,3.07c-10.5,3.09-21,6.2-31.88,7.72-5,.7-10,1.07-14.88,2.36-2.73.72-5.37,1.73-8.09,2.5-5.67,1.6-11.58,2.13-17.44,2.65-1.15.1-2.59.05-3.07-1-.57-1.23.77-2.46,1.94-3.15a149.15,149.15,0,0,1,17.93-9.07c3.67-1.54,7.41-2.71,10.66-5.07,10.1-7.36,18.41-17.44,27.25-26.2A171.85,171.85,0,0,1,330.47,140Z"/><path class="cls-13" d="M349,168.47c-1.23,1.59-2.47,3.35-2.51,5.37a5.79,5.79,0,0,1,2.16-1.23c4.33-1.8,13.82-8.8,13.5-14.25-.26-4.56-3.52-.68-5.09.92A105.14,105.14,0,0,0,349,168.47Z"/><path class="cls-14" d="M326,171.05a43,43,0,0,1,10.32-3.21c3.59-.48,7.45,0,10.34,2.22,4.8,3.62,5.53,11,2.92,16.4s-7.79,9.16-13.17,11.85a113.49,113.49,0,0,1-13.46,5.4c-12.21,4.26-24.78,8.3-37.71,8.21-14.06-.1-27.57-5.08-40.74-10a3.22,3.22,0,0,1-1.84-1.25c-.71-1.36.76-2.82,2.07-3.62,9.14-5.56,20-9.42,30.71-9.71,10.53-.29,20.24-4.74,30-8.37Q315.83,175.16,326,171.05Z"/><path class="cls-15" d="M328.82,187.51c6.56-1.12,13.3-2,19.29-4.89a8.05,8.05,0,0,1-2,5.17c-5.91,7.86-15.75,11.54-25.13,14.49-3.77,1.19-7.56,2.32-11.36,3.42-8.15,2.34-16.79,4.52-25,2.4-2.49-.64-5.16-2-5.81-4.48a1.75,1.75,0,0,1,.08-1.35c1.39-2.42,7.72-4,10.4-4.65,4-.94,7.76-2.2,11.67-3.42A231.42,231.42,0,0,1,328.82,187.51Z"/><path class="cls-16" d="M289.68,174.9c1.89-1.22,3.78-2.56,6.16-2.63a4.42,4.42,0,0,1,2.09.44c2.69,1.36,2.52,4.54,1.83,7.09a52.93,52.93,0,0,1-3.5,8.77c-2.66,5.59-5.51,11.24-9.88,15.64-7.13,7.18-17.35,10.18-27.18,12.58-5.28,1.29-10.64,2.49-16.08,2.52s-11-1.2-15.43-4.38a17.24,17.24,0,0,0-3-2,11.8,11.8,0,0,0-2.89-.74l-16.11-2.77a1.49,1.49,0,0,1-1.23-1.34c-.17-1.59-1.56-3-2.91-4.09-1.84-1.41-4-3.08-3.57-5.55a4,4,0,0,1,1.57-2.45c1.71-1.31,3.85-1.46,5.91-1.59,11.28-.72,23.17-.44,34.3-2.46a191.55,191.55,0,0,0,32.82-8.56A88.83,88.83,0,0,0,289.68,174.9Z"/><path class="cls-17" d="M232.62,209.58a14.87,14.87,0,0,1,4.2-3.56,164.89,164.89,0,0,1,17.09-9.64,21.57,21.57,0,0,1,5.56-2.07c1.47-.27,3-.25,4.47-.46a22.73,22.73,0,0,0,8.84-3.62c7.71-4.88,14.06-11.94,22.43-15.54a1.63,1.63,0,0,1,1.23-.17,1.52,1.52,0,0,1,.73.86c1.77,4-.44,8.56-2.62,12.37-4.26,7.44-8.85,15.11-16,19.77-5.18,3.35-11.3,4.87-17.29,6.33-7.34,1.8-14.77,3.6-22.32,3.61C234.36,217.46,228.88,214.79,232.62,209.58Z"/><path class="cls-18" d="M210.59,219.53a6.32,6.32,0,0,0,2.88.27A8,8,0,0,1,220,232.48a15.07,15.07,0,0,1-3,2.9c-5.72,4.64-11.82,9-18.72,11.54s-14.73,3.23-21.59.55a47.57,47.57,0,0,1-8.63-4.85c-2.47-1.63-5-3.31-6.71-5.72s-2.45-5.75-1-8.35l9.42-3.14c7.85-2.6,16.62-6.07,19.57-13.79,1.95-5.09,4.08-18.45,12.68-11.43C206.72,204,204.68,216.51,210.59,219.53Z"/><path class="cls-19" d="M173.29,227.83c4.26.22,8.12,3.29,12.38,2.93a15.8,15.8,0,0,0,4-1.09l5.59-2a35.54,35.54,0,0,0,4.88-2.07c1-.54,1.94-1.17,2.91-1.75a17.27,17.27,0,0,1,7.27-2.61,9.37,9.37,0,0,1,7.22,2.24,6.5,6.5,0,0,1,1.67,7.11,11,11,0,0,1-3.51,3.85l-6.55,5.18a24.72,24.72,0,0,1-3.89,2.69,35,35,0,0,1-3.34,1.39c-1.43.57-2.82,1.22-4.26,1.77A31.79,31.79,0,0,1,165.34,239a13.4,13.4,0,0,1-3.08-4c-1.22-2.61-.94-4.63,1.84-5.43S170.26,227.67,173.29,227.83Z"/><path class="cls-20" d="M41.69,218.92a7.16,7.16,0,0,1-2.3-2.51,7.45,7.45,0,0,1-.49-2.69l-.38-6.32a16,16,0,0,1,.19-4.69c1.17-4.81,6.64-7.48,11.6-7.37s9.59,2.26,14.26,3.92c13.2,4.7,27.56,5.66,40.51,11,3.7,1.53,7.46,3.6,9.42,7.09,2.54,4.53.74,11.22-3,14.65-3.18,2.89-8.72,2.94-12.75,3.33a81.64,81.64,0,0,1-38-5.52A78.59,78.59,0,0,1,41.69,218.92Z"/><path class="cls-21" d="M88.92,226.65c-13.64-2.62-27.43-5.3-40.05-11.09-2.74-1.25-6.13-2.61-8.55-.81,5.51,6.49,13,11.11,21,14.08s16.47,4.36,25,5.13a57,57,0,0,0,16-.28c1.38-.26,3.83-1,3.73-2.81s-1.38-1.31-2.76-1.59C98.47,228.34,93.67,227.56,88.92,226.65Z"/><path class="cls-22" d="M99.66,143.84C94.49,138,89.41,132,83.34,127s-13.22-8.83-20.22-12.61L48.4,106.46a49.21,49.21,0,0,0-9.63-4.33c-8.93-2.56-18.49.1-27.75-.66a121.82,121.82,0,0,0,27.76,42.25c5,4.94,10.42,9.44,15.84,13.94,2.74,2.27,5.55,4.59,8.89,5.82,1.53.57,3.15.9,4.64,1.59a22.31,22.31,0,0,1,5.28,4,115.72,115.72,0,0,0,30.68,20.1c4.13,1.85,8.46,3.47,13,3.7,5.1.25,49.39-3.44,43.49-13-2.69-4.36-32.66-6-36.28-9.62q-6.08-6.15-12-12.47Q105.88,150.92,99.66,143.84Z"/><path class="cls-23" d="M46.5,142.52c-8-8.1-14-18-19.59-27.89a24.84,24.84,0,0,0-3.84-5.53,8.18,8.18,0,0,0-6-2.6,1.49,1.49,0,0,0-.66.15c-.73.39-.56,1.47-.28,2.25,7.35,20.36,24.08,35.85,41.5,48.69,1.6,1.18,5.73,3.92,7.49,1.41,1.6-2.28-2.37-4.13-4-5.11A79.17,79.17,0,0,1,46.5,142.52Z"/><path class="cls-24" d="M107,176.42a98,98,0,0,0-8.87-4.16c-3.69-1.35-7.61-2-11.31-3.27-5-1.77-9.57-4.76-14.38-7.1A121.68,121.68,0,0,0,60.32,157L31.53,146.67c-5.11-1.84-11-3.64-15.76-1.1-3.82,2-6.14,6.44-10.25,7.77C3.61,154,.9,154.51,1,156.5a3.44,3.44,0,0,0,.73,1.67c3.35,4.87,8,8.74,12.79,12.14,17.41,12.29,38.24,19.16,59.33,22.16s42.57,2.3,63.8.47c2.12-.19,13.33-.7,13.06-4.1-.22-2.69-11.61-3.13-13.85-3.53C126.62,183.47,116.39,181,107,176.42Z"/><path class="cls-25" d="M55.89,172.25c-9.4-3.8-19.6-5.23-29.09-8.79-6.22-2.34-12.22-5.61-18.82-6.31a3,3,0,0,0-1.75.19,2.13,2.13,0,0,0-.75,2.53,5.88,5.88,0,0,0,1.71,2.26,87.51,87.51,0,0,0,46.29,22.62c3,.46,6.1.76,9-.13,2.42-.75,7.09-3.94,5.16-6.92C66.05,175.28,58.57,173.33,55.89,172.25Z"/><path class="cls-26" d="M128.58,219.89c-2.44,1.19-4.69,2.76-7.3,3.51a40.77,40.77,0,0,1-12.76,1,135,135,0,0,1-30.17-4.65c-9.46-2.58-19.52-7-23.56-15.92-2.73-6-2.15-13.09-.35-19.47,1.41-5,4.18-10.37,9.22-11.59A14.87,14.87,0,0,1,70,173c6.44,1.2,12.66,3.36,18.94,5.22a212.59,212.59,0,0,0,49.81,8.45,59.63,59.63,0,0,0,9.45-.1,69.7,69.7,0,0,0,10.38-2.2l26-6.89a7.15,7.15,0,0,1,2.51-.34c3.93.42,5,6.42,3.37,9.35-1.94,3.57-8.09,5.65-11.41,7.51q-16,9-32.3,17.34C140.79,214.39,134.6,217,128.58,219.89Z"/><path class="cls-27" d="M56.85,190.17c.09-3.86.84-8,3.66-10.65,2.5-2.32,6.19-3,9.58-2.56s6.58,1.73,9.78,2.9c15.95,5.84,33,8.13,50,8.71a25.33,25.33,0,0,1,7.57,1,8,8,0,0,1,5.27,5.14c.56,2.16-.15,4.43-.94,6.51a37.47,37.47,0,0,1-6.1,10.95c-6,7.07-15.58,10.31-24.85,10.64s-18.42-1.88-27.43-4.09C76.14,217,67.43,215.13,61.74,210,57,205.69,56.72,196,56.85,190.17Z"/><path class="cls-28" d="M112.16,214.18c1.81.31,4.14,1.32,3.77,3.12a2.79,2.79,0,0,1-.49,1c-2,3-5.69,4.57-9.29,4.93s-7.22-.32-10.77-1c-9.77-1.87-21.81-3.63-29.89-10-1.25-1-3.16-2.66-1.33-4.27,1.48-1.3,6.14.16,8,.37q9.33,1.13,18.64,2.45Q101.48,212.38,112.16,214.18Z"/><path class="cls-29" d="M187.83,212a5.33,5.33,0,0,0-.69,2.14,13.27,13.27,0,0,0,.67,2.8c.62,3-1.82,5.72-4.4,7.33-4.95,3.11-10.9,4.16-16.71,4.75a38.79,38.79,0,0,1-10.49,0c-6.41-1.11-12-4.93-17.11-9a51.28,51.28,0,0,1-10.24-10.2,22.2,22.2,0,0,1-4.41-13.55,1.9,1.9,0,0,1,.49-1.43,1.72,1.72,0,0,1,.83-.35c4.37-1,8.71,1.28,12.86,3,6.53,2.67,13.5,4.06,20.43,5.44a16.08,16.08,0,0,0,5.11.47,12,12,0,0,0,4.59-1.69c3.41-2,6.21-4.84,9.13-7.5s6.1-5.2,9.88-6.35,8.28-.64,11,2.18a7.38,7.38,0,0,1-1,11C193.22,204.37,190.44,206.66,187.83,212Z"/><path class="cls-30" d="M176.83,207.45a23.86,23.86,0,0,1,6.38,3.7,8.05,8.05,0,0,1,2.91,6.52c-.37,3.57-3.82,6-7.19,7.27-4.43,1.65-9.2,2.1-13.91,2.45a30.9,30.9,0,0,1-8.91-.26c-3.79-.85-7.14-3-10.35-5.23-7.2-4.94-14.47-10.5-18.19-18.4-1-2.14-1.4-5.31.74-6.33a4.87,4.87,0,0,1,3.24,0c8.24,2,16.22,5.06,24.59,6.53a66.69,66.69,0,0,0,11.2.71C170.84,204.48,173.66,206,176.83,207.45Z"/><path class="cls-31" d="M168.2,209.35a23.37,23.37,0,0,1,6.2.27,6.73,6.73,0,0,1,4.78,3.62c.94,2.25,0,5-1.72,6.69a13.69,13.69,0,0,1-6.48,3.21c-9.94,2.47-20.82-.24-28.87-6.44-2.26-1.75-10.06-8.27-9.14-11.7,1-3.72,10.81,1.42,13,2A75,75,0,0,0,168.2,209.35Z"/><path class="cls-32" d="M264.81,172.86c5.75-1.13,11.49-2.34,17.11-4,22.6-6.47,42.85-19.14,62.46-32.1,4.47-3,9-6,12.61-9.9s6.39-8.92,6.66-14.27l-9.12-5.89c-6.86-4.42-14.44-9-22.55-8.18-5.64.59-10.63,3.77-15.33,6.93q-18,12.16-34.88,25.94c-10.16,8.3-20.07,17.1-31.66,23.26-2.8,1.5-5.7,2.83-8.59,4.15l-30,13.78a42.86,42.86,0,0,1-8.64,3.23c-2,.42-14,1.8-12.23,6.17.89,2.19,7.82.24,9.4,0,13.18-2.07,26.54-2.91,39.75-4.87Q252.38,175.29,264.81,172.86Z"/><path class="cls-33" d="M323.64,138.24a63.56,63.56,0,0,1,12-7.24c4.06-1.81,8.42-3,12.17-5.45a22.48,22.48,0,0,0,6.95-7.08,8,8,0,0,1,2.58-3.09c1.19-.65,3.07-.2,3.28,1.14a3,3,0,0,1-.29,1.49c-3.28,8.34-11.33,13.66-18.92,18.43-8,5-16.07,10.1-24.84,13.65-4.52,1.83-5.9-.2-2.74-3.58A72,72,0,0,1,323.64,138.24Z"/><path class="cls-34" d="M345.27,119.91c-2.48,2.67-5.75,4.46-8.95,6.2l-20.55,11.16c-14.82,8.06-30.26,16.29-47.1,17.34a5,5,0,0,1,0-5.22,14.38,14.38,0,0,1,3.73-4l34.2-28.45c6.14-5.11,12.5-10.34,20.12-12.73C336.8,101,357.51,106.73,345.27,119.91Z"/><path class="cls-35" d="M186.1,192a9.82,9.82,0,0,0,3.07,3.68c3.43,2.69,7.7,4.05,11.91,5.17,3.37.9,6.76,1.67,10.16,2.44,6.24,1.42,13,2.8,18.83.13a24.18,24.18,0,0,0,4.29-2.67A66.21,66.21,0,0,0,250,184.11a12.12,12.12,0,0,0,2-4.26,4.59,4.59,0,0,0-1.27-4.33c-1.18-1-2.85-1.11-4.4-1.16a10.5,10.5,0,0,0-3.36.24c-3.36,1-14.71,5-17.29,5.08a64.21,64.21,0,0,0-7.32.66,17.34,17.34,0,0,1-5.12.33c-1.54-.23-3-.91-4.49-1.21s-3.09-.22-4.61-.52c-2.46-.48-4.64-1.93-7.1-2.38s-5.6.73-5.84,3.22c-.06.66.1,1.32.06,2C191,186.65,183.45,185.84,186.1,192Z"/><path class="cls-36" d="M203.21,182.7c3.5,1,6.77,2.67,10.23,3.78A33,33,0,0,0,223.2,188a19.65,19.65,0,0,0,6.52-.93c3.61-1.24,6.56-3.89,9.16-6.68,1.57-1.69,3.18-3.53,5.39-4.19s5.14.55,5.31,2.84a5.41,5.41,0,0,1-.81,2.8,45.09,45.09,0,0,1-20.82,20,10.28,10.28,0,0,1-2.75.94,10.08,10.08,0,0,1-2.33,0,88.26,88.26,0,0,1-8.89-1c-2.66-.45-5.31-1-7.95-1.62-6-1.35-12.34-3-16.56-7.5a4,4,0,0,1-1.17-1.95c-.28-1.61,1.09-2.67,2.06-3.71s1.54-2.37,2.43-3.4C195.14,181,200.12,181.83,203.21,182.7Z"/><path class="cls-37" d="M223.85,193.08a12.92,12.92,0,0,1,3.88.17,3.6,3.6,0,0,1,2.7,2.54,3.38,3.38,0,0,1-1.38,3.18,7.74,7.74,0,0,1-3.37,1.32c-5,1-10.08.23-15.06-.64a55.77,55.77,0,0,1-11-2.77c-2.44-1-8.18-3.28-8.31-6.51-.24-5.68,15.21.54,17.46,1.06A56.06,56.06,0,0,0,223.85,193.08Z"/><path class="cls-38" d="M182.27,53.4c-.48-4.75-.71-9.6.44-14.23,1.25-5,4-9.42,6.84-13.73a48.59,48.59,0,0,1,4.9-6.66c5.16-5.59,12.49-8.57,19.56-11.38l15.7-6.24L240.27,11c4.51,4.18,9.06,8.4,12.46,13.52,6.27,9.44,8.13,21.3,7.07,32.58S255,79.18,250.73,89.69c-2.09,5.18-4.37,10.41-8,14.64-5.35,6.17-13.23,9.66-21.2,11.48-5.4,1.23-11.11,1.77-16.43.24-11.72-3.39-12.3-14.34-15-24.36C186.6,79.12,183.56,66.39,182.27,53.4Z"/><path class="cls-39" d="M228.36,19.29c1-3,2.61-6.39,5.71-6.71,2.24-.23,4.22,1.32,5.93,2.78,4.35,3.72,8.82,7.6,11.28,12.77,3.23,6.8,2.42,15.05-.92,21.8-3.93,7.94-11.92,14.33-20.78,14.29a5.45,5.45,0,0,1-2.9-.64c-5.14-3.19-5.81-13.26-4.82-18.58A201.16,201.16,0,0,1,228.36,19.29Z"/><path class="cls-40" d="M195.51,41.94c-.35,7.2,2,14.22,3.1,21.34a59.1,59.1,0,0,1,.27,15.38,3,3,0,0,1-.59,1.72c-1.19,1.31-3.3-.21-4.25-1.71-5.83-9.22-6.53-20.7-6.4-31.6a38.19,38.19,0,0,1,.74-8.21,32.37,32.37,0,0,1,4.69-10c3.83-5.89,8.88-11.55,15.67-13.34,2.85-.76,6.63-.31,7.69,2.44,2.64,6.91-8.37,6.86-11.94,8.51C198.74,29.08,195.8,35.92,195.51,41.94Z"/><path class="cls-41" d="M132.27,60.66a2.17,2.17,0,0,1,1.44-.55,2,2,0,0,1,1.08.65c4.66,4.48,7.26,10.68,9,16.9s2.8,12.64,5,18.73c1.6,4.47,3.81,8.73,4.93,13.35a10,10,0,0,1,.24,4.63,4.32,4.32,0,0,1-3,3.29c-2.7.61-4.86-2.16-6.25-4.56L132.62,92.25a72.12,72.12,0,0,1-6.19-12.48c-1.28-3.74-2.3-8.46-1.28-12.39C126,64.08,129.64,62.53,132.27,60.66Z"/><path class="cls-42" d="M147.89,103.1a131.67,131.67,0,0,1-5.09-13.66l-6.45-19.51A163.63,163.63,0,0,1,131,51.3c-1.5-7.3-1.95-15.14,1-22,3.5-8.16,11.33-13.89,14.89-22a.38.38,0,0,1,.68,0,5.68,5.68,0,0,0,2.73,2.33c10.19,5,21.9,7.78,30,15.79,6.08,6.05,9.29,14.39,11.38,22.71,2.36,9.41,3.5,19.07,4.55,28.71.79,7.19,1.52,14.47.4,21.61s-4.35,14.22-10.13,18.55c-4.24,3.18-9.51,4.65-14.7,5.73-5.81,1.22-10,1.84-13.62-3A91.1,91.1,0,0,1,147.89,103.1Z"/><path class="cls-43" d="M144,69c-.47-.81-1.07-1.72-2-1.82-1.44-.15-2.22,1.68-2.28,3.13-.11,3.18,1,6.28,2,9.28L146.81,94a36.18,36.18,0,0,0,4,8.64,12.25,12.25,0,0,0,7.58,5.36,13.73,13.73,0,0,0,.28-10.2C154.82,87.61,149.35,78.5,144,69Z"/><path class="cls-44" d="M59.74,94.65C55.42,87,53.19,77.9,55.25,69.39a54.23,54.23,0,0,1,4.83-11.67l9.36,1.21c4.66.6,9.31,1.21,13.91,2.15A37.51,37.51,0,0,1,94.73,65a31.1,31.1,0,0,1,7.23,6c10.19,11,14.71,26.06,16.83,40.87.41,2.84.73,5.79-.07,8.54-1.34,4.58-5.73,7.84-10.41,8.84s-9.56.09-14.07-1.49a35.52,35.52,0,0,1-17.85-13.42c-2.4-3.29-6.09-5.91-8.83-9A61.75,61.75,0,0,1,59.74,94.65Z"/><path class="cls-45" d="M79.91,155.91C64.8,149.11,49.8,141.4,37.79,130S16.94,103,16.9,86.4c4.23,2.11,9.23.07,13.66-1.58C39,81.68,48.43,80,57,82.77c10.72,3.4,18.18,12.8,25.76,21.1,10.38,11.38,22.09,21.45,33.77,31.49l8.89,7.64a132,132,0,0,0,12.84,10.16c13,8.67,28.89,12.57,41.45,21.91a4.25,4.25,0,0,1,1.93,2.44,3.75,3.75,0,0,1-.82,2.66c-7.3,10.87-24.87,2.94-34.44.17q-21.65-6.24-42.67-14.43Q91.69,161.22,79.91,155.91Z"/><path class="cls-46" d="M40.93,116.67c2.06,2.16,4.24,4.67,4.16,7.65a7.36,7.36,0,0,1-5.86-1.27,21.91,21.91,0,0,1-4.37-4.34l-9.21-11.09c-.42-.5-.86-1.16-.59-1.75.36-.78,1.51-.62,2.31-.31C33.34,107.85,36.6,112.09,40.93,116.67Z"/><path class="cls-47" d="M76.4,122.57a57.78,57.78,0,0,1-10.51-11.64,25.24,25.24,0,0,1-4.35-14.86,3.74,3.74,0,0,1,1.16-2.9c1.38-1,3.27,0,4.57,1.13C74.06,100,79,107.52,85.36,113.67c4.79,4.64,10.36,8.48,14.77,13.48,4.74,5.38,8,11.89,11.13,18.32.34.71-3.15-.56-3.35-.66-1.51-.76-3-1.67-4.43-2.52q-4.86-2.85-9.53-6A166.11,166.11,0,0,1,76.4,122.57Z"/><path class="cls-48" d="M136.18,161.11l39,16a3.49,3.49,0,0,1,1.78,1.23,2.31,2.31,0,0,1-.61,2.74,5.81,5.81,0,0,1-2.74,1.2c-6.43,1.44-13.19.56-19.55-1.21s-12.43-4.41-18.66-6.56c-4.41-1.52-8.89-2.8-13.24-4.47s-8.48-3.68-12.63-5.7L88.09,153.91c-3.56-1.74-6.38-6.69-.62-6.71,5.43,0,11.12,1.24,16.37,2.51C115,152.41,125.61,156.77,136.18,161.11Z"/><path class="cls-49" d="M75.68,72.33c-.44-4.66-.42-9.47,1.13-13.89,1.08-3.1,2.92-6.1,2.75-9.39,4.12,3,9.72,2.34,14.81,2.29a53.1,53.1,0,0,1,27.54,7.41,29.85,29.85,0,0,1,8.22,6.76c3.27,4.06,4.88,9.17,6.57,14.1a281.68,281.68,0,0,0,39,74.91,11.34,11.34,0,0,1-8.64,3.5,29.17,29.17,0,0,1-9.36-2,145.15,145.15,0,0,1-45-25.27c-11.43-9.47-22.71-19.59-29.53-33A71.33,71.33,0,0,1,75.68,72.33Z"/><path class="cls-50" d="M91.34,64.87a2.29,2.29,0,0,1-.83.33c-2.22.47-4.51-.34-6.51-1.4a8,8,0,0,1-3.91-3.63c-.93-2.18-.12-4.67.7-6.89,9.11,1.54,18.73,0,27.48,3a3.27,3.27,0,0,1,2.29,1.74c-.41-1.24-11.1.79-12.29,1.06-1.38.32-5.1.77-6,1.88S92.69,63.92,91.34,64.87Z"/><path class="cls-51" d="M110.68,107.06c2.56,3.45,5.3,7,6.25,11.15a2.8,2.8,0,0,1-.24,2.33,2.55,2.55,0,0,1-1.46.78c-3.79.91-7.68-1-10.76-3.45a57.29,57.29,0,0,1-10.18-11c-7.7-10.23-14.32-22.18-14-35A4.77,4.77,0,0,1,80.59,70a3.6,3.6,0,0,1,3.78-1.74c3.54.49,4.82,2.69,6.22,5.59q2.84,5.86,6,11.56A203.11,203.11,0,0,0,110.68,107.06Z"/><path class="cls-52" d="M105.25,73.71c-1.33-2-2.68-4.34-2-6.61.83-2.69,4-3.78,6.83-4.08a10.6,10.6,0,0,1,6.72,1,11.83,11.83,0,0,1,3,3,89,89,0,0,1,5.22,7.56,12.29,12.29,0,0,1,1.85,4.21A7.62,7.62,0,0,1,124,85.9C115.34,92.84,109.28,79.71,105.25,73.71Z"/><path class="cls-53" d="M205.36,89.62c.23-10,.39-20.65,6.22-28.73,1.76-2.42,2.88-4.89,5-7,4.21-4.16,6.61-7.56,12-10,2.36-1.06,5.67-2.9,8-4,2-.92,6.13-1.91,8-3,2.93-1.69,7.1-1.1,11.86-3.29,6.76,9.31,13.81,19.51,13.68,31-.05,4.89-1.43,9.66-3,14.29a175,175,0,0,1-26.81,50.46c-9.26,12.11-20.05,22.94-30.81,33.74a3.68,3.68,0,0,1-2,1.26c-2,.25-2.81-2.55-2.8-4.59,0-12,.79-23.68,1.72-35.59.42-5.27-.67-10.86-.9-16.16Q205.15,98.83,205.36,89.62Z"/><path class="cls-54" d="M207.64,94c-.15-2.4,0-5,1.38-6.93s4.27-3,6.27-1.72A6.38,6.38,0,0,1,217,87.27c5.33,8.25,5.64,18.66,8.4,28.09a4.26,4.26,0,0,0,1.22,2.25c1.32,1,3.26.3,4.68-.59,6.32-4,10.94-10.12,14.84-16.47,2.78-4.53,5.95-9.74,11.2-10.62,1.3,4.25-1,8.69-3.23,12.51a304.39,304.39,0,0,1-38.36,51.39,4.26,4.26,0,0,1-2,1.44,2.89,2.89,0,0,1-2.94-1.4,7.92,7.92,0,0,1-1-3.31c-1.32-9.93-.52-20-.41-29.93C209.54,111.66,208.19,102.91,207.64,94Z"/><path class="cls-55" d="M158.61,132.84a66.82,66.82,0,0,1-8.3-32.35c0-11.41,3-23.38,11-31.51,7,3.64,14.55,6.27,21.46,10.11s13.37,9.19,16.48,16.46c2.89,6.76,2.58,14.4,2.22,21.75l-1.18,24.19c-.22,4.42-.46,8.95-2.14,13s-5.1,7.76-9.47,8.48c-7.14,1.17-12.55-5-16.12-10.23C168,146.09,162.58,139.93,158.61,132.84Z"/><path class="cls-56" d="M157.42,88.54c.68-2.3,1.48-4.78,3.47-6.13,2.49-1.7,5.85-1,8.77-.16a56.32,56.32,0,0,1,12.21,4.4A41.61,41.61,0,0,1,189,91.82a79.9,79.9,0,0,1,8.12,8.13c1.4-2.73,0-6.16-2.17-8.35S190,88,187.68,86c-1.33-1.17-2.48-2.55-3.89-3.61a22.77,22.77,0,0,0-5.4-2.71l-13-5.11a6.06,6.06,0,0,0-2.93-.63A5.54,5.54,0,0,0,159,76.47c-6.15,8.4-6.39,19.61-6.38,30a6.57,6.57,0,0,0,.54,3.18c1.07,1.92,3.1,1.42,3.7-.41.3-.91-1.73-3.36-2-4.36C153.69,99.77,156,93.39,157.42,88.54Z"/><path class="cls-57" d="M190.09,125.65c-.1-7,4.86-13.34,11-16.77s13.26-4.47,20.24-5.2c7.64,16.72,4.42,37.84-7.85,51.54-1.79,2-4.15,4-6.81,3.64-2.43-.31-4.16-2.44-5.62-4.42a36.92,36.92,0,0,1-6.82-14.09C193,135.46,190.17,130.77,190.09,125.65Z"/><path class="cls-58" d="M218.58,122.22a7.82,7.82,0,0,0-.57-2.91,6.34,6.34,0,0,0-5.7-3.28,17.06,17.06,0,0,0-6.68,1.64,30.28,30.28,0,0,0-7.6,4.09,11.9,11.9,0,0,0-4.56,7.13c-.58,3.42.82,6.83,2.25,10q1.88,4.14,3.88,8.2c3.52,7.11,11.81,7,15.48-.31,1.5-3,1-7.67,1.56-10.89C217.43,131.34,218.77,126.89,218.58,122.22Z"/><path class="cls-59" d="M227.77,138.7l16.1-24.92c3.77-5.82,8.8-12.33,15.72-12,7.07.28,11.85,8.2,11.32,15.25s-4.81,13.2-9.14,18.79c-6.54,8.45-13.64,16.64-22.41,22.75-6.29,4.37-13.3,7.58-20.27,10.77L208,174.36c-2.69,1.23-5.51,2.49-8.47,2.34-4.36-.21-8.29-4.75-5.29-8.88,2.29-3.14,6.76-1.94,10-3.06C214.7,161.17,222.14,147.4,227.77,138.7Z"/><path class="cls-60" d="M241.58,132.89c-8.31,6.69-11,17.22-14.83,27.17,1.57.46,3.17-.5,4.51-1.45a122.48,122.48,0,0,0,25-23.73c1.11-1.39,11.71-13.09,8.29-15C262.83,118.92,243.29,131.52,241.58,132.89Z"/><path class="cls-61" d="M137.84,126.52c-3.22-4.59-6.26-9.42-10.55-13s-10.22-5.84-15.58-4.19c-4.19,1.28-7.36,4.66-10.32,7.9a9.56,9.56,0,0,0-2,2.74c-.76,1.91-.21,4.07.49,6,4.49,12.43,14.53,22.06,25.3,29.72A145.51,145.51,0,0,0,182.46,180c3.23.61,7.9,0,8-3.26a5.35,5.35,0,0,0-1.34-3.18c-6.87-9.39-17.89-12.07-26.36-19.45A155.16,155.16,0,0,1,137.84,126.52Z"/><path class="cls-62" d="M142.63,153.6c3.29,3,6.82,5.65,9.89,8.83a3.51,3.51,0,0,1,1,1.61c.33,1.55-1.56,2.83-3.12,2.56s-2.75-1.5-3.84-2.65a256.42,256.42,0,0,0-34.1-30.07c-2.57-1.9-11.18-6.93-6.66-10.35,3.77-2.86,10.36,3.84,13,6.08C127.42,136.93,134.23,146.07,142.63,153.6Z"/><path class="cls-63" d="M126.06,117.52A21.3,21.3,0,0,1,132.13,132c-2.24.43-4.33-1.14-6.09-2.61-2.59-2.17-11.12-7.59-10.68-11.6C116,111.92,123.63,115.06,126.06,117.52Z"/><path class="cls-64" d="M153,154.2c3.74.57,7.09,2.56,10.32,4.51l16.28,9.8a14.35,14.35,0,0,1,4,3.08,4.88,4.88,0,0,1,1,4.74,30.13,30.13,0,0,1-19-7.58c-2.57-2.3-5.53-4.15-8.06-6.41C156.62,161.55,152.31,154.1,153,154.2Z"/><path class="cls-65" d="M200.57,147.83A28.51,28.51,0,0,1,211.62,140a21.15,21.15,0,0,1-4.17,21.94c-1.37,1.44-3.26,2.76-5.19,2.31a5.09,5.09,0,0,1-3.27-3.47c-1.61-4.47,0-9.38,1.63-13.84"/><path class="cls-66" d="M181.75,138.57c1.83-3.09,4.71-5.72,5.37-9.25a9.06,9.06,0,0,0,3.64,2.84,44.44,44.44,0,0,1,9.18,6,15.51,15.51,0,0,1,5.26,9.36,7.4,7.4,0,0,1-1.71,6.05,10.71,10.71,0,0,1-4,2.2c-3.35,1.24-6.83,2.48-10.4,2.26C178.55,157.33,177.33,146.05,181.75,138.57Z"/><path class="cls-67" d="M171.53,169.21C166,163.94,162.41,157,159,150.11a11.07,11.07,0,0,1-1.41-4.09,3.7,3.7,0,0,1,1.87-3.64c2.32-1,4.7,1.41,7.22,1.78,2.7.39,5.32-1.66,8-1.21a12.33,12.33,0,0,1,2.94,1.16c6.13,2.81,13.25,1.42,20,1.79,3.62.2,7.51,1.09,9.81,3.89,2.69,3.26,2.37,8.1.91,12.07C202,178.9,184.11,181.13,171.53,169.21Z"/><path class="cls-68" d="M168,146.87a9.66,9.66,0,0,1,3.7.79c2,1,3.06,3.31,3.93,5.42l5.47,13.2a13.82,13.82,0,0,1,1.4,5.3c-1.33.37-2.7-.35-3.86-1.1C173.54,167.24,153.27,145.73,168,146.87Z"/></g></g></g></svg>