<svg xmlns="http://www.w3.org/2000/svg" viewBox="0 0 488.86 618.64"><defs><style>.cls-1{fill:#8c9e86;stroke:#232323;stroke-miterlimit:10;stroke-width:2px;}.cls-2{fill:#d4e4c3;}.cls-3{fill:#e4ecee;}</style></defs><g id="Layer_2" data-name="Layer 2"><g id="plants"><g id="watermelon-plant1"><path class="cls-1" d="M20.89,467.17C12.8,445.13,8.1,422,4.78,398.74s-5.29-46.69-2.33-69.89c7.46-58.57,45-108.35,82.29-154.16,15.49-19,36.86-36.37,56-51.81,25.73-20.82,53.91-43.1,83.79-54.89C267,51.22,309.86,43.4,347,1.23c11.71,5.63,19.05,23.43,22.62,35.93,10.06,35.26,33.57,64.8,52.82,96a441.87,441.87,0,0,1,65.28,219.66c.77,30.8-1.79,62.05-11.87,91.17-12.6,36.37-36.49,68-64.32,94.58-32.74,31.26-71.8,56.52-115.1,69.71-88.77,27-183.5-6.15-240.36-78.41A229.77,229.77,0,0,1,20.89,467.17Z"/><path class="cls-2" d="M220.65,440.54c5.76,3,11.5,5.95,17.41,8.38q2.22.91,4.47,1.71c1.49.55,3,1,4.55,1.41s3.06.9,4.61,1.22l4.69.92a99,99,0,0,0,19.09,1.12,130.68,130.68,0,0,0,19.07-2.42,180.82,180.82,0,0,0,18.63-5.11c6.1-2.09,12.12-4.46,18.05-7s11.76-5.42,17.5-8.41a126.2,126.2,0,0,0,16.49-10.05,97.94,97.94,0,0,0,14.23-13q1.65-1.78,3.24-3.62l3.13-3.71c2.13-2.44,4.07-5,6.08-7.58a226.87,226.87,0,0,0,20.9-32.72A232.1,232.1,0,0,0,437,288a232.56,232.56,0,0,1-23.35,74.09A228,228,0,0,1,393,395.22c-2,2.59-3.91,5.22-6,7.71l-3.11,3.77c-1.05,1.25-2.13,2.48-3.22,3.69a99.56,99.56,0,0,1-14.32,13.43,130.07,130.07,0,0,1-16.63,10.43c-5.75,3.08-11.61,5.95-17.54,8.69s-12,5.14-18.17,7.34a183.4,183.4,0,0,1-18.88,5.43,135,135,0,0,1-19.53,2.72,102.21,102.21,0,0,1-19.77-.92l-4.9-.89c-1.62-.33-3.21-.82-4.82-1.22s-3.2-.86-4.77-1.41-3.12-1.11-4.65-1.72c-6.14-2.44-12-5.38-17.81-8.29Z"/><path class="cls-2" d="M208.4,427.5A441,441,0,0,0,233,373.09q5.23-14,9.49-28.35c2.86-9.55,5.29-19.25,8.3-28.81,5.82-19.29,15.89-36.77,22.32-55.66,6.59-18.85,10.92-38.41,15.23-57.91-4.05,19.56-8.11,39.18-14.46,58.17s-16.06,36.71-21.55,55.87c-2.86,9.54-5.16,19.26-7.91,28.9s-5.77,19.18-9.14,28.62a445.41,445.41,0,0,1-24,55.09Z"/><path class="cls-2" d="M216.86,430.52l45.65-27.44c7.61-4.58,15.23-9.07,22.37-14.2a113.18,113.18,0,0,0,10.24-8.24,116.83,116.83,0,0,0,9.18-9.43c2.9-3.3,5.66-6.74,8.33-10.26,1.35-1.75,2.63-3.55,3.93-5.34s2.62-3.56,3.86-5.39c5-7.27,9.75-14.76,14.2-22.4a329.07,329.07,0,0,0,22.62-48,337.56,337.56,0,0,0,21.3-103.71A325.6,325.6,0,0,0,366.22,70.89a325.87,325.87,0,0,1,13.22,105.29,338.85,338.85,0,0,1-20.52,104.29c-12.29,33.4-29.77,65-52.59,92.51A120.29,120.29,0,0,1,297,382.7a114.89,114.89,0,0,1-10.43,8.54c-7.24,5.29-14.89,9.89-22.45,14.53l-45.42,27.81Z"/><path class="cls-2" d="M197.5,431.94c-7.72-30.91-10.82-62.81-10.58-94.57a485.8,485.8,0,0,1,10.32-94.53,485.81,485.81,0,0,0-9.17,94.54c.15,31.67,3.62,63.4,11.66,94Z"/><path class="cls-2" d="M193.62,439.76c-11.74,2.74-23.52,6-35.69,7.34a90,90,0,0,1-18.34.18,71.4,71.4,0,0,1-17.91-3.9,57.24,57.24,0,0,1-16-8.93,112,112,0,0,1-13.15-12.61L68.4,394.72l24.72,26.59a110.48,110.48,0,0,0,13.3,12.22,55.67,55.67,0,0,0,15.77,8.39,69.54,69.54,0,0,0,17.55,3.44,88.61,88.61,0,0,0,17.91-.55c11.89-1.57,23.49-5,35.25-8Z"/><path class="cls-2" d="M200.77,455.49a212.93,212.93,0,0,1-22.3,14.27,102.18,102.18,0,0,1-12,5.58,64,64,0,0,1-12.72,3.51,63.44,63.44,0,0,0,12.52-4,102.3,102.3,0,0,0,11.69-6,208.86,208.86,0,0,0,21.54-15.06Z"/><path class="cls-2" d="M194.74,433.33a151.34,151.34,0,0,1-26.83-19.4,160.9,160.9,0,0,1-22.1-24.49A156,156,0,0,1,129.26,361a137.39,137.39,0,0,1-9.77-31.31,136.81,136.81,0,0,0,10.6,30.92,156.39,156.39,0,0,0,66.4,69.51Z"/><polygon class="cls-2" points="209.57 454.12 196.92 505.4 205.93 453.36 209.57 454.12"/><path class="cls-2" d="M215,446.05c2.16,4.55,4.62,9,7.24,13.36s5.42,8.62,8.38,12.77,6.08,8.19,9.4,12.06a97.15,97.15,0,0,0,10.77,10.89,98.45,98.45,0,0,1-11.41-10.3c-3.56-3.71-6.92-7.6-10.14-11.61s-6.28-8.15-9.18-12.41-5.66-8.63-8.15-13.2Z"/><path class="cls-2" d="M194.23,445.33c.19-4-3.83-7.4-3.3-11.36.6-4.53,6.28-6.08,10.83-6.58l16-1.77c1.74,2.39,2.17,5.45,2.55,8.37l1.52,11.77a6.1,6.1,0,0,0-8.36,4c-.27,1.27-.11,2.64-.63,3.84-.88,2.05-3.34,2.84-5.55,3.14-3.59.49-7.82,0-9.86-3-2.21-3.23-1.06-8.3-4.08-10.8"/><path class="cls-3" d="M199.73,312.88c.11-10.31,1.46-20.56,2.82-30.78,3.41-25.77,6.84-51.64,13.6-76.75a298.12,298.12,0,0,1,51.58-104.21c23.78-30.88,53.44-56.85,77.15-87.77q-15.22,34.79-31.05,69.31a9.4,9.4,0,0,0-7.68-3,135.85,135.85,0,0,1-12.69,75.56,23.78,23.78,0,0,0-16.61-11.5c-.8,2.39,1,4.77,2.38,6.88,8.93,13.76,1.7,31.87-5.63,46.53-1.67,3.35-3.76,7-7.39,8a32.67,32.67,0,0,0-7.09-12.17c-3.56,9.68-.4,20.34,1.61,30.46s2.27,22.06-5.27,29.09c-3.06,2.86-8.23,4.38-11.29,1.52a55.63,55.63,0,0,1-4.33,38.65c-1.75,3.42-4.81,7.12-8.59,6.41,1.11,14.24.69,31.59-11.65,38.77-2.46,1.44,1.54,39-12.89,25.06-3.86-3.71-4.11-18.35-4.91-23.65A166.18,166.18,0,0,1,199.73,312.88Z"/><path class="cls-3" d="M266.63,354.65c-2.81,1.25-5.85,2.53-8.87,1.92s-5.6-4.05-4.16-6.77a7.5,7.5,0,0,1,2.06-2.18L296,315.19c-4.29,4.9-13.21-.23-13.89-6.7s3.59-12.32,7.62-17.43l25.06-31.72a11.26,11.26,0,0,1-21.42-.84c-2-7.05,3.11-14,8.27-19.21a137.52,137.52,0,0,1,27.07-21.14,48.86,48.86,0,0,1-19.2,3.49c-4.41-6.65-.8-15.54,3.29-22.39a189.11,189.11,0,0,1,25.38-33.39A24.92,24.92,0,0,1,324.56,167a68.79,68.79,0,0,1,19.27-42.11c-4.67,1.1-8.76-4.24-8.5-9s3.26-8.91,5.85-13a91.91,91.91,0,0,0,11.16-25,10.5,10.5,0,0,1-7,2.3,373.77,373.77,0,0,1,5.41-64.41L361,79.32c7.92,49.42,15.77,100.53,3.25,149-4.92,19-12.88,37.14-21.1,55-5.18,11.28-10.5,22.52-17,33.1a171.17,171.17,0,0,1-51.81,53.17c-5.08,3.33-21.6,15.35-27.69,6.93C241,368.79,260.79,357.5,266.63,354.65Z"/><path class="cls-3" d="M160.1,368.12c-.31,3.7,5.92,4.64,8.1,1.63s1.33-7.19.2-10.74a107.42,107.42,0,0,0-9.06-20.6l7.09,3.09c3.91-9.73,2.95-20.88-.49-30.78s-9.17-18.83-14.86-27.65a55.85,55.85,0,0,0,19,15.43A70.26,70.26,0,0,0,160,246.65a26.66,26.66,0,0,0,15.43,9,57.41,57.41,0,0,0,3-24.76c.32,1.5,2.63,1.69,3.71.6s1.21-2.78,1.18-4.31A40.24,40.24,0,0,0,174,202.14l11.06.78a67.16,67.16,0,0,0,8-49.48,7.57,7.57,0,0,0,6.52,6.14,96,96,0,0,0,13.76-30.45,19.54,19.54,0,0,0,12-16.87,8.16,8.16,0,0,0,6.15,1.42,28.94,28.94,0,0,0,3.31-16.48c5.61,3.14,11.9-2.54,16-7.46C262.22,76.07,297.37,50.38,311.88,40,292,44.72,253.45,71.47,237.71,84.49c-17.43,14.41-34.82,29.06-49.6,46.19-18.3,21.21-32.21,45.75-46,70.13-4.09,7.23-8.21,14.52-10.76,22.43-2.75,8.5-3.6,17.48-4.44,26.38-1.67,17.71-3.35,35.52-1.91,53.25a153.55,153.55,0,0,0,17.13,58.7c2.75,5.23,10.63,23.26,16.61,25C170.68,390,161.77,372.69,160.1,368.12Z"/><path class="cls-3" d="M135.21,419.73c4.06-2.31,4.28-8.54,1.54-12.33s-7.38-5.65-11.86-7-9.21-2.38-12.94-5.2l10.16.39a5.11,5.11,0,0,0,3.5-.71c2.18-1.78.23-5.22-1.74-7.22l-9.06-9.17c-1.63-1.65-3.33-3.44-3.82-5.71-.58-2.72.73-5.55.32-8.31C110,356,94.38,354.29,95.48,345.76l11.42-.49-7.85-40.76a16.24,16.24,0,0,0-1.78-20.65c7.24-8.42,6.76-22.41-1-30.31,4.35,1.72,9.2-2.52,9.93-7.15s-1.36-9.18-3.45-13.38c3.32,1.34,6-3,7.06-6.36,19.36-60.1,90.38-125.41,141.65-162.28-8.09.25-43.62,19.37-50.29,24-48.65,33.42-94.46,74.57-118.57,128.44-5.79,12.94-10.24,26.43-14.69,39.89-5.9,17.86-11.85,36-12.6,54.8-.78,19.59,4.12,38.93,9.55,57.76,2.72,9.44,5.7,19.07,11.69,26.85,6.58,8.53,16.2,14.08,25.55,19.42,6.44,3.67,38.64,22.88,43.05,11.8A99.33,99.33,0,0,0,135.21,419.73Z"/><path class="cls-3" d="M123.57,460.45l2.2-3.84A106.86,106.86,0,0,0,85,436.77c2.32-6.41-3.54-12.54-8.33-17.38-16.46-16.65-25.87-39.11-31.45-61.85-1.92-7.81-3.43-15.72-4.94-23.62-1.43-7.52-2.87-15.08-3-22.73-.42-18.07,6.16-35.47,12.65-52.34l5.93-15.42c8.14-21.18,47.18-73.61,60.47-92-8.76,10.71-48.28,52.41-56,63.87C20.23,274.5,10.21,353,34.11,420.35c3.32,9.34,7.29,18.56,13.19,26.54S60.62,461.17,68.44,467c6.54,4.88,13.42,9.43,21,12.34,14.76,5.64,31.82,4.07,45.74-3.19,3.3-1.72,18.21-10.09,16.63-14.77C149.8,455.36,127.77,459.26,123.57,460.45Z"/><path class="cls-3" d="M147.43,492.85c-6.84,2.48-14.35,1.9-21.59,1.28l-34.39-2.91a30.23,30.23,0,0,1-6.9-1.13A29.94,29.94,0,0,1,77.2,486c-10.92-7.48-22-15.05-30.77-24.92-15.84-17.75-23.23-41.51-27.15-65A278.83,278.83,0,0,1,27.75,268.8C10.19,291,8.65,321.46,8.38,349.74c-.39,39.49.55,80.51,17.87,116a136.2,136.2,0,0,0,61.08,61.64c5.66,2.82,11.68,5.28,18,5.47,5.2.15,10.31-1.24,15.27-2.79,9.43-2.95,18.83-6.59,26.56-12.73C157.74,508.94,171.29,484.18,147.43,492.85Z"/><path class="cls-3" d="M159.61,538.42a11.7,11.7,0,0,0-8.3-10.87c-4.82,6.77-14.14,8-22.29,9.6s-17.5,5.72-18.7,14c.11-4.57-3.21-8.62-7.15-10.91s-8.51-3.25-12.88-4.56a76.78,76.78,0,0,1-48-43.21C48,521.65,73.21,542.48,97.25,560c7.31,5.34,14.9,10.74,23.69,12.89,16,3.91,34.23-5.1,40.83-20.23,1.14-2.61,2-5.45,4.1-7.4a25.61,25.61,0,0,1,5.12-3.13c7.62-4.3,12.16-12.77,13.79-21.37,1.3-6.87,2.31-17.44-.87-23.44C172.67,500.52,159.53,527.26,159.61,538.42Z"/><path class="cls-3" d="M282,422.52c1.33-4.1,5.84-6.13,9.94-7.43a104.9,104.9,0,0,1,15.24-3.63c-2.8,3.34-8.6-1.57-7.4-5.77s5.72-6.34,9.76-8l23.71-9.61c-2.94.82-6,1.63-9,.89s-5.62-3.62-5-6.6a8.45,8.45,0,0,1,2.33-3.74,66.59,66.59,0,0,1,41.23-20.73c-6.31.79-14.46.57-16.82-5.33-1.51-3.75.33-8,2.71-11.27a34.72,34.72,0,0,1,24.43-13.89,61.56,61.56,0,0,1-15.36-4.18c.56-6.93,5.49-12.92,11.42-16.56s12.82-5.32,19.59-7c-5.67.23-12.84-.51-14.67-5.88a13.53,13.53,0,0,1-.26-5.53c.64-6.93,1.31-14,4.06-20.39s8-12.13,14.76-13.67a23.74,23.74,0,0,1-12.89-1.72c-3.23-7.25-.5-16,4.64-22.08s12.31-9.92,19.31-13.66c-6.33,1.54-12.55-4.87-12.63-11.39s4.32-12.33,9.58-16.16a12.88,12.88,0,0,1-1.56-23.83c-5.3.23-7.94-6.26-8.89-11.48a279,279,0,0,1-3.74-29.23c-1-13.89-15.74-60.56-22.31-72.85,5.63,12,37,80.09,31.43,68.07-3-6.45,10.74,22.89,17.79,42.5,10.73,29.87,11.43,62.34,13,94.05,1,20.18,2,40.86-4.07,60.16-4.11,13.14-11.29,25.08-18.41,36.88-13.32,22.07-27,44.59-46.93,61a114.57,114.57,0,0,1-44.64,22.38c-6,1.5-18.9,5.87-24.77,3.45-6.45-2.66-5.75-8.32,1.12-11.11C284.9,430.24,280.53,426.91,282,422.52Z"/><path class="cls-3" d="M322.08,504.26c24.08-2.14,46.8-12.53,66.86-26a147.74,147.74,0,0,0,25.59-21.17c11.85-12.62,20.49-27.85,29-42.91,6.9-12.18,13.87-24.53,17.52-38.05a154.29,154.29,0,0,0,3.68-20.6c2.3-17.92,1.74-36,2.55-54,1.86-41.24-34.36-136.54-53.26-165.72C424.3,168.47,448.11,264.78,447,299l6.43,2-8.5,13.26,5.87,2.78a75.63,75.63,0,0,0-16.21,22.64c-2.6,5.58-3.24,14.22,2.66,16-12.52,2-22.8,13.61-23.36,26.28l11.28,1.39c-5.63.79-10.14,4.88-14.27,8.78-1.6,1.51-3.29,3.18-3.69,5.34s1.26,4.8,3.44,4.49c-10.55-1.56-20.58,10.28-17.32,20.43-9-2.48-19.11,6.09-18.15,15.37-11.48-2.49-24,7.13-24.55,18.87-5.41-.49-11-.95-16.14.82s-9.7,6.4-9.59,11.83c-7.87-6.23-21.05-3.72-26.09,5-5-6.46-16.5-6.11-21.15.65-4.19-5.81-16.59-9.46-21.69-2.41-5.42,7.49,4.36,14.68,10,18.56C282,502.06,302.89,506,322.08,504.26Z"/><path class="cls-3" d="M235.15,511.81c-.41-3.84,4.22-6.95,7.89-5.74s5.66,5.61,4.92,9.4c10-4.18,20.58,3.88,31.28,5.42,4,.58,8.05.23,12.08.15,11-.21,22,1.66,32.83,3.53l6.08,1a73.49,73.49,0,0,1,39.84-15.27A40.27,40.27,0,0,1,401,499.64c.39-7.7,8.74-13.95,16.24-12.14a5.85,5.85,0,0,1,.4-7.87c1.72-1.57,4.21-1.94,6.24-3.08a17.18,17.18,0,0,0,4.78-4.61C467,423.62,483.59,358.73,473.2,298a223.35,223.35,0,0,1-6.6,144.37,183.32,183.32,0,0,1-17.91,34.5c-22,32.73-55.77,56-91.68,72.36-10.23,4.65-20.77,8.82-31.78,11.1a98.81,98.81,0,0,1-82.45-20.9c-11.23-9.47-26.18-28.18-21.68-44C227.18,497.72,232.05,506.11,235.15,511.81Z"/><path class="cls-3" d="M220.74,544.14c2.89-3.37,8.4-1.64,12.15.74a61.26,61.26,0,0,1,18.77,18.71c1.37,2.13,2.67,4.43,4.8,5.82s4.78,1.64,7.32,1.64c7.81,0,15.73-2.17,23.35-.45,6.68,1.51,12.6,5.9,19.42,6.45,11.16.89,20.66-8.59,31.78-9.8,3-.33,6.15,0,9.12-.76s5.83-2.62,8.5-4.38c26.28-17.31,56.63-30.61,75.14-56.05a255.1,255.1,0,0,1-83.52,70.52c-33.86,17.83-73.88,27.86-110.65,17.24-10-2.88-19.85-7.45-26.82-15.17-10.1-11.17-12.54-27.29-10.8-41.8C202,514.14,219.06,529.14,220.74,544.14Z"/><path class="cls-3" d="M164.33,566.77c-7.26.65-10.89,11.53-5.46,16.4,1.39,1.25,3.21,2.15,4,3.83,1.32,2.66-.4,6.19,1.16,8.71a7.59,7.59,0,0,0,3.8,2.61A168.5,168.5,0,0,0,270.46,606c-9.37,5-20.15-2.89-30.57-5-4.33-.88-8.81-.72-13.2-1.28a41.11,41.11,0,0,1-16.06-5.57,42.49,42.49,0,0,1-7.52-5.78c-7.56-7.26-12.33-17.05-15-27.19-1.71-6.48-3.54-15.17-11.39-13.29C170.38,549.38,165.38,561.36,164.33,566.77Z"/></g></g></g></svg>